<svg width="30" height="30" viewBox="0 0 27 31" fill="none" xmlns="http://www.w3.org/2000/svg">
<path d="M25.5012 10.0469C25.4322 10.1395 25.3215 10.1322 25.296 10.2521C25.2761 10.2521 25.0019 10.3102 24.8875 10.321C24.5843 10.4173 23.2751 9.74729 23.5929 10.2521C23.4585 10.2048 23.464 10.3174 23.4567 10.321C23.4367 10.3301 23.395 10.3102 23.3877 10.321C23.237 9.84896 22.9973 9.42954 22.774 8.99195C22.745 8.93566 22.8031 8.73593 22.774 8.68509C23.001 8.81764 23.2969 8.80312 23.2515 8.47992C23.3569 8.70688 23.5638 8.9048 23.5239 9.19531C23.7454 9.45496 23.7091 9.03553 23.7291 9.02463C24.1412 8.80493 25.0963 8.79404 25.5357 8.6161C25.9097 8.46539 26.2547 7.92976 26.4563 7.86621C26.3019 8.69417 25.9969 9.38596 25.5012 10.0487V10.0469Z" fill="#EB3075"/>
<path d="M25.8422 10.388C25.9983 10.408 26.3106 10.6404 26.4559 10.7294C25.9838 10.8438 25.7278 11.3667 25.3992 11.6845L24.1372 12.0258C24.0864 12.0131 24.0465 11.9822 24.0011 11.9568C23.8667 11.8878 23.8249 11.7026 23.6597 11.6845C23.5889 11.2886 23.4473 10.8401 23.3184 10.457C23.4255 10.4643 23.3692 10.3463 23.3874 10.3209C23.3946 10.31 23.4346 10.3299 23.4564 10.3209C23.7469 11.3032 25.3302 10.3263 25.8422 10.3899V10.388Z" fill="#AF3167"/>
<path d="M26.4554 10.7295C26.5407 10.7821 26.9837 10.9256 27.0001 11.0363L26.8984 11.207C26.1104 11.4068 24.9429 12.2329 24.1367 12.0259L25.3986 11.6846C25.7273 11.3686 25.9833 10.8439 26.4554 10.7295Z" fill="#760C3E"/>
<path d="M24.0003 11.9568C24.111 12.438 23.6517 15.4394 23.7279 15.6046C23.7443 15.6409 24.0003 15.7208 24.0693 15.7753L24.0003 15.8443C23.9131 15.7789 23.6517 15.7063 23.4556 15.5719C23.8532 15.4248 23.7915 12.6014 23.7279 12.0948C23.7116 11.9659 23.6825 11.8152 23.6589 11.6863C23.8223 11.7044 23.8659 11.8896 24.0003 11.9586V11.9568Z" fill="#30224C"/>
<path d="M25.501 10.0466C25.9948 9.38392 26.3017 8.69213 26.456 7.86417C26.4615 7.86235 26.4633 7.75522 26.5577 7.79517C26.8809 8.56685 26.2527 9.71438 25.501 10.0448V10.0466Z" fill="#5A0F30"/>
<path d="M23.5903 10.2519C23.6012 10.2555 23.5612 10.4444 23.6248 10.4571C24.0624 10.5442 24.4709 10.3572 24.8867 10.3209C25.0029 10.31 25.2753 10.2537 25.2952 10.2519C25.4931 10.2483 25.6529 10.3608 25.8399 10.3881C25.3261 10.3245 23.7428 11.3014 23.4541 10.3191C23.4614 10.3154 23.4541 10.2029 23.5903 10.2501V10.2519Z" fill="#D97570"/>
<path d="M3.88616 10.3191C3.88797 10.3718 3.89705 10.3935 3.95516 10.3881C3.76269 11.0091 3.67917 11.5157 3.6138 12.1602C3.61199 12.1784 3.47762 12.4834 3.47762 12.5016C2.91838 12.3781 2.3301 12.36 1.77267 12.2292L0.886606 11.65L1.05728 10.9346L0.136719 11.4122C0.441758 10.8511 1.77994 10.2955 2.38638 10.1176C2.20844 10.5606 3.63741 10.5515 3.88616 10.3227V10.3191Z" fill="#9C226A"/>
<path d="M6.13565 5.00093C4.93183 5.83071 3.80246 7.11805 3.68081 8.61419C3.4956 8.98823 3.46474 9.34774 3.27227 9.70543C3.04168 9.15164 3.6572 7.47938 3.95498 6.94374C4.37804 6.18478 5.37486 5.15708 6.13746 4.72858C6.27909 4.87746 6.12657 4.94828 6.13746 5.00093H6.13565Z" fill="#3D1137"/>
<path d="M1.77213 12.2292C1.50704 12.1674 0.0417613 11.7226 0 11.5138C0.0199728 11.4575 0.132547 11.4194 0.136178 11.4121L1.05674 10.9346L0.886066 11.65L1.77213 12.2292Z" fill="#5A0F30"/>
<path d="M4.02174 15.7063C3.93277 15.7463 3.82927 15.7899 3.74938 15.8425H3.6132C3.74938 15.7009 3.86922 15.7191 3.88556 15.4667C3.90008 15.2433 3.57507 14.261 3.54421 13.8979C3.51334 13.5348 3.45705 12.8303 3.47521 12.4998C3.47521 12.4816 3.60957 12.1766 3.61139 12.1584L4.01992 15.7045L4.02174 15.7063Z" fill="#0A4E78"/>
<path d="M16.431 2.75134C19.3724 3.65738 21.5658 5.08997 22.9766 7.86438C22.4592 8.31831 21.9998 6.90024 21.4769 7.04549C21.3425 6.9075 21.2118 6.76587 21.0683 6.63696C20.0606 5.1281 17.8073 3.35416 16.0225 3.0237C16.1586 2.92384 16.2531 2.77132 16.431 2.75134Z" fill="#F8EEF0"/>
<path d="M16.0218 3.02356C17.8067 3.35583 20.0599 5.12796 21.0677 6.63682C19.7422 5.45297 17.064 4.08756 15.2719 4.18198C15.2465 4.01493 15.4844 3.3867 15.4771 2.95456C15.6823 2.90735 15.8511 2.99087 16.0218 3.02356Z" fill="#F56D7E"/>
<path d="M21.0684 6.63884C21.2119 6.76776 21.3444 6.90938 21.477 7.04738C21.664 7.24166 22.6626 8.48361 22.7716 8.68333C22.8006 8.73417 22.7425 8.9339 22.7716 8.99019C22.9949 9.42777 23.2346 9.8472 23.3853 10.3193C23.3689 10.3447 23.4252 10.4627 23.3163 10.4555C22.2323 7.25255 18.6699 4.65246 15.338 4.38736C15.2854 4.30566 15.2836 4.27479 15.269 4.18219C17.0611 4.08777 19.7393 5.45319 21.0648 6.63703L21.0684 6.63884Z" fill="#B11B31"/>
<path d="M22.9773 7.86632C23.0953 8.09873 23.1516 8.26759 23.2497 8.48003C23.2951 8.80141 22.9991 8.81775 22.7721 8.68521C22.6614 8.48548 21.6646 7.24353 21.4775 7.04925C22.0005 6.904 22.4598 8.32207 22.9773 7.86814V7.86632Z" fill="#F7B3B5"/>
<path d="M24.8867 10.319C24.4709 10.3553 24.0624 10.5423 23.6248 10.4552C23.5613 10.4425 23.6012 10.2554 23.5903 10.25C23.2726 9.74523 24.5835 10.4152 24.8849 10.319H24.8867Z" fill="#9C226A"/>
<path d="M14.1826 4.38718C14.5549 4.38718 14.9779 4.35813 15.3411 4.38718C18.6729 4.65227 22.2353 7.25237 23.3193 10.4553C23.4482 10.8366 23.5898 11.2869 23.6606 11.6827C23.6842 11.8116 23.7133 11.9623 23.7296 12.0912C23.5027 12.7122 23.913 13.404 23.0469 13.7962C22.9888 13.1407 22.8817 12.7758 22.7056 12.1602C21.7995 8.96821 19.0197 6.88378 15.8186 6.22831C15.5916 5.83975 15.0451 5.33679 14.6929 5.06989C14.4114 4.85563 13.8013 4.81387 13.9085 4.38718H14.1808H14.1826Z" fill="#E2E7E9"/>
<path d="M23.4536 15.5702C23.2866 15.4558 23.1068 15.4231 22.9761 15.2633C23.056 14.8094 23.085 14.252 23.0451 13.798C23.9112 13.4058 23.499 12.7141 23.7278 12.0931C23.7913 12.5997 23.8531 15.4231 23.4554 15.5702H23.4536Z" fill="#CDE3EA"/>
<path d="M11.8632 5.34233C11.5746 5.7781 10.5795 5.582 10.1238 5.68368C9.42657 5.83984 9.52825 6.1249 9.16874 6.36639C8.2863 6.95831 7.15874 7.57384 6.85007 8.54887C7.25316 8.20934 7.86142 7.56113 8.38435 7.59381C8.20822 7.69368 7.94858 7.88069 7.77064 8.00235C6.28176 9.02459 5.17417 10.5407 4.56591 12.2293C4.58952 11.9624 4.43881 11.5157 4.49691 11.1726C4.70209 9.9615 5.87141 9.19708 6.47422 8.2057C6.65761 8.03503 7.82329 7.07089 7.83782 6.94379C7.85961 6.76585 7.83056 6.76766 7.66714 6.77311C7.4075 6.78037 5.88775 8.10221 5.72433 8.37457C5.57545 8.6215 5.62265 8.51256 5.72433 8.75042C5.51734 8.95741 4.43881 10.5371 4.32624 10.5225L4.08838 10.114C4.53504 8.87752 5.77881 6.67143 7.08793 6.29558C7.12425 6.28468 7.1878 6.30647 7.22411 6.29558C8.02484 6.95105 9.07069 5.78173 9.98581 5.54569C10.536 5.40407 11.284 5.37865 11.8614 5.34052L11.8632 5.34233Z" fill="#8BD5DE"/>
<path d="M3.68066 8.6161C3.80232 7.11814 4.93169 5.83262 6.1355 5.00284C6.13732 5.01555 6.32978 4.93021 6.27168 5.2407C6.17908 5.74183 4.12188 7.72822 3.68066 8.6161Z" fill="#C292C2"/>
<path d="M7.0906 6.29735C5.78147 6.6732 4.53771 8.87929 4.09105 10.1158C4.07107 10.1721 3.99844 10.2465 3.95487 10.3881C3.89858 10.3954 3.8895 10.3718 3.88587 10.3191C3.85137 9.58378 4.63394 8.12032 5.04429 7.49027C5.20408 7.24697 5.61079 6.99095 5.79418 6.74038C5.9122 6.5806 6.21361 5.62191 6.44239 5.68364C6.59309 6.00684 6.76195 6.16844 7.0906 6.29735Z" fill="#81115F"/>
<path d="M4.56751 12.2293C4.48761 13.1535 4.34054 13.5293 4.43133 14.5479C4.46038 14.8657 4.53664 15.178 4.50032 15.503C4.47491 15.503 4.09905 15.6737 4.02279 15.7082L3.61426 12.1621C3.67962 11.5175 3.76133 11.0109 3.95561 10.39C3.99919 10.2483 4.07182 10.1721 4.09179 10.1176L4.32965 10.5261C4.44222 10.5407 5.52075 8.96099 5.72774 8.754C5.93473 8.54701 6.29061 8.38178 6.47763 8.20929C5.87482 9.19885 4.7055 9.96326 4.50032 11.1762C4.44222 11.5193 4.59111 11.966 4.56932 12.2329L4.56751 12.2293Z" fill="#8BD5DE"/>
<path d="M12.1376 6.56951C10.9628 7.2159 9.46846 7.38294 8.52429 8.47782C6.94462 9.41472 5.44303 12.3997 5.45574 14.2046C5.32682 14.299 5.27417 14.2518 5.25056 14.1029C5.16886 13.5691 5.70631 10.8146 5.93327 10.2499C6.20018 9.58177 7.19337 8.63578 7.7744 8.20364C9.31594 7.05975 10.3654 6.92901 12.1376 6.56769V6.56951Z" fill="#C44446"/>
<path d="M13.5664 6.16119C13.5591 6.36818 13.4011 6.33005 13.668 6.36637C15.5074 6.61149 17.5809 6.85842 18.8846 8.34367C18.338 8.04771 17.7461 7.94785 17.1796 7.72997C15.4057 7.04726 14.7883 6.50255 12.8165 7.18525C11.6363 7.08539 9.55909 7.86433 8.52051 8.47985C9.46468 7.38498 10.959 7.21612 12.1338 6.57154C12.6367 6.46805 13.0144 6.21566 13.5664 6.16301V6.16119Z" fill="#E48B60"/>
<path d="M5.45467 14.2067C5.46012 14.9421 5.6199 15.6466 5.79602 16.3547L5.65984 16.4237C5.36207 16.0642 5.20229 15.6738 4.70478 15.5721C4.87727 15.1926 4.65394 14.8023 4.63578 14.4137C4.57405 13.0265 5.0425 11.3397 5.93038 10.2539C5.70524 10.8186 5.16597 13.5712 5.24768 14.1068C5.27128 14.2575 5.32212 14.3029 5.45285 14.2085L5.45467 14.2067Z" fill="#81115F"/>
<path d="M23.047 13.7978C23.0887 14.2535 23.0597 14.811 22.978 15.2631C23.1087 15.4229 23.2884 15.4555 23.4555 15.5699C23.3611 15.6044 23.0851 15.5336 23.0125 15.5699C22.7147 15.7206 22.3298 16.4941 22.0229 16.7284C22.0084 16.6902 21.914 16.7411 21.8867 16.3198C22.6511 15.1796 22.7964 13.638 22.5694 12.2962L22.7056 12.16C22.8799 12.7756 22.987 13.1405 23.047 13.796V13.7978Z" fill="#481D55"/>
<path d="M4.70337 15.57C4.61622 15.5518 4.51998 15.501 4.4982 15.501C4.53633 15.176 4.45825 14.8637 4.4292 14.5459L4.63437 14.4097C4.65253 14.7983 4.87586 15.1887 4.70337 15.5682V15.57Z" fill="#35155D"/>
<path d="M15.1357 6.09218C15.3517 6.1176 15.6023 6.18478 15.8184 6.22836C19.0195 6.88383 21.7975 8.96827 22.7053 12.1603L22.5692 12.2965C22.4203 11.4195 21.9064 10.2102 21.2056 9.63645C19.5932 7.60285 16.1851 5.90879 13.5687 6.15936C13.0167 6.21202 12.6391 6.46622 12.1361 6.5679C10.364 6.92922 9.31267 7.06177 7.77295 8.20385V7.99868C7.95089 7.87702 8.21053 7.68819 8.38666 7.59014C8.78248 7.36681 9.56324 6.99822 9.98812 6.84025C10.905 6.49708 12.0453 6.79123 12.0344 5.54565C12.3594 6.90744 12.4175 6.14665 13.398 6.02318C13.8919 5.96145 14.6309 6.03226 15.1375 6.09218H15.1357Z" fill="#4E1939"/>
<path d="M13.9098 4.38719C13.8027 4.81388 14.4127 4.85564 14.6942 5.0699C15.0464 5.33681 15.5911 5.84157 15.8199 6.22832C15.6038 6.18474 15.3533 6.11756 15.1372 6.09214C15.1772 5.96867 15.3896 6.05583 15.1717 5.88697C14.7813 5.58556 13.4758 5.22968 12.9892 5.27326C12.8258 5.28778 12.3446 5.5438 12.3065 5.54561C11.967 5.57103 11.9561 5.34044 11.9307 5.34044C11.9525 5.26055 12.0378 5.27144 12.1358 5.20426C12.45 4.99001 12.6134 4.6886 12.8185 4.38538H13.9098V4.38719Z" fill="#E3F8F8"/>
<path d="M15.1371 6.09218C14.6324 6.03408 13.8916 5.96145 13.3977 6.02318C12.4172 6.14665 12.3591 6.90744 12.0341 5.54566C12.045 6.79123 10.9047 6.4989 9.98778 6.84025C9.5629 6.99822 8.78215 7.36681 8.38633 7.59014C7.8634 7.55746 7.25514 8.20567 6.85205 8.54521C7.16072 7.57017 8.28828 6.95465 9.17071 6.36272C9.53022 6.12124 9.42673 5.83798 10.1258 5.68002C10.5797 5.57834 11.5747 5.77625 11.8652 5.33866C11.887 5.33866 11.9106 5.33866 11.9342 5.33866C11.9578 5.33866 11.9687 5.56926 12.3101 5.54384C12.3464 5.54021 12.8275 5.28601 12.9928 5.27148C13.4776 5.2279 14.7849 5.58197 15.1753 5.88519C15.3931 6.05405 15.1807 5.96508 15.1408 6.09037L15.1371 6.09218Z" fill="#B7E5F2"/>
<path d="M7.77335 8.20574C7.19232 8.63606 6.19913 9.58386 5.93222 10.252C5.04434 11.3378 4.57588 13.0246 4.63762 14.4118L4.43244 14.548C4.34166 13.5294 4.48873 13.1554 4.56862 12.2294C5.17688 10.5407 6.28447 9.02462 7.77335 8.00238V8.20755V8.20574Z" fill="#481D55"/>
<path d="M6.47846 8.20582C6.29144 8.38012 5.94464 8.53446 5.72857 8.75053C5.62689 8.51449 5.57968 8.62162 5.72857 8.37468C5.8938 8.10232 7.41174 6.78048 7.67138 6.77322C7.8348 6.76777 7.86385 6.76596 7.84206 6.9439C7.82572 7.071 6.66185 8.03332 6.47846 8.20582Z" fill="#B7E5F2"/>
<path d="M21.2055 9.63829C21.9064 10.2102 22.4203 11.4195 22.5691 12.2983C22.7961 13.6401 22.6527 15.1817 21.8864 16.3219C21.8574 15.8825 21.9972 15.4558 22.0226 15.0273C22.2187 11.8299 22.0971 12.4254 20.728 9.84528C20.3631 9.15894 20.7425 9.26244 21.2055 9.64011V9.63829Z" fill="#C44446"/>
<path d="M21.2043 9.63822C20.7413 9.26055 20.3618 9.15524 20.7267 9.84339C20.1584 9.335 19.5647 8.71039 18.8856 8.34362C17.5819 6.85837 15.5102 6.61143 13.6691 6.36631C13.4004 6.33 13.5601 6.36813 13.5674 6.16114C16.1838 5.91057 19.5919 7.60462 21.2043 9.63822Z" fill="#E56155"/>
<path d="M9.20417 4.66144L7.09068 6.12672C7.90412 6.29013 8.67398 4.92108 9.40934 5.34233C9.12064 5.44038 8.36894 6.06498 7.87507 6.2284C7.64447 6.30466 7.4284 6.23566 7.22686 6.29739C7.19054 6.30829 7.12699 6.2865 7.09068 6.29739C6.76204 6.16848 6.59318 6.00688 6.44247 5.68368C6.21369 5.62195 5.91228 6.58064 5.79426 6.74043C5.61088 6.99099 5.20234 7.24701 5.04438 7.49031C4.63221 8.12218 3.85145 9.58383 3.88595 10.3192C3.6372 10.548 2.20642 10.557 2.38618 10.114C2.69303 10.0232 3.18872 9.92699 3.51192 9.97783C3.61541 9.77266 3.36121 9.91792 3.27406 9.70548C3.46652 9.34778 3.49739 8.98827 3.68259 8.61424C4.12381 7.72636 6.18101 5.73997 6.27361 5.23883C6.33171 4.92835 6.13925 5.01369 6.13743 5.00098C6.12654 4.94832 6.27906 4.87569 6.13743 4.72862C6.22095 4.68141 6.20098 4.66144 6.20643 4.65962C6.31174 4.61423 6.26453 4.518 6.30811 4.52344C6.36803 4.53071 6.82559 5.21341 7.26317 5.20615C7.61179 5.19889 8.74116 4.14033 9.20598 4.04773C9.20416 4.19299 9.17511 4.56157 9.20598 4.66144H9.20417Z" fill="#C43387"/>
<path d="M5.99872 1.79619C6.04229 1.93237 6.09313 2.06491 6.13489 2.20472C6.31465 2.80391 6.07316 2.97458 6.47625 3.56832C6.49985 3.601 6.42359 3.739 6.57793 3.84068C7.22069 4.26192 8.47534 3.91875 9.20344 3.90967C9.20344 3.95507 9.20344 4.00046 9.20344 4.04585C8.73681 4.13845 7.60925 5.19883 7.26064 5.20427C6.82487 5.21335 6.36549 4.52883 6.30557 4.52157C6.26018 4.51612 6.3092 4.61235 6.20389 4.65775C5.78991 3.79529 5.87706 2.77486 5.65918 1.93055L6.00053 1.79437L5.99872 1.79619Z" fill="#DD5A99"/>
<path d="M9.61283 2.61501C9.70361 2.68037 10.2865 2.90007 10.0904 3.22872C9.217 2.35899 7.59557 1.49653 6.4426 2.20647C7.48118 2.23916 8.53248 2.45159 9.44215 2.95636C9.5293 3.00538 9.64551 3.20693 9.68001 3.22872L9.47483 3.94411C10.4553 3.45205 10.3409 5.93049 10.6006 3.90961C11.0963 4.21101 10.7277 4.45614 10.9419 4.86467C11.1344 4.23462 11.4848 4.96998 11.9315 4.86467C11.9388 4.95364 11.926 5.04806 11.9315 5.13703C11.4285 5.14974 10.9274 5.27684 10.4317 5.3422C9.98323 5.31497 9.35318 5.13884 9.20429 4.6595C9.17342 4.55963 9.20248 4.19104 9.20429 4.04578C9.20429 4.00039 9.20429 3.955 9.20429 3.90961C9.20429 3.90053 9.43307 3.93866 9.30597 3.77343L6.4771 3.56825C6.07401 2.97452 6.3155 2.80384 6.13574 2.20466C6.94918 1.27138 8.77578 2.01582 9.61283 2.61319V2.61501Z" fill="#DD5A99"/>
<path d="M14.7944 0.0241301C14.8108 0.13852 14.8543 0.173019 14.8634 0.229306C14.8725 0.294672 14.8543 0.369114 14.8634 0.43448C14.7418 0.403612 14.6655 0.525265 14.591 0.570658C14.0463 0.906564 13.3673 1.30784 12.8516 1.6619C12.0999 2.17938 12.0727 2.91292 10.8398 2.61696C10.8307 2.61515 10.8216 2.50802 10.7036 2.48079C11.468 1.03366 13.084 -0.195572 14.7944 0.0259448V0.0241301Z" fill="#EA8DB3"/>
<path d="M10.7047 2.47878C10.8227 2.50602 10.8318 2.61314 10.8409 2.61496C10.6557 2.57138 10.623 2.84374 10.8409 2.82013C10.5158 2.92363 10.0783 3.50466 10.465 3.7752C10.5649 3.44474 10.5594 3.24501 10.8735 3.02531C11.1986 2.94723 11.2258 3.15604 11.4183 3.29766C11.4782 3.34124 11.549 3.22322 11.5544 3.22867C11.6779 3.3594 11.9085 4.61769 11.9303 4.86462C11.4854 4.96993 11.135 4.23457 10.9407 4.86462C10.7265 4.45609 11.0951 4.21097 10.5994 3.90956C10.3397 5.92863 10.4541 3.452 9.47363 3.94406L9.67881 3.22867C9.77141 3.28677 9.77323 3.43747 10.0547 3.36484C10.1182 3.33398 10.0746 3.25227 10.0892 3.22867C10.2853 2.90002 9.70241 2.68032 9.61163 2.61496C9.91848 2.15014 10.3306 2.38981 10.7029 2.47878H10.7047Z" fill="#EE7DC1"/>
<path d="M15.4768 2.9565C15.4841 3.38864 15.2481 4.01688 15.2717 4.18392C15.2862 4.27471 15.288 4.30739 15.3407 4.3891C14.9775 4.36005 14.5545 4.3891 14.1822 4.3891L14.0806 4.25292C14.2876 4.2275 14.5835 4.34371 14.6598 4.11674C15.5204 4.08951 15.4986 3.07997 15.1373 2.54797C15.2644 1.63648 14.9739 1.18982 14.865 0.434482C14.8559 0.369117 14.874 0.29649 14.865 0.229309H14.9339C15.0374 1.03367 15.4623 2.00326 15.4787 2.9565H15.4768Z" fill="#760C3E"/>
<path d="M11.9314 5.13713C11.975 5.13713 12.024 5.13168 12.0676 5.13713C12.1184 5.14439 12.1439 5.1462 12.1366 5.20612C12.0385 5.2733 11.955 5.26241 11.9314 5.3423C11.9096 5.3423 11.886 5.3423 11.8624 5.3423C11.2868 5.37861 10.537 5.40585 9.98679 5.54747C9.07167 5.78352 8.02583 6.95283 7.2251 6.29736C7.42664 6.23563 7.6409 6.30644 7.87331 6.22837C8.36718 6.06495 9.11888 5.44035 9.40758 5.3423C9.63273 5.26604 10.0358 5.39314 10.4298 5.3423C10.9255 5.27693 11.4266 5.14984 11.9296 5.13713H11.9314Z" fill="#481D55"/>
<path d="M10.4317 5.34196C10.0377 5.3928 9.63463 5.2657 9.40948 5.34196C8.67412 4.92072 7.90426 6.28976 7.09082 6.12635L9.20431 4.66107C9.35319 5.14042 9.98324 5.31654 10.4317 5.34378V5.34196Z" fill="#D277A3"/>
<path d="M9.20473 3.90959C8.47663 3.91867 7.22198 4.26184 6.57922 3.84059C6.42488 3.73891 6.49933 3.60092 6.47754 3.56824L9.30641 3.77341C9.43351 3.93864 9.20473 3.90051 9.20473 3.90959Z" fill="#EA8DB3"/>
<path d="M10.0911 3.2289C10.0766 3.2525 10.1202 3.33421 10.0566 3.36508C9.77519 3.43771 9.77337 3.287 9.68077 3.2289C9.64627 3.20711 9.53006 3.00375 9.44291 2.95654C8.53324 2.44996 7.48195 2.23934 6.44336 2.20666C7.59633 1.49672 9.21776 2.35918 10.0911 3.2289Z" fill="#FCFCFD"/>
<path d="M11.7954 3.02348C11.7917 3.53369 11.9061 4.02756 12.0005 4.52325C12.0405 4.72843 12.1113 4.91545 12.0695 5.13696C12.026 5.13152 11.9769 5.13696 11.9334 5.13696C11.9279 5.04799 11.9406 4.95358 11.9334 4.86461C11.9134 4.61767 11.681 3.35938 11.5575 3.22865C11.5521 3.2232 11.4812 3.34123 11.4213 3.29765C11.227 3.15602 11.2016 2.94722 10.8766 3.02529C10.5625 3.24499 10.5679 3.44472 10.4681 3.77518C10.0795 3.50464 10.5171 2.92543 10.8439 2.82012C10.8839 2.80741 11.6047 2.81104 11.6955 2.82012C11.7972 2.82919 11.7863 3.02348 11.7972 3.02529L11.7954 3.02348Z" fill="#F8CEE5"/>
<path d="M14.8648 0.432489C14.9737 1.18782 15.2661 1.63449 15.1372 2.54598C15.1263 2.62768 15.0918 2.90912 15.0682 2.95451C14.9211 2.48061 14.9156 2.76568 14.5906 2.88551C14.0023 2.38801 13.0963 2.98901 12.4771 3.29405C12.4681 3.27952 12.2774 3.08342 12.272 3.02169C12.5443 2.96177 13.7372 2.01397 13.9769 1.75977C14.0405 1.69259 15.0645 0.519644 14.5906 0.566853C14.6651 0.52146 14.7432 0.399807 14.863 0.430674L14.8648 0.432489Z" fill="#EA8DB3"/>
<path d="M14.5913 0.56877C15.0652 0.521562 14.0411 1.69451 13.9776 1.76169C13.7379 2.01407 12.545 2.96369 12.2726 3.02361C12.1873 3.04177 11.8895 3.03814 11.7951 3.02361C11.7842 3.02361 11.7951 2.82933 11.6934 2.81843C11.6008 2.80936 10.8818 2.80572 10.8418 2.81843C10.6239 2.84204 10.6566 2.56968 10.8418 2.61326C12.0729 2.90922 12.1001 2.17567 12.8536 1.6582C13.3693 1.30413 14.0484 0.904678 14.5931 0.566956L14.5913 0.56877Z" fill="#DD5A99"/>
<path d="M14.6582 4.11493C13.9465 4.13672 14.2642 4.04412 13.8394 3.57022C14.2043 3.38865 14.8816 3.32873 15.0668 2.95651C15.0886 2.91112 15.1231 2.62786 15.1358 2.54797C15.4971 3.07998 15.5189 4.08951 14.6582 4.11675V4.11493Z" fill="#BD4375"/>
<path d="M13.8394 3.57005C14.2625 4.04577 13.9466 4.13837 14.6583 4.11476C14.5821 4.34173 14.2843 4.22552 14.0791 4.25094L14.1808 4.38712H12.8172C12.8245 4.37623 12.6538 4.27636 12.7827 4.11476C12.8117 4.07845 13.4836 3.67899 13.5671 3.63723C13.6143 3.61363 13.7922 3.59184 13.8394 3.56824V3.57005Z" fill="#81115F"/>
<path d="M14.5912 2.88736C14.3697 2.96906 14.1482 3.03624 13.943 3.15971C13.9176 3.17605 13.3656 3.59911 13.5672 3.63724C13.4836 3.679 12.8118 4.07846 12.7828 4.11477C12.6521 4.27637 12.8245 4.37624 12.8173 4.38713C12.6139 4.69035 12.4487 4.99176 12.1346 5.20602C12.1418 5.1461 12.1182 5.14428 12.0656 5.13702C12.1092 4.9155 12.0365 4.72848 11.9966 4.52331C12.1346 4.47973 12.4759 4.49244 12.5758 4.38713C12.7755 4.17832 12.6466 3.57914 12.4741 3.29589C13.0933 2.98904 13.9993 2.38985 14.5876 2.88736H14.5912Z" fill="#C43387"/>
<path d="M12.273 3.02386C12.2785 3.0856 12.4691 3.2817 12.4782 3.29622C12.6507 3.57947 12.7796 4.17865 12.5799 4.38746C12.4782 4.49277 12.1387 4.48006 12.0007 4.52364C11.9063 4.02795 11.7919 3.53408 11.7955 3.02386C11.8899 3.03839 12.1877 3.04202 12.273 3.02386Z" fill="#D277A3"/>
<path d="M15.0671 2.9564C14.8819 3.32862 14.2047 3.38854 13.8397 3.57011C13.7925 3.59371 13.6146 3.6155 13.5673 3.63911C13.364 3.60098 13.916 3.17792 13.9432 3.16158C14.1466 3.03811 14.3699 2.97093 14.5914 2.88922C14.9164 2.76938 14.9219 2.48432 15.0689 2.95822L15.0671 2.9564Z" fill="#EA8DB3"/>
<path d="M4.22743 29.2751C4.27827 29.4059 4.24559 29.3732 4.36361 29.4803C3.91513 29.6601 3.46302 30.7332 3.40855 31.1508C3.12348 33.355 4.65957 34.459 6.34092 35.4122C6.12122 35.5629 6.24469 35.5466 6.27192 35.7536C5.93602 35.4958 5.5874 35.2615 5.24968 35.0037C3.73719 33.8507 2.69316 32.6959 3.34137 30.6406C3.44123 30.3246 3.96234 29.3205 4.22743 29.277V29.2751Z" fill="#630C15"/>
<path d="M4.36403 29.4786C5.04855 30.0942 6.90239 30.5154 7.2964 31.5921C6.88787 31.1745 4.80525 30.056 4.5692 30.8077C4.04628 32.4746 6.47025 34.4482 7.67225 35.2054C8.17157 35.5195 8.88333 35.5195 9.13753 36.1604C9.19382 36.3021 9.33181 37.0265 9.3427 37.1827C9.35541 37.3806 9.39354 37.8436 9.13753 37.7964C9.04674 37.6965 8.95414 37.6166 8.86517 37.524C8.60008 37.0574 8.10984 36.253 7.67225 35.9553C7.30366 35.7065 6.73353 35.6321 6.34315 35.4106C4.66181 34.4573 3.12571 33.3534 3.41078 31.1491C3.46525 30.7315 3.91736 29.6584 4.36584 29.4786H4.36403Z" fill="#E48B60"/>
<path d="M7.49847 31.3196C7.62375 31.552 7.68912 32.0078 7.83982 32.2747C7.61468 32.1222 7.4676 31.7699 7.29511 31.592C6.9011 30.5153 5.04726 30.094 4.36274 29.4785C4.24472 29.3732 4.2774 29.4041 4.22656 29.2733C4.82212 29.1753 7.18798 30.7404 7.49847 31.3196Z" fill="#3F1022"/>
<path d="M7.2952 31.5937C7.46769 31.7717 7.61658 32.1221 7.83991 32.2764C8.27931 33.0554 8.67877 33.798 9.47587 34.2537C9.84809 34.4662 9.9189 34.4625 10.2947 34.5951C10.9865 34.9274 11.7201 35.1489 12.1359 35.857L11.9652 36.0949C11.5657 36.2129 10.943 35.4358 10.4999 35.6518C11.0301 35.8116 11.5875 36.4562 11.5912 37.0154C11.337 37.571 10.5417 36.064 10.2276 36.0604C10.5399 36.5143 10.9647 36.852 10.9775 37.4585C10.8849 37.4639 10.8485 37.64 10.6706 37.5946C10.2857 37.4966 9.89529 36.4308 9.61386 36.231C9.41231 36.0876 9.4686 36.1566 9.13633 36.162C8.88031 35.5211 8.17037 35.5229 7.67105 35.207C6.46905 34.4498 4.04689 32.4761 4.568 30.8093C4.80404 30.0576 6.88666 31.1743 7.2952 31.5937Z" fill="#FBC99C"/>
<path d="M3.75055 15.8428C2.15817 16.8777 2.72467 19.4197 4.39876 20.0697C4.74737 20.2059 5.76054 20.2386 5.83135 20.2749C5.89127 20.3058 6.07647 21.2372 6.27438 21.5368C7.0043 22.6408 8.50589 22.7261 9.47911 23.2763C9.23581 23.2218 8.93803 23.2599 8.72922 23.2073C7.93939 23.0094 6.62118 22.4084 6.13821 21.742C5.9185 21.4388 5.76235 20.7034 5.49 20.5491C5.21764 20.3948 4.48228 20.3748 4.0574 20.1406C2.86085 19.476 2.30706 17.7184 2.93166 16.4928C3.11142 16.1387 3.41283 16.0516 3.61437 15.8446H3.75055V15.8428Z" fill="#630C15"/>
<path d="M23.8646 31.1162C24.1969 32.981 23.3363 34.2683 21.7511 35.1399C21.6041 35.1689 21.477 35.2361 21.3426 35.276C21.2264 35.3105 21.132 35.4467 21.1374 35.207C22.2396 34.5606 23.3163 34.143 23.5923 32.685C23.6703 32.2674 23.7157 31.5647 23.6613 31.1507C23.6032 30.7113 22.9404 29.5547 22.9786 29.3441C23.3816 29.8707 23.7466 30.4553 23.8646 31.1162Z" fill="#630C15"/>
<path d="M22.977 29.3424C22.9371 29.553 23.5998 30.7096 23.6597 31.149C23.7142 31.5612 23.6706 32.2657 23.5907 32.6833C23.3892 32.6216 23.4618 32.3892 23.4545 32.2058C23.391 30.5716 22.9843 30.7006 22.7047 29.6148C22.6738 29.4968 22.8172 29.4713 22.7047 29.3424C22.8063 29.2662 22.8626 29.1754 22.9098 29.1372C22.9244 29.1263 22.9643 29.1481 22.9788 29.1372C22.9716 29.2026 22.9915 29.277 22.9788 29.3424H22.977Z" fill="#FAE8CE"/>
<path d="M23.4538 32.2074C23.0452 32.8375 22.7348 33.315 22.1247 33.7762C21.5146 34.2374 19.0888 35.2233 18.9544 35.788C18.8528 36.2111 19.0961 36.3672 19.0906 36.4017C19.0815 36.4562 18.6621 37.315 18.6131 37.3913C18.5368 37.5111 18.23 38.0685 18.0684 37.6981C17.8814 37.2733 18.4479 36.872 18.3062 36.5052C17.3639 38.4535 16.8065 37.4657 17.8287 36.0277C17.6199 36.1802 16.6848 37.6473 16.3634 37.2206C16.042 36.7939 17.244 35.897 17.4202 35.6191L16.1583 36.369C16.1474 36.3563 15.9095 36.3255 15.8859 36.1984C15.8351 35.9206 16.7193 35.3486 16.9771 35.2433C16.7701 35.2996 16.0929 35.3686 15.9549 35.414C15.8568 34.5279 17.2876 34.5315 17.8305 34.3227C18.5768 34.0358 19.274 33.2787 19.432 32.4816C19.6589 32.1802 19.8441 31.8461 20.0457 31.5265L22.7057 29.6182C22.9853 30.704 23.392 30.5751 23.4556 32.2092L23.4538 32.2074Z" fill="#FBC99C"/>
<path d="M22.7035 29.6165L20.0435 31.5248C20.1161 31.4104 20.1215 31.1308 20.2486 30.9801C20.5355 30.6387 22.1896 29.7272 22.7035 29.3441C22.816 29.473 22.6726 29.5003 22.7035 29.6165Z" fill="#D3663C"/>
<path d="M20.2502 30.98C20.1231 31.1307 20.1177 31.4104 20.045 31.5248C19.8435 31.8425 19.6583 32.1784 19.4313 32.4798C19.4404 32.4381 19.4277 32.3872 19.4313 32.3436C19.6292 31.9569 19.7781 31.3559 19.976 30.98H20.2484H20.2502Z" fill="#582331"/>
<path d="M22.1603 20.9555L22.0913 20.8865C22.1476 20.783 22.124 20.2764 22.262 20.2038C22.3437 20.1621 22.6905 20.2438 22.8067 20.2038C24.695 19.5701 25.7772 17.1861 23.9996 15.8407L24.0686 15.7717C25.0328 16.5361 25.267 17.1916 24.8875 18.4644C24.3809 20.1621 22.9828 19.9678 22.1603 20.9537V20.9555Z" fill="#630C15"/>
<path d="M22.1597 20.9556C20.9105 22.4517 20.2604 22.7041 18.4102 23.4104C18.0798 23.5375 17.2282 23.6011 16.9776 23.819L16.7725 23.6828C18.1597 23.3832 21.3971 22.1612 22.0907 20.8866L22.1597 20.9556Z" fill="#582331"/>
<path d="M16.636 24.0242C16.7195 27.5866 11.9859 27.9498 11.3178 24.5689C11.3087 24.5272 11.325 24.4763 11.3178 24.4327H11.3868C11.5829 24.8703 11.6464 25.228 12.0005 25.5912C12.9664 26.5844 15.6083 26.2666 16.2274 24.9775C16.3691 24.6833 16.3164 24.1695 16.636 24.0224V24.0242Z" fill="#FBC99C"/>
<path d="M7.56859 30.6389C7.5922 30.7043 7.56859 30.9458 7.56859 31.0475C7.56859 31.1346 7.61217 31.3035 7.4996 31.3198C7.18911 30.7424 4.82143 29.1755 4.22769 29.2735C4.19319 29.1864 4.15869 29.1446 4.15869 29.1373C4.1823 28.8849 4.53999 28.7415 4.63622 28.5236C5.18457 28.8886 7.37068 30.0688 7.56859 30.6371V30.6389Z" fill="#8BD5DE"/>
<path d="M4.56702 27.365C4.38908 27.621 4.2765 28.0186 3.95331 28.2165C4.07678 28.3491 4.24564 28.3219 4.43084 28.3872C4.46352 28.3999 4.53433 28.3745 4.56702 28.3872C4.54341 28.5016 4.56883 28.4798 4.63602 28.5234C4.53978 28.7413 4.18209 28.8847 4.15848 29.1371C2.64963 28.8067 4.1494 28.0786 4.43084 27.365C4.45989 27.3759 4.52344 27.3595 4.56702 27.365Z" fill="#217699"/>
<path d="M19.7725 23.9569C20.1665 24.1584 20.4697 24.3926 20.8292 24.6396C20.9127 24.6959 21.0435 24.5579 21.0671 24.5706C21.0707 24.5724 21.1324 24.6341 21.1361 24.6396C21.1433 24.6487 21.0416 24.7703 21.1361 24.8774C21.8406 25.6782 22.2219 26.6042 22.841 27.3323C23.5637 28.1838 24.4407 27.8879 23.2495 28.9337L23.1134 28.5924V28.5234C23.9323 28.4235 22.8864 27.7735 22.7048 27.5338C22.1238 26.7749 21.6899 25.8271 21.0689 25.079L19.7743 23.9532L19.7725 23.9569Z" fill="#0D85AB"/>
<path d="M23.2509 28.9338C23.1692 29.0046 23.0639 29.0718 22.9786 29.139C22.964 29.1499 22.9241 29.1281 22.9096 29.139L22.6372 29.0028C22.7861 28.8975 22.9477 28.6851 23.1147 28.5943L23.2509 28.9357V28.9338Z" fill="#0A4E78"/>
<path d="M6.81831 25.5929C6.73298 25.6891 6.64219 26.0686 6.47696 26.2411L4.43066 28.3891C4.24545 28.3237 4.07659 28.3509 3.95312 28.2184C4.27632 28.0187 4.38889 27.6228 4.56683 27.3668C4.57047 27.3632 4.58862 27.365 4.63583 27.2978C5.10973 26.6188 5.71618 25.8689 6.27179 25.2515L6.8165 25.5929H6.81831Z" fill="#8BD5DE"/>
<path d="M9.47753 23.2743C9.59011 23.3378 9.70813 23.336 9.68271 23.4794C9.2306 23.4758 8.25919 23.7718 7.84158 23.957C6.97004 24.3437 6.81207 24.6542 6.27281 25.2516C5.73354 25.849 5.11075 26.6188 4.63685 27.2979C4.6423 27.2543 4.62777 27.1962 4.63685 27.1617C4.71493 26.8857 5.93872 25.3042 6.20563 25.0137C6.20926 25.0101 6.10939 24.9411 6.13663 24.912C6.14752 24.8993 6.22741 24.9574 6.3418 24.843C7.03904 24.1476 7.88516 23.6955 8.72764 23.2071C8.93645 23.2597 9.23423 23.2198 9.47753 23.2761V23.2743Z" fill="#0A4E78"/>
<path d="M19.4997 30.0921C19.5233 30.1992 19.5161 30.1919 19.5687 30.2972C19.6722 30.506 19.7848 30.7439 20.0463 30.7058C19.9682 30.8292 19.9972 30.9436 19.9773 30.9781C19.7794 31.354 19.6305 31.955 19.4326 32.3417C19.1983 32.7993 18.7353 33.7198 18.3068 33.9777C17.635 34.3826 15.5724 34.3553 15.8865 35.4774C15.6559 35.5573 15.7085 35.7371 15.2038 35.7498C15.1257 35.7516 15.004 35.7117 14.9986 35.8188C14.8406 35.8224 14.679 35.8188 14.5211 35.8188C14 35.8188 13.2337 35.8842 12.7489 35.8188C11.8066 35.6917 12.1497 35.2305 11.487 34.8637C11.1838 34.6967 10.4866 34.6586 10.2941 34.5914C9.92005 34.4588 9.84743 34.4625 9.47521 34.25L7.56689 31.0453C7.56689 30.9418 7.5905 30.7021 7.56689 30.6368C7.82654 30.5006 7.66313 30.4861 7.56689 30.3644C7.74665 30.4134 7.69399 30.2319 7.70307 30.2282C7.71941 30.2192 7.84107 30.3499 8.04443 30.1266C8.24779 29.9032 8.28773 29.2931 8.65814 29.6145C8.83789 31.3812 9.40984 32.8665 10.9768 33.8415C12.9178 35.0489 15.7902 34.9727 17.6931 33.7053C19.0513 32.8011 18.7208 32.1111 18.886 30.7058C19.024 29.5401 19.1184 28.4743 19.1584 27.2959C19.1675 27.0362 19.1529 26.7729 19.1584 26.5115C19.5252 27.5918 19.2401 28.9554 19.4997 30.0902V30.0921Z" fill="#0D85AB"/>
<path d="M7.56835 30.3665C7.66458 30.4881 7.82799 30.5045 7.56835 30.6388C7.37044 30.0705 5.18432 28.8885 4.63598 28.5253C4.57061 28.4818 4.54338 28.5035 4.56698 28.3892C5.33684 28.6688 7.06903 29.7364 7.56653 30.3665H7.56835Z" fill="#0A4E78"/>
<path d="M8.04672 25.2516C7.65816 25.6329 7.70355 26.1867 8.1484 26.479L8.42076 26.0705C8.58599 26.0523 8.49702 26.203 8.52244 26.2757L7.70355 30.2303C7.70355 30.2303 7.74713 30.4155 7.56737 30.3665C7.06987 29.7364 5.33768 28.6688 4.56782 28.3892C4.53514 28.3764 4.46432 28.4019 4.43164 28.3892L6.47795 26.2412C6.64318 26.0687 6.73396 25.6892 6.8193 25.593C6.98453 25.4078 7.86333 24.8612 8.04672 25.2516Z" fill="#91E2E0"/>
<path d="M19.7708 23.9569L21.0654 25.0827C21.6882 25.8307 22.1203 26.7785 22.7013 27.5375C22.8829 27.7754 23.9288 28.4272 23.1099 28.5271C23.0808 28.5307 22.7867 28.3945 22.7685 28.3909C22.7395 28.3855 22.8085 28.2111 22.4272 28.3219L20.1775 25.4585C19.7581 24.4417 19.7617 24.1948 18.6777 23.6174V23.5484C19.2697 23.6809 19.2279 23.6809 19.769 23.9569H19.7708Z" fill="#E3F8F8"/>
<path d="M22.7736 28.3892C22.7917 28.3928 23.0859 28.529 23.1149 28.5253V28.5943C22.9479 28.6869 22.7863 28.8994 22.6374 29.0029C22.1835 29.3206 20.2461 30.3901 20.0464 30.7078C19.7849 30.7459 19.6723 30.5063 19.5688 30.2993L22.7736 28.391V28.3892Z" fill="#8BD5DE"/>
<path d="M22.6361 29.0028L22.9084 29.139C22.8612 29.1753 22.8068 29.2661 22.7033 29.3442C22.1894 29.7291 20.5353 30.6388 20.2484 30.9801H19.9761C19.9942 30.9456 19.967 30.8294 20.0451 30.7078C20.2448 30.39 22.1822 29.3206 22.6361 29.0028Z" fill="#1B1321"/>
<path d="M8.79643 24.9103C8.68931 24.9284 8.09194 25.2062 8.04655 25.2516C7.86316 24.8613 6.98436 25.4078 6.81913 25.593L6.27441 25.2516C6.81368 24.6524 6.96983 24.3438 7.84319 23.957C7.78508 24.5072 8.83275 24.4327 8.79825 24.9121L8.79643 24.9103Z" fill="#1D90AA"/>
<path d="M18.4075 23.4103C18.5419 23.374 18.5764 23.5229 18.6799 23.5465V23.6155C18.3658 23.9877 17.9518 24.2419 17.6576 24.6378C17.0239 25.4911 17.1293 26.5842 15.9872 27.2288C13.9699 28.3672 11.0938 27.2669 10.5673 24.9446C10.4547 24.8302 10.4093 24.99 10.3621 25.0463C10.3349 25.079 9.97354 25.7435 9.95357 25.7962C9.77563 25.6655 10.1333 25.0136 10.0552 24.9773C9.70119 25.1443 9.13469 24.852 8.79333 24.9083C8.82783 24.429 7.78017 24.5034 7.83827 23.9532C8.25588 23.768 9.22728 23.4739 9.6794 23.4757C10.1315 23.4775 10.6726 23.6773 11.112 23.8171C11.1483 23.9768 11.2718 24.1639 11.3172 24.4308C11.3244 24.4743 11.3081 24.5252 11.3172 24.567C11.2209 24.5815 11.2645 24.4308 11.2155 24.4308C11.1665 24.4308 11.2082 24.5815 11.1138 24.567C10.8614 24.0095 10.7234 24.9029 10.8415 25.3513C11.3626 27.3214 14.2822 28.0495 15.9218 27.0908C16.7552 26.6024 17.8991 24.6668 16.9114 23.9551C16.9241 23.9242 16.9731 23.8243 16.9804 23.8189C17.2309 23.601 18.0807 23.5356 18.413 23.4103H18.4075Z" fill="#217699"/>
<path d="M11.1809 23.6156C11.1609 23.6955 11.0883 23.7119 11.1119 23.8208C10.6725 23.681 10.1441 23.4831 9.67929 23.4795C9.70653 23.336 9.58851 23.3397 9.47412 23.2743C10.0352 23.4014 10.6089 23.5285 11.1791 23.6156H11.1809Z" fill="#4A354A"/>
<path d="M20.1823 25.4566C20.3856 25.9486 20.4129 26.3245 20.727 26.8547C21.1028 27.4884 21.6875 27.9223 22.0906 28.5251C21.2081 28.9918 20.4219 29.6872 19.4996 30.0939C19.2399 28.9573 19.525 27.5955 19.1582 26.5151C19.1528 26.7766 19.1673 27.0399 19.1582 27.2995L18.7497 26.7203C18.7715 29.8978 15.9535 32.1729 12.8523 31.8007C10.3938 31.5047 9.24444 27.728 9.95438 25.7997C9.97435 25.7471 10.3357 25.0825 10.3629 25.0499C11.0184 29.2659 17.6711 29.0335 17.6584 24.6413C17.9526 24.2455 18.3666 23.9913 18.6807 23.6191C19.7647 24.1965 19.761 24.4434 20.1805 25.4602L20.1823 25.4566Z" fill="#91E2E0"/>
<path d="M8.79539 24.9104C9.13675 24.8523 9.70325 25.1446 10.0573 24.9794C10.1354 25.0157 9.77588 25.6675 9.95563 25.7982C9.24569 27.7265 10.395 31.5014 12.8535 31.7992C15.9566 32.1732 18.7727 29.8963 18.7509 26.7188L19.1595 27.298C19.1195 28.4764 19.0251 29.5404 18.8871 30.7079C18.3351 31.2653 17.952 31.9589 17.3528 32.48C16.4196 33.2917 15.105 33.8691 13.8757 33.9798C12.8989 34.0688 11.942 33.8709 10.9779 33.8436C9.41092 32.8686 8.83897 31.3815 8.65922 29.6167C8.57388 28.7742 8.73548 26.8768 8.52304 26.2758C8.49762 26.2031 8.58659 26.0524 8.42136 26.0706L8.149 26.4791C7.70415 26.1868 7.65876 25.633 8.04732 25.2517C8.09272 25.2081 8.69008 24.9285 8.79721 24.9104H8.79539Z" fill="#8BD5DE"/>
<path d="M18.8848 30.7059C18.7178 32.1131 19.05 32.8013 17.6919 33.7055C15.789 34.9728 12.9166 35.0491 10.9756 33.8417C11.9397 33.8689 12.8966 34.0668 13.8735 33.9778C15.1027 33.8671 16.4191 33.2897 17.3505 32.4781C17.9497 31.957 18.3328 31.2634 18.8848 30.7059Z" fill="#65B5C3"/>
<path d="M8.65868 29.6165C8.28827 29.2933 8.24833 29.9015 8.04497 30.1285C7.84161 30.3555 7.71995 30.2229 7.70361 30.2302L8.5225 26.2756C8.73494 26.8766 8.57334 28.774 8.65868 29.6165Z" fill="#0D85AB"/>
<path d="M22.7727 28.3892L19.568 30.2975C19.5154 30.1922 19.5244 30.1995 19.499 30.0924C20.4214 29.6856 21.2076 28.992 22.09 28.5236C22.2062 28.4618 22.3007 28.3565 22.4314 28.3184C22.8127 28.2058 22.7419 28.382 22.7727 28.3874V28.3892Z" fill="#176B98"/>
<path d="M22.4318 28.32C22.3011 28.3582 22.2066 28.4635 22.0904 28.5252C21.6874 27.9224 21.1027 27.4884 20.7268 26.8548C20.4109 26.3246 20.3837 25.9487 20.1821 25.4567L22.4318 28.32Z" fill="#CEF2F0"/>
<path d="M11.1116 24.5707C11.275 24.9339 11.2768 25.3533 11.5201 25.7637C12.4461 27.3252 15.4003 27.4323 16.4298 25.8998C16.9981 25.0537 16.6495 24.5943 16.9073 23.957C17.8951 24.6706 16.753 26.6061 15.9178 27.0928C14.2782 28.0533 11.3585 27.3252 10.8374 25.3533C10.7194 24.9048 10.8592 24.0115 11.1098 24.5689L11.1116 24.5707Z" fill="#8BD5DE"/>
<path d="M17.6578 24.6379C17.6705 29.0319 11.0178 29.2643 10.3623 25.0464C10.4095 24.9901 10.4531 24.8303 10.5675 24.9447C11.094 27.267 13.9719 28.3673 15.9874 27.2289C17.1295 26.5843 17.0241 25.4913 17.6578 24.6379Z" fill="#E3F8F8"/>
<path d="M16.7714 23.6847L16.9766 23.8209C16.9766 23.8209 16.9203 23.9262 16.9076 23.957C16.6497 24.5944 16.9983 25.0537 16.43 25.8999C15.4005 27.4323 12.4464 27.3234 11.5204 25.7637C11.277 25.3533 11.2752 24.9339 11.1118 24.5708C11.208 24.5853 11.1645 24.4346 11.2135 24.4346C11.2625 24.4346 11.2208 24.5853 11.3152 24.5708C11.9834 27.9498 16.7169 27.5885 16.6334 24.026C16.6334 23.9589 16.5589 23.8772 16.6334 23.7537C16.6407 23.7537 16.617 23.7192 16.7696 23.6847H16.7714Z" fill="#195A77"/>
<path d="M12.0677 23.8208C11.9006 24.0804 11.7172 24.3945 11.385 24.4345H11.316C11.2724 24.1676 11.1471 23.9806 11.1108 23.8208C11.0854 23.7118 11.158 23.6955 11.1798 23.6156C11.463 23.6592 11.7899 23.7845 12.0659 23.8208H12.0677Z" fill="#7B223B"/>
<path d="M12.8186 7.1834C9.14538 8.45439 6.66148 9.76897 6.13674 13.8997C5.9933 15.0236 5.75 17.5003 5.79539 18.5697C5.31604 18.114 5.36325 16.7558 4.46629 16.8648C3.7854 16.9465 3.5548 18.0486 3.6819 18.6042C3.82353 19.2234 5.39049 20.291 5.86439 19.4558C6.74319 22.9982 13.4177 23.7409 16.3301 23.2052C18.3256 22.8384 21.5412 21.631 22.0914 19.4558C22.3692 20.3981 23.6747 19.0146 23.7963 18.1612C23.967 16.9628 22.943 16.3618 22.2966 17.2061C22.0714 17.1208 22.0878 16.9083 22.0242 16.7286C22.3311 16.4944 22.7142 15.7209 23.0138 15.5702C23.0864 15.5338 23.3624 15.6047 23.4568 15.5702C23.6547 15.7045 23.9162 15.7771 24.0015 15.8425C25.7791 17.1898 24.6969 19.5738 22.8086 20.2057C22.6906 20.2456 22.3456 20.1639 22.2639 20.2057C22.1259 20.2765 22.1495 20.7831 22.0932 20.8884C21.3978 22.163 18.1622 23.385 16.775 23.6846C16.6225 23.7172 16.6461 23.7517 16.6388 23.7536C15.7273 23.9315 14.2312 24.0023 13.2979 23.9587C12.962 23.9424 12.4209 23.868 12.0705 23.8226C11.7927 23.7862 11.4659 23.661 11.1844 23.6174C10.6143 23.5302 10.0405 23.4031 9.47946 23.276C8.50624 22.7259 7.00465 22.6405 6.27474 21.5366C6.07683 21.237 5.89162 20.3055 5.8317 20.2747C5.76089 20.2383 4.74954 20.2057 4.39911 20.0695C2.72684 19.4195 2.15852 16.8775 3.7509 15.8425C3.83079 15.7899 3.93429 15.7445 4.02326 15.7063C4.09952 15.6737 4.47537 15.503 4.50079 15.5012C4.52076 15.5012 4.61881 15.552 4.70596 15.5702C5.20347 15.6718 5.36325 16.064 5.66103 16.4217L5.79721 16.3527C5.62108 15.6446 5.4613 14.9401 5.45585 14.2047C5.44314 12.3981 6.94473 9.4149 8.5244 8.478C9.56117 7.86247 11.6383 7.08353 12.8204 7.1834H12.8186Z" fill="#F4A676"/>
<path d="M16.2274 24.9792C15.6082 26.2684 12.9664 26.5861 12.0004 25.5929C12.0985 25.4204 11.7353 25.0464 12.0694 25.0482C12.369 25.3206 13.9668 24.9938 14.4226 24.912C15.118 24.7868 15.699 24.1603 16.2292 24.981L16.2274 24.9792Z" fill="#E57F66"/>
<path d="M16.6365 23.7515C16.562 23.8768 16.6365 23.9567 16.6365 24.0239C16.3151 24.1709 16.3695 24.6848 16.2279 24.9789C15.6977 24.1582 15.1167 24.7865 14.4213 24.9099C13.9655 24.9916 12.3677 25.3203 12.0681 25.0461C12.0554 25.0334 11.9192 24.8736 11.9664 24.8409C12.4276 24.5704 13.114 24.5105 13.2955 23.9549C14.2288 24.0003 15.7268 23.9295 16.6365 23.7497V23.7515Z" fill="#C44446"/>
<path d="M13.2954 23.9569C13.1138 24.5125 12.4275 24.5724 11.9663 24.8429C11.9191 24.8738 12.0553 25.0354 12.068 25.0481C11.7357 25.0481 12.0988 25.4203 11.999 25.5928C11.6449 25.2297 11.5814 24.872 11.3853 24.4344C11.7157 24.3944 11.9009 24.0803 12.068 23.8207C12.4184 23.8661 12.9595 23.9405 13.2954 23.9569Z" fill="#B11B31"/>
<path d="M23.182 17.4111C22.6954 17.4892 22.3722 18.0521 22.739 18.4334C22.9732 18.1392 23.113 17.7398 23.5234 17.7507C23.5851 17.8451 23.6759 18.0757 23.7958 18.1592C23.6741 19.0126 22.3686 20.3962 22.0908 19.4538C22.049 19.3122 22.069 18.1683 22.0908 17.954C22.6991 18.1011 22.4939 17.1333 23.1475 17.2713C23.2056 17.284 23.173 17.4039 23.182 17.4075V17.4111Z" fill="#E57F66"/>
<path d="M23.7963 18.1613C23.6764 18.0777 23.5856 17.8472 23.5239 17.7527C23.3659 17.5112 23.4658 17.5603 23.1825 17.4114C23.1753 17.4078 23.208 17.2879 23.1481 17.2752C22.4944 17.1354 22.6996 18.105 22.0913 17.9579C22.1204 17.6619 22.0949 17.4695 22.2965 17.208C22.9429 16.3637 23.9669 16.9629 23.7963 18.1631V18.1613Z" fill="#E48B60"/>
<path d="M18.8861 8.34204C19.5652 8.70882 20.1589 9.33342 20.7272 9.84182C22.0981 12.4219 22.2179 11.8264 22.0218 15.0239C21.7477 15.0547 21.8366 14.9694 21.8167 14.786C21.7313 13.9907 21.7513 13.1119 21.5443 12.3312C20.9596 10.1396 18.7826 9.0774 17.1812 7.72833C17.7477 7.94622 18.3378 8.04608 18.8861 8.34204Z" fill="#FABA7B"/>
<path d="M5.7948 18.5697C5.80388 18.8021 5.81115 19.2487 5.8638 19.4557C5.3899 20.291 3.82476 19.2233 3.68132 18.6042C3.55422 18.0486 3.78481 16.9482 4.46571 16.8647C5.36448 16.7558 5.31546 18.1121 5.7948 18.5697Z" fill="#E57F66"/>
<path d="M4.46565 17.4113C4.69443 17.4785 5.60229 18.1104 5.28454 18.3664C5.20465 18.4299 4.00265 17.7617 4.46565 17.4113Z" fill="#630C15"/>
<path d="M23.1816 17.4113C23.4631 17.5602 23.365 17.5112 23.523 17.7527C23.1126 17.7418 22.9728 18.1412 22.7386 18.4354C22.3718 18.0541 22.695 17.4912 23.1816 17.4131V17.4113Z" fill="#630C15"/>
<path d="M17.1808 7.72794C18.7823 9.07701 20.9593 10.1374 21.544 12.3308C21.7528 13.1097 21.731 13.9903 21.8163 14.7856C21.8363 14.969 21.7473 15.0561 22.0215 15.0235C21.9961 15.452 21.8563 15.8787 21.8853 16.3181C21.9144 16.7575 22.007 16.6885 22.0215 16.7266C22.085 16.9045 22.0687 17.1188 22.2938 17.2041C22.0941 17.4656 22.1177 17.6581 22.0887 17.954C22.0669 18.1701 22.0469 19.3122 22.0887 19.4538C21.5385 21.629 18.3211 22.8383 16.3274 23.2032C13.415 23.737 6.74047 22.9962 5.86167 19.4538C5.81083 19.2468 5.80356 18.7983 5.79267 18.5677C5.74728 17.4983 5.99058 15.0216 6.13402 13.8977C6.65876 9.76698 9.14265 8.4524 12.8158 7.18141C14.7877 6.4987 15.405 7.04341 17.179 7.72612L17.1808 7.72794Z" fill="#FBC99C"/>
<path d="M18.5122 18.2971C19.5253 18.1174 21.8186 18.6675 21.0687 20.1038C20.3914 21.402 17.0832 20.8409 17.2503 19.3539C17.2975 18.929 18.1272 18.3661 18.5122 18.2971Z" fill="#F56D7E"/>
<path d="M8.55724 18.2285C10.8886 18.0234 11.4987 20.5145 8.89859 20.8196C6.11148 21.1464 6.35297 18.4228 8.55724 18.2285Z" fill="#F56D7E"/>
<path d="M18.4419 12.2293C19.0048 12.1004 20.6989 12.9066 20.6571 13.6946C20.3829 13.4785 20.185 13.1553 19.8727 12.9792C19.7365 12.9029 17.6594 12.4091 18.4401 12.2293H18.4419Z" fill="#1B1321"/>
<path d="M8.89653 12.2965C9.02544 12.2893 9.72994 12.2802 9.44124 12.5689C9.39403 12.6161 8.39358 12.7432 8.14664 12.8412C8.04496 12.8812 7.22789 13.5712 7.22607 13.3533C7.50388 12.8521 8.33003 12.3256 8.89653 12.2965Z" fill="#0D0831"/>
<path d="M19.9101 15.5701C19.734 14.4698 18.8261 14.1303 18.0018 14.7858C18.256 14.8747 18.305 14.7168 18.4103 14.9564C17.764 14.6677 17.3009 15.4013 17.2519 15.9787C17.0467 14.5479 18.6355 13.8125 19.8084 14.5461C20.0663 14.7077 20.8634 15.8098 20.3532 15.7735C20.2878 15.7681 20.079 15.3377 19.9101 15.5683V15.5701Z" fill="#630C15"/>
<path d="M18.4077 14.9566C18.6292 15.4577 17.883 15.5067 17.6578 16.0823C17.5471 16.3637 17.5126 16.7668 17.5216 17.0719C17.3038 16.6815 17.2075 16.4654 17.2493 15.9806C17.2983 15.4014 17.7631 14.6697 18.4077 14.9584V14.9566Z" fill="#E2E7E9"/>
<path d="M19.9097 15.5702C20.2547 17.7272 18.5352 18.8929 17.5238 17.07C17.5148 16.7667 17.5493 16.3636 17.66 16.0804C17.8852 15.5048 18.6314 15.4558 18.4099 14.9547C18.3046 14.715 18.2556 14.8729 18.0014 14.784C18.8275 14.1285 19.7336 14.468 19.9097 15.5684V15.5702Z" fill="#0D0831"/>
<path d="M19.1265 15.5701L19.2627 15.8425C19.1138 15.8425 19.0339 15.6845 19.1265 15.5701Z" fill="#E2E7E9"/>
<path d="M18.9891 15.0926C19.1398 15.1017 19.1217 15.2633 19.0581 15.2978C18.9256 15.3668 18.8493 15.0853 18.9891 15.0926Z" fill="#E2E7E9"/>
<path d="M10.4324 15.9114C10.3652 15.6427 10.1038 15.0126 9.85321 14.8892C9.43378 14.684 9.19592 15.0417 9.47735 15.3667C9.22679 15.2341 9.20318 15.1452 8.93264 15.2305C8.84004 14.4225 7.68525 15.1579 7.63804 15.639C7.68343 15.8533 7.08606 15.8315 7.09333 15.6735C7.58357 13.7398 10.5613 13.7798 10.4342 15.9114H10.4324Z" fill="#250C17"/>
<path d="M8.93145 15.2288C8.38129 15.4012 7.92191 15.9532 7.9092 16.5234C7.80389 16.6051 7.6314 15.6863 7.63684 15.6373C7.68587 15.1561 8.84066 14.4208 8.93145 15.2288Z" fill="#FCFCFD"/>
<path d="M10.4327 15.9114C10.509 16.2182 10.7196 16.5796 10.2966 16.7303C10.3002 16.1638 9.9661 15.6245 9.47767 15.3667C9.19623 15.0417 9.43409 14.684 9.85352 14.8891C10.1041 15.0126 10.3656 15.6445 10.4327 15.9114Z" fill="#E2E7E9"/>
<path d="M9.47672 15.365C9.96514 15.6228 10.2992 16.1621 10.2956 16.7286C10.2829 18.35 7.86618 18.4572 7.90976 16.5234C7.92247 15.9515 8.38185 15.4013 8.93201 15.2288C9.20436 15.1435 9.22797 15.2325 9.47672 15.365Z" fill="#0D0831"/>
<path d="M8.69306 15.7753C8.8946 15.7662 8.76568 16.0477 8.69306 16.0477C8.58048 16.0477 8.56959 15.7807 8.69306 15.7753Z" fill="#FCFCFD"/>
<path d="M12.1375 20.002C13.5283 20.9716 14.2982 21.0115 15.6836 20.002C16.3863 19.49 16.0467 20.0801 15.8888 20.4105C15.2569 20.7918 14.162 20.9516 13.3994 20.8881C12.9183 20.8481 12.4643 20.5413 12.0013 20.6157C11.9559 20.5013 11.5783 20.1182 11.66 19.9003C11.8379 19.6643 11.9795 19.8931 12.1375 20.002Z" fill="#630C15"/>
<path d="M15.6813 20.0023C14.2959 21.0118 13.5261 20.9718 12.1353 20.0023C13.3118 20.3799 14.4993 20.2728 15.6813 20.0023Z" fill="#FCFCFD"/>
<path d="M12 20.6161C12.463 20.5416 12.9169 20.8485 13.3981 20.8884C14.1607 20.952 15.2556 20.794 15.8874 20.4109C15.4063 21.4168 14.798 23.0419 13.3981 22.6606C12.5502 22.43 12.2833 21.3151 12 20.6142V20.6161Z" fill="#B11B31"/>
<path d="M14.8621 21.9798C14.8639 21.8073 14.8239 21.7909 14.6569 21.8091C13.9342 21.8854 13.4168 22.283 12.6106 21.7746C12.587 21.7147 12.4762 21.17 12.5089 21.1609C13.1426 21.7056 14.1794 21.4986 14.9638 21.4332C15.1617 21.4732 14.8802 21.9489 14.8621 21.978V21.9798Z" fill="#E00C54"/>
<path d="M14.8649 21.9798C14.2839 22.875 12.9802 22.7424 12.6152 21.7747C13.4214 22.2831 13.9371 21.8854 14.6615 21.8092C14.8286 21.791 14.8685 21.8055 14.8667 21.9798H14.8649Z" fill="#F56D7E"/>
<path d="M13.6725 17.9559C14.21 17.8452 14.6639 18.1756 14.5241 18.7403C13.9721 18.684 13.8559 18.3953 13.3312 18.842C13.1097 18.5061 13.3112 18.0285 13.6725 17.9559Z" fill="#761410"/>
<path d="M13.7375 18.0923C14.0462 18.0378 14.5728 18.3228 14.4529 18.6043C14.4293 18.6588 13.6794 18.085 13.3962 18.6388C13.2764 18.3755 13.4997 18.134 13.7375 18.0941V18.0923Z" fill="#FBC99C"/>
</svg>
