<svg width="32" height="32" viewBox="0 0 32 32" fill="none" xmlns="http://www.w3.org/2000/svg">
<path d="M6.95215 11.1429C6.95215 9.82789 8.01814 8.7619 9.3331 8.7619H22.4283C23.7433 8.7619 24.8093 9.82789 24.8093 11.1429V17.0952H6.95215V11.1429Z" fill="#F8973B"/>
<path d="M3.38086 19.4762C3.38086 18.1612 4.44685 17.0952 5.76181 17.0952H25.9999C27.3149 17.0952 28.3809 18.1612 28.3809 19.4762V26.619H3.38086V19.4762Z" fill="#E2833B"/>
<path d="M1 29C1 27.685 2.06599 26.619 3.38095 26.619H28.381C29.6959 26.619 30.7619 27.685 30.7619 29H1Z" fill="#704357"/>
<path d="M14.6904 6.97622C14.6904 6.64748 14.9569 6.38098 15.2857 6.38098H16.4761C16.8049 6.38098 17.0714 6.64748 17.0714 6.97622V8.76193H14.6904V6.97622Z" fill="#F54848"/>
<path d="M16.4761 5.19048C16.4761 5.84796 16.1413 6.38095 15.8809 6.38095C15.6205 6.38095 15.2856 5.84796 15.2856 5.19048C15.2856 4.53299 15.8809 4 15.8809 4C15.8809 4 16.4761 4.53299 16.4761 5.19048Z" fill="#E44C4C"/>
<path d="M16.2436 5.46481C16.2436 5.97077 16.0622 6.38092 15.8715 6.38092C15.6809 6.38092 15.4995 5.97077 15.4995 5.46481C15.4995 4.95886 15.6661 4.54871 15.8715 4.54871C16.077 4.54871 16.2436 4.95886 16.2436 5.46481Z" fill="#F8C63B"/>
<rect x="3.38086" y="23.0476" width="25" height="1.19048" fill="#FFF6C3"/>
<rect x="6.95215" y="13.5238" width="17.8571" height="1.19048" fill="#FFF6C3"/>
<path d="M5.76181 23.6428V21.0635C5.76181 20.1868 5.05115 19.4762 4.17451 19.4762C3.73619 19.4762 3.38086 19.1208 3.38086 18.6825C3.38086 17.8059 4.09152 17.0952 4.96816 17.0952H25.9999C27.3149 17.0952 28.3809 18.1612 28.3809 19.4762V21.2619C28.3809 21.5906 28.1144 21.8571 27.7856 21.8571C27.4569 21.8571 27.1904 21.5906 27.1904 21.2619V20.6666C27.1904 20.0092 26.6574 19.4762 25.9999 19.4762H24.8094C24.1519 19.4762 23.619 20.0092 23.619 20.6666V23.0476C23.619 23.7051 23.086 24.2381 22.4285 24.2381C21.771 24.2381 21.238 23.7051 21.238 23.0476V20.0714C21.238 19.7427 20.9715 19.4762 20.6428 19.4762C20.314 19.4762 20.0475 19.7427 20.0475 20.0714V24.8333C20.0475 25.1621 19.781 25.4285 19.4523 25.4285C19.1235 25.4285 18.857 25.1621 18.857 24.8333V20.6666C18.857 20.0092 18.3241 19.4762 17.6666 19.4762C17.0091 19.4762 16.4761 20.0092 16.4761 20.6666V22.4524C16.4761 22.7811 16.2096 23.0476 15.8809 23.0476C15.5521 23.0476 15.2856 22.7811 15.2856 22.4524V20.6666C15.2856 20.0092 14.7526 19.4762 14.0951 19.4762C13.4377 19.4762 12.9047 20.0092 12.9047 20.6666C12.9047 21.3241 12.3717 21.8571 11.7142 21.8571C11.0567 21.8571 10.5237 21.3241 10.5237 20.6666C10.5237 20.0092 9.99072 19.4762 9.33324 19.4762H8.14276C7.48528 19.4762 6.95229 20.0092 6.95229 20.6666V23.6428C6.95229 23.9716 6.68579 24.2381 6.35705 24.2381C6.02831 24.2381 5.76181 23.9716 5.76181 23.6428Z" fill="#4D2D16"/>
<path d="M24.8096 10.2358V10.1224C24.8096 9.37104 24.2004 8.7619 23.449 8.7619H9.33338C8.01842 8.7619 6.95243 9.82789 6.95243 11.1429V12.4184C6.95243 12.6532 7.14278 12.8435 7.3776 12.8435C7.61241 12.8435 7.80277 12.6532 7.80277 12.4184V11.8231C7.80277 11.2596 8.25962 10.8027 8.82318 10.8027H9.16331C9.82079 10.8027 10.3538 11.3357 10.3538 11.9932V14.034C10.3538 14.5036 10.7345 14.8844 11.2041 14.8844C11.6738 14.8844 12.0545 14.5036 12.0545 14.034V11.2279C12.0545 10.9931 12.2448 10.8027 12.4796 10.8027C12.7145 10.8027 12.9048 10.9931 12.9048 11.2279V15.4796C12.9048 15.7144 13.0952 15.9048 13.33 15.9048C13.5648 15.9048 13.7551 15.7144 13.7551 15.4796V11.6531C13.7551 11.1834 14.1359 10.8027 14.6055 10.8027C15.0751 10.8027 15.4558 11.1834 15.4558 11.6531V13.4388C15.4558 13.6736 15.6462 13.8639 15.881 13.8639C16.1158 13.8639 16.3062 13.6736 16.3062 13.4388V11.6531C16.3062 11.1834 16.6869 10.8027 17.1565 10.8027C17.6261 10.8027 18.0068 11.1834 18.0068 11.6531V11.9932C18.0068 12.4628 18.3876 12.8435 18.8572 12.8435C19.3268 12.8435 19.7075 12.4628 19.7075 11.9932V11.8231C19.7075 11.2596 20.1644 10.8027 20.7279 10.8027H21.0681C21.7256 10.8027 22.2585 11.3357 22.2585 11.9932V14.4592C22.2585 14.694 22.4489 14.8844 22.6837 14.8844C22.9185 14.8844 23.1089 14.694 23.1089 14.4592V11.9365C23.1089 11.3103 23.6165 10.8027 24.2427 10.8027C24.5558 10.8027 24.8096 10.5489 24.8096 10.2358Z" fill="#4D2D16"/>
</svg>
