<svg width="130" height="100" viewBox="0 0 72 36" fill="none" xmlns="http://www.w3.org/2000/svg">
<g clip-path="url(#clip0_6413_62815)">
<path d="M43.9999 14.5C44 18 39.3999 18.8 42.9999 22C46.5999 25.2 45.1665 30.3333 43.9999 32.5" stroke="#675646" stroke-width="0.3"/>
<path d="M40 8.5C40 10.9853 41.5147 15 44 15C46.4853 15 49 10.9853 49 8.5C49 6.01472 46.9853 4 44.5 4C42.0147 4 40 6.01472 40 8.5Z" fill="#F8973B"/>
<path d="M43.5483 9.5C43.5483 10.5 44.0483 11 43.0483 12.5C41.6676 12.5 42.048 10.3807 42.048 9C42.048 7.61929 43.6676 6 45.0483 6C46.4291 6 44.0483 8 43.5483 9.5Z" fill="#F7B641"/>
<path d="M43.2749 8.16025C42.7516 9.06656 43.2749 8.16025 42.8662 10.0981C42.3879 9.82195 42.4243 8.86338 42.9476 7.95707C43.4708 7.05075 44.2828 6.5399 44.761 6.81604C45.2393 7.09218 43.7982 7.25393 43.2749 8.16025Z" fill="#FFECCA"/>
<path d="M50.0561 24C50.0561 26.7222 53.8189 27.3444 50.8741 29.8333C47.9293 32.3222 49.1018 36.3148 50.0561 38" stroke="#3B3F50" stroke-width="0.3"/>
<path d="M27.0561 17C27.0561 19.7222 30.8189 20.3444 27.8741 22.8333C24.9293 25.3222 26.1018 29.3148 27.0561 31" stroke="#3E575C" stroke-width="0.3"/>
<path d="M53 19.6818C53 21.7152 51.8219 25 49.8889 25C47.9559 25 46 21.7152 46 19.6818C46 17.6484 47.567 16 49.5 16C51.433 16 53 17.6484 53 19.6818Z" fill="#627DEA"/>
<path d="M48.1555 19.6923C48.1555 20.4615 48.1555 20.8462 47.5914 22C46.8125 22 47.0271 20.3698 47.0271 19.3077C47.0271 18.2456 47.9407 17 48.7196 17C49.4984 17 48.4375 18.5385 48.1555 19.6923Z" fill="#A1B2F8"/>
<path d="M48.0346 18.3437C47.7124 18.9017 47.8233 19.5689 47.4512 19.3541C47.0792 19.1393 47.0388 18.5128 47.361 17.9548C47.6832 17.3968 48.2459 17.1186 48.6179 17.3333C48.9899 17.5481 48.3567 17.7857 48.0346 18.3437Z" fill="#E4E9FF"/>
<path d="M29 21C29 19.8954 29.8954 19 31 19H42C43.1046 19 44 19.8954 44 21V26H29V21Z" fill="#F8973B"/>
<path d="M26 28C26 26.8954 26.8954 26 28 26H45C46.1046 26 47 26.8954 47 28V34H26V28Z" fill="#E2833B"/>
<path d="M24 36C24 34.8954 24.8954 34 26 34H47C48.1046 34 49 34.8954 49 36H24Z" fill="#704357"/>
<path d="M35.5 17.5C35.5 17.2239 35.7239 17 36 17H37C37.2761 17 37.5 17.2239 37.5 17.5V19H35.5V17.5Z" fill="#F54848"/>
<path d="M37 16C37 16.5523 36.7188 17 36.5 17C36.2812 17 36 16.5523 36 16C36 15.4477 36.5 15 36.5 15C36.5 15 37 15.4477 37 16Z" fill="#E44C4C"/>
<path d="M36.8047 16.2305C36.8047 16.6555 36.6523 17 36.4922 17C36.332 17 36.1797 16.6555 36.1797 16.2305C36.1797 15.8055 36.3196 15.4609 36.4922 15.4609C36.6648 15.4609 36.8047 15.8055 36.8047 16.2305Z" fill="#F8C63B"/>
<rect x="26" y="31" width="21" height="1" fill="#FFF6C3"/>
<rect x="29" y="23" width="15" height="1" fill="#FFF6C3"/>
<path d="M28 31.5V29.3333C28 28.597 27.403 28 26.6667 28C26.2985 28 26 27.7015 26 27.3333C26 26.597 26.597 26 27.3333 26H45C46.1046 26 47 26.8954 47 28V29.5C47 29.7761 46.7761 30 46.5 30C46.2239 30 46 29.7761 46 29.5V29C46 28.4477 45.5523 28 45 28H44C43.4477 28 43 28.4477 43 29V31C43 31.5523 42.5523 32 42 32C41.4477 32 41 31.5523 41 31V28.5C41 28.2239 40.7761 28 40.5 28C40.2239 28 40 28.2239 40 28.5V32.5C40 32.7761 39.7761 33 39.5 33C39.2239 33 39 32.7761 39 32.5V29C39 28.4477 38.5523 28 38 28C37.4477 28 37 28.4477 37 29V30.5C37 30.7761 36.7761 31 36.5 31C36.2239 31 36 30.7761 36 30.5V29C36 28.4477 35.5523 28 35 28C34.4477 28 34 28.4477 34 29C34 29.5523 33.5523 30 33 30C32.4477 30 32 29.5523 32 29C32 28.4477 31.5523 28 31 28H30C29.4477 28 29 28.4477 29 29V31.5C29 31.7761 28.7761 32 28.5 32C28.2239 32 28 31.7761 28 31.5Z" fill="#4D2D16"/>
<path d="M44 20.2381V20.1429C44 19.5117 43.4883 19 42.8571 19H31C29.8954 19 29 19.8954 29 21V22.0714C29 22.2687 29.1599 22.4286 29.3571 22.4286C29.5544 22.4286 29.7143 22.2687 29.7143 22.0714V21.5714C29.7143 21.098 30.098 20.7143 30.5714 20.7143H30.8571C31.4094 20.7143 31.8571 21.162 31.8571 21.7143V23.4286C31.8571 23.8231 32.1769 24.1429 32.5714 24.1429C32.9659 24.1429 33.2857 23.8231 33.2857 23.4286V21.0714C33.2857 20.8742 33.4456 20.7143 33.6429 20.7143C33.8401 20.7143 34 20.8742 34 21.0714V24.6429C34 24.8401 34.1599 25 34.3571 25C34.5544 25 34.7143 24.8401 34.7143 24.6429V21.4286C34.7143 21.0341 35.0341 20.7143 35.4286 20.7143C35.8231 20.7143 36.1429 21.0341 36.1429 21.4286V22.9286C36.1429 23.1258 36.3028 23.2857 36.5 23.2857C36.6972 23.2857 36.8571 23.1258 36.8571 22.9286V21.4286C36.8571 21.0341 37.1769 20.7143 37.5714 20.7143C37.9659 20.7143 38.2857 21.0341 38.2857 21.4286V21.7143C38.2857 22.1088 38.6055 22.4286 39 22.4286C39.3945 22.4286 39.7143 22.1088 39.7143 21.7143V21.5714C39.7143 21.098 40.098 20.7143 40.5714 20.7143H40.8571C41.4094 20.7143 41.8571 21.162 41.8571 21.7143V23.7857C41.8571 23.983 42.017 24.1429 42.2143 24.1429C42.4115 24.1429 42.5714 23.983 42.5714 23.7857V21.6667C42.5714 21.1407 42.9978 20.7143 43.5238 20.7143C43.7868 20.7143 44 20.5011 44 20.2381Z" fill="#4D2D16"/>
<rect x="50" y="29" width="11" height="2" rx="0.5" fill="#009DBD"/>
<rect x="13" y="29" width="11" height="2" rx="0.5" fill="#48589D"/>
<rect x="51" y="31" width="9" height="5" fill="#0BC5EB"/>
<rect x="14" y="31" width="9" height="5" fill="#6D82D8"/>
<rect opacity="0.9" x="54.5" y="29" width="2" height="7" fill="#F8C63B"/>
<rect opacity="0.9" x="18" y="29.5" width="1" height="6" fill="#F55A70" stroke="#F55A70"/>
<path d="M53.5 25.5H53C52.1716 25.5 51.5 26.1716 51.5 27C51.5 27.8284 52.1716 28.5 53 28.5H55.5V27.5C55.5 26.3954 54.6046 25.5 53.5 25.5Z" stroke="#F8C63B"/>
<path d="M16.5 25.5H16C15.1716 25.5 14.5 26.1716 14.5 27C14.5 27.8284 15.1716 28.5 16 28.5H18.5V27.5C18.5 26.3954 17.6046 25.5 16.5 25.5Z" stroke="#F55A70"/>
<path d="M57.5 25.5H58C58.8284 25.5 59.5 26.1716 59.5 27C59.5 27.8284 58.8284 28.5 58 28.5H55.5V27.5C55.5 26.3954 56.3954 25.5 57.5 25.5Z" stroke="#F8C63B"/>
<path d="M20.5 25.5H21C21.8284 25.5 22.5 26.1716 22.5 27C22.5 27.8284 21.8284 28.5 21 28.5H18.5V27.5C18.5 26.3954 19.3954 25.5 20.5 25.5Z" stroke="#F55A70"/>
<path d="M63.0001 17.5C63 21 67.6001 21.8 64.0001 25C60.4001 28.2 61.8335 33.3333 63.0001 35.5" stroke="#5E4A4C" stroke-width="0.3"/>
<path d="M67 11.5C67 13.9853 65.4853 18 63 18C60.5147 18 58 13.9853 58 11.5C58 9.01472 60.0147 7 62.5 7C64.9853 7 67 9.01472 67 11.5Z" fill="#F55A70"/>
<path d="M61 11C61 12 61 12.5 60 14C58.6193 14 58.9997 11.8807 58.9997 10.5C58.9997 9.11929 60.6193 7.5 62 7.5C63.3807 7.5 61.5 9.5 61 11Z" fill="#F87F93"/>
<path d="M60.616 9.79904C60.2018 10.5165 60.3443 11.3742 59.866 11.0981C59.3877 10.8219 59.3358 10.0165 59.75 9.29904C60.1642 8.5816 60.8877 8.22386 61.366 8.5C61.8443 8.77614 61.0302 9.0816 60.616 9.79904Z" fill="#FDF2F7"/>
<path d="M21.663 14.5071C22.5813 16.8164 26.0633 19.5528 27.7816 19.069C29.5 18.5853 30.9444 13.4909 30.026 11.1815C29.1077 8.87214 26.4911 7.74444 24.1817 8.66276C21.8723 9.58107 20.7447 12.1977 21.663 14.5071Z" fill="#238CA2"/>
<path d="M24.3776 12.7478C24.3776 13.5171 24.3776 13.9017 23.8135 15.0555C23.0347 15.0555 23.2492 13.4253 23.2492 12.3632C23.2492 11.3011 24.1629 10.0555 24.9417 10.0555C25.7206 10.0555 24.6597 11.594 24.3776 12.7478Z" fill="#3BADBC"/>
<path d="M24.2567 11.3993C23.9346 11.9573 24.0454 12.6244 23.6734 12.4096C23.3014 12.1948 23.261 11.5684 23.5832 11.0104C23.9053 10.4524 24.4681 10.1741 24.8401 10.3889C25.2121 10.6037 24.5789 10.8412 24.2567 11.3993Z" fill="#A0E4F2"/>
</g>
<defs>
<clipPath id="clip0_6413_62815">
<rect width="72" height="36" fill="white"/>
</clipPath>
</defs>
</svg>
