<svg width="110" height="100" viewBox="0 0 72 36" fill="none" xmlns="http://www.w3.org/2000/svg">
<path d="M70.646 24.8704V2L48.2002 2V24.8704H70.646Z" fill="#5D5D5D"/>
<path d="M70.2147 2.43115H48.6313V24.4391H70.2147V2.43115Z" fill="white"/>
<path d="M60.3257 8.67816H56.293L59.8398 10.5996C60.1391 10.0224 60.3133 9.36977 60.3257 8.67816Z" fill="#B2BFFE"/>
<path d="M51.6333 8.67816C51.6615 10.2679 52.543 11.6494 53.8392 12.3842L55.8468 8.67816H51.6333Z" fill="#334CC5"/>
<path d="M56.0576 8.72864V12.9455C57.6482 12.9173 59.0305 12.0349 59.7653 10.7371L56.0576 8.72864Z" fill="#8799F4"/>
<path d="M51.6333 8.52145H55.6743L52.1209 6.59589C51.8199 7.17389 51.6457 7.82735 51.6333 8.52145Z" fill="#283A94"/>
<path d="M58.1179 4.81445L56.1094 8.52129H60.3254C60.2972 6.93075 59.4148 5.54919 58.1179 4.81445Z" fill="#FFBA00"/>
<path d="M55.9 8.46586V4.25317C54.3103 4.28137 52.9296 5.16205 52.1948 6.4582L55.9 8.46586Z" fill="#23379C"/>
<path d="M56.1094 4.12805V8.16328L58.0325 4.61483C57.4553 4.31464 56.8026 4.14049 56.1094 4.12888V4.12805Z" fill="#FFF7CF"/>
<path d="M55.9003 8.9071L53.9756 12.4589C54.5536 12.7591 55.207 12.934 55.9003 12.9456V8.9071Z" fill="#6F82E2"/>
<path d="M53.1581 19.2189H52.2061V22.8205H53.1581V19.2189Z" fill="#006394"/>
<path d="M54.8827 18.5679H53.9307V22.8213H54.8827V18.5679Z" fill="#006394"/>
<path d="M56.6058 17.9171H55.6538V22.8214H56.6058V17.9171Z" fill="#006394"/>
<path d="M58.3294 17.2661H57.3774V22.8214H58.3294V17.2661Z" fill="#006394"/>
<path d="M60.0536 16.6152H59.1016V22.8214H60.0536V16.6152Z" fill="#006394"/>
<path d="M61.7772 15.9642H60.8252V22.8214H61.7772V15.9642Z" fill="#006394"/>
<path d="M63.5008 15.3132H62.5488V22.8214H63.5008V15.3132Z" fill="#006394"/>
<path d="M65.2245 14.6614H64.2725V22.8206H65.2245V14.6614Z" fill="#006394"/>
<path d="M66.9486 14.0103H65.9966V22.8213H66.9486V14.0103Z" fill="#006394"/>
<path d="M68.6722 13.3593H67.7202V22.8213H68.6722V13.3593Z" fill="#006394"/>
<path d="M68.9193 9.66333C68.8348 9.67826 66.5551 10.0846 66.473 10.0846L67.2517 10.2961C66.949 10.4113 65.3195 11.0291 64.9165 11.1817C64.7946 11.7149 64.7083 12.0931 64.6395 12.3925C64.268 12.3576 63.5764 12.2929 62.9776 12.2374C62.7512 12.4414 61.0056 14.0112 60.7801 14.2144C60.2311 14.1447 59.5503 14.0576 59.0585 13.9954C58.5875 14.3968 56.3219 16.3265 55.8716 16.7105C55.4213 16.5587 54.7778 16.3414 54.3856 16.2088C54.2189 16.3249 51.3289 18.3292 51.1572 18.4486L51.3181 18.68L54.4295 16.5214C54.8906 16.6773 55.4951 16.8813 55.933 17.0289C56.3128 16.7055 58.8031 14.5834 59.1472 14.2907C59.6937 14.3603 60.3762 14.4474 60.873 14.5104C60.9974 14.3993 62.9942 12.6023 63.0747 12.5301C63.3823 12.5591 64.4031 12.6537 64.8601 12.6968C64.9364 12.3626 65.1221 11.5516 65.1603 11.3857L67.3761 10.3707L67.2044 11.1328L68.921 9.66333H68.9193Z" fill="#31CD60"/>
<path d="M45.365 8.79537L45.6785 8.58308C45.6785 8.58308 44.8591 7.23634 44.9437 6.07537C44.9885 5.46254 43.9834 4.55946 43.7164 4.69878C43.6998 4.69214 42.8241 4.71785 42.7462 6.71971L42.5596 9.06405L43.5058 9.90244C43.5058 9.90244 44.102 8.87995 44.8608 9.32942C45.6196 9.77888 45.8526 9.76561 45.8526 9.76561C45.8526 9.76561 45.3633 9.01181 45.3633 8.79537H45.365Z" fill="#002B32"/>
<path d="M44.7172 8.63282C44.7172 8.63282 43.8797 8.2157 43.2104 8.66765L43.2735 9.16604L43.9634 10.6347L44.6235 10.4862L44.9428 8.93633L44.7164 8.63282H44.7172Z" fill="#411026"/>
<path d="M40.9448 23.9627C40.9448 23.9627 43.9775 22.7785 46.7953 23.9279L45.5008 12.8132L43.0213 13.3721L40.9448 23.9635V23.9627Z" fill="#411026"/>
<path d="M48.0693 32.8615C47.9126 32.4435 47.8189 31.8166 47.6198 30.9707C47.5966 30.8712 47.5643 30.7294 47.527 30.5569C47.2691 30.5238 47.0037 30.6506 46.7881 30.7667C46.8735 30.9956 46.9879 31.2685 46.9937 31.368C47.0087 31.6068 46.9357 31.6292 46.9357 31.6292C46.9374 32.0413 47.0651 32.4833 47.1505 32.5687C47.26 32.6782 47.3819 33.2222 47.4863 33.2222C47.5908 33.2222 48.4732 33.3192 48.4732 33.3192C48.4964 33.1177 48.226 33.2786 48.0693 32.8615Z" fill="#FD5E5A"/>
<path d="M43.5503 32.6243C43.5038 32.4808 43.4582 31.8555 43.4218 31.0346C43.1921 31.0312 42.9341 30.9525 42.6903 31.0014C42.7086 31.1142 42.7517 31.309 42.7517 31.3406C42.7517 31.6383 42.6066 31.528 42.5535 31.7419C42.5187 31.8837 42.6563 32.1549 42.6563 32.1549C42.8603 32.1549 42.9458 32.8805 43.0453 33.0911C43.1025 33.213 43.3637 33.2711 43.6606 33.2711C43.8919 33.2711 43.853 33.2106 43.6813 32.9145C43.6324 32.8299 43.5851 32.7337 43.5503 32.6259V32.6243Z" fill="#FC7575"/>
<path d="M46.5542 23.8996C46.5252 23.7736 45.7142 16.9089 45.4107 14.3755L43.7745 14.3182L42.8706 18.064L45.0217 24.8458C44.9488 25.4727 44.977 25.9778 45.1751 26.8344C45.3393 27.5409 46.011 29.9044 46.4124 30.9849C46.6289 30.8688 47.2915 30.6374 47.5261 30.5562C46.6106 24.8873 46.8619 25.2248 46.5542 23.8988V23.8996Z" fill="#005473"/>
<path d="M43.6524 24.6012L45.0223 16.9031L44.8573 14.2676H43.5164C43.5164 14.2676 42.1729 15.7189 41.8711 17.5574C41.5692 19.3958 42.129 24.6335 42.129 24.6335C42.129 24.6335 42.0701 25.2919 41.9358 25.8559C41.7956 26.4455 42.0436 30.1432 42.2036 31.1184C42.4474 31.0695 43.1905 31.0305 43.4202 31.0338C43.3323 29.0718 43.2966 25.9877 43.4293 25.6676C43.5164 25.457 43.5935 25.0141 43.6507 24.6003L43.6524 24.6012Z" fill="#007899"/>
<path d="M45.4578 14.6483L43.2412 14.601L43.5165 14.2676H45.4578V14.6483Z" fill="#3A1425"/>
<path d="M48.2995 8.89557C48.3311 8.69157 48.317 8.55142 48.2539 8.4884C48.1909 8.42537 48.2216 8.38805 48.1627 8.32918C48.1038 8.2703 47.9662 8.32337 47.9479 8.16913C47.9305 8.01488 47.9728 7.12922 47.8633 7.14996C47.7547 7.17069 47.7423 8.34327 47.6983 8.38723C47.6544 8.43118 47.5756 8.47845 47.5474 8.29601C47.5192 8.11357 47.6602 8.02566 47.6038 7.96927C47.5474 7.91288 47.3857 8.10279 47.3716 8.16996C47.3716 8.16996 47.2306 8.77449 47.3716 9.18167C47.4811 9.49762 47.5341 9.76796 47.5499 10.0259C47.5706 10.6196 47.4918 11.2275 47.3094 12.1546C47.2688 12.3603 47.0838 12.308 46.9744 12.2466L46.4727 13.0245C46.8226 13.4416 47.2895 13.6788 47.5117 13.6514C48.0823 13.5818 48.0076 10.1104 48.0076 10.1104C48.006 10.0682 48.0077 10.093 48.0043 10.0267C47.996 9.81606 47.9894 9.62284 47.9894 9.59713C47.9894 9.44289 48.2672 9.10206 48.2987 8.89806L48.2995 8.89557Z" fill="#F9A394"/>
<path d="M48.1167 8.3035C48.1167 8.3035 47.5951 8.81267 47.6954 8.91218C47.7958 9.0117 48.2137 8.47184 48.2137 8.47184C48.2137 8.47184 47.7494 8.94535 47.8314 9.02662C47.9135 9.10872 48.3149 8.70901 48.3149 8.70901C48.3149 8.70901 47.892 9.07306 47.9674 9.11453C48.0437 9.15682 48.3149 8.86574 48.3149 8.86574C48.3149 8.86574 48.3539 8.75711 48.339 8.6916C48.3249 8.62609 48.3481 8.59872 48.3365 8.55809C48.3249 8.51745 48.2726 8.45692 48.2502 8.4337C48.227 8.41048 48.2187 8.26535 48.1167 8.30267V8.3035Z" fill="#D77969"/>
<path d="M46.9305 12.1273C46.9728 12.0212 47.035 11.896 46.9015 11.8031C46.7199 11.6762 46.7265 11.7683 46.7265 11.4871C46.7265 11.2243 46.656 11.1861 46.4545 11.1223C46.447 11.0982 46.4404 11.0742 46.4329 11.0501C46.18 10.186 45.4063 8.87079 45.165 8.76796C44.9237 8.66513 44.8623 9.32108 44.8623 9.32108C44.8623 9.32108 46.4139 13.2535 46.4727 13.3223L46.9745 12.2451L46.9355 12.1323C46.9355 12.1323 46.9322 12.129 46.9305 12.1282V12.1273Z" fill="#E64646"/>
<path d="M42.7996 32.2528L42.812 33.2272L42.7034 33.2297L42.5674 32.1193L42.7996 32.2528Z" fill="#1D1B22"/>
<path d="M45.1004 8.79529C45.1004 8.79529 44.6086 8.41383 42.9501 8.76212C42.8688 8.77953 42.7461 10.686 42.7461 10.686C42.7461 10.686 43.2992 13.6681 43.1425 14.4575C43.1425 14.4575 44.3093 15.4261 45.69 14.7511C45.69 14.7511 45.5192 12.265 45.646 11.7118C45.7729 11.1587 46.025 10.6578 45.6718 10.0815C45.3185 9.50598 45.0996 8.79363 45.0996 8.79363L45.1004 8.79529Z" fill="#E8E7EB"/>
<path d="M45.8089 14.6076C45.8089 14.6076 45.7749 14.6673 45.7185 14.7237C45.6621 14.7801 45.1895 14.9368 45.1895 14.9368L45.4714 14.7726C45.4714 14.7726 45.8081 14.5612 45.8081 14.6085L45.8089 14.6076Z" fill="#FD5E5A"/>
<path d="M42.7287 31.4975C42.8183 32.0423 43.1757 33.1162 43.3846 33.117C43.6666 33.1179 43.6832 33.1029 43.6815 32.913C43.8532 33.2091 44.0489 33.3608 43.8167 33.3608C43.519 33.3608 43.0546 33.3791 42.9974 33.2564C42.8979 33.0457 42.844 32.248 42.6408 32.248L42.7038 33.2298L42.596 33.2323C42.596 33.2323 42.436 31.8806 42.4708 31.7454C42.5189 31.5605 42.6706 31.5298 42.7287 31.4966V31.4975Z" fill="#393644"/>
<path d="M48.1792 33.0563C48.3857 33.2495 48.719 33.2081 48.7 33.3698C48.7 33.3698 47.5572 33.3209 47.4527 33.3209C47.3482 33.3209 47.2595 32.6782 47.1501 32.5687C47.0406 32.4592 47.1086 33.3209 47.1086 33.3209H46.9958C46.9958 33.3209 46.9203 32.4327 46.8159 32.0886C46.7329 31.8141 46.8507 31.6988 46.9353 31.6292C47.2778 32.2851 47.3142 33.2097 48.1792 33.0563Z" fill="#393644"/>
<path d="M57.6778 10.8046C57.6778 10.8046 57.4216 12.3056 56.6172 13.3165C56.016 14.0719 54.7588 14.9145 54.7588 14.9145L55.4711 15.6791L57.4348 14.0919L57.6778 10.8046Z" fill="#363A68"/>
<path d="M58.7529 9.40076H60.3285L60.2771 14.4726L58.1865 14.6102L58.7529 9.40076Z" fill="#260E0D"/>
<path d="M56.9879 33.7008C56.1006 33.7008 56.1221 34.0582 56.1221 34.0582H58.7194C58.7194 34.0582 58.59 32.9611 58.5701 32.7007H57.9606C57.8934 33.0183 57.6695 33.7008 56.9879 33.7008Z" fill="#260E0D"/>
<path d="M61.3282 33.8318C60.5205 33.8318 60.3555 32.8732 60.3323 32.7007H59.7484C59.7484 32.748 59.7484 32.777 59.7484 32.7844C59.7484 32.903 59.5967 34.1892 59.5967 34.1892H62.194C62.194 34.1892 62.2155 33.8326 61.3282 33.8326V33.8318Z" fill="#260E0D"/>
<path d="M61.0969 26.9289L61.9262 20.0642L61.6923 18.0325H57.1288L57.0965 19.8229L56.6172 26.7979C56.6172 26.7979 57.808 32.6053 57.7873 32.7015H58.6489C58.6472 32.6808 58.4059 26.3335 58.4059 26.3335L59.3903 20.6796L59.7751 26.6138C59.7751 26.6138 59.6001 31.9634 59.5976 32.7007H60.4086C60.4061 32.6841 61.0977 26.9281 61.0977 26.9281L61.0969 26.9289Z" fill="#534F59"/>
<path d="M61.7227 18.2996L61.692 18.0325H57.1277L57.1235 18.2664L58.0813 18.5857C58.8625 18.846 59.6934 18.8668 60.4837 18.6454L61.7218 18.2996H61.7227Z" fill="#0E0E0E"/>
<path d="M62.0082 10.7491C61.5123 10.2034 60.3638 9.33187 59.0975 9.5425L57.7748 10.118L57.3859 12.9135L57.0376 18.2382L61.7545 18.2913L62.2031 13.1084C62.2031 13.1084 62.505 11.2964 62.0082 10.7499V10.7491Z" fill="#C9672C"/>
<path d="M58.9371 8.28864C58.9371 8.28864 58.923 9.38079 58.8168 9.93723C58.7754 10.1528 58.8765 10.3726 59.0631 10.4522C59.2008 10.5103 59.3832 10.5451 59.6113 10.5028C60.205 10.3925 60.2249 9.73904 60.2249 9.73904L60.0251 7.74713L58.9371 8.28947V8.28864Z" fill="#FCA475"/>
<path d="M60.024 7.74622L58.936 8.28856C58.936 8.28856 58.931 8.69158 58.9028 9.13275C59.1864 9.14602 59.543 8.98929 59.922 8.51329C59.9784 8.4428 60.0306 8.37231 60.0796 8.30349L60.0232 7.74622H60.024Z" fill="#ED8F5D"/>
<path d="M59.007 5.4882C59.007 5.4882 58.6346 5.79835 58.4737 6.3183C58.3129 6.83825 58.1719 7.21474 58.1719 7.21474L58.3427 7.32503C58.3427 7.32503 58.2067 8.05147 58.3128 8.29942C58.4737 8.67591 59.1529 8.98025 59.9225 8.13357C60.692 7.28688 60.7575 6.53971 60.6265 6.17483C60.4955 5.80996 59.3088 5.30078 59.0061 5.48903L59.007 5.4882Z" fill="#FCA475"/>
<path d="M60.1637 6.29833C60.1637 6.29833 59.822 5.98818 59.3286 6.12086C58.8352 6.25355 58.6693 6.04872 58.7655 5.9434C58.7655 5.9434 58.3326 5.95418 58.1717 5.56691C58.0109 5.17964 58.0507 4.00623 58.8161 4.22764C59.5807 4.44906 59.4264 4.98062 59.4264 4.98062C59.4264 4.98062 59.6711 4.72603 59.9024 4.85871C60.1338 4.9914 60.1039 5.17964 60.1039 5.17964C60.1039 5.17964 60.3154 5.61086 60.6073 5.66642C60.8992 5.72198 60.8694 6.36384 60.8694 6.36384C60.8694 6.36384 61.0402 6.49652 60.92 6.96174C60.7989 7.42696 60.0874 8.13848 60.0874 8.35989C60.0874 8.35989 59.914 8.0796 60.055 7.62599C60.196 7.17238 60.196 6.90618 60.0451 6.90618C59.8941 6.90618 60.1661 6.2975 60.1661 6.2975L60.1637 6.29833Z" fill="#121841"/>
<path d="M59.9467 7.20721C59.9467 7.20721 59.9956 6.82574 60.1051 6.82574C60.2145 6.82574 60.3165 6.86721 60.29 7.08282C60.2635 7.29843 60.1507 7.53975 60.0072 7.4394C59.8638 7.33989 59.9467 7.20721 59.9467 7.20721Z" fill="#ED8F5D"/>
<path d="M61.2316 6.34808C61.2217 6.31574 61.196 6.28091 61.1645 6.26682C61.0625 6.21872 60.9256 6.32238 60.8353 6.39369L60.8203 6.37379C60.8808 6.30496 60.9455 6.23613 61.0351 6.19218C61.1678 6.13082 61.2864 6.19384 61.3361 6.30994L61.2316 6.34891V6.34808Z" fill="#121841"/>
<path d="M61.2445 6.83493C61.2544 6.77937 61.2544 6.71469 61.2412 6.65747C61.1757 6.37054 60.858 6.39542 60.8423 6.38713V6.36888C60.8514 6.3722 61.3025 6.27601 61.3664 6.73957C61.3722 6.7802 61.3747 6.8142 61.3714 6.86313L61.2445 6.83493Z" fill="#121841"/>
<path d="M58.9192 6.6407C58.9192 6.73441 58.8819 6.8107 58.8346 6.8107C58.7873 6.8107 58.75 6.73441 58.75 6.6407C58.75 6.54699 58.7881 6.4707 58.8346 6.4707C58.881 6.4707 58.9192 6.54699 58.9192 6.6407Z" fill="#121841"/>
<path d="M59.1086 6.47327C58.922 6.30575 58.7197 6.41439 58.718 6.41522L58.6865 6.29248C58.6956 6.28751 58.9104 6.17058 59.1211 6.35965L59.1095 6.47244L59.1086 6.47327Z" fill="#121841"/>
<path d="M58.5952 9.59293L58.2436 19.9273H56.0552L56.7003 15.2328L57.1233 12.3784C57.1233 12.3784 57.3281 10.4595 57.7742 10.1162C58.2196 9.77288 58.5952 9.5921 58.5952 9.5921V9.59293Z" fill="#555DA2"/>
<path d="M60.0187 7.05301C60.0187 7.05301 60.0825 6.92364 60.1397 6.94189C60.197 6.96013 60.2094 7.22052 60.1082 7.32998C60.0071 7.43945 59.9216 7.26033 60.0187 7.05301Z" fill="#FCA475"/>
<path d="M60.3516 9.53745L60.1211 19.9282H62.4646C62.4646 19.9282 62.5525 11.6927 62.2938 10.8311C62.035 9.9695 60.3516 9.53662 60.3516 9.53662V9.53745Z" fill="#555DA2"/>
<path d="M57.7451 9.97793L58.7527 9.40076L58.4284 14.514L57.8745 11.624L58.0702 11.4922L57.7451 9.97793Z" fill="#777EB5"/>
<path d="M60.2402 14.5845L60.3281 9.40076L61.2262 9.80047L60.737 11.4889L60.8614 11.5842L60.2402 14.5845Z" fill="#777EB5"/>
<path d="M56.1223 15.9999L52.874 13.5685L56.3138 13.2559L58.9152 15.9999H56.1223Z" fill="#1E3340"/>
<path d="M57.9313 14.9675C57.9313 14.9675 58.2846 15.0463 58.4148 15.1864C58.5815 15.3647 58.9762 15.6549 59.1429 15.6549C59.3096 15.6549 60.0161 15.7238 60.0161 15.7238L60.1347 16.5024C60.1347 16.5024 57.4951 15.8979 57.3707 15.7652C57.2463 15.6325 57.9894 15.8639 57.9894 15.805C57.9894 15.7462 57.0938 15.679 57.1402 15.5297C57.1866 15.3804 57.9661 15.7312 58.035 15.6566C58.1038 15.5828 57.0938 15.4592 57.0938 15.3008C57.0938 15.1424 58.0997 15.5297 58.0997 15.5297C58.0997 15.5297 58.1179 15.4493 57.8459 15.3207C57.5739 15.1922 57.3094 15.0885 57.3699 15.0239C57.4304 14.9592 58.1262 15.3688 58.2182 15.2702L57.9305 14.9683L57.9313 14.9675Z" fill="#FCA475"/>
<path d="M61.6486 10.6305C61.6486 10.6305 61.2646 11.3321 61.3417 12.3429C61.418 13.3538 61.5491 14.9037 61.3343 15.4087C61.1195 15.9138 59.5464 15.4087 59.5464 15.4087V16.6046C59.5464 16.6046 61.8277 17.5308 62.4886 17.2282C63.1496 16.9247 63.0865 14.3141 63.0865 13.0337C63.0865 11.7533 62.0707 9.7125 61.6494 10.6305H61.6486Z" fill="#777EB5"/>
<path d="M61.6484 10.6305C61.4594 11.0368 61.3341 11.6389 61.374 12.2642C61.4453 13.2054 61.6692 15.247 61.2595 15.5572C60.8639 15.8002 59.9708 15.5572 59.5454 15.4087C59.9634 15.5199 61.1442 15.7919 61.2976 15.3905C61.4287 15.0687 61.4071 14.2925 61.3955 13.9467C61.3482 12.4541 61.165 11.9275 61.4801 11.0169C61.5257 10.8834 61.5796 10.7532 61.6476 10.6305H61.6484Z" fill="#EEF1F9"/>
<path d="M58.4922 7.92459L58.5229 8.11284C58.9043 8.07055 59.0926 7.74713 59.0926 7.74713C58.8662 7.97352 58.4922 7.92459 58.4922 7.92459Z" fill="#121841"/>
<path d="M55.1659 14.9369C55.1659 14.9369 55.1203 14.9933 55.0474 15.165C54.9769 15.3317 55.1734 15.5025 55.2116 15.5381C55.2845 15.607 55.4164 15.6998 55.4985 15.7463C55.5806 15.7927 55.6328 15.8168 55.7124 15.8342C55.8285 15.8599 56.0889 15.4461 56.0533 15.4063C56.0292 15.3797 56.0002 15.359 55.9728 15.3673C55.9446 15.3764 55.6552 15.602 55.6552 15.602C55.6552 15.602 55.9156 15.2769 55.8866 15.1799C55.8567 15.0829 55.8012 15.0953 55.7788 15.1194C55.7564 15.1442 55.4247 15.4494 55.4247 15.4494C55.4247 15.4494 55.6477 15.0605 55.6287 14.9975C55.6096 14.9344 55.5192 14.8897 55.4172 15.0464C55.36 15.1343 55.2091 15.2769 55.2091 15.2769C55.2091 15.2769 55.3343 14.9834 55.3061 14.8888C55.2771 14.7943 55.1676 14.9361 55.1676 14.9361L55.1659 14.9369Z" fill="#FCA475"/>
<path d="M43.2108 8.6676C43.2108 8.6676 44.3071 19.4846 43.1486 22.6308C42.4728 24.466 41.811 24.6136 41.3765 24.4179C41.0589 24.2753 40.8698 23.9436 40.8731 23.5961C40.8847 22.3995 40.9859 18.5376 41.782 15.8499C42.7473 12.59 42.2762 12.1845 42.2762 11.6455C42.2762 10.7118 42.4213 9.35673 42.6403 8.82433C42.671 8.75053 43.2108 8.6676 43.2108 8.6676Z" fill="#E64646"/>
<path d="M43.8877 8.56458C44.0743 8.56126 44.2791 8.60936 44.6266 8.6475C44.6589 8.65082 44.683 8.62926 44.7178 8.6334C44.3604 8.29174 43.0037 8.10931 42.9257 8.69145C42.3908 12.6562 43.6994 20.084 43.1488 22.6315C44.4101 20.0732 44.1489 13.1239 43.405 9.14672C43.3395 8.79926 43.5336 8.57204 43.8877 8.5654V8.56458Z" fill="#AC2929"/>
<path d="M44.7168 8.63281C45.4797 9.49525 45.794 23.5978 46.7941 23.927C46.7941 23.927 46.7386 19.8072 46.7386 18.7715C46.7386 17.7357 46.2841 10.8868 46.066 10.3113C45.8488 9.73657 45.1646 8.76715 45.1646 8.76715L44.7168 8.63281Z" fill="#AC2929"/>
<path d="M44.7162 8.63273C44.6822 8.60287 44.5919 8.56804 44.6001 8.58629C45.0372 9.51922 45.2445 18.0043 46.2736 22.3563C46.1343 20.5477 45.5936 9.54575 44.7154 8.63273H44.7162Z" fill="#AB99A1"/>
<path d="M44.4678 15.368L44.5316 15.3224C44.5316 15.3224 44.797 15.3249 44.909 15.2702C45.0201 15.2154 45.1569 15.2171 45.1063 15.2702C45.0557 15.3232 44.8044 15.3805 44.8542 15.5165C44.9048 15.6533 44.4678 15.3672 44.4678 15.3672V15.368Z" fill="#D77969"/>
<path d="M45.4197 15.4419C45.3725 15.4709 45.2713 15.4834 45.166 15.519C45.0607 15.5547 45.6403 15.2993 45.6403 15.2155C45.6403 15.1317 45.1552 15.3888 45.0134 15.4485C44.8525 15.5165 44.5971 15.3979 44.5299 15.3216C44.5299 15.3216 42.5297 14.6508 41.9982 14.2743C41.9501 14.2403 41.8274 14.067 41.8423 13.9368C41.5006 13.9675 41.1648 14.0396 40.8613 14.203C40.8646 14.4128 40.8049 14.6682 40.8613 14.7718C41.2079 15.4104 43.466 15.65 43.9403 15.65C44.4147 15.65 44.8799 15.7636 45.0118 15.7636C45.1436 15.7636 45.7573 15.4278 45.7755 15.2702C45.7929 15.1226 45.4811 15.4037 45.4189 15.4419H45.4197Z" fill="#F9A394"/>
<path d="M42.0632 12.1937C42.4099 11.8022 42.5301 10.7615 42.5301 10.0301C42.5301 9.29868 42.4157 8.82351 42.4157 8.82351C42.4157 8.82351 41.6461 8.79283 41.2174 9.61629C40.7679 10.4804 40.1584 11.3694 40.7356 14.1491C41.0399 13.9857 41.5018 13.9675 41.8427 13.9368C41.9206 13.2369 41.7705 12.5229 42.0624 12.1928L42.0632 12.1937Z" fill="#E64646"/>
<path d="M40.676 13.9541C40.676 13.9541 40.6063 14.1756 40.676 14.2485C40.7456 14.3215 40.6611 14.4865 40.7067 14.5786C40.7531 14.6715 41.5069 14.4301 41.8635 14.3281C42.2201 14.227 41.9987 14.1034 41.9564 13.9716C41.9141 13.8397 41.9622 13.7709 41.8801 13.6855C41.798 13.5992 40.7382 13.712 40.676 13.9541Z" fill="#E8E7EB"/>
<path d="M40.769 14.2751C41.041 14.1665 41.5527 13.9899 41.8413 14.0313C41.8861 14.038 41.8753 14.1101 41.8297 14.101C41.8222 14.101 41.6804 14.0554 41.2973 14.1333C41.119 14.169 40.9424 14.2179 40.769 14.2751Z" fill="#DEADC3"/>
<path d="M44.4571 7.25858C44.4952 7.29673 44.341 8.39882 44.4935 8.70482C44.4935 8.70482 44.8949 10.2813 44.6221 10.3136C44.3849 10.3418 43.4959 8.96522 43.4487 8.74712C43.3848 8.45439 43.442 7.04297 43.442 7.04297L44.4571 7.25858Z" fill="#F9A394"/>
<path d="M44.4414 7.71483C44.079 8.04239 43.705 7.81517 43.4297 7.40386C43.4363 7.19654 43.4313 6.98756 43.4313 6.97595L44.4572 7.25873C44.4729 7.27449 44.4563 7.46937 44.4414 7.71483Z" fill="#D77969"/>
<path d="M44.3432 4.78162C44.3432 4.78162 44.8026 4.8687 44.8574 5.2626C44.9121 5.6565 44.9884 5.98407 44.9121 6.44348C44.8358 6.9029 44.5621 7.5149 44.1143 7.61358C43.6657 7.71226 43.1963 6.96841 43.1963 6.56373C43.1963 6.15904 43.0322 5.48153 43.3382 5.06607C43.6442 4.6506 44.344 4.78162 44.344 4.78162H44.3432Z" fill="#F9A394"/>
<path d="M43.8237 6.89874C44.065 7.00406 44.4233 7.00655 44.4233 7.00655C44.4233 7.00655 44.3984 7.05547 44.3545 7.10855C44.25 7.10274 44.0452 7.0845 43.8768 7.02396C43.842 6.95596 43.8246 6.89874 43.8246 6.89874H43.8237Z" fill="white"/>
<path d="M43.877 7.02393C44.0461 7.08446 44.2501 7.10271 44.3546 7.10851C44.1838 7.31251 44.0022 7.26358 43.877 7.02393Z" fill="#2E0A29"/>
<path d="M44.3721 4.6149C44.3721 4.6149 44.8025 4.86865 44.8572 5.26255C44.907 5.61914 44.9742 5.92182 44.9294 6.31739C44.8564 6.2668 44.7527 6.21621 44.6068 6.16812C44.2021 6.0346 43.7809 5.44582 43.7311 4.95075C43.6764 4.42002 44.3721 4.6149 44.3721 4.6149Z" fill="#D77969"/>
<path d="M44.3476 6.63413C44.3351 6.50891 44.3269 6.38286 44.3285 6.25598C44.3567 6.41603 44.3633 6.53296 44.3725 6.64988C44.3053 6.66813 44.2257 6.70545 44.1245 6.6673C44.2016 6.68223 44.2771 6.65984 44.3476 6.63413Z" fill="#DB6D5A"/>
<path d="M44.0978 6.24453C44.0746 6.17238 44.0132 6.10273 43.9286 6.08034C43.7785 6.04136 43.6873 6.25697 43.5845 6.25531C43.6583 6.29346 43.7769 6.16658 43.8573 6.13507C43.9013 6.11765 43.9402 6.12926 43.9833 6.14999C44.0256 6.17156 44.063 6.20556 44.097 6.24536L44.0978 6.24453Z" fill="#383838"/>
<path d="M43.8271 6.17979C43.8271 6.2254 43.8595 6.26272 43.9001 6.26272C43.9407 6.26272 43.9731 6.2254 43.9731 6.17979C43.9731 6.13418 43.9407 6.09686 43.9001 6.09686C43.8595 6.09686 43.8271 6.13418 43.8271 6.17979Z" fill="#383838"/>
<path d="M44.4321 6.2916C44.4578 6.22028 44.5233 6.15394 44.6088 6.13569C44.7605 6.10335 44.8418 6.32311 44.9446 6.3256C44.8691 6.3596 44.7564 6.22857 44.6768 6.19291C44.6336 6.17301 44.5938 6.18379 44.5499 6.20204C44.5068 6.22194 44.467 6.25428 44.4321 6.2916Z" fill="#383838"/>
<path d="M44.7063 6.23864C44.7046 6.28425 44.6698 6.31991 44.63 6.31742C44.5902 6.31577 44.5587 6.27762 44.5612 6.23201C44.5637 6.1864 44.5977 6.15074 44.6375 6.1524C44.6781 6.15406 44.7088 6.19303 44.7063 6.23781V6.23864Z" fill="#383838"/>
<path d="M44.1516 5.89441C44.1682 5.88363 44.0372 5.7526 43.8804 5.73768C43.7237 5.72275 43.5537 5.89441 43.5537 5.89441C43.5537 5.89441 43.7851 5.75675 43.8821 5.8007C43.98 5.84548 44.0612 5.95246 44.1516 5.89441Z" fill="#383838"/>
<path d="M43.9366 4.44829C43.6016 4.48643 43.0717 4.40434 42.8245 4.95082C42.6786 5.26097 42.3801 5.85887 42.3801 6.922C42.3801 8.50507 40.8525 9.20663 40.8525 9.20663L41.5218 9.53005L41.9215 9.20663L41.6486 9.78795L42.7466 9.89742L42.793 9.13863L43.0203 10.0011L43.5336 9.89742C43.5336 9.89742 43.3312 7.30595 43.3088 6.32741C43.3122 6.33156 43.3147 6.33404 43.3147 6.33404C43.3147 6.33404 43.3105 6.208 43.3097 6.04629C43.3122 5.99736 43.3122 5.94926 43.3105 5.89951C43.313 5.7436 43.3213 5.58024 43.342 5.47077C43.3909 5.20292 43.4896 5.06609 43.7301 4.95165C43.9706 4.83721 44.8322 5.16395 44.8322 5.16395C44.8024 4.66555 44.2716 4.41097 43.9366 4.44912V4.44829Z" fill="#002B32"/>
<path d="M44.3861 4.53859C44.8074 4.63147 44.9343 5.27913 45.2784 5.62328C45.6226 5.96742 45.5355 6.46498 45.3713 6.79337C45.2071 7.12177 44.9442 6.90781 44.9442 6.90781C44.9442 6.90781 45.081 6.98411 45.1689 6.71128C45.2569 6.43762 45.1034 6.22449 44.6391 6.07191C44.1747 5.91849 43.7318 4.95157 43.7318 4.95157C43.7202 4.76249 43.9657 4.44571 44.3861 4.53859Z" fill="#002B32"/>
<path d="M44.9432 6.90788C45.1024 7.00076 45.328 6.61017 45.1638 6.35476C45.0444 6.15739 44.7823 6.07447 44.5733 5.98739C44.2416 5.79749 43.9232 5.27173 43.73 4.95081C43.8701 5.33393 44.167 5.86549 44.5244 6.07695L44.6107 6.11427C44.6994 6.14993 44.9681 6.22208 45.0983 6.39788C45.2028 6.53554 45.153 6.74949 45.0833 6.85066C45.0535 6.89461 44.9996 6.92861 44.9424 6.90788H44.9432Z" fill="#023135"/>
<path d="M43.4027 6.38287C43.4027 6.38287 43.2858 5.87536 43.0909 5.99809C42.896 6.12082 43.105 6.68224 43.2866 6.68224C43.4682 6.68224 43.4027 6.38287 43.4027 6.38287Z" fill="#F29888"/>
<path d="M43.2138 6.10515C43.2138 6.10515 43.5016 6.56622 43.3042 6.51564C43.1068 6.46505 43.0289 6.01974 43.2138 6.10515Z" fill="#FFB0A2"/>
<path d="M43.9399 6.53951C43.9199 6.59922 43.8096 6.61663 43.6944 6.57849C43.5791 6.53951 43.5012 6.4599 43.5219 6.40019C43.5418 6.34049 43.6521 6.32307 43.7674 6.36122C43.8826 6.40019 43.9606 6.4798 43.9407 6.53951H43.9399Z" fill="#FFB0A2"/>
<path d="M44.8722 6.50986C44.8813 6.56708 44.8058 6.62596 44.7047 6.64088C44.6035 6.65664 44.5148 6.62264 44.5056 6.56542C44.4965 6.5082 44.572 6.44932 44.6731 6.4344C44.7743 6.41864 44.8631 6.45264 44.8722 6.50986Z" fill="#FFB0A2"/>
<path opacity="0.1" d="M66.9 33.9001C66.9 34.5078 52.3714 35 34.45 35C16.5286 35 2 34.5078 2 33.9001C2 33.2923 16.5286 32.8 34.45 32.8C52.3714 32.8 66.9 33.2923 66.9 33.9001Z" fill="black"/>
<path d="M5.03968 26.3645C4.90202 26.5087 4.65158 26.6 4.3688 26.5892C4.08602 26.5792 3.84304 26.4698 3.71533 26.3164C3.85299 26.1721 4.10344 26.0808 4.38622 26.0916C4.66983 26.1016 4.9128 26.211 5.03968 26.3645Z" fill="#59C465"/>
<path d="M8.13088 32.2904C7.94263 31.0017 7.85557 29.6998 7.87796 28.4003C7.88293 27.751 7.91859 27.1017 7.97083 26.4548C8.02059 25.8072 8.09937 25.1628 8.18893 24.521C8.37303 23.2365 8.63342 21.9644 8.95518 20.7088C9.11688 20.0811 9.296 19.4583 9.49171 18.8405C9.68825 18.2227 9.89806 17.6099 10.1402 17.0078L10.2165 17.0393C9.98347 17.6397 9.78112 18.255 9.59371 18.8728C9.40629 19.4906 9.2363 20.1143 9.08206 20.7412C8.77689 21.9959 8.53308 23.2663 8.3664 24.5459C8.28513 25.1861 8.21463 25.8271 8.17317 26.4706C8.13005 27.1141 8.10269 27.7585 8.10517 28.4028C8.09937 29.6915 8.2022 30.9785 8.40371 32.2481L8.13088 32.2912V32.2904Z" fill="#59C465"/>
<path d="M10.5183 14.4255C10.151 14.647 9.85905 15.1155 9.77779 15.6893C9.69652 16.2624 9.84661 16.7939 10.1377 17.1091C10.5051 16.8876 10.7969 16.4191 10.8782 15.8461C10.9595 15.2731 10.8094 14.7407 10.5183 14.4264V14.4255Z" fill="#59C465"/>
<path d="M8.35673 16.4009C8.31194 16.7326 8.45374 17.1397 8.76389 17.4706C9.07321 17.8007 9.47043 17.969 9.80463 17.9458C9.84941 17.6141 9.7076 17.2069 9.39828 16.876C9.08896 16.546 8.69175 16.3776 8.35756 16.4009H8.35673Z" fill="#59C465"/>
<path d="M9.83252 18.0162C10.1136 18.1978 10.5432 18.2426 10.9736 18.1033C11.404 17.9639 11.7257 17.6762 11.8468 17.3636C11.5657 17.1819 11.1361 17.1372 10.7057 17.2765C10.2754 17.4158 9.95359 17.7036 9.83252 18.0162Z" fill="#59C465"/>
<path d="M9.44482 19.3512C9.72595 19.5328 10.1555 19.5776 10.5859 19.4383C11.0163 19.299 11.338 19.0112 11.4591 18.6994C11.178 18.5178 10.7484 18.473 10.318 18.6124C9.88765 18.7517 9.5659 19.0394 9.44482 19.3521V19.3512Z" fill="#59C465"/>
<path d="M9.00537 20.8092C9.28649 20.9908 9.71606 21.0355 10.1464 20.8962C10.5768 20.7569 10.8986 20.4692 11.0197 20.1565C10.7385 19.9749 10.309 19.9301 9.87859 20.0694C9.4482 20.2088 9.12644 20.4965 9.00537 20.8092Z" fill="#59C465"/>
<path d="M8.71094 22.1667C8.99206 22.3483 9.42162 22.3931 9.85201 22.2538C10.2824 22.1145 10.6042 21.8267 10.7252 21.5141C10.4441 21.3325 10.0146 21.2877 9.58416 21.427C9.15377 21.5663 8.83201 21.8541 8.71094 22.1659V22.1667Z" fill="#59C465"/>
<path d="M8.83315 21.8914C8.55202 22.073 8.12246 22.1178 7.69207 21.9785C7.26168 21.8392 6.93992 21.5514 6.81885 21.2388C7.09997 21.0572 7.52953 21.0124 7.95992 21.1517C8.39031 21.291 8.71207 21.5788 8.83315 21.8914Z" fill="#59C465"/>
<path d="M7.96216 17.6927C7.91738 18.0244 8.06001 18.4324 8.36933 18.7625C8.67864 19.0925 9.07587 19.2609 9.41006 19.2377C9.45484 18.906 9.31304 18.4988 9.00372 18.1679C8.6944 17.8379 8.29719 17.6695 7.96299 17.6927H7.96216Z" fill="#59C465"/>
<path d="M7.50907 19.1599C7.46429 19.4916 7.6061 19.8996 7.91541 20.2297C8.22473 20.5597 8.62196 20.728 8.95615 20.7048C9.00093 20.3731 8.85829 19.9659 8.54898 19.6351C8.23966 19.305 7.84244 19.1367 7.50824 19.1599H7.50907Z" fill="#59C465"/>
<path d="M16.4176 20.4071C15.8545 20.7173 15.3271 21.0838 14.8154 21.4694C14.3046 21.8567 13.817 22.2746 13.3493 22.715C12.8824 23.1553 12.4387 23.6205 12.0183 24.1057C11.6003 24.5933 11.2081 25.1033 10.8416 25.6307C10.1077 26.6863 9.49565 27.8266 9.00389 29.0166C8.52291 30.2116 8.16633 31.4571 7.93994 32.7267L8.21276 32.7724C8.41594 31.5185 8.74848 30.2845 9.20541 29.097C9.67394 27.9145 10.2611 26.7767 10.9717 25.7186C11.3275 25.1895 11.7081 24.6779 12.1161 24.1869C12.5258 23.6985 12.9595 23.2291 13.4173 22.7838C13.875 22.3393 14.3543 21.9156 14.8569 21.5217C15.3602 21.1294 15.8819 20.7562 16.4358 20.4395L16.4176 20.4055V20.4071Z" fill="#59C465"/>
<path d="M18.4956 18.9575C18.4657 19.3846 18.1813 19.859 17.7078 20.1923C17.2343 20.5257 16.6919 20.6335 16.2798 20.5174C16.3096 20.0895 16.5941 19.616 17.0676 19.2826C17.5411 18.9492 18.0835 18.8414 18.4956 18.9575Z" fill="#B098EE"/>
<path d="M15.3058 18.5953C15.6218 18.8847 15.8167 19.4013 15.7835 19.9802C15.7503 20.5582 15.4982 21.0499 15.1508 21.3012C14.8348 21.0118 14.6399 20.4951 14.6731 19.9163C14.7063 19.3383 14.9584 18.8465 15.3058 18.5953Z" fill="#59C465"/>
<path d="M13.4231 19.5405C13.8046 19.7353 14.1296 20.1815 14.2524 20.7479C14.3743 21.3143 14.2623 21.855 13.9936 22.1892C13.6113 21.9943 13.2863 21.5481 13.1644 20.9817C13.0425 20.4153 13.1544 19.8747 13.4231 19.5405Z" fill="#59C465"/>
<path d="M12.1531 20.7089C12.5354 20.9038 12.8605 21.3499 12.9824 21.9163C13.1043 22.4827 12.9923 23.0234 12.7236 23.3576C12.3422 23.1627 12.0171 22.7166 11.8944 22.1502C11.7724 21.5838 11.8844 21.0431 12.1523 20.7089H12.1531Z" fill="#59C465"/>
<path d="M10.6917 21.9098C11.1105 22.0002 11.5392 22.3485 11.8021 22.8651C12.065 23.3809 12.0948 23.9332 11.9215 24.3246C11.5027 24.2342 11.074 23.8851 10.8111 23.3693C10.5482 22.8535 10.5184 22.3012 10.6917 21.9098Z" fill="#59C465"/>
<path d="M9.66136 23.4131C10.0437 23.3965 10.4931 23.6013 10.8364 23.9886C11.1797 24.3751 11.3299 24.8453 11.2685 25.2234C10.8862 25.24 10.4367 25.0352 10.0934 24.6479C9.75009 24.2614 9.6 23.7913 9.66136 23.4131Z" fill="#59C465"/>
<path d="M8.91463 24.3584C9.29693 24.3418 9.74639 24.5467 10.0889 24.9339C10.4322 25.3204 10.5823 25.7906 10.5209 26.1687C10.1386 26.1853 9.68917 25.9805 9.34585 25.5932C9.00253 25.2068 8.85244 24.7366 8.9138 24.3584H8.91463Z" fill="#59C465"/>
<path d="M8.48824 25.7526C8.81581 25.7385 9.20059 25.9143 9.49498 26.246C9.78937 26.5777 9.9179 26.9808 9.86483 27.3042C9.53727 27.3183 9.15249 27.1425 8.8581 26.8108C8.56371 26.4791 8.43517 26.076 8.48824 25.7526Z" fill="#59C465"/>
<path d="M8.07471 27.2062C8.31354 27.0718 8.66763 27.0552 9.0151 27.1896C9.36256 27.3239 9.61466 27.5735 9.7009 27.8339C9.46207 27.9691 9.10798 27.9849 8.76051 27.8505C8.41305 27.7162 8.16095 27.4666 8.07471 27.2062Z" fill="#59C465"/>
<path d="M7.90723 28.4045C8.05401 28.2412 8.31938 28.1383 8.61709 28.1516C8.91562 28.1649 9.17103 28.2901 9.30288 28.4651C9.1561 28.6284 8.89074 28.7313 8.59303 28.718C8.2945 28.7047 8.03991 28.5795 7.90723 28.4045Z" fill="#59C465"/>
<path d="M17.7078 22.1412C17.3437 22.3667 16.7931 22.4132 16.2458 22.2241C15.6984 22.035 15.2938 21.6585 15.147 21.2555C15.511 21.03 16.0617 20.9835 16.609 21.1726C17.1563 21.3617 17.561 21.7382 17.7078 22.1412Z" fill="#59C465"/>
<path d="M16.551 23.0922C16.187 23.3177 15.6363 23.3642 15.089 23.1751C14.5417 22.986 14.137 22.6095 13.9902 22.2065C14.3543 21.9809 14.9049 21.9345 15.4522 22.1236C15.9996 22.3127 16.4042 22.6891 16.551 23.0922Z" fill="#59C465"/>
<path d="M15.3201 24.2656C14.956 24.4911 14.4054 24.5376 13.8581 24.3485C13.3107 24.1594 12.9061 23.7829 12.7593 23.3799C13.1233 23.1543 13.674 23.1079 14.2213 23.297C14.7686 23.4861 15.1725 23.8625 15.3201 24.2656Z" fill="#59C465"/>
<path d="M13.9288 25.046C13.6328 25.2292 13.185 25.2674 12.7397 25.1131C12.2943 24.9589 11.9659 24.6529 11.8457 24.3253C12.1418 24.1421 12.5896 24.1039 13.0349 24.2582C13.4802 24.4124 13.8086 24.7184 13.9288 25.046Z" fill="#59C465"/>
<path d="M12.8877 25.7907C12.6455 25.9474 12.2815 25.9831 11.9224 25.8587C11.5633 25.7343 11.2988 25.4814 11.2051 25.2085C11.4472 25.0518 11.8113 25.0161 12.1703 25.1405C12.5303 25.2649 12.794 25.5178 12.8877 25.7907Z" fill="#59C465"/>
<path d="M12.2646 26.7493C12.0225 26.906 11.6584 26.9417 11.2994 26.8173C10.9403 26.6929 10.6757 26.44 10.582 26.1671C10.8242 26.0104 11.1882 25.9748 11.5473 26.0991C11.9072 26.2235 12.1709 26.4765 12.2646 26.7493Z" fill="#59C465"/>
<path d="M11.5832 27.6158C11.3867 27.7833 11.0574 27.8638 10.705 27.8066C10.3517 27.7493 10.0656 27.5686 9.93213 27.348C10.1287 27.1805 10.4579 27.1 10.8103 27.1572C11.1636 27.2145 11.4497 27.3952 11.5832 27.6158Z" fill="#59C465"/>
<path d="M10.9239 28.7079C10.7025 28.7709 10.4089 28.7137 10.1486 28.5363C9.88816 28.3588 9.72893 28.1059 9.70654 27.8762C9.92796 27.8131 10.2215 27.8703 10.4819 28.0478C10.7423 28.2253 10.9024 28.4782 10.9239 28.7071V28.7079Z" fill="#59C465"/>
<path d="M10.1897 29.3607C10.0148 29.3764 9.80165 29.2918 9.63165 29.1218C9.46165 28.951 9.37706 28.7387 9.39365 28.5629C9.56863 28.5471 9.78175 28.6317 9.95175 28.8017C10.1217 28.9726 10.2063 29.1848 10.1897 29.3607Z" fill="#59C465"/>
<path d="M9.70359 29.5316C9.58832 29.5491 9.45315 29.5034 9.34866 29.399C9.245 29.2945 9.19857 29.1593 9.21598 29.044C9.33125 29.0266 9.46642 29.0722 9.57091 29.1767C9.6754 29.2812 9.72101 29.4164 9.70359 29.5316Z" fill="#59C465"/>
<path d="M9.5469 29.8534C9.43163 29.8708 9.29645 29.8252 9.19197 29.7207C9.08748 29.6162 9.04187 29.4811 9.05928 29.3658C9.17455 29.3484 9.30973 29.394 9.41421 29.4985C9.5187 29.603 9.56431 29.7381 9.5469 29.8534Z" fill="#59C465"/>
<path d="M3.90104 19.3264C4.30324 19.7668 4.65734 20.2452 4.99154 20.737C5.3249 21.2296 5.62925 21.7421 5.90788 22.2678C6.18652 22.7936 6.43778 23.3343 6.66252 23.8866C6.88476 24.4397 7.07632 25.0044 7.24134 25.5774C7.57139 26.7235 7.76876 27.9077 7.84589 29.0994C7.91223 30.2918 7.85417 31.4926 7.67422 32.6752L7.4213 32.6337C7.61701 31.4711 7.69247 30.2885 7.6452 29.1101C7.58632 27.9317 7.40969 26.7575 7.10037 25.6164C6.94613 25.0459 6.76369 24.4828 6.5514 23.9305C6.33744 23.3791 6.0953 22.8384 5.82662 22.3101C5.5571 21.7827 5.26271 21.2677 4.93846 20.7727C4.61339 20.2784 4.26676 19.7941 3.87451 19.3513L3.90022 19.3272L3.90104 19.3264Z" fill="#59C465"/>
<path d="M2.50927 17.4341C2.4081 17.8189 2.51673 18.3198 2.83351 18.7535C3.15029 19.1872 3.59395 19.4435 3.99117 19.465C4.09235 19.0802 3.98371 18.5794 3.66693 18.1457C3.35015 17.7119 2.90649 17.4557 2.50927 17.4341Z" fill="#59C465"/>
<path d="M5.41825 18.066C5.0542 18.226 4.72912 18.6224 4.58566 19.1399C4.4422 19.6573 4.51767 20.1648 4.74737 20.4882C5.11142 20.3282 5.43649 19.9318 5.57995 19.4143C5.72342 18.8969 5.64796 18.3894 5.41825 18.0651V18.066Z" fill="#59C465"/>
<path d="M6.78964 19.4575C6.39657 19.5147 5.97779 19.8099 5.70164 20.271C5.4255 20.732 5.36329 21.2404 5.49847 21.6144C5.89154 21.5572 6.31032 21.262 6.58647 20.8009C6.86261 20.3398 6.92481 19.8315 6.78964 19.4575Z" fill="#59C465"/>
<path d="M7.55673 20.8624C7.16366 20.9196 6.74488 21.2149 6.46873 21.6759C6.19259 22.137 6.13038 22.6454 6.26556 23.0194C6.65863 22.9621 7.07824 22.6669 7.35356 22.2058C7.6297 21.7448 7.6919 21.2364 7.55673 20.8624Z" fill="#59C465"/>
<path d="M8.48343 22.3533C8.08869 22.3077 7.60772 22.486 7.22377 22.8608C6.83899 23.2357 6.64826 23.7117 6.68392 24.1072C7.07865 24.1528 7.55879 23.9737 7.94357 23.5989C8.32835 23.224 8.51909 22.748 8.48343 22.3525V22.3533Z" fill="#59C465"/>
<path d="M8.93969 23.9803C8.60881 23.8517 8.15271 23.8982 7.73642 24.1353C7.3193 24.3725 7.04731 24.7407 6.98926 25.0915C7.32014 25.22 7.7754 25.1736 8.19252 24.9364C8.60964 24.6992 8.88164 24.3311 8.93969 23.9803Z" fill="#59C465"/>
<path d="M9.31372 25.0337C8.98285 24.9051 8.52675 24.9516 8.11045 25.1888C7.69333 25.4259 7.42133 25.7941 7.36328 26.1449C7.69416 26.2734 8.15026 26.227 8.56655 25.9898C8.98367 25.7527 9.25568 25.3845 9.31372 25.0337Z" fill="#59C465"/>
<path d="M9.27273 26.3852C8.98912 26.2749 8.59854 26.3147 8.24112 26.5179C7.88371 26.7211 7.65068 27.037 7.6001 27.3372C7.88371 27.4475 8.27429 27.4077 8.6317 27.2045C8.98912 27.0014 9.22214 26.6854 9.27273 26.3852Z" fill="#59C465"/>
<path d="M9.20282 27.7858C9.03365 27.5959 8.72681 27.4765 8.38184 27.4906C8.03686 27.5047 7.74082 27.649 7.5874 27.8514C7.75657 28.0413 8.06341 28.1607 8.40838 28.1466C8.75336 28.1325 9.0494 27.9882 9.20282 27.785V27.7858Z" fill="#59C465"/>
<path d="M8.99244 28.888C8.912 28.7006 8.70966 28.5314 8.44429 28.4543C8.1781 28.3763 7.91688 28.4103 7.74854 28.5256C7.82897 28.713 8.03131 28.8822 8.29668 28.9601C8.56288 29.0381 8.8241 29.0041 8.99244 28.8888V28.888Z" fill="#59C465"/>
<path d="M2.25098 20.4653C2.5039 20.7721 2.97327 20.9769 3.51063 20.9736C4.048 20.9703 4.51488 20.7605 4.76449 20.4503C4.51156 20.1435 4.0422 19.9387 3.50483 19.942C2.96746 19.9453 2.50059 20.1551 2.25098 20.4653Z" fill="#59C465"/>
<path d="M2.98291 21.6453C3.23584 21.9521 3.70521 22.1569 4.24258 22.1536C4.77994 22.1503 5.24682 21.9405 5.49643 21.6303C5.2435 21.3235 4.77413 21.1187 4.23677 21.122C3.6994 21.1253 3.23252 21.3351 2.98291 21.6453Z" fill="#59C465"/>
<path d="M3.71533 23.0424C3.96826 23.3492 4.43763 23.5541 4.975 23.5508C5.51236 23.5474 5.97924 23.3376 6.22885 23.0275C5.97593 22.7207 5.50655 22.5158 4.96919 22.5191C4.43182 22.5225 3.96494 22.7323 3.71533 23.0424Z" fill="#59C465"/>
<path d="M4.70396 24.1429C4.90961 24.3925 5.29191 24.5591 5.7281 24.5567C6.16513 24.5542 6.54494 24.3833 6.74811 24.1312C6.54245 23.8816 6.16016 23.7149 5.72313 23.7174C5.28611 23.7199 4.9063 23.8908 4.70312 24.1429H4.70396Z" fill="#59C465"/>
<path d="M5.39648 25.1073C5.56234 25.3171 5.87165 25.4573 6.22409 25.4548C6.57653 25.4531 6.8842 25.3088 7.04756 25.0974C6.88171 24.8876 6.57239 24.7474 6.21995 24.7499C5.86668 24.7516 5.55985 24.8959 5.39648 25.1073Z" fill="#59C465"/>
<path d="M5.65771 26.1348C5.82357 26.3446 6.13288 26.4847 6.48532 26.4823C6.83859 26.4806 7.14543 26.3363 7.30879 26.1248C7.14294 25.915 6.83362 25.7749 6.48118 25.7774C6.12792 25.779 5.82108 25.9233 5.65771 26.1348Z" fill="#59C465"/>
<path d="M5.99756 27.1001C6.12029 27.3058 6.38483 27.4741 6.71239 27.5297C7.03912 27.5844 7.34512 27.5115 7.52839 27.358C7.40566 27.1524 7.14112 26.984 6.81356 26.9285C6.48682 26.8737 6.18083 26.9467 5.99756 27.101V27.1001Z" fill="#59C465"/>
<path d="M6.25195 28.2553C6.42776 28.3764 6.70307 28.4145 6.98419 28.3358C7.26532 28.257 7.48176 28.0828 7.56883 27.888C7.39303 27.7669 7.11853 27.7287 6.83658 27.8075C6.55546 27.8863 6.33903 28.0604 6.25195 28.2553Z" fill="#59C465"/>
<path d="M6.70215 29.0471C6.85142 29.1135 7.06371 29.1027 7.26357 29.004C7.46425 28.9053 7.60108 28.7428 7.63923 28.5844C7.48996 28.5181 7.27766 28.5288 7.07781 28.6275C6.87713 28.7262 6.74029 28.8887 6.70215 29.0471Z" fill="#59C465"/>
<path d="M7.07812 29.3423C7.17432 29.3921 7.307 29.3921 7.42973 29.3316C7.55247 29.271 7.63291 29.1657 7.65198 29.0596C7.55579 29.0098 7.4231 29.0098 7.30036 29.0703C7.17763 29.1309 7.0972 29.2362 7.07812 29.3423Z" fill="#59C465"/>
<path d="M7.12061 29.6724C7.2168 29.7222 7.34948 29.7222 7.47221 29.6616C7.59495 29.6011 7.67538 29.4958 7.69445 29.3896C7.59826 29.3399 7.46558 29.3399 7.34367 29.4004C7.22094 29.461 7.14051 29.5663 7.12144 29.6724H7.12061Z" fill="#59C465"/>
<path d="M6.46555 28.3407C5.86018 27.4542 5.22331 26.5876 4.54248 25.7567L4.55326 25.7476C5.25068 26.566 5.90663 27.4194 6.53024 28.2959C7.15302 29.1733 7.74014 30.0772 8.26921 31.0167C8.39692 31.2448 8.52048 31.4745 8.64072 31.7075C8.59346 31.7341 8.54702 31.7598 8.50058 31.7871C8.38531 31.5516 8.26506 31.3186 8.14233 31.0872C7.63648 30.1427 7.06843 29.2297 6.46555 28.3423V28.3407Z" fill="#59C465"/>
<path d="M3.87565 24.6257C4.09872 24.6464 4.33009 24.7948 4.47604 25.0378C4.62199 25.2808 4.64438 25.5553 4.55814 25.7618C4.33506 25.741 4.1037 25.5926 3.95775 25.3496C3.8118 25.1066 3.78941 24.8322 3.87565 24.6257Z" fill="#59C465"/>
<path d="M5.53411 25.1439C5.62533 25.3213 5.62948 25.5875 5.52748 25.8521C5.42548 26.1166 5.24304 26.3106 5.05645 26.3803C4.96523 26.2028 4.96108 25.9366 5.06308 25.6721C5.16508 25.4076 5.34752 25.2135 5.53411 25.1439Z" fill="#59C465"/>
<path d="M5.58994 27.0943C5.43818 27.2237 5.18027 27.2892 4.89915 27.2511C4.61886 27.2121 4.38749 27.0794 4.27637 26.9136C4.42812 26.7842 4.68603 26.7187 4.96716 26.7568C5.24745 26.7958 5.47881 26.9285 5.58911 27.0943H5.58994Z" fill="#59C465"/>
<path d="M6.25985 27.9584C6.10809 28.0878 5.85019 28.1533 5.56907 28.1151C5.28878 28.0762 5.05741 27.9435 4.94629 27.7776C5.09805 27.6483 5.35594 27.5828 5.63707 27.6209C5.91736 27.6599 6.14873 27.7926 6.25902 27.9584H6.25985Z" fill="#59C465"/>
<path d="M6.71395 28.6466C6.56219 28.7759 6.3043 28.8415 6.02317 28.8033C5.74288 28.7643 5.51151 28.6317 5.40039 28.4658C5.55215 28.3364 5.81005 28.2709 6.09117 28.3091C6.37146 28.348 6.60283 28.4807 6.71312 28.6466H6.71395Z" fill="#59C465"/>
<path d="M7.21883 29.4071C7.06708 29.5365 6.80918 29.602 6.52806 29.5639C6.24693 29.5249 6.0164 29.3922 5.90527 29.2264C6.05703 29.097 6.31493 29.0315 6.59605 29.0696C6.87717 29.1086 7.10771 29.2413 7.21883 29.4071Z" fill="#59C465"/>
<path d="M6.11761 25.8853C6.20883 26.0628 6.21297 26.329 6.11097 26.5935C6.00897 26.858 5.82653 27.0521 5.63995 27.1218C5.54873 26.9443 5.54458 26.6781 5.64658 26.4136C5.74858 26.149 5.93102 25.955 6.11761 25.8853Z" fill="#59C465"/>
<path d="M6.67327 26.6481C6.76449 26.8256 6.76864 27.0918 6.66664 27.3563C6.56464 27.6209 6.3822 27.8149 6.19561 27.8846C6.10439 27.7071 6.10024 27.4409 6.20224 27.1764C6.30424 26.9118 6.48668 26.7178 6.67327 26.6481Z" fill="#59C465"/>
<path d="M7.20452 27.4177C7.29574 27.5951 7.29988 27.8613 7.19788 28.1259C7.09588 28.3904 6.91345 28.5844 6.72686 28.6541C6.63564 28.4766 6.63149 28.2104 6.73349 27.9459C6.83549 27.6814 7.01793 27.4873 7.20452 27.4177Z" fill="#59C465"/>
<path d="M7.7177 28.1715C7.80892 28.349 7.81307 28.6152 7.71107 28.8797C7.60907 29.1442 7.42662 29.3383 7.24004 29.408C7.14882 29.2305 7.14468 28.9643 7.24668 28.6998C7.34868 28.4352 7.53111 28.2412 7.7177 28.1715Z" fill="#59C465"/>
<path d="M6.06608 30.3716H10.0831C10.7498 30.7125 11.1735 31.2192 11.1735 31.7864C11.1735 32.3917 10.6909 32.9291 9.94456 33.2683H6.20456C5.45822 32.9291 4.97559 32.3917 4.97559 31.7864C4.97559 31.22 5.39934 30.7125 6.06608 30.3716Z" fill="url(#paint0_linear_6413_73690)"/>
<path d="M6.443 30.6891C6.04743 30.6426 5.51671 30.9412 5.37905 31.5416C5.19246 32.7258 6.37832 33.0741 7.02598 32.773C6.46207 32.6312 5.8451 32.3725 5.82685 31.7895C5.79534 31.4844 5.97695 31.19 5.98027 31.1808C6.00515 31.1452 6.05573 31.0556 6.15026 30.9528C6.23402 30.8533 6.33519 30.7695 6.443 30.6883V30.6891Z" fill="#F8E74A"/>
<path d="M5.87752 30.476H10.3149V30.1974H5.87752V30.476Z" fill="#1179C5"/>
<path d="M15.3858 23.8867H14.4678V28.3938H15.3858V23.8867Z" fill="black"/>
<path d="M15.2772 28.3937H14.5757V31.9795H15.2772V28.3937Z" fill="#50576D"/>
<path d="M18.3264 20.9253C18.372 20.932 18.5105 20.4684 18.5171 20.4128C18.5386 20.247 18.5005 20.1035 18.3944 19.9667C18.061 19.5355 17.5153 19.3091 16.9606 19.2137C16.2383 19.0902 15.4372 19.096 14.7 19.0727C13.4445 19.0338 11.9053 18.984 10.8787 19.766C10.3811 20.145 10.498 20.4443 10.7651 20.9892C9.9358 21.1567 9.89352 21.3557 10.4997 21.5216C10.7477 21.5896 10.9185 21.7977 10.9185 22.0349V22.0996C10.9185 23.5002 12.1599 24.6363 13.6916 24.6363H15.4969C17.0286 24.6363 18.27 23.501 18.27 22.0996C18.27 21.8475 18.4624 21.6327 18.731 21.5763C19.1374 21.4917 19.3704 21.3922 19.3704 21.2869C19.3704 21.1501 18.9782 21.024 18.3239 20.9253H18.3264ZM14.7306 23.4961C13.4652 23.4961 12.4394 22.899 12.4303 22.1601H17.0302C17.0219 22.899 15.9953 23.4961 14.7306 23.4961Z" fill="#0089A9"/>
<path d="M18.6892 33.0658C18.6868 32.9232 18.574 32.8088 18.4371 32.8112L15.3896 31.7572V31.5939H14.5172V31.7373L11.4091 32.8768C11.2723 32.8768 11.1611 32.9928 11.1611 33.1355V33.2673H12.1886V32.963L14.6101 32.2457H14.7701L14.834 32.9356H14.6573C14.5247 32.9356 14.4177 33.0476 14.4177 33.1861V33.2673H15.5447V33.1861C15.5447 33.0476 15.4377 32.9356 15.305 32.9356H15.1209L15.1806 32.2457H15.2461L17.6593 32.9124L17.6643 33.2168L18.6909 33.1977L18.6884 33.0658H18.6892Z" fill="black"/>
<path d="M17.3719 19.6741C16.4971 19.3366 15.4895 19.3673 14.5549 19.3748C14.3045 19.3764 14.0549 19.3789 13.8044 19.3822C12.709 19.3971 10.6217 19.5721 10.7627 20.9703C10.7627 20.9769 10.7635 20.9835 10.7651 20.9902C10.7651 20.9902 11.3116 21.1734 11.7304 21.5466C12.1492 21.9198 12.3101 22.9232 12.3142 22.9398C12.3424 23.0575 12.4245 23.1612 12.5166 23.2458C13.0174 23.7035 13.8542 23.8445 14.5441 23.8395C15.0218 23.8362 15.5741 23.8147 16.0211 23.6654C17.4051 23.2035 16.9656 21.9198 17.3844 21.5458C17.8032 21.1726 18.3248 20.9247 18.3248 20.9247C18.3248 20.9247 18.4948 20.1062 17.3719 19.6733V19.6741ZM14.7299 23.4962C13.4644 23.4962 12.4386 22.8991 12.4295 22.1603H17.0294C17.0212 22.8991 15.9945 23.4962 14.7299 23.4962Z" fill="#196A7D"/>
<path d="M34.667 23.6703H33.749V28.1774H34.667V23.6703Z" fill="black"/>
<path d="M34.5595 28.1773H33.8579V31.3136H34.5595V28.1773Z" fill="#50576D"/>
<path d="M37.6073 20.708C37.6529 20.7147 37.7905 20.2511 37.798 20.1955C37.8204 20.0297 37.7814 19.8862 37.6753 19.7494C37.3419 19.3182 36.7962 19.0918 36.2415 18.9964C35.5192 18.8729 34.7173 18.8787 33.9809 18.8555C32.7253 18.8165 31.1862 18.7667 30.1596 19.5487C29.662 19.9277 29.779 20.2271 30.046 20.7719C29.2167 20.9394 29.1753 21.1384 29.7806 21.3043C30.0286 21.3723 30.1994 21.5804 30.1994 21.8176V21.8823C30.1994 23.2829 31.4408 24.419 32.9725 24.419H34.7778C36.3095 24.419 37.5509 23.2829 37.5509 21.8823C37.5509 21.6302 37.7433 21.4154 38.012 21.359C38.4183 21.2744 38.6513 21.1749 38.6513 21.0696C38.6513 20.9328 38.2591 20.8067 37.6048 20.708H37.6073ZM34.0124 23.2796C32.7469 23.2796 31.7211 22.6825 31.7128 21.9437H36.3128C36.3045 22.6825 35.2779 23.2796 34.0124 23.2796Z" fill="#0089A9"/>
<path d="M37.9711 32.5996C37.9686 32.442 37.8559 32.3168 37.719 32.3193L34.6715 31.1566V30.9767H33.7991V31.1351L30.691 32.3922C30.5541 32.3922 30.4438 32.52 30.4438 32.6775V32.8226H31.4713V32.4868L33.8928 31.6957H34.0528L34.1167 32.4569H33.94C33.8074 32.4569 33.7004 32.5805 33.7004 32.7331V32.8226H34.8274V32.7331C34.8274 32.5805 34.7204 32.4569 34.5877 32.4569H34.4036L34.4633 31.6957H34.5288L36.9412 32.4312L36.9461 32.7671L37.9728 32.7463L37.9703 32.6012L37.9711 32.5996Z" fill="black"/>
<path d="M36.6542 19.4568C35.7793 19.1193 34.7709 19.15 33.8371 19.1575C33.5867 19.1591 33.3371 19.1616 33.0866 19.1649C31.9912 19.1799 29.9039 19.3548 30.0449 20.753C30.0449 20.7596 30.0465 20.7663 30.0474 20.7729C30.0474 20.7729 30.5939 20.9562 31.0126 21.3293C31.4314 21.7025 31.5923 22.7059 31.5964 22.7225C31.6246 22.8394 31.7067 22.9439 31.7988 23.0285C32.3005 23.4863 33.1364 23.6272 33.8264 23.6223C34.304 23.6189 34.8563 23.5974 35.3033 23.4489C36.6873 22.987 36.2478 21.7033 36.6666 21.3293C37.0854 20.9562 37.607 20.7082 37.607 20.7082C37.607 20.7082 37.777 19.8897 36.6542 19.4568ZM34.0121 23.2798C32.7466 23.2798 31.7208 22.6827 31.7126 21.9438H36.3125C36.3042 22.6827 35.2776 23.2798 34.0121 23.2798Z" fill="#196A7D"/>
<path d="M18.8161 18.6762C18.5358 18.4656 18.1593 17.293 18.0681 17.0749C17.4918 15.7025 16.738 14 16.1683 14.0738C15.3572 14.1791 15.2088 14.7878 15.3962 15.7249C15.475 16.1188 16.4568 18.1546 16.5812 18.0941C17.1327 18.901 17.7878 19.6224 18.3542 19.8007C18.768 19.9309 19.2996 19.9259 19.8162 19.8637C19.851 19.5785 19.9149 19.2932 19.9282 19.0079C19.5052 18.9781 19.0956 18.886 18.8161 18.6762Z" fill="#45848B"/>
<path d="M23.0497 19.7835L22.7164 19.3091C22.7164 19.3091 22.1251 18.8522 21.6914 18.8754C21.6914 18.8754 20.7825 19.0686 19.9284 19.0081C19.9143 19.2934 19.8504 19.5786 19.8164 19.8639C20.7825 19.7478 21.6972 19.4319 21.6972 19.4319C21.6972 19.4319 22.3647 19.4377 22.5173 19.7304C22.6699 20.0231 22.7396 20.228 22.7694 20.1989C22.7985 20.1699 22.6699 19.7014 22.6699 19.7014C22.6699 19.7014 22.8565 20.2404 22.9154 20.2404C22.9743 20.2404 22.8515 19.8191 22.8515 19.8191L22.6873 19.509L22.9743 19.8366C22.9743 19.8366 22.9627 20.1003 23.0149 20.1003C23.0671 20.1003 23.0497 19.7843 23.0497 19.7843V19.7835Z" fill="#F9AD15"/>
<path d="M17.4009 22.0788C17.4009 22.0788 21.2894 24.3303 21.2894 24.4986C21.2894 24.6669 18.5909 31.2804 18.5909 31.2804L18.6913 32.4861C18.6913 32.4861 19.3282 33.0177 19.1441 33.0177H18.44C18.44 33.0177 18.2053 32.4505 18.0544 32.2904C17.9035 32.1312 17.5519 31.7406 17.5519 31.7406L18.0544 31.1203L17.8031 31.1029L19.3456 25.1454L17.0991 23.8999L16.3154 22.1849L17.4009 22.0788Z" fill="#003645"/>
<path d="M13.6314 23.5765L13.5742 23.9688L16.096 24.9821L16.3639 31.1535H16.5986L16.3805 32.4804C16.3805 32.4804 16.1773 33.1197 16.2337 33.1786C16.2901 33.2375 17.2189 33.1786 17.2189 33.1786L17.1019 31.1535L17.2189 31.1361C17.2189 31.1361 17.7214 24.4846 17.7214 24.0484C17.7214 23.6122 16.2337 22.1808 16.2337 22.1808L13.6314 23.5773V23.5765Z" fill="#00485C"/>
<path d="M15.4867 13.8326C15.0853 13.8276 13.3513 13.8857 12.9251 15.273C12.4425 16.8445 11.8985 22.4205 13.4898 24.021C13.4898 24.021 16.5672 22.0623 17.9977 22.447C17.9977 22.447 15.9926 20.7039 16.4512 19.1863C16.7696 18.1299 17.0358 15.4596 16.8193 14.6237C16.6634 14.0208 16.1037 13.8409 15.4859 13.8326H15.4867Z" fill="#719FA4"/>
<path opacity="0.42" d="M16.3961 19.4466C16.3671 19.4301 16.3397 19.4118 16.314 19.3919C16.0354 19.1829 12.7108 15.1369 12.8983 16.0732C12.9886 16.5235 13.3063 17.8022 13.842 18.6281C14.1206 19.1506 15.3098 20.6093 15.8612 20.7826C16.105 20.8597 16.3936 20.8581 16.6996 20.8066C16.4799 20.3779 16.3389 19.9069 16.3969 19.4458L16.3961 19.4466Z" fill="#334C4E"/>
<path d="M16.4512 19.1856C16.6593 18.1747 16.9645 15.5948 16.8194 14.6229C17.1187 15.6794 16.836 18.1125 16.4512 19.1856Z" fill="#577C80"/>
<path d="M14.6229 11.9742C14.6229 11.9742 14.491 13.2073 14.5864 14.0167C14.6104 14.2182 14.7257 14.3973 14.8998 14.5018C15.249 14.7116 15.8585 15.0218 16.0865 14.7879L15.7946 12.8582L14.6237 11.9734L14.6229 11.9742Z" fill="#FCB975"/>
<path d="M14.6229 11.9742L15.7939 12.859L15.9415 13.8376C15.4821 13.8973 14.9339 13.2811 14.739 12.4676C14.7059 12.3283 14.6611 12.2023 14.6113 12.087C14.618 12.0149 14.6221 11.9734 14.6221 11.9734L14.6229 11.9742Z" fill="#E69B51"/>
<path d="M16.1706 10.2177C16.188 10.2309 16.2096 10.2566 16.232 10.2931C16.334 10.4606 16.465 10.8554 16.4318 11.3413C16.392 11.9334 16.358 13.1748 15.9243 13.252C15.4906 13.3291 14.8065 12.839 14.6348 12.1407C14.4632 11.4433 14.1016 11.1431 14.2633 10.5552C14.425 9.96723 16.1706 10.2177 16.1706 10.2177Z" fill="#FCB875"/>
<path d="M16.1706 10.2178C16.1706 10.2178 14.425 9.96814 14.2633 10.5553C14.1016 11.1432 14.4632 11.4434 14.6348 12.1408C14.7899 12.0994 15.0353 12.0786 14.8993 11.2344C15.0312 10.7825 15.2933 10.8273 15.3389 10.6291C15.7435 10.717 15.7916 10.9293 15.8182 10.9525C16.0014 11.2535 16.193 11.4981 16.4153 11.6093C16.4211 11.5114 16.4269 11.421 16.4318 11.3422C16.4667 10.8331 16.3033 10.3181 16.1706 10.2178Z" fill="#E69B51"/>
<path d="M14.6354 12.1414C14.6056 12.0698 14.6542 12.2181 14.6354 12.1414V12.1414Z" fill="#FD5E5A"/>
<path d="M14.8732 11.2669C14.8732 11.2669 14.9677 10.9119 15.0904 10.7212C15.214 10.5305 15.1419 10.4003 15.1419 10.4003C15.1419 10.4003 15.7066 10.4044 15.938 10.7793C16.1693 11.1541 16.4637 11.7138 17.0185 11.3423C17.5733 10.9708 17.3187 10.1449 17.1785 10.1697C17.0384 10.1946 16.8866 10.091 16.8866 10.091C16.8866 10.091 16.2473 9.41097 15.9778 9.45906C15.7082 9.50716 15.8957 9.20033 15.4255 9.20614C14.9553 9.21111 14.6708 9.71697 14.6708 9.71697C14.6708 9.71697 14.4295 9.51297 14.1202 9.81482C13.8117 10.1167 14.1393 11.0206 14.3209 11.3266C14.5025 11.6326 14.6062 12.1666 14.6062 12.1666C14.6062 12.1666 15.0357 12.1882 14.8732 11.2677V11.2669Z" fill="#333435"/>
<path d="M14.6012 11.1541C14.622 10.9758 14.8251 10.9194 14.9346 11.0587C15.025 11.174 15.093 11.3249 15.0034 11.4643C14.8235 11.7429 14.5772 11.514 14.5963 11.2113C14.5971 11.1906 14.5996 11.1715 14.6012 11.1541Z" fill="#FCB875"/>
<path d="M15.0204 11.2859C15.003 11.2171 14.896 11.028 14.8065 11.1159C14.7161 11.2038 14.678 11.4667 14.8554 11.4875C15.0329 11.5082 15.0379 11.3515 15.0204 11.2859Z" fill="#E69B51"/>
<path d="M15.9822 12.349L16.2285 12.3059L16.1141 11.6591C16.1116 11.645 16.0992 11.6359 16.0859 11.6383C16.0726 11.6408 16.0643 11.6541 16.0668 11.6674L16.1722 12.2644L15.9731 12.3001C15.9599 12.3026 15.9516 12.3159 15.9541 12.3291C15.9565 12.3432 15.969 12.3523 15.9822 12.3499V12.349Z" fill="#333435"/>
<path d="M15.6815 11.65C15.6948 11.723 15.7504 11.7744 15.8059 11.7645C15.8615 11.7545 15.8963 11.6874 15.883 11.6144C15.8698 11.5414 15.8142 11.49 15.7587 11.5C15.7031 11.5099 15.6683 11.5771 15.6815 11.65Z" fill="#333435"/>
<path d="M16.2101 11.6367C16.2217 11.7039 16.2698 11.752 16.3179 11.7437C16.3652 11.7354 16.3942 11.674 16.3817 11.6069C16.3701 11.5397 16.322 11.4916 16.2748 11.4999C16.2275 11.5082 16.1985 11.5696 16.2101 11.6367Z" fill="#333435"/>
<path d="M15.9011 12.86C15.9509 12.8508 15.9807 12.8359 15.9816 12.8351C15.9924 12.8293 15.9965 12.8152 15.9915 12.8027C15.9857 12.7911 15.9716 12.7862 15.9617 12.7911C15.9534 12.7961 15.751 12.8965 15.528 12.6775C15.5188 12.6684 15.5047 12.6692 15.4965 12.6784C15.4882 12.6883 15.489 12.7032 15.4981 12.7124C15.6573 12.8691 15.8116 12.8749 15.902 12.8591L15.9011 12.86Z" fill="#333435"/>
<path d="M15.9061 11.2744C15.9061 11.2744 15.7684 11.169 15.6283 11.1939C15.4881 11.2188 15.4102 11.4145 15.4102 11.4145C15.4102 11.4145 15.4898 11.2528 15.6158 11.257C15.741 11.2611 15.9218 11.359 15.9218 11.359L15.9069 11.2752L15.9061 11.2744Z" fill="#333435"/>
<path d="M17.6195 19.2493C17.1692 19.2253 16.7256 19.1349 16.4295 18.9127C16.1501 18.7037 15.6185 17.3968 15.6409 17.3835C15.0579 16.0028 14.358 14.2356 13.7825 14.3102C12.9715 14.4155 12.7103 15.1362 12.8977 16.0732C12.9881 16.5235 13.6863 17.5618 14.222 18.3877C14.2253 18.3861 14.2287 18.3844 14.2311 18.3836C14.7743 19.1689 15.4128 19.8622 15.9668 20.0363C16.4129 20.1765 16.9943 20.1599 17.5474 20.0844C17.5291 19.8058 17.5673 19.5271 17.6195 19.2485V19.2493Z" fill="#4A8A91"/>
<path d="M20.6633 20.0198L20.3299 19.5455C20.3299 19.5455 19.7387 19.0885 19.305 19.1118C19.305 19.1118 18.4508 19.2934 17.6207 19.2494C17.5685 19.5281 17.5303 19.8067 17.5486 20.0853C18.4699 19.9593 19.3116 19.669 19.3116 19.669C19.3116 19.669 19.9792 19.6748 20.1317 19.9676C20.2843 20.2603 20.354 20.4651 20.3838 20.4361C20.4129 20.4071 20.2843 19.9385 20.2843 19.9385C20.2843 19.9385 20.4709 20.4776 20.5298 20.4776C20.5887 20.4776 20.4659 20.0563 20.4659 20.0563L20.3017 19.7461L20.5887 20.0737C20.5887 20.0737 20.5771 20.3374 20.6301 20.3374C20.6832 20.3374 20.665 20.0215 20.665 20.0215L20.6633 20.0198Z" fill="#FCB875"/>
<path d="M11.6453 15.9647C11.6279 15.9647 11.6138 15.9506 11.6138 15.9332C11.6138 13.9106 13.2441 13.1311 13.2607 13.1236C13.2765 13.1161 13.2947 13.1236 13.3022 13.1385C13.3096 13.1543 13.3022 13.1725 13.2872 13.18C13.2715 13.1874 11.6768 13.952 11.6768 15.9332C11.6768 15.9506 11.6627 15.9647 11.6453 15.9647Z" fill="#464A7F"/>
<path d="M32.1473 13.1675C32.1473 13.1675 30.4672 15.3866 29.9912 15.8361C30.1537 16.1495 30.7583 16.39 30.8885 16.7209C31.6572 16.4439 32.0586 15.6354 32.1863 15.3427C32.3472 14.972 32.1473 13.1675 32.1473 13.1675Z" fill="#70C3F8"/>
<path d="M32.5571 12.9777C32.5571 12.9777 34.8617 12.9205 35.0449 13.2298C35.2282 13.5391 35.7117 12.7413 35.3178 12.3474C34.9239 11.9535 33.2968 9.62744 33.2968 9.62744L32.5571 12.9777Z" fill="#4D5556"/>
<path d="M33.4765 12.9776C33.4765 12.9776 32.483 13.0738 32.1455 13.1601C32.0916 13.1742 32.1745 14.9994 32.1869 15.3419C32.2251 16.4125 33.1928 18.6183 32.5352 20.3971C32.2964 21.0415 35.7039 20.8773 35.514 20.3838C35.4252 20.1516 35.0836 19.5214 35.0628 18.6921C35.0388 17.7509 35.3448 16.585 35.4211 16.0235C35.5728 14.9165 35.4634 13.4536 35.3871 13.1294C35.3871 13.1294 34.2444 12.9768 33.4773 12.9768L33.4765 12.9776Z" fill="#CEF2FA"/>
<path d="M32.1454 13.16C32.1222 13.1957 32.1471 13.6219 32.1471 13.6144C32.1496 13.6592 32.2731 15.8916 32.2831 15.6611C32.4705 16.9033 33.2019 18.7501 32.5352 20.397C33.0958 18.3239 32.1479 16.6753 32.1247 15.2166C32.1197 14.9803 32.1081 14.622 32.1064 14.0722C32.1081 13.9495 32.1048 13.2106 32.1462 13.1592L32.1454 13.16Z" fill="#E2F7FC"/>
<path d="M36.1917 16.4953C36.5259 16.9912 36.8236 17.5086 36.7183 17.6488C36.5209 17.9108 35.326 18.08 35.117 18.1082L34.9453 18.056C34.8881 18.056 34.1136 17.7806 33.883 17.8594C33.655 17.9382 32.9393 18.8786 33.1135 18.8786C33.2876 18.8786 33.6235 18.4963 33.6235 18.4963C33.6235 18.4963 33.5472 18.7376 33.7213 18.7376C33.7213 18.7376 33.8192 18.9574 33.927 18.9574C34.0348 18.9574 34.252 18.9101 34.252 18.9101C34.252 18.9101 34.7181 18.6746 35.0216 18.6746C35.083 18.6746 37.006 18.9723 37.6894 18.4631C38.0219 18.216 37.8005 17.0642 37.3411 15.9106C36.9314 16.0118 36.5707 16.2639 36.1925 16.4953H36.1917Z" fill="#EFCB9A"/>
<path d="M37.3409 15.9106C36.9312 16.0118 36.5705 16.2639 36.1924 16.4953C36.2678 16.6072 36.3416 16.7208 36.4096 16.8311C36.6999 16.6305 37.1842 16.3087 37.4529 16.2042C37.4172 16.1072 37.3799 16.0093 37.3417 15.9115L37.3409 15.9106Z" fill="#E5B36E"/>
<path d="M35.3864 13.1302C35.3864 13.1302 35.1841 15.249 35.4445 15.4712C35.4445 15.4712 35.7629 16.1147 36.1162 16.6388C36.4952 16.4075 37.1868 16.0907 37.5964 15.9895C37.1113 14.7721 36.0316 13.2869 35.3856 13.1302H35.3864Z" fill="#70C3F8"/>
<path d="M32.5772 20.2213C32.5772 20.2213 31.189 21.4527 31.0406 22.005C30.893 22.5523 30.8465 23.4612 31.5896 23.4612C31.9378 23.4612 32.7033 23.326 33.5126 23.3841C34.429 23.4496 35.3893 23.6975 35.6405 23.4612C36.114 23.0167 36.532 22.3832 36.532 21.7886C36.532 21.194 35.4664 20.2213 35.4664 20.2213H32.5772Z" fill="#403952"/>
<path d="M35.4676 20.2213H32.5784C32.5784 20.2213 32.1173 20.5861 31.7002 21.0091C32.308 20.8059 33.1498 20.679 34.3 20.7735C35.0969 20.8391 35.7305 20.9518 36.2338 21.0845C35.9187 20.6334 35.4676 20.2213 35.4676 20.2213Z" fill="#7F71A4"/>
<path d="M31.2477 31.5251C31.2286 31.9596 31.0412 32.458 31.0412 32.458C31.0263 32.4936 31.256 32.9862 31.4202 32.9771C31.6449 32.9647 31.9559 32.4414 31.9559 32.4414C31.9559 32.4414 31.7884 31.7108 32.0761 30.4727C32.1085 30.3326 32.1516 30.1427 32.2022 29.9138C31.902 29.7745 31.6118 29.6161 31.2966 29.5696C31.2684 30.622 31.2527 31.3974 31.2477 31.5259V31.5251Z" fill="#FC7575"/>
<path d="M33.0884 21.6584C33.0884 21.6584 32.1613 21.4436 31.779 22.3243C31.5095 22.9454 31.0866 27.1424 31.0186 29.6609C31.3328 29.7073 31.9308 29.7977 32.231 29.937C32.6273 28.1416 33.469 23.9538 33.503 23.1834C33.5412 22.3152 33.4815 21.6733 33.0884 21.6576V21.6584Z" fill="#392886"/>
<path d="M31.9567 32.4414C31.9567 32.4414 31.9235 33.109 31.4185 33.128C31.0627 33.1413 30.9964 32.6214 31.0412 32.4588C31.0412 32.4588 31.4599 33.0542 31.9558 32.4414H31.9567Z" fill="#8B2D5F"/>
<path d="M33.2751 31.7574C33.1574 32.1778 33.1806 32.7061 33.1806 32.7061C33.1839 32.7442 32.8091 33.1514 32.6557 33.0975C32.445 33.0237 32.3115 32.4374 32.3115 32.4374C32.3115 32.4374 32.6996 31.7847 32.8124 30.5218C32.8248 30.3791 32.8439 30.1851 32.8671 29.9529C33.198 29.9023 33.5247 29.8318 33.8399 29.8741C33.538 30.8883 33.3091 31.6338 33.2751 31.7574Z" fill="#FC7575"/>
<path d="M34.6061 21.8184C34.6061 21.8184 35.5598 21.869 35.6485 22.816C35.7116 23.4844 34.8027 27.6125 34.0787 30.0389C33.7636 29.9966 33.1815 29.9021 32.8506 29.9527C33.033 28.1275 33.5223 23.9073 33.7313 23.1618C33.9668 22.3209 34.2247 21.7238 34.6053 21.8184H34.6061Z" fill="#392886"/>
<path d="M32.3126 32.4365C32.3126 32.4365 32.1351 33.0841 32.6119 33.2409C32.9478 33.3511 33.1734 32.8735 33.1817 32.7051C33.1817 32.7051 32.5954 33.1588 32.3126 32.4365Z" fill="#8B2D5F"/>
<path d="M32.3915 10.4168C32.3915 10.4168 32.5366 12.038 32.0905 12.4833C31.6443 12.9295 31.5813 12.9171 31.4263 12.8748C31.4263 12.8748 31.5291 13.1493 31.8127 13.1675C31.8318 13.1683 31.8517 13.1692 31.8724 13.1675C32.2025 13.1476 31.8467 13.4163 31.6751 13.476C31.5034 13.5365 32.0184 13.6045 32.3799 13.5191C32.7407 13.4329 33.9597 13.4138 33.8403 12.1044C33.7208 10.795 32.3915 10.4168 32.3915 10.4168Z" fill="#002B32"/>
<path d="M33.3517 12.1608L33.2231 13.6385C33.2231 13.6385 33.7613 13.9047 34.4297 13.5929L34.1627 11.1689L33.3517 12.1599V12.1608Z" fill="#EFCB9A"/>
<path d="M33.3515 12.1608L33.2959 12.796C33.3564 12.7935 33.4186 12.777 33.4817 12.743C33.9958 12.466 34.0713 11.7039 34.0804 11.2693L33.3515 12.1608Z" fill="#E5B36E"/>
<path d="M32.4242 9.61575C32.4242 9.61575 32.1878 9.80067 32.1356 10.1357C32.0825 10.4707 32.3064 10.8456 32.3064 11.1275C32.3064 11.4095 32.8297 12.7529 33.4823 12.4353C34.1341 12.1177 34.0819 11.096 34.0819 10.8671C34.0819 10.6382 33.7651 9.84462 33.377 9.6597C32.9889 9.47477 32.4258 9.61575 32.4258 9.61575H32.4242Z" fill="#EFCB9A"/>
<path d="M32.391 11.3165C32.4117 11.3654 32.4556 11.3928 32.4888 11.377C32.522 11.3621 32.5328 11.3098 32.512 11.2609C32.4913 11.212 32.4473 11.1846 32.4142 11.2004C32.381 11.2153 32.3702 11.2676 32.391 11.3165Z" fill="#353535"/>
<path d="M32.6555 11.295C32.3702 11.023 32.2856 11.2743 32.2002 11.3066C32.2715 11.2992 32.3445 11.1947 32.4241 11.2046C32.4888 11.2121 32.5891 11.2643 32.6563 11.295H32.6555Z" fill="#353535"/>
<path d="M32.6108 11.1699C32.6788 11.3258 32.7452 11.5206 32.7925 11.6857C32.8538 11.6857 32.9243 11.6691 32.9791 11.6293C32.9044 11.7147 32.7784 11.7122 32.7717 11.7139C32.7278 11.5803 32.6614 11.4045 32.6108 11.1699Z" fill="#353535"/>
<path d="M32.7373 10.936C32.7373 10.936 32.7622 10.7776 32.8592 10.6623C32.9554 10.547 33.2233 10.5305 33.2233 10.5305C33.2233 10.5305 32.9712 10.5918 32.909 10.6714C32.8476 10.751 32.8219 10.8655 32.8219 10.8655L32.7373 10.936Z" fill="#353535"/>
<path d="M32.5916 11.0463C32.5916 11.0463 32.4888 10.9501 32.3793 10.9335C32.2698 10.9169 32.1587 11.0645 32.1587 11.0645C32.1587 11.0645 32.2889 10.9584 32.3619 10.9733C32.4357 10.9882 32.5128 11.0529 32.5128 11.0529L32.5907 11.0454L32.5916 11.0463Z" fill="#353535"/>
<path d="M33.3784 11.82C33.181 11.9029 33.0906 11.9875 32.8311 11.9759C33.0309 12.0464 33.2648 11.966 33.3784 11.82Z" fill="white"/>
<path d="M32.9987 11.0263C33.0169 11.0902 33.0691 11.1316 33.1139 11.1184C33.1587 11.1051 33.1803 11.0429 33.1612 10.9791C33.1429 10.9152 33.0907 10.8746 33.0459 10.887C33.0011 10.9003 32.9796 10.9625 32.9987 11.0263Z" fill="#353535"/>
<path d="M33.3828 10.9551C32.9872 10.7395 32.9383 11.0015 32.8438 11.048C32.9267 11.0281 32.9922 10.912 33.0884 10.9078C33.1672 10.9037 33.2965 10.9369 33.3828 10.9551Z" fill="#353535"/>
<path d="M33.2283 11.2551C33.254 11.343 33.3684 11.3861 33.4845 11.3521C33.6006 11.3181 33.6736 11.2195 33.6479 11.1324C33.6222 11.0445 33.5078 11.0014 33.3917 11.0354C33.2756 11.0694 33.2026 11.168 33.2283 11.2551Z" fill="#FAE4C5"/>
<g style="mix-blend-mode:multiply" opacity="0.53">
<path d="M32.4242 9.61575C32.4242 9.61575 32.1878 9.80067 32.1356 10.1357C32.0825 10.4707 32.3064 10.8456 32.3064 11.1275C32.3064 11.1433 32.3114 11.1856 32.3114 11.1856C32.5361 11.2577 32.8629 10.0088 32.867 9.56433C32.624 9.56599 32.425 9.61575 32.425 9.61575H32.4242Z" fill="#E5B36E"/>
</g>
<path d="M32.2982 9.78315C32.2932 9.76491 32.5047 9.19354 33.0246 9.10895C33.6466 9.00695 34.3813 9.47052 34.606 10.0983C34.8308 10.726 35.0331 11.4417 35.6476 11.6208C36.2621 11.7991 36.3749 12.7047 36.1825 13.2727C35.9909 13.8408 35.403 13.6956 35.403 13.6956C35.403 13.6956 35.7629 13.3814 35.6675 13.286C35.6675 13.286 35.393 13.8184 35.082 13.7122C34.7711 13.6061 34.6458 13.4336 34.6458 13.4336C34.6458 13.4336 35.1815 13.3515 34.8291 13.0538C34.5836 12.8465 34.4593 12.6574 34.1682 12.3074C33.8904 11.9724 34.0355 11.0752 33.7942 10.4316C33.7635 10.4573 33.7171 10.4806 33.6408 10.4889C33.3116 10.5229 33.4617 10.2832 33.1482 9.92496C32.6117 9.62227 32.3339 9.78564 32.2974 9.78481L32.2982 9.78315Z" fill="#002B32"/>
<path d="M32.3804 9.64893C31.858 9.78078 31.6532 10.2916 31.9136 10.6847C31.9583 10.751 32.018 10.8141 32.0968 10.8199V10.7071C32.0678 10.7121 32.0114 10.6507 31.994 10.6275C31.7336 10.2949 31.8945 9.81146 32.3804 9.64893Z" fill="#4D5556"/>
<path d="M32.7644 9.29242C32.7644 9.29242 32.3978 9.29408 32.1275 9.56442C31.8571 9.83476 31.9384 10.9012 32.1275 11.0588C32.3166 11.2172 31.6457 11.3664 32.0479 11.3664C32.4501 11.3664 33.1243 9.32974 32.7644 9.29242Z" fill="#002B32"/>
<path d="M34.457 10.4957C34.3724 10.7386 34.3127 11.0563 34.3235 11.3042C34.3633 12.097 35.205 11.6832 35.4381 11.6998C35.5815 11.7056 35.7043 11.8383 35.652 12.0165C35.6097 12.1642 35.5144 12.2081 35.4646 12.267C35.3891 12.3582 35.4289 12.4644 35.516 12.5075C35.6893 12.5945 35.9033 12.398 35.9729 12.6327C36.0252 12.7961 35.9746 12.9918 35.8452 13.1186C35.9928 13.01 36.0667 12.8068 36.026 12.6186C35.9837 12.4254 35.8494 12.4345 35.6653 12.4478C35.5508 12.4552 35.5094 12.4005 35.5185 12.3648C35.526 12.296 35.6844 12.2695 35.7532 12.0472C35.8079 11.888 35.7457 11.7155 35.5981 11.6318C35.2125 11.4087 34.3534 12.2106 34.3899 11.0322C34.394 10.8523 34.4214 10.674 34.457 10.4957Z" fill="#4D5556"/>
<path d="M33.738 10.6616C33.738 10.6616 33.7247 10.3564 33.8839 10.3821C34.0432 10.4078 34.1543 10.6159 34.0772 10.8191C34 11.0223 33.7164 10.9319 33.738 10.6616Z" fill="#EFCB9A"/>
<path d="M33.801 10.7087C33.801 10.7087 33.7794 10.5221 33.8491 10.5047C33.9188 10.4873 33.9917 10.6333 33.9768 10.7303C33.9619 10.8273 33.8118 10.8207 33.801 10.7087Z" fill="#FAE4C5"/>
<path d="M37.5196 18.1464C37.5196 18.1464 37.2103 18.4516 37.382 18.4989C37.5536 18.5461 37.7178 18.4259 37.7178 18.3231C37.7178 18.2202 37.6954 18.0743 37.5188 18.1472L37.5196 18.1464Z" fill="#E5B36E"/>
<path d="M37.4519 12.3101C37.4328 12.3101 37.4171 12.2944 37.4171 12.2761C37.4171 10.5571 35.6607 10.1333 35.6433 10.1292C35.625 10.125 35.6134 10.1068 35.6175 10.0877C35.6217 10.0695 35.6399 10.0579 35.659 10.062C35.6772 10.0661 37.4859 10.5023 37.4859 12.2761C37.4859 12.2952 37.4701 12.3101 37.4511 12.3101H37.4519Z" fill="#464A7F"/>
<path d="M37.1017 13.0116C37.1017 13.0116 37.0975 13.0116 37.095 13.0116C37.0768 13.0083 37.0643 12.99 37.0676 12.971C37.362 11.4625 36.2707 11.1872 36.2599 11.1847C36.2417 11.1806 36.2301 11.1615 36.2342 11.1432C36.2384 11.125 36.2566 11.1134 36.2757 11.1175C36.2873 11.12 37.4416 11.4119 37.1356 12.9842C37.1323 13.0008 37.1182 13.0116 37.1017 13.0116Z" fill="#464A7F"/>
<path d="M26.8767 21.2106H26.3584V33.0177H26.8767V21.2106Z" fill="#635258"/>
<path d="M18.0007 21.2106H17.4824V33.2151H18.0007V21.2106Z" fill="#635258"/>
<path d="M53.6199 21.1219H53.1016V32.9963H53.6199V21.1219Z" fill="#846D75"/>
<path d="M55.2077 21.2106H54.6895V33.5907H55.2077V21.2106Z" fill="#846D75"/>
<path d="M24.5662 20.6432H19.3501V20.8904H24.5662V20.6432Z" fill="#603E6B"/>
<path d="M56.0533 20.8904H13.3062V21.5315H56.0533V20.8904Z" fill="#1C0F00"/>
<path d="M24.6964 15.0964H19.0342V19.9119H24.6964V15.0964Z" fill="#464A7F"/>
<path d="M23.9734 16.2532H20.3926V19.0221H23.9734V16.2532Z" fill="#3C405E"/>
<path d="M23.4269 16.7906H21.8662V18.3513H23.4269V16.7906Z" fill="#242744"/>
<path d="M23.07 17.9948H22.5127V20.7595H23.07V17.9948Z" fill="#242744"/>
<path d="M23.5153 20.558H19.9038V20.8905H23.5153V20.558Z" fill="#242744"/>
<path d="M21.8658 16.7906V18.3513H22.5127V20.558H22.4472V18.3903H21.7979V16.7906H21.8658Z" fill="#595E7A"/>
<path d="M29.0052 19.9111H34.6675V15.0955H29.0052V19.9111Z" fill="#464A7F"/>
<path d="M29.7288 19.0231H33.3096V16.2541H29.7288V19.0231Z" fill="#3C405E"/>
<path d="M30.2757 18.3513H31.8364V16.7906H30.2757V18.3513Z" fill="#242744"/>
<path d="M30.6337 20.7587H31.1909V17.9939H30.6337V20.7587Z" fill="#242744"/>
<path d="M30.1864 20.8904H33.7979V20.5579H30.1864V20.8904Z" fill="#242744"/>
<path d="M31.8369 16.7906V18.3513H31.1909V20.558H31.2564V18.3903H31.9057V16.7906H31.8369Z" fill="#595E7A"/>
<path d="M42.1841 19.9111H47.8472V15.0955H42.1841V19.9111Z" fill="#464A7F"/>
<path d="M42.9085 19.0231H46.4893V16.2541H42.9085V19.0231Z" fill="#3C405E"/>
<path d="M43.4554 18.3513H45.0161V16.7906H43.4554V18.3513Z" fill="#242744"/>
<path d="M43.3666 20.8904H46.978V20.5579H43.3666V20.8904Z" fill="#242744"/>
<path d="M45.0155 16.7906V18.3513H44.3687V20.558H44.4342V18.3903H45.0835V16.7906H45.0155Z" fill="#595E7A"/>
<path d="M24.6964 15.0964H19.0342V19.9119L19.2548 15.2747L24.6964 15.0964Z" fill="#595E7A"/>
<path d="M44.3689 18.3513H43.7627V20.6376H44.3689V18.3513Z" fill="#242744"/>
<path d="M39.9789 19.6027L40.0941 19.645L40.3296 19.0039C40.2882 18.9865 40.255 18.9625 40.2235 18.9351L39.978 19.6027H39.9789Z" fill="#FD5E5A"/>
<path d="M40.0563 18.1895H39.7793V19.5702H40.0563V18.1895Z" fill="#8DFDB0"/>
<path d="M40.0563 18.1895H39.7793V18.9093H40.0563V18.1895Z" fill="#13447A"/>
<path d="M39.8454 19.5778L39.6646 19.6118L39.3901 18.1166V17.7277L39.5718 18.0835L39.8454 19.5778Z" fill="#BE1E2D"/>
<path d="M40.3734 19.3945H39.5449V20.8905H40.3734V19.3945Z" fill="#20C9AC"/>
<path d="M39.9715 18.4691H39.8994V19.2469H39.9715V18.4691Z" fill="#13447A"/>
<path d="M40.4318 18.3702L40.4178 18.4084C40.1739 18.3056 40.2983 18.7351 40.2577 18.7583C40.2353 18.7824 40.2303 18.7683 40.2361 18.7758C40.2113 18.7484 40.1698 18.7857 40.1947 18.8131C40.2113 18.8305 40.2361 18.8379 40.2643 18.8263L40.2245 18.935C40.2552 18.9623 40.2892 18.9864 40.3307 19.0038L40.548 18.4125L40.4327 18.3702H40.4318ZM40.3846 18.4192C40.3953 18.4183 40.4053 18.4192 40.4136 18.42L40.3298 18.648C40.3232 18.5427 40.3008 18.4275 40.3837 18.4192H40.3846Z" fill="#5B1432"/>
<path d="M24.576 19.5811L24.6913 19.6234L24.9268 18.9823C24.8862 18.9649 24.8522 18.9409 24.8207 18.9135L24.5752 19.5811H24.576Z" fill="#FD5E5A"/>
<path d="M24.6529 18.1689H24.376V19.5497H24.6529V18.1689Z" fill="#8DFDB0"/>
<path d="M24.6529 18.1689H24.376V18.8888H24.6529V18.1689Z" fill="#13447A"/>
<path d="M24.4426 19.557L24.2618 19.5902L23.9873 18.0958V17.7061L24.1689 18.0626L24.4426 19.557Z" fill="#BE1E2D"/>
<path d="M24.971 19.3738H24.1426V20.8905H24.971V19.3738Z" fill="#20C9AC"/>
<path d="M24.5682 18.4484H24.4961V19.2262H24.5682V18.4484Z" fill="#13447A"/>
<path d="M25.029 18.3497L25.0149 18.3878C24.7711 18.285 24.8955 18.7145 24.8549 18.7378C24.8325 18.7618 24.8275 18.7477 24.8333 18.7552C24.8084 18.7278 24.767 18.7651 24.7919 18.7925C24.8084 18.8099 24.8333 18.8174 24.8615 18.8058L24.8217 18.9144C24.8524 18.9418 24.8864 18.9658 24.9278 18.9832L25.1451 18.392L25.0298 18.3497H25.029ZM24.9817 18.3986C24.9925 18.3978 25.0025 18.3986 25.0116 18.3994L24.9278 18.6275C24.9212 18.5222 24.8988 18.4069 24.9817 18.3986Z" fill="#5B1432"/>
<defs>
<linearGradient id="paint0_linear_6413_73690" x1="4.97476" y1="31.8195" x2="11.1735" y2="31.8195" gradientUnits="userSpaceOnUse">
<stop stop-color="#F20000"/>
<stop offset="1" stop-color="#FFA630"/>
</linearGradient>
</defs>
</svg>
