<svg width="28" height="28" viewBox="0 0 28 28" fill="none" xmlns="http://www.w3.org/2000/svg">
<path d="M12.7665 28C19.8173 28 25.5331 22.2843 25.5331 15.2335C25.5331 8.18275 19.8173 2.46698 12.7665 2.46698C5.71577 2.46698 0 8.18275 0 15.2335C0 22.2843 5.71577 28 12.7665 28Z" fill="#EF5454"/>
<path d="M12.7668 25.7318C18.5649 25.7318 23.2651 21.0316 23.2651 15.2335C23.2651 9.43547 18.5649 4.73523 12.7668 4.73523C6.9688 4.73523 2.26855 9.43547 2.26855 15.2335C2.26855 21.0316 6.9688 25.7318 12.7668 25.7318Z" fill="white"/>
<path d="M12.7667 23.4636C17.312 23.4636 20.9967 19.7788 20.9967 15.2335C20.9967 10.6882 17.312 7.00348 12.7667 7.00348C8.22133 7.00348 4.53662 10.6882 4.53662 15.2335C4.53662 19.7788 8.22133 23.4636 12.7667 23.4636Z" fill="#EF5454"/>
<path d="M12.7665 21.1953C16.0591 21.1953 18.7283 18.5261 18.7283 15.2335C18.7283 11.9409 16.0591 9.27173 12.7665 9.27173C9.47387 9.27173 6.80469 11.9409 6.80469 15.2335C6.80469 18.5261 9.47387 21.1953 12.7665 21.1953Z" fill="white"/>
<path d="M12.7666 18.9269C14.8064 18.9269 16.46 17.2733 16.46 15.2335C16.46 13.1937 14.8064 11.5401 12.7666 11.5401C10.7268 11.5401 9.07324 13.1937 9.07324 15.2335C9.07324 17.2733 10.7268 18.9269 12.7666 18.9269Z" fill="#EF5454"/>
<path d="M12.7664 16.6586C13.5535 16.6586 14.1916 16.0206 14.1916 15.2335C14.1916 14.4464 13.5535 13.8083 12.7664 13.8083C11.9794 13.8083 11.3413 14.4464 11.3413 15.2335C11.3413 16.0206 11.9794 16.6586 12.7664 16.6586Z" fill="white"/>
<path d="M14.9726 13.5201C14.9726 13.5201 12.967 15.4345 12.7662 15.2335C12.5654 15.0327 14.4797 13.0272 14.4797 13.0272L14.9726 13.5201Z" fill="#FFC34A"/>
<path d="M27.4993 7.13181C26.0811 8.43521 23.6461 9.65123 21.0742 7.07921L20.9205 6.92552C18.3487 4.35366 19.5645 1.91849 20.8679 0.50044C21.5051 -0.192759 22.6088 -0.161579 23.2042 0.567681C23.7297 1.21143 24.015 1.71787 24.1232 2.12289C24.2467 2.5846 24.3002 3.32693 23.9506 4.04895C24.6728 3.69936 25.415 3.7529 25.8767 3.87636C26.2819 3.9847 26.7883 4.26988 27.4319 4.79537C28.1613 5.39094 28.1925 6.49467 27.4991 7.13165L27.4993 7.13181Z" fill="#FFC34A"/>
<path d="M17.0104 13.278L23.0347 5.92053C23.5357 5.27678 22.7258 4.46358 22.0795 4.96529L14.722 10.9896C13.9328 11.6233 13.9296 12.8724 14.722 13.506C15.417 14.075 16.4415 13.9729 17.0104 13.278Z" fill="#1C1F23"/>
</svg>
