<svg width="30" height="30" viewBox="0 0 30 24" fill="none" xmlns="http://www.w3.org/2000/svg">
<path d="M23.6795 23.5642C23.6795 23.5642 23.5926 23.5642 23.5443 23.5642C23.5636 22.408 23.322 21.0756 23.4959 19.9304L23.6795 23.5642Z" fill="#FEFDFE"/>
<path d="M21.4366 13.4117C21.2722 13.6429 21.0787 13.8191 20.895 14.0283C20.866 14.0614 20.6532 14.1935 20.5758 14.2816L20.4888 14.2266C20.8756 13.8632 21.4076 13.2686 21.7461 12.8391C21.7171 13.0373 21.485 13.1695 21.3882 13.3236C21.3882 13.3236 21.4463 13.3787 21.4366 13.4007V13.4117Z" fill="#E1DEC9"/>
<path d="M10.1397 15.8782C10.5653 16.8582 10.6523 18.2016 10.8168 19.2807C10.8458 19.4459 10.9812 19.7542 11.0005 19.8974C11.0199 20.0736 10.8361 19.9965 10.8651 20.2057C11.0005 21.2958 11.368 22.408 11.2713 23.5642C10.6814 23.5642 10.072 23.6193 9.4724 23.6193C9.57879 22.0997 9.27734 20.2498 8.27148 19.1706C8.64868 19.0165 8.83244 19.3578 8.85178 18.6861C9.0162 18.7522 10.3815 19.2037 10.4589 19.1706C10.662 19.0935 10.3138 18.3338 10.2752 18.1245C10.0527 16.9243 9.9362 16.2639 9.43327 15.1297C9.71375 14.9535 10.0186 15.5587 10.1103 15.8454L10.1397 15.8782Z" fill="#F9B796"/>
<path d="M8.58387 23.5838C8.20668 23.5838 7.80889 23.6083 7.44137 23.6083L7.17056 21.9125C7.19957 21.2628 7.19957 20.4039 7.1222 19.7653C7.29629 19.2587 7.26728 18.51 7.03516 18.0255C7.06417 17.9484 7.14279 17.9019 7.21049 17.946C8.66124 18.948 8.85468 21.866 8.58387 23.5838Z" fill="#EB8D6C"/>
<path d="M7.12206 19.7653C7.19944 20.415 7.19943 21.2629 7.17042 21.9126C7.14141 22.4521 7.03502 23.0137 6.98666 23.5533C6.82224 23.5533 6.65782 23.5533 6.4934 23.5533C6.61914 22.331 6.91896 20.1507 6.30964 19.0936C5.79704 18.1907 4.72349 17.8934 4.1045 17.0675C3.54355 16.3187 3.21471 15.0634 2.79883 14.1715C3.3888 14.5239 3.64993 15.5479 4.01746 16.1426C4.33662 16.6601 4.79119 17.1997 5.25543 17.552C6.28063 18.3338 6.92863 18.0255 7.12206 19.7543V19.7653Z" fill="#AD4D34"/>
<path d="M8.88236 18.6861C8.86302 19.3578 8.66959 19.0165 8.30206 19.1706C9.30792 20.2608 9.57872 22.0777 9.47234 23.5972C9.17251 23.5972 8.87269 23.5972 8.57287 23.5972C8.84368 21.8905 8.65024 18.9614 7.19949 17.9594C7.13179 17.9153 7.07376 17.9373 7.04475 18.0144C6.71591 17.3427 5.99054 17.2216 5.48761 16.7811C5.30385 16.616 4.81059 16.0984 4.92665 15.8121C5.22648 16.2416 8.39878 18.4879 8.88236 18.6861Z" fill="#EB8D6C"/>
<path d="M9.68528 14.7C9.76266 14.7771 9.89806 14.8651 10.0044 14.9532C10.8459 16.3737 11.6776 17.8272 12.0258 19.512C12.1999 20.3489 12.2386 21.2188 12.345 22.0777C12.345 22.5732 12.345 23.0687 12.345 23.5642C12.1516 23.5642 11.9334 23.5642 11.74 23.5642C11.9334 20.6241 11.5852 18.3227 10.2118 15.8231C10.0184 15.4818 9.83036 15.0634 9.60791 14.744L9.69496 14.689L9.68528 14.7Z" fill="#F9B796"/>
<path d="M6.49385 23.5642C6.36812 23.5642 6.36812 23.5091 6.35845 23.5091C6.38746 22.1547 6.76466 20.6682 6.35845 19.3578C6.33911 19.2917 6.21337 19.1376 6.31009 19.1046C6.90973 20.1617 6.60991 22.3419 6.49385 23.5642Z" fill="#FEFDFE"/>
<path d="M7.44139 23.6082C7.27697 23.6082 7.13189 23.5642 6.98682 23.5532C7.0255 23.0136 7.14156 22.452 7.17058 21.9125L7.44139 23.6082Z" fill="#DB7458"/>
<path d="M0.370885 9.49493C0.467602 9.49493 1.71953 9.67112 1.78723 9.70415C2.04836 9.81427 3.22831 11.2754 3.38305 11.5837C3.28634 11.7269 3.08862 11.9141 3.25304 12.0462C3.18534 12.1674 3.06928 12.0793 3.18534 12.2554C4.75215 14.7 8.6595 14.9973 9.8201 17.563C10.0619 18.1025 10.1973 18.6421 10.4488 19.1817C10.3714 19.2147 9.03669 18.7852 8.87228 18.7192C8.37902 18.521 5.21639 16.2746 4.91657 15.8452C4.81985 15.702 4.76182 15.5919 4.69412 15.4378C4.49101 15.0193 4.47167 14.667 4.15251 14.1824C3.8817 13.764 2.24719 12.1343 2.21817 11.9802C2.21817 11.9471 2.30522 11.5837 2.30522 11.3855C2.32456 10.6698 2.38483 10.6035 1.8142 10.13C1.96894 10.5264 2.47656 11.0691 2.02344 11.4288C2.10599 10.8121 1.43477 10.2844 0.9802 9.9981C0.893155 9.94304 0.854469 9.76685 0.796439 9.74483C0.651364 9.68977 0.341871 9.8109 0.148438 9.64573C0.235482 9.54663 0.254825 9.54663 0.370885 9.54663V9.49493Z" fill="#FDCDAC"/>
<path d="M3.93021 14.6449C4.04627 14.766 4.00758 14.8101 4.15265 14.744L4.69427 15.4047C4.77164 15.5588 4.82 15.68 4.91671 15.8121C4.80065 16.0984 5.29391 16.6159 5.47767 16.7811C5.97093 17.2106 6.6963 17.3317 7.03481 18.0144C7.26693 18.4989 7.29594 19.2477 7.12185 19.7542C6.92842 18.0254 6.28042 18.3337 5.25522 17.5519C4.79098 17.1996 4.33642 16.66 4.01725 16.1425C3.64973 15.5478 3.38859 14.5238 2.79862 14.1714C2.73092 14.0172 2.64387 13.8631 2.57617 13.7089C3.06943 13.775 3.44662 14.4357 3.93021 14.6339V14.6449Z" fill="#EB8D6C"/>
<path d="M0.555269 10.2403C0.700344 10.4055 1.71587 11.4846 1.79324 11.5176C1.88029 11.5507 1.93832 11.4956 1.99635 11.4626C2.05438 11.4296 2.03503 11.4185 2.04471 11.4075C2.43157 11.0111 1.94531 10.5239 1.82422 10.1345C2.38518 10.608 2.31827 10.6918 2.30859 11.4075L1.9093 11.6938C2.29617 11.9471 2.04471 11.9303 2.04471 12.0074C2.04471 12.1285 2.08339 12.1233 2.08339 12.1343C2.16077 12.8941 3.37939 14.0723 3.93068 14.6449C3.4471 14.4467 3.0699 13.786 2.57665 13.7199C2.10273 12.7289 1.6385 11.848 1.00017 10.9781C0.768046 10.6588 0.0039843 10.1082 0.100701 9.72278C0.284463 9.85492 0.400523 10.0641 0.555269 10.2403Z" fill="#BD5B3B"/>
<path d="M0.506591 9.41452C0.612979 9.45856 1.0482 9.41452 1.20295 9.46958C2.01537 9.72284 2.34254 9.98711 2.96152 10.5927C3.6869 11.3085 3.94803 11.9031 4.94421 12.3326L4.91687 12.3876L4.69442 12.4867C4.53967 12.4206 4.20117 12.3436 4.17215 12.3326C3.882 12.1674 3.70791 11.837 3.38875 11.771C3.38875 11.7159 3.44678 11.7049 3.4371 11.6388C3.4371 11.5948 3.35006 11.5728 3.35006 11.5618C3.19531 11.2534 2.01537 9.83295 1.75424 9.71183C1.68653 9.67879 0.477576 9.50261 0.380859 9.50261L0.429218 9.34845H0.477575C0.477575 9.34845 0.458232 9.37047 0.525934 9.40351L0.506591 9.41452Z" fill="#FEF1E1"/>
<path d="M2.03434 11.4186C2.03434 11.4186 2.05368 11.4406 1.98598 11.4736C1.57977 11.0112 1.10586 10.4165 0.544901 10.2404C0.390154 10.0752 0.274094 9.86597 0.090332 9.72282C0.109675 9.65675 0.0903322 9.67878 0.138691 9.62372C0.332124 9.78889 0.651289 9.66776 0.786692 9.72282C0.83505 9.74484 0.883408 9.92103 0.970453 9.97608C1.42502 10.2624 2.2181 10.7249 2.02466 11.4076L2.03434 11.4186Z" fill="#F9B796"/>
<path d="M1.99637 7.01398C1.92866 7.10208 1.77392 7.2232 1.77392 7.24523C1.7449 7.34433 1.83195 9.29336 1.86096 9.44752C1.90932 9.68977 2.74108 10.2624 2.94419 10.4936C2.94419 10.5156 2.94419 10.5597 2.94419 10.5927C2.3252 9.97607 2.02538 9.7228 1.21296 9.46954C1.05821 9.42549 0.62299 9.46954 0.516602 9.41448C0.516602 9.35943 0.545616 9.37044 0.564959 9.35943C0.593974 9.3374 0.622989 9.31538 0.652004 9.30437C1.10657 9.17223 1.38705 9.3374 1.82228 9.43651C1.71589 8.59963 1.73523 7.74074 1.68687 6.90387L2.00604 7.00297L1.99637 7.01398Z" fill="#DB7458"/>
<path d="M12.3439 22.0777C12.2377 21.2188 12.1991 20.3599 12.0254 19.512C12.3439 20.2828 12.3246 21.2408 12.3439 22.0777Z" fill="#FEFDFE"/>
<path d="M9.59741 14.7441C9.81986 15.0634 10.0326 15.4709 10.2261 15.8232L10.139 15.8783C10.0133 15.592 9.74248 14.9864 9.46201 15.1625C9.28792 14.7771 9.04612 14.4358 8.96875 14.0394C9.1912 14.2596 9.41365 14.5018 9.59741 14.7551V14.7441Z" fill="#F9B796"/>
<path d="M10.2271 15.8232C11.6005 18.3118 11.9583 20.6132 11.7552 23.5642C11.5908 23.5642 11.4264 23.5642 11.262 23.5642C11.3587 22.408 10.9911 21.2959 10.8557 20.2057C10.8267 19.9965 11.0105 20.0736 10.9912 19.8974C10.9718 19.7543 10.8364 19.457 10.8074 19.2808C10.6526 18.2017 10.5559 16.8583 10.1304 15.8782L10.2174 15.8232H10.2271Z" fill="#EB8D6C"/>
<path d="M10.8364 18.2787C11.0299 18.9615 11.1749 19.6662 11.291 20.3819C11.0685 19.7212 10.8848 18.9945 10.8364 18.2787Z" fill="#AD4D34"/>
<path d="M4.69462 15.4157L4.15301 14.755C3.53402 13.808 2.857 12.9271 2.08327 12.1453C2.08327 12.1453 1.99622 12.1453 1.99622 12.0132C1.99622 11.9471 2.29605 11.9581 1.90918 11.7049L2.31539 11.3745C2.31539 11.5727 2.21867 11.9361 2.22834 11.9691C2.25736 12.1233 3.89187 13.753 4.16268 14.1714C4.48184 14.6559 4.50119 15.0083 4.70429 15.4267L4.69462 15.4157Z" fill="#F9B796"/>
<path d="M3.38851 11.771C3.36919 11.9032 3.31122 11.9474 3.25324 12.0465C3.08899 11.9144 3.25324 11.7272 3.3402 11.5841C3.3402 11.5841 3.42969 11.5772 3.43935 11.6212C3.44901 11.6873 3.38851 11.716 3.37885 11.771H3.38851Z" fill="#F0A278"/>
<path d="M4.15323 14.7441C4.00816 14.7991 4.04684 14.7661 3.93078 14.6449C3.3795 14.0724 2.16087 12.8941 2.0835 12.1343C2.85723 12.9162 3.53425 13.8081 4.15323 14.7441Z" fill="#EB8D6C"/>
<path d="M1.99577 11.4627C1.93774 11.4847 1.87971 11.5508 1.79266 11.5177C1.71529 11.4847 0.699762 10.3946 0.554688 10.2404C1.11564 10.4166 1.58956 11.0112 1.99577 11.4737V11.4627Z" fill="#FEF1E1"/>
<path d="M2.30601 4.44836C2.44141 4.64656 2.45108 4.84477 2.48977 5.065C2.58649 5.63759 2.53813 6.55154 3.03138 6.80481C2.93467 6.83784 2.72189 6.8929 2.71222 7.03605C3.05073 7.83988 2.85729 9.51363 3.11843 10.2624C3.2635 10.6919 3.97921 10.9671 4.3564 11.0002C4.44345 10.9231 4.16278 10.0752 4.13377 9.92105C3.93066 8.93002 3.77591 7.95 3.64051 6.94796C3.64051 6.90391 3.7084 6.71672 3.7084 6.63964C3.7084 6.30929 3.68906 5.59355 3.62135 5.30725C3.87282 5.34028 3.90183 5.27421 4.11461 5.40635C4.07592 5.40635 4.07592 5.41736 4.06625 5.46141C4.02756 5.97895 3.95986 6.67267 3.97921 7.1792C3.97921 7.55359 4.31771 10.1963 4.43377 10.4056C4.53049 10.5928 5.26554 11.0002 5.48799 11.0442C5.60405 11.0112 5.36225 9.81094 5.33324 9.61273C5.24619 9.02912 5.13981 8.44551 5.01407 7.87292C5.10112 7.6637 5.18817 8.19225 5.19784 8.20326C5.39127 9.20531 5.48799 10.2404 5.73945 11.2314L6.41647 11.5618C6.46483 11.76 6.55187 11.9582 6.55187 12.1784C5.69109 11.3636 4.8013 11.0112 3.66971 11.2314L6.19402 12.6959C5.77814 12.5968 5.32357 12.5087 4.9367 12.3326C3.94052 11.9031 3.67939 11.2975 2.95401 10.5927C2.95401 10.5597 2.95401 10.5157 2.95401 10.4936C3.00237 10.3285 2.89598 9.63475 2.86697 9.41452C2.77025 8.69878 2.64452 7.98303 2.5478 7.26729C2.52846 7.11313 2.51879 6.95897 2.49944 6.80481C2.49944 6.74975 2.50877 6.45997 2.4991 6.33885C2.42172 5.66715 2.22829 5.03949 2.00584 4.42285C2.11223 4.4669 2.19962 4.47038 2.32535 4.45937L2.30601 4.44836Z" fill="#BD5B3B"/>
<path d="M2.40231 6.74976C2.40231 6.74976 2.47411 6.7828 2.51279 6.7828C2.53214 6.93696 2.54181 7.09112 2.56115 7.24528C2.43542 7.22326 2.441 7.41045 2.45067 7.49854C2.47969 7.91698 2.62476 8.83093 2.72148 9.23835C2.73115 9.29341 2.80544 9.44073 2.88281 9.40769C2.91183 9.62792 3.00195 10.3285 2.94392 10.4937C2.74082 10.2514 1.90906 9.68982 1.8607 9.44757C1.83168 9.29341 1.73497 7.34438 1.77365 7.24528C1.77365 7.23427 1.9284 7.06875 1.9961 6.98066C2.11216 6.8265 2.15085 6.69436 2.40231 6.7274V6.74976Z" fill="#F9B796"/>
<path d="M2.40126 6.7307C2.15004 6.69767 2.11139 6.84882 1.99545 7.00298L1.6766 6.90388C1.63795 6.2542 1.42538 5.16407 1.45437 4.60248C1.45437 4.55844 1.49302 4.28616 1.50268 4.27515C2.29497 4.35223 2.43025 6.00395 2.40126 6.7307Z" fill="#F9B796"/>
<path d="M6.54221 12.1588C6.67762 12.2799 6.81302 12.6849 6.99678 12.8061C6.77433 12.8941 6.3993 12.762 6.14784 12.7069L3.62354 11.2118C4.75512 10.9916 5.68144 11.3439 6.54221 12.1588Z" fill="#D38251"/>
<path d="M4.69395 12.4867C5.3613 12.7951 5.92226 13.1144 6.69599 13.0483C6.77336 12.9382 6.46387 12.9052 6.42518 12.8942C5.9416 12.795 5.28393 12.762 4.9164 12.3766V12.3216C5.31294 12.4977 5.76751 12.5858 6.17372 12.6849C6.42518 12.74 6.76369 12.8721 6.98614 12.784C7.21826 12.9382 7.62447 12.9712 7.90495 13.1474C8.31116 13.3897 8.63032 13.687 8.95916 14.0173C9.03653 14.4137 9.27832 14.7551 9.45241 15.1405C9.95534 16.2637 10.0424 16.8803 10.2648 18.0916C10.3035 18.3008 10.6966 19.1155 10.4546 19.1985C10.2032 18.67 10.0253 18.0931 9.78348 17.5535C8.62288 14.9879 4.71552 14.6906 3.14872 12.246C3.03266 12.0698 3.18518 12.1344 3.25288 12.0022C3.31091 11.9031 3.36894 11.8811 3.38828 11.749C3.70744 11.815 3.89121 12.1454 4.17168 12.3105C4.2007 12.3216 4.53921 12.3876 4.69395 12.4647V12.4867Z" fill="#FED7C4"/>
<path d="M4.91678 12.3876C5.28431 12.773 5.94198 12.7951 6.42556 12.9052C6.46425 12.9052 6.77374 12.9492 6.69637 13.0593C5.92264 13.1254 5.36168 12.8061 4.69434 12.4977L4.91678 12.3986V12.3876Z" fill="#FEF1E1"/>
<path d="M7.10205 13.1584C7.30516 13.0373 9.02671 14.7221 8.90098 15.2616C8.56247 14.2926 7.65334 13.8632 7.10205 13.1584Z" fill="#FEFDFE"/>
<path d="M5.27477 7.52051C5.64229 8.68772 6.09686 10.3615 6.39668 11.5727L5.71966 11.2424C5.4682 10.2513 5.37148 9.22728 5.17805 8.21423C5.17805 8.19221 5.09101 7.67467 4.99429 7.88389C4.93626 7.61961 4.91692 7.17915 4.85889 6.95892C5.10068 7.05803 5.18772 7.27826 5.2651 7.52051H5.27477Z" fill="#D88F50"/>
<path d="M2.44058 4.39325C3.35939 4.44831 3.58613 5.75991 3.60547 6.6188C3.60547 6.6188 3.49479 6.63959 3.47545 6.6506C3.28201 6.52947 2.99744 6.49644 2.87171 6.2652C2.65893 5.91283 2.80401 5.25214 2.4655 5.06495C2.42681 4.84472 2.45025 4.64651 2.30518 4.44831C2.30518 4.44831 2.35353 4.41527 2.44058 4.39325Z" fill="#FDCDAC"/>
<path d="M4.86818 6.95896C4.92621 7.16818 4.94555 7.61965 5.00358 7.88393C5.11964 8.45652 5.22603 9.04013 5.32275 9.62374C5.2357 9.73385 5.19702 9.4916 5.18734 9.44755C4.93588 8.12618 4.82949 6.55154 4.06543 5.47242C4.06543 5.42837 4.06543 5.41736 4.11379 5.41736C4.47164 5.6486 4.76179 6.50749 4.87785 6.95896H4.86818Z" fill="#FEFDFE"/>
<path d="M3.6107 5.31827C3.68807 5.60456 3.71484 6.35153 3.71484 6.68187C3.61813 6.71491 3.59117 6.5956 3.59117 6.5956C3.57183 5.7367 3.33971 4.44836 2.4209 4.3933C2.44024 4.3933 2.61452 4.23914 2.73058 4.23914C3.13679 4.22813 3.50431 4.92185 3.6107 5.31827Z" fill="#FEFDFE"/>
<path d="M2.03429 4.39334C2.25674 5.021 2.48066 5.63764 2.54836 6.30934C2.55803 6.43046 2.5 6.73878 2.5 6.79384C2.46131 6.79384 2.43083 6.7498 2.39214 6.73878C2.42116 6.01203 2.28575 4.36031 1.49268 4.28323C1.66677 3.91985 1.88921 4.32727 2.03429 4.38233V4.39334Z" fill="#FED7C4"/>
<path d="M5.32323 9.62376C5.35225 9.83298 5.59404 11.0222 5.47798 11.0552C5.25553 11.0112 4.52048 10.6038 4.42377 10.4166C4.31738 10.2074 3.97887 7.56462 3.9692 7.19023C3.95953 6.6837 4.02723 5.95956 4.05624 5.44202C4.82998 6.52114 4.92669 8.08477 5.17816 9.41715C5.17816 9.4612 5.22651 9.74488 5.31356 9.62376H5.32323Z" fill="#F0A278"/>
<path d="M3.69794 6.65061C3.69794 6.72769 3.66797 6.91594 3.66797 6.95998C3.69698 7.92899 3.72695 8.64369 3.96874 9.60168C3.98809 9.66775 4.05579 9.94304 4.1525 9.93203C4.18152 10.0862 4.44265 10.9341 4.35561 11.0112C3.97841 10.9671 3.26271 10.7028 3.11764 10.2734C2.86617 9.51359 3.04993 7.85086 2.71143 7.04703C2.71143 6.91489 2.91891 6.80759 3.01562 6.77455C3.17037 6.7195 3.28127 6.7387 3.48438 6.65061C3.50976 6.6396 3.62056 6.60657 3.62056 6.60657C3.62056 6.60657 3.62056 6.68365 3.70761 6.66162L3.69794 6.65061Z" fill="#F9B796"/>
<path d="M3.47469 6.65065C3.27179 6.73874 3.18483 6.74976 3.02057 6.80481C2.5278 6.55155 2.58578 5.6376 2.47949 5.065C2.81767 5.26321 2.67274 5.91289 2.8853 6.26525C3.02057 6.48548 3.28145 6.52953 3.46503 6.65065H3.47469Z" fill="#EB8D6C"/>
<path d="M4.15332 9.93202C4.06627 9.94303 3.9889 9.66774 3.96956 9.60167C3.72776 8.64368 3.68908 7.93894 3.65039 6.95892C3.78579 7.96097 3.95021 8.94099 4.14365 9.93202H4.15332Z" fill="#FEF1E1"/>
<path d="M2.55346 7.22754C2.6405 7.95422 2.77069 8.66967 2.87708 9.38534C2.79971 9.41837 2.72384 9.29379 2.71417 9.24975C2.61745 8.84237 2.48205 7.92851 2.44336 7.51012C2.44336 7.42203 2.3936 7.22754 2.55346 7.22754Z" fill="#FFE3C8"/>
<path d="M26.8324 12.9492C26.5616 13.4447 26.2424 13.8851 25.9813 14.3806C25.8846 14.5568 25.5171 14.8431 26.1167 14.711C25.6138 15.2395 25.3526 16.0764 24.9464 16.66C24.6079 17.1445 24.1147 17.4859 23.7762 17.9704C23.6504 18.0365 23.5344 18.0915 23.4183 18.1796C22.3544 18.8953 22.3544 21.0866 22.4705 22.3089C22.4705 22.364 22.4028 22.9696 22.6059 22.8485C22.5672 23.0467 22.5479 23.355 22.5188 23.5642C21.0971 23.5642 19.6657 23.6193 18.244 23.6193C18.1472 21.5161 18.1182 19.3468 18.8726 17.3978L18.3794 18.2897C18.8243 16.9573 19.3852 15.8011 20.2267 14.755C20.2653 14.9422 19.6754 15.5479 19.685 15.6029C19.685 15.6139 19.8495 15.691 19.8688 15.7571C19.8688 15.8011 19.54 16.5389 19.511 16.682C19.511 16.682 19.5787 16.7261 19.5593 16.8362C19.4046 17.5519 19.1628 18.2567 19.2401 19.0385C19.3369 19.2257 20.1783 18.8073 20.3911 18.7522C21.8999 18.3998 22.277 18.2236 23.4473 17.0124C24.2694 16.1645 24.5499 15.3276 25.2269 14.4797C25.6911 13.8961 26.3198 13.4667 26.8517 12.9712L26.8324 12.9492Z" fill="url(#paint0_linear_6413_76143)"/>
<path d="M29.3569 10.4386C27.616 12.6409 27.0551 15.669 25.2852 17.563C24.5598 18.3448 23.7087 18.6201 23.5056 19.9194C23.3315 21.0646 23.5733 22.397 23.5539 23.5532C23.3895 23.5532 23.1671 23.6083 22.9736 23.6083C22.8286 23.3 22.8285 22.8815 22.7899 22.5292C22.6448 21.0646 22.5384 19.3689 23.4185 18.1686C23.5346 18.0915 23.6603 18.0365 23.7764 17.9594C25.9138 16.7702 25.2271 17.0234 26.4361 14.9643C26.5425 14.7771 28.0126 12.7179 27.8095 12.6299C27.5 13.1584 26.9948 13.5331 26.5886 13.9406H26.4338C27.1302 13.3129 27.8288 12.5638 28.2447 11.6829C28.2447 11.6608 28.3898 11.6168 28.4284 11.5287C28.4381 11.4957 28.3221 11.5287 28.3414 11.4516C28.3607 11.3525 28.5155 11.3195 28.3898 11.1433C28.5638 11.0332 29.2312 10.3175 29.3763 10.1192C29.5213 9.92104 29.56 9.54665 29.8695 9.45856C30.0436 9.888 29.6084 10.1303 29.3763 10.4276L29.3569 10.4386Z" fill="#AD4D34"/>
<path d="M18.2347 23.6083C17.993 23.6083 17.7415 23.5532 17.519 23.5532C17.6158 23.0026 17.6061 22.419 17.6544 21.8574L18.1961 18.9394C18.2638 18.7192 18.3121 18.4879 18.3798 18.2787L18.8731 17.3868C18.1187 19.3358 18.1477 21.5161 18.2444 23.6083H18.2347Z" fill="#FED7C4"/>
<path d="M22.7806 22.5292C22.8193 22.8705 22.8193 23.289 22.9643 23.6083C22.8096 23.6083 22.6258 23.5532 22.5098 23.5532C22.5485 23.344 22.5581 23.0247 22.5968 22.8375C22.6258 22.6943 22.6162 22.4851 22.7806 22.5292Z" fill="#DB7458"/>
<path d="M27.7324 10.4936C27.4519 11.2644 28.1192 11.6609 28.1386 11.3856C28.1386 11.3525 28.0419 11.3195 28.0032 11.2534C28.1289 11.2755 28.2781 11.1944 28.3845 11.1284C28.5102 11.3046 28.3789 11.3376 28.3595 11.4367C27.8566 11.9322 27.3991 12.5025 26.8865 12.987C26.3739 13.4715 25.7122 13.912 25.2382 14.4956C24.5709 15.3435 24.2847 16.1652 23.4626 17.0131C22.2924 18.2244 21.9055 18.4308 20.4064 18.7832C20.2033 18.8272 19.3083 19.223 19.2116 19.0468C19.1343 18.265 19.3664 17.53 19.5308 16.8142C19.5501 16.7041 19.4824 16.6711 19.4824 16.6601C19.5115 16.5169 19.85 15.7902 19.8403 15.7351C19.8306 15.669 19.6662 15.592 19.6565 15.5809C19.6565 15.5259 20.2368 14.9203 20.1981 14.7331C20.3142 14.5789 20.4399 14.4247 20.556 14.2706C20.6237 14.1825 20.8365 14.0503 20.8752 14.0173C20.0047 15.2066 19.6855 16.8032 19.5888 18.3228C20.1111 17.2657 20.3819 16.2967 21.3878 15.7131C21.7263 15.5149 22.1712 15.4488 22.5097 15.2506C23.9894 14.4137 25.2854 13.3236 26.4944 12.0463C26.5524 11.9802 26.4267 12.0022 26.6782 11.815C26.6782 11.815 26.6782 11.9031 26.7459 11.8701C26.9393 11.749 26.6395 11.5287 26.6298 11.4847C26.6298 11.3966 27.6163 10.4166 27.7324 10.2294L27.713 10.4826L27.7324 10.4936Z" fill="#FDCDAC"/>
<path d="M17.6543 21.8685C17.7509 20.8224 17.8959 19.9415 18.1954 18.9504L17.6543 21.8685Z" fill="#FEFDFE"/>
<path d="M23.7763 17.9704C24.1148 17.4859 24.608 17.1446 24.9465 16.6601C25.3528 16.0875 25.6139 15.2396 26.1168 14.711C25.5172 14.8432 25.8847 14.5569 25.9814 14.3807C26.1265 14.5679 26.5424 14.1054 26.6584 13.9953C26.6584 13.9953 26.5907 13.9402 26.6101 13.9182C27.0163 13.5108 27.4902 13.1694 27.7997 12.6409C28.0028 12.729 26.5327 14.7881 26.4263 14.9753C25.227 17.0455 25.9137 16.7812 23.7666 17.9704H23.7763Z" fill="#EB8D6C"/>
<path d="M23.4172 18.1796C22.538 19.3799 22.6443 21.0756 22.7892 22.5402C22.6346 22.4961 22.6346 22.7053 22.6056 22.8485C22.4027 22.9696 22.48 22.364 22.4703 22.3089C22.3544 21.0977 22.3544 18.8954 23.4172 18.1796Z" fill="#EB8D6C"/>
<path d="M26.6101 13.9292L26.6585 14.0063C26.5521 14.1164 26.0992 14.5789 25.9541 14.3917C26.2152 13.8961 26.5344 13.4557 26.8052 12.9602C27.3178 12.4757 27.8425 11.9506 28.3454 11.4551C28.3358 11.5211 28.4421 11.4991 28.4325 11.5322C28.4035 11.6092 28.2349 11.6828 28.2253 11.7049C27.8094 12.5968 27.142 13.3015 26.4457 13.9292H26.6004H26.6101Z" fill="#DB7458"/>
<path d="M26.6977 11.826C26.4559 12.0132 26.5817 11.9912 26.514 12.0572C25.3147 13.3346 24.009 14.4247 22.5292 15.2616C22.1811 15.4598 21.7458 15.5258 21.4073 15.724C20.4015 16.3076 20.1111 17.2767 19.5889 18.3338C19.6856 16.8142 19.9951 15.2175 20.8752 14.0283C21.059 13.8191 21.2719 13.6429 21.4363 13.4116C21.8812 13.0262 22.3938 12.784 22.9258 12.5968C23.5738 12.5968 24.3669 12.5087 24.9955 12.2885C24.9472 12.795 25.7692 12.2885 25.9143 12.1894C26.1658 12.0242 26.6107 11.2864 26.6977 11.826Z" fill="#FFE3C8"/>
<path d="M23.4866 12.751C23.8058 12.7179 24.3474 12.6959 24.6085 12.9051C22.7709 12.7289 21.3685 14.0723 20.4014 15.702C20.8656 14.1824 22.0262 12.8941 23.4866 12.751Z" fill="#FEFDFE"/>
<path d="M29.7151 9.41451H29.8021C29.8021 9.41451 29.8215 9.40349 29.8505 9.46956C29.541 9.56867 29.5023 9.97273 29.3572 10.1599C28.9607 10.193 28.3224 11.1289 28.0709 11.239C28.0032 11.2721 27.9648 11.2657 27.9023 11.1804C27.7476 10.7619 28.1257 10.2584 27.7969 10.4016C28.1451 9.81795 29.0961 9.41451 29.7151 9.41451Z" fill="#FDCDAC"/>
<path d="M29.3572 10.1302C29.2024 10.3285 28.5448 11.0442 28.3707 11.1543C28.2643 11.2204 28.1386 11.2754 28.0128 11.2534C28.0128 11.2534 27.9548 11.2314 27.9258 11.1543C27.9548 11.0442 28.0128 11.2314 28.0805 11.2094C28.3223 11.1103 28.9703 10.1633 29.3669 10.1302H29.3572Z" fill="#FEF1E1"/>
<path d="M26.562 5.10902C26.7168 5.19711 26.62 5.17509 26.562 5.26318C26.2042 5.81376 26.4266 7.39941 26.3782 8.1592C26.3589 8.41246 26.1558 10.1413 26.1074 10.2624C26.0204 10.4826 25.2273 10.8019 25.0049 10.901C24.9372 10.846 25.0532 10.1633 25.0726 10.0311C25.1596 10.1413 25.1983 9.94305 25.208 9.89901C25.4401 8.72078 25.6045 6.18815 26.1945 5.31824C26.2138 5.28521 26.2719 5.17509 26.2815 5.16408C26.2815 5.16408 26.3299 5.14206 26.3686 5.10902C26.3879 5.09801 26.4169 5.19711 26.5523 5.10902H26.562Z" fill="#F0A278"/>
<path d="M28.8146 4.34922C28.6794 4.3272 28.7277 4.48136 28.7277 4.58046C28.7277 4.94384 28.7373 6.47443 28.6794 6.68365C28.6504 6.78275 28.4088 6.91489 28.3219 6.96995L28.2349 6.87084C27.9837 6.71668 27.8967 6.96995 27.8291 6.61758C28.0127 6.41937 27.8871 6.02296 27.9161 5.7697C27.945 5.54947 28.1866 4.4263 28.2736 4.26113C28.3798 4.05191 28.5924 3.94179 28.747 3.79865C28.8533 3.84269 28.805 4.25012 28.8146 4.36023V4.34922Z" fill="#F9B796"/>
<path d="M28.2252 4.2392C27.9837 4.8118 27.7131 5.97901 27.8194 6.59565C27.8774 6.95903 28.017 6.69476 28.2682 6.84892C27.9783 7.03611 27.9203 6.95903 27.8624 7.3114C27.8044 7.66376 27.7614 8.17029 27.7324 8.54468C27.6938 8.97413 27.6648 9.40357 27.6455 9.82201C27.5489 9.9101 27.4426 10.0312 27.3266 10.1303L27.6841 6.88195C27.6841 6.88195 27.3363 6.71678 27.2783 6.70577C27.9837 6.65071 27.6745 5.59361 27.7324 5.06506C27.7518 4.9109 27.8677 4.39336 27.9547 4.29426C27.9547 4.29426 27.945 4.27223 28.003 4.2392C28.0416 4.21718 28.1672 4.25021 28.2252 4.2392Z" fill="#BD5B3B"/>
<path d="M28.815 4.34926C28.8827 5.82479 28.7473 7.48752 28.7667 8.98508C29.1922 9.15025 29.4824 8.95204 29.8015 9.42554H29.7145C29.6661 9.31542 29.3566 9.28239 29.2599 9.27138C28.9021 9.23834 28.6893 9.27138 28.3605 9.37048L28.5442 9.13924L28.728 7.28931C28.728 7.28931 28.3798 6.992 28.3218 6.95897C28.4088 6.91492 28.6506 6.78279 28.6796 6.67267C28.7377 6.46345 28.7183 4.93286 28.728 4.56948C28.728 4.48139 28.6796 4.31622 28.815 4.33824V4.34926Z" fill="#BD5B3B"/>
<path d="M28.003 4.23913C27.945 4.27216 27.9643 4.28318 27.9546 4.29419C26.9488 4.21711 26.9101 5.57152 26.6006 6.34232C26.6006 5.98995 26.707 5.54949 26.5522 5.2632C26.6103 5.1751 26.707 5.20814 26.5522 5.10903C27.0842 4.74566 27.1712 3.5344 27.9933 4.23913H28.003Z" fill="#FEFDFE"/>
<path d="M27.7943 6.62897C27.6879 6.01232 27.9587 4.84511 28.2005 4.27251L28.284 4.23914C28.197 4.40431 27.9552 5.52748 27.9262 5.74771C27.8972 6.00097 28.0132 6.39738 27.8391 6.59559L27.7943 6.62897Z" fill="#FEF1E1"/>
<path d="M29.715 9.4145C29.096 9.4145 28.1772 9.81091 27.829 10.3835C27.7903 10.4496 27.6953 10.5054 27.6953 10.5054L27.7188 10.2903C27.6027 10.4775 26.6587 11.3966 26.6587 11.4847C26.6587 11.5287 26.9586 11.7489 26.7748 11.8701C26.7168 11.9031 26.6587 11.8483 26.6587 11.8483C26.5717 11.2977 26.1362 12.0833 25.8944 12.2595C25.7493 12.3586 24.9195 12.784 24.9775 12.2775C25.6545 12.0462 25.9624 11.7049 26.4943 11.2534C27.0263 10.8019 27.5389 10.2624 28.0901 9.76687L29.2798 9.24933C29.3765 9.24933 29.686 9.29337 29.7343 9.40349L29.715 9.4145Z" fill="#FEF1E1"/>
<path d="M27.9154 11.1544C27.9444 11.2424 28.0024 11.2535 28.0024 11.2535C28.0411 11.3195 28.1378 11.3415 28.1378 11.3856C28.1281 11.6609 27.4511 11.2645 27.7316 10.4937C27.7316 10.4937 27.7799 10.4606 27.8186 10.3946C28.1571 10.2514 27.7606 10.7359 27.9057 11.1654L27.9154 11.1544Z" fill="#DB7458"/>
<path d="M26.6104 6.3423C26.6104 6.46342 26.6587 6.6396 26.6587 6.65062C26.6587 6.79377 26.6201 6.91489 26.6104 7.01399C26.562 7.983 26.4073 8.88594 26.2912 9.83293C26.2719 10.0311 26.1171 10.9671 26.2235 11.0112C26.4943 10.868 26.7748 10.7469 27.0069 10.5487L26.4653 11.2094C26.2525 11.0772 26.2235 11.2094 26.0591 11.3085C25.9044 10.879 25.0629 11.1213 24.7728 11.2534C24.647 11.3085 24.2698 11.7599 24.2118 11.6388L24.2795 11.4626C23.9507 11.4186 23.7089 11.6388 23.4478 11.826C23.5638 11.5507 23.6509 11.1213 23.7669 10.8019V11.1323C23.8056 11.2864 24.1441 11.0332 24.2408 11.0001C24.4536 10.9341 24.7051 11.0332 24.8501 10.7138C24.9565 10.4826 25.1693 8.68774 25.208 8.30234C25.2467 7.90592 25.2757 7.44344 25.208 7.04703C25.3047 6.94793 25.3821 6.84882 25.5272 6.83781C25.3531 7.68569 25.1887 9.09516 25.0726 10.0091C25.0532 10.1412 24.9372 10.824 25.0049 10.879C25.2273 10.7799 26.0204 10.4496 26.1075 10.2404C26.1558 10.1192 26.3589 8.40144 26.3783 8.13716C26.4266 7.37737 26.2042 5.79172 26.562 5.24115C26.7168 5.51644 26.6104 5.96791 26.6104 6.32027V6.3423Z" fill="#BD5B3B"/>
<path d="M23.7764 10.8019C24.0568 10.0311 24.8016 7.46547 25.2174 7.05804C25.2851 7.45446 25.2561 7.91694 25.2174 8.31335C25.1788 8.70976 24.966 10.4936 24.8596 10.7249C24.7145 11.0332 24.4631 10.9451 24.2503 11.0112C24.1536 11.0442 23.8151 11.2975 23.7764 11.1433V10.813V10.8019Z" fill="#F0A278"/>
<path d="M26.0685 11.3085C24.7531 12.1234 24.3372 12.0683 23.0122 12.5418C23.1766 12.3216 23.3507 12.0681 23.4668 11.8038C23.7279 11.6276 23.9697 11.3964 24.2985 11.4404L24.24 11.612C24.298 11.7331 24.6752 11.2927 24.801 11.2266C25.0911 11.0945 25.9234 10.8791 26.0781 11.3085H26.0685Z" fill="#D38251"/>
<path d="M26.4752 11.2093V11.2644C25.9432 11.7159 25.6724 12.0572 24.9858 12.2885C24.3571 12.5087 23.564 12.5968 22.916 12.5968C22.9547 12.5858 22.9644 12.5638 23.0031 12.5417C24.3377 12.0682 24.7536 12.1233 26.0593 11.3084C26.2237 11.2093 26.2527 11.0772 26.4655 11.2093H26.4752Z" fill="#AD4D34"/>
<path d="M25.0591 10.0571C25.1751 9.13214 25.3299 7.72267 25.5137 6.8858C25.5717 6.58849 25.6918 6.1441 25.8079 5.8578C25.8756 5.68162 26.069 5.42835 26.2141 5.31824C25.6145 6.18814 25.4597 8.73179 25.2276 9.899C25.2276 9.94305 25.1808 10.1562 25.0938 10.0571H25.0591Z" fill="#FEF1E1"/>
<path d="M28.323 6.95897C28.381 7.00301 28.7195 7.26729 28.7292 7.28931L28.5455 9.13924L28.3617 9.37048C28.1393 9.43655 27.8684 9.62374 27.646 9.83296C27.6653 9.40351 27.704 8.97406 27.733 8.55563C27.8588 8.40147 27.8975 7.91696 27.9168 7.70775C27.9168 7.61965 27.9652 7.31133 27.8298 7.32234C27.8878 6.96998 27.9458 7.04706 28.236 6.85986L28.323 6.95897Z" fill="#F9B796"/>
<path d="M27.2871 6.70566C27.3452 6.72768 27.6837 6.85982 27.6933 6.88184L27.3355 10.1302C27.2484 10.1963 27.1761 10.4326 27.0117 10.5647C26.7699 10.7629 26.4522 10.8926 26.1911 11.0357C26.0847 10.9917 26.2813 10.0091 26.3006 9.8219C26.3877 10.0421 26.4039 9.73225 26.4039 9.69921C26.5103 8.89537 26.6264 8.10255 26.6748 7.2877C26.6748 7.19961 26.7455 6.98095 26.6198 7.00297C26.6198 6.91488 26.6585 6.78274 26.6681 6.63959C26.7455 6.67263 26.8132 6.58453 26.8519 6.58453C26.8712 6.58453 27.2775 6.67263 27.3065 6.68364L27.2871 6.70566Z" fill="#F9B796"/>
<path d="M27.9644 4.27561C27.8677 4.37472 27.7516 4.9108 27.7419 5.06496C27.5582 5.30721 27.6452 5.84677 27.5195 6.11105C27.3744 6.40836 26.9779 6.33128 26.8425 6.59555C26.8038 6.59555 26.7458 6.68364 26.6587 6.65061C26.6587 6.6396 26.6104 6.44487 26.6104 6.32375C26.9102 5.55294 26.9585 4.19853 27.9644 4.27561Z" fill="#FDCDAC"/>
<path d="M29.2605 9.2604L28.0709 9.80019C27.5196 10.2957 27.0264 10.8132 26.4751 11.2867V11.2094L26.9844 10.5648C27.1488 10.4326 27.2149 10.1709 27.3019 10.1048C27.418 10.0057 27.5147 9.86603 27.6211 9.77794C27.8532 9.57973 28.158 9.41804 28.3707 9.35197C28.6996 9.25287 28.9124 9.23837 29.2702 9.27141L29.2605 9.2604Z" fill="#FEFDFE"/>
<path d="M27.2876 6.70569C27.2876 6.70569 26.8351 6.60658 26.8062 6.60658C26.9414 6.34231 27.3376 6.41939 27.4825 6.12208C27.6178 5.8578 27.5485 5.31824 27.7321 5.07599C27.6741 5.60454 27.993 6.66164 27.278 6.7167L27.2876 6.70569Z" fill="#F0A278"/>
<path d="M27.7324 8.54461C27.7614 8.17022 27.7711 7.66369 27.8195 7.31133C27.9645 7.2893 27.9258 7.60864 27.9161 7.69673C27.9064 7.90595 27.8582 8.37944 27.7324 8.54461Z" fill="#FEF1E1"/>
<path d="M26.292 9.82191C26.3984 8.87493 26.5531 7.97199 26.6112 7.00298C26.7369 6.98095 26.7079 7.14613 26.6982 7.23422C26.6498 8.04907 26.5338 8.84189 26.4274 9.64573C26.4274 9.67876 26.379 10.0532 26.292 9.82191Z" fill="#FEFDFE"/>
<path d="M21.7449 12.8501C21.3967 13.2685 20.8744 13.8631 20.4876 14.2375C19.9943 14.711 19.4043 15.1074 18.8627 15.5149L18.7273 15.2065C19.9073 14.4798 21.1549 13.0703 21.8513 11.771L18.4081 15.3607C18.4081 15.3607 18.4372 15.2396 18.3404 15.2616C18.2341 15.2836 16.8607 16.649 16.4932 16.649C16.4351 16.7481 16.764 16.9684 16.8317 16.9574C16.4061 17.2216 15.4099 17.9374 14.965 17.9814C14.2203 18.0695 10.7192 15.603 9.9938 14.9533C9.89708 14.8652 9.76168 14.7771 9.67464 14.7C8.58174 13.6649 7.56621 12.3105 6.79248 10.9561C6.87953 10.9341 6.8892 10.9892 6.92788 11.0552C7.35344 11.782 7.97242 12.3105 8.55272 12.9051C8.97828 13.3456 9.29744 13.7861 9.7907 14.1825C10.7192 14.9202 13.8721 16.7481 14.8103 16.594C15.6614 16.4508 18.4275 14.1935 19.1529 13.4667C20.8357 11.782 23.0022 8.54461 22.9538 5.87984C23.2053 5.9349 23.6545 5.69983 23.7125 6.07422C23.5964 8.03426 22.9484 9.88419 22.049 11.5359C22.0683 11.6901 22.0931 11.6058 22.1414 11.5507C23.6308 10.0532 24.3949 6.93694 23.892 4.75667C24.7721 4.73465 23.8436 3.71058 23.8436 3.17102C25.5458 6.47446 23.7566 10.3615 21.7255 12.8501H21.7449Z" fill="#941B0C"/>
<path d="M18.8726 15.5148C18.5534 15.7571 17.1123 16.9243 16.8512 16.9463C16.7835 16.9463 16.4547 16.7481 16.5127 16.638C16.8705 16.638 18.2439 15.2726 18.36 15.2506C18.4567 15.2285 18.418 15.3497 18.4277 15.3497C18.6018 15.3166 18.5631 15.3056 18.7468 15.1955L18.8822 15.5038L18.8726 15.5148Z" fill="#7B1108"/>
<path d="M8.65017 12.0352C9.6657 13.3676 10.2111 13.6236 11.7876 13.998C14.7665 14.7027 17.5986 13.0957 19.9585 11.1907C18.6625 13.0957 16.0667 15.5926 13.8712 15.7357C13.6294 15.7467 13.399 15.6139 13.1668 15.6139C13.0895 15.6139 12.9637 15.5699 13.0508 15.713C12.5092 15.4267 11.4259 14.6673 10.981 14.5131C10.2073 13.9846 9.47226 13.0156 8.55346 12.9275C7.98283 12.3439 7.36384 11.7819 6.92862 11.0442L7.55727 10.9671C6.8319 9.79987 6.387 8.48951 6.20324 7.06903C6.20324 7.02498 6.1162 7.06903 6.1162 7.01397C6.09685 6.85981 6.16456 6.52947 6.20324 6.37531C6.41602 8.46748 7.45089 10.4606 8.63083 12.0132L8.65017 12.0352Z" fill="#C63A16"/>
<path d="M23.8639 3.17105C23.8639 3.71061 24.7827 4.73468 23.9123 4.7567C23.8446 4.45939 23.6318 3.95287 23.4577 3.71061C23.6995 4.52546 23.7382 5.2302 23.6802 6.08909C23.6221 5.7147 23.2063 5.94594 22.9645 5.87987C22.9355 4.38231 22.2004 2.77464 21.1172 1.93777C21.1172 1.91575 21.1172 1.90473 21.1172 1.88271C21.1462 1.53035 21.2042 1.14494 21.3009 0.803589C22.4809 1.26607 23.2256 1.92676 23.8639 3.16004V3.17105Z" fill="#AD3013"/>
<path d="M6.54211 3.88676C6.17459 4.80072 6.12623 5.39533 6.22295 6.39738C6.18426 6.55154 6.11656 6.88188 6.1359 7.03604C6.1359 7.08009 6.22295 7.03604 6.22295 7.0911C6.39704 8.51158 6.85161 9.82194 7.57698 10.9892L6.94832 11.0662C6.90964 11.0002 6.89997 10.9451 6.81292 10.9671C6.52277 10.4606 6.28098 9.9761 6.04886 9.42553C5.20743 7.32234 5.06235 5.24117 6.04886 3.17102C6.36802 3.20405 6.28098 3.74362 6.54211 3.88676Z" fill="#C63A16"/>
<path d="M23.9123 4.75672C24.4056 6.93699 23.6512 10.0422 22.1618 11.5508C22.1134 11.6058 22.0457 11.705 22.0264 11.5508C22.9355 9.89907 23.5738 8.04915 23.6899 6.08911C23.7383 5.23021 23.7092 4.52548 23.4674 3.71063C23.6319 3.9639 23.8543 4.47042 23.922 4.75672H23.9123Z" fill="#AD4D34"/>
<path d="M10.9905 14.4907C10.9905 14.4907 10.7584 14.4907 10.7003 14.4357C10.6616 14.4907 10.7584 14.5568 10.7874 14.5898C11.1839 15.0633 13.3891 16.2416 13.9403 16.2856C14.1338 16.2966 14.008 16.2526 13.9597 16.1865C14.2498 16.3076 14.5497 16.4067 14.8108 16.5939C13.8726 16.7481 10.6923 14.9202 9.76385 14.1824C9.2706 13.786 8.95143 13.3345 8.52588 12.9051C9.44469 12.9932 10.2071 13.9622 10.9808 14.4907H10.9905Z" fill="#AD4D34"/>
<path d="M18.7371 15.2066C18.5534 15.3167 18.6017 15.3277 18.418 15.3607L21.8611 11.771C21.1647 13.0703 19.9171 14.4798 18.7371 15.2066Z" fill="#9E4032"/>
<path d="M12.4801 0.957719L13.602 2.38921C12.6252 1.65144 11.658 1.1339 10.4491 1.15592C10.2556 1.15592 10.1396 1.17795 9.9558 1.21098C9.29812 1.10087 8.418 1.53032 7.88606 1.98178L7.56689 1.3211C9.16272 0.297031 10.7779 0.0547792 12.4704 0.957719H12.4801Z" fill="#EA7A1F"/>
<path d="M19.5886 0.396152C19.6176 0.803576 20.2559 0.814588 20.2172 1.26606C20.0722 1.19999 19.6563 1.03482 19.5209 1.01279C17.9154 0.726496 15.6812 2.64249 14.8398 4.14005L14.2305 2.96182C14.3465 3.06093 14.7721 3.50138 14.8785 3.47936C15.7586 2.3672 16.7451 1.39819 17.867 0.60537C18.4763 0.396152 18.9406 0.352106 19.5789 0.396152H19.5886Z" fill="#E2651D"/>
<path d="M7.88635 1.99274C7.33507 2.44421 6.8128 3.19299 6.53232 3.88671C6.27118 3.74357 6.34856 3.204 6.03906 3.17097C6.48396 2.22398 6.74509 1.86061 7.56719 1.32104L7.88635 1.98173V1.99274Z" fill="#E2651D"/>
<path d="M14.2306 2.9618C14.0178 2.78562 13.8243 2.56539 13.6019 2.40022L12.48 0.968725C13.4471 1.48626 14.2402 2.34516 14.8399 3.32518C15.5362 2.13594 16.6485 1.03479 17.8768 0.605347C16.7549 1.38716 15.7683 2.36718 14.8882 3.47934C14.7722 3.50136 14.3563 3.0609 14.2402 2.9618H14.2306Z" fill="#D75419"/>
<path d="M21.3008 0.814589C21.2137 1.15594 21.146 1.54135 21.117 1.89371C20.8172 1.72854 20.5173 1.42022 20.2175 1.27707C20.2562 0.825601 19.6179 0.81459 19.5889 0.407166C20.1982 0.451211 20.7205 0.59436 21.3008 0.814589Z" fill="#D75419"/>
<path d="M22.9646 5.87979C23.0033 8.53355 20.8465 11.7819 19.1637 13.4667C18.4383 14.1934 15.6722 16.4508 14.8211 16.5939C14.56 16.4067 14.2505 16.3076 13.97 16.1865C13.5928 16.0213 13.409 15.9112 13.0705 15.724C12.9835 15.5809 13.0995 15.6249 13.1866 15.6249C13.4187 15.6249 13.6218 15.691 13.8636 15.68C16.0591 15.5368 18.6414 13.1253 19.9374 11.2203C17.5775 13.1143 14.7727 14.7991 11.7939 14.0943C10.2174 13.7199 9.68545 13.3786 8.66992 12.0462C9.06646 12.0022 9.52103 12.4206 9.90789 12.5637C11.6972 13.2134 13.5058 13.0593 15.2176 12.2004C15.6335 11.9911 16.5813 11.4406 16.7748 10.9671C16.7748 10.9671 16.8521 10.934 16.8618 10.89C16.8908 10.7358 16.8328 10.6257 16.8135 10.5046L17.3067 9.98706C17.3454 9.86593 17.8117 9.07578 17.8967 8.85288L18.6124 7.82881C18.6801 7.66364 19.2247 7.32082 19.3765 7.15711C20.0728 5.84675 20.8852 4.69055 21.0883 3.13793C21.1367 2.77455 21.098 2.30106 21.1367 1.93768C22.2199 2.77455 22.955 4.38223 22.984 5.87979H22.9646Z" fill="#C63A16"/>
<path d="M10.9911 14.4908C11.4359 14.634 12.5192 15.4268 13.0608 15.7241C13.3993 15.9113 13.5831 16.0214 13.9603 16.1866C14.0086 16.2527 14.1343 16.2967 13.9409 16.2857C13.3993 16.2527 11.1845 15.0634 10.7879 14.59C10.7589 14.5569 10.6622 14.4908 10.7009 14.4358C10.7589 14.4798 10.962 14.4798 10.9911 14.4908Z" fill="#BD5B3B"/>
<path d="M10.4488 1.16696C9.96517 1.32112 9.55896 1.65146 9.16242 1.9818C7.30546 3.57847 6.61877 5.29625 7.04433 7.97204C6.11585 4.89984 6.81221 1.72854 9.94583 1.211C10.1296 1.17797 10.2456 1.16696 10.4391 1.15594L10.4488 1.16696Z" fill="#FEFDFE"/>
<path d="M20.2173 1.26601C20.5171 1.40916 20.8169 1.71748 21.1168 1.88265C21.1168 1.90468 21.1168 1.91569 21.1168 1.93771C21.0878 2.30109 21.147 2.79609 21.0986 3.15947C20.8955 4.71208 20.0831 5.86829 19.3867 7.17865C19.346 7.25534 19.1712 7.44557 18.6234 7.87141C18.546 7.76129 18.6427 7.89343 18.6234 7.87141C18.5847 7.81635 17.9135 8.98838 17.8942 8.95535C17.7129 9.30806 17.364 9.94007 17.3157 10.0722C17.2673 10.2043 17.3157 10.0952 17.3157 10.0722L16.8166 10.9833C16.8069 11.0493 16.8166 11.0273 16.8166 10.9833C16.7876 11.0493 16.8166 10.9392 16.8166 10.9833C16.6232 11.4568 15.6749 12.037 15.2494 12.2462C13.5375 13.1051 11.6772 13.2593 9.88796 12.6096C9.5011 12.4664 9.01483 11.9802 8.61829 12.0242C7.42868 10.4716 6.40348 8.47852 6.1907 6.38634C6.08432 5.3843 6.17405 4.78968 6.54157 3.87573C6.82205 3.17099 7.34432 2.43323 7.8956 1.98176C8.44689 1.53029 9.30767 1.10084 9.96534 1.21095C6.83172 1.72849 6.13536 4.89979 7.06384 7.97199C6.62862 5.28519 7.32497 3.56741 9.18193 1.98176C9.57847 1.6404 9.98468 1.31006 10.4683 1.16691C11.6772 1.14489 12.6347 1.66243 13.6212 2.40019C13.8437 2.56536 14.0371 2.78559 14.2499 2.96178L14.8592 4.14C15.7006 2.64245 17.9251 0.726451 19.5403 1.01275C19.6757 1.03477 20.1012 1.19994 20.2366 1.26601H20.2173Z" fill="url(#paint1_linear_6413_76143)"/>
<path d="M8.71821 3.73251C8.93099 3.7215 9.39523 3.94173 9.50162 4.17297C9.97553 5.14198 8.46675 6.91482 7.78974 5.75862C7.33517 4.98782 8.01218 3.78757 8.70854 3.73251H8.71821Z" fill="#FEFDFE"/>
<path d="M10.3424 1.7836C10.9227 1.71753 11.4933 2.77463 10.797 3.36925C9.58801 4.40432 8.82395 2.71957 9.81046 2.03686C9.87816 1.99281 10.3037 1.7836 10.3521 1.7836H10.3424Z" fill="#FEFDFE"/>
<path d="M18.5726 1.26607C19.0078 1.24405 19.6172 1.42023 19.9653 1.72855C18.4179 1.64046 16.9768 2.68655 15.8452 3.7987C16.4835 2.65351 17.2476 1.33214 18.5726 1.26607Z" fill="#FEFDFE"/>
<path d="M13.7573 8.39044C13.854 8.87495 14.4246 9.99811 13.5542 9.7008L13.7573 8.39044Z" fill="#EA7A1F"/>
<defs>
<linearGradient id="paint0_linear_6413_76143" x1="20.5652" y1="19.6661" x2="17.66" y2="21.0947" gradientUnits="userSpaceOnUse">
<stop stop-color="#F09A7A"/>
<stop offset="1" stop-color="#FABB9D"/>
</linearGradient>
<linearGradient id="paint1_linear_6413_76143" x1="20.5074" y1="2.08086" x2="6.93263" y2="7.89137" gradientUnits="userSpaceOnUse">
<stop stop-color="#F47E20"/>
<stop offset="0.47" stop-color="#F7AC3F"/>
<stop offset="1" stop-color="#EB6A1E"/>
</linearGradient>
</defs>
</svg>
