<svg width="130" height="100" viewBox="0 0 72 36" fill="none" xmlns="http://www.w3.org/2000/svg">
<path opacity="0.4" d="M9.82603 35.4731H1V30.8476H3.00672V23.2694L5.48583 22.6964H7.14448V15.9789H10.4618V17.2078H11.0348V10.572H12.2234V18.1099H13.3292H26.5179V19.8775H30.696V31.8598H31.9248V19.8775H35.589V26.9513H38.6826V29.6341H40.8337V16.997H43.5982V23.0231H46.4857L48.9435 17.7192H56.562L59.3264 18.5799V12.9268H62.6176V18.1099H64.7333V23.0231H67.5593V27.2331L71.4307 27.8783V35.4731H9.82603Z" fill="#ABC4D3"/>
<path d="M8.41855 29.1202C8.41855 29.1202 8.41382 29.1202 8.41145 29.1202C8.2019 29.1001 7.98998 29.0646 7.78161 29.0125C7.73899 29.0019 7.71413 28.9592 7.72478 28.9178C7.73544 28.8752 7.77806 28.8503 7.81949 28.861C8.02076 28.9107 8.22439 28.945 8.42684 28.964C8.46946 28.9687 8.50142 29.0066 8.49787 29.0492C8.49432 29.0895 8.45999 29.1202 8.41973 29.1202H8.41855ZM6.91499 28.6952C6.90315 28.6952 6.89249 28.6929 6.88065 28.6881C6.69241 28.5981 6.50536 28.494 6.32422 28.3779C6.28752 28.3543 6.27686 28.3057 6.30054 28.269C6.32422 28.2323 6.37276 28.2217 6.40946 28.2453C6.58468 28.3578 6.767 28.4584 6.94932 28.5461C6.98839 28.565 7.00497 28.6112 6.98602 28.6502C6.973 28.6787 6.94459 28.6952 6.91499 28.6952ZM5.62216 27.8156C5.60322 27.8156 5.58428 27.8085 5.56889 27.7955C5.41261 27.6534 5.26225 27.5007 5.12255 27.342C5.09414 27.3089 5.09651 27.2603 5.12966 27.2307C5.16162 27.2023 5.21135 27.2059 5.24094 27.2378C5.37709 27.3929 5.52271 27.5409 5.67544 27.6794C5.7074 27.709 5.70977 27.7588 5.68017 27.7907C5.66478 27.8073 5.64347 27.8168 5.62216 27.8168V27.8156ZM4.61466 26.6175C4.58861 26.6175 4.56375 26.6044 4.54836 26.582C4.43589 26.4091 4.32815 26.2244 4.22633 26.035C4.20621 25.9971 4.22042 25.9497 4.2583 25.9284C4.29619 25.9083 4.34354 25.9225 4.36485 25.9604C4.46312 26.1463 4.56967 26.3262 4.67977 26.4955C4.70345 26.5322 4.69279 26.5808 4.65609 26.6044C4.64307 26.6127 4.62768 26.6175 4.61347 26.6175H4.61466ZM3.90431 25.2205C3.87353 25.2205 3.84393 25.2015 3.83091 25.1707C3.75514 24.9789 3.68411 24.7789 3.61899 24.574C3.60597 24.5326 3.62846 24.4888 3.6699 24.4758C3.71133 24.4628 3.75514 24.4853 3.76816 24.5267C3.83209 24.728 3.90194 24.9245 3.97653 25.1139C3.99192 25.1542 3.97298 25.2003 3.93273 25.2157C3.92325 25.2193 3.91378 25.2216 3.90431 25.2216V25.2205ZM3.44732 23.7193C3.41181 23.7193 3.37866 23.6944 3.37037 23.6577C3.35498 23.589 3.33959 23.5204 3.32538 23.4517C3.29697 23.3144 3.26974 23.1759 3.24606 23.0373C3.23896 22.9947 3.26737 22.9545 3.30999 22.9462C3.35261 22.9379 3.39286 22.9675 3.40115 23.0101C3.42483 23.1474 3.45088 23.2836 3.47929 23.4197C3.4935 23.4872 3.5077 23.5547 3.52309 23.6222C3.53256 23.6648 3.50652 23.7062 3.4639 23.7157C3.45798 23.7169 3.45206 23.7181 3.44614 23.7181L3.44732 23.7193ZM3.20344 22.1695C3.16319 22.1695 3.12885 22.1387 3.1253 22.0973C3.10754 21.883 3.09807 21.6711 3.0957 21.4639C3.0957 21.4201 3.13004 21.3846 3.17384 21.3846C3.21646 21.3846 3.25198 21.4189 3.25198 21.4627C3.25435 21.6652 3.26382 21.8747 3.28039 22.0843C3.28394 22.1269 3.25198 22.1648 3.20817 22.1683C3.20581 22.1683 3.20344 22.1683 3.20225 22.1683L3.20344 22.1695ZM3.2212 20.602C3.2212 20.602 3.21528 20.602 3.21173 20.602C3.16911 20.5973 3.13832 20.5582 3.14306 20.5156C3.16674 20.3025 3.20107 20.0918 3.24369 19.8881C3.25316 19.8455 3.2946 19.8183 3.33722 19.8278C3.37984 19.8372 3.40707 19.8787 3.3976 19.9213C3.35616 20.119 3.32301 20.3262 3.29934 20.5334C3.2946 20.5736 3.26027 20.6032 3.2212 20.6032V20.602ZM8.92526 20.029C8.87909 20.0267 8.83884 20.0278 8.79503 20.0243C8.75123 20.0207 8.71926 19.9829 8.72282 19.9402C8.72637 19.8964 8.76307 19.8645 8.80687 19.868C8.84594 19.8704 8.88738 19.868 8.92526 19.8727C9.08983 19.8727 9.24729 19.8455 9.39172 19.7922C9.43197 19.7769 9.47696 19.7982 9.49235 19.8384C9.50775 19.8787 9.48643 19.9237 9.44618 19.939C9.28399 19.9982 9.10877 20.029 8.92526 20.029ZM7.92131 19.7177C7.90592 19.7177 7.89171 19.7129 7.8775 19.7046C7.78516 19.6431 7.69755 19.5744 7.61941 19.4986C7.54246 19.4252 7.47024 19.3459 7.40276 19.2607C7.37553 19.2263 7.38145 19.1778 7.41578 19.1506C7.45011 19.1233 7.49865 19.1293 7.52588 19.1636C7.58863 19.2429 7.6573 19.3175 7.72833 19.385C7.80055 19.4536 7.87987 19.5164 7.96511 19.5732C8.00182 19.5969 8.01129 19.6454 7.98761 19.6821C7.97222 19.7046 7.94736 19.7177 7.92249 19.7177H7.92131ZM10.1068 19.3329C10.095 19.3329 10.0831 19.3305 10.0713 19.3246C10.0322 19.3045 10.0168 19.2571 10.037 19.2192C10.1234 19.0511 10.1743 18.8581 10.1885 18.6462C10.192 18.6024 10.2299 18.5716 10.2725 18.5728C10.3164 18.5764 10.3483 18.6131 10.346 18.6569C10.3294 18.8889 10.2726 19.102 10.1767 19.2903C10.1624 19.3175 10.1352 19.3329 10.1068 19.3329ZM3.58702 19.0795C3.57755 19.0795 3.56808 19.0783 3.55861 19.0748C3.51836 19.0594 3.49823 19.0132 3.51362 18.973C3.59058 18.7753 3.67937 18.5799 3.77763 18.394C3.79776 18.3562 3.84512 18.3408 3.88419 18.3609C3.92207 18.381 3.93746 18.4284 3.91733 18.4675C3.82144 18.6486 3.73501 18.838 3.66043 19.0298C3.64859 19.0606 3.61899 19.0795 3.58702 19.0795ZM7.02272 18.4639C6.99076 18.4639 6.95998 18.4438 6.94814 18.4106C6.88184 18.22 6.82738 18.0116 6.78713 17.7914C6.77884 17.7488 6.80725 17.7074 6.84987 17.7003C6.89249 17.6932 6.93393 17.7204 6.94103 17.763C6.9801 17.9749 7.0322 18.175 7.09613 18.3585C7.11033 18.4 7.08902 18.4438 7.04759 18.458C7.0393 18.4615 7.02983 18.4627 7.02154 18.4627L7.02272 18.4639ZM10.121 17.8068C10.089 17.8068 10.0594 17.7879 10.0476 17.7559C9.9742 17.5629 9.87594 17.3854 9.75755 17.2255C9.7315 17.1912 9.73861 17.1415 9.77294 17.1154C9.80727 17.0894 9.857 17.0965 9.88304 17.1308C10.0109 17.3013 10.1151 17.4931 10.1944 17.6991C10.2098 17.7393 10.1897 17.7855 10.1494 17.8009C10.14 17.8045 10.1305 17.8056 10.121 17.8056V17.8068ZM4.3613 17.7192C4.34473 17.7192 4.32697 17.7133 4.31276 17.7026C4.27843 17.6754 4.27369 17.6257 4.29974 17.5925C4.43352 17.4244 4.57796 17.2646 4.7295 17.1202C4.76028 17.0906 4.81 17.0918 4.84078 17.1225C4.87038 17.1533 4.8692 17.203 4.83841 17.2338C4.69279 17.3735 4.55309 17.5274 4.42286 17.6908C4.40747 17.7098 4.38498 17.7204 4.3613 17.7204V17.7192ZM6.77765 16.9189C6.73503 16.9189 6.69952 16.8846 6.69952 16.8408V16.7745C6.69952 16.5862 6.7078 16.3944 6.72556 16.205C6.72911 16.1624 6.767 16.1292 6.8108 16.134C6.85343 16.1375 6.88539 16.1766 6.88184 16.2192C6.86408 16.4039 6.85579 16.5898 6.85579 16.7733V16.8372C6.85579 16.881 6.82146 16.9165 6.77884 16.9165L6.77765 16.9189ZM5.52982 16.6833C5.50259 16.6833 5.47654 16.6691 5.46233 16.6454C5.43984 16.6087 5.45168 16.5602 5.48956 16.5377C5.61032 16.4655 5.73463 16.4003 5.86013 16.3412C5.92761 16.3104 5.99509 16.282 6.06376 16.2547C6.10401 16.2393 6.15018 16.2595 6.16558 16.2997C6.18097 16.34 6.16084 16.3861 6.12059 16.4015C6.05429 16.4264 5.99036 16.4548 5.92643 16.4844C5.80567 16.5401 5.68609 16.604 5.57007 16.6726C5.55705 16.6798 5.54402 16.6833 5.52982 16.6833ZM9.11942 16.6371C9.10522 16.6371 9.09101 16.6336 9.07799 16.6253C8.90751 16.5199 8.72163 16.4323 8.52747 16.3625C8.48722 16.3483 8.46591 16.3033 8.48011 16.2618C8.49432 16.2204 8.53931 16.2003 8.58075 16.2145C8.78556 16.2879 8.98091 16.3814 9.16086 16.4915C9.19756 16.514 9.2094 16.5625 9.18691 16.5992C9.17152 16.6229 9.14665 16.6371 9.11942 16.6371ZM7.00615 16.1884C6.9659 16.1884 6.93275 16.1588 6.92801 16.1186C6.92328 16.076 6.95524 16.0369 6.99786 16.0322C7.20978 16.0097 7.42644 16.0061 7.63836 16.0203C7.68216 16.0239 7.71413 16.0606 7.71176 16.1044C7.70939 16.1482 7.67269 16.179 7.6277 16.1778C7.42407 16.1636 7.21688 16.1683 7.01444 16.1896C7.01207 16.1896 7.00852 16.1896 7.00615 16.1896V16.1884ZM6.96234 15.3644C6.95643 15.3644 6.94932 15.3644 6.9434 15.3621C6.90078 15.3514 6.87592 15.3088 6.88657 15.2673C6.9363 15.0637 6.99786 14.8589 7.06771 14.6588C7.08192 14.6174 7.12691 14.5961 7.16716 14.6103C7.2086 14.6245 7.22991 14.6695 7.2157 14.7097C7.14703 14.9063 7.08784 15.1063 7.0393 15.3041C7.03101 15.3396 6.99786 15.3632 6.96353 15.3632L6.96234 15.3644ZM7.50931 13.8964C7.49747 13.8964 7.48563 13.894 7.47379 13.8881C7.43472 13.868 7.41933 13.8218 7.43946 13.7827C7.53417 13.5957 7.63836 13.4098 7.74964 13.2287C7.77214 13.192 7.82068 13.1801 7.85738 13.2026C7.89408 13.2251 7.90592 13.2736 7.88342 13.3104C7.77451 13.4868 7.67269 13.6691 7.58034 13.8526C7.56614 13.8798 7.53891 13.8952 7.51049 13.8952L7.50931 13.8964ZM8.35817 12.5787C8.34041 12.5787 8.32384 12.5728 8.30963 12.5609C8.2753 12.5337 8.27056 12.484 8.29779 12.4508C8.42921 12.2863 8.57009 12.1253 8.71453 11.9725C8.74413 11.9406 8.79385 11.9394 8.82581 11.969C8.85778 11.9986 8.85896 12.0483 8.82937 12.0803C8.6873 12.2306 8.54996 12.3881 8.42092 12.5491C8.40553 12.568 8.38303 12.5787 8.35936 12.5787H8.35817ZM9.45802 11.4623C9.43553 11.4623 9.41303 11.4528 9.39764 11.4339C9.37041 11.4007 9.37515 11.351 9.4083 11.3238C9.57168 11.1888 9.74097 11.0597 9.91264 10.9402C9.94816 10.9153 9.9967 10.9248 10.0216 10.9591C10.0464 10.9946 10.0381 11.0432 10.0026 11.068C9.8345 11.1852 9.66757 11.3119 9.50775 11.4445C9.49354 11.4564 9.47578 11.4623 9.45802 11.4623ZM10.7627 10.5933C10.7343 10.5933 10.707 10.5779 10.6928 10.5507C10.6727 10.5128 10.6881 10.4642 10.726 10.4441C10.9119 10.347 11.1048 10.2559 11.299 10.173C11.3392 10.1564 11.3854 10.1742 11.402 10.2144C11.4186 10.2547 11.4008 10.3009 11.3606 10.3174C11.17 10.3991 10.9805 10.4879 10.7982 10.5838C10.7864 10.5897 10.7745 10.5933 10.7615 10.5933H10.7627ZM18.7789 10.2867C18.7695 10.2867 18.7612 10.2855 18.7517 10.2819C18.6274 10.2369 18.5007 10.1931 18.374 10.1529C18.3326 10.1398 18.3101 10.0949 18.3231 10.0546C18.3361 10.0132 18.3799 9.99067 18.4214 10.0037C18.5492 10.0451 18.6771 10.0889 18.8038 10.1351C18.844 10.1493 18.8653 10.1955 18.8511 10.2357C18.8393 10.2677 18.8097 10.2878 18.7777 10.2878L18.7789 10.2867ZM12.2153 10.0037C12.1822 10.0037 12.1502 9.98239 12.1408 9.94805C12.1277 9.90662 12.1514 9.86281 12.1928 9.84979C12.3929 9.78941 12.5989 9.73495 12.8049 9.68878C12.8464 9.67931 12.889 9.70535 12.8985 9.74797C12.9079 9.79059 12.8819 9.83203 12.8393 9.8415C12.6368 9.88767 12.4344 9.94095 12.2378 10.0001C12.2307 10.0025 12.2224 10.0037 12.2153 10.0037ZM17.4932 9.90425C17.4873 9.90425 17.4814 9.90425 17.4754 9.90188C17.273 9.85453 17.0682 9.81191 16.8645 9.77639C16.8219 9.76928 16.7935 9.72785 16.8006 9.68523C16.8077 9.64261 16.8492 9.61419 16.8918 9.6213C17.0978 9.658 17.3061 9.70062 17.511 9.74916C17.5536 9.75863 17.5796 9.80125 17.569 9.84387C17.5607 9.88057 17.5287 9.90425 17.4932 9.90425ZM13.7497 9.68286C13.7106 9.68286 13.6763 9.65326 13.6715 9.61419C13.6668 9.57157 13.6964 9.5325 13.7402 9.52658C13.9474 9.50054 14.1605 9.48159 14.3701 9.46976C14.4127 9.46857 14.4506 9.50054 14.4529 9.54316C14.4553 9.58696 14.4221 9.62366 14.3795 9.62603C14.1723 9.63787 13.964 9.65681 13.7592 9.68167C13.7556 9.68167 13.7532 9.68167 13.7497 9.68167V9.68286ZM15.9435 9.65208C15.9435 9.65208 15.9387 9.65208 15.9364 9.65208C15.7292 9.63313 15.5196 9.62011 15.3136 9.61419C15.2698 9.61301 15.2367 9.57631 15.2379 9.53369C15.239 9.48988 15.2805 9.45673 15.3184 9.45792C15.5267 9.46502 15.7398 9.47804 15.9494 9.49699C15.992 9.50054 16.024 9.53961 16.0204 9.58223C16.0169 9.62248 15.9825 9.65326 15.9423 9.65326L15.9435 9.65208Z" fill="#474747"/>
<path d="M20.5767 13.0818C20.5389 13.0818 20.5057 13.0545 20.4998 13.0167C20.4631 12.8095 20.4347 12.5987 20.4157 12.388C20.4122 12.3442 20.4441 12.3063 20.4868 12.3028C20.5317 12.2992 20.5685 12.3312 20.572 12.3738C20.5909 12.5798 20.6182 12.787 20.6549 12.9894C20.662 13.0321 20.6336 13.0723 20.5909 13.0806C20.5862 13.0806 20.5815 13.0818 20.5767 13.0818ZM20.4678 11.5178H20.4654C20.4216 11.5167 20.3885 11.4799 20.3897 11.4361C20.3968 11.2278 20.4122 11.0147 20.437 10.8039C20.4418 10.7613 20.4808 10.7282 20.5235 10.7353C20.5661 10.74 20.598 10.7791 20.5921 10.8217C20.5684 11.0289 20.5531 11.2372 20.546 11.4409C20.5448 11.4835 20.5093 11.5167 20.4678 11.5167V11.5178ZM20.675 9.96455C20.675 9.96455 20.6632 9.96455 20.6572 9.96218C20.6146 9.95271 20.5886 9.91009 20.598 9.86747C20.6454 9.66383 20.701 9.45784 20.7626 9.25657C20.7756 9.21513 20.8194 9.19146 20.8609 9.20448C20.9023 9.2175 20.926 9.26131 20.913 9.30274C20.8514 9.50164 20.7969 9.70409 20.7508 9.90298C20.7425 9.93969 20.7105 9.96336 20.6738 9.96336L20.675 9.96455ZM48.3263 9.23053C48.2885 9.23053 48.2553 9.20329 48.2494 9.16423C48.2162 8.96178 48.1736 8.75696 48.1227 8.55688C48.1121 8.51426 48.1369 8.47164 48.1795 8.46098C48.221 8.45033 48.2648 8.47519 48.2754 8.51781C48.3275 8.72263 48.3713 8.93218 48.4057 9.13936C48.4128 9.18198 48.3832 9.22224 48.3405 9.22934C48.3358 9.22934 48.3323 9.22934 48.3275 9.22934L48.3263 9.23053ZM21.1616 8.47401C21.1509 8.47401 21.1415 8.47164 21.1308 8.46809C21.0906 8.45151 21.0728 8.40534 21.0894 8.36509C21.1711 8.1733 21.2599 7.98032 21.3546 7.79089C21.3735 7.75182 21.4209 7.73643 21.4599 7.75538C21.499 7.77432 21.5144 7.82167 21.4954 7.86074C21.4019 8.04662 21.3143 8.23723 21.2338 8.42547C21.2208 8.45506 21.1924 8.47282 21.1616 8.47282V8.47401ZM47.9096 7.71986C47.8788 7.71986 47.8492 7.70092 47.8362 7.67013C47.7616 7.47953 47.6776 7.28773 47.5876 7.10068C47.5686 7.06161 47.5852 7.01425 47.6243 6.99531C47.6634 6.97636 47.7107 6.99294 47.7297 7.03201C47.822 7.22262 47.9072 7.41796 47.9842 7.61331C47.9996 7.65356 47.9806 7.69973 47.9392 7.71512C47.9297 7.71867 47.9203 7.72104 47.9108 7.72104L47.9096 7.71986ZM21.8861 7.0841C21.8719 7.0841 21.8577 7.08055 21.8447 7.07226C21.808 7.04977 21.7962 7.00123 21.8198 6.96453C21.9311 6.78694 22.0483 6.60935 22.1703 6.43769C22.1951 6.40217 22.2449 6.39388 22.2792 6.41874C22.3147 6.44361 22.323 6.49333 22.2981 6.52766C22.1774 6.69696 22.0614 6.871 21.9524 7.04622C21.937 7.06989 21.9122 7.08292 21.8861 7.08292V7.0841ZM47.2004 6.32166C47.1744 6.32166 47.1484 6.30864 47.1341 6.28496C47.0252 6.11093 46.908 5.93808 46.7849 5.76996C46.7588 5.73445 46.7671 5.68591 46.8027 5.65986C46.8382 5.63381 46.8867 5.6421 46.9128 5.67762C47.0371 5.84928 47.1566 6.02569 47.2679 6.20209C47.2904 6.23879 47.2798 6.28733 47.2431 6.30982C47.23 6.31811 47.2158 6.32166 47.2016 6.32166H47.2004ZM22.8131 5.81732C22.7954 5.81732 22.7776 5.8114 22.7622 5.79838C22.7291 5.76996 22.7255 5.72024 22.7528 5.68827C22.8889 5.52845 23.031 5.3698 23.1766 5.21826C23.2062 5.18748 23.2559 5.1863 23.2879 5.21589C23.3187 5.24549 23.3198 5.29522 23.2903 5.32718C23.147 5.47754 23.0073 5.63263 22.8723 5.79009C22.8569 5.80785 22.8344 5.81732 22.812 5.81732H22.8131ZM46.2569 5.06909C46.2356 5.06909 46.2142 5.05962 46.1989 5.04304C46.0615 4.88914 45.9171 4.73641 45.7691 4.59079C45.7383 4.56001 45.7383 4.51029 45.7691 4.4795C45.7999 4.44872 45.8496 4.44872 45.8804 4.4795C46.0296 4.62749 46.1764 4.7814 46.3161 4.93886C46.3445 4.97083 46.3421 5.02055 46.3101 5.05015C46.2948 5.06317 46.277 5.07027 46.2581 5.07027L46.2569 5.06909ZM23.913 4.69853C23.8917 4.69853 23.8692 4.68906 23.8538 4.67248C23.8254 4.63933 23.8277 4.59079 23.8609 4.56119C24.0184 4.42268 24.1829 4.28653 24.3475 4.15748C24.3818 4.13025 24.4315 4.13735 24.4576 4.1705C24.4848 4.20484 24.4777 4.25456 24.4446 4.28061C24.2812 4.40847 24.1202 4.54225 23.9651 4.6784C23.9497 4.69142 23.9319 4.69853 23.913 4.69853ZM45.1239 3.98345C45.1061 3.98345 45.0884 3.97753 45.0741 3.96569C44.9143 3.83427 44.7486 3.70641 44.5805 3.58447C44.5449 3.55842 44.5378 3.50988 44.5627 3.47437C44.5876 3.43885 44.6373 3.43175 44.6728 3.45661C44.8433 3.57973 45.0114 3.70996 45.1736 3.84375C45.2067 3.87098 45.2115 3.9207 45.1842 3.95385C45.1689 3.97279 45.1464 3.98226 45.1239 3.98226V3.98345ZM25.162 3.74903C25.136 3.74903 25.1111 3.73601 25.0969 3.71352C25.0732 3.67681 25.0827 3.62827 25.1194 3.6046C25.2934 3.49094 25.4746 3.37847 25.6557 3.27073C25.6936 3.24824 25.7409 3.26126 25.7634 3.29915C25.7859 3.33703 25.7729 3.38439 25.735 3.40688C25.5551 3.51225 25.3775 3.62354 25.2046 3.73601C25.1916 3.7443 25.1762 3.74903 25.162 3.74903ZM43.8393 3.08249C43.8251 3.08249 43.8121 3.07894 43.7991 3.07184C43.6902 3.00672 43.5801 2.94398 43.4688 2.8836C43.3977 2.84453 43.3267 2.80664 43.2545 2.76994C43.2154 2.74982 43.2012 2.70246 43.2213 2.66457C43.2415 2.62669 43.2888 2.6113 43.3267 2.63142C43.3989 2.66931 43.4723 2.70719 43.5445 2.74626C43.657 2.80783 43.7695 2.87176 43.8808 2.93687C43.9175 2.95937 43.9305 3.00672 43.908 3.04461C43.8938 3.06947 43.8677 3.08249 43.8405 3.08249H43.8393ZM26.5247 2.97002C26.4963 2.97002 26.4679 2.95463 26.4548 2.92622C26.4359 2.88715 26.4513 2.83979 26.4904 2.82085C26.6762 2.7285 26.868 2.63853 27.0622 2.55329C27.1024 2.53553 27.1486 2.55329 27.1652 2.59354C27.1829 2.63261 27.1652 2.67996 27.1249 2.69654C26.9331 2.7806 26.7437 2.87057 26.559 2.96173C26.5484 2.96765 26.5365 2.97002 26.5247 2.97002ZM42.4388 2.37807C42.4281 2.37807 42.4186 2.3757 42.408 2.37215C42.2197 2.29283 42.0244 2.21469 41.8279 2.14247C41.7876 2.12708 41.7663 2.08209 41.7817 2.04184C41.7971 2.00159 41.8421 1.98028 41.8823 1.99567C42.0812 2.06907 42.2789 2.14721 42.4696 2.22771C42.5098 2.24429 42.5276 2.29046 42.511 2.33071C42.498 2.36031 42.4695 2.37807 42.4388 2.37807ZM27.9655 2.34965C27.9335 2.34965 27.9039 2.32953 27.8921 2.29875C27.8767 2.25849 27.898 2.21351 27.9383 2.19811C28.1336 2.1259 28.3337 2.05723 28.535 1.99093C28.5764 1.97791 28.6202 2.0004 28.6344 2.04184C28.6474 2.08328 28.6249 2.12708 28.5835 2.14129C28.3846 2.2064 28.1857 2.27507 27.9927 2.3461C27.9833 2.34965 27.975 2.35084 27.9655 2.35084V2.34965ZM29.462 1.87846C29.4276 1.87846 29.3957 1.85478 29.3862 1.82045C29.3755 1.77901 29.4004 1.73521 29.4418 1.72455C29.6407 1.67128 29.8467 1.62037 30.0539 1.57301C30.0965 1.56354 30.138 1.58959 30.1486 1.63221C30.1581 1.67483 30.1321 1.71626 30.0894 1.72692C29.8834 1.77428 29.6798 1.82518 29.4821 1.87728C29.475 1.87846 29.4691 1.87964 29.462 1.87964V1.87846ZM40.9601 1.85241C40.953 1.85241 40.9459 1.85241 40.9376 1.84886C40.741 1.79203 40.5374 1.73639 40.3338 1.68667C40.2912 1.67601 40.2663 1.63339 40.277 1.59195C40.2876 1.54933 40.329 1.52447 40.3717 1.53513C40.5777 1.58603 40.7825 1.64168 40.9814 1.69969C41.0228 1.71153 41.0465 1.75533 41.0347 1.79677C41.0252 1.8311 40.9932 1.8536 40.9589 1.8536L40.9601 1.85241ZM30.9951 1.53868C30.9584 1.53868 30.9253 1.51263 30.9182 1.47356C30.9111 1.43094 30.9383 1.38951 30.9809 1.3824C31.1881 1.3457 31.3953 1.31137 31.6025 1.2794C31.6463 1.27348 31.6853 1.30308 31.6924 1.3457C31.6984 1.38832 31.6699 1.42857 31.6261 1.43568C31.4201 1.46646 31.2141 1.50079 31.0093 1.53749C31.0046 1.53749 30.9999 1.53868 30.9951 1.53868ZM39.4328 1.49132C39.4328 1.49132 39.4234 1.49132 39.4186 1.49014C39.2174 1.45225 39.0102 1.41792 38.8018 1.38714C38.7592 1.38122 38.7296 1.34097 38.7355 1.29834C38.7414 1.25572 38.7817 1.22731 38.8243 1.23205C39.035 1.26401 39.2434 1.29834 39.447 1.33623C39.4897 1.34452 39.5181 1.38477 39.5098 1.42739C39.5027 1.46528 39.4695 1.49132 39.4328 1.49132ZM32.5484 1.31492C32.5093 1.31492 32.475 1.28532 32.4703 1.24507C32.4655 1.20245 32.4963 1.16338 32.5401 1.15864C32.7485 1.13615 32.958 1.11602 33.1676 1.09826C33.2126 1.09471 33.2493 1.12668 33.2528 1.1693C33.2564 1.2131 33.2244 1.25099 33.1806 1.25454C32.9722 1.2723 32.7651 1.29243 32.5579 1.31492C32.5555 1.31492 32.552 1.31492 32.5496 1.31492H32.5484ZM37.8784 1.26993C37.8784 1.26993 37.8736 1.26993 37.8701 1.26993C37.6629 1.24862 37.4545 1.23086 37.2462 1.21666C37.2023 1.2131 37.1704 1.1764 37.1739 1.1326C37.1775 1.08879 37.2154 1.05683 37.258 1.06038C37.4675 1.07459 37.6771 1.09353 37.8866 1.11366C37.9293 1.11839 37.9612 1.15628 37.9565 1.20008C37.9529 1.24033 37.9186 1.27111 37.8784 1.27111V1.26993ZM34.1135 1.19179C34.0721 1.19179 34.0378 1.15864 34.0354 1.11721C34.033 1.0734 34.0662 1.0367 34.11 1.03552C34.3195 1.02486 34.5303 1.01776 34.7398 1.01184C34.7813 1.01184 34.8191 1.04499 34.8203 1.08761C34.8203 1.13141 34.7872 1.16693 34.7446 1.16811C34.5362 1.17403 34.3278 1.18114 34.1183 1.19179C34.1171 1.19179 34.1159 1.19179 34.1147 1.19179H34.1135ZM36.312 1.1693H36.3097C36.1013 1.16338 35.8918 1.15864 35.6834 1.15746C35.6396 1.15746 35.6053 1.12194 35.6053 1.07814C35.6053 1.03552 35.6408 1 35.6834 1C35.8929 1.00118 36.1037 1.00474 36.3132 1.01184C36.357 1.01302 36.3902 1.04972 36.389 1.09234C36.3878 1.13497 36.3523 1.16811 36.3109 1.16811L36.312 1.1693Z" fill="#474747"/>
<path d="M62.8462 21.8817C62.8462 21.8817 62.8356 21.8817 62.8297 21.8793C62.787 21.8699 62.7598 21.8284 62.7693 21.7858C62.7847 21.7171 62.7977 21.6497 62.8119 21.581C62.8202 21.5384 62.8616 21.5111 62.9042 21.5194C62.9469 21.5277 62.9741 21.5692 62.9658 21.6118C62.9516 21.6816 62.9374 21.7515 62.922 21.8201C62.9137 21.8568 62.8817 21.8817 62.845 21.8817H62.8462ZM63.0191 20.7428C63.0191 20.7428 63.0143 20.7428 63.012 20.7428C62.9682 20.7392 62.9362 20.7013 62.9409 20.6575C62.9587 20.4504 62.9682 20.2408 62.9717 20.036C62.9717 19.9934 63.0072 19.959 63.0499 19.959C63.0937 19.959 63.128 19.9957 63.1268 20.0384C63.1244 20.2479 63.1138 20.4598 63.096 20.6706C63.0925 20.712 63.0581 20.7428 63.0179 20.7428H63.0191ZM63.012 19.1753C62.9717 19.1753 62.9374 19.1445 62.9338 19.1043C62.9137 18.8983 62.8865 18.6911 62.851 18.4874C62.8439 18.4448 62.8723 18.4046 62.9149 18.3963C62.9563 18.3892 62.9978 18.4176 63.0061 18.4602C63.0416 18.6674 63.07 18.8781 63.0901 19.0889C63.0937 19.1315 63.0629 19.1706 63.0191 19.1741C63.0167 19.1741 63.0143 19.1741 63.012 19.1741V19.1753ZM53.1263 18.6982C53.1263 18.6982 53.124 18.6982 53.1228 18.6982C52.886 18.6863 52.6717 18.6461 52.4847 18.5798C52.4432 18.5656 52.4231 18.5206 52.4373 18.4792C52.4515 18.4377 52.4965 18.4176 52.5379 18.4318C52.7096 18.4934 52.9097 18.5301 53.1311 18.5407C53.1749 18.5431 53.208 18.5798 53.2057 18.6236C53.2033 18.665 53.169 18.6982 53.1275 18.6982H53.1263ZM54.064 18.626C54.0261 18.626 53.993 18.5987 53.987 18.5608C53.9799 18.5182 54.0084 18.478 54.051 18.4697C54.2522 18.4342 54.4547 18.3868 54.6536 18.3288C54.6962 18.317 54.7388 18.3406 54.7507 18.3821C54.7625 18.4235 54.7388 18.4673 54.6974 18.4792C54.4926 18.5395 54.2842 18.5881 54.0782 18.6248C54.0735 18.6248 54.0687 18.6248 54.064 18.6248V18.626ZM55.5534 18.1453C55.5238 18.1453 55.4965 18.1287 55.4823 18.1003C55.4634 18.0612 55.48 18.0139 55.519 17.9961C55.7037 17.9073 55.8872 17.8079 56.0636 17.7001C56.1003 17.6776 56.1489 17.6895 56.1714 17.7262C56.1939 17.7629 56.182 17.8114 56.1453 17.8339C55.9642 17.9452 55.7771 18.047 55.5865 18.1382C55.5759 18.1429 55.564 18.1453 55.5522 18.1453H55.5534ZM51.8098 17.9914C51.7814 17.9914 51.7542 17.976 51.74 17.9488C51.6476 17.7664 51.5932 17.5522 51.579 17.313C51.5766 17.2692 51.6098 17.2325 51.6524 17.2301C51.695 17.2278 51.7329 17.2609 51.7353 17.3035C51.7483 17.5214 51.7956 17.7143 51.8797 17.8765C51.8998 17.9156 51.8844 17.963 51.8454 17.9819C51.8335 17.9878 51.8217 17.9902 51.8098 17.9902V17.9914ZM62.7136 17.6362C62.6793 17.6362 62.6485 17.6137 62.639 17.5806C62.5787 17.3805 62.5112 17.1828 62.4366 16.9934C62.4212 16.9531 62.4401 16.9069 62.4816 16.8915C62.5218 16.8761 62.568 16.8951 62.5834 16.9365C62.6592 17.1307 62.729 17.3319 62.7894 17.5368C62.8024 17.5782 62.7787 17.622 62.7373 17.635C62.7302 17.6374 62.7219 17.6386 62.7148 17.6386L62.7136 17.6362ZM56.8687 17.2941C56.8462 17.2941 56.8249 17.2846 56.8083 17.2668C56.7799 17.2337 56.7846 17.184 56.8178 17.1567C56.9752 17.0229 57.128 16.8797 57.2688 16.7329C57.2984 16.7021 57.3482 16.7009 57.3801 16.7305C57.4121 16.7601 57.4121 16.8098 57.3825 16.8418C57.2369 16.9934 57.0806 17.1402 56.9196 17.2775C56.9054 17.2905 56.8864 17.2964 56.8687 17.2964V17.2941ZM51.7755 16.4559C51.7684 16.4559 51.7613 16.4559 51.7542 16.4535C51.7128 16.4416 51.6879 16.399 51.6997 16.3564C51.7566 16.1528 51.8288 15.9503 51.9152 15.755C51.933 15.7159 51.9791 15.697 52.0182 15.7147C52.0585 15.7325 52.0762 15.7787 52.0585 15.8177C51.9756 16.006 51.9057 16.2013 51.8513 16.3978C51.8418 16.4322 51.8098 16.4559 51.7755 16.4559ZM62.1086 16.1907C62.0814 16.1907 62.0542 16.1765 62.04 16.1504C61.9512 15.9906 61.8553 15.8319 61.7547 15.6804L61.7144 15.6212C61.6896 15.5857 61.699 15.536 61.7345 15.5123C61.7701 15.4886 61.8186 15.4969 61.8435 15.5336L61.8849 15.594C61.9879 15.7491 62.0862 15.9113 62.1761 16.0746C62.1974 16.1125 62.1832 16.1599 62.1453 16.1812C62.1335 16.1883 62.1205 16.1907 62.1075 16.1907H62.1086ZM57.9224 16.1362C57.907 16.1362 57.8916 16.1315 57.8774 16.122C57.8419 16.0971 57.8336 16.0486 57.8584 16.0131C57.9756 15.845 58.0869 15.6686 58.1876 15.4874C58.2089 15.4495 58.2562 15.4365 58.2941 15.4578C58.332 15.4791 58.345 15.5265 58.3249 15.5644C58.2219 15.7491 58.1082 15.9302 57.9875 16.1031C57.9721 16.1244 57.9472 16.1362 57.9235 16.1362H57.9224ZM52.4527 15.0482C52.4373 15.0482 52.4207 15.0435 52.4077 15.034C52.3722 15.0091 52.3639 14.9594 52.3888 14.9251C52.5107 14.7534 52.6457 14.5876 52.7901 14.4302C52.8197 14.3982 52.8694 14.3959 52.9014 14.4255C52.9334 14.4551 52.9357 14.5048 52.9061 14.5367C52.7653 14.6895 52.635 14.8505 52.5166 15.0162C52.5012 15.0375 52.4776 15.0494 52.4527 15.0494V15.0482ZM61.1947 14.918C61.1734 14.918 61.1521 14.9097 61.1367 14.8931C60.997 14.7416 60.849 14.5948 60.6951 14.4574C60.6631 14.429 60.6596 14.3793 60.6891 14.3461C60.7187 14.3142 60.7673 14.3106 60.8004 14.3402C60.9579 14.4811 61.1094 14.6315 61.2527 14.7865C61.2823 14.8185 61.2799 14.8682 61.248 14.8978C61.2326 14.912 61.2136 14.9191 61.1947 14.9191V14.918ZM58.6552 14.7522C58.6457 14.7522 58.6363 14.751 58.6268 14.7475C58.5865 14.7321 58.5664 14.6859 58.5818 14.6457C58.6552 14.4539 58.7215 14.2562 58.7783 14.0573C58.7902 14.0158 58.834 13.991 58.8754 14.0028C58.9168 14.0146 58.9417 14.0584 58.9299 14.0999C58.8718 14.3035 58.8044 14.5071 58.7298 14.7025C58.7179 14.7333 58.6883 14.7522 58.6564 14.7522H58.6552ZM53.5454 13.9306C53.5218 13.9306 53.4981 13.9199 53.4827 13.8998C53.4567 13.8655 53.4638 13.8157 53.4981 13.7897C53.6662 13.663 53.845 13.5434 54.0273 13.4357C54.0652 13.4132 54.1125 13.4262 54.135 13.4641C54.1575 13.502 54.1445 13.5494 54.1066 13.5719C53.929 13.676 53.7562 13.7921 53.5928 13.9152C53.5786 13.9258 53.562 13.9306 53.5454 13.9306ZM60.0049 13.8998C59.9895 13.8998 59.9741 13.8951 59.961 13.8868C59.7882 13.7719 59.6094 13.6642 59.4295 13.5671C59.3916 13.547 59.3774 13.4985 59.3975 13.4606C59.4176 13.4227 59.4662 13.4085 59.5041 13.4286C59.6887 13.5281 59.8723 13.6382 60.0487 13.7565C60.0854 13.7802 60.0948 13.8299 60.07 13.8655C60.0546 13.888 60.0297 13.8998 60.0049 13.8998ZM59.0471 13.2344C59.0471 13.2344 59.04 13.2344 59.0364 13.2344C58.9938 13.2285 58.963 13.1883 58.9701 13.1457C58.9985 12.942 59.0187 12.7337 59.0293 12.5277C59.0317 12.4838 59.0636 12.4507 59.1122 12.4531C59.156 12.4554 59.1891 12.4921 59.1868 12.5359C59.1761 12.7467 59.156 12.9598 59.1264 13.1681C59.1205 13.2072 59.0873 13.2356 59.0483 13.2356L59.0471 13.2344ZM58.6067 13.193C58.5984 13.193 58.5889 13.1918 58.5806 13.1883C58.3853 13.1184 58.1852 13.0592 57.9875 13.0107C57.9449 13 57.92 12.9586 57.9295 12.916C57.9401 12.8734 57.9816 12.8473 58.0242 12.858C58.2278 12.9077 58.4326 12.9692 58.6327 13.0403C58.673 13.0545 58.6943 13.0995 58.6801 13.1409C58.6682 13.1729 58.6386 13.193 58.6067 13.193ZM54.9176 13.1776C54.8856 13.1776 54.856 13.1575 54.8442 13.1267C54.8288 13.0865 54.8501 13.0415 54.8904 13.0261C55.0904 12.9515 55.2953 12.8887 55.5001 12.8402C55.5427 12.8295 55.5841 12.8556 55.5948 12.8982C55.6055 12.9408 55.5794 12.9823 55.5368 12.9929C55.3379 13.0403 55.139 13.1018 54.946 13.1741C54.9365 13.1776 54.9283 13.1788 54.9188 13.1788L54.9176 13.1776ZM57.077 12.8674C57.077 12.8674 57.0735 12.8674 57.0711 12.8674C56.8651 12.8532 56.6579 12.8497 56.4531 12.8603C56.4093 12.8627 56.3726 12.8284 56.3714 12.7857C56.3691 12.7419 56.4022 12.7052 56.446 12.7041C56.6579 12.6946 56.871 12.6969 57.083 12.7112C57.1268 12.7147 57.1587 12.7514 57.1564 12.7952C57.154 12.8367 57.1185 12.8686 57.0782 12.8686L57.077 12.8674ZM59.0873 11.6681C59.0471 11.6681 59.0127 11.6374 59.0092 11.5971C58.9902 11.3887 58.9606 11.1815 58.9204 10.9838C58.9121 10.9412 58.9393 10.8998 58.982 10.8915C59.0258 10.8832 59.066 10.9104 59.0743 10.9531C59.1146 11.1567 59.1453 11.3686 59.1655 11.5829C59.169 11.6255 59.1382 11.6646 59.0944 11.6681C59.0921 11.6681 59.0897 11.6681 59.0873 11.6681ZM49.1934 10.8122C49.1745 10.8122 49.1543 10.8051 49.1401 10.7909C49.1082 10.7613 49.107 10.7115 49.1366 10.6796C49.2798 10.5268 49.4266 10.3753 49.5746 10.2261C49.6054 10.1954 49.6551 10.1954 49.6859 10.2261C49.7167 10.2569 49.7167 10.3066 49.6859 10.3374C49.5379 10.4854 49.3935 10.6358 49.2514 10.7873C49.236 10.8039 49.2147 10.8122 49.1946 10.8122H49.1934ZM58.7357 10.1433C58.7049 10.1433 58.6753 10.1243 58.6623 10.0935C58.5853 9.89819 58.4966 9.71113 58.3983 9.53592C58.377 9.49803 58.39 9.45068 58.4279 9.42937C58.4658 9.40805 58.5131 9.42108 58.5344 9.45896C58.6363 9.6401 58.7286 9.83426 58.8079 10.0355C58.8233 10.0758 58.8044 10.122 58.7629 10.1373C58.7535 10.1409 58.744 10.1433 58.7345 10.1433H58.7357ZM50.3122 9.71113C50.2909 9.71113 50.2696 9.70285 50.2542 9.68509C50.2258 9.65312 50.2281 9.6034 50.2601 9.5738C50.4223 9.42937 50.5845 9.29085 50.742 9.16417C50.7763 9.13694 50.8248 9.14168 50.8521 9.17601C50.8793 9.21034 50.8746 9.25888 50.8402 9.28611C50.6851 9.41161 50.5241 9.54776 50.3643 9.69101C50.3489 9.70403 50.3311 9.71113 50.3122 9.71113ZM57.9117 8.81847C57.8904 8.81847 57.8703 8.81018 57.8549 8.79361C57.7992 8.7356 57.7424 8.67877 57.6832 8.62431C57.5932 8.54143 57.4961 8.46211 57.3967 8.38871C57.3612 8.36266 57.3541 8.31412 57.3801 8.27861C57.4062 8.24309 57.4559 8.23599 57.4902 8.26203C57.5944 8.33899 57.6962 8.42186 57.7909 8.50947C57.8537 8.5663 57.9129 8.62549 57.9709 8.68705C58.0005 8.71902 57.9993 8.76874 57.9673 8.79834C57.952 8.81255 57.933 8.81965 57.9129 8.81965L57.9117 8.81847ZM51.5506 8.74743C51.5245 8.74743 51.4997 8.73559 51.4855 8.71192C51.4618 8.67522 51.4712 8.62668 51.5079 8.603C51.6879 8.48461 51.8702 8.37332 52.0502 8.27387C52.0881 8.25256 52.1354 8.26677 52.1567 8.30465C52.178 8.34254 52.1638 8.38989 52.1259 8.4112C51.9495 8.50947 51.7708 8.6172 51.5944 8.73441C51.5813 8.7427 51.566 8.74743 51.5517 8.74743H51.5506ZM52.9381 8.01933C52.9061 8.01933 52.8765 8.00039 52.8647 7.96961C52.8493 7.92935 52.8694 7.88318 52.9097 7.86779C52.9713 7.84411 53.0328 7.82043 53.0944 7.79912C53.2317 7.75058 53.3726 7.70678 53.5147 7.66889C53.5561 7.65706 53.5999 7.6831 53.6106 7.72454C53.6212 7.76598 53.5964 7.80978 53.5549 7.82043C53.4176 7.85714 53.2803 7.89976 53.1477 7.94711C53.0873 7.96842 53.0269 7.99092 52.9677 8.0146C52.9582 8.01815 52.9488 8.02052 52.9393 8.02052L52.9381 8.01933ZM56.6201 7.94948C56.6106 7.94948 56.6011 7.9483 56.5905 7.94356C56.4034 7.86897 56.2057 7.80741 56.0032 7.76006C55.9606 7.75058 55.9346 7.70796 55.9452 7.66534C55.9547 7.62272 55.9973 7.59668 56.0399 7.60733C56.2507 7.65706 56.4555 7.72099 56.6497 7.79794C56.6899 7.81452 56.71 7.8595 56.6935 7.89976C56.6816 7.93054 56.652 7.94948 56.6201 7.94948ZM54.4606 7.65942C54.4204 7.65942 54.386 7.62864 54.3825 7.58839C54.3789 7.54577 54.4109 7.5067 54.4535 7.50315C54.6666 7.4842 54.8797 7.47829 55.0904 7.48539C55.1343 7.48657 55.1674 7.52327 55.1662 7.56589C55.165 7.6097 55.1248 7.64522 55.0857 7.64166C54.8809 7.63575 54.6737 7.64166 54.4677 7.65942C54.4653 7.65942 54.463 7.65942 54.4606 7.65942Z" fill="#474747"/>
<path d="M28.7663 34.3507H9.00455C8.77014 34.3507 8.54046 34.1613 8.49074 33.9268L5.49545 19.9745C5.44573 19.7401 5.59372 19.5507 5.82813 19.5507H25.5887C25.8231 19.5507 26.0528 19.7401 26.1025 19.9745L29.0978 33.9268C29.1476 34.1613 28.9996 34.3507 28.7652 34.3507H28.7663Z" fill="url(#paint0_linear_6413_74133)"/>
<path d="M28.5593 33.8758H9.06985C8.98934 33.8758 8.90884 33.8107 8.89226 33.729L5.95025 20.0241C5.9325 19.9436 5.98459 19.8773 6.06509 19.8773H25.5546C25.6351 19.8773 25.7156 19.9424 25.7322 20.0241L28.6742 33.729C28.6919 33.8095 28.6398 33.8758 28.5593 33.8758Z" fill="url(#paint1_linear_6413_74133)"/>
<path d="M34.2023 35.4731H9.82567C9.27397 35.4731 8.82764 35.0255 8.82764 34.475C8.82764 34.4064 8.88328 34.3507 8.95195 34.3507H35.0784C35.1471 34.3507 35.2027 34.4064 35.2027 34.475C35.2027 35.0267 34.7552 35.4731 34.2047 35.4731H34.2023Z" fill="url(#paint2_linear_6413_74133)"/>
<path d="M42.6792 34.3507H62.4398C62.6742 34.3507 62.9039 34.1613 62.9536 33.9268L65.9489 19.9745C65.9986 19.7401 65.8506 19.5507 65.6162 19.5507H45.8556C45.6212 19.5507 45.3915 19.7401 45.3418 19.9745L42.3465 33.9268C42.2968 34.1613 42.4448 34.3507 42.6792 34.3507Z" fill="url(#paint3_linear_6413_74133)"/>
<path d="M42.8864 33.8758H62.3759C62.4564 33.8758 62.5369 33.8107 62.5535 33.729L65.4955 20.0241C65.5132 19.9436 65.4611 19.8773 65.3806 19.8773H45.8911C45.8106 19.8773 45.7301 19.9424 45.7136 20.0241L42.7715 33.729C42.7538 33.8095 42.8059 33.8758 42.8864 33.8758Z" fill="url(#paint4_linear_6413_74133)"/>
<path d="M62.8083 35.473H39.7174C39.1799 35.473 38.7442 35.0373 38.7442 34.4999V34.4714C38.7442 34.4051 38.7986 34.3507 38.8649 34.3507H63.6595C63.7258 34.3507 63.7803 34.4051 63.7803 34.4714V34.4999C63.7803 35.0373 63.3446 35.473 62.8071 35.473H62.8083Z" fill="url(#paint5_linear_6413_74133)"/>
<mask id="mask0_6413_74133" style="mask-type:luminance" maskUnits="userSpaceOnUse" x="2" y="4" width="67" height="30">
<path d="M8.89026 33.876H62.6172L68.5403 6.42825L2.38232 4.9306L8.89026 33.876Z" fill="white"/>
</mask>
<g mask="url(#mask0_6413_74133)">
<path d="M55.4773 29.164C55.4773 31.2193 57.1442 32.8862 59.1995 32.8862C59.9264 32.8862 60.6071 32.6755 61.1802 32.3132L62.3238 34.1317C61.4181 34.7023 60.3467 35.0315 59.1995 35.0315C55.9579 35.0315 53.332 32.4032 53.332 29.164C53.332 25.9248 55.9579 23.2966 59.1995 23.2966C61.469 23.2966 63.4367 24.5835 64.4122 26.4683L62.5026 27.4556C61.8846 26.2599 60.6367 25.443 59.1995 25.443C57.1442 25.443 55.4773 27.1099 55.4773 29.1652V29.164Z" fill="#71A0CB"/>
<path d="M65.0669 29.1641C65.0669 31.2561 63.9718 33.0923 62.3238 34.1318L61.1802 32.3133C62.2256 31.655 62.9193 30.4901 62.9193 29.1641C62.9193 28.5485 62.769 27.966 62.5026 27.4545L64.4122 26.4672C64.8302 27.2746 65.0669 28.1909 65.0669 29.1641Z" fill="url(#paint6_linear_6413_74133)"/>
<path d="M59.1986 32.074C60.8058 32.074 62.1087 30.7711 62.1087 29.164C62.1087 27.5568 60.8058 26.2539 59.1986 26.2539C57.5914 26.2539 56.2886 27.5568 56.2886 29.164C56.2886 30.7711 57.5914 32.074 59.1986 32.074Z" fill="url(#paint7_linear_6413_74133)"/>
<path d="M59.1986 31.6111C60.5501 31.6111 61.6457 30.5154 61.6457 29.1639C61.6457 27.8124 60.5501 26.7168 59.1986 26.7168C57.8471 26.7168 56.7515 27.8124 56.7515 29.1639C56.7515 30.5154 57.8471 31.6111 59.1986 31.6111Z" fill="url(#paint8_linear_6413_74133)"/>
<path d="M58.2543 30.7073L60.0193 28.1225H60.4588L58.6937 30.7073H58.2543ZM58.4795 29.5183C58.354 29.5183 58.2432 29.49 58.1472 29.4334C58.0512 29.3743 57.9749 29.2918 57.9182 29.186C57.8641 29.0777 57.837 28.9509 57.837 28.8056C57.837 28.6604 57.8641 28.5349 57.9182 28.429C57.9749 28.3231 58.0512 28.2407 58.1472 28.1816C58.2432 28.1225 58.354 28.093 58.4795 28.093C58.6051 28.093 58.7158 28.1225 58.8119 28.1816C58.9079 28.2407 58.9829 28.3231 59.0371 28.429C59.0913 28.5349 59.1183 28.6604 59.1183 28.8056C59.1183 28.9509 59.0913 29.0777 59.0371 29.186C58.9829 29.2918 58.9079 29.3743 58.8119 29.4334C58.7158 29.49 58.6051 29.5183 58.4795 29.5183ZM58.4795 29.2155C58.5608 29.2155 58.626 29.1823 58.6752 29.1158C58.7245 29.0469 58.7491 28.9435 58.7491 28.8056C58.7491 28.6678 58.7245 28.5656 58.6752 28.4992C58.626 28.4302 58.5608 28.3958 58.4795 28.3958C58.4007 28.3958 58.3355 28.4302 58.2838 28.4992C58.2346 28.5656 58.21 28.6678 58.21 28.8056C58.21 28.941 58.2346 29.0432 58.2838 29.1121C58.3355 29.1811 58.4007 29.2155 58.4795 29.2155ZM60.2335 30.7369C60.1104 30.7369 59.9996 30.7086 59.9012 30.6519C59.8052 30.5929 59.7301 30.5104 59.6759 30.4045C59.6218 30.2962 59.5947 30.1694 59.5947 30.0242C59.5947 29.879 59.6218 29.7534 59.6759 29.6476C59.7301 29.5417 59.8052 29.4592 59.9012 29.4002C59.9996 29.3411 60.1104 29.3115 60.2335 29.3115C60.3615 29.3115 60.4735 29.3411 60.5695 29.4002C60.6655 29.4592 60.7406 29.5417 60.7948 29.6476C60.8489 29.7534 60.876 29.879 60.876 30.0242C60.876 30.1694 60.8489 30.2962 60.7948 30.4045C60.7406 30.5104 60.6655 30.5929 60.5695 30.6519C60.4735 30.7086 60.3615 30.7369 60.2335 30.7369ZM60.2335 30.4341C60.3147 30.4341 60.38 30.4009 60.4292 30.3344C60.4785 30.2655 60.5031 30.1621 60.5031 30.0242C60.5031 29.8888 60.4785 29.7866 60.4292 29.7177C60.38 29.6488 60.3147 29.6143 60.2335 29.6143C60.1547 29.6143 60.0895 29.6488 60.0378 29.7177C59.9886 29.7842 59.9639 29.8863 59.9639 30.0242C59.9639 30.1621 59.9886 30.2655 60.0378 30.3344C60.0895 30.4009 60.1547 30.4341 60.2335 30.4341Z" fill="#FFC431"/>
<path d="M20.128 34.4039H13.3501L14.0936 27.5384H19.3845L20.128 34.4039Z" fill="#D87639"/>
<path d="M17.8691 28.5732C17.8064 28.5732 17.7555 28.5223 17.7555 28.4595V26.5156C17.7555 25.9556 17.2997 25.4998 16.7397 25.4998C16.1797 25.4998 15.7239 25.9556 15.7239 26.5156V28.4595C15.7239 28.5223 15.673 28.5732 15.6102 28.5732C15.5475 28.5732 15.4966 28.5223 15.4966 28.4595V26.5156C15.4966 25.8301 16.0542 25.2725 16.7397 25.2725C17.4252 25.2725 17.9828 25.8301 17.9828 26.5156V28.4595C17.9828 28.5223 17.9319 28.5732 17.8691 28.5732Z" fill="#AE5823"/>
<path d="M14.8453 35.6696H8.06738L8.81088 28.8029H14.1018L14.8453 35.6696Z" fill="#C29C66"/>
<path d="M12.5854 29.8387C12.5227 29.8387 12.4718 29.7878 12.4718 29.725V27.7811C12.4718 27.2211 12.016 26.7653 11.456 26.7653C10.896 26.7653 10.4402 27.2211 10.4402 27.7811V29.725C10.4402 29.7878 10.3893 29.8387 10.3265 29.8387C10.2638 29.8387 10.2129 29.7878 10.2129 29.725V27.7811C10.2129 27.0956 10.7705 26.538 11.456 26.538C12.1415 26.538 12.6991 27.0956 12.6991 27.7811V29.725C12.6991 29.7878 12.6482 29.8387 12.5854 29.8387Z" fill="#724910"/>
<path d="M44.002 15.5301C43.3745 16.4003 41.3571 19.6619 40.6929 20.042C40.0276 20.422 35.2671 23.6103 35.2671 23.6103C35.2671 23.6103 35.5974 24.3561 35.8164 24.5136C36.657 24.3774 41.0221 22.3162 41.8911 21.7953C42.76 21.2732 46.1567 16.7081 46.1567 16.7081L44.0008 15.5313L44.002 15.5301Z" fill="url(#paint9_linear_6413_74133)"/>
<path d="M45.1512 27.4722C45.942 27.4722 52.1291 27.1739 52.1291 27.1739L50.9961 37.2489L47.7948 37.4845L47.4574 34.2833L46.1433 37.4845L42.8745 37.0133C42.8745 37.0133 44.2573 29.4884 45.1488 27.4722H45.1512Z" fill="#2B65AF"/>
<path d="M52.4881 20.5948C52.4881 20.5948 53.6862 23.2681 53.6862 23.5889C53.6862 23.9098 53.048 28.5519 52.887 28.7117C52.5662 28.9153 51.2888 29.428 51.2094 29.647C51.1289 29.866 51.2947 30.0531 51.2947 30.0531C50.9466 30.278 50.0385 30.9564 50.1984 31.1174C50.3097 31.2287 50.3842 31.2678 50.4198 31.282C50.4352 31.2879 50.4434 31.2891 50.4434 31.2891C50.4434 31.2891 50.2138 31.7224 50.6305 31.6632C50.6731 31.9094 50.8661 31.8822 51.0212 31.8124C51.1763 31.7425 51.3527 31.604 51.3527 31.604C51.3527 31.8337 51.5019 31.9568 51.812 31.6999C52.1222 31.443 52.6727 31.031 52.9344 30.8179C53.196 30.6036 53.6779 29.5452 53.8436 29.1545C54.0094 28.7638 55.0808 25.5483 55.2726 24.851C55.4656 24.1548 55.7166 23.8683 55.5236 23.2042C55.3306 22.54 54.3468 19.7164 54.3468 19.7164L52.4857 20.5936L52.4881 20.5948Z" fill="url(#paint10_linear_6413_74133)"/>
<path d="M51.3849 30.1277C51.3612 30.1277 51.3387 30.1242 51.3162 30.1159C51.2534 30.0946 51.2025 30.0401 51.1741 29.9667C51.1504 29.9051 51.1469 29.8412 51.1422 29.7796C51.141 29.7583 51.1564 29.7394 51.1789 29.7382C51.199 29.7347 51.2191 29.7524 51.2203 29.7749C51.2238 29.8306 51.2286 29.8886 51.2475 29.9395C51.2665 29.9904 51.302 30.0295 51.3422 30.0425C51.3943 30.0602 51.4571 30.0401 51.5175 30.0152C51.6844 29.9454 51.843 29.8542 51.9886 29.7453C52.0064 29.7323 52.0301 29.7358 52.0431 29.7536C52.0561 29.7714 52.0526 29.795 52.0348 29.8081C51.8845 29.9205 51.7199 30.0141 51.5471 30.0875C51.495 30.11 51.4405 30.1289 51.386 30.1289L51.3849 30.1277Z" fill="#E07E58"/>
<path d="M50.4515 31.3128C50.4515 31.3128 50.442 31.3128 50.4385 31.3128C50.3591 31.3057 50.2869 31.2488 50.2514 31.1695C50.223 31.1044 50.2194 31.0239 50.2408 30.9422C50.2467 30.9209 50.268 30.9091 50.2893 30.915C50.3106 30.9209 50.3224 30.9422 50.3165 30.9635C50.2999 31.0275 50.3011 31.0902 50.3224 31.1387C50.3461 31.192 50.3947 31.2311 50.4444 31.2358C50.4894 31.2394 50.5426 31.1944 50.5864 31.1577L50.7238 31.0464C51.0127 30.8143 51.221 30.6462 51.5016 30.3905C51.5182 30.3763 51.543 30.3775 51.5573 30.3929C51.5715 30.4083 51.5703 30.4331 51.5549 30.4485C51.2719 30.7066 51.0517 30.8842 50.7735 31.108L50.6374 31.2181C50.5853 31.2607 50.5225 31.314 50.4515 31.314V31.3128Z" fill="#E07E58"/>
<path d="M50.589 31.6916C50.5239 31.6916 50.4647 31.6679 50.4245 31.6253C50.3428 31.5353 50.3688 31.4003 50.4197 31.3032C50.4304 31.2843 50.4541 31.2772 50.473 31.2867C50.492 31.2973 50.4991 31.321 50.4896 31.3399C50.4529 31.4098 50.428 31.5116 50.4825 31.572C50.5227 31.617 50.595 31.6205 50.6482 31.604C50.7098 31.585 50.7643 31.5436 50.8235 31.495C51.1265 31.2476 51.419 30.9765 51.7007 30.7148L51.7564 30.7705C51.4699 31.0357 51.1774 31.3068 50.8732 31.5566C50.8069 31.6099 50.7465 31.6572 50.6719 31.6797C50.6447 31.688 50.6163 31.6928 50.589 31.6928V31.6916Z" fill="#E07E58"/>
<path d="M50.831 31.8775C50.8168 31.8775 50.8025 31.8775 50.7883 31.8739C50.7138 31.8621 50.6344 31.8041 50.6238 31.7188C50.6214 31.6975 50.6368 31.6774 50.6581 31.675C50.6782 31.6727 50.6995 31.6881 50.7019 31.7094C50.7078 31.7555 50.7564 31.7887 50.8002 31.7958C50.8558 31.8053 50.9162 31.7863 50.9659 31.7662C51.134 31.6999 51.2974 31.5933 51.4644 31.4383C51.5425 31.366 51.6313 31.3021 51.7248 31.2334C51.8172 31.1671 51.9119 31.0973 52.0137 31.0097C52.0303 30.9955 52.0551 30.9978 52.0693 31.0132C52.0835 31.0298 52.0812 31.0547 52.0658 31.0689C51.9616 31.1589 51.861 31.2323 51.7722 31.2962C51.681 31.3625 51.5946 31.4252 51.5188 31.4951C51.3448 31.6561 51.1743 31.7686 50.9955 31.8384C50.947 31.8574 50.8902 31.8763 50.831 31.8763V31.8775Z" fill="#E07E58"/>
<path d="M51.5193 31.8502C51.5051 31.8502 51.4909 31.8478 51.4767 31.8443C51.3903 31.8194 51.3524 31.7318 51.3263 31.6489C51.3204 31.6288 51.3311 31.6063 51.3524 31.5992C51.3737 31.5933 51.395 31.604 51.4021 31.6253C51.4222 31.688 51.4483 31.7543 51.4992 31.7685C51.5371 31.7792 51.5821 31.759 51.6247 31.7354C51.8425 31.6134 52.0379 31.45 52.2273 31.2902L52.5067 31.0546C52.5233 31.0404 52.5481 31.0428 52.5623 31.0594C52.5765 31.0759 52.5742 31.1008 52.5576 31.115L52.2782 31.3506C52.0864 31.5116 51.8887 31.6785 51.6637 31.804C51.6211 31.8277 51.5726 31.8502 51.5217 31.8502H51.5193Z" fill="#E07E58"/>
<path d="M47.2765 13.7128C46.2524 13.8027 44.8862 14.1579 43.7745 15.2696C42.6628 16.3813 41.969 17.9831 41.7666 18.6793C41.7666 18.6793 43.0168 19.9638 43.7129 19.9638L45.1218 18.7278C44.9193 20.3 44.7808 27.4402 44.8708 28.2263C44.8708 28.2263 50.8495 27.6237 52.108 27.8474C52.2655 26.6564 51.5244 18.9977 51.5244 18.9977L52.3555 20.8849C52.3555 20.8849 54.2201 20.5475 54.5339 19.8963C54.6913 18.9302 53.5571 16.1564 52.7142 15.3134C51.8713 14.4705 49.6644 13.8915 49.6644 13.8915C49.5401 14.0158 49.0512 14.5166 48.1384 14.5166C47.7039 14.5166 47.3464 13.991 47.2765 13.7128Z" fill="#DE445E"/>
<path d="M45.0517 21.0482H45.0505C45.0186 21.0482 44.9925 21.0198 44.9937 20.9879L45.0363 19.4902C45.0434 19.2534 45.0505 19.0178 45.0635 18.7846C45.0979 18.2116 45.176 17.6362 45.298 17.075C45.3051 17.0431 45.3358 17.0229 45.3678 17.0301C45.3998 17.0372 45.4199 17.0679 45.4128 17.0999C45.2932 17.6552 45.2151 18.2246 45.1807 18.7917C45.1665 19.0226 45.1606 19.2582 45.1535 19.4867L45.1109 20.9914C45.1109 21.0234 45.0837 21.0482 45.0517 21.0482Z" fill="#C16810"/>
<path d="M52.442 20.9406C52.4207 20.9406 52.4006 20.9287 52.3899 20.9086C51.8714 19.9106 51.4191 18.8652 51.0462 17.8044C51.0356 17.7736 51.0521 17.7405 51.0817 17.7298C51.1125 17.7191 51.1457 17.7357 51.1563 17.7653C51.5269 18.8214 51.9768 19.8608 52.4941 20.8553C52.5095 20.8837 52.4977 20.9193 52.4693 20.9346C52.461 20.9394 52.4515 20.9417 52.442 20.9417V20.9406Z" fill="#C16810"/>
<path d="M49.7013 12.2376C49.5912 12.7893 49.8055 14.0952 49.8055 14.0952C48.7139 15.5869 47.1831 14.5048 47.1831 14.5048C47.3773 14.178 47.4862 12.5004 47.4862 12.5004L49.7013 12.2376Z" fill="url(#paint11_linear_6413_74133)"/>
<path d="M46.8138 7.80746C45.9851 7.75182 45.6808 9.40692 46.7949 9.60582C47.9101 9.80471 48.038 7.88915 46.8138 7.80746Z" fill="url(#paint12_linear_6413_74133)"/>
<path d="M48.0899 7.74237C46.2454 7.72342 46.0121 12.4662 47.7963 13.2487C49.5804 14.0313 50.6187 10.5103 50.3405 9.34774C50.0623 8.18515 49.4348 7.75657 48.0899 7.74355V7.74237Z" fill="url(#paint13_linear_6413_74133)"/>
<path d="M47.8248 8.54969C47.3358 9.02917 46.5864 8.86342 46.2774 8.07968C45.9696 7.29593 47.3275 6.36538 48.2332 7.28883C48.7399 6.97746 49.1567 7.40248 49.3177 7.56705C49.8635 7.37525 50.3619 7.94353 50.2411 8.17913C50.8141 8.18505 50.7668 11.0016 49.7557 12.1973C49.8718 11.487 49.3875 11.1223 49.3875 11.1223C49.7226 10.7944 49.7912 9.50747 49.1472 9.84844C48.9684 9.94315 48.9448 10.2817 48.9448 10.2817L48.7376 10.2794C48.7376 10.2794 48.9341 9.45064 48.7707 9.00431C48.6073 8.55798 48.2522 8.5047 47.826 8.54969H47.8248Z" fill="url(#paint14_linear_6413_74133)"/>
<path d="M48.7365 10.2794C48.6299 11.0892 48.3375 11.5699 48.1398 11.5687C47.9421 11.5663 47.5703 11.1579 47.2649 11.1543C46.9594 11.1508 46.6398 11.3757 46.6386 11.5533C46.6362 11.7309 46.3414 13.2202 46.8304 13.476C47.3181 13.7317 48.6938 13.6133 48.9543 13.1551C49.2148 12.697 48.8442 10.8749 48.946 10.2818L48.7388 10.2794H48.7365Z" fill="url(#paint15_linear_6413_74133)"/>
<path d="M47.2574 11.5711C47.1946 11.5735 47.0277 11.5818 46.9495 11.6256C46.8288 11.6931 46.8643 11.8257 46.9531 11.905C47.0277 11.9713 47.1721 12.0056 47.287 11.9961C47.4811 11.9808 47.5522 11.918 47.6256 11.7771C47.654 11.7227 47.6646 11.6197 47.5829 11.5806C47.5178 11.5498 47.3947 11.5652 47.2574 11.5711Z" fill="#F4EEFF"/>
<path d="M33.9991 23.3037C33.8322 23.1367 33.6451 23.1533 33.3965 23.2693C33.1479 23.3854 32.9466 23.4528 32.7394 23.4528C32.5322 23.4528 31.9793 23.1628 31.9793 23.1628L31.6289 23.9738C31.6289 23.9738 33.1786 24.9813 33.3894 25.1233C33.6001 25.2666 33.8937 25.6312 34.0559 25.6656C34.2181 25.6999 35.2824 25.2476 35.2635 24.7847C35.215 24.6379 34.8444 24.2899 34.6881 24.1336C34.5318 23.9773 34.391 23.8554 34.2962 23.7985C34.2027 23.7417 33.9991 23.3013 33.9991 23.3013V23.3037Z" fill="url(#paint16_linear_6413_74133)"/>
<path d="M34.0444 23.164C33.7828 23.1818 33.4158 23.4837 33.4158 23.6683C33.4158 23.853 33.4004 24.2106 33.604 24.2106C33.8077 24.2106 33.8183 23.8649 33.9083 23.7737C33.9983 23.6837 34.4055 23.8223 34.5666 24.0413C34.7287 24.2591 35.2627 24.786 35.2627 24.786C35.2627 24.786 36.2252 24.4296 36.546 24.2828C36.546 24.2343 35.8546 23.2173 35.8546 23.2173C35.136 23.5346 34.3854 23.1427 34.0433 23.1652L34.0444 23.164Z" fill="url(#paint17_linear_6413_74133)"/>
<path d="M32.6666 24.6119C32.5174 24.6522 32.3919 24.9209 32.573 24.9694C32.7542 25.018 32.946 24.8191 32.8595 24.6948C32.7731 24.5705 32.7506 24.5894 32.6678 24.6119H32.6666Z" fill="url(#paint18_linear_6413_74133)"/>
<path d="M32.9346 24.8426C32.7594 24.8734 32.7452 25.1872 32.9346 25.3138C33.1241 25.4405 33.613 25.7377 33.7705 25.669C33.9279 25.5992 34.0558 25.54 33.9741 25.4109C33.8924 25.2807 33.2567 24.787 32.9358 24.8438L32.9346 24.8426Z" fill="url(#paint19_linear_6413_74133)"/>
<path d="M35.1031 25.0925C35.0972 25.0925 35.0913 25.0914 35.0853 25.0878C34.7621 24.8877 34.4721 24.619 34.2459 24.3112C34.2353 24.2969 34.2388 24.2756 34.253 24.265C34.2673 24.2543 34.2886 24.2579 34.2992 24.2721C34.5194 24.5728 34.8036 24.8344 35.1197 25.031C35.1351 25.0404 35.1398 25.0606 35.1303 25.076C35.1244 25.0866 35.1137 25.0914 35.1019 25.0914L35.1031 25.0925Z" fill="#E07E58"/>
<path d="M34.829 25.3186C34.829 25.3186 34.8172 25.3174 34.8125 25.3139C34.5236 25.1434 34.2655 24.9161 34.0642 24.6556C34.0536 24.6414 34.056 24.6201 34.0702 24.6095C34.0844 24.5988 34.1057 24.6012 34.1163 24.6154C34.3117 24.8687 34.5638 25.0913 34.8456 25.2571C34.861 25.2665 34.8669 25.2867 34.8575 25.3021C34.8515 25.3127 34.8409 25.3186 34.829 25.3186Z" fill="#E07E58"/>
<path d="M34.5262 25.5115C34.5262 25.5115 34.5155 25.5103 34.5096 25.5068C34.2657 25.3718 34.0467 25.1895 33.8762 24.9823C33.8644 24.9681 33.8668 24.9468 33.881 24.9361C33.8952 24.9243 33.9153 24.9266 33.9271 24.9408C34.0917 25.1421 34.3036 25.3185 34.5416 25.4499C34.557 25.4582 34.5629 25.4783 34.5546 25.4949C34.5487 25.5056 34.5369 25.5115 34.5262 25.5115Z" fill="#E07E58"/>
<path d="M33.7217 25.5791C33.7217 25.5791 33.7146 25.5791 33.711 25.5779C33.6933 25.572 33.6838 25.5543 33.6897 25.5365C33.711 25.469 33.7229 25.398 33.7241 25.327C33.7241 25.3009 33.7241 25.2701 33.7134 25.2453C33.7039 25.2228 33.6874 25.205 33.6684 25.2003C33.6471 25.1944 33.6199 25.2038 33.5986 25.224C33.5773 25.2441 33.5631 25.2701 33.5465 25.2985L33.5417 25.3068C33.5228 25.34 33.5003 25.3767 33.4648 25.4027C33.4577 25.4075 33.4399 25.4193 33.4186 25.4158C33.4068 25.4134 33.3961 25.4075 33.389 25.3968C33.3772 25.3802 33.3807 25.3613 33.3819 25.3542C33.389 25.3151 33.4056 25.2796 33.421 25.2465C33.4293 25.2275 33.4376 25.2098 33.4447 25.192C33.4518 25.1719 33.4731 25.1044 33.4399 25.063C33.421 25.0405 33.3855 25.0286 33.3523 25.0357C33.3204 25.0416 33.2884 25.0629 33.2623 25.0949C33.2363 25.1269 33.2174 25.1671 33.2031 25.2015L33.2008 25.2086C33.1878 25.2417 33.1724 25.2784 33.1416 25.2855C33.1274 25.2891 33.112 25.2843 33.1013 25.2725L33.0978 25.2689L33.0954 25.2642C33.0883 25.25 33.0907 25.2346 33.0978 25.1837C33.1049 25.1364 33.1144 25.0712 33.1084 25.0298C33.0978 24.9564 33.0634 24.896 33.0137 24.8629C32.9983 24.8534 32.9948 24.8321 33.0042 24.8167C33.0137 24.8013 33.035 24.7978 33.0504 24.8072C33.1155 24.8498 33.1605 24.928 33.1747 25.0203C33.1783 25.0464 33.1771 25.0783 33.1747 25.1115C33.1854 25.0914 33.1984 25.0712 33.2138 25.0523C33.2493 25.0085 33.2955 24.9801 33.3428 24.9706C33.4009 24.9588 33.4601 24.9789 33.4944 25.0215C33.5323 25.0689 33.5382 25.1387 33.5098 25.2157C33.5027 25.2358 33.4932 25.2559 33.4837 25.2749C33.4802 25.2832 33.4766 25.2903 33.4731 25.2985C33.4778 25.2903 33.4825 25.2832 33.4873 25.2749L33.492 25.2666C33.5098 25.2358 33.5275 25.2038 33.5559 25.1766C33.595 25.1399 33.6436 25.1245 33.6874 25.1364C33.7264 25.147 33.7596 25.1778 33.7762 25.2204C33.7904 25.2571 33.7927 25.295 33.7915 25.3281C33.7915 25.4063 33.7785 25.4832 33.7548 25.5578C33.7501 25.572 33.7371 25.5803 33.7229 25.5803L33.7217 25.5791Z" fill="#E07E58"/>
<path d="M35.2336 24.7918C35.2254 24.7918 35.2159 24.7882 35.21 24.7811L34.6618 24.1951C34.5813 24.1098 34.4996 24.0211 34.4073 23.9477C34.3055 23.8671 34.2036 23.8139 34.103 23.7902C34.0557 23.7795 33.9669 23.7677 33.9136 23.8162C33.8781 23.8482 33.8639 23.8979 33.8497 23.9512C33.8437 23.9701 33.839 23.9903 33.8319 24.0104C33.7999 24.1039 33.7372 24.1868 33.6555 24.2424C33.6401 24.2531 33.62 24.2484 33.6093 24.2342C33.5987 24.2188 33.6034 24.1986 33.6176 24.188C33.6875 24.1394 33.7419 24.0696 33.7691 23.9891C33.7751 23.9713 33.7798 23.9536 33.7857 23.9346C33.8023 23.8742 33.8201 23.8127 33.8686 23.7677C33.9254 23.7168 34.0142 23.7014 34.1172 23.7263C34.2273 23.7523 34.3386 23.8091 34.4475 23.8956C34.5434 23.9713 34.6275 24.0625 34.7092 24.1489L35.2573 24.7349C35.2703 24.748 35.2692 24.7693 35.2561 24.7811C35.2502 24.787 35.2419 24.7906 35.2336 24.7906V24.7918Z" fill="#E07E58"/>
<path d="M15.3112 12.0375C15.2129 12.7076 15.2792 13.4333 14.9299 14.0135C14.6742 14.4385 14.2137 14.7439 14.0823 15.2222C13.9272 15.7905 14.2942 16.3659 14.3202 16.9543C14.3617 17.8765 13.5661 18.7219 13.733 19.6299C13.9201 20.6457 15.1928 21.1406 15.4864 22.1315C15.619 22.5802 15.5337 23.0905 15.7587 23.5013C15.9363 23.8233 16.2713 24.021 16.5223 24.2898C16.8431 24.6355 17.016 25.0913 17.2942 25.4713C17.5724 25.8525 18.0389 26.1722 18.4911 26.042C19.0097 25.8928 19.205 25.2724 19.3009 24.7408C20.1593 19.9839 19.6005 15.0446 18.207 10.4156C17.9264 9.48264 17.177 8.94397 16.4063 9.6768C15.7764 10.2747 15.4378 11.1756 15.3112 12.0363V12.0375Z" fill="url(#paint20_linear_6413_74133)"/>
<path d="M22.0048 8.86354C22.2416 8.95352 22.4843 9.06954 22.6276 9.27791C22.8703 9.63427 22.7519 10.1493 22.9993 10.5021C23.094 10.637 23.2326 10.7329 23.3509 10.8478C23.7582 11.242 23.905 11.8825 23.7109 12.4153C23.6682 12.5325 23.6102 12.6449 23.5806 12.7669C23.4966 13.115 23.6576 13.4701 23.8044 13.7969C23.9512 14.1236 24.0885 14.4954 23.9618 14.8304C23.8802 15.0471 23.6978 15.2128 23.6173 15.4307C23.5297 15.6651 23.5629 15.954 23.3936 16.1375C23.3273 16.2097 23.2373 16.2559 23.1473 16.2985C22.9117 16.411 22.6643 16.5116 22.4038 16.5341C22.2132 16.5507 22.0214 16.5234 21.832 16.4974C21.5431 16.4571 21.2542 16.4169 20.9666 16.3766C20.8588 16.3612 20.7475 16.3447 20.654 16.2878C20.5131 16.2002 20.4433 16.0333 20.3924 15.8746C19.9472 14.4871 20.2763 12.9788 20.1366 11.5285C20.0881 11.0265 19.9827 10.5281 19.9768 10.0238C19.9721 9.61769 20.0325 8.84342 20.4196 8.59243C20.6043 8.47285 20.8967 8.56875 21.0932 8.60663C21.4034 8.66701 21.7089 8.75344 22.0037 8.86473L22.0048 8.86354Z" fill="url(#paint21_linear_6413_74133)"/>
<path d="M19.2734 12.8083C19.7541 13.8407 19.8109 15.7065 19.8109 15.7065C19.8109 15.7065 21.8757 16.1161 21.8757 16.0321C21.8757 15.948 21.5643 14.731 21.4944 13.8691C21.4305 13.8051 19.2746 12.8083 19.2746 12.8083H19.2734Z" fill="url(#paint22_linear_6413_74133)"/>
<path d="M20.0885 16.3446C19.0869 16.0534 18.3635 16.8265 18.2238 19.2121C18.083 21.5988 17.9231 23.583 18.1031 24.1856C18.283 24.7871 19.8482 29.2788 19.8482 29.2788L20.9516 28.8976C20.9516 28.8976 19.8387 24.3455 19.8387 23.5238C19.8387 22.7022 20.3987 19.7945 20.5786 18.8119C20.7586 17.8292 20.7917 16.5494 20.0897 16.3458L20.0885 16.3446Z" fill="#4FABDE"/>
<path d="M19.6962 15.2565C20.113 15.4827 21.8237 15.5123 21.8237 15.5123C22.4737 16.8051 23.5771 17.3071 24.0388 18.4898C24.7302 20.2633 22.9413 24.446 23.287 25.9792H18.9658C19.4464 24.4851 18.0032 19.3623 18.3643 17.7131C18.7254 16.064 19.6974 15.2565 19.6974 15.2565H19.6962Z" fill="#7CC3EF"/>
<path d="M19.1967 25.6798C18.1951 26.4659 17.583 27.7848 17.602 30.522C17.6067 31.2394 17.692 34.4099 17.7606 35.5145C18.0909 40.8386 18.0827 46.7794 18.0827 46.7794C18.6841 46.9594 19.7366 46.7794 19.7366 46.7794L21.9351 33.0473L25.5721 46.7096C26.2635 46.7096 27.136 46.3887 27.136 46.3887C27.136 46.3887 26.1735 37.8918 25.8124 35.9064C25.4513 33.921 25.842 29.048 23.2859 25.9805C22.5034 25.9805 19.1955 25.6798 19.1955 25.6798H19.1967Z" fill="#DF9731"/>
<path d="M21.112 37.9638C21.112 37.9638 21.1049 37.9638 21.1014 37.9638C21.0706 37.9579 21.0493 37.9283 21.0552 37.8964C21.1085 37.598 21.1617 37.3068 21.2138 37.0215C21.6779 34.463 22.0449 32.4433 22.1089 30.0802C22.1089 30.0482 22.1325 30.0222 22.1681 30.0246C22.2 30.0246 22.2249 30.0518 22.2237 30.0838C22.1598 32.4563 21.7916 34.4808 21.3263 37.0428C21.2742 37.3281 21.2221 37.6193 21.1677 37.9165C21.1629 37.9449 21.1381 37.9638 21.1108 37.9638H21.112Z" fill="#C16810"/>
<path d="M23.6057 22.9201C23.6057 22.9201 23.5951 22.9201 23.5891 22.9177C23.5584 22.9082 23.5406 22.8763 23.5501 22.8467C23.7371 22.2133 23.9289 21.5586 24.0319 20.8968C24.1456 20.1604 24.1314 19.4938 23.9869 18.9149C23.8283 18.2756 23.5015 17.6872 23.0422 17.2136C23.0197 17.1911 23.0209 17.1544 23.0434 17.132C23.0658 17.1095 23.1025 17.1106 23.125 17.1331C23.5974 17.6209 23.9348 18.2283 24.0982 18.8865C24.2462 19.4796 24.2616 20.1616 24.1456 20.9134C24.0414 21.5834 23.8472 22.2417 23.6602 22.8786C23.6531 22.9035 23.6294 22.9201 23.6045 22.9201H23.6057Z" fill="#9E86E0"/>
<path d="M21.3352 17.3794C22.9631 18.3845 26.0779 21.0211 26.5906 21.2129C27.2323 21.4532 32.0827 23.1332 32.0827 23.1332C32.0827 23.1332 31.8495 23.9347 31.679 24.1052C30.9166 24.1052 26.6261 23.2682 25.7832 22.9331C25.1545 22.6821 21.2263 20.6849 19.6837 19.6205C18.5921 18.8664 18.6939 17.4279 19.3522 17.0029C19.9974 16.5862 20.439 16.8265 21.334 17.3794H21.3352Z" fill="#4FABDE"/>
<path d="M21.3861 9.28747C23.1773 10.8715 22.879 13.2997 22.6682 13.8621C22.5084 14.2883 22.3095 14.4162 21.6311 14.209C20.9528 14.0018 18.5956 13.0073 18.2191 12.1028C17.8426 11.1983 17.5786 10.1044 18.4074 9.27445C19.2373 8.44453 20.3904 8.40901 21.3861 9.28866V9.28747Z" fill="url(#paint23_linear_6413_74133)"/>
<path d="M21.7027 8.53321C21.0338 8.15554 20.0429 7.99453 19.2745 8.01939C18.531 8.04425 18.3381 8.30235 18.1747 8.42074C17.9047 8.61608 17.7911 8.97717 17.5141 9.16423C17.3495 9.27552 17.1482 9.30985 16.9541 9.36194C16.7777 9.68397 16.6332 10.0237 16.5267 10.3766C16.3242 11.0478 16.2544 11.7511 16.3195 12.4496C16.3846 13.1398 16.619 13.8194 16.9197 14.4409C17.4158 15.4638 17.7508 16.5932 18.3996 17.5226C18.5334 17.1106 19.0863 16.5021 19.3527 16.1611C19.4699 16.012 19.5989 15.8699 19.6901 15.703C20.0654 15.0175 19.7067 14.1864 19.5717 13.4168C19.5338 13.2037 19.5149 12.98 19.5776 12.7728C19.6901 12.3975 20.0476 12.1276 20.1364 11.7463C20.1897 11.5155 20.1459 11.2455 20.2998 11.0644C20.5247 10.8004 20.9498 11.1271 21.2943 11.0845C21.6127 11.0455 22.4071 10.8679 22.503 10.4156C22.6629 9.66147 22.2544 8.84694 21.7015 8.53558L21.7027 8.53321Z" fill="url(#paint24_linear_6413_74133)"/>
<path d="M22.7565 12.8746C22.7257 13.0723 22.695 13.244 22.4688 13.2818C22.2415 13.3197 21.884 13.0593 21.8271 12.8746C22.0107 12.7443 22.7009 12.8201 22.7577 12.8746H22.7565Z" fill="white"/>
</g>
<path d="M9.7854 22.2842C11.2951 22.2842 12.519 21.0603 12.519 19.5506C12.519 18.0408 11.2951 16.817 9.7854 16.817C8.27565 16.817 7.05176 18.0408 7.05176 19.5506C7.05176 21.0603 8.27565 22.2842 9.7854 22.2842Z" fill="url(#paint25_linear_6413_74133)"/>
<path d="M12.0537 19.9192C12.257 18.6664 11.4063 17.486 10.1536 17.2827C8.90085 17.0793 7.72047 17.93 7.51712 19.1828C7.31377 20.4355 8.16447 21.6159 9.4172 21.8192C10.6699 22.0226 11.8503 21.1719 12.0537 19.9192Z" fill="url(#paint26_linear_6413_74133)"/>
<path d="M9.65716 20.7424V17.4817H10.004V20.7424H9.65716ZM9.78204 20.3677C9.58778 20.3677 9.40162 20.3423 9.22355 20.2914C9.04549 20.2382 8.90211 20.17 8.79342 20.0868L8.9842 19.6636C9.08827 19.7376 9.21083 19.7988 9.3519 19.8474C9.49528 19.8937 9.63982 19.9168 9.78551 19.9168C9.89651 19.9168 9.98554 19.9064 10.0526 19.8856C10.122 19.8624 10.1729 19.8312 10.2052 19.7919C10.2376 19.7526 10.2538 19.7075 10.2538 19.6566C10.2538 19.5919 10.2284 19.541 10.1775 19.504C10.1266 19.4647 10.0595 19.4335 9.97629 19.4103C9.89304 19.3849 9.80054 19.3618 9.69879 19.341C9.59935 19.3178 9.49875 19.2901 9.397 19.2577C9.29756 19.2253 9.20621 19.1837 9.12296 19.1328C9.03971 19.082 8.97148 19.0149 8.9183 18.9316C8.86742 18.8484 8.84198 18.742 8.84198 18.6125C8.84198 18.4737 8.87898 18.3477 8.95298 18.2344C9.0293 18.1188 9.14261 18.0274 9.29293 17.9604C9.44556 17.891 9.63635 17.8563 9.86529 17.8563C10.0179 17.8563 10.1682 17.8748 10.3162 17.9118C10.4642 17.9465 10.5949 17.9997 10.7082 18.0714L10.5348 18.498C10.4215 18.4333 10.3081 18.3859 10.1948 18.3558C10.0815 18.3234 9.97051 18.3072 9.86182 18.3072C9.75313 18.3072 9.6641 18.32 9.59472 18.3454C9.52534 18.3708 9.47562 18.4044 9.44556 18.446C9.4155 18.4853 9.40047 18.5316 9.40047 18.5847C9.40047 18.6472 9.4259 18.6981 9.47678 18.7374C9.52766 18.7744 9.59472 18.8044 9.67797 18.8276C9.76123 18.8507 9.85257 18.8738 9.95201 18.8969C10.0538 18.9201 10.1544 18.9467 10.2538 18.9767C10.3556 19.0068 10.4481 19.0473 10.5313 19.0981C10.6146 19.149 10.6816 19.2161 10.7325 19.2993C10.7857 19.3826 10.8123 19.4878 10.8123 19.615C10.8123 19.7514 10.7741 19.8763 10.6978 19.9896C10.6215 20.1029 10.507 20.1943 10.3544 20.2637C10.2041 20.333 10.0133 20.3677 9.78204 20.3677Z" fill="#FFC431"/>
<path d="M57.504 15.1051C59.0379 15.1051 60.2815 13.8616 60.2815 12.3277C60.2815 10.7937 59.0379 9.55023 57.504 9.55023C55.9701 9.55023 54.7266 10.7937 54.7266 12.3277C54.7266 13.8616 55.9701 15.1051 57.504 15.1051Z" fill="url(#paint27_linear_6413_74133)"/>
<path d="M57.5043 14.6635C58.7944 14.6635 59.8402 13.6177 59.8402 12.3276C59.8402 11.0376 58.7944 9.99176 57.5043 9.99176C56.2143 9.99176 55.1685 11.0376 55.1685 12.3276C55.1685 13.6177 56.2143 14.6635 57.5043 14.6635Z" fill="url(#paint28_linear_6413_74133)"/>
<path d="M56.013 12.1412V11.8451H57.9127V12.1412H56.013ZM56.013 11.6548V11.3587H57.9127V11.6548H56.013ZM57.6906 13.0258C57.4979 13.0258 57.3194 12.9953 57.1549 12.9342C56.9928 12.8707 56.8518 12.7814 56.732 12.6663C56.6121 12.5512 56.5193 12.4161 56.4535 12.261C56.3877 12.1059 56.3548 11.9356 56.3548 11.7499C56.3548 11.5643 56.3877 11.394 56.4535 11.2389C56.5193 11.0838 56.6121 10.9487 56.732 10.8336C56.8518 10.7184 56.9928 10.6303 57.1549 10.5692C57.3194 10.5058 57.4979 10.4741 57.6906 10.4741C57.9044 10.4741 58.0983 10.5117 58.2722 10.5869C58.446 10.6597 58.5905 10.7678 58.7057 10.9111L58.3427 11.2495C58.2581 11.1531 58.1641 11.0815 58.0607 11.0345C57.9573 10.9851 57.8433 10.9605 57.7188 10.9605C57.6037 10.9605 57.4979 10.9793 57.4016 11.0169C57.3053 11.0544 57.2219 11.1085 57.1514 11.179C57.0809 11.2495 57.0257 11.3329 56.9857 11.4292C56.9481 11.5256 56.9293 11.6325 56.9293 11.7499C56.9293 11.8674 56.9481 11.9743 56.9857 12.0707C57.0257 12.167 57.0809 12.2504 57.1514 12.3209C57.2219 12.3914 57.3053 12.4454 57.4016 12.483C57.4979 12.5206 57.6037 12.5394 57.7188 12.5394C57.8433 12.5394 57.9573 12.5159 58.0607 12.4689C58.1641 12.4196 58.2581 12.3456 58.3427 12.2469L58.7057 12.5853C58.5905 12.7286 58.446 12.8378 58.2722 12.913C58.0983 12.9882 57.9044 13.0258 57.6906 13.0258Z" fill="#FFC431"/>
<defs>
<linearGradient id="paint0_linear_6413_74133" x1="15.4332" y1="16.611" x2="8.01362" y2="37.3069" gradientUnits="userSpaceOnUse">
<stop stop-color="#263681"/>
<stop offset="1" stop-color="#1A1248"/>
</linearGradient>
<linearGradient id="paint1_linear_6413_74133" x1="15.3055" y1="16.9767" x2="8.20205" y2="36.7918" gradientUnits="userSpaceOnUse">
<stop stop-color="white"/>
<stop offset="1" stop-color="#F5F0FF"/>
</linearGradient>
<linearGradient id="paint2_linear_6413_74133" x1="22.014" y1="34.5034" x2="22.014" y2="35.4506" gradientUnits="userSpaceOnUse">
<stop stop-color="#263681"/>
<stop offset="1" stop-color="#1A1248"/>
</linearGradient>
<linearGradient id="paint3_linear_6413_74133" x1="56.0124" y1="16.611" x2="63.4319" y2="37.3069" gradientUnits="userSpaceOnUse">
<stop stop-color="#263681"/>
<stop offset="1" stop-color="#1A1248"/>
</linearGradient>
<linearGradient id="paint4_linear_6413_74133" x1="56.1402" y1="16.9767" x2="63.2437" y2="36.7918" gradientUnits="userSpaceOnUse">
<stop stop-color="white"/>
<stop offset="1" stop-color="#F5F0FF"/>
</linearGradient>
<linearGradient id="paint5_linear_6413_74133" x1="51.2628" y1="34.5034" x2="51.2628" y2="35.4505" gradientUnits="userSpaceOnUse">
<stop stop-color="#263681"/>
<stop offset="1" stop-color="#1A1248"/>
</linearGradient>
<linearGradient id="paint6_linear_6413_74133" x1="63.0129" y1="26.505" x2="63.2129" y2="34.1093" gradientUnits="userSpaceOnUse">
<stop stop-color="#FAAD1E"/>
<stop offset="1" stop-color="#F2830B"/>
</linearGradient>
<linearGradient id="paint7_linear_6413_74133" x1="60.7341" y1="23.9027" x2="58.6848" y2="30.9256" gradientUnits="userSpaceOnUse">
<stop stop-color="#FFE14D"/>
<stop offset="1" stop-color="#F7A523"/>
</linearGradient>
<linearGradient id="paint8_linear_6413_74133" x1="60.4891" y1="24.7397" x2="58.7665" y2="30.645" gradientUnits="userSpaceOnUse">
<stop stop-color="#FAAD1E"/>
<stop offset="1" stop-color="#F2830B"/>
</linearGradient>
<linearGradient id="paint9_linear_6413_74133" x1="39.2237" y1="18.5254" x2="41.0895" y2="20.7417" gradientUnits="userSpaceOnUse">
<stop stop-color="#FFC085"/>
<stop offset="1" stop-color="#FA976E"/>
</linearGradient>
<linearGradient id="paint10_linear_6413_74133" x1="50.1794" y1="25.7886" x2="55.5946" y2="25.7886" gradientUnits="userSpaceOnUse">
<stop stop-color="#FFC085"/>
<stop offset="1" stop-color="#FA976E"/>
</linearGradient>
<linearGradient id="paint11_linear_6413_74133" x1="48.7691" y1="12.3253" x2="48.4964" y2="14.441" gradientUnits="userSpaceOnUse">
<stop stop-color="#FFC085"/>
<stop offset="1" stop-color="#FA976E"/>
</linearGradient>
<linearGradient id="paint12_linear_6413_74133" x1="46.1707" y1="9.0255" x2="47.021" y2="8.63388" gradientUnits="userSpaceOnUse">
<stop stop-color="#263681"/>
<stop offset="1" stop-color="#1A1248"/>
</linearGradient>
<linearGradient id="paint13_linear_6413_74133" x1="48.456" y1="8.07659" x2="48.5132" y2="12.3462" gradientUnits="userSpaceOnUse">
<stop stop-color="#FFC085"/>
<stop offset="1" stop-color="#FA976E"/>
</linearGradient>
<linearGradient id="paint14_linear_6413_74133" x1="48.228" y1="6.9433" x2="49.0865" y2="13.5336" gradientUnits="userSpaceOnUse">
<stop stop-color="#263681"/>
<stop offset="1" stop-color="#1A1248"/>
</linearGradient>
<linearGradient id="paint15_linear_6413_74133" x1="47.1708" y1="7.08097" x2="48.0293" y2="13.6712" gradientUnits="userSpaceOnUse">
<stop stop-color="#263681"/>
<stop offset="1" stop-color="#1A1248"/>
</linearGradient>
<linearGradient id="paint16_linear_6413_74133" x1="32.6329" y1="22.585" x2="33.5326" y2="24.5704" gradientUnits="userSpaceOnUse">
<stop stop-color="#FFC085"/>
<stop offset="1" stop-color="#FA976E"/>
</linearGradient>
<linearGradient id="paint17_linear_6413_74133" x1="34.0184" y1="22.9083" x2="35.8854" y2="25.1246" gradientUnits="userSpaceOnUse">
<stop stop-color="#FFC085"/>
<stop offset="1" stop-color="#FA976E"/>
</linearGradient>
<linearGradient id="paint18_linear_6413_74133" x1="32.9034" y1="24.7694" x2="32.534" y2="24.799" gradientUnits="userSpaceOnUse">
<stop stop-color="#FFC085"/>
<stop offset="1" stop-color="#FA976E"/>
</linearGradient>
<linearGradient id="paint19_linear_6413_74133" x1="34.0416" y1="25.2049" x2="32.9749" y2="25.2878" gradientUnits="userSpaceOnUse">
<stop stop-color="#FFC085"/>
<stop offset="1" stop-color="#FA976E"/>
</linearGradient>
<linearGradient id="paint20_linear_6413_74133" x1="20.5938" y1="8.90371" x2="16.4726" y2="20.6777" gradientUnits="userSpaceOnUse">
<stop stop-color="#263681"/>
<stop offset="1" stop-color="#1A1248"/>
</linearGradient>
<linearGradient id="paint21_linear_6413_74133" x1="24.0128" y1="12.536" x2="19.9768" y2="12.536" gradientUnits="userSpaceOnUse">
<stop stop-color="#263681"/>
<stop offset="1" stop-color="#1A1248"/>
</linearGradient>
<linearGradient id="paint22_linear_6413_74133" x1="20.4964" y1="15.4484" x2="20.6385" y2="13.5968" gradientUnits="userSpaceOnUse">
<stop stop-color="#FFC085"/>
<stop offset="1" stop-color="#FA976E"/>
</linearGradient>
<linearGradient id="paint23_linear_6413_74133" x1="21.7105" y1="10.1115" x2="19.2231" y2="13.2749" gradientUnits="userSpaceOnUse">
<stop stop-color="#FFC085"/>
<stop offset="1" stop-color="#FA976E"/>
</linearGradient>
<linearGradient id="paint24_linear_6413_74133" x1="20.1554" y1="8.56162" x2="15.9513" y2="20.5724" gradientUnits="userSpaceOnUse">
<stop stop-color="#263681"/>
<stop offset="1" stop-color="#1A1248"/>
</linearGradient>
<linearGradient id="paint25_linear_6413_74133" x1="11.2274" y1="14.6078" x2="9.30237" y2="21.2057" gradientUnits="userSpaceOnUse">
<stop stop-color="#FFE14D"/>
<stop offset="1" stop-color="#F7A523"/>
</linearGradient>
<linearGradient id="paint26_linear_6413_74133" x1="10.9996" y1="15.394" x2="9.3812" y2="20.9418" gradientUnits="userSpaceOnUse">
<stop stop-color="#FAAD1E"/>
<stop offset="1" stop-color="#F2830B"/>
</linearGradient>
<linearGradient id="paint27_linear_6413_74133" x1="58.9697" y1="7.30554" x2="57.0139" y2="14.0088" gradientUnits="userSpaceOnUse">
<stop stop-color="#FFE14D"/>
<stop offset="1" stop-color="#F7A523"/>
</linearGradient>
<linearGradient id="paint28_linear_6413_74133" x1="58.7368" y1="8.10461" x2="57.0923" y2="13.7412" gradientUnits="userSpaceOnUse">
<stop stop-color="#FAAD1E"/>
<stop offset="1" stop-color="#F2830B"/>
</linearGradient>
</defs>
</svg>
