<svg width="32" height="32" viewBox="0 0 32 32" fill="none" xmlns="http://www.w3.org/2000/svg">
<mask id="mask0_6413_75166" style="mask-type:alpha" maskUnits="userSpaceOnUse" x="1" y="1" width="30" height="30">
<rect x="1" y="1" width="30" height="30" fill="#D9D9D9"/>
</mask>
<g mask="url(#mask0_6413_75166)">
<path d="M38.8708 11.7696L27.4195 19.6784C26.8935 18.6593 26.2085 17.5406 25.5659 16.5891H25.6071C25.7472 16.6949 25.8468 16.4861 25.9984 16.4655L37.4703 9.29816C37.9374 10.1212 38.4041 10.9462 38.8708 11.7696Z" fill="#2B3444"/>
<path d="M36.7702 8.0212L24.8247 15.3121C24.4387 14.7523 23.9151 14.0455 23.4653 13.5409L35.4521 5.71448C35.9163 6.4654 36.3311 7.25504 36.7702 8.0212Z" fill="#697892"/>
<path d="M36.7703 8.02124C37.0112 8.44181 37.2316 8.8772 37.4705 9.29818L25.9987 16.4655C25.8471 16.4861 25.7474 16.6949 25.6073 16.5891C25.359 16.1595 25.1065 15.7208 24.8247 15.3121L36.7703 8.02124Z" fill="#4D5A6E"/>
<path d="M39.7771 13.3761C39.9135 13.4746 39.9246 13.6455 40.0243 13.7675L28.2023 21.5321C28.1521 21.4472 28.1858 21.3241 28.1611 21.2437C28.5166 21.0575 28.9738 20.817 29.2939 20.5847C29.8244 20.1995 30.4242 19.6117 30.9416 19.2253C31.4589 18.839 32.0855 18.7508 32.2597 18.0308L39.6742 13.2938C39.6997 13.3333 39.7413 13.3506 39.7771 13.3761Z" fill="#2B3444"/>
<path d="M35.2872 5.42616L23.2592 13.2937C23.1954 13.2303 23.0211 13.1207 22.9297 13.0878C23.0529 12.8921 23.2876 12.8312 23.4446 12.6759L35.1018 5.13782C35.2077 5.20661 35.2229 5.33348 35.2872 5.42616Z" fill="#697892"/>
<path d="M35.452 5.71449L23.4652 13.5409C23.4014 13.4696 23.3009 13.3349 23.2593 13.2937L35.2872 5.42615C35.3539 5.52212 35.3927 5.61851 35.452 5.71449Z" fill="#8593A9"/>
<path d="M26.5551 19.5549C26.6346 19.5157 26.9274 19.4585 27.0288 19.3901C27.0646 19.4057 27.3245 20.0018 27.3789 20.0903C27.1997 20.1892 26.9744 20.3729 26.8022 20.4611C26.6111 20.5591 25.3823 21.1988 25.2987 21.2025C25.1566 21.2083 25.1492 21.1115 25.0722 21.0378C24.8197 20.1707 24.4102 19.283 24.0012 18.4633C23.373 17.2045 22.6452 15.9543 21.818 14.8178C21.8403 14.7433 21.7735 14.6345 21.8798 14.5707C23.3186 16.2723 24.2998 18.3154 25.2987 20.2963C25.6793 20.1237 26.041 19.9132 26.4109 19.7196C26.4949 19.6755 26.5452 19.5598 26.5551 19.5549Z" fill="#C0C6CC"/>
<path d="M23.4653 13.8292C24.0168 14.3112 25.1154 15.9213 25.566 16.5891C26.2086 17.5406 26.8936 18.6593 27.4197 19.6784C27.668 20.1595 28.0038 20.7296 28.1611 21.2437C28.1858 21.324 28.152 21.4472 28.2023 21.532C28.1986 21.5683 28.1092 21.6062 28.0787 21.6144C27.9741 21.1321 27.7488 20.5781 27.502 20.1521C27.4576 20.0755 27.3822 20.0961 27.3785 20.0903C27.3241 20.0018 27.0642 19.4057 27.0283 19.3901C26.927 19.4585 26.6341 19.5157 26.5546 19.5549C25.7044 17.4969 24.5185 15.5848 23.1357 13.8498C23.2527 13.5615 23.2984 13.8099 23.4653 13.8292Z" fill="#C0C6CC"/>
<path d="M28.0787 21.6144C27.5873 21.7483 27.0464 20.8437 26.8018 20.4611C26.9739 20.3729 27.1993 20.1892 27.3784 20.0903C27.3821 20.0961 27.4575 20.0755 27.502 20.1521C27.7488 20.578 27.9741 21.1321 28.0787 21.6144Z" fill="#181C28"/>
<path d="M23.2595 13.2937C23.3011 13.3349 23.4016 13.4696 23.4654 13.5409C23.9153 14.0455 24.4388 14.7523 24.8248 15.3121C25.1065 15.7207 25.359 16.1594 25.6074 16.589H25.5662C25.1156 15.9213 24.017 14.3112 23.4654 13.8292C23.0873 13.4984 23.241 13.8041 22.8064 13.8498C22.8056 13.5421 22.7623 13.3539 22.93 13.0878C23.0214 13.1207 23.1956 13.2303 23.2595 13.2937Z" fill="#181C28"/>
<path d="M39.7774 13.3761C39.7415 13.3506 39.6999 13.3333 39.6744 13.2937L32.2599 18.0308C32.0857 18.7508 31.4447 18.8497 30.9418 19.2253C30.4389 19.601 29.8247 20.1995 29.2941 20.5846C28.9741 20.817 28.5169 21.0575 28.1614 21.2437C28.004 20.7296 27.6683 20.1595 27.4199 19.6784L38.8712 11.7697C39.1735 12.3031 39.5385 12.8064 39.7774 13.3761Z" fill="#2B3444"/>
<path d="M28.8407 19.3489C28.8621 19.3411 29.2723 19.3411 29.2938 19.3489C29.3185 19.3579 29.6418 19.7138 29.6439 19.7402C29.6509 19.8317 29.5627 19.79 29.5615 19.8226C29.5516 20.057 29.5796 20.3503 29.2938 20.4611C28.4584 20.7848 28.1874 19.5837 28.8407 19.3489Z" fill="#686D78"/>
<path d="M28.9228 19.5137C29.1666 19.4651 29.3668 19.5545 29.4789 19.7814C29.1419 20.0801 28.8523 19.6995 29.3553 19.6991C29.2502 19.5273 28.784 19.6154 28.7374 19.7403C28.7288 19.7633 28.8293 19.7588 28.8198 19.7814C28.6451 20.2078 28.4577 19.6064 28.9228 19.5137Z" fill="#2B3444"/>
<path d="M29.1701 19.9668C29.2834 19.9696 29.3266 20.1974 29.2937 20.2139C29.215 20.2539 29.0449 19.9635 29.1701 19.9668Z" fill="#2B3444"/>
<path d="M32.0333 17.8248C32.4477 18.7339 30.7234 18.9905 30.9211 17.9072C31.0719 17.8635 31.207 17.6448 31.3948 17.6188C31.6428 17.5846 31.8624 17.6687 32.0333 17.8248Z" fill="#4D5A6E"/>
<path d="M32.0331 17.8248C31.8621 17.6687 31.6426 17.5847 31.3946 17.6188C31.2068 17.6448 31.0717 17.8635 30.9209 17.9072C31.009 17.4244 31.804 17.3223 32.0331 17.8248Z" fill="#90969A"/>
<path d="M30.8384 18.8958C30.6604 18.7327 30.7333 19.0676 30.6324 19.2459C30.5714 19.3534 30.4219 19.3893 30.3853 19.5137C29.9107 19.6261 29.4902 19.1701 29.685 18.7104C29.7637 18.5251 30.2296 18.324 30.4059 18.3603C30.5191 18.3838 30.8244 18.7496 30.8384 18.8958Z" fill="#686D78"/>
<path d="M30.8384 18.8958C30.868 19.2068 30.6864 19.4424 30.3853 19.5137C30.4219 19.3893 30.5714 19.3534 30.6324 19.2459C30.7333 19.0675 30.6604 18.7327 30.8384 18.8958Z" fill="#49464F"/>
<path d="M30.2004 18.5251C30.6675 18.4884 30.8055 19.2319 30.3652 19.3489C30.3483 19.3534 30.2263 19.2191 30.0562 19.3283C30.2778 19.0025 30.6284 19.3757 30.4475 18.8546L30.1386 18.9576C30.0389 18.6515 30.2111 18.902 30.3446 18.7928L30.2004 18.6074L29.8915 19.1223C29.807 19.2406 29.6468 18.5683 30.2004 18.5251Z" fill="#324256"/>
<path d="M30.0356 18.9782C30.2235 18.9988 30.0274 19.2793 29.9533 19.2253C29.8746 19.1677 29.992 18.9732 30.0356 18.9782Z" fill="#2B3444"/>
<path d="M5.5051 16.0536H5.58748C5.5846 16.0577 5.71559 16.0466 5.66987 16.1154C5.04664 17.0471 4.41847 17.964 3.85744 18.937C3.78782 19.0577 3.48054 19.3534 3.5691 19.4931C4.0358 19.6064 4.42423 19.9474 4.80484 20.2345C4.75789 20.3322 3.90316 19.8008 3.81625 19.7608C3.74004 19.7258 3.56415 19.5973 3.5485 19.5961C3.31989 19.5783 2.78234 20.8705 2.70407 21.1201L2.53931 21.079C2.64929 20.9335 2.71273 20.7156 2.78646 20.5435C3.00271 20.0372 3.28323 19.58 3.5485 19.1018C3.45047 19.1524 3.29229 19.0309 3.21897 18.9782C-0.0899472 16.5973 -3.54674 14.4158 -6.87296 12.058L-6.89355 11.8932C-6.41038 11.0484 -5.90661 10.2176 -5.41066 9.38055L5.31974 16.2595C5.37288 16.2575 5.46144 16.1067 5.5051 16.0536Z" fill="url(#paint0_linear_6413_75166)"/>
<path d="M7.52407 13.1702C7.09114 13.6797 6.63927 14.3474 6.24713 14.9002L-4.62744 8.06243C-4.19905 7.3457 -3.80361 6.62485 -3.3505 5.92047L6.3913 12.5935C6.80239 12.6944 7.10968 13.2353 7.52407 13.1702Z" fill="#AED2DF"/>
<path d="M6.24754 14.9002C6.00327 15.2441 5.76395 15.7417 5.50609 16.0535C5.46243 16.1067 5.37387 16.2574 5.32073 16.2595L-5.40967 9.38051C-5.14893 8.94058 -4.88942 8.50107 -4.62703 8.06238L6.24754 14.9002Z" fill="#94BBCD"/>
<path d="M2.78707 20.5434C2.71333 20.7156 2.6499 20.9335 2.53992 21.0789L-7.98452 14.0764C-8.12581 13.8988 -7.84859 13.5573 -7.75797 13.3761L2.78707 20.5434Z" fill="#5E8AA3"/>
<path d="M7.89498 12.8818C7.79406 12.8637 7.71085 12.9461 7.64783 13.0054L-3.18555 5.63208C-3.15712 5.59172 -3.04961 5.33962 -3.02078 5.32315L-2.9178 5.30255L7.89498 12.6552C7.94935 12.7236 7.89457 12.8707 7.89498 12.8818Z" fill="#AED2DF"/>
<path d="M7.64756 13.0054C7.60431 13.0461 7.56353 13.1236 7.52398 13.1701C7.1096 13.2352 6.80231 12.6944 6.39122 12.5935L-3.35059 5.92042C-3.29168 5.82856 -3.25214 5.72641 -3.18582 5.63208L7.64756 13.0054Z" fill="#AED2DF"/>
<path d="M7.85349 13.5409C7.74392 13.9507 5.63533 16.6632 5.21723 17.3099C4.9429 17.7342 4.53222 18.3216 4.31102 18.7516C4.19445 18.9782 4.3172 18.9852 4.31102 18.9988C4.27889 19.07 3.94688 18.8822 3.85791 18.937C4.41894 17.964 5.04711 17.0471 5.67034 16.1153C5.71606 16.0466 5.58507 16.0577 5.58796 16.0536C6.18729 15.1601 6.96787 14.3042 7.58575 13.4173L7.85349 13.5409Z" fill="#C0C6CC"/>
<path d="M7.89497 12.8818C7.90362 13.0569 7.89785 13.3761 7.85378 13.5409L7.58603 13.4173C6.96816 14.3042 6.18758 15.1601 5.58824 16.0536H5.50586C5.76372 15.7418 6.00304 15.2442 6.24731 14.9002C6.63945 14.3474 7.09132 13.6797 7.52425 13.1702C7.56379 13.1236 7.60457 13.0462 7.64782 13.0054C7.71084 12.9461 7.79405 12.8637 7.89497 12.8818Z" fill="#24556C"/>
<path d="M3.81676 19.7608L2.70459 21.1202C2.78285 20.8705 3.3204 19.5784 3.54902 19.5961C3.56467 19.5973 3.74056 19.7258 3.81676 19.7608Z" fill="#44728E"/>
<path d="M2.78722 20.5435L-7.75781 13.3761C-7.50242 12.8662 -7.17578 12.388 -6.89279 11.8932L-6.87219 12.058C-3.54598 14.4158 -0.0891819 16.5973 3.21974 18.9782C3.29306 19.0309 3.45123 19.1524 3.54927 19.1018C3.28399 19.58 3.00348 20.0372 2.78722 20.5435Z" fill="#44728E"/>
<path d="M1.79855 18.8546C1.5584 19.8123 0.0404961 18.9868 0.809954 18.3191C1.01468 18.4509 1.22516 18.2449 1.48961 18.3603C1.64367 18.4274 1.76189 18.7005 1.79855 18.8546Z" fill="#7799AC"/>
<path d="M1.79866 18.8546C1.762 18.7005 1.64378 18.4274 1.48972 18.3603C1.22527 18.2449 1.01478 18.4509 0.810059 18.3191C1.23021 17.9545 1.93541 18.3092 1.79866 18.8546Z" fill="#AED2DF"/>
<path d="M0.830566 18.7722C1.09872 18.9098 1.10737 19.1462 1.42784 18.9576L1.36606 18.8134L1.55142 18.8752C1.37224 19.2476 0.947962 19.1462 0.830566 18.7722Z" fill="#27668E"/>
<path d="M1.20121 18.5662C1.36103 18.5143 1.24775 18.7817 1.16001 18.731C1.10605 18.7001 1.14972 18.5827 1.20121 18.5662Z" fill="#074E86"/>
<path d="M21.3231 15.1062C21.4528 15.1021 21.571 14.9431 21.735 14.9826C21.7432 15.0819 22.6325 16.4433 22.7648 16.692C23.0267 17.1851 23.2615 17.6942 23.5062 18.1955C23.32 18.4031 23.6413 18.9012 23.671 19.1635C23.7324 19.7052 23.629 20.244 23.3414 20.7082C23.3287 20.7045 23.3126 20.7123 23.3003 20.7082C23.1038 20.646 21.6526 19.6356 21.6526 19.5343C21.7383 19.489 22.392 18.6898 22.2911 18.6486C21.6925 19.3489 21.1591 18.986 20.4992 18.6075C20.1289 18.3953 19.7652 18.0588 19.3871 17.8248L17.2451 15.8888C17.2451 15.8752 17.2467 15.8608 17.2451 15.8476C17.2406 15.8089 17.0869 15.6322 17.0803 15.6005C17.0074 15.2528 16.9366 14.9068 16.9156 14.5501C16.7611 14.6296 16.7277 14.9241 16.6272 15.065C16.3479 15.4575 15.9542 15.5638 15.4945 15.6005C14.9557 15.6433 14.7139 15.7335 14.4853 15.2709C14.4663 15.233 14.4441 15.0959 14.4029 15.1268C14.3831 15.5342 14.2426 15.8596 14.0733 16.2183C13.661 16.7699 12.9257 17.2741 12.2197 17.2275C12.9311 16.7345 13.7673 16.0198 13.9498 15.1268C13.9868 14.9455 13.9901 13.9108 14.0939 13.8704C14.9697 14.3738 16.399 13.5038 17.2245 13.6233C17.8972 13.7205 19.6326 14.6041 20.4374 14.859C20.6446 14.9245 21.1406 15.1124 21.3231 15.1062Z" fill="url(#paint1_linear_6413_75166)"/>
<path d="M20.0872 24.7038C20.2297 24.7545 20.3146 24.7565 20.4579 24.7038C20.462 24.7145 20.4546 24.731 20.4579 24.745C20.6515 25.6018 19.6477 26.1233 18.8926 25.9807C18.9342 25.8497 18.9239 25.8629 18.8309 25.7748C18.5124 25.4728 16.1798 23.9739 15.7827 23.8388C15.7024 23.8116 15.5957 23.7766 15.5149 23.8388C15.4717 23.7515 15.4416 23.6777 15.3914 23.5916C15.2015 23.2646 14.7854 23.0384 14.4234 23.2209C14.3249 23.2707 14.1647 23.5146 14.0732 23.5916C13.8689 23.7634 13.5958 23.9829 13.4142 24.1683C13.4059 24.0147 13.3544 24.0958 13.2906 24.1477C12.8783 24.4826 12.3988 25.1618 12.096 25.61C11.9931 25.423 12.6983 24.8336 12.405 24.7862C12.2653 24.7635 12.1026 25.0267 11.5605 24.8686C12.0104 24.5815 12.4169 24.2198 12.8581 23.9212C13.0055 23.8211 13.1818 23.8635 13.3524 23.7564C13.6201 23.5883 13.9632 23.1921 14.1556 22.9326C14.1589 22.9499 14.2454 23.0327 14.2174 23.2209C14.839 23.0887 14.5115 22.1751 14.238 21.841C13.6461 21.1185 12.9495 21.5811 12.3844 22.0675L12.3432 21.5526C12.2353 21.4781 12.2377 21.6717 12.2196 21.6968C12.1805 21.7508 12.0462 21.9617 11.9519 21.9028C11.977 21.7759 12.0433 21.7154 12.0548 21.5732C12.0672 21.4179 11.9634 21.364 12.0137 21.2437C12.0791 21.303 12.2439 21.5671 12.302 21.3879C12.3152 21.3471 11.9865 20.9422 11.9313 20.873C12.3201 20.9694 13.0224 21.3768 13.2288 21.4085C13.4352 21.4402 13.9748 21.2989 14.1762 21.4085C14.3546 21.5057 14.8097 22.589 14.7117 22.8502C16.2243 22.7727 18.4008 25.4139 19.7371 25.1569C19.9368 25.1186 20.1972 24.9246 20.0872 24.7038Z" fill="#E19371"/>
<path d="M22.0235 23.5504C22.2369 24.4081 21.7764 24.8513 20.9113 24.8274C20.9324 24.6647 21.058 24.7953 20.8907 24.6626C20.4142 24.2853 19.8111 23.943 19.3255 23.5504C18.9049 23.2102 18.1581 22.3814 17.8014 22.1499C17.7557 22.1203 17.52 22.0412 17.5336 22.1911C17.4924 22.1565 17.4241 22.1565 17.3895 22.1087C17.3771 22.2035 17.319 22.3023 17.3277 22.3971C16.9405 22.18 16.6554 21.42 17.0393 21.079C17.6103 21.0015 19.0116 22.4943 19.5314 22.8914C20.1736 23.382 21.362 24.4834 22.0235 23.5504Z" fill="#E19371"/>
<path d="M23.259 22.2735C23.0975 22.8185 22.4343 23.3235 21.8584 23.015C21.596 22.8745 21.1191 22.2904 20.8698 22.0676C20.7702 21.7854 19.4187 20.2411 19.284 20.2139C19.0792 20.1723 19.1101 20.3309 19.0986 20.3375C19.0533 20.3635 18.8486 20.1806 18.975 20.6259C18.4667 20.4998 17.9971 19.0507 18.7073 19.143C19.099 19.194 21.2781 21.4616 21.879 21.8616C22.279 22.1277 22.7597 22.4016 23.259 22.2735Z" fill="#E19371"/>
<path d="M7.97766 16.7126C6.99566 18.3397 6.23073 19.4296 7.68932 21.1613C7.65019 21.2256 7.50602 21.4793 7.48337 21.532L5.54736 20.2345C6.23773 18.9893 6.99154 17.7783 7.77171 16.5891L7.97766 16.7126Z" fill="#C16F54"/>
<path d="M13.5795 21.8204C13.4254 21.8381 13.4234 21.848 13.2912 21.9028C12.8273 22.0947 12.2655 22.659 12.179 23.1591L12.4261 23.1385C12.4533 23.2267 12.8368 23.6497 12.8998 23.674C13.2582 23.8112 13.9737 23.1076 14.0738 22.7678C14.2901 22.8386 14.1479 22.8876 14.1562 22.9325C13.9638 23.1921 13.6207 23.5883 13.353 23.7564C13.1824 23.8635 13.0061 23.821 12.8587 23.9211C12.4175 24.2198 12.0109 24.5814 11.5611 24.8685C11.1628 24.7524 10.8011 24.4739 10.9226 24.0035C10.8258 23.9529 10.3435 24.637 10.3254 24.7862H10.2842C10.6372 24.3075 10.6656 23.8956 11.2316 23.3445C11.5656 23.019 12.9011 21.8579 13.3118 21.738C13.3332 21.7318 13.6396 21.6605 13.5795 21.8204Z" fill="#EFB094"/>
<path d="M8.92465 20.4611C8.99509 20.5542 9.11661 20.6089 9.21299 20.667L9.08942 20.7288C9.4552 20.9541 9.51328 21.2997 9.33657 21.6762C9.1405 22.0951 8.98726 22.002 8.63631 22.0675C8.57535 21.8056 8.22316 21.5238 7.97725 21.3879L7.95665 20.9554C7.68149 21.2206 8.10206 21.8122 8.10082 21.8822C8.09959 21.9522 7.5711 22.3967 7.56533 22.5618C7.36349 22.3077 7.41663 22.2529 7.35938 21.944C7.37791 21.8764 7.46565 21.572 7.48295 21.5321C7.5056 21.4793 7.64978 21.2256 7.68891 21.1613C7.99867 20.6543 8.29648 20.3515 8.92465 20.4611Z" fill="#F5C8B0"/>
<path d="M11.5612 24.8686C12.1033 25.0267 12.266 24.7635 12.4056 24.7862C12.6989 24.8335 11.9937 25.423 12.0967 25.61C11.9743 25.7908 11.894 25.9931 11.726 26.1455C11.0339 26.2188 10.2455 25.4498 10.3254 24.7862C10.3436 24.6371 10.8259 23.9529 10.9227 24.0035C10.8012 24.4739 11.1629 24.7524 11.5612 24.8686Z" fill="#E19371"/>
<path d="M15.5566 24.1271C15.5612 24.1346 15.6505 24.2182 15.6802 24.2507C15.8849 24.7532 15.4417 25.1994 15.4948 25.61C15.5706 25.7105 16.9851 26.4532 17.1425 26.4751C17.4634 26.5195 18.4652 26.3218 18.0487 25.9396C17.739 25.6553 16.9332 25.2064 16.504 24.8686L18.5224 25.9808C18.5583 26.2485 17.7002 26.8066 17.4308 26.8458C16.5778 26.9698 15.8742 26.3585 15.1035 26.1455C15.1221 26.1204 15.3931 25.6207 15.3919 25.5894C15.3881 25.5062 15.1661 25.3888 15.1035 25.3217C15.1847 25.175 15.2897 24.9959 15.3095 24.8274L15.5566 24.1271Z" fill="#CF7F61"/>
<path d="M25.0719 21.0377C24.9158 20.8886 24.8569 20.5933 24.6188 20.6258C24.2781 19.8008 23.8979 18.9975 23.5066 18.1955C23.2619 17.6942 23.0271 17.1851 22.7651 16.692C22.6329 16.4432 21.7436 15.0818 21.7354 14.9826C21.7345 14.9715 21.7963 14.8891 21.8177 14.8178C22.6449 15.9543 23.3727 17.2044 24.0009 18.4633C24.4099 19.283 24.8194 20.1707 25.0719 21.0377Z" fill="#C16F54"/>
<path d="M12.0549 22.2323C11.7258 22.7604 11.1606 23.1438 10.778 23.6122C10.3817 24.0974 10.1218 24.6844 9.707 25.1569C9.37952 25.2314 9.06935 25.1322 8.80078 24.9509L9.37746 24.1271C9.95826 24.1712 10.8356 23.3247 11.2105 22.8913C11.2504 22.8448 11.2768 22.783 11.2311 22.7266C11.3604 22.6623 11.5058 22.6079 11.6224 22.5206C11.7649 22.4139 11.921 21.9406 12.0549 22.2323Z" fill="#E19371"/>
<path d="M9.37739 24.1271L8.80071 24.951C8.30229 24.6144 8.38303 24.0254 8.47118 23.4681C8.472 23.4635 8.4926 23.4788 8.51237 23.3857C8.84767 23.3717 8.80895 23.1208 8.96548 22.912C9.05898 22.7876 9.19492 22.6879 9.29501 22.5619C9.45813 22.4486 9.78807 22.8753 9.78931 22.9532C9.79055 23.0492 9.61713 23.1291 9.58335 23.2003C9.56482 23.239 9.60189 23.3737 9.58335 23.4063C9.53186 23.4957 9.0285 23.9706 9.04786 24.0242C9.15125 24.0818 9.25835 24.1181 9.37739 24.1271Z" fill="#EFB094"/>
<path d="M23.5066 18.1956C23.8979 18.9976 24.2781 19.8008 24.6187 20.6259C24.5961 20.6292 24.2723 20.7993 24.2068 20.8318C23.9411 20.7387 23.6314 20.7902 23.3418 20.7082C23.6293 20.244 23.7327 19.7052 23.6713 19.1636C23.6417 18.9012 23.3204 18.4032 23.5066 18.1956Z" fill="#E19371"/>
<path d="M9.213 20.667C9.48734 20.8326 9.8317 21.0929 9.78968 21.4702C9.74767 21.8475 8.65321 22.6887 8.28619 22.809C8.12925 22.8604 7.84709 22.7917 7.79189 22.809C7.73669 22.8263 7.5501 23.1698 7.40057 23.1385C7.12541 22.7233 7.24487 22.3661 7.35938 21.9439C7.41664 22.2529 7.3635 22.3077 7.56534 22.5618C7.60735 22.6145 7.71569 22.7776 7.79189 22.7678C7.93771 22.6009 8.15808 22.4938 8.32738 22.3558C8.41471 22.2846 8.51563 22.0346 8.53334 22.0263C8.53828 22.0238 8.56094 22.0815 8.63632 22.0675C8.98727 22.002 9.1405 22.0951 9.33657 21.6762C9.51329 21.2997 9.45521 20.9541 9.08942 20.7288L9.213 20.667Z" fill="#E19371"/>
<path d="M20.9115 24.8274C20.7718 24.8237 20.5992 24.6919 20.4584 24.745C20.4551 24.731 20.4625 24.7145 20.4584 24.7038C19.4278 24.0678 18.4919 23.2926 17.6573 22.4177C17.6277 22.3868 17.5614 22.2142 17.5338 22.1911C17.5202 22.0412 17.7558 22.1203 17.8015 22.1499C18.1582 22.3814 18.905 23.2102 19.3256 23.5505C19.8112 23.943 20.4143 24.2853 20.8909 24.6626C21.0581 24.7953 20.9325 24.6647 20.9115 24.8274Z" fill="#EFB094"/>
<path d="M15.1444 24.9098C14.6987 25.6821 14.1236 26.1793 13.4555 26.7634C12.6988 26.9422 12.291 26.8318 12.0962 26.0219C12.102 26.0203 12.1098 25.9511 12.1786 25.9396C12.4636 25.891 12.2816 26.1241 12.3639 26.1867C12.4014 26.2151 12.4504 26.1171 12.4875 26.1455C13.3744 26.8268 14.4231 25.6022 15.0002 24.951C15.0307 24.9164 15.1118 24.8101 15.1444 24.9098Z" fill="#E19371"/>
<path d="M19.0988 20.3375C19.6018 20.9998 20.2559 21.5193 20.87 22.0675C21.1193 22.2904 21.5963 22.8745 21.8586 23.0149C21.8529 23.0462 21.8315 23.0685 21.8175 23.0973C21.8047 23.1237 21.8446 23.1941 21.7557 23.1797C21.5481 23.1542 19.0584 20.9183 18.9752 20.6258C18.8488 20.1805 19.0535 20.3634 19.0988 20.3375Z" fill="#B55F42"/>
<path d="M18.8931 25.9808C18.767 25.9569 18.6142 25.8148 18.4812 25.8572L15.5154 24.0036C15.4416 23.8479 15.5191 23.8462 15.5154 23.8388C15.5961 23.7766 15.7028 23.8116 15.7831 23.8388C16.1802 23.9739 18.5129 25.4729 18.8313 25.7748C18.9244 25.863 18.9347 25.8498 18.8931 25.9808Z" fill="#E19371"/>
<path d="M9.99595 21.532C9.46622 21.9604 8.65145 22.7332 8.51305 23.3857C8.49328 23.4788 8.47268 23.4635 8.47186 23.468C8.29185 23.3395 8.01958 23.4804 7.7922 23.4269C7.63114 23.389 7.49191 23.2761 7.40088 23.1385C7.5504 23.1698 7.73577 22.8267 7.7922 22.809C7.84863 22.7913 8.12956 22.8605 8.2865 22.809C8.65351 22.6887 9.74962 21.8303 9.78999 21.4703C9.83036 21.1102 9.48764 20.8326 9.21331 20.667C9.11692 20.6089 8.9954 20.5542 8.92497 20.4611C9.43286 20.5496 9.93951 21.0077 9.99595 21.532Z" fill="#C16F54"/>
<path d="M18.4809 25.8572C18.5114 25.9066 18.5143 25.9239 18.5221 25.9807L16.5037 24.8686C16.2422 24.663 15.9032 24.497 15.6799 24.2507C15.6502 24.2181 15.5609 24.1345 15.5563 24.1271C15.5258 24.0773 15.5263 24.0274 15.5151 24.0035L18.4809 25.8572Z" fill="#B55F42"/>
<path d="M12.3845 22.0675C11.9812 22.4148 11.6179 22.9655 11.2311 23.3445C10.6651 23.8956 10.6367 24.3075 10.2837 24.7862C10.2166 24.8772 9.81784 25.1318 9.70703 25.1569C10.1218 24.6844 10.3817 24.0974 10.778 23.6122C11.1607 23.1439 11.7258 22.7604 12.0549 22.2323C12.169 22.0494 12.3079 21.9279 12.2197 21.6968C12.2378 21.6717 12.2354 21.4781 12.3433 21.5526L12.3845 22.0675Z" fill="#B55F42"/>
<path d="M9.21319 14.8178C8.83629 15.4703 8.36588 16.0688 7.97744 16.7126L7.77148 16.589C8.18999 15.951 8.58749 15.28 9.06902 14.6942C9.11639 14.7395 9.1514 14.7894 9.21319 14.8178Z" fill="#E19371"/>
<path d="M24.2065 20.8318C23.8432 21.0126 23.5186 21.3331 23.1355 21.4909C23.0811 21.3842 22.93 21.2203 22.8472 21.1202L23.3003 20.7082C23.3126 20.7124 23.3287 20.7045 23.3415 20.7082C23.631 20.7902 23.9408 20.7387 24.2065 20.8318Z" fill="#C16F54"/>
<path d="M15.3097 24.8274C15.2899 24.9958 15.1849 25.175 15.1037 25.3217C14.9983 25.5124 14.8335 25.7311 14.6918 25.8984C14.6148 25.989 14.195 26.4161 14.1151 26.475C13.9096 26.627 13.704 26.7049 13.4561 26.7634C14.1242 26.1793 14.6992 25.6821 15.1449 24.9098C15.2368 24.7503 15.2199 24.6194 15.3097 24.8274Z" fill="#E19371"/>
<path d="M13.4144 24.1683C12.9655 24.6268 12.3274 25.3167 12.1787 25.9395C12.1099 25.9511 12.1021 26.0203 12.0963 26.0219C11.976 26.0582 11.852 26.1319 11.7256 26.1455C11.8936 25.9931 11.974 25.7908 12.0963 25.61C12.3991 25.1618 12.8785 24.4826 13.2909 24.1477C13.3547 24.0958 13.4062 24.0147 13.4144 24.1683Z" fill="#B55F42"/>
<path d="M15.0622 26.1867C14.8352 26.4479 14.4319 26.4586 14.1147 26.4751C14.1947 26.4162 14.6144 25.989 14.6914 25.8984L15.0622 26.1867Z" fill="#C16F54"/>
<path d="M15.1028 26.1455C15.0777 26.1801 15.0645 26.1834 15.0616 26.1867L14.6909 25.8983C14.8326 25.7311 14.9974 25.5124 15.1028 25.3217C15.1654 25.3888 15.3875 25.5062 15.3912 25.5894C15.3924 25.6207 15.1214 26.1204 15.1028 26.1455Z" fill="#C16F54"/>
<path d="M14.4854 15.2709C14.3858 15.3463 14.3837 16.0985 14.4648 16.1359C15.3047 16.0779 16.0297 15.9918 16.5862 15.3121C16.5817 15.3245 16.5907 15.3414 16.5862 15.3533C16.4775 15.6318 16.2221 15.925 16.4832 16.1359C16.8523 16.4338 16.9676 16.028 17.2453 15.8476C17.2469 15.8608 17.2453 15.8752 17.2453 15.8888C17.2469 15.9728 17.0776 16.3374 17.0805 16.3625C17.0957 16.4988 19.0931 17.6427 19.3872 17.8248C19.7654 18.0588 20.1291 18.3953 20.4994 18.6074L21.6116 19.5342L21.3644 19.7608C20.5258 19.0231 17.6683 16.6751 16.7098 16.4655C16.1413 15.9432 15.6326 16.236 15.0003 16.3831C14.8413 16.4202 14.455 16.3876 14.3413 16.4243C14.2774 16.4449 13.6904 17.2308 13.4351 17.4129C12.7307 17.9158 11.5835 18.2421 10.8606 17.6188C10.8598 17.6085 10.7625 17.4808 10.84 17.4129C11.9435 18.3689 13.536 17.3581 14.0735 16.2183C14.2428 15.8595 14.3833 15.5341 14.4031 15.1267C14.4442 15.0959 14.4665 15.233 14.4854 15.2709Z" fill="#B55F42"/>
<path d="M16.71 16.4655C16.3999 16.3975 15.775 16.4725 15.4743 16.5479C14.2295 16.8593 13.1272 18.6993 11.7465 18.5251C11.3119 18.4703 10.9024 18.0534 10.8608 17.6188C11.5838 18.2421 12.7309 17.9158 13.4353 17.4129C13.6907 17.2308 14.2777 16.4449 14.3415 16.4243C14.4552 16.3876 14.8416 16.4202 15.0006 16.3831C15.6329 16.236 16.1416 15.9432 16.71 16.4655Z" fill="#E19371"/>
<path d="M23.3 20.7082L22.8469 21.1201C22.8346 21.1053 22.7378 21.0538 22.7234 21.0377C22.3123 20.5788 21.8258 20.1669 21.364 19.7608L21.6112 19.5342L20.499 18.6074C21.1589 18.986 21.6923 19.3489 22.2909 18.6486C22.3918 18.6898 21.7381 19.4889 21.6524 19.5342C21.6524 19.6356 23.1036 20.646 23.3 20.7082Z" fill="#C16F54"/>
<path d="M17.5335 22.1911C17.5611 22.2142 17.6274 22.3868 17.6571 22.4177C18.4916 23.2926 19.4275 24.0678 20.4581 24.7038C20.3147 24.7566 20.2299 24.7545 20.0874 24.7038C19.811 24.6062 18.878 23.929 18.6045 23.7152C18.331 23.5015 17.3522 22.6756 17.3275 22.3971C17.3189 22.3024 17.377 22.2035 17.3893 22.1088C17.4239 22.1565 17.4923 22.1565 17.5335 22.1911Z" fill="#B55F42"/>
<path d="M12.014 21.2437C11.9637 21.364 12.0675 21.4179 12.0552 21.5732H11.8492C11.8397 21.3734 11.5996 21.1914 11.4373 21.1201C11.4311 21.1176 11.3549 21.0406 11.3343 21.0377C11.2285 21.0237 11.2058 21.0682 11.149 21.0789C11.1593 20.9302 10.983 21.0101 10.9224 21.0377C10.1801 21.3776 9.74721 21.9946 9.29533 22.5618C9.19524 22.6879 9.05931 22.7876 8.9658 22.912C8.80927 23.1208 8.84799 23.3716 8.5127 23.3857C8.6511 22.7332 9.46587 21.9604 9.99559 21.532C10.2893 21.2944 10.7317 20.9372 11.1078 20.873C11.6021 20.7885 11.6919 20.9512 12.014 21.2437Z" fill="#F5C8B0"/>
<path d="M21.3233 15.1062C21.1408 15.1124 20.6449 14.9245 20.4377 14.859C19.6328 14.604 17.8974 13.7205 17.2247 13.6233C16.3992 13.5038 14.9699 14.3738 14.0942 13.8704C13.9904 13.9108 13.9871 14.9455 13.95 15.1268C13.7675 16.0198 12.9313 16.7345 12.2199 17.2275C12.926 17.2741 13.6612 16.7699 14.0736 16.2183C13.536 17.3581 11.9436 18.369 10.84 17.4129C10.7626 17.4809 10.8598 17.6086 10.8606 17.6189C10.9022 18.0534 11.3117 18.4703 11.7462 18.5251C13.127 18.6993 14.2293 16.8593 15.4741 16.5479C15.6743 16.8206 16.0631 17.0537 16.3597 17.2481C17.703 18.1288 19.1422 18.8657 20.4789 19.7608C20.8759 20.0269 22.1611 21.17 22.5384 21.1613C22.5496 21.1613 22.6484 21.0357 22.7238 21.0378C22.7382 21.0538 22.835 21.1053 22.8474 21.1201C22.9302 21.2202 23.0813 21.3842 23.1357 21.4909C23.2725 21.7607 23.3499 21.9675 23.2593 22.2735C22.76 22.4016 22.2793 22.1277 21.8794 21.8616C21.2784 21.4616 19.0993 19.194 18.7076 19.1429C17.9975 19.0507 18.4671 20.4998 18.9754 20.6258C19.0586 20.9183 21.5482 23.1542 21.7558 23.1797C21.8448 23.1941 21.8048 23.1237 21.8176 23.0973C21.9498 23.2201 21.9823 23.3844 22.0235 23.5504C21.362 24.4834 20.1736 23.382 19.5314 22.8914C19.0116 22.4943 17.6103 21.0015 17.0394 21.0789C16.7766 21.1148 16.6184 21.462 16.6274 21.7174C16.648 22.2962 18.0729 23.4891 18.6046 23.7152C18.8781 23.929 19.8111 24.6062 20.0875 24.7038C20.1975 24.9246 19.9372 25.1186 19.7374 25.1569C18.4011 25.4139 16.2246 22.7727 14.712 22.8502C14.8101 22.589 14.3549 21.5057 14.1765 21.4085C13.9751 21.2989 13.4359 21.4402 13.2291 21.4085C13.0224 21.3768 12.3205 20.9694 11.9316 20.873C11.8093 20.8425 11.0217 20.5941 11.1078 20.873C10.7317 20.9372 10.2893 21.2944 9.9956 21.5321C9.93917 21.0077 9.43251 20.5496 8.92462 20.4611C8.29645 20.3515 7.99864 20.6543 7.68888 21.1613C6.23028 19.4296 6.99521 18.3397 7.97722 16.7126C8.36565 16.0688 8.83606 15.4703 9.21296 14.8178C9.60964 14.9999 9.93835 15.2244 10.3869 15.3121C10.6703 15.3677 11.8134 15.4361 12.014 15.2915C12.0968 15.2318 12.4543 14.2111 12.6319 14.0146C13.043 13.559 13.8536 13.7423 14.3825 13.6645C15.0292 13.5693 15.802 13.3288 16.4421 13.2937C17.8385 13.2171 19.8824 14.3272 21.1791 14.9414C21.2751 14.9871 21.3484 14.9707 21.3233 15.1062Z" fill="url(#paint2_linear_6413_75166)"/>
<path d="M11.8697 15.6417C11.9859 15.6289 12.3442 15.9898 12.3846 16.1154C12.6087 16.814 11.2654 17.7861 10.8193 17.0216C10.9989 16.8919 11.7836 15.6512 11.8697 15.6417Z" fill="#FDE4D1"/>
<path d="M17.0397 21.0789C16.6558 21.42 16.9409 22.18 17.3281 22.397C17.3528 22.6755 18.3447 23.5113 18.605 23.7152C18.0732 23.489 16.6484 22.2961 16.6278 21.7174C16.6187 21.462 16.7769 21.1148 17.0397 21.0789Z" fill="#EFB094"/>
<path d="M19.6964 21.738L21.6942 23.3239C21.3144 23.5879 19.5518 21.8138 19.6964 21.738Z" fill="#F5C8B0"/>
<path d="M11.9315 20.873C11.9867 20.9422 12.3154 21.3471 12.3022 21.3879C12.2441 21.5671 12.0793 21.303 12.0138 21.2437C11.6917 20.9513 11.6019 20.7886 11.1076 20.873C11.0215 20.5941 11.8091 20.8425 11.9315 20.873Z" fill="#E19371"/>
<path d="M16.5859 15.3122C16.0294 15.9918 15.3044 16.0779 14.4645 16.136C14.3834 16.0985 14.3854 15.3463 14.4851 15.271C14.7137 15.7335 14.9555 15.6433 15.4943 15.6005C15.954 15.5638 16.3478 15.4576 16.6271 15.065C16.7564 15.1429 16.6019 15.2668 16.5859 15.3122Z" fill="#E19371"/>
<path d="M19.3873 17.8248C19.0932 17.6427 17.0958 16.4988 17.0806 16.3625C17.0777 16.3374 17.247 15.9728 17.2454 15.8888L19.3873 17.8248Z" fill="#E19371"/>
<path d="M17.0807 15.6005C17.0873 15.6322 17.2409 15.8089 17.2454 15.8476C16.9678 16.0281 16.8525 16.4338 16.4834 16.136C16.2222 15.9251 16.4776 15.6318 16.5864 15.3533C16.7581 15.39 16.885 15.6965 17.0807 15.6005Z" fill="#E19371"/>
<path d="M17.0806 15.6005C16.8849 15.6965 16.758 15.39 16.5863 15.3533C16.5908 15.3414 16.5817 15.3245 16.5863 15.3122C16.6023 15.2668 16.7568 15.1429 16.6275 15.065C16.728 14.9241 16.7613 14.6296 16.9158 14.5501C16.9368 14.9068 17.0077 15.2528 17.0806 15.6005Z" fill="#E19371"/>
<path d="M14.1971 23.674C14.0175 23.8977 13.7992 24.3462 13.9088 24.642C13.9256 24.6881 14.3495 25.1449 14.3825 25.1569C14.6296 25.2479 14.7466 24.8319 14.815 24.7038C15.2092 24.5633 15.28 23.931 15.3917 23.5916C15.4419 23.6777 15.472 23.7514 15.5152 23.8388C15.5189 23.8462 15.4415 23.8478 15.5152 24.0035C15.5263 24.0274 15.5259 24.0773 15.5564 24.1271L15.3093 24.8274C15.2195 24.6193 15.2364 24.7503 15.1445 24.9097C15.112 24.8101 15.0308 24.9163 15.0003 24.9509C14.4232 25.6022 13.3745 26.8268 12.4876 26.1455C12.4506 26.1171 12.4016 26.2151 12.3641 26.1867C12.2817 26.1241 12.4638 25.8909 12.1787 25.9395C12.3274 25.3167 12.9655 24.6268 13.4145 24.1683C13.5961 23.9829 13.8692 23.7634 14.0735 23.5916L14.1971 23.674Z" fill="#E19371"/>
<path d="M11.4371 21.1201C11.1928 21.1494 11.6641 21.5456 11.746 21.6556C11.7695 21.6873 11.6505 21.836 11.849 21.7586C11.847 21.6968 11.8519 21.6346 11.849 21.5732H12.055C12.0434 21.7153 11.9771 21.7759 11.952 21.9028C12.0463 21.9617 12.1806 21.7508 12.2197 21.6968C12.3079 21.9279 12.1691 22.0494 12.055 22.2323C11.9211 21.9407 11.765 22.4139 11.6225 22.5206C11.5059 22.608 11.3605 22.6623 11.2311 22.7266C11.0206 22.8312 10.8163 23.0322 10.5515 22.8914C10.4184 22.8205 10.5758 22.7921 10.5721 22.7884C10.4057 22.6026 10.2656 22.4193 10.1602 22.1911C10.238 21.8047 10.9379 21.5769 10.8604 21.2025C10.9519 21.1535 11.0441 21.0987 11.1488 21.0789C11.2056 21.0682 11.2283 21.0237 11.3341 21.0377C11.3547 21.0406 11.4309 21.1176 11.4371 21.1201Z" fill="#F5C8B0"/>
<path d="M14.156 22.9326C14.1478 22.8877 14.2899 22.8387 14.0737 22.7678C14.1116 22.6397 14.1359 22.4886 14.1149 22.3559C14.0864 22.1776 13.9575 22.0198 13.8265 21.9028C13.7454 21.8303 13.8104 21.7936 13.5794 21.8204C13.6395 21.6606 13.333 21.7319 13.3116 21.738C12.9009 21.8579 11.5655 23.0191 11.2314 23.3445C11.6182 22.9655 11.9815 22.4148 12.3848 22.0676C12.95 21.5811 13.6465 21.1185 14.2384 21.841C14.5119 22.1751 14.8394 23.0887 14.2178 23.2209C14.2458 23.0327 14.1593 22.9499 14.156 22.9326Z" fill="#F5C8B0"/>
<path d="M15.3919 23.5916C15.2802 23.931 15.2094 24.5633 14.8152 24.7038C14.9474 24.4558 15.1464 24.0666 15.1447 23.7976C15.1435 23.5661 14.8193 23.3218 14.6092 23.3445C14.5458 23.3515 14.2434 23.6163 14.1973 23.674L14.0737 23.5916C14.1652 23.5146 14.3254 23.2707 14.4239 23.2209C14.7859 23.0384 15.202 23.2646 15.3919 23.5916Z" fill="#FDE4D1"/>
<path d="M20.8704 22.0675C20.2562 21.5193 19.6021 20.9999 19.0991 20.3375C19.1107 20.3309 19.0798 20.1723 19.2845 20.2139C19.4192 20.2411 20.7707 21.7854 20.8704 22.0675Z" fill="#EFB094"/>
<path d="M13.8264 21.9028C13.62 21.9143 14.0155 22.4111 14.1147 22.3559C14.1357 22.4885 14.1114 22.6397 14.0735 22.7678C13.9735 23.1076 13.258 23.8112 12.8996 23.674C12.8366 23.6497 12.4531 23.2267 12.4259 23.1385C12.2879 22.6928 13.3115 22.3411 13.2909 21.9028C13.4231 21.848 13.4252 21.8381 13.5793 21.8204C13.8103 21.7936 13.7453 21.8303 13.8264 21.9028Z" fill="#F5C8B0"/>
<path d="M12.4259 23.1385L12.1787 23.1591C12.2652 22.659 12.8271 22.0947 13.2909 21.9028C13.3115 22.341 12.2879 22.6928 12.4259 23.1385Z" fill="#EFB094"/>
<path d="M8.63592 22.0676C8.56054 22.0816 8.53789 22.0239 8.53294 22.0264C8.51523 22.0346 8.41431 22.2846 8.32699 22.3559C8.15769 22.4939 7.93731 22.601 7.79149 22.7678C7.71529 22.7777 7.60696 22.6146 7.56494 22.5619C7.57071 22.3967 8.0992 21.9489 8.10043 21.8822C8.10167 21.8122 7.6811 21.2207 7.95626 20.9554L7.97686 21.3879C8.22277 21.5238 8.57496 21.8056 8.63592 22.0676Z" fill="#EFB094"/>
<path d="M16.5044 24.8685C16.9336 25.2063 17.7393 25.6553 18.0491 25.9395C18.4655 26.3218 17.4637 26.5195 17.1428 26.475C16.9855 26.4532 15.571 25.7105 15.4952 25.61C15.442 25.1993 15.8853 24.7532 15.6805 24.2507C15.9038 24.497 16.2428 24.663 16.5044 24.8685Z" fill="#E19371"/>
<path d="M11.1492 21.0789C11.0445 21.0987 10.9523 21.1535 10.8608 21.2025C10.6594 21.3104 10.0201 21.8611 10.037 22.0881C10.0432 22.1742 10.149 22.1664 10.1606 22.1911C10.266 22.4193 10.4061 22.6026 10.5725 22.7884C10.5762 22.7921 10.4188 22.8205 10.5519 22.8913C10.8167 23.0322 11.0211 22.8312 11.2315 22.7266C11.2773 22.783 11.2509 22.8448 11.211 22.8913C10.8361 23.3247 9.95873 24.1712 9.37793 24.1271C9.25888 24.118 9.15179 24.0818 9.0484 24.0241C9.02904 23.9706 9.5324 23.4956 9.58389 23.4062C9.60242 23.3737 9.56535 23.239 9.58389 23.2003C9.61766 23.129 9.79108 23.0491 9.78984 22.9531C9.78861 22.8753 9.45866 22.4485 9.29554 22.5618C9.74742 21.9946 10.1803 21.3776 10.9226 21.0377C10.9832 21.0101 11.1595 20.9302 11.1492 21.0789Z" fill="#EFB094"/>
<path d="M16.7099 16.4655C17.6684 16.6751 20.5259 19.023 21.3645 19.7608C21.8263 20.1669 22.3127 20.5788 22.7238 21.0377C22.6485 21.0357 22.5496 21.1609 22.5385 21.1613C22.1612 21.1699 20.876 20.0269 20.4789 19.7608C19.1422 18.8657 17.703 18.1288 16.3597 17.2481C16.0632 17.0537 15.6743 16.8205 15.4741 16.5478C15.7748 16.4725 16.3997 16.3975 16.7099 16.4655Z" fill="#FDE4D1"/>
<path d="M22.2913 20.7082C22.3395 20.6847 22.4017 20.7865 22.4354 20.8112C22.4165 20.8717 22.1949 20.7552 22.2913 20.7082Z" fill="#F5C8B0"/>
<path d="M11.8491 21.5732C11.852 21.6346 11.8471 21.6968 11.8491 21.7586C11.6506 21.836 11.7696 21.6873 11.7462 21.6556C11.6642 21.5456 11.193 21.1494 11.4372 21.1201C11.5995 21.1914 11.8397 21.3734 11.8491 21.5732Z" fill="#FDE4D1"/>
<path d="M15.1446 23.7976C15.1463 24.0666 14.9473 24.4558 14.8151 24.7038C14.7467 24.8319 14.6297 25.2479 14.3826 25.1569C14.3496 25.145 13.9258 24.6882 13.9089 24.642C13.7993 24.3463 14.0176 23.8977 14.1972 23.674C14.2433 23.6163 14.5457 23.3515 14.6091 23.3445L15.1446 23.7976Z" fill="#F5C8B0"/>
<path d="M10.16 22.1911C10.1485 22.1664 10.0426 22.1742 10.0365 22.0881C10.0196 21.8612 10.6589 21.3104 10.8603 21.2025C10.9377 21.5769 10.2379 21.8047 10.16 22.1911Z" fill="#EFB094"/>
<path d="M13.8264 21.9028C13.9574 22.0198 14.0863 22.1775 14.1147 22.3559C14.0154 22.4111 13.62 21.9143 13.8264 21.9028Z" fill="#FDE4D1"/>
<path d="M15.1444 23.7976L14.6089 23.3445C14.819 23.3218 15.1431 23.5661 15.1444 23.7976Z" fill="#FDE4D1"/>
</g>
<defs>
<linearGradient id="paint0_linear_6413_75166" x1="1.06259" y1="13.2336" x2="-1.39366" y2="16.0655" gradientUnits="userSpaceOnUse">
<stop stop-color="#7BA8BD"/>
<stop offset="1" stop-color="#5F8EA8"/>
</linearGradient>
<linearGradient id="paint1_linear_6413_75166" x1="19.3685" y1="14.7915" x2="18.1258" y2="18.1086" gradientUnits="userSpaceOnUse">
<stop stop-color="#FCCAAF"/>
<stop offset="1" stop-color="#ECA78A"/>
</linearGradient>
<linearGradient id="paint2_linear_6413_75166" x1="17.9007" y1="16.9351" x2="11.0818" y2="23.6893" gradientUnits="userSpaceOnUse">
<stop stop-color="#FDD5BA"/>
<stop offset="1" stop-color="#D78A6C"/>
</linearGradient>
</defs>
</svg>
