<svg width="130" height="100" viewBox="0 0 72 36" fill="none" xmlns="http://www.w3.org/2000/svg">
<path d="M62.8314 35.8436H10.1686C10.0756 35.8436 10 35.7681 10 35.675C10 35.5819 10.0756 35.5063 10.1686 35.5063H62.8314C62.9244 35.5063 63 35.5819 63 35.675C63 35.7681 62.9244 35.8436 62.8314 35.8436Z" fill="#2E5B99"/>
<path d="M44.2141 11.7199V10.2985C44.2141 9.65293 44.7372 9.1297 45.3825 9.1297H57.8229C58.4684 9.1297 58.9917 9.65293 58.9917 10.2985V35.4229H26.812V11.7199H44.2141Z" fill="white"/>
<path d="M44.1111 11.7199V10.2985C44.1111 9.65293 44.6341 9.1297 45.2795 9.1297H57.7199C58.3654 9.1297 58.8886 9.65293 58.8886 10.2985V35.4229H26.709V11.7199H44.1111Z" fill="#DAA856"/>
<path d="M57.8102 12.702V35.4231H28.0005V12.5904L57.8102 12.702Z" fill="#BAE2FF"/>
<path d="M56.174 12.702V35.4231H26.3643V12.5904L56.174 12.702Z" fill="#1480CC"/>
<path d="M25.1622 11.7201H54.6121C55.2165 11.7201 55.6617 12.1291 55.7486 12.6948V35.4231H23.607V13.2714C23.5997 12.4551 24.3365 11.7201 25.1624 11.7201H25.1622Z" fill="white"/>
<path d="M35.965 20.1577L53.1772 20.2058L53.2138 7.12495L36.0015 7.07688L35.965 20.1577Z" fill="#E8E8E8"/>
<path d="M36.2956 19.5499L52.6274 19.5955L52.661 7.56991L36.3292 7.52431L36.2956 19.5499Z" fill="white"/>
<path d="M51.3709 18.6067L40.8755 18.5772L46.6141 13.072L51.3709 18.6067Z" fill="#E3EEFF"/>
<path d="M46.5988 18.5932L37.7803 18.5686L42.5655 14.0185L46.5988 18.5932Z" fill="#E3EEFF"/>
<path d="M44.1956 12.7067C44.6703 12.232 44.6703 11.4624 44.1956 10.9877C43.721 10.5131 42.9514 10.5131 42.4767 10.9877C42.002 11.4624 42.002 12.232 42.4767 12.7067C42.9514 13.1814 43.721 13.1814 44.1956 12.7067Z" fill="#E3EEFF"/>
<path d="M33.6721 18.5929L49.6294 18.6431L49.673 4.766L33.7157 4.71587L33.6721 18.5929Z" fill="#E8E8E8"/>
<path d="M34.0158 17.9478L49.0669 17.9951L49.107 5.23777L34.0559 5.19049L34.0158 17.9478Z" fill="white"/>
<path d="M47.7496 6.97717H41.7554V7.50383H47.7496V6.97717Z" fill="#828282"/>
<path d="M35.5544 8.92603L47.75 8.92603V8.39937L35.5544 8.39937V8.92603Z" fill="#828282"/>
<path d="M35.5544 10.3738L47.75 10.3738V9.84713L35.5544 9.84713V10.3738Z" fill="#828282"/>
<path d="M25.0201 11.7201H54.47C55.0744 11.7201 55.5196 12.1291 55.6065 12.6948V35.5047H23.4649V13.2714C23.4576 12.4551 24.1944 11.7201 25.0203 11.7201H25.0201Z" fill="#F3E17F"/>
<path d="M55.7486 35.4229H58.9917V35.2922H55.7486V35.4229Z" fill="white"/>
<g style="mix-blend-mode:darken" opacity="0.5">
<path d="M58.9916 21.3334L57.8102 22.1043H56.2494L55.7485 22.4895V22.1234H23.6069V21.3334H58.9916Z" fill="black"/>
</g>
<path d="M22.9522 21.686L59.4482 21.686V17.5624L22.9522 17.5624V21.686Z" fill="#61B3F2"/>
<path d="M22.952 21.686L56.1626 21.686V17.5624L22.952 17.5624V21.686Z" fill="#2E97E6"/>
<path d="M46.9819 17.5624V21.6846H44.0962L46.1194 17.5624H46.9819Z" fill="#0E0E0E"/>
<path d="M45.9841 19.6197C45.9841 20.1901 46.0838 20.7064 46.2512 21.078C46.4146 21.4583 46.6421 21.6846 46.8931 21.6846H47.6593V17.5638H46.8931C46.3907 17.5638 45.9839 18.4876 45.9839 19.6197H45.9841ZM46.71 20.2989C46.5665 20.2535 46.4549 19.9729 46.4549 19.6197C46.4549 19.2665 46.5665 18.9949 46.71 18.9496C46.8536 18.9949 46.9653 19.2758 46.9653 19.6197C46.9653 19.9636 46.8536 20.2535 46.71 20.2989Z" fill="#2475B3"/>
<path d="M46.3747 19.6197C46.3747 20.1901 46.4791 20.7064 46.6542 21.078C46.8252 21.4583 47.0629 21.6846 47.3259 21.6846H47.6597V17.5638H47.3259C46.8002 17.5638 46.3745 18.4876 46.3745 19.6197H46.3747ZM46.742 19.6197C46.742 19.2756 46.959 18.9949 47.1091 18.9496C47.2594 18.9949 47.3762 19.2758 47.3762 19.6197C47.3762 19.9636 47.2594 20.2535 47.1091 20.2989C46.959 20.2535 46.742 19.9729 46.742 19.6197Z" fill="#3F9EE6"/>
<path d="M46.3513 19.6197C46.3513 20.1901 46.451 20.7064 46.6184 21.078C46.7818 21.4583 47.0093 21.6846 47.2603 21.6846H48.0265V17.5638H47.2603C46.7579 17.5638 46.3511 18.4876 46.3511 19.6197H46.3513ZM47.077 20.2989C46.9335 20.2535 46.8219 19.9729 46.8219 19.6197C46.8219 19.2665 46.9335 18.9949 47.077 18.9496C47.2206 18.9949 47.3323 19.2758 47.3323 19.6197C47.3323 19.9636 47.2206 20.2535 47.077 20.2989Z" fill="#2475B3"/>
<path d="M46.7419 19.6197C46.7419 20.1901 46.8463 20.7064 47.0213 21.078C47.1924 21.4583 47.4301 21.6846 47.6931 21.6846H48.0269V17.5638H47.6931C47.1674 17.5638 46.7417 18.4876 46.7417 19.6197H46.7419ZM47.1092 19.6197C47.1092 19.2756 47.226 18.9949 47.3761 18.9496C47.5264 18.9949 47.6433 19.2758 47.6433 19.6197C47.6433 19.9636 47.5264 20.2535 47.3761 20.2989C47.226 20.2535 47.1092 19.9729 47.1092 19.6197Z" fill="#61B3F2"/>
<path d="M47.2572 21.7114C47.2245 21.7114 47.0378 21.7028 46.8403 21.5132C46.6163 21.298 46.3491 20.8121 46.3491 19.7185C46.3491 18.6249 46.5927 18.1405 46.797 17.874C47.022 17.5806 47.2467 17.5389 47.2562 17.5373C47.2709 17.5349 47.2846 17.5445 47.2872 17.5593C47.2896 17.5738 47.2799 17.5877 47.2654 17.5903C47.2632 17.5907 47.0484 17.6318 46.8361 17.9114C46.6384 18.1717 46.4027 18.6964 46.4027 19.7185C46.4027 20.7905 46.6598 21.2642 46.8754 21.4725C47.0714 21.6619 47.2582 21.658 47.2596 21.6576C47.2747 21.657 47.2868 21.6687 47.2874 21.6834C47.288 21.6981 47.2765 21.7106 47.2618 21.7112C47.2612 21.7112 47.2596 21.7112 47.2572 21.7112V21.7114Z" fill="#1A5380"/>
<path d="M47.376 20.2437C47.4123 20.2528 47.4393 20.2618 47.4755 20.2709C47.4695 20.2769 47.4695 20.28 47.4755 20.28C48.9338 20.7147 50.0115 22.0549 50.0115 23.6581V27.1005H51.1708V23.6581C51.1708 21.4302 49.6039 19.5645 47.5118 19.0935C47.4665 19.0753 47.4211 19.0663 47.376 19.0574C47.0407 18.9849 47.0135 20.1895 47.376 20.2437Z" fill="#E6E6E6"/>
<path d="M46.004 18.9957V20.1486C44.5097 20.341 43.3032 21.4495 42.9823 22.8983C42.973 22.9343 42.9642 22.9615 42.9642 22.9887C42.946 23.0703 42.937 23.1427 42.9279 23.2243C42.9098 23.3691 42.9007 23.5142 42.9007 23.659V27.1014H41.7505V23.659C41.7505 21.2244 43.6216 19.2296 46.004 18.9959V18.9957Z" fill="#E6E6E6"/>
<path d="M47.3492 19.9035C50.0675 20.3802 50.4175 23.3397 50.4175 23.3397V27.1012H50.0097V23.6588C50.0097 22.022 48.8873 20.6538 47.3768 20.246C47.2614 20.2086 47.1895 19.8705 47.1895 19.8705C47.1895 19.8705 47.261 19.8866 47.3492 19.9035Z" fill="#999999"/>
<path d="M46.0036 19.9036V20.1486C44.5093 20.341 43.3029 21.4495 42.9819 22.8983C43.0468 22.0528 43.7481 20.2048 46.0036 19.9036Z" fill="#808080"/>
<path d="M47.376 20.2437C47.4123 20.2528 47.4393 20.2618 47.4755 20.2709C47.4483 20.1984 47.301 20.0338 47.2829 19.6898C47.2648 19.3364 47.3847 19.0977 47.5118 19.0935C47.4665 19.0753 47.4211 19.0663 47.376 19.0574C47.0407 18.9849 47.0135 20.1895 47.376 20.2437Z" fill="#666666"/>
<path d="M52.165 26.162H40.7446V35.4975H52.165V26.162Z" fill="#F7AF0C"/>
<path d="M46.6267 28.468C46.5904 28.459 46.5542 28.459 46.5179 28.459C45.7392 28.459 45.105 29.0898 45.105 29.8762C45.105 30.452 45.4493 30.9458 45.9383 31.1743V33.5786C45.9383 33.8988 46.2008 34.1639 46.5177 34.1639C46.5449 34.1639 46.5812 34.1639 46.6084 34.1549H46.6354C46.8981 34.0999 47.0976 33.8623 47.0976 33.5788V31.1745C47.5863 30.955 47.9307 30.4522 47.9307 29.8764C47.9307 29.1267 47.3599 28.5233 46.6265 28.4685L46.6267 28.468Z" fill="#CC840A"/>
<path d="M46.6269 28.4681C45.8933 28.5136 45.3135 29.1263 45.3135 29.876C45.3135 30.4518 45.6578 30.9456 46.1468 31.1741V33.5785C46.1468 33.8619 46.346 34.0997 46.6088 34.1545H46.6358C46.8985 34.0995 47.0979 33.8619 47.0979 33.5785V31.1741C47.5867 30.9547 47.931 30.4518 47.931 29.876C47.931 29.1263 47.3603 28.5229 46.6269 28.4681Z" fill="#803D00"/>
<path d="M44.3685 35.4975H40.7446V26.162H41.75C41.75 26.162 41.483 33.0502 44.3685 35.4975Z" fill="#E6950B"/>
<path d="M49.7129 35.4975C50.5784 33.6455 50.417 28.6665 50.417 26.162H51.5673V35.4975H49.7129Z" fill="#F7E4AD"/>
<path d="M37.934 26.8415C37.934 26.8415 36.7622 26.8036 35.6075 26.8588C34.4082 26.9175 33.2261 27.0758 33.3949 27.4897C33.4328 27.5827 33.4397 27.6722 33.4191 27.7619C33.178 28.8682 28.8044 29.6952 27.8393 29.0162C27.119 28.5095 25.1339 29.1609 24.3206 29.5125C22.7716 19.144 22.7283 8.54444 24.0999 7.80705C25.4716 7.07288 29.273 8.00348 29.273 8.00348C29.273 8.00348 31.1995 8.51362 31.9852 13.7832C32.7744 19.0493 37.9338 26.8415 37.9338 26.8415H37.934Z" fill="#9C0404"/>
<path d="M33.3949 27.4894C33.4328 27.5825 33.4396 27.672 33.4191 27.7616C32.2336 24.1462 29.442 13.8174 30.4552 16.6332C31.4271 19.3489 34.4772 24.8493 35.6075 26.8586C34.4081 26.9172 33.2261 27.0756 33.3949 27.4894Z" fill="#E92929"/>
<path d="M23.9573 10.5485C22.8303 11.927 22.6236 12.2614 21.5691 12.3337C21.9241 12.5578 22.1342 12.861 22.2791 13.1884H22.2825C22.5927 13.8674 22.6375 14.66 23.1786 15.1046L22.5307 15.7423L22.3653 15.9077C22.3653 15.9077 22.3411 15.8869 22.2998 15.8491C22.0171 15.5871 20.8937 14.529 20.225 13.5571C19.8321 12.992 19.5944 12.4576 19.7598 12.1234C20.0286 11.1515 20.718 9.15608 22.4721 8.55972C23.6231 7.30877 24.7501 7.98068 25.1499 8.50109C25.684 9.19718 25.1464 10.6861 23.9573 10.5483V10.5485Z" fill="#E92929"/>
<path d="M23.1782 15.1046L22.5303 15.7423L22.2994 15.8491C22.034 15.6009 21.0208 14.6497 20.3453 13.7259C20.304 13.6707 20.2625 13.6123 20.2246 13.5571C20.5589 13.5537 21.6341 13.5261 22.2786 13.1884H22.2821C22.3097 13.247 22.3338 13.3055 22.3544 13.3641C22.6026 13.9983 22.6818 14.6979 23.178 15.1046H23.1782Z" fill="#231F20"/>
<path d="M22.3546 13.3641C21.6412 13.7985 20.8244 13.7846 20.3453 13.7259C20.304 13.6707 20.2625 13.6123 20.2246 13.5571C20.5589 13.5537 21.6341 13.5261 22.2786 13.1884H22.2821C22.3097 13.247 22.3338 13.3055 22.3544 13.3641H22.3546Z" fill="#E6E0E0"/>
<path d="M22.6923 14.5163C22.6923 14.5163 23.4305 14.5848 23.6539 14.7792C23.8407 14.9416 23.7266 15.1443 23.7266 15.1443C24.1239 15.3677 23.7266 16.2343 23.033 16.448C22.3393 16.662 21.8848 15.3552 21.8848 15.3552C21.8848 15.3552 21.9905 14.5628 22.6923 14.5163Z" fill="#231F20"/>
<path d="M32.006 35.5433H29.5016C29.4501 35.5139 29.412 35.4807 29.3894 35.4428C29.2605 33.5802 29.0747 32.6834 29.0747 32.6834L30.8189 32.6125L31.2138 33.998C31.798 34.3973 32.4947 35.2542 32.006 35.5433Z" fill="#231F20"/>
<path d="M29.312 35.5771H32.2809C32.3562 35.5771 32.3309 35.1642 32.2557 35.1642L29.3045 35.181C29.2269 35.181 29.2346 35.5773 29.312 35.5773V35.5771Z" fill="#231F20"/>
<path d="M28.2774 15.7064C28.6826 16.7968 30.407 21.7922 29.9148 25.3885C30.5919 27.7802 30.3794 29.806 30.9899 33.2988L29.2124 33.3925C28.49 29.1307 27.6949 29.944 27.4649 25.7235C26.0003 22.4143 25.2408 19.2794 24.8509 16.0518C24.472 13.6186 27.4592 12.3408 28.2774 15.7064Z" fill="#E92929"/>
<path d="M29.2302 33.574C29.2302 33.574 29.0973 32.3057 28.2609 29.883C28.0012 29.1385 27.8606 28.6457 27.7875 28.3425C27.7141 28.0357 27.7051 27.9186 27.7051 27.9186C28.1459 27.4085 28.7054 26.6401 29.2022 25.7163C29.7462 26.5675 30.3933 27.419 30.3933 27.419C30.3933 27.419 30.4099 27.6188 30.4393 27.9462C30.5704 29.3179 30.923 32.9436 31.1356 33.712C31.3983 34.6632 29.7456 35.2043 29.23 33.5742L29.2302 33.574Z" fill="#231F20"/>
<path d="M30.4395 27.946C30.1554 27.6289 29.6445 27.0327 29.2169 26.3814C29.0231 27.0845 28.2092 27.9357 27.7875 28.3425C27.7141 28.0357 27.7051 27.9186 27.7051 27.9186C28.1459 27.4085 28.7054 26.6401 29.2022 25.7163C29.7462 26.5675 30.3933 27.419 30.3933 27.419C30.3933 27.419 30.4099 27.6188 30.4393 27.9462L30.4395 27.946Z" fill="#E6E0E0"/>
<path d="M26.1751 16.1686C26.0496 20.9175 25.203 24.9512 25.203 24.9512C25.5614 28.1911 24.7464 28.7952 24.3781 33.4303L22.7716 33.4089C22.7675 31.5276 22.6583 29.1977 22.5441 25.4255C21.5327 21.4831 22.0199 18.5794 22.397 16.2228C22.7994 13.5458 26.432 12.6599 26.1751 16.1686Z" fill="#E92929"/>
<path d="M24.3783 33.4303C24.5215 34.1977 24.6245 34.7965 24.5642 35.491L20.6735 35.5667C20.6735 35.5667 20.2883 35.1916 20.7727 34.6291C21.2568 34.0663 22.1763 34.3919 22.7719 33.4089L24.3785 33.4303H24.3783Z" fill="#231F20"/>
<path d="M20.4967 35.5771H24.6304C24.7057 35.5771 24.686 35.1642 24.6106 35.1642L20.4945 35.181C20.4169 35.181 20.4194 35.5773 20.4967 35.5773V35.5771Z" fill="#231F20"/>
<path d="M25.151 28.1905C25.151 28.1905 25.1232 28.3283 25.0758 28.5629C24.8802 29.5863 24.3552 32.4434 24.4166 33.7291C23.6863 34.601 22.7369 33.6325 22.7369 33.6325L22.3543 26.5709L22.3281 26.0954C23.3583 27.2396 24.4283 27.8496 25.151 28.1907V28.1905Z" fill="#231F20"/>
<path d="M25.151 28.1905C25.151 28.1905 25.1232 28.3283 25.0758 28.5629C23.6568 28.1492 22.7831 27.1773 22.3543 26.5709L22.3281 26.0954C23.3583 27.2396 24.4283 27.8496 25.151 28.1907V28.1905Z" fill="#E6E0E0"/>
<path d="M22.5171 15.9442C22.5171 16.7654 28.349 16.5277 28.349 15.7065C28.3295 14.3516 28.5164 13.2366 28.7713 12.3149C30.5197 10.6019 30.4155 9.27219 29.9725 8.55091C29.2085 7.30701 25.3488 7.37752 23.9593 7.91224C23.4074 8.12459 22.6664 8.98952 22.4295 10.3684C22.3076 11.0774 22.8296 11.9028 22.9122 12.476C23.103 13.8023 22.556 15.7538 22.5173 15.9442H22.5171Z" fill="#E92929"/>
<path d="M26.1526 8.47625C26.4403 8.24778 27.5881 7.895 27.8936 7.64517L27.8246 5.65259L26.696 5.54279C26.3686 5.56998 26.0414 5.64836 25.7599 5.75957L25.5059 7.07157L25.4499 7.35605C25.3221 7.6361 25.5754 7.97377 26.1526 8.47645V8.47625Z" fill="#F7A594"/>
<path d="M27.4448 6.10377C27.2678 6.37616 26.5265 7.07386 25.5059 7.07145L25.7257 5.93634L27.4448 6.10377Z" fill="#E6836F"/>
<path d="M24.9464 3.47903C24.8579 3.8715 24.6756 4.7334 24.7054 5.13031C24.7507 5.73453 25.3153 6.40483 25.8075 6.49268C26.3772 6.5507 27.1453 6.38106 27.5623 6.02284C27.7944 5.75085 28.2437 5.10553 28.4504 4.54079C28.8816 3.36278 28.0491 2.32962 26.9931 2.09107C25.937 1.85252 25.2226 2.25527 24.9466 3.47923L24.9464 3.47903Z" fill="#F7A594"/>
<path d="M28.0968 5.31903C28.317 4.9314 28.0243 4.77445 27.7035 5.07525C27.7583 4.78271 28.0918 3.92584 27.7964 3.64156C27.4628 3.31175 25.9946 3.4554 25.2061 2.63298C25.2061 2.63298 25.794 1.34415 27.7233 2.10532C29.9024 3.26077 28.0966 5.31903 28.0966 5.31903H28.0968Z" fill="#73382A"/>
<path d="M28.3937 5.41956C28.5616 5.21748 28.5704 4.9479 28.4133 4.81742C28.2563 4.68694 27.9929 4.74497 27.825 4.94705C27.6571 5.14912 27.6483 5.4187 27.8054 5.54918C27.9624 5.67966 28.2258 5.62163 28.3937 5.41956Z" fill="#F7A594"/>
<path d="M25.514 6.95657C25.7068 7.30109 27.6909 7.12198 27.87 6.83246L27.9802 7.93472L26.1339 8.98199L25.1694 7.92102L25.514 6.95657Z" fill="#E6E0E0"/>
<path d="M28.7747 3.29855C28.7203 2.33369 26.8528 0.972126 25.5134 1.47762C24.6098 1.81852 24.8217 2.77774 25.6085 2.95886C26.3022 3.11863 28.2234 2.28695 28.7747 3.29855Z" fill="#231F20"/>
<path d="M25.3464 1.48067C25.3464 1.48067 25.3861 1.20546 25.5346 0.999756C24.4865 1.68638 25.0082 2.50739 25.0204 2.54244C25.4361 1.28021 26.4279 1.33823 26.7801 1.34266C25.8739 0.916144 25.3555 1.4428 25.3464 1.48067Z" fill="#231F20"/>
<path d="M22.4442 16.2228C23.9655 16.879 27.4802 16.7345 28.5307 16.2319L28.7993 17.1216C26.5139 17.6603 24.3275 17.6754 22.252 17.1046L22.4442 16.2226V16.2228Z" fill="#E6E0E0"/>
<path d="M32.6245 14.1364C31.6182 15.2151 29.4952 16.4455 29.4952 16.4455L28.8439 15.508C29.5194 15.1357 29.8915 14.1708 30.5361 13.509C30.7567 13.2815 31.0083 13.0919 31.3115 12.9678C30.2844 12.7025 29.7674 12.4474 28.9128 10.8862C27.7168 10.8034 27.4583 9.23893 28.1097 8.65626C28.5991 8.21866 29.8329 7.76031 30.7359 9.20085C32.3489 10.1073 33.0382 12.0854 33.1242 13.0919C33.2034 13.378 32.9864 13.7467 32.6245 14.1362V14.1364Z" fill="#E92929"/>
<path d="M29.4283 15.0172C29.4283 15.0172 28.6901 14.9497 28.4348 15.0998C28.2217 15.2253 28.2966 15.4455 28.2966 15.4455C27.8652 15.5926 28.0973 16.517 28.7402 16.854C29.3832 17.1911 30.0688 15.9895 30.0688 15.9895C30.0688 15.9895 30.1097 15.1911 29.4283 15.017V15.0172Z" fill="#231F20"/>
<path d="M32.6244 14.1363C32.5624 14.2018 32.4969 14.2707 32.428 14.3362C31.3664 15.3633 29.4951 16.4454 29.4951 16.4454L28.8438 15.5079C29.4262 15.1874 29.7812 14.4292 30.2809 13.8019C30.36 13.6985 30.4463 13.602 30.5359 13.5089C30.7876 13.657 31.5389 14.0533 32.6244 14.1361V14.1363Z" fill="#231F20"/>
<path d="M32.6248 14.1363C32.5627 14.2018 32.4973 14.2707 32.4284 14.3362C31.5185 14.2914 30.6638 13.964 30.2812 13.8019C30.3604 13.6985 30.4467 13.602 30.5363 13.5089C30.788 13.657 31.5393 14.0533 32.6248 14.1361V14.1363Z" fill="#66B8FF"/>
<path d="M26.7148 10.1181C26.7153 10.1141 26.7155 10.1125 26.7155 10.1121C26.7155 10.1128 26.7148 10.1181 26.7148 10.1181Z" fill="#D9FFFF"/>
<path d="M26.7148 10.1181C26.7153 10.1141 26.7155 10.1125 26.7155 10.1121C26.7155 10.1128 26.7148 10.1181 26.7148 10.1181Z" fill="#D9FFFF"/>
<path d="M24.8926 9.85677C24.8926 9.85677 24.8933 9.85146 24.8933 9.85077C24.8933 9.85123 24.893 9.85285 24.8926 9.85677Z" fill="#D9FFFF"/>
<path d="M24.8926 9.85677C24.8926 9.85677 24.8933 9.85146 24.8933 9.85077C24.8933 9.85123 24.893 9.85285 24.8926 9.85677Z" fill="#D9FFFF"/>
<path d="M25.8672 9.4325C26.0485 9.71778 26.3618 9.97587 26.7132 10.1183C26.71 10.1453 26.6924 10.295 26.6112 10.9851C26.5031 11.9056 25.6639 12.2386 25.5338 12.2896C25.4232 12.2114 24.6833 11.6447 24.7915 10.7239C24.8727 10.0339 24.8903 9.8842 24.8935 9.8572C25.2662 9.81872 25.6258 9.65714 25.867 9.4325H25.8672Z" fill="white"/>
<path d="M25.7718 9.92147C25.7718 9.92147 25.7708 9.92227 25.7702 9.92268C25.5951 10.0611 25.364 10.157 25.1176 10.1924L25.0485 10.7812C25.0169 11.0505 25.0852 11.3076 25.2514 11.5453C25.356 11.6948 25.4718 11.7966 25.5361 11.8472C25.5389 11.8494 25.5419 11.8518 25.5446 11.8538C25.6159 11.825 25.7577 11.7585 25.8994 11.6382C26.1151 11.4553 26.2405 11.226 26.2721 10.9566L26.3412 10.3679C26.1107 10.2636 25.9088 10.1052 25.7714 9.92126L25.7718 9.92147Z" fill="#F7AF0C"/>
<path d="M25.2725 7.62665C25.3714 7.88091 25.7015 8.10515 26.0738 8.32335C26.8299 8.19964 27.41 7.96553 27.9775 7.6335C28.5358 7.63088 28.9373 7.84565 29.3506 8.00421L26.054 8.54074L24.1177 7.80979C24.3752 7.7161 24.7439 7.65264 25.2723 7.62665H25.2725Z" fill="#9C0404"/>
<path d="M31.6979 11.8842C32.8392 13.0852 34.6543 14.0638 36.5925 14.4732C36.5939 14.6019 36.6018 15.3145 36.6384 18.6C36.6872 22.9826 32.511 25.1519 31.8627 25.4848C31.2305 25.2001 26.9731 23.0894 26.9244 18.7068C26.8879 15.4213 26.8798 14.7085 26.8784 14.58C28.8069 14.1281 30.5835 13.11 31.6981 11.884L31.6979 11.8842Z" fill="white"/>
<path d="M31.7145 12.6763C32.8311 13.6824 34.374 14.469 36.0678 14.8921L36.1091 18.6055C36.128 20.3045 35.46 21.8462 34.1238 23.1876C33.2458 24.069 32.3202 24.618 31.8501 24.8655C31.8298 24.8554 31.8074 24.8439 31.7855 24.8328L31.7051 12.6853C31.7083 12.6823 31.7115 12.6795 31.7148 12.6767L31.7145 12.6763Z" fill="#007880"/>
<path d="M31.7053 12.6852L31.7857 24.8327C31.2937 24.582 30.399 24.063 29.5401 23.238C28.1743 21.9264 27.4724 20.3998 27.4534 18.7008L27.4121 14.9874C29.0912 14.5285 30.6121 13.7115 31.7053 12.6852Z" fill="#008F99"/>
<path d="M29.7754 18.0502L29.7945 20.9271C29.7967 21.2474 33.7259 21.2216 33.7237 20.9013L33.7045 18.0244L29.7754 18.0502ZM31.2619 19.1265C31.2601 18.8595 31.475 18.6427 31.7432 18.6411C32.0114 18.6393 32.231 18.8533 32.2326 19.1202C32.2338 19.3153 32.1167 19.4855 31.9489 19.5621L31.9543 20.3792C31.9551 20.4878 31.8669 20.5787 31.7559 20.5793C31.6467 20.5801 31.5574 20.4905 31.5566 20.3819L31.5512 19.5665C31.3805 19.4922 31.2629 19.3235 31.2617 19.1267L31.2619 19.1265Z" fill="white"/>
<path d="M30.1184 17.8428L30.5161 17.8402L30.5149 17.6466C30.5105 16.9755 31.0555 16.4256 31.7296 16.4212C32.404 16.4168 32.9562 16.9591 32.9606 17.6304L32.9618 17.8241L33.3595 17.8214L33.3583 17.6278C33.3525 16.7383 32.6207 16.0195 31.727 16.0253C30.8335 16.0311 30.1114 16.7597 30.1172 17.6492L30.1184 17.8428Z" fill="white"/>
</svg>
