<svg width="32" height="32" viewBox="0 0 32 32" fill="none" xmlns="http://www.w3.org/2000/svg">
<path d="M14.9813 1.00046C17.582 3.73696 21.7177 5.96665 26.1339 6.89947C26.1371 7.19282 26.155 8.81654 26.2386 16.3025C26.3497 26.2886 16.8341 31.2314 15.3569 31.9898C13.9163 31.3411 4.21576 26.5319 4.10467 16.5459C4.02158 9.05984 4.00321 7.43566 4 7.14278C8.39419 6.11309 12.4422 3.79342 14.9818 1L14.9813 1.00046Z" fill="white"/>
<path d="M15.0196 2.80518C17.5638 5.09776 21.0793 6.88996 24.9387 7.854L25.0328 16.3151C25.076 20.1864 23.5537 23.6992 20.5092 26.7556C18.5085 28.7641 16.3996 30.015 15.3286 30.5787C15.2822 30.5558 15.2313 30.5296 15.1812 30.5044L14.998 2.82583C15.0054 2.81895 15.0127 2.81252 15.0201 2.80609L15.0196 2.80518Z" fill="#007880"/>
<path d="M14.9986 2.82544L15.1817 30.504C14.0607 29.9329 12.022 28.7503 10.065 26.8705C6.95296 23.8819 5.35357 20.4036 5.31042 16.5323L5.21631 8.0712C9.04218 7.02545 12.5077 5.16393 14.9986 2.82544Z" fill="#008F99"/>
<path d="M10.6011 15.05L10.6447 21.605C10.6497 22.3349 19.6025 22.2761 19.5974 21.5462L19.5538 14.9912L10.6011 15.05ZM13.9881 17.5023C13.9839 16.894 14.4738 16.4001 15.0848 16.3964C15.6958 16.3923 16.1962 16.8798 16.1999 17.4881C16.2026 17.9325 15.9359 18.3204 15.5535 18.4948L15.5659 20.3568C15.5677 20.6042 15.3667 20.8113 15.1137 20.8126C14.8649 20.8145 14.6615 20.6102 14.6597 20.3628L14.6473 18.5049C14.2585 18.3355 13.9904 17.9513 13.9876 17.5028L13.9881 17.5023Z" fill="white"/>
<path d="M11.3827 14.5774L12.2889 14.5714L12.2862 14.1302C12.2761 12.6011 13.5178 11.3483 15.0539 11.3382C16.5904 11.3281 17.8487 12.5639 17.8588 14.0935L17.8615 14.5347L18.7677 14.5287L18.765 14.0875C18.7517 12.0608 17.0843 10.4228 15.0479 10.4361C13.0119 10.4494 11.3667 12.1094 11.38 14.1362L11.3827 14.5774Z" fill="white"/>
</svg>
