<svg width="32" height="32" viewBox="0 0 32 32" fill="none" xmlns="http://www.w3.org/2000/svg">
<mask id="path-1-outside-1_6413_76995" maskUnits="userSpaceOnUse" x="-0.214355" y="4.57166" width="33" height="24" fill="black">
<rect fill="white" x="-0.214355" y="4.57166" width="33" height="24"/>
<path d="M2.51564 13.3917C2.94231 13.6583 3.38898 13.7917 3.85564 13.7917C4.83564 13.7917 5.71231 13.3317 6.48564 12.4117L6.08564 12.0417C5.51231 12.595 4.95231 12.8717 4.40564 12.8717C4.10564 12.8717 3.85898 12.7783 3.66564 12.5917C3.47898 12.3983 3.38564 12.155 3.38564 11.8617C3.38564 11.395 3.56231 11.0217 3.91564 10.7417C4.26898 10.455 4.68564 10.3117 5.16564 10.3117L5.24564 9.76166C4.96564 9.70832 4.72231 9.61499 4.51564 9.48166C4.38231 9.39499 4.27898 9.27166 4.20564 9.11166C4.13231 8.95166 4.09564 8.71499 4.09564 8.40166C4.09564 8.08832 4.16231 7.81166 4.29564 7.57166C4.43564 7.32499 4.62231 7.20166 4.85564 7.20166C5.09564 7.20166 5.26564 7.25166 5.36564 7.35166L5.24564 8.38166C5.36564 8.49499 5.55231 8.58832 5.80564 8.66166C6.06564 8.73499 6.30231 8.77166 6.51565 8.77166L6.58564 8.67166C6.63898 8.61166 6.68898 8.51166 6.73564 8.37166C6.78898 8.23166 6.81564 8.08832 6.81564 7.94166C6.81564 7.52166 6.62231 7.18832 6.23564 6.94166C5.84898 6.69499 5.36564 6.57166 4.78564 6.57166C4.20564 6.57166 3.68898 6.74166 3.23564 7.08166C2.78898 7.41499 2.56564 7.86832 2.56564 8.44166C2.56564 8.82166 2.67564 9.13499 2.89564 9.38166C3.12231 9.62832 3.42231 9.80166 3.79564 9.90166C3.24231 9.96166 2.76898 10.1783 2.37564 10.5517C1.98231 10.925 1.78564 11.4083 1.78564 12.0017C1.78564 12.315 1.85231 12.5917 1.98564 12.8317C2.12564 13.0717 2.30231 13.2583 2.51564 13.3917Z"/>
<path fill-rule="evenodd" clip-rule="evenodd" d="M9.90213 9.27166C9.84213 9.43166 9.80546 9.51832 9.79213 9.53166C9.44546 9.33832 9.08546 9.24166 8.71213 9.24166C8.19213 9.24166 7.7488 9.50166 7.38213 10.0217C7.01546 10.535 6.83213 11.2383 6.83213 12.1317C6.83213 12.705 6.9488 13.125 7.18213 13.3917C7.42213 13.6583 7.71213 13.7917 8.05213 13.7917C8.3988 13.7917 8.78546 13.605 9.21213 13.2317C9.2788 13.605 9.5188 13.7917 9.93213 13.7917C10.1455 13.7917 10.3855 13.725 10.6521 13.5917C10.9188 13.4517 11.0988 13.3417 11.1921 13.2617C11.2328 13.2291 11.2702 13.1988 11.3043 13.1706C11.3711 13.27 11.4829 13.377 11.6396 13.4917C11.9196 13.6917 12.2963 13.7917 12.7696 13.7917C13.243 13.7917 13.663 13.6583 14.0296 13.3917C14.403 13.125 14.5896 12.7817 14.5896 12.3617C14.5896 12.175 14.5296 11.975 14.4096 11.7617C14.2896 11.5483 14.193 11.405 14.1196 11.3317C14.0463 11.2517 13.9863 11.1883 13.9396 11.1417C14.3463 10.6883 14.5496 10.335 14.5496 10.0817C14.5496 9.82166 14.443 9.61832 14.2296 9.47166C14.0163 9.31832 13.6963 9.24166 13.2696 9.24166C12.8496 9.24166 12.4896 9.33499 12.1896 9.52166C11.8896 9.70166 11.7396 9.95832 11.7396 10.2917C11.7396 10.625 12.0096 11.075 12.5496 11.6417C13.0896 12.2017 13.3596 12.635 13.3596 12.9417C13.3596 13.155 13.2363 13.2717 12.9896 13.2917C12.7763 12.7583 12.503 12.3683 12.1696 12.1217C12.0096 12.1683 11.813 12.2983 11.5796 12.5117C11.4503 12.6262 11.3568 12.7234 11.2992 12.8031L11.2521 12.7117L11.1321 12.7717C10.8788 12.8983 10.7321 12.9617 10.6921 12.9617C10.6388 12.9617 10.6121 12.835 10.6121 12.5817C10.6121 12.3217 10.6621 11.8917 10.7621 11.2917C10.8621 10.685 10.9955 10.105 11.1621 9.55166C10.6355 9.36499 10.2155 9.27166 9.90213 9.27166ZM9.19213 12.7517C8.99213 12.8783 8.81213 12.9417 8.65213 12.9417C8.40546 12.9417 8.28213 12.6583 8.28213 12.0917C8.28213 11.525 8.36546 11.0083 8.53213 10.5417C8.70546 10.0683 8.91213 9.83166 9.15213 9.83166C9.29213 9.83166 9.46213 9.87499 9.66213 9.96166C9.39546 10.8817 9.2388 11.8117 9.19213 12.7517ZM14.0496 10.0817C14.0496 10.315 13.9096 10.5517 13.6296 10.7917L13.4796 10.6617C13.1863 10.395 13.0396 10.1883 13.0396 10.0417C13.0396 9.96166 13.0896 9.89166 13.1896 9.83166C13.2896 9.76499 13.4163 9.73166 13.5696 9.73166C13.8896 9.73166 14.0496 9.84832 14.0496 10.0817Z"/>
<path d="M18.0143 9.94166C18.1143 9.72166 18.171 9.52832 18.1843 9.36166H17.2143C17.3277 8.80832 17.3843 8.43166 17.3843 8.23166C17.3843 8.03166 17.371 7.86499 17.3443 7.73166C16.8843 7.73166 16.3943 7.82166 15.8743 8.00166V8.03166L15.8843 8.34166C15.8843 8.66166 15.8576 9.00166 15.8043 9.36166H15.1743C15.1543 9.44832 15.1443 9.56166 15.1443 9.70166C15.1443 9.83499 15.151 9.94166 15.1643 10.0217C15.2843 10.0017 15.4676 9.98166 15.7143 9.96166C15.6676 10.235 15.5943 10.595 15.4943 11.0417C15.3943 11.4817 15.3143 11.855 15.2543 12.1617C15.201 12.4683 15.1743 12.745 15.1743 12.9917C15.1743 13.2317 15.2477 13.425 15.3943 13.5717C15.5476 13.7183 15.741 13.7917 15.9743 13.7917C16.481 13.7917 17.031 13.545 17.6243 13.0517L17.4443 12.7217C17.0843 12.8883 16.861 12.9717 16.7743 12.9717C16.6943 12.9717 16.6543 12.875 16.6543 12.6817C16.6543 12.315 16.8076 11.3883 17.1143 9.90166H17.2943C17.521 9.90166 17.761 9.91499 18.0143 9.94166Z"/>
<path fill-rule="evenodd" clip-rule="evenodd" d="M18.7135 9.97166C18.2135 10.4517 17.9635 11.1083 17.9635 11.9417C17.9635 12.5217 18.0969 12.975 18.3635 13.3017C18.6302 13.6283 18.9935 13.7917 19.4535 13.7917C19.9135 13.7917 20.3369 13.685 20.7235 13.4717C20.8635 13.3917 21.0135 13.2917 21.1735 13.1717C21.3335 13.0517 21.4402 12.955 21.4935 12.8817L21.2535 12.5617L21.1035 12.6817C21.0035 12.7617 20.8635 12.8417 20.6835 12.9217C20.5035 13.0017 20.3335 13.0417 20.1735 13.0417C19.7069 13.0417 19.4502 12.7283 19.4035 12.1017L19.6435 12.0717C20.0369 12.0117 20.4702 11.865 20.9435 11.6317C21.1769 11.5117 21.3735 11.3417 21.5335 11.1217C21.7002 10.9017 21.7835 10.6317 21.7835 10.3117C21.7835 9.98499 21.6569 9.72499 21.4035 9.53166C21.1502 9.33832 20.8269 9.24166 20.4335 9.24166C19.7935 9.24166 19.2202 9.48499 18.7135 9.97166ZM20.2035 11.1817C20.0035 11.4083 19.7335 11.5517 19.3935 11.6117C19.3935 11.2383 19.4602 10.8383 19.5935 10.4117C19.7335 9.97832 19.9302 9.76166 20.1835 9.76166C20.3969 9.76166 20.5035 9.94166 20.5035 10.3017C20.5035 10.6617 20.4035 10.955 20.2035 11.1817Z"/>
<path d="M22.1277 13.7017H22.1977C22.891 13.7017 23.3543 13.655 23.5877 13.5617C23.581 13.5017 23.5777 13.3983 23.5777 13.2517C23.5777 12.845 23.731 11.9517 24.0377 10.5717C24.1643 10.4317 24.311 10.3317 24.4777 10.2717C24.531 10.2717 24.611 10.3617 24.7177 10.5417C24.8243 10.7217 24.881 10.8117 24.8877 10.8117C25.0477 10.785 25.211 10.715 25.3777 10.6017C25.551 10.4883 25.6643 10.4017 25.7177 10.3417C25.7777 10.275 25.8243 10.2217 25.8577 10.1817C25.8577 9.55499 25.6777 9.24166 25.3177 9.24166C25.071 9.24166 24.831 9.34166 24.5977 9.54166C24.3643 9.74166 24.211 9.90166 24.1377 10.0217C24.1377 9.70832 24.0977 9.46499 24.0177 9.29166C23.2243 9.29166 22.6477 9.34166 22.2877 9.44166L22.2777 9.57166L22.3677 9.69166C22.5543 9.93832 22.6477 10.165 22.6477 10.3717C22.6477 10.4917 22.5577 10.9683 22.3777 11.8017C22.1977 12.635 22.1077 13.1483 22.1077 13.3417C22.1077 13.5283 22.1143 13.6483 22.1277 13.7017Z"/>
<path fill-rule="evenodd" clip-rule="evenodd" d="M15.7625 23.9068C16.1758 24.0335 16.5758 24.0968 16.9625 24.0968C17.6292 24.0968 18.2192 23.8635 18.7325 23.3968C19.2458 22.9235 19.6258 22.3435 19.8725 21.6568C20.1258 20.9635 20.2525 20.2402 20.2525 19.4868C20.2525 18.5668 20.0125 17.9035 19.5325 17.4968C19.0592 17.0835 18.3592 16.8768 17.4325 16.8768C17.0325 16.8768 16.5625 16.9068 16.0225 16.9668C15.4892 17.0202 15.1358 17.0702 14.9625 17.1168L14.9325 17.2668L15.0725 17.3768C15.1592 17.4502 15.2458 17.5668 15.3325 17.7268C15.4258 17.8868 15.4725 18.0768 15.4725 18.2968C15.4725 18.5102 15.2925 19.4202 14.9325 21.0268C14.5792 22.6268 14.3792 23.6235 14.3325 24.0168C14.4258 24.0302 14.5992 24.0368 14.8525 24.0368C15.1125 24.0368 15.4158 23.9935 15.7625 23.9068ZM17.0825 17.5668C17.3025 17.5268 17.4992 17.5068 17.6725 17.5068C18.0525 17.5068 18.3225 17.6168 18.4825 17.8368C18.6425 18.0502 18.7225 18.4602 18.7225 19.0668C18.7225 19.6735 18.6258 20.3468 18.4325 21.0868C18.3192 21.5002 18.1858 21.8735 18.0325 22.2068C17.8792 22.5402 17.6758 22.8202 17.4225 23.0468C17.1758 23.2668 16.9125 23.3768 16.6325 23.3768C16.3525 23.3768 16.1325 23.3368 15.9725 23.2568C16.0258 22.8835 16.2058 22.0202 16.5125 20.6668C16.8258 19.3068 17.0158 18.2735 17.0825 17.5668Z"/>
<path fill-rule="evenodd" clip-rule="evenodd" d="M23.6887 19.5768C23.6287 19.7368 23.5921 19.8235 23.5788 19.8368C23.2321 19.6435 22.8721 19.5468 22.4988 19.5468C21.9788 19.5468 21.5354 19.8068 21.1688 20.3268C20.8021 20.8402 20.6187 21.5435 20.6187 22.4368C20.6187 23.0102 20.7354 23.4302 20.9688 23.6968C21.2087 23.9635 21.4988 24.0968 21.8388 24.0968C22.1854 24.0968 22.5721 23.9102 22.9988 23.5368C23.0654 23.9102 23.3054 24.0968 23.7188 24.0968C23.9321 24.0968 24.1721 24.0302 24.4388 23.8968C24.7054 23.7568 24.8854 23.6468 24.9788 23.5668C25.0788 23.4868 25.1588 23.4202 25.2188 23.3668L25.0387 23.0168L24.9188 23.0768C24.6654 23.2035 24.5187 23.2668 24.4788 23.2668C24.4254 23.2668 24.3988 23.1402 24.3988 22.8868C24.3988 22.6268 24.4487 22.1968 24.5487 21.5968C24.6488 20.9902 24.7821 20.4102 24.9487 19.8568C24.4221 19.6702 24.0021 19.5768 23.6887 19.5768ZM22.9788 23.0568C22.7787 23.1835 22.5987 23.2468 22.4387 23.2468C22.1921 23.2468 22.0688 22.9635 22.0688 22.3968C22.0688 21.8302 22.1521 21.3135 22.3188 20.8468C22.4921 20.3735 22.6987 20.1368 22.9387 20.1368C23.0788 20.1368 23.2488 20.1802 23.4487 20.2668C23.1821 21.1868 23.0254 22.1168 22.9788 23.0568Z"/>
<path fill-rule="evenodd" clip-rule="evenodd" d="M25.4434 23.0968C25.4434 23.7102 25.7234 24.0168 26.2834 24.0168C26.7834 24.0168 27.3034 23.8268 27.8434 23.4468C27.8101 23.7202 27.7634 24.0035 27.7034 24.2968C27.1501 24.4168 26.7101 24.5868 26.3834 24.8068C26.0568 25.0268 25.8934 25.2702 25.8934 25.5368C25.8934 25.7368 25.9901 25.9002 26.1834 26.0268C26.3834 26.1535 26.6034 26.2168 26.8434 26.2168C27.4501 26.2168 27.9401 25.9835 28.3134 25.5168C28.6934 25.0568 28.9534 24.4602 29.0934 23.7268C29.1668 23.3602 29.2634 22.7068 29.3834 21.7668C29.5034 20.8268 29.6268 20.1068 29.7534 19.6068H29.5634C28.9568 19.6068 28.5368 19.6535 28.3034 19.7468C28.0701 21.4268 27.9368 22.4635 27.9034 22.8568C27.6101 23.0635 27.3601 23.1668 27.1534 23.1668C26.9801 23.1668 26.8934 23.0635 26.8934 22.8568C26.8934 22.6502 26.9668 22.1902 27.1134 21.4768C27.2601 20.7635 27.3334 20.2935 27.3334 20.0668C27.3334 19.8402 27.3168 19.6802 27.2834 19.5868C26.6568 19.5868 26.1634 19.6568 25.8034 19.7968C25.8301 19.8835 25.8434 19.9768 25.8434 20.0768C25.8434 20.5435 25.7768 21.1268 25.6434 21.8268C25.5101 22.5268 25.4434 22.9502 25.4434 23.0968ZM26.4334 25.4468C26.4334 25.3202 26.5434 25.1902 26.7634 25.0568C26.9901 24.9235 27.2634 24.8268 27.5834 24.7668C27.4634 25.0735 27.3134 25.2935 27.1334 25.4268C26.9534 25.5668 26.7901 25.6368 26.6434 25.6368C26.5034 25.6368 26.4334 25.5735 26.4334 25.4468Z"/>
<path d="M26.663 10.0743C26.9626 10.3093 27.2884 10.3287 27.6098 10.0789C28.2436 9.58508 28.6944 8.94042 28.9742 8.19221C29.1404 7.74807 29.0324 7.30347 28.783 6.90316C28.6508 6.69098 28.4522 6.59775 28.2073 6.64955C28.0146 6.69151 28.0093 6.84291 28.0043 6.98473C28.0032 7.01699 28.0021 7.04875 27.9987 7.07862C27.883 8.15805 27.3977 9.07255 26.7483 9.91621C26.7393 9.92836 26.7291 9.93968 26.7189 9.95092C26.6879 9.98533 26.6576 10.019 26.6632 10.0729L26.663 10.0743Z"/>
<path d="M11.4501 19.4434C11.7715 19.6932 12.0973 19.6738 12.3969 19.4388L12.3967 19.4374C12.4023 19.3835 12.372 19.3498 12.341 19.3154C12.3309 19.3042 12.3206 19.2929 12.3116 19.2807C11.6622 18.437 11.1769 17.5226 11.0612 16.4431C11.0579 16.4133 11.0567 16.3815 11.0556 16.3492C11.0506 16.2074 11.0453 16.056 10.8526 16.0141C10.6077 15.9623 10.4091 16.0555 10.2769 16.2677C10.0275 16.668 9.91949 17.1126 10.0857 17.5567C10.3655 18.3049 10.8163 18.9496 11.4501 19.4434Z"/>
<path d="M26.3866 12.7576C26.605 12.4457 26.9111 12.3324 27.2912 12.478C28.0412 12.7663 28.6599 13.2521 29.1451 13.8867C29.4332 14.2634 29.4591 14.7201 29.3368 15.1757C29.272 15.4171 29.1091 15.5641 28.8597 15.5856C28.6632 15.6015 28.6141 15.4582 28.5681 15.3239C28.5576 15.2934 28.5473 15.2633 28.5355 15.2357C28.1109 14.2366 27.3808 13.5026 26.5142 12.8841C26.502 12.8751 26.4889 12.8673 26.476 12.8594C26.4363 12.8355 26.3975 12.8122 26.3872 12.7589L26.3866 12.7576Z"/>
<path d="M11.7687 21.8425C12.1488 21.6969 12.4549 21.8102 12.6733 22.1221L12.6727 22.1234C12.6624 22.1767 12.6236 22.2 12.5839 22.224C12.571 22.2318 12.5579 22.2396 12.5457 22.2486C11.6791 22.8671 10.949 23.6011 10.5244 24.6002C10.5126 24.6278 10.5023 24.6579 10.4918 24.6884C10.4458 24.8227 10.3967 24.966 10.2002 24.9501C9.95082 24.9286 9.78788 24.7816 9.72308 24.5402C9.60081 24.0846 9.62665 23.6279 9.91476 23.2512C10.4 22.6166 11.0187 22.1308 11.7687 21.8425Z"/>
<path d="M26.7364 10.9801C26.783 11.342 27.0042 11.4866 27.2363 11.5994C28.1621 12.0501 29.7456 11.5599 30.262 10.6729C30.3507 10.5208 30.4266 10.3601 30.4353 10.1839C30.4481 9.92104 30.3188 9.72999 30.0908 9.60667C29.8768 9.49023 29.7368 9.63276 29.6074 9.76452L29.6033 9.76877C29.2483 10.1292 28.8401 10.4081 28.3889 10.633C27.88 10.8866 27.3591 11.0721 26.7353 10.9785L26.7364 10.9801Z"/>
<path d="M11.8236 20.9639C12.0557 20.8511 12.2769 20.7065 12.3235 20.3446L12.3246 20.343C11.7008 20.4366 11.1799 20.2511 10.671 19.9975C10.2198 19.7726 9.81157 19.4937 9.45664 19.1333L9.45247 19.129C9.32308 18.9973 9.18312 18.8547 8.96914 18.9712C8.74113 19.0945 8.61177 19.2855 8.62459 19.5484C8.63327 19.7246 8.70919 19.8853 8.79787 20.0374C9.31429 20.9244 10.8978 21.4146 11.8236 20.9639Z"/>
</mask>
<path d="M2.51564 13.3917C2.94231 13.6583 3.38898 13.7917 3.85564 13.7917C4.83564 13.7917 5.71231 13.3317 6.48564 12.4117L6.08564 12.0417C5.51231 12.595 4.95231 12.8717 4.40564 12.8717C4.10564 12.8717 3.85898 12.7783 3.66564 12.5917C3.47898 12.3983 3.38564 12.155 3.38564 11.8617C3.38564 11.395 3.56231 11.0217 3.91564 10.7417C4.26898 10.455 4.68564 10.3117 5.16564 10.3117L5.24564 9.76166C4.96564 9.70832 4.72231 9.61499 4.51564 9.48166C4.38231 9.39499 4.27898 9.27166 4.20564 9.11166C4.13231 8.95166 4.09564 8.71499 4.09564 8.40166C4.09564 8.08832 4.16231 7.81166 4.29564 7.57166C4.43564 7.32499 4.62231 7.20166 4.85564 7.20166C5.09564 7.20166 5.26564 7.25166 5.36564 7.35166L5.24564 8.38166C5.36564 8.49499 5.55231 8.58832 5.80564 8.66166C6.06564 8.73499 6.30231 8.77166 6.51565 8.77166L6.58564 8.67166C6.63898 8.61166 6.68898 8.51166 6.73564 8.37166C6.78898 8.23166 6.81564 8.08832 6.81564 7.94166C6.81564 7.52166 6.62231 7.18832 6.23564 6.94166C5.84898 6.69499 5.36564 6.57166 4.78564 6.57166C4.20564 6.57166 3.68898 6.74166 3.23564 7.08166C2.78898 7.41499 2.56564 7.86832 2.56564 8.44166C2.56564 8.82166 2.67564 9.13499 2.89564 9.38166C3.12231 9.62832 3.42231 9.80166 3.79564 9.90166C3.24231 9.96166 2.76898 10.1783 2.37564 10.5517C1.98231 10.925 1.78564 11.4083 1.78564 12.0017C1.78564 12.315 1.85231 12.5917 1.98564 12.8317C2.12564 13.0717 2.30231 13.2583 2.51564 13.3917Z" fill="#9007FB"/>
<path fill-rule="evenodd" clip-rule="evenodd" d="M9.90213 9.27166C9.84213 9.43166 9.80546 9.51832 9.79213 9.53166C9.44546 9.33832 9.08546 9.24166 8.71213 9.24166C8.19213 9.24166 7.7488 9.50166 7.38213 10.0217C7.01546 10.535 6.83213 11.2383 6.83213 12.1317C6.83213 12.705 6.9488 13.125 7.18213 13.3917C7.42213 13.6583 7.71213 13.7917 8.05213 13.7917C8.3988 13.7917 8.78546 13.605 9.21213 13.2317C9.2788 13.605 9.5188 13.7917 9.93213 13.7917C10.1455 13.7917 10.3855 13.725 10.6521 13.5917C10.9188 13.4517 11.0988 13.3417 11.1921 13.2617C11.2328 13.2291 11.2702 13.1988 11.3043 13.1706C11.3711 13.27 11.4829 13.377 11.6396 13.4917C11.9196 13.6917 12.2963 13.7917 12.7696 13.7917C13.243 13.7917 13.663 13.6583 14.0296 13.3917C14.403 13.125 14.5896 12.7817 14.5896 12.3617C14.5896 12.175 14.5296 11.975 14.4096 11.7617C14.2896 11.5483 14.193 11.405 14.1196 11.3317C14.0463 11.2517 13.9863 11.1883 13.9396 11.1417C14.3463 10.6883 14.5496 10.335 14.5496 10.0817C14.5496 9.82166 14.443 9.61832 14.2296 9.47166C14.0163 9.31832 13.6963 9.24166 13.2696 9.24166C12.8496 9.24166 12.4896 9.33499 12.1896 9.52166C11.8896 9.70166 11.7396 9.95832 11.7396 10.2917C11.7396 10.625 12.0096 11.075 12.5496 11.6417C13.0896 12.2017 13.3596 12.635 13.3596 12.9417C13.3596 13.155 13.2363 13.2717 12.9896 13.2917C12.7763 12.7583 12.503 12.3683 12.1696 12.1217C12.0096 12.1683 11.813 12.2983 11.5796 12.5117C11.4503 12.6262 11.3568 12.7234 11.2992 12.8031L11.2521 12.7117L11.1321 12.7717C10.8788 12.8983 10.7321 12.9617 10.6921 12.9617C10.6388 12.9617 10.6121 12.835 10.6121 12.5817C10.6121 12.3217 10.6621 11.8917 10.7621 11.2917C10.8621 10.685 10.9955 10.105 11.1621 9.55166C10.6355 9.36499 10.2155 9.27166 9.90213 9.27166ZM9.19213 12.7517C8.99213 12.8783 8.81213 12.9417 8.65213 12.9417C8.40546 12.9417 8.28213 12.6583 8.28213 12.0917C8.28213 11.525 8.36546 11.0083 8.53213 10.5417C8.70546 10.0683 8.91213 9.83166 9.15213 9.83166C9.29213 9.83166 9.46213 9.87499 9.66213 9.96166C9.39546 10.8817 9.2388 11.8117 9.19213 12.7517ZM14.0496 10.0817C14.0496 10.315 13.9096 10.5517 13.6296 10.7917L13.4796 10.6617C13.1863 10.395 13.0396 10.1883 13.0396 10.0417C13.0396 9.96166 13.0896 9.89166 13.1896 9.83166C13.2896 9.76499 13.4163 9.73166 13.5696 9.73166C13.8896 9.73166 14.0496 9.84832 14.0496 10.0817Z" fill="#9007FB"/>
<path d="M18.0143 9.94166C18.1143 9.72166 18.171 9.52832 18.1843 9.36166H17.2143C17.3277 8.80832 17.3843 8.43166 17.3843 8.23166C17.3843 8.03166 17.371 7.86499 17.3443 7.73166C16.8843 7.73166 16.3943 7.82166 15.8743 8.00166V8.03166L15.8843 8.34166C15.8843 8.66166 15.8576 9.00166 15.8043 9.36166H15.1743C15.1543 9.44832 15.1443 9.56166 15.1443 9.70166C15.1443 9.83499 15.151 9.94166 15.1643 10.0217C15.2843 10.0017 15.4676 9.98166 15.7143 9.96166C15.6676 10.235 15.5943 10.595 15.4943 11.0417C15.3943 11.4817 15.3143 11.855 15.2543 12.1617C15.201 12.4683 15.1743 12.745 15.1743 12.9917C15.1743 13.2317 15.2477 13.425 15.3943 13.5717C15.5476 13.7183 15.741 13.7917 15.9743 13.7917C16.481 13.7917 17.031 13.545 17.6243 13.0517L17.4443 12.7217C17.0843 12.8883 16.861 12.9717 16.7743 12.9717C16.6943 12.9717 16.6543 12.875 16.6543 12.6817C16.6543 12.315 16.8076 11.3883 17.1143 9.90166H17.2943C17.521 9.90166 17.761 9.91499 18.0143 9.94166Z" fill="#9007FB"/>
<path fill-rule="evenodd" clip-rule="evenodd" d="M18.7135 9.97166C18.2135 10.4517 17.9635 11.1083 17.9635 11.9417C17.9635 12.5217 18.0969 12.975 18.3635 13.3017C18.6302 13.6283 18.9935 13.7917 19.4535 13.7917C19.9135 13.7917 20.3369 13.685 20.7235 13.4717C20.8635 13.3917 21.0135 13.2917 21.1735 13.1717C21.3335 13.0517 21.4402 12.955 21.4935 12.8817L21.2535 12.5617L21.1035 12.6817C21.0035 12.7617 20.8635 12.8417 20.6835 12.9217C20.5035 13.0017 20.3335 13.0417 20.1735 13.0417C19.7069 13.0417 19.4502 12.7283 19.4035 12.1017L19.6435 12.0717C20.0369 12.0117 20.4702 11.865 20.9435 11.6317C21.1769 11.5117 21.3735 11.3417 21.5335 11.1217C21.7002 10.9017 21.7835 10.6317 21.7835 10.3117C21.7835 9.98499 21.6569 9.72499 21.4035 9.53166C21.1502 9.33832 20.8269 9.24166 20.4335 9.24166C19.7935 9.24166 19.2202 9.48499 18.7135 9.97166ZM20.2035 11.1817C20.0035 11.4083 19.7335 11.5517 19.3935 11.6117C19.3935 11.2383 19.4602 10.8383 19.5935 10.4117C19.7335 9.97832 19.9302 9.76166 20.1835 9.76166C20.3969 9.76166 20.5035 9.94166 20.5035 10.3017C20.5035 10.6617 20.4035 10.955 20.2035 11.1817Z" fill="#9007FB"/>
<path d="M22.1277 13.7017H22.1977C22.891 13.7017 23.3543 13.655 23.5877 13.5617C23.581 13.5017 23.5777 13.3983 23.5777 13.2517C23.5777 12.845 23.731 11.9517 24.0377 10.5717C24.1643 10.4317 24.311 10.3317 24.4777 10.2717C24.531 10.2717 24.611 10.3617 24.7177 10.5417C24.8243 10.7217 24.881 10.8117 24.8877 10.8117C25.0477 10.785 25.211 10.715 25.3777 10.6017C25.551 10.4883 25.6643 10.4017 25.7177 10.3417C25.7777 10.275 25.8243 10.2217 25.8577 10.1817C25.8577 9.55499 25.6777 9.24166 25.3177 9.24166C25.071 9.24166 24.831 9.34166 24.5977 9.54166C24.3643 9.74166 24.211 9.90166 24.1377 10.0217C24.1377 9.70832 24.0977 9.46499 24.0177 9.29166C23.2243 9.29166 22.6477 9.34166 22.2877 9.44166L22.2777 9.57166L22.3677 9.69166C22.5543 9.93832 22.6477 10.165 22.6477 10.3717C22.6477 10.4917 22.5577 10.9683 22.3777 11.8017C22.1977 12.635 22.1077 13.1483 22.1077 13.3417C22.1077 13.5283 22.1143 13.6483 22.1277 13.7017Z" fill="#9007FB"/>
<path fill-rule="evenodd" clip-rule="evenodd" d="M15.7625 23.9068C16.1758 24.0335 16.5758 24.0968 16.9625 24.0968C17.6292 24.0968 18.2192 23.8635 18.7325 23.3968C19.2458 22.9235 19.6258 22.3435 19.8725 21.6568C20.1258 20.9635 20.2525 20.2402 20.2525 19.4868C20.2525 18.5668 20.0125 17.9035 19.5325 17.4968C19.0592 17.0835 18.3592 16.8768 17.4325 16.8768C17.0325 16.8768 16.5625 16.9068 16.0225 16.9668C15.4892 17.0202 15.1358 17.0702 14.9625 17.1168L14.9325 17.2668L15.0725 17.3768C15.1592 17.4502 15.2458 17.5668 15.3325 17.7268C15.4258 17.8868 15.4725 18.0768 15.4725 18.2968C15.4725 18.5102 15.2925 19.4202 14.9325 21.0268C14.5792 22.6268 14.3792 23.6235 14.3325 24.0168C14.4258 24.0302 14.5992 24.0368 14.8525 24.0368C15.1125 24.0368 15.4158 23.9935 15.7625 23.9068ZM17.0825 17.5668C17.3025 17.5268 17.4992 17.5068 17.6725 17.5068C18.0525 17.5068 18.3225 17.6168 18.4825 17.8368C18.6425 18.0502 18.7225 18.4602 18.7225 19.0668C18.7225 19.6735 18.6258 20.3468 18.4325 21.0868C18.3192 21.5002 18.1858 21.8735 18.0325 22.2068C17.8792 22.5402 17.6758 22.8202 17.4225 23.0468C17.1758 23.2668 16.9125 23.3768 16.6325 23.3768C16.3525 23.3768 16.1325 23.3368 15.9725 23.2568C16.0258 22.8835 16.2058 22.0202 16.5125 20.6668C16.8258 19.3068 17.0158 18.2735 17.0825 17.5668Z" fill="#F9005A"/>
<path fill-rule="evenodd" clip-rule="evenodd" d="M23.6887 19.5768C23.6287 19.7368 23.5921 19.8235 23.5788 19.8368C23.2321 19.6435 22.8721 19.5468 22.4988 19.5468C21.9788 19.5468 21.5354 19.8068 21.1688 20.3268C20.8021 20.8402 20.6187 21.5435 20.6187 22.4368C20.6187 23.0102 20.7354 23.4302 20.9688 23.6968C21.2087 23.9635 21.4988 24.0968 21.8388 24.0968C22.1854 24.0968 22.5721 23.9102 22.9988 23.5368C23.0654 23.9102 23.3054 24.0968 23.7188 24.0968C23.9321 24.0968 24.1721 24.0302 24.4388 23.8968C24.7054 23.7568 24.8854 23.6468 24.9788 23.5668C25.0788 23.4868 25.1588 23.4202 25.2188 23.3668L25.0387 23.0168L24.9188 23.0768C24.6654 23.2035 24.5187 23.2668 24.4788 23.2668C24.4254 23.2668 24.3988 23.1402 24.3988 22.8868C24.3988 22.6268 24.4487 22.1968 24.5487 21.5968C24.6488 20.9902 24.7821 20.4102 24.9487 19.8568C24.4221 19.6702 24.0021 19.5768 23.6887 19.5768ZM22.9788 23.0568C22.7787 23.1835 22.5987 23.2468 22.4387 23.2468C22.1921 23.2468 22.0688 22.9635 22.0688 22.3968C22.0688 21.8302 22.1521 21.3135 22.3188 20.8468C22.4921 20.3735 22.6987 20.1368 22.9387 20.1368C23.0788 20.1368 23.2488 20.1802 23.4487 20.2668C23.1821 21.1868 23.0254 22.1168 22.9788 23.0568Z" fill="#F9005A"/>
<path fill-rule="evenodd" clip-rule="evenodd" d="M25.4434 23.0968C25.4434 23.7102 25.7234 24.0168 26.2834 24.0168C26.7834 24.0168 27.3034 23.8268 27.8434 23.4468C27.8101 23.7202 27.7634 24.0035 27.7034 24.2968C27.1501 24.4168 26.7101 24.5868 26.3834 24.8068C26.0568 25.0268 25.8934 25.2702 25.8934 25.5368C25.8934 25.7368 25.9901 25.9002 26.1834 26.0268C26.3834 26.1535 26.6034 26.2168 26.8434 26.2168C27.4501 26.2168 27.9401 25.9835 28.3134 25.5168C28.6934 25.0568 28.9534 24.4602 29.0934 23.7268C29.1668 23.3602 29.2634 22.7068 29.3834 21.7668C29.5034 20.8268 29.6268 20.1068 29.7534 19.6068H29.5634C28.9568 19.6068 28.5368 19.6535 28.3034 19.7468C28.0701 21.4268 27.9368 22.4635 27.9034 22.8568C27.6101 23.0635 27.3601 23.1668 27.1534 23.1668C26.9801 23.1668 26.8934 23.0635 26.8934 22.8568C26.8934 22.6502 26.9668 22.1902 27.1134 21.4768C27.2601 20.7635 27.3334 20.2935 27.3334 20.0668C27.3334 19.8402 27.3168 19.6802 27.2834 19.5868C26.6568 19.5868 26.1634 19.6568 25.8034 19.7968C25.8301 19.8835 25.8434 19.9768 25.8434 20.0768C25.8434 20.5435 25.7768 21.1268 25.6434 21.8268C25.5101 22.5268 25.4434 22.9502 25.4434 23.0968ZM26.4334 25.4468C26.4334 25.3202 26.5434 25.1902 26.7634 25.0568C26.9901 24.9235 27.2634 24.8268 27.5834 24.7668C27.4634 25.0735 27.3134 25.2935 27.1334 25.4268C26.9534 25.5668 26.7901 25.6368 26.6434 25.6368C26.5034 25.6368 26.4334 25.5735 26.4334 25.4468Z" fill="#F9005A"/>
<path d="M26.663 10.0743C26.9626 10.3093 27.2884 10.3287 27.6098 10.0789C28.2436 9.58508 28.6944 8.94042 28.9742 8.19221C29.1404 7.74807 29.0324 7.30347 28.783 6.90316C28.6508 6.69098 28.4522 6.59775 28.2073 6.64955C28.0146 6.69151 28.0093 6.84291 28.0043 6.98473C28.0032 7.01699 28.0021 7.04875 27.9987 7.07862C27.883 8.15805 27.3977 9.07255 26.7483 9.91621C26.7393 9.92836 26.7291 9.93968 26.7189 9.95092C26.6879 9.98533 26.6576 10.019 26.6632 10.0729L26.663 10.0743Z" fill="#00B728"/>
<path d="M11.4501 19.4434C11.7715 19.6932 12.0973 19.6738 12.3969 19.4388L12.3967 19.4374C12.4023 19.3835 12.372 19.3498 12.341 19.3154C12.3309 19.3042 12.3206 19.2929 12.3116 19.2807C11.6622 18.437 11.1769 17.5226 11.0612 16.4431C11.0579 16.4133 11.0567 16.3815 11.0556 16.3492C11.0506 16.2074 11.0453 16.056 10.8526 16.0141C10.6077 15.9623 10.4091 16.0555 10.2769 16.2677C10.0275 16.668 9.91949 17.1126 10.0857 17.5567C10.3655 18.3049 10.8163 18.9496 11.4501 19.4434Z" fill="#00B728"/>
<path d="M26.3866 12.7576C26.605 12.4457 26.9111 12.3324 27.2912 12.478C28.0412 12.7663 28.6599 13.2521 29.1451 13.8867C29.4332 14.2634 29.4591 14.7201 29.3368 15.1757C29.272 15.4171 29.1091 15.5641 28.8597 15.5856C28.6632 15.6015 28.6141 15.4582 28.5681 15.3239C28.5576 15.2934 28.5473 15.2633 28.5355 15.2357C28.1109 14.2366 27.3808 13.5026 26.5142 12.8841C26.502 12.8751 26.4889 12.8673 26.476 12.8594C26.4363 12.8355 26.3975 12.8122 26.3872 12.7589L26.3866 12.7576Z" fill="#00B728"/>
<path d="M11.7687 21.8425C12.1488 21.6969 12.4549 21.8102 12.6733 22.1221L12.6727 22.1234C12.6624 22.1767 12.6236 22.2 12.5839 22.224C12.571 22.2318 12.5579 22.2396 12.5457 22.2486C11.6791 22.8671 10.949 23.6011 10.5244 24.6002C10.5126 24.6278 10.5023 24.6579 10.4918 24.6884C10.4458 24.8227 10.3967 24.966 10.2002 24.9501C9.95082 24.9286 9.78788 24.7816 9.72308 24.5402C9.60081 24.0846 9.62665 23.6279 9.91476 23.2512C10.4 22.6166 11.0187 22.1308 11.7687 21.8425Z" fill="#00B728"/>
<path d="M26.7364 10.9801C26.783 11.342 27.0042 11.4866 27.2363 11.5994C28.1621 12.0501 29.7456 11.5599 30.262 10.6729C30.3507 10.5208 30.4266 10.3601 30.4353 10.1839C30.4481 9.92104 30.3188 9.72999 30.0908 9.60667C29.8768 9.49023 29.7368 9.63276 29.6074 9.76452L29.6033 9.76877C29.2483 10.1292 28.8401 10.4081 28.3889 10.633C27.88 10.8866 27.3591 11.0721 26.7353 10.9785L26.7364 10.9801Z" fill="#00B728"/>
<path d="M11.8236 20.9639C12.0557 20.8511 12.2769 20.7065 12.3235 20.3446L12.3246 20.343C11.7008 20.4366 11.1799 20.2511 10.671 19.9975C10.2198 19.7726 9.81157 19.4937 9.45664 19.1333L9.45247 19.129C9.32308 18.9973 9.18312 18.8547 8.96914 18.9712C8.74113 19.0945 8.61177 19.2855 8.62459 19.5484C8.63327 19.7246 8.70919 19.8853 8.79787 20.0374C9.31429 20.9244 10.8978 21.4146 11.8236 20.9639Z" fill="#00B728"/>
<path d="M2.51564 13.3917C2.94231 13.6583 3.38898 13.7917 3.85564 13.7917C4.83564 13.7917 5.71231 13.3317 6.48564 12.4117L6.08564 12.0417C5.51231 12.595 4.95231 12.8717 4.40564 12.8717C4.10564 12.8717 3.85898 12.7783 3.66564 12.5917C3.47898 12.3983 3.38564 12.155 3.38564 11.8617C3.38564 11.395 3.56231 11.0217 3.91564 10.7417C4.26898 10.455 4.68564 10.3117 5.16564 10.3117L5.24564 9.76166C4.96564 9.70832 4.72231 9.61499 4.51564 9.48166C4.38231 9.39499 4.27898 9.27166 4.20564 9.11166C4.13231 8.95166 4.09564 8.71499 4.09564 8.40166C4.09564 8.08832 4.16231 7.81166 4.29564 7.57166C4.43564 7.32499 4.62231 7.20166 4.85564 7.20166C5.09564 7.20166 5.26564 7.25166 5.36564 7.35166L5.24564 8.38166C5.36564 8.49499 5.55231 8.58832 5.80564 8.66166C6.06564 8.73499 6.30231 8.77166 6.51565 8.77166L6.58564 8.67166C6.63898 8.61166 6.68898 8.51166 6.73564 8.37166C6.78898 8.23166 6.81564 8.08832 6.81564 7.94166C6.81564 7.52166 6.62231 7.18832 6.23564 6.94166C5.84898 6.69499 5.36564 6.57166 4.78564 6.57166C4.20564 6.57166 3.68898 6.74166 3.23564 7.08166C2.78898 7.41499 2.56564 7.86832 2.56564 8.44166C2.56564 8.82166 2.67564 9.13499 2.89564 9.38166C3.12231 9.62832 3.42231 9.80166 3.79564 9.90166C3.24231 9.96166 2.76898 10.1783 2.37564 10.5517C1.98231 10.925 1.78564 11.4083 1.78564 12.0017C1.78564 12.315 1.85231 12.5917 1.98564 12.8317C2.12564 13.0717 2.30231 13.2583 2.51564 13.3917Z" stroke="white" stroke-width="3" stroke-linejoin="round" mask="url(#path-1-outside-1_6413_76995)"/>
<path fill-rule="evenodd" clip-rule="evenodd" d="M9.90213 9.27166C9.84213 9.43166 9.80546 9.51832 9.79213 9.53166C9.44546 9.33832 9.08546 9.24166 8.71213 9.24166C8.19213 9.24166 7.7488 9.50166 7.38213 10.0217C7.01546 10.535 6.83213 11.2383 6.83213 12.1317C6.83213 12.705 6.9488 13.125 7.18213 13.3917C7.42213 13.6583 7.71213 13.7917 8.05213 13.7917C8.3988 13.7917 8.78546 13.605 9.21213 13.2317C9.2788 13.605 9.5188 13.7917 9.93213 13.7917C10.1455 13.7917 10.3855 13.725 10.6521 13.5917C10.9188 13.4517 11.0988 13.3417 11.1921 13.2617C11.2328 13.2291 11.2702 13.1988 11.3043 13.1706C11.3711 13.27 11.4829 13.377 11.6396 13.4917C11.9196 13.6917 12.2963 13.7917 12.7696 13.7917C13.243 13.7917 13.663 13.6583 14.0296 13.3917C14.403 13.125 14.5896 12.7817 14.5896 12.3617C14.5896 12.175 14.5296 11.975 14.4096 11.7617C14.2896 11.5483 14.193 11.405 14.1196 11.3317C14.0463 11.2517 13.9863 11.1883 13.9396 11.1417C14.3463 10.6883 14.5496 10.335 14.5496 10.0817C14.5496 9.82166 14.443 9.61832 14.2296 9.47166C14.0163 9.31832 13.6963 9.24166 13.2696 9.24166C12.8496 9.24166 12.4896 9.33499 12.1896 9.52166C11.8896 9.70166 11.7396 9.95832 11.7396 10.2917C11.7396 10.625 12.0096 11.075 12.5496 11.6417C13.0896 12.2017 13.3596 12.635 13.3596 12.9417C13.3596 13.155 13.2363 13.2717 12.9896 13.2917C12.7763 12.7583 12.503 12.3683 12.1696 12.1217C12.0096 12.1683 11.813 12.2983 11.5796 12.5117C11.4503 12.6262 11.3568 12.7234 11.2992 12.8031L11.2521 12.7117L11.1321 12.7717C10.8788 12.8983 10.7321 12.9617 10.6921 12.9617C10.6388 12.9617 10.6121 12.835 10.6121 12.5817C10.6121 12.3217 10.6621 11.8917 10.7621 11.2917C10.8621 10.685 10.9955 10.105 11.1621 9.55166C10.6355 9.36499 10.2155 9.27166 9.90213 9.27166ZM9.19213 12.7517C8.99213 12.8783 8.81213 12.9417 8.65213 12.9417C8.40546 12.9417 8.28213 12.6583 8.28213 12.0917C8.28213 11.525 8.36546 11.0083 8.53213 10.5417C8.70546 10.0683 8.91213 9.83166 9.15213 9.83166C9.29213 9.83166 9.46213 9.87499 9.66213 9.96166C9.39546 10.8817 9.2388 11.8117 9.19213 12.7517ZM14.0496 10.0817C14.0496 10.315 13.9096 10.5517 13.6296 10.7917L13.4796 10.6617C13.1863 10.395 13.0396 10.1883 13.0396 10.0417C13.0396 9.96166 13.0896 9.89166 13.1896 9.83166C13.2896 9.76499 13.4163 9.73166 13.5696 9.73166C13.8896 9.73166 14.0496 9.84832 14.0496 10.0817Z" stroke="white" stroke-width="3" stroke-linejoin="round" mask="url(#path-1-outside-1_6413_76995)"/>
<path d="M18.0143 9.94166C18.1143 9.72166 18.171 9.52832 18.1843 9.36166H17.2143C17.3277 8.80832 17.3843 8.43166 17.3843 8.23166C17.3843 8.03166 17.371 7.86499 17.3443 7.73166C16.8843 7.73166 16.3943 7.82166 15.8743 8.00166V8.03166L15.8843 8.34166C15.8843 8.66166 15.8576 9.00166 15.8043 9.36166H15.1743C15.1543 9.44832 15.1443 9.56166 15.1443 9.70166C15.1443 9.83499 15.151 9.94166 15.1643 10.0217C15.2843 10.0017 15.4676 9.98166 15.7143 9.96166C15.6676 10.235 15.5943 10.595 15.4943 11.0417C15.3943 11.4817 15.3143 11.855 15.2543 12.1617C15.201 12.4683 15.1743 12.745 15.1743 12.9917C15.1743 13.2317 15.2477 13.425 15.3943 13.5717C15.5476 13.7183 15.741 13.7917 15.9743 13.7917C16.481 13.7917 17.031 13.545 17.6243 13.0517L17.4443 12.7217C17.0843 12.8883 16.861 12.9717 16.7743 12.9717C16.6943 12.9717 16.6543 12.875 16.6543 12.6817C16.6543 12.315 16.8076 11.3883 17.1143 9.90166H17.2943C17.521 9.90166 17.761 9.91499 18.0143 9.94166Z" stroke="white" stroke-width="3" stroke-linejoin="round" mask="url(#path-1-outside-1_6413_76995)"/>
<path fill-rule="evenodd" clip-rule="evenodd" d="M18.7135 9.97166C18.2135 10.4517 17.9635 11.1083 17.9635 11.9417C17.9635 12.5217 18.0969 12.975 18.3635 13.3017C18.6302 13.6283 18.9935 13.7917 19.4535 13.7917C19.9135 13.7917 20.3369 13.685 20.7235 13.4717C20.8635 13.3917 21.0135 13.2917 21.1735 13.1717C21.3335 13.0517 21.4402 12.955 21.4935 12.8817L21.2535 12.5617L21.1035 12.6817C21.0035 12.7617 20.8635 12.8417 20.6835 12.9217C20.5035 13.0017 20.3335 13.0417 20.1735 13.0417C19.7069 13.0417 19.4502 12.7283 19.4035 12.1017L19.6435 12.0717C20.0369 12.0117 20.4702 11.865 20.9435 11.6317C21.1769 11.5117 21.3735 11.3417 21.5335 11.1217C21.7002 10.9017 21.7835 10.6317 21.7835 10.3117C21.7835 9.98499 21.6569 9.72499 21.4035 9.53166C21.1502 9.33832 20.8269 9.24166 20.4335 9.24166C19.7935 9.24166 19.2202 9.48499 18.7135 9.97166ZM20.2035 11.1817C20.0035 11.4083 19.7335 11.5517 19.3935 11.6117C19.3935 11.2383 19.4602 10.8383 19.5935 10.4117C19.7335 9.97832 19.9302 9.76166 20.1835 9.76166C20.3969 9.76166 20.5035 9.94166 20.5035 10.3017C20.5035 10.6617 20.4035 10.955 20.2035 11.1817Z" stroke="white" stroke-width="3" stroke-linejoin="round" mask="url(#path-1-outside-1_6413_76995)"/>
<path d="M22.1277 13.7017H22.1977C22.891 13.7017 23.3543 13.655 23.5877 13.5617C23.581 13.5017 23.5777 13.3983 23.5777 13.2517C23.5777 12.845 23.731 11.9517 24.0377 10.5717C24.1643 10.4317 24.311 10.3317 24.4777 10.2717C24.531 10.2717 24.611 10.3617 24.7177 10.5417C24.8243 10.7217 24.881 10.8117 24.8877 10.8117C25.0477 10.785 25.211 10.715 25.3777 10.6017C25.551 10.4883 25.6643 10.4017 25.7177 10.3417C25.7777 10.275 25.8243 10.2217 25.8577 10.1817C25.8577 9.55499 25.6777 9.24166 25.3177 9.24166C25.071 9.24166 24.831 9.34166 24.5977 9.54166C24.3643 9.74166 24.211 9.90166 24.1377 10.0217C24.1377 9.70832 24.0977 9.46499 24.0177 9.29166C23.2243 9.29166 22.6477 9.34166 22.2877 9.44166L22.2777 9.57166L22.3677 9.69166C22.5543 9.93832 22.6477 10.165 22.6477 10.3717C22.6477 10.4917 22.5577 10.9683 22.3777 11.8017C22.1977 12.635 22.1077 13.1483 22.1077 13.3417C22.1077 13.5283 22.1143 13.6483 22.1277 13.7017Z" stroke="white" stroke-width="3" stroke-linejoin="round" mask="url(#path-1-outside-1_6413_76995)"/>
<path fill-rule="evenodd" clip-rule="evenodd" d="M15.7625 23.9068C16.1758 24.0335 16.5758 24.0968 16.9625 24.0968C17.6292 24.0968 18.2192 23.8635 18.7325 23.3968C19.2458 22.9235 19.6258 22.3435 19.8725 21.6568C20.1258 20.9635 20.2525 20.2402 20.2525 19.4868C20.2525 18.5668 20.0125 17.9035 19.5325 17.4968C19.0592 17.0835 18.3592 16.8768 17.4325 16.8768C17.0325 16.8768 16.5625 16.9068 16.0225 16.9668C15.4892 17.0202 15.1358 17.0702 14.9625 17.1168L14.9325 17.2668L15.0725 17.3768C15.1592 17.4502 15.2458 17.5668 15.3325 17.7268C15.4258 17.8868 15.4725 18.0768 15.4725 18.2968C15.4725 18.5102 15.2925 19.4202 14.9325 21.0268C14.5792 22.6268 14.3792 23.6235 14.3325 24.0168C14.4258 24.0302 14.5992 24.0368 14.8525 24.0368C15.1125 24.0368 15.4158 23.9935 15.7625 23.9068ZM17.0825 17.5668C17.3025 17.5268 17.4992 17.5068 17.6725 17.5068C18.0525 17.5068 18.3225 17.6168 18.4825 17.8368C18.6425 18.0502 18.7225 18.4602 18.7225 19.0668C18.7225 19.6735 18.6258 20.3468 18.4325 21.0868C18.3192 21.5002 18.1858 21.8735 18.0325 22.2068C17.8792 22.5402 17.6758 22.8202 17.4225 23.0468C17.1758 23.2668 16.9125 23.3768 16.6325 23.3768C16.3525 23.3768 16.1325 23.3368 15.9725 23.2568C16.0258 22.8835 16.2058 22.0202 16.5125 20.6668C16.8258 19.3068 17.0158 18.2735 17.0825 17.5668Z" stroke="white" stroke-width="3" stroke-linejoin="round" mask="url(#path-1-outside-1_6413_76995)"/>
<path fill-rule="evenodd" clip-rule="evenodd" d="M23.6887 19.5768C23.6287 19.7368 23.5921 19.8235 23.5788 19.8368C23.2321 19.6435 22.8721 19.5468 22.4988 19.5468C21.9788 19.5468 21.5354 19.8068 21.1688 20.3268C20.8021 20.8402 20.6187 21.5435 20.6187 22.4368C20.6187 23.0102 20.7354 23.4302 20.9688 23.6968C21.2087 23.9635 21.4988 24.0968 21.8388 24.0968C22.1854 24.0968 22.5721 23.9102 22.9988 23.5368C23.0654 23.9102 23.3054 24.0968 23.7188 24.0968C23.9321 24.0968 24.1721 24.0302 24.4388 23.8968C24.7054 23.7568 24.8854 23.6468 24.9788 23.5668C25.0788 23.4868 25.1588 23.4202 25.2188 23.3668L25.0387 23.0168L24.9188 23.0768C24.6654 23.2035 24.5187 23.2668 24.4788 23.2668C24.4254 23.2668 24.3988 23.1402 24.3988 22.8868C24.3988 22.6268 24.4487 22.1968 24.5487 21.5968C24.6488 20.9902 24.7821 20.4102 24.9487 19.8568C24.4221 19.6702 24.0021 19.5768 23.6887 19.5768ZM22.9788 23.0568C22.7787 23.1835 22.5987 23.2468 22.4387 23.2468C22.1921 23.2468 22.0688 22.9635 22.0688 22.3968C22.0688 21.8302 22.1521 21.3135 22.3188 20.8468C22.4921 20.3735 22.6987 20.1368 22.9387 20.1368C23.0788 20.1368 23.2488 20.1802 23.4487 20.2668C23.1821 21.1868 23.0254 22.1168 22.9788 23.0568Z" stroke="white" stroke-width="3" stroke-linejoin="round" mask="url(#path-1-outside-1_6413_76995)"/>
<path fill-rule="evenodd" clip-rule="evenodd" d="M25.4434 23.0968C25.4434 23.7102 25.7234 24.0168 26.2834 24.0168C26.7834 24.0168 27.3034 23.8268 27.8434 23.4468C27.8101 23.7202 27.7634 24.0035 27.7034 24.2968C27.1501 24.4168 26.7101 24.5868 26.3834 24.8068C26.0568 25.0268 25.8934 25.2702 25.8934 25.5368C25.8934 25.7368 25.9901 25.9002 26.1834 26.0268C26.3834 26.1535 26.6034 26.2168 26.8434 26.2168C27.4501 26.2168 27.9401 25.9835 28.3134 25.5168C28.6934 25.0568 28.9534 24.4602 29.0934 23.7268C29.1668 23.3602 29.2634 22.7068 29.3834 21.7668C29.5034 20.8268 29.6268 20.1068 29.7534 19.6068H29.5634C28.9568 19.6068 28.5368 19.6535 28.3034 19.7468C28.0701 21.4268 27.9368 22.4635 27.9034 22.8568C27.6101 23.0635 27.3601 23.1668 27.1534 23.1668C26.9801 23.1668 26.8934 23.0635 26.8934 22.8568C26.8934 22.6502 26.9668 22.1902 27.1134 21.4768C27.2601 20.7635 27.3334 20.2935 27.3334 20.0668C27.3334 19.8402 27.3168 19.6802 27.2834 19.5868C26.6568 19.5868 26.1634 19.6568 25.8034 19.7968C25.8301 19.8835 25.8434 19.9768 25.8434 20.0768C25.8434 20.5435 25.7768 21.1268 25.6434 21.8268C25.5101 22.5268 25.4434 22.9502 25.4434 23.0968ZM26.4334 25.4468C26.4334 25.3202 26.5434 25.1902 26.7634 25.0568C26.9901 24.9235 27.2634 24.8268 27.5834 24.7668C27.4634 25.0735 27.3134 25.2935 27.1334 25.4268C26.9534 25.5668 26.7901 25.6368 26.6434 25.6368C26.5034 25.6368 26.4334 25.5735 26.4334 25.4468Z" stroke="white" stroke-width="3" stroke-linejoin="round" mask="url(#path-1-outside-1_6413_76995)"/>
<path d="M26.663 10.0743C26.9626 10.3093 27.2884 10.3287 27.6098 10.0789C28.2436 9.58508 28.6944 8.94042 28.9742 8.19221C29.1404 7.74807 29.0324 7.30347 28.783 6.90316C28.6508 6.69098 28.4522 6.59775 28.2073 6.64955C28.0146 6.69151 28.0093 6.84291 28.0043 6.98473C28.0032 7.01699 28.0021 7.04875 27.9987 7.07862C27.883 8.15805 27.3977 9.07255 26.7483 9.91621C26.7393 9.92836 26.7291 9.93968 26.7189 9.95092C26.6879 9.98533 26.6576 10.019 26.6632 10.0729L26.663 10.0743Z" stroke="white" stroke-width="3" stroke-linejoin="round" mask="url(#path-1-outside-1_6413_76995)"/>
<path d="M11.4501 19.4434C11.7715 19.6932 12.0973 19.6738 12.3969 19.4388L12.3967 19.4374C12.4023 19.3835 12.372 19.3498 12.341 19.3154C12.3309 19.3042 12.3206 19.2929 12.3116 19.2807C11.6622 18.437 11.1769 17.5226 11.0612 16.4431C11.0579 16.4133 11.0567 16.3815 11.0556 16.3492C11.0506 16.2074 11.0453 16.056 10.8526 16.0141C10.6077 15.9623 10.4091 16.0555 10.2769 16.2677C10.0275 16.668 9.91949 17.1126 10.0857 17.5567C10.3655 18.3049 10.8163 18.9496 11.4501 19.4434Z" stroke="white" stroke-width="3" stroke-linejoin="round" mask="url(#path-1-outside-1_6413_76995)"/>
<path d="M26.3866 12.7576C26.605 12.4457 26.9111 12.3324 27.2912 12.478C28.0412 12.7663 28.6599 13.2521 29.1451 13.8867C29.4332 14.2634 29.4591 14.7201 29.3368 15.1757C29.272 15.4171 29.1091 15.5641 28.8597 15.5856C28.6632 15.6015 28.6141 15.4582 28.5681 15.3239C28.5576 15.2934 28.5473 15.2633 28.5355 15.2357C28.1109 14.2366 27.3808 13.5026 26.5142 12.8841C26.502 12.8751 26.4889 12.8673 26.476 12.8594C26.4363 12.8355 26.3975 12.8122 26.3872 12.7589L26.3866 12.7576Z" stroke="white" stroke-width="3" stroke-linejoin="round" mask="url(#path-1-outside-1_6413_76995)"/>
<path d="M11.7687 21.8425C12.1488 21.6969 12.4549 21.8102 12.6733 22.1221L12.6727 22.1234C12.6624 22.1767 12.6236 22.2 12.5839 22.224C12.571 22.2318 12.5579 22.2396 12.5457 22.2486C11.6791 22.8671 10.949 23.6011 10.5244 24.6002C10.5126 24.6278 10.5023 24.6579 10.4918 24.6884C10.4458 24.8227 10.3967 24.966 10.2002 24.9501C9.95082 24.9286 9.78788 24.7816 9.72308 24.5402C9.60081 24.0846 9.62665 23.6279 9.91476 23.2512C10.4 22.6166 11.0187 22.1308 11.7687 21.8425Z" stroke="white" stroke-width="3" stroke-linejoin="round" mask="url(#path-1-outside-1_6413_76995)"/>
<path d="M26.7364 10.9801C26.783 11.342 27.0042 11.4866 27.2363 11.5994C28.1621 12.0501 29.7456 11.5599 30.262 10.6729C30.3507 10.5208 30.4266 10.3601 30.4353 10.1839C30.4481 9.92104 30.3188 9.72999 30.0908 9.60667C29.8768 9.49023 29.7368 9.63276 29.6074 9.76452L29.6033 9.76877C29.2483 10.1292 28.8401 10.4081 28.3889 10.633C27.88 10.8866 27.3591 11.0721 26.7353 10.9785L26.7364 10.9801Z" stroke="white" stroke-width="3" stroke-linejoin="round" mask="url(#path-1-outside-1_6413_76995)"/>
<path d="M11.8236 20.9639C12.0557 20.8511 12.2769 20.7065 12.3235 20.3446L12.3246 20.343C11.7008 20.4366 11.1799 20.2511 10.671 19.9975C10.2198 19.7726 9.81157 19.4937 9.45664 19.1333L9.45247 19.129C9.32308 18.9973 9.18312 18.8547 8.96914 18.9712C8.74113 19.0945 8.61177 19.2855 8.62459 19.5484C8.63327 19.7246 8.70919 19.8853 8.79787 20.0374C9.31429 20.9244 10.8978 21.4146 11.8236 20.9639Z" stroke="white" stroke-width="3" stroke-linejoin="round" mask="url(#path-1-outside-1_6413_76995)"/>
</svg>
