<svg width="30" height="30" viewBox="0 0 30 30" fill="none" xmlns="http://www.w3.org/2000/svg">
<path d="M9.18223 9.45594L8.81689 9.37403V8.37947L9.26079 8.35022V9.37403L9.18223 9.45594Z" fill="#FAF838"/>
<path fill-rule="evenodd" clip-rule="evenodd" d="M9.33585 8.27032V9.40423L9.20722 9.53833L8.74219 9.43407V8.30945L9.33585 8.27032ZM8.89196 8.44967V9.31417L9.15759 9.37372L9.18608 9.34401V8.43029L8.89196 8.44967Z" fill="#6E4717"/>
<path d="M13.1375 28.6354C12.0691 28.9499 10.5204 28.4258 9.39403 28.7403L9.20355 28.89C13.2617 29.1297 17.3199 29.1147 21.378 28.89C21.4277 28.7852 21.1958 28.7403 21.1875 28.7403C21.0136 28.7103 20.8065 28.8002 20.6326 28.6953C19.6885 28.4407 18.2143 28.9499 17.3364 28.6504L18.4959 27.8566C20.997 28.0513 23.5562 27.9165 26.049 28.3059C26.1981 28.3359 27.3162 28.5006 27.3327 28.6804C27.2747 28.8152 27.1588 28.8751 27.0677 28.905C25.519 29.549 22.4961 29.3843 20.7983 29.4592C15.7214 29.6539 10.2885 29.7437 5.22822 29.2046C4.88038 29.1746 3.22399 29.0248 3.01694 28.8002C2.99209 28.7702 2.97553 28.7103 2.95068 28.6804C2.96725 28.4258 5.38557 28.1861 5.64231 28.1562C7.73765 27.9465 9.84954 28.0064 11.9532 27.8566C12.3424 28.1562 12.7482 28.3808 13.1375 28.6504V28.6354Z" fill="#DDC958"/>
<path d="M18.9614 28.4859C19.0213 28.5908 18.9913 28.6057 19.1112 28.6357C20.6987 28.9352 23.3646 28.441 25.072 28.6806C25.3865 28.8004 25.7459 28.6956 26.0754 28.7256C26.1054 28.7256 26.5098 28.7705 26.4199 28.8753C19.0812 29.1 11.7425 29.115 4.40381 28.8753L4.74828 28.7256C6.78514 28.426 9.57085 28.9352 11.5179 28.6207C11.6377 28.6057 11.6077 28.5758 11.6676 28.4709C14.2137 29.115 16.4153 29.1299 18.9614 28.4709V28.4859Z" fill="#70550F"/>
<path d="M13.0149 1.42255C12.281 1.76702 11.5172 2.2313 10.8732 2.72554C10.9031 2.66563 10.7683 2.53084 10.7534 2.53084C10.5287 2.53084 8.82133 4.1783 8.5817 4.44789C5.18194 8.28198 4.67272 13.1046 6.78447 17.6575C9.61511 23.7382 16.5644 26.9732 22.9895 24.502L25.3559 23.2589C19.9492 27.1978 12.1013 26.5239 7.63816 21.4916C1.93195 15.0665 4.08862 4.73245 12.1911 1.61725C12.4008 1.54236 12.7902 1.39259 13.0149 1.42255Z" fill="url(#paint0_linear_6413_76998)"/>
<path d="M1.52746 13.9583C1.09313 25.88 15.0966 30.7924 24.1426 24.8466C24.7417 24.4572 25.191 24.0378 25.7452 23.6484C25.865 23.5585 25.9698 23.4986 26.0896 23.5436C22.7947 27.0182 19.35 28.8154 14.3777 28.4859C9.40533 28.1565 5.4664 25.3408 2.72562 21.5516C1.40765 19.0655 0.793594 16.774 0.928386 13.9134L1.52746 13.9583Z" fill="#E89429"/>
<path d="M18.9611 28.4859C16.415 29.1448 14.2134 29.1299 11.6673 28.4859C7.74335 27.4974 4.56824 25.0262 2.72607 21.5515C5.46685 25.3407 9.60049 28.1713 14.3781 28.4859C19.1558 28.8004 22.7952 27.0181 26.0901 23.5435C26.7191 22.8845 27.5578 22.0308 28.082 21.2969L27.8873 21.8211C25.7905 24.9962 22.6753 27.5124 18.9461 28.4859H18.9611Z" fill="#BC721C"/>
<path d="M14.2137 0.673607C14.2137 0.673607 14.4084 0.643653 14.4084 0.718538C-1.1826 4.53766 2.2621 26.2243 17.7333 25.8798C21.3577 25.8049 25.027 24.3072 27.3485 21.4915C27.7678 21.0722 28.2321 20.6079 28.5915 20.1436L28.292 20.6379C27.3335 21.7162 26.4948 22.8095 25.2966 23.6782L22.7955 25.071C22.0766 25.2807 21.3577 25.5653 20.6238 25.715C18.4821 26.1643 16.2505 26.1044 14.1088 25.715C10.9637 24.9512 8.20794 23.0791 6.36577 20.4282C2.27707 14.5273 3.75979 6.02037 9.91531 2.20125C10.4395 1.87176 11.0835 1.69204 11.5628 1.30264C12.3116 1.06301 13.4349 0.65863 14.2137 0.65863V0.673607Z" fill="white"/>
<path d="M7.27875 17.7475C7.5034 18.032 7.71308 18.6461 7.92275 18.9756C12.5806 26.0896 22.3306 27.0332 28.0368 20.5781C28.0817 20.5182 29.0702 19.0205 28.9803 19.5746C28.8455 19.7693 28.7257 19.964 28.5759 20.1438C28.2165 20.6081 27.7522 21.0723 27.3329 21.4917C26.7338 22.0908 26.0149 22.7348 25.3409 23.244L22.9746 24.4871C16.5495 26.9583 9.60017 23.7233 6.76953 17.6426C6.96423 17.3581 7.114 17.5528 7.26377 17.7475H7.27875Z" fill="#F7B620"/>
<path d="M14.6621 0.568925C14.5273 0.583902 14.3176 0.598879 14.2128 0.673763C13.434 0.673763 12.3257 1.09312 11.5618 1.31777C7.12867 2.68067 2.17131 7.09887 1.87177 11.9963C1.73698 11.9963 1.69205 12.2809 1.67707 12.3707C1.60218 12.835 1.54228 13.479 1.5273 13.9433L0.928223 13.8984C1.06302 11.0977 2.14135 8.22214 3.87868 6.0355C6.3948 2.86039 10.5434 0.464086 14.6621 0.568925Z" fill="#F7B620"/>
<path d="M13.0152 1.42249C12.7905 1.39254 12.4011 1.54231 12.1914 1.61719C4.08891 4.73239 1.93224 15.0515 7.62347 21.4616C12.0866 26.4939 19.9345 27.1678 25.3412 23.2289C26.0301 22.7347 26.734 22.0757 27.3331 21.4766C25.0117 24.2923 21.3423 25.79 17.7179 25.8648C2.27671 26.2243 -1.18297 4.53769 14.408 0.718576C14.4829 0.703599 14.5728 0.688622 14.6626 0.673645C14.6926 0.823414 14.7525 0.79346 14.5877 0.868345C14.1834 1.06305 13.5094 1.18286 13.0152 1.42249Z" fill="#A57A11"/>
<path d="M10.8731 2.72549C6.0655 6.30497 4.64269 12.3407 7.27863 17.7473C7.12886 17.5526 6.96411 17.3729 6.78439 17.6425C4.67264 13.1045 5.18186 8.26695 8.58162 4.43286C8.82125 4.16327 10.5286 2.51581 10.7533 2.51581C10.7683 2.51581 10.903 2.6506 10.8731 2.71051V2.72549Z" fill="#ECA528"/>
<path d="M28.0972 21.2969C27.573 22.0307 26.7343 22.8844 26.1053 23.5434C25.9855 23.4835 25.8806 23.5584 25.7608 23.6483C25.5212 23.5734 25.5062 23.6183 25.3115 23.6932C26.5097 22.8245 27.3484 21.7312 28.3069 20.6529C28.3968 20.548 28.5166 20.4582 28.6064 20.3533C28.4567 20.7577 28.3518 20.9524 28.1122 21.2969H28.0972Z" fill="#BC8624"/>
<path d="M1.88772 12.0113C1.82782 12.9848 1.9027 14.6323 2.14233 15.5758C2.14233 15.6058 2.30708 15.5758 2.33703 15.7256C3.92459 21.5965 8.73218 24.9663 14.5133 26.1795C14.9027 26.2544 15.5766 26.2394 15.8912 26.3292C16.2057 26.4191 16.2656 26.7186 16.2955 26.7336C16.4004 26.7785 18.2276 26.5689 18.4971 26.5389C20.3393 26.2843 21.7621 25.7152 23.4096 24.9364C23.5593 24.8615 23.6193 24.7417 23.6342 24.7417C23.6792 24.7267 23.8289 24.8465 23.8289 24.8465C23.9188 24.8465 23.9637 24.5769 24.1584 24.8465C15.1124 30.7924 1.09395 25.8799 1.54325 13.9583C1.55823 13.494 1.61814 12.85 1.69302 12.3857C1.708 12.2959 1.75293 12.0113 1.88772 12.0113Z" fill="#ECA528"/>
<path d="M25.7454 23.6483C25.1912 24.0377 24.7419 24.457 24.1428 24.8464C23.9481 24.5769 23.9032 24.8464 23.8134 24.8464C23.8134 24.8464 23.6636 24.7266 23.6187 24.7416C23.6187 24.7416 23.5438 24.8764 23.394 24.9363C23.2442 24.8015 22.9896 25.131 22.9746 25.131C22.9746 25.131 22.9147 25.0411 22.7949 25.0861L25.2961 23.6932C25.4908 23.6183 25.5057 23.5734 25.7454 23.6483Z" fill="#ECA528"/>
<path d="M11.5626 1.31775C11.0833 1.70715 10.4393 1.88687 9.91512 2.21636C9.85521 2.02166 9.30107 2.36613 9.19623 2.41107C3.29532 5.64608 1.31836 13.2544 4.9278 18.8557C5.2573 19.3799 5.81144 20.1587 6.38057 20.4283C8.22273 23.0792 10.9635 24.9663 14.1236 25.7152L14.5729 25.835L14.528 26.1645C8.73195 24.9513 3.93933 21.5815 2.35177 15.7106C2.30684 15.5608 2.15707 15.5908 2.15707 15.5608C1.91744 14.6173 1.84256 12.9698 1.90246 11.9963C2.202 7.09885 7.15937 2.68065 11.5925 1.31775H11.5626Z" fill="#FBCE5D"/>
<path d="M9.91444 2.21633C3.75892 6.03545 2.29118 14.5423 6.36491 20.4433C5.79579 20.1737 5.25662 19.3949 4.91215 18.8707C1.30271 13.2693 3.27966 5.64605 9.18057 2.42601C9.28541 2.3661 9.85454 2.02163 9.89947 2.23131L9.91444 2.21633Z" fill="#FCDD63"/>
<path d="M23.4091 24.9364C21.7616 25.7152 20.3388 26.2694 18.4966 26.539C18.2271 26.5839 16.3999 26.7786 16.295 26.7337C16.2651 26.7337 16.1902 26.4192 15.8907 26.3293C15.5911 26.2394 14.9022 26.2544 14.5128 26.1795L14.5577 25.85L14.1084 25.7302C16.2501 26.1196 18.4817 26.1795 20.6234 25.7302C21.3572 25.5805 22.0761 25.2809 22.795 25.0862C22.9148 25.0563 22.9598 25.1311 22.9747 25.1311C23.0047 25.1311 23.2443 24.8017 23.3941 24.9364H23.4091Z" fill="#ECA528"/>
<path d="M10.1243 20.8925C10.0794 21.1322 10.2591 21.1172 10.4688 21.1472L10.3639 21.252C10.0494 21.222 9.61509 21.267 9.51025 20.8027C9.71993 20.8326 9.91463 20.7727 10.1093 20.7578C10.1093 20.8027 10.1093 20.8626 10.1093 20.9075L10.1243 20.8925Z" fill="#F7B620"/>
<path d="M22.8102 6.40988C22.8102 6.48477 22.6455 6.51472 22.7653 6.60458C22.7802 6.60458 22.8701 6.60458 22.915 6.60458C22.7802 6.979 22.8102 7.26357 22.8102 7.65297C22.7802 7.65297 22.7503 7.65297 22.7054 7.65297V7.54813C22.7054 7.33845 22.7503 7.03891 22.6754 6.84421L22.6005 7.63799V7.68292C22.5107 7.6979 22.316 7.72785 22.301 7.72785L22.1812 7.53315L22.1512 7.63799C21.8067 7.23361 22.1812 6.60458 22.6005 6.3949C22.6604 6.36495 22.7353 6.3949 22.7952 6.3949L22.8102 6.40988Z" fill="#A41E20"/>
<path d="M23.7533 6.36497C23.6185 6.51473 23.993 6.6046 24.0229 6.70943C24.0828 6.70943 24.0229 6.58962 23.993 6.55967L24.0379 6.51474C24.3524 6.87418 24.5321 6.91911 24.4872 7.48823C24.4872 7.50321 24.3674 7.69791 24.3374 7.81773C24.3075 7.81773 24.2625 7.81773 24.2326 7.81773C24.2026 7.81773 23.948 7.72787 23.933 7.71289C24.1427 7.56312 24.0678 7.26358 24.0828 7.03893C23.9181 6.96404 23.993 7.2486 23.978 7.30851C23.8881 7.17372 23.948 6.94907 23.8731 6.78432C23.8582 6.73939 23.7833 6.76934 23.7683 6.75437C23.6784 6.57464 23.5886 6.37994 23.4238 6.26013C23.6485 6.2152 23.5586 6.24515 23.7234 6.36497H23.7533Z" fill="#A41E20"/>
<path d="M22.7052 11.502C22.7201 11.9813 23.0197 11.8315 23.0047 11.4571C23.1695 11.5769 23.0946 11.8315 23.4091 11.7117C23.4241 11.7117 23.469 11.7117 23.454 11.6668H23.4989C23.4989 11.6668 23.6038 11.6668 23.6188 11.6668C23.6637 11.7117 23.6337 11.8165 23.7685 11.9214C23.7685 11.9214 24.0531 11.9214 24.098 11.9963C24.113 12.0262 24.098 12.5953 24.098 12.7002C24.098 12.7451 23.9932 12.7751 23.9932 12.7751C23.7236 12.4905 23.7236 12.9098 23.6936 13.1195L23.4989 13.1645C23.4989 13.0446 23.4091 12.5354 23.2294 12.6103C23.1245 12.6552 23.0946 14.6172 23.1545 14.9018C23.0796 14.9018 22.9897 14.9018 22.8999 14.9018C22.825 14.4525 23.0197 13.0746 22.8549 12.7301C22.5854 12.191 22.5105 13.3592 22.5105 13.449C22.4805 13.9133 22.5404 14.3776 22.5105 14.8419C22.5105 14.8419 22.3457 14.8868 22.2559 14.8868C22.3457 14.3476 22.3008 13.7785 22.3008 13.2393C22.3008 12.4905 22.3457 11.7416 22.3457 10.9928L22.4506 11.5619C22.4506 11.5619 22.6752 11.502 22.7052 11.487V11.502Z" fill="#F7B620"/>
<path d="M23.3044 8.11731C23.529 8.11731 23.8136 8.22215 24.0532 8.16224L24.0981 10.289C24.0981 10.289 24.0233 10.3039 23.9933 10.3189C23.9334 9.7498 24.1431 9.00095 23.8735 8.52169C23.6339 8.47676 23.6488 9.9445 23.6938 10.1242C23.7087 10.5286 23.514 10.2141 23.4991 10.2291C23.4392 9.95947 23.6339 8.52169 23.3193 8.53666C23.0498 8.53666 23.3044 10.0793 23.1396 10.3339C23.0198 10.3339 22.9899 10.289 22.9449 10.289V8.61155L22.7203 8.58159L22.6005 10.3339C22.6005 10.3339 22.4956 10.3339 22.4507 10.259V8.16224C22.4507 8.16224 23.1696 8.13229 23.3044 8.13229V8.11731Z" fill="#FCDD63"/>
<path d="M22.3604 21.1472C22.5551 21.0423 22.4203 20.9674 22.4053 20.8926C22.4053 20.8027 22.4053 20.7578 22.3604 20.638C22.7348 20.638 24.6069 20.578 24.7866 20.638C24.9663 20.6979 24.9663 21.1172 24.7866 21.1921C24.532 21.2969 22.7797 21.1472 22.3604 21.1472Z" fill="#F7B620"/>
<path d="M22.8995 14.9019C22.8995 14.9019 22.7048 14.9468 22.57 14.9468C22.5251 14.9468 22.555 14.8419 22.54 14.8419L22.4951 13.4491C22.4951 13.3592 22.585 12.191 22.8396 12.7302C23.0043 13.0747 22.8096 14.4525 22.8845 14.9019H22.8995Z" fill="#1D4075"/>
<path d="M23.4986 23.5434C23.4687 23.6932 23.1541 23.9627 23.0942 23.8729C23.1242 23.3337 23.0643 22.7796 23.0942 22.2554C23.0942 22.0457 23.0493 21.836 23.1392 21.6263C23.1841 21.5964 23.3339 21.5814 23.3638 21.5964C23.4537 21.6413 23.5136 23.4236 23.4836 23.5434H23.4986Z" fill="#1D4075"/>
<path d="M23.499 13.1494C23.529 13.5838 23.4092 14.1379 23.499 14.6471C23.4092 15.1414 23.3792 14.8718 23.1546 14.9017C23.0946 14.6172 23.1246 12.6552 23.2294 12.6103C23.4092 12.5204 23.499 13.0446 23.499 13.1644V13.1494Z" fill="#324066"/>
<path d="M24.008 12.7601C24.008 12.9548 24.008 13.1645 24.008 13.3592C23.993 13.8833 24.008 14.4075 24.008 14.9317C23.9031 15.0066 23.8133 14.9317 23.7084 14.9018V14.5573C23.7084 14.138 23.6635 13.5089 23.7084 13.1045C23.7384 12.8949 23.7384 12.4605 24.008 12.7601Z" fill="#1D4075"/>
<path d="M22.9597 10.2589C22.9597 10.2589 22.735 10.3487 22.6152 10.3038L22.7351 8.55151L22.9597 8.58147V10.2589Z" fill="#1D4075"/>
<path d="M23.4993 10.2139C23.4993 10.2139 23.4094 10.3038 23.1548 10.3188C23.3195 10.0642 23.0499 8.52155 23.3345 8.52155C23.649 8.52155 23.4543 9.95933 23.5142 10.2139H23.4993Z" fill="#1D4075"/>
<path d="M24.0083 10.3038C23.8136 10.3787 23.7537 10.2589 23.7088 10.1091C23.6638 9.9444 23.6488 8.46168 23.8885 8.50662C24.1581 8.98588 23.9484 9.73472 24.0083 10.3038Z" fill="#1D4075"/>
<path d="M23.7087 13.1046C23.6638 13.5089 23.7087 14.138 23.7087 14.5573C23.7087 14.6771 23.7087 14.7969 23.7087 14.9018C23.6638 14.8868 23.544 14.9317 23.514 14.8718C23.4991 14.8419 23.514 14.7071 23.514 14.6472C23.4242 14.138 23.544 13.5838 23.514 13.1495L23.7087 13.1046Z" fill="#FBCE5D"/>
<path d="M24.2477 7.9076C24.2926 8.1023 24.2477 7.99746 24.1428 8.05737C23.8583 8.01244 23.5737 8.05737 23.2891 8.05737C22.9297 8.05737 22.5702 8.05737 22.2108 8.05737C22.0461 7.92258 22.1808 7.92258 22.2407 7.86267L24.2327 7.9076H24.2477Z" fill="#FCDD63"/>
<path d="M24.0083 7.30857C23.9933 7.39843 23.9035 7.63806 23.9634 7.71295C23.9634 7.71295 24.233 7.80281 24.2629 7.81779C24.2629 7.84774 24.2629 7.89267 24.2629 7.92263L22.271 7.87769C22.271 7.87769 22.2261 7.81779 22.3159 7.77286C22.3159 7.77286 22.5256 7.7429 22.6155 7.72793C22.7203 7.69797 22.7053 7.68299 22.7203 7.68299C22.7503 7.68299 22.7802 7.68299 22.8251 7.68299C22.8251 7.68299 22.915 7.7429 23.0798 7.72793C23.2745 7.72793 23.6339 7.87769 23.8286 7.72793C24.0083 7.44336 23.9334 7.06894 23.8286 6.78438C23.8286 6.78438 23.9035 6.7694 23.9334 6.81433C24.0083 6.97908 23.9334 7.20373 24.0383 7.33853L24.0083 7.30857Z" fill="#6E4717"/>
<path d="M24.1574 8.05742C24.1574 8.05742 24.0675 8.16226 24.0526 8.16226C23.8129 8.20719 23.5284 8.11733 23.3037 8.11733V8.0724C23.5883 8.0724 23.8728 8.02747 24.1574 8.0724V8.05742Z" fill="#3B2E4C"/>
<path d="M22.555 14.8568C22.555 14.8568 22.5251 14.8568 22.5101 14.8568C22.5401 14.3926 22.4802 13.9133 22.5101 13.464L22.555 14.8568Z" fill="#94453C"/>
<path d="M23.2596 6.36494L23.3046 6.32001C23.4244 6.73936 23.4843 7.15872 23.4543 7.59305C23.7389 7.50318 23.3345 6.4548 23.5292 6.46978C23.7239 6.72438 24.0235 7.53314 23.6341 7.623L23.8138 7.72784C23.6191 7.87761 23.2596 7.72784 23.0649 7.72784L23.1099 6.33498C23.1099 6.33498 23.1398 6.33498 23.1548 6.33498L23.1248 7.2336C23.3195 7.0389 23.1248 6.63452 23.2447 6.37991L23.2596 6.36494Z" fill="#B85D2E"/>
<path d="M23.0494 7.71286C22.8847 7.71286 22.8098 7.66793 22.7948 7.66793C22.7948 7.27853 22.7649 6.99397 22.8997 6.61955C22.9446 6.48475 22.9446 6.39489 23.0944 6.32001L23.0494 7.71286Z" fill="#E89429"/>
<path d="M23.7983 6.76923C23.9031 7.05379 23.978 7.42821 23.7983 7.71277L23.6186 7.60793C24.008 7.51807 23.7234 6.70932 23.5137 6.45471C23.319 6.45471 23.7234 7.48812 23.4388 7.57798C23.4688 7.14365 23.4089 6.72429 23.2891 6.30494C23.2891 6.30494 23.4239 6.26001 23.4388 6.26001C23.6186 6.37983 23.6934 6.57453 23.7833 6.75425L23.7983 6.76923Z" fill="#ECBF6D"/>
<path d="M23.259 6.36494C23.1541 6.60457 23.3189 7.02392 23.1392 7.21862L23.1691 6.32001C23.1691 6.32001 23.229 6.37992 23.274 6.36494H23.259Z" fill="#FBCE5D"/>
<path d="M24.008 6.55963C24.008 6.55963 24.0978 6.69442 24.0379 6.7094C23.993 6.58958 23.6336 6.5147 23.7684 6.36493C23.7983 6.37991 24.008 6.54465 24.023 6.55963H24.008Z" fill="#E38357"/>
<path d="M24.0533 6.51479L24.0084 6.55972C24.0084 6.55972 23.7837 6.38 23.7537 6.36502C23.589 6.24521 23.6789 6.21525 23.4542 6.26018C23.4392 6.26018 23.3044 6.30511 23.3044 6.30511C23.3044 6.30511 23.2895 6.30511 23.2595 6.35004C23.2146 6.35004 23.2146 6.30511 23.1547 6.30511C23.1397 6.30511 23.1097 6.30511 23.1097 6.30511C22.96 6.38 22.96 6.46986 22.915 6.60465C22.8701 6.60465 22.7802 6.60465 22.7653 6.60465C22.8402 6.43991 23.0349 6.43991 22.8102 6.40995C22.7503 6.40995 22.6604 6.38 22.6155 6.40995C22.8252 6.30511 23.1696 5.69106 23.1097 5.48138C23.0948 5.39152 22.7054 5.24175 22.6155 5.077C22.301 4.50788 22.6754 3.83392 23.3344 3.9088L23.3793 4.01364C22.7203 4.46295 23.1097 5.13691 23.8586 5.03207C23.8137 5.4065 23.3643 5.19682 23.4093 5.63115C23.4542 6.06548 23.8137 6.23023 24.0533 6.49981V6.51479Z" fill="#6E4717"/>
<path d="M23.0345 4.01349C23.0345 4.01349 23.1393 4.01349 23.1543 4.04344C22.675 4.50773 22.9296 5.15174 23.6036 5.13676C22.7649 5.87063 22.1808 4.11833 23.0345 4.01349Z" fill="#F9CD1B"/>
<path d="M23.1846 5.42129C23.4093 5.39133 23.2745 5.72083 23.3044 5.84064C23.3044 5.8706 23.4392 5.8706 23.4542 5.94548C23.5441 6.27497 23.0049 6.30493 23.0049 6.05032C23.0049 6.02037 23.2894 5.69087 23.1846 5.42129Z" fill="#FCE624"/>
<path d="M22.7502 6.61963C22.6304 6.52976 22.7951 6.49981 22.7951 6.42493C23.0048 6.45488 22.8101 6.45488 22.7502 6.61963Z" fill="#F3A76C"/>
<path d="M22.7054 7.56308L22.6006 7.66792L22.6755 6.87415C22.7504 7.06885 22.7054 7.36838 22.7054 7.57806V7.56308Z" fill="#E89429"/>
<path d="M22.7054 7.66801C22.7054 7.66801 22.7054 7.69796 22.6006 7.71294V7.66801L22.7054 7.56317V7.66801Z" fill="#F7B620"/>
<path d="M23.9482 7.71281C23.9482 7.71281 23.9782 7.41327 23.9932 7.30843C23.9932 7.23354 23.9333 6.94898 24.098 7.03884C24.098 7.2635 24.1579 7.56304 23.9482 7.71281Z" fill="#E1592D"/>
<path d="M23.4989 23.5435C23.5139 23.4237 23.454 21.6414 23.3791 21.5965C23.3491 21.5965 23.1994 21.5965 23.1544 21.6264C23.0646 21.8211 23.1245 22.0458 23.1095 22.2555C22.9298 22.6299 23.1694 23.5734 23.0646 23.873C23.0197 24.0078 22.2409 24.2174 22.0611 24.2474C22.136 23.2739 21.9114 22.2704 22.0162 21.2969C22.2409 21.252 24.4574 21.252 24.5173 21.3718C24.3975 21.7612 24.6671 22.8845 24.5623 23.1691C24.5473 23.229 23.8434 23.6034 23.7385 23.6483C23.6187 23.6932 23.4839 23.7831 23.5139 23.5435H23.4989Z" fill="#F7B620"/>
<path d="M22.2259 21.3419C22.3007 21.3419 22.4805 21.3419 22.4505 21.4617C22.3906 21.6864 21.7616 21.3719 22.2259 21.3419Z" fill="#851D0F"/>
<path d="M23.0046 11.4571C23.0196 11.8316 22.7201 11.9963 22.7051 11.5021C22.7201 11.5021 22.7201 11.2475 23.0046 11.4571Z" fill="#1D4075"/>
<path d="M24.0078 13.3591C24.0078 13.1644 24.0078 12.9547 24.0078 12.76C24.0078 12.76 24.1126 12.73 24.1126 12.6851C24.1126 12.5803 24.1276 12.0112 24.1126 11.9812C24.0677 11.8913 23.7981 11.9213 23.7832 11.9063C23.6484 11.8015 23.6783 11.7116 23.6334 11.6517H23.5136C23.4986 11.6218 23.5585 11.5019 23.4686 11.3971C23.3039 11.2174 23.0493 11.6517 23.4237 11.6966C23.1242 11.8314 23.1841 11.5618 23.0193 11.442C22.7348 11.2324 22.7348 11.487 22.7198 11.487C22.6898 11.487 22.4802 11.5768 22.4652 11.5618L22.3604 10.9927L24.2025 10.9628L24.3074 14.8568C23.7832 15.1114 24.2175 13.6137 24.0078 13.3291V13.3591Z" fill="#F7B620"/>
<path d="M23.4541 11.4122V11.6668C23.4541 11.6668 23.4241 11.7117 23.4091 11.7117C23.0347 11.6668 23.2893 11.2325 23.4541 11.4122Z" fill="#1D4075"/>
<path d="M23.4985 11.6518H23.4536V11.3972C23.5435 11.502 23.4836 11.6218 23.4985 11.6518Z" fill="#5A393D"/>
<path d="M23.8285 11.4572C24.0232 11.3973 24.0682 11.7417 23.9334 11.8016C23.6937 11.9214 23.6638 11.5021 23.8285 11.4572Z" fill="#215686"/>
<path d="M14.6621 14.4973L14.7071 14.6471C14.0481 15.0515 12.805 16.3245 12.6552 17.0883C12.5803 17.5227 12.5803 18.2715 12.7001 18.6909V18.9455C12.5953 18.3314 12.2958 17.6275 12.4006 17.0733C12.5354 16.3994 13.3142 15.6955 13.8534 15.321C13.8683 15.2611 13.8234 15.1563 13.7785 15.1413C13.7036 15.1263 12.7301 16.1148 12.6552 16.2197C11.9663 17.1183 12.146 18.0019 12.5054 18.9904C12.2808 19.0203 12.1011 18.9904 12.0112 18.9904C10.7531 16.7888 13.0895 15.4558 14.6621 14.4973Z" fill="#A41E20"/>
<path d="M16.9543 14.7071C18.2124 15.5158 20.1294 16.5043 19.8448 18.3315C19.8448 18.4213 19.5902 18.9605 19.5453 19.0054C19.3955 19.1252 19.1859 19.1552 18.9912 19.0504L19.4405 17.2232C19.4854 16.9087 18.2273 15.6057 18.1225 15.6057C17.8978 15.6057 18.0476 15.8453 18.0925 15.9501L16.7896 14.752C16.7896 14.752 16.8794 14.6921 16.9393 14.7071H16.9543Z" fill="#A41E20"/>
<path d="M16.7593 21.2969C16.6844 21.7912 17.1187 21.4467 17.1637 21.4467C17.2086 21.4467 17.2236 21.4467 17.2685 21.4467C17.2835 21.4467 17.3134 21.4916 17.5231 21.4916C17.613 21.4916 17.7328 21.5366 17.8676 21.5366C17.9874 21.5366 18.0623 21.5066 18.1671 21.4916C18.227 21.4916 18.3019 21.4916 18.3618 21.4916C18.242 21.926 18.2719 21.7462 18.0173 22.0458C17.9874 22.0757 17.7478 22.1806 17.6729 22.3154C17.3584 22.8845 17.598 23.9928 17.5231 24.6368C17.4332 24.6368 16.9839 24.7117 16.8491 24.6368C16.7443 24.5769 16.7892 24.517 16.7743 24.4421C16.6694 23.9029 16.8941 23.0642 16.7293 22.525C16.6095 22.1506 16.1452 22.0158 15.9355 21.6564C16.0254 21.6115 16.1302 21.5665 16.2351 21.5515C16.3699 21.5366 16.4298 21.5815 16.5796 21.5066C16.6994 21.4467 16.6245 21.4018 16.7743 21.3119L16.7593 21.2969Z" fill="#E89429"/>
<path d="M18.7063 22.2405C18.8561 22.2704 18.8561 22.2854 18.9609 22.3902L19.2155 23.6932C19.2155 23.873 19.2455 24.2923 19.2155 24.4421C19.2155 24.502 19.1256 24.6068 19.1706 24.7117C18.7063 24.8764 18.242 24.7266 17.7777 24.6817C17.8526 24.1126 17.5231 22.4502 18.227 22.2405C18.242 22.2405 18.257 22.2405 18.272 22.2405C18.3319 22.2405 18.6464 22.2405 18.7213 22.2405H18.7063Z" fill="#215686"/>
<path d="M19.9041 21.2969C19.8741 21.4916 19.9041 21.4467 20.0089 21.4916C20.1437 21.5665 20.2336 21.4916 20.3534 21.4916C20.3534 21.4916 20.3384 21.5366 20.3983 21.5366C20.5631 21.5366 20.6829 21.5815 20.8476 21.5366C20.6829 22.0608 20.2635 22.0608 20.1437 22.4651C19.964 23.0343 20.1737 23.9778 20.0988 24.5919C19.934 24.6368 19.6944 24.8165 19.4248 24.7416C19.29 24.6817 19.3499 24.1725 19.3499 24.0377C19.335 23.7532 19.3649 23.4686 19.3499 23.184C19.2601 21.7762 18.7808 22.2854 18.5562 21.6414C18.6161 21.5665 18.7209 21.5066 18.8108 21.4916C18.8407 21.4916 18.8707 21.4916 18.9156 21.4916C19.0055 21.4916 19.29 21.5665 19.4098 21.5366C19.4697 21.5366 19.6944 21.4916 19.7094 21.4916C19.8142 21.4317 19.7693 21.3868 19.9041 21.2969Z" fill="#F3AD57"/>
<path d="M14.4675 21.3419C14.4376 21.6564 14.6922 21.4917 14.7222 21.4917C14.842 21.5066 14.9468 21.5366 15.0666 21.5366C15.1265 21.5366 15.2763 21.5066 15.3662 21.5366C15.4111 21.5366 15.441 21.4317 15.5159 21.5665L15.4111 21.941C15.1116 22.2405 14.9768 22.0608 14.8569 22.6449C14.7521 23.1541 14.9019 23.6483 14.7371 24.1426C14.153 23.873 14.0332 24.0976 13.9583 23.4387C13.9284 23.1541 13.9883 22.7946 13.9134 22.5101C13.8086 22.1656 13.3742 22.0158 13.1646 21.5815C13.2095 21.5815 13.3892 21.4917 13.4192 21.4767C13.4341 21.4767 13.4641 21.4767 13.524 21.4767C13.554 21.4767 13.6139 21.5366 13.7187 21.5216C13.8235 21.5066 13.8984 21.4317 13.9733 21.4168C14.2878 21.3718 14.0482 21.5665 14.3777 21.3718C14.4226 21.3419 14.4526 21.3269 14.4825 21.3269L14.4675 21.3419Z" fill="#E89429"/>
<path d="M16.2053 22.3004C16.2952 22.3303 16.3101 22.3902 16.3551 22.4501L16.5048 24.517C16.0855 24.5918 15.4265 24.4271 15.112 24.1425C15.1719 23.6483 14.9622 22.7197 15.3067 22.3453C15.3067 22.3453 15.3067 22.3303 15.3516 22.3004C15.3516 22.3004 15.4864 22.2554 15.5014 22.2554C15.5163 22.2554 15.5313 22.2554 15.5463 22.2554C15.6961 22.2405 16.0405 22.2554 16.1903 22.3004H16.2053Z" fill="#215686"/>
<path d="M12.1162 19.7993L12.1462 20.2486C12.2361 20.3085 12.7453 20.2037 12.8651 20.2037C12.91 20.2037 12.9999 20.3235 13.1197 20.2037L13.1646 20.2486C13.0598 20.3984 13.1946 20.3385 13.2844 20.3534C15.0817 20.4133 16.9837 20.3534 18.7061 20.2037C18.8559 20.2037 19.2153 20.2935 19.4549 20.2486C19.5298 20.2336 19.4849 20.1438 19.5598 20.1438C19.5298 20.5182 19.6946 20.5931 19.2303 20.638C17.8374 20.8027 15.4411 20.668 13.9584 20.638C13.2844 20.623 12.6105 20.5931 11.9365 20.5931C11.8916 20.5631 11.9215 20.3684 11.9066 20.2935C11.9066 20.2186 11.8916 19.7843 11.9066 19.7394C12.0114 19.6945 12.1013 19.7843 12.1013 19.7843L12.1162 19.7993Z" fill="#F7B620"/>
<path d="M20.7577 22.2404C20.7577 22.2404 21.1471 22.2404 21.207 22.2404C21.5216 22.3303 21.5365 22.8695 21.5515 23.1391C21.5515 23.2888 21.5515 23.4386 21.5515 23.5884V24.3372C21.4017 24.502 20.4432 24.6817 20.3534 24.5319C20.3983 23.798 20.2036 23.0043 20.5481 22.3303C20.6379 22.2854 20.5481 22.2704 20.7428 22.2255L20.7577 22.2404Z" fill="#215686"/>
<path d="M13.7636 16.1C13.4341 16.714 13.3742 17.1933 13.4191 17.9272C13.4341 18.3316 13.7636 18.7958 13.4641 19.0954C13.1645 19.1253 13.1645 19.0954 12.9698 18.9905C12.7751 18.4514 12.6253 17.6726 12.7152 17.0885C12.835 16.3246 13.9283 15.456 14.5124 14.9917C14.2728 15.3362 13.9583 15.7405 13.7636 16.085V16.1Z" fill="#DA362A"/>
<path d="M18.8107 18.7958C18.6909 19.1103 18.4512 19.0954 18.1068 19.0504C18.2416 18.3016 18.2715 17.6726 18.0618 16.9537C17.8971 16.3845 17.4927 15.9203 17.313 15.3511C18.2565 16.2797 19.4098 17.2532 18.8107 18.7958Z" fill="#DA362A"/>
<path d="M13.9584 20.6979C15.8156 20.6979 17.6877 20.6979 19.5448 20.6979L19.6497 20.7728C19.5299 20.8477 19.3202 20.7129 19.3501 20.8926C19.0656 20.8777 18.7061 20.8627 18.4515 20.9975C17.1635 20.9376 15.8605 20.9226 14.6025 20.8926C13.6739 20.8926 11.7718 21.0574 10.978 20.8926C10.7983 20.8627 10.8582 20.8777 10.8582 20.6979C11.8916 20.668 12.925 20.6979 13.9584 20.6979Z" fill="#F9F9E6"/>
<path d="M12.4157 21.2969C12.4157 21.3718 12.3858 21.4317 12.4607 21.4916C12.6704 21.6414 12.8351 21.4767 12.9549 21.3419C13.0897 21.881 12.4008 21.9859 12.2061 22.2704C12.1312 22.3753 12.1162 22.6299 12.0563 22.7497C12.0413 22.7797 12.0563 22.8545 11.9814 22.8995C11.3973 22.4352 10.7683 22.2704 10.5137 21.5515H10.6185C10.6185 21.5515 10.7533 21.5515 10.8132 21.5515C10.918 21.5515 11.0678 21.5066 11.1127 21.5066C11.2326 21.5066 11.2775 21.5515 11.3674 21.5515C11.4722 21.5515 11.6369 21.5066 11.7118 21.5066C11.8017 21.5066 11.8167 21.5665 11.9065 21.5515C11.9814 21.5515 12.1462 21.5515 12.1611 21.5515C12.4457 21.4617 12.2809 21.4168 12.4157 21.2969Z" fill="#E89429"/>
<path d="M18.512 21.1022C18.5869 21.1921 18.512 21.3419 18.512 21.3568C18.3623 20.9974 18.3922 21.3868 18.3623 21.5066C18.3024 21.5066 18.2275 21.5066 18.1676 21.5066C18.2125 21.0423 17.6733 21.1621 17.868 21.5515C17.7183 21.5515 17.6134 21.5066 17.5235 21.5066C17.7332 21.1172 17.2839 21.0873 17.2689 21.4617C17.239 21.4617 17.209 21.4617 17.1641 21.4617C17.0892 21.1472 16.9994 21.1621 16.7597 21.3119C16.61 21.4018 16.6848 21.4467 16.565 21.5066C16.61 21.0573 16.0408 21.1322 16.2206 21.5515C16.1157 21.5665 16.0109 21.6114 15.921 21.6564C15.8611 21.5515 15.8911 21.2071 15.6964 21.2071C15.6664 21.6264 15.6964 21.6714 15.4268 21.9559L15.5316 21.5815C15.4567 21.4617 15.4268 21.5815 15.3818 21.5515C15.6365 21.1621 14.9026 21.0273 15.0823 21.5515C14.9475 21.5515 14.8577 21.5216 14.7378 21.5066C14.8726 21.0723 14.663 21.252 14.4832 21.3568C14.4683 21.3568 14.4233 21.3868 14.3784 21.4018C14.2885 21.0873 13.9441 21.1472 13.974 21.4467C13.8991 21.4467 13.8392 21.5366 13.7194 21.5515C13.8093 21.3119 13.8392 21.2071 13.5696 21.252C13.4348 21.267 13.4049 21.252 13.4199 21.5066C13.4049 21.5066 13.2252 21.5965 13.1653 21.6114C13.1203 21.5216 13.1054 21.3868 13.1203 21.282L13.0005 21.2071C13.0005 21.2071 13.0005 21.3419 12.9706 21.3568C12.8507 21.4916 12.671 21.6564 12.4763 21.5066C12.9556 21.4916 12.7759 21.0273 12.4314 21.3119C12.2966 21.4167 12.4613 21.4617 12.1768 21.5665L12.1019 21.222C11.9671 21.3868 11.8024 21.222 11.9222 21.5665C11.8323 21.5665 11.8173 21.5066 11.7275 21.5216C11.6975 21.0873 11.2482 21.1771 11.383 21.5665C11.2931 21.5665 11.2482 21.5216 11.1284 21.5216C11.1883 21.0573 10.6491 21.1921 10.8289 21.5665C10.769 21.5665 10.6941 21.5665 10.6342 21.5665C10.769 21.1921 10.6641 21.3119 10.4395 21.267C10.4245 21.267 10.4095 21.267 10.3945 21.267L10.4994 21.1621C12.7609 21.4467 16.1606 21.1022 18.542 21.1172L18.512 21.1022Z" fill="#E28332"/>
<path d="M14.6178 20.8925C15.8609 20.9075 17.1639 20.9225 18.4669 20.9974C18.8863 21.0123 19.3056 21.1172 19.71 20.9974C20.5637 21.0423 21.5671 21.0722 22.4059 20.8925C22.4059 20.9524 22.5556 21.0273 22.3609 21.1471C22.316 21.1471 22.1063 21.1022 22.0614 21.1022C20.8782 21.0872 19.695 21.1022 18.5118 21.1022C16.1305 21.1022 12.7308 21.4317 10.4692 21.1471C10.2596 21.1172 10.0649 21.1471 10.1248 20.8925H14.6178Z" fill="#483421"/>
<path d="M13.3147 22.2405C13.4196 22.2555 13.4046 22.2855 13.4196 22.2855C13.7041 22.6449 13.6891 23.214 13.7191 23.6634C13.6292 23.7832 12.3412 23.0942 12.3262 23.0193C12.2813 22.8396 12.5509 22.3005 12.7756 22.2405C12.8355 22.2256 13.2548 22.2405 13.3297 22.2405H13.3147Z" fill="#1D4075"/>
<path d="M22.0007 21.2969C21.9108 22.2704 22.1205 23.2739 22.0456 24.2474C21.9557 24.2624 21.761 24.4271 21.7011 24.2773C21.6862 23.7382 21.7461 23.199 21.6562 22.6598C21.5364 22.0009 21.2818 22.1356 21.0571 21.6564C21.162 21.6115 21.162 21.5216 21.3117 21.5066C21.3417 21.5066 21.4316 21.5665 21.5663 21.5515C22.0007 21.4916 21.6263 21.3718 22.0157 21.2969H22.0007Z" fill="#F3AD57"/>
<path d="M22.0609 21.1023C22.0609 21.1772 22.016 21.2071 22.016 21.297C21.6266 21.3569 22.001 21.4917 21.5667 21.5516C21.8662 21.1622 21.342 21.0124 21.3121 21.5067C21.1773 21.5067 21.1773 21.6115 21.0575 21.6564C20.9676 21.4767 21.0575 21.3419 20.9377 21.2071C20.8029 21.297 20.8927 21.4617 20.8628 21.5516C20.698 21.5965 20.5782 21.5516 20.4135 21.5516C20.9227 21.2521 20.3236 20.9376 20.3685 21.5067C20.2487 21.5067 20.1439 21.5816 20.0241 21.5067L20.1738 21.282C20.0091 21.1173 19.9342 21.297 19.9192 21.312C19.7844 21.4018 19.8294 21.4617 19.7245 21.5067C19.7695 21.0424 19.2303 21.1622 19.425 21.5516C19.2902 21.5666 19.0206 21.4917 18.9307 21.5067C19.0955 21.2221 18.766 21.1772 18.8259 21.5067C18.751 21.5067 18.6312 21.5816 18.5713 21.6564C18.5264 21.5217 18.5264 21.4917 18.5264 21.3569C18.5264 21.3569 18.6013 21.2071 18.5264 21.1023C19.7095 21.1023 20.8927 21.0873 22.0759 21.1023H22.0609Z" fill="#E28332"/>
<path d="M22.3606 20.653C22.4205 20.7728 22.4055 20.8178 22.4055 20.9076C21.5668 21.0724 20.5634 21.0574 19.7097 21.0125C19.6647 21.0125 19.4101 20.9226 19.3652 20.9076C19.3352 20.7279 19.5449 20.8477 19.6647 20.7878L19.5599 20.7129C20.4885 20.7129 21.417 20.653 22.3606 20.668V20.653Z" fill="#FAF7BD"/>
<path d="M19.0058 19.0504C18.8411 18.9605 19.0507 18.5711 19.0507 18.3465C19.3054 17.6426 19.1106 16.3995 18.3019 16.2048C18.242 16.1149 18.1372 16.055 18.1072 15.9502C18.0623 15.8304 17.9125 15.5907 18.1371 15.6057C18.242 15.6057 19.515 16.9087 19.4551 17.2232L19.0058 19.0504Z" fill="#C0302C"/>
<path d="M12.7155 18.9456L12.6856 19.0504C12.6107 19.0804 12.5508 18.9905 12.5058 19.0055C12.1464 18.017 11.9667 17.1334 12.6556 16.2348C12.7305 16.1449 13.704 15.1414 13.7789 15.1564C13.8238 15.1564 13.8687 15.2762 13.8538 15.3361C13.3146 15.7106 12.5358 16.4145 12.401 17.0884C12.2962 17.6426 12.5957 18.3465 12.7005 18.9606L12.7155 18.9456Z" fill="#C0302C"/>
<path d="M15.9058 21.6415C16.1305 22.0009 16.5947 22.1357 16.6996 22.5101C16.8643 23.0643 16.6397 23.903 16.7445 24.4272L16.6397 24.3822C16.7445 23.3938 16.8194 22.2555 15.771 21.8362C15.3966 22.2106 15.0072 22.1956 14.9024 22.7797L14.8574 22.6299C14.9772 22.0458 15.112 22.2405 15.4116 21.926C15.6812 21.6415 15.6512 21.5965 15.6812 21.1772C15.8759 21.1772 15.8459 21.5217 15.9058 21.6265V21.6415Z" fill="#484A44"/>
<path d="M16.6541 24.3972C16.6541 24.3972 16.699 24.6518 16.5492 24.5769C16.4744 23.9928 16.7439 22.8995 16.3545 22.4502C16.3096 22.3902 16.2946 22.3303 16.2048 22.3004C16.085 22.1506 15.7255 22.1656 15.5608 22.2555C15.5458 22.2555 15.5308 22.2555 15.5158 22.2555L15.3661 22.3004L15.3211 22.3453C14.9467 22.4801 14.9767 23.1091 14.9767 23.4386C14.8718 23.229 14.8868 23.0043 14.9317 22.7946C15.0366 22.2105 15.426 22.2255 15.8004 21.8511C16.8488 22.2704 16.7739 23.4087 16.6691 24.3972H16.6541Z" fill="#E6DFB0"/>
<path d="M13.1643 21.5966C13.374 22.0309 13.8083 22.1657 13.9131 22.5251C14.003 22.8097 13.9281 23.1691 13.9581 23.4537H13.8532C13.8532 23.1841 13.8832 22.6599 13.7484 22.4353C13.7334 22.3903 13.1194 21.8661 13.0744 21.8661C12.9247 21.8362 12.1608 22.4502 12.1459 22.8097L12.041 22.7648C12.1009 22.6449 12.1159 22.3903 12.1908 22.2855C12.3855 22.0009 13.0744 21.9111 12.9396 21.3569C12.9396 21.3419 12.9097 21.2221 12.9696 21.2072L13.0894 21.282C13.0894 21.3869 13.0894 21.5217 13.1343 21.6115L13.1643 21.5966Z" fill="#3E4D47"/>
<path d="M21.0579 21.6414C21.2826 22.1057 21.5372 21.9859 21.657 22.6449H21.6121C21.4923 22.2255 21.2077 22.1357 20.9381 21.8511C20.5338 22.3603 20.2492 22.1956 20.2192 22.9444L20.1743 24.5919C20.1743 24.5919 20.1444 24.5919 20.1294 24.5919C20.2043 23.9778 20.0096 23.0343 20.1743 22.4652C20.2941 22.0608 20.7135 22.0608 20.8782 21.5366C20.9082 21.4318 20.8183 21.267 20.9531 21.1921C21.0879 21.3269 20.9831 21.4617 21.0729 21.6414H21.0579Z" fill="#484A44"/>
<path d="M16.8042 14.752L18.1072 15.9502C18.1521 16.04 18.242 16.1149 18.3019 16.2048C18.7063 16.8338 18.901 16.9386 19.0058 17.7474C19.0058 18.002 19.0058 18.2716 18.9609 18.5262C18.9609 18.5412 18.8111 19.1403 18.8111 18.7958C19.4102 17.2532 18.257 16.2797 17.3134 15.3511C17.1187 15.1564 16.8941 14.9916 16.7144 14.782C16.7144 14.737 16.8042 14.767 16.8192 14.752H16.8042Z" fill="#F5B191"/>
<path d="M19.2605 23.1991C19.2755 23.4687 19.2605 23.7682 19.2605 24.0528C19.2605 24.1726 19.3054 24.3673 19.2156 24.4572C19.2455 24.3074 19.2156 23.888 19.2156 23.7083C19.2156 23.3339 19.2156 22.6599 18.961 22.4053C18.8561 22.3005 18.8711 22.2855 18.7064 22.2555H18.2571C18.2571 22.2555 18.2271 22.2555 18.2121 22.2555C17.658 22.3155 17.7029 22.8546 17.658 23.259C17.4932 22.7348 17.6879 22.3903 18.1073 22.1058C18.4817 21.8512 18.5117 21.8362 18.8861 22.1507C19.3354 22.5401 19.2306 22.6749 19.2605 23.1991Z" fill="#E6DFB0"/>
<path d="M13.8689 23.4386C13.8689 23.5434 13.8689 23.6482 13.8689 23.7681C13.5994 23.4236 14.0037 22.5399 13.4196 22.3003C13.4196 22.3003 13.4196 22.2704 13.3148 22.2554C13.1501 22.1505 12.9404 22.2105 12.7607 22.2554C12.2964 22.3902 12.3113 22.5699 12.1915 23.0042C12.1466 23.0042 12.1616 22.8545 12.1616 22.8095C12.1616 22.4501 12.9254 21.836 13.0901 21.866C13.1351 21.866 13.7491 22.4052 13.7641 22.4351C13.8839 22.6747 13.8839 23.184 13.8689 23.4535V23.4386Z" fill="#E6DFB0"/>
<path d="M19.0506 18.3464C19.0506 18.1218 19.0206 17.957 19.0057 17.7473C18.9008 16.9236 18.7061 16.8337 18.3018 16.2047C19.1105 16.3994 19.3052 17.6575 19.0506 18.3464Z" fill="#A41E20"/>
<path d="M21.6116 22.6449C21.6415 22.7497 21.6565 23.0193 21.6565 23.1391H21.5517C21.5217 22.8695 21.5217 22.3303 21.2072 22.2405H20.7579C20.5632 22.2704 20.6381 22.2854 20.5632 22.3453C20.2337 22.555 20.2636 22.9444 20.2636 23.2889C20.2636 23.2439 20.2037 23.0792 20.2187 22.9444C20.2636 22.1955 20.5332 22.3603 20.9376 21.8511C21.2072 22.1506 21.5067 22.2255 21.6116 22.6449Z" fill="#E3D193"/>
<path d="M14.5131 15.0066C13.929 15.4709 12.8356 16.3395 12.7158 17.1034H12.6709C12.8207 16.3395 14.0638 15.0665 14.7227 14.6621C14.7677 14.6322 14.8725 14.5123 14.8725 14.6322C14.7527 14.752 14.6179 14.8568 14.528 15.0066H14.5131Z" fill="#F4CCB5"/>
<path d="M18.2118 22.2404C17.5078 22.4501 17.8373 24.1126 17.7625 24.6817C17.7325 24.6817 17.6876 24.6817 17.6576 24.6817C17.5528 24.2174 17.5977 23.6932 17.6576 23.2289C17.7025 22.8395 17.6576 22.2854 18.2118 22.2255V22.2404Z" fill="#851D0F"/>
<path d="M18.0021 22.0458L18.107 22.0907C17.6876 22.3753 17.4929 22.7048 17.6576 23.2439C17.5977 23.7082 17.5528 24.2324 17.6576 24.6967C17.5678 24.6967 17.5528 24.6518 17.5079 24.6518C17.5828 24.0078 17.3431 22.8995 17.6576 22.3303C17.7325 22.1955 17.9722 22.0907 18.0021 22.0608V22.0458Z" fill="#345746"/>
<path d="M15.3065 22.3454C14.962 22.7198 15.1567 23.6484 15.1118 24.1426C15.0968 24.1277 14.992 24.2475 14.962 24.1726C14.9321 24.1277 14.962 23.5735 14.962 23.4537C14.962 23.1092 14.9321 22.4802 15.3065 22.3604V22.3454Z" fill="#851D0F"/>
<path d="M12.9701 18.9906C12.9701 18.9906 12.9251 19.1104 12.8203 18.9606C12.8203 18.9606 12.7304 18.721 12.7155 18.691C12.5807 18.2717 12.5807 17.5228 12.6705 17.0885H12.7155C12.6256 17.6576 12.7604 18.4364 12.9701 18.9906Z" fill="#FAF7BD"/>
<path d="M20.5634 22.3454C20.219 23.0194 20.4137 23.8131 20.3687 24.547L20.2639 23.7982C20.2639 23.6334 20.2639 23.4687 20.2639 23.3039C20.2639 22.9595 20.2339 22.5701 20.5634 22.3604V22.3454Z" fill="#582626"/>
<path d="M20.264 23.2888C20.264 23.4535 20.264 23.6183 20.264 23.783C20.264 24.0676 20.264 24.3671 20.264 24.6517C20.1442 24.7415 20.1742 24.5768 20.1592 24.5768L20.2041 22.9293C20.2041 23.0641 20.249 23.2438 20.249 23.2738L20.264 23.2888Z" fill="#787D54"/>
<path d="M19.3656 23.199C19.3806 23.4836 19.3506 23.7682 19.3656 24.0527H19.2607C19.2607 23.7682 19.2757 23.4836 19.2607 23.199H19.3656Z" fill="#483A3C"/>
<path d="M10.8734 20.6978C10.8734 20.8775 10.8135 20.8626 10.9932 20.8925C11.787 21.0573 13.689 20.8925 14.6176 20.8925H10.1245C10.1245 20.8925 10.1245 20.7877 10.1245 20.7427C10.3791 20.7128 10.6038 20.6978 10.8734 20.6978Z" fill="#FAF38B"/>
<path d="M18.5115 21.3419C18.5115 21.4767 18.5115 21.5066 18.5564 21.6414C18.7961 22.2854 19.2603 21.7912 19.3502 23.184H19.2454C19.2154 22.6598 19.3202 22.525 18.8709 22.1356C18.5115 21.8211 18.4666 21.8361 18.0921 22.0907L17.9873 22.0458C18.2419 21.7462 18.212 21.926 18.3318 21.4916C18.3617 21.3718 18.3318 20.9824 18.4815 21.3419H18.5115Z" fill="#484A44"/>
<path d="M17.1636 21.4467C17.1636 21.4467 16.6993 21.7912 16.7592 21.2969C16.9989 21.1472 17.0887 21.1322 17.1636 21.4467Z" fill="#E1592D"/>
<path d="M16.5641 21.4917C16.4144 21.5665 16.3395 21.5216 16.2197 21.5366C16.0549 21.1172 16.6091 21.0423 16.5641 21.4917Z" fill="#DA362A"/>
<path d="M18.1517 21.4917C18.0468 21.5066 17.9719 21.5366 17.8521 21.5366C17.6574 21.1472 18.1966 21.0274 18.1517 21.4917Z" fill="#DA362A"/>
<path d="M17.5075 21.4916C17.2979 21.4916 17.2679 21.4467 17.2529 21.4467C17.2529 21.0872 17.7172 21.1172 17.5075 21.4916Z" fill="#DA362A"/>
<path d="M19.2155 23.6932L18.9609 22.3902C19.2155 22.6448 19.2006 23.3188 19.2155 23.6932Z" fill="#392B26"/>
<path d="M19.7093 21.4917C19.7093 21.4917 19.4696 21.5366 19.4097 21.5366C19.215 21.1472 19.7542 21.0274 19.7093 21.4917Z" fill="#C0302C"/>
<path d="M20.4136 21.5516L20.3686 21.5066C20.3237 20.9525 20.9228 21.252 20.4136 21.5516Z" fill="#C0302C"/>
<path d="M20.0096 21.4916C19.9197 21.4467 19.8748 21.4916 19.9047 21.2969C19.9047 21.2969 19.9946 21.1172 20.1594 21.2669L20.0096 21.4916Z" fill="#C53D1E"/>
<path d="M18.9006 21.4917C18.9006 21.4917 18.8407 21.4917 18.7958 21.4917C18.7359 21.1622 19.0504 21.2071 18.9006 21.4917Z" fill="#A41E20"/>
<path d="M15.3663 21.5516C15.2764 21.5216 15.1267 21.5516 15.0668 21.5516C14.887 21.0274 15.6209 21.1622 15.3663 21.5516Z" fill="#DA362A"/>
<path d="M14.3633 21.4018C14.0488 21.5965 14.2735 21.4018 13.9589 21.4467C13.914 21.1472 14.2735 21.0873 14.3633 21.4018Z" fill="#DA362A"/>
<path d="M14.7075 21.4917C14.7075 21.4917 14.4229 21.6565 14.4529 21.3419C14.6326 21.2371 14.8423 21.0574 14.7075 21.4917Z" fill="#DA362A"/>
<path d="M13.7191 21.5516C13.5993 21.5516 13.5394 21.5067 13.5244 21.5067L13.5693 21.252C13.8389 21.2071 13.809 21.312 13.7191 21.5516Z" fill="#E1592D"/>
<path d="M13.5697 21.252L13.5248 21.5066C13.5248 21.5066 13.4349 21.5066 13.4199 21.5066C13.4199 21.252 13.4199 21.2819 13.5697 21.252Z" fill="#A41E20"/>
<path d="M16.205 22.3003C16.0553 22.2404 15.7108 22.2254 15.561 22.2554C15.7408 22.1655 16.0852 22.1655 16.205 22.3003Z" fill="#684337"/>
<path d="M12.8655 20.2036C12.7457 20.2036 12.2365 20.3234 12.1467 20.2485L12.1167 19.7992C12.3563 19.7992 12.6409 19.7692 12.8955 19.7543L12.8655 20.2036Z" fill="#1D4075"/>
<path d="M19.4554 20.2486C19.2157 20.2935 18.8563 20.1887 18.7065 20.2036C18.4819 19.5896 19.7249 19.6195 19.4554 20.2486Z" fill="#1D4075"/>
<path d="M13.9139 19.9491C14.0038 20.4882 13.5844 20.1587 13.165 20.2486L13.1201 20.2037V19.8592L13.9139 19.964V19.9491Z" fill="#1D4075"/>
<path d="M19.5601 20.1437C19.4852 20.1437 19.5451 20.2335 19.4553 20.2485C19.7249 19.6045 18.4818 19.5895 18.7064 20.2036C16.9841 20.3533 15.082 20.4132 13.2848 20.3533C13.1949 20.3533 13.0601 20.3983 13.165 20.2485C13.5843 20.1586 14.0037 20.4881 13.9138 19.949C13.9138 19.949 14.0336 19.8891 13.9438 19.7992L13.12 19.8441V20.1886C13.0002 20.3084 12.9253 20.1886 12.8654 20.1886L12.8954 19.7393C12.6557 19.7692 12.3712 19.7842 12.1166 19.7842C12.1166 19.7842 12.0267 19.6794 11.9219 19.7393C12.0567 19.3798 18.7214 19.7992 19.5302 19.6344C19.605 19.6644 19.5601 20.0388 19.5601 20.1287V20.1437Z" fill="#FBCE5D"/>
<path d="M15.4864 19.7543C15.6811 19.7543 15.9657 19.8591 16.1903 19.7992C16.1454 19.904 16.2203 20.2036 16.2203 20.2186C16.1903 20.2635 15.2917 20.2785 15.2468 20.2485C15.2318 20.2485 15.1569 19.8441 15.1719 19.8292C15.1719 19.8292 15.4714 19.7543 15.5014 19.7543H15.4864Z" fill="#1D4075"/>
<path d="M16.4297 19.7992H17.3882L17.4032 20.2185L16.4297 20.2485V19.7992Z" fill="#1D4075"/>
<path d="M17.6274 19.7992C17.7922 19.8442 18.3763 19.7543 18.4811 19.7992C18.4961 19.7992 18.4811 20.2036 18.4512 20.2186C18.4062 20.2785 17.7622 20.2186 17.6274 20.2485V19.7992Z" fill="#1D4075"/>
<path d="M14.9616 19.8442C15.1713 20.3085 14.4074 20.3684 14.1828 20.2486C14.1678 20.2486 14.1978 19.8741 14.2127 19.8442H14.9616Z" fill="#1D4075"/>
<path d="M14.9622 19.8442H14.2134C14.2733 19.6794 14.9023 19.7094 14.9622 19.8442Z" fill="#8A562D"/>
<path d="M13.9139 19.949L13.1201 19.8441L13.9438 19.7992C14.0337 19.8891 13.9139 19.949 13.9139 19.949Z" fill="#774625"/>
<path d="M19.3649 20.8925C19.3649 20.8925 19.6794 20.9973 19.7094 20.9973C19.29 21.1171 18.8707 21.0123 18.4663 20.9973C18.7209 20.8625 19.0804 20.8775 19.3649 20.8925Z" fill="#D2B624"/>
<path d="M11.7119 21.4916C11.637 21.4916 11.4573 21.5365 11.3674 21.5365C11.2327 21.1471 11.682 21.0573 11.7119 21.4916Z" fill="#C0302C"/>
<path d="M11.1132 21.4917C11.1132 21.4917 10.9185 21.5366 10.8137 21.5366C10.634 21.1622 11.1732 21.0124 11.1132 21.4917Z" fill="#C0302C"/>
<path d="M12.1617 21.5516C12.1617 21.5516 11.982 21.5516 11.9071 21.5516C11.7723 21.2072 11.952 21.3719 12.0868 21.2072L12.1617 21.5516Z" fill="#C0302C"/>
<path d="M12.4609 21.4916C12.3711 21.4317 12.416 21.3718 12.416 21.2969C12.7605 21.0123 12.9402 21.4766 12.4609 21.4916Z" fill="#DA362A"/>
<path d="M13.3144 22.2404C13.3144 22.2404 12.8202 22.2254 12.7603 22.2404C12.94 22.1955 13.1347 22.1355 13.3144 22.2404Z" fill="#684337"/>
<path d="M21.552 21.5515C21.4172 21.5665 21.3273 21.5065 21.2974 21.5065C21.3273 21.0273 21.8515 21.1621 21.552 21.5515Z" fill="#DA362A"/>
<path d="M8.17767 10.3039C8.35739 10.3488 8.26753 10.5135 8.28251 10.5585C8.28251 10.5884 8.17767 10.6633 8.25256 10.7082C8.32744 10.7382 9.72029 10.7082 9.79518 10.7082C10.0049 10.6633 9.76523 10.6184 9.76523 10.6034C9.76523 10.4087 9.84011 10.3488 10.0648 10.3039C10.0648 10.3937 9.915 10.5135 9.915 10.5285C9.915 10.6034 10.0198 10.7232 10.0198 10.7232C10.0198 10.7382 9.87006 10.7681 9.87006 10.828C9.85509 10.9928 9.84011 12.2059 9.87006 12.2808C9.92997 12.4006 10.1996 12.2958 10.2744 12.4755C10.4092 12.82 10.0648 12.8649 10.0198 12.9697C9.95993 13.1345 10.0198 14.123 10.0198 14.3926H9.9749C9.95993 13.8983 9.915 13.4191 9.92997 12.9248C9.90002 12.8799 9.5256 12.9098 9.43573 12.8949C9.10624 12.8799 8.76177 12.8949 8.43228 12.8949V16.2946C8.43228 16.2946 8.46223 16.2946 8.47721 16.2946V16.3396C8.31246 16.3545 8.13274 16.4294 7.95302 16.3845C7.95302 16.4444 7.87813 16.5492 7.87813 16.5792C7.87813 16.6691 7.93804 16.7739 7.99795 16.8338C8.40233 16.6691 9.915 16.9386 10.1996 16.8338C10.4242 16.7589 10.4841 16.6241 10.3194 16.4294V16.3845H10.4242C10.6189 16.6691 10.3943 16.9087 10.1247 16.9836L10.0198 16.9386L8.29749 16.8937C8.29749 16.8937 8.29749 17.1633 8.26753 17.2382C8.17767 17.8373 8.13274 18.8108 8.37237 19.3349C8.50716 19.6644 8.8067 19.919 9.01638 20.1886C9.15117 20.3684 9.06131 20.4582 9.31592 20.593C9.40578 20.6379 9.40578 20.7278 9.51062 20.6379C9.51062 20.6679 9.51062 20.7128 9.51062 20.7428C9.51062 20.7578 9.51062 20.7727 9.51062 20.7877C9.61546 21.252 10.0498 21.2071 10.3643 21.237C10.3793 21.237 10.3943 21.237 10.4092 21.237C10.3344 21.4018 10.4991 21.5066 10.5141 21.5366C10.7687 22.2554 11.4127 22.4202 11.9818 22.8845C12.0717 22.8395 12.0417 22.7647 12.0567 22.7347L12.1615 22.7796C12.1615 22.7796 12.1615 22.9743 12.1915 22.9743C12.3263 22.54 12.2963 22.3603 12.7606 22.2255C12.536 22.2854 12.2664 22.8246 12.3113 23.0043C12.3413 23.0792 13.6293 23.7831 13.7042 23.6483C13.6742 23.199 13.6892 22.6299 13.4046 22.2704C13.9887 22.5101 13.5843 23.4087 13.8539 23.7382C13.8539 23.6333 13.8539 23.5135 13.8539 23.4087H13.9588C14.0187 24.0677 14.1535 23.843 14.7376 24.1126C14.9023 23.6183 14.7525 23.1241 14.8574 22.6149L14.9023 22.7647C14.8574 22.9893 14.8424 23.199 14.9472 23.4087C14.9472 23.5285 14.9173 24.0826 14.9472 24.1276C14.9772 24.2024 15.082 24.0826 15.097 24.0976C15.4115 24.3822 16.0705 24.5469 16.4899 24.472L16.3401 22.4052C16.7295 22.8545 16.4599 23.9478 16.5348 24.5319C16.6846 24.6068 16.6247 24.4271 16.6396 24.3522L16.7445 24.3972C16.7595 24.472 16.7145 24.5319 16.8194 24.5919C16.9542 24.6667 17.4035 24.5919 17.4933 24.5919C17.5383 24.5919 17.5532 24.6368 17.6431 24.6368C17.673 24.6368 17.703 24.6368 17.7479 24.6368C18.2122 24.6817 18.6915 24.8165 19.1408 24.6667C19.0959 24.5619 19.1707 24.4571 19.1857 24.3972C19.2756 24.3223 19.2306 24.1126 19.2306 23.9928H19.3355C19.3355 24.1276 19.2756 24.6368 19.4104 24.6967C19.68 24.7716 19.9196 24.5919 20.0843 24.5469C20.0993 24.5469 20.1143 24.5469 20.1293 24.5469C20.1293 24.5469 20.1143 24.7117 20.2341 24.6218C20.2341 24.3372 20.2341 24.0377 20.2341 23.7531L20.3389 24.502C20.4288 24.6518 21.3873 24.472 21.5371 24.3073C21.6869 24.1425 21.6569 23.4386 21.6419 23.1091C21.6419 22.9743 21.627 22.7197 21.597 22.6149H21.6419C21.7468 23.1541 21.6719 23.6932 21.6869 24.2324C21.7468 24.3822 21.9415 24.2324 22.0313 24.2024C22.1961 24.1725 22.9749 23.9628 23.0348 23.828C23.1546 23.5285 22.915 22.57 23.0797 22.2105C23.0498 22.7497 23.1097 23.2889 23.0797 23.828C23.1247 23.9329 23.4541 23.6483 23.4841 23.4985C23.4541 23.7232 23.5889 23.6483 23.7088 23.6034C23.8136 23.5734 24.5175 23.184 24.5325 23.1241C24.6373 22.8395 24.3677 21.7163 24.4875 21.3269C24.4426 21.2071 22.2111 21.2071 21.9864 21.252C21.9864 21.1621 22.0463 21.1322 22.0313 21.0573C22.0763 21.0573 22.2859 21.1022 22.3309 21.1022C22.7502 21.1022 24.4875 21.252 24.7571 21.1472C24.9369 21.0723 24.9369 20.6679 24.7571 20.593C24.5774 20.5181 22.7053 20.593 22.3309 20.593C21.4023 20.593 20.4588 20.6379 19.5302 20.6379C17.673 20.6379 15.8009 20.6379 13.9438 20.6379V20.593C15.4115 20.623 17.8228 20.7578 19.2157 20.593C19.665 20.5331 19.5152 20.4582 19.5452 20.0988C19.5452 20.0089 19.5901 19.6345 19.5152 19.6045C18.7065 19.7693 12.0417 19.3499 11.9069 19.7094C11.892 19.7543 11.9069 20.1737 11.9069 20.2635H11.8021C11.892 19.4548 11.5175 19.8442 11.4576 19.2451C11.5475 19.0204 11.8021 18.9905 12.0118 18.9755C12.1166 18.9755 12.2963 19.0055 12.506 18.9755C12.536 18.9755 12.5959 19.0654 12.6857 19.0204L12.7157 18.9156V18.661C12.7157 18.661 12.8055 18.9306 12.8205 18.9306C12.9254 19.0803 12.9703 18.9455 12.9703 18.9605C13.165 19.0504 13.18 19.0803 13.4645 19.0654C13.5694 19.0654 13.6892 19.1103 13.7641 18.9905C13.3896 18.0469 13.4496 17.0135 13.7641 16.07C13.9588 15.7255 14.2733 15.3062 14.5129 14.9767C14.6178 14.8269 14.7376 14.7221 14.8574 14.6022C14.8574 14.4674 14.7525 14.6022 14.7076 14.6322L14.6627 14.4824C14.7675 14.4225 15.2468 14.1829 15.2618 14.1529C15.3966 13.9433 15.3816 13.2843 15.5613 13.0596C14.5129 12.4456 14.6777 10.9329 15.9357 10.843C16.1154 10.9029 15.6661 11.2175 15.6062 11.3672C15.4115 11.9363 15.8758 12.6103 16.4749 12.5953C16.6097 12.5953 16.8643 12.3707 16.9991 12.4755C16.8044 12.9398 16.3551 13.0746 15.9058 13.0746C16.1754 13.3292 16.0855 13.9433 16.2053 14.2278C16.2203 14.2727 16.8493 14.6322 16.9542 14.7071C16.8942 14.7071 16.8493 14.7221 16.8044 14.752C16.8044 14.752 16.7145 14.737 16.6995 14.782C16.8793 14.9916 17.1039 15.1564 17.2986 15.3511C17.4783 15.9052 17.8827 16.3845 18.0475 16.9536C18.1523 17.6575 18.0774 18.3465 17.8977 19.0204C17.9726 19.1402 18.0025 19.0204 18.0924 19.0504C18.4219 19.0953 18.6765 19.1253 18.7963 18.7958C18.7963 19.1253 18.9461 18.5412 18.9461 18.5262C18.976 18.2716 18.991 18.002 18.991 17.7474C19.021 17.9571 19.0359 18.1218 19.0359 18.3465C19.0359 18.5711 18.8113 18.9605 18.991 19.0504C19.1707 19.1402 19.3954 19.1253 19.5452 19.0055C20.5636 19.32 19.6949 19.6794 19.65 19.7843C19.62 19.8591 19.62 20.5631 19.7249 20.608C19.8297 20.6529 22.0164 20.6379 22.0463 20.5331L22.1511 15.7854C21.4622 15.5308 21.4472 15.0665 22.1961 14.9168C22.1961 14.9168 22.1961 14.9168 22.241 14.9168C22.3309 14.9168 22.4806 14.8718 22.4956 14.8718C22.5106 14.8718 22.5256 14.8718 22.5405 14.8718C22.5405 14.8718 22.5256 14.9767 22.5705 14.9767C22.6903 14.9767 22.8401 14.9317 22.9 14.9317C22.9749 14.9317 23.0647 14.9317 23.1546 14.9317C23.3793 14.9168 23.4242 15.1714 23.4991 14.6771C23.4991 14.737 23.4841 14.8718 23.4991 14.9018C23.529 14.9617 23.6488 14.9018 23.6938 14.9317C23.7986 14.9617 23.8885 15.0366 23.9933 14.9617C23.9933 14.4375 23.9783 13.9133 23.9933 13.3891C24.203 13.6737 23.7687 15.1564 24.2929 14.9168L24.188 11.0227L22.3458 11.0527C22.3458 11.8015 22.3009 12.5504 22.3009 13.2992H22.1961C22.1961 12.9398 22.3309 11.2175 22.241 11.0227C22.241 10.9928 21.9415 10.9628 21.9415 10.6783C21.9415 10.3188 22.2859 10.3787 22.3458 10.2739C22.3908 10.184 22.3908 8.31193 22.3458 8.22206C22.3159 8.16216 22.1062 8.28197 22.0463 8.17713L22.1511 7.69787L22.1811 7.59303L22.3009 7.78773C22.2111 7.83266 22.271 7.87759 22.256 7.89257C22.1961 7.96746 22.0613 7.95248 22.226 8.08727C22.5855 8.08727 22.9449 8.08727 23.3044 8.08727V8.1322C23.1846 8.1322 22.4956 8.10225 22.4507 8.16216V10.2589C22.4956 10.3338 22.5406 10.3188 22.6005 10.3338C22.7353 10.3638 22.93 10.2889 22.9449 10.2889C22.9899 10.2889 23.0198 10.3488 23.1396 10.3338C23.4092 10.3338 23.4242 10.2439 23.4841 10.229C23.4991 10.229 23.6938 10.5435 23.6788 10.1241C23.7237 10.2889 23.7836 10.3937 23.9783 10.3188C24.0083 10.3188 24.0532 10.3338 24.0832 10.2889L24.0382 8.16216C24.0382 8.16216 24.1281 8.07229 24.1431 8.05732C24.2329 7.99741 24.2928 8.10225 24.2479 7.90755C24.2479 7.87759 24.2479 7.83266 24.2479 7.80271C24.2779 7.80271 24.3228 7.80271 24.3528 7.80271C24.3378 7.90755 24.4576 8.07229 24.3977 8.17713C24.3528 8.28197 24.203 8.23704 24.203 8.28197C24.173 8.37183 24.1581 10.1391 24.203 10.229C24.2329 10.3039 25.2514 10.5435 24.2479 11.0227C24.4276 12.1161 24.188 13.5089 24.3528 14.5723C24.4576 15.2163 24.8021 14.767 24.9069 15.1714C25.0567 15.7555 24.4426 15.6656 24.4127 15.7255C24.2779 15.9202 24.6074 19.934 24.4576 20.5181C24.847 20.5031 25.1465 20.6829 25.0117 21.1172C24.9518 21.2969 24.6523 21.2819 24.6074 21.3718C24.5175 21.5815 24.6823 22.7497 24.6074 23.0642L24.7122 23.1091C25.8055 22.4801 26.779 21.6713 27.6627 20.7578C27.8424 20.5631 28.6961 19.4098 28.7859 19.3799C28.9507 19.3349 29.1004 19.4248 29.1154 19.6045C29.1154 19.7393 28.1269 21.6414 27.9622 21.896C26.3746 24.487 23.9334 26.5089 21.2226 27.8119L19.1258 28.6057C19.006 28.5757 19.0359 28.5607 18.976 28.4559C22.7053 27.4824 25.8205 24.9663 27.9173 21.7912L28.112 21.267C28.3516 20.9225 28.4714 20.7128 28.6062 20.3234C28.6062 20.3234 28.771 20.2635 28.6811 20.1737C28.6062 20.2036 28.6062 20.3234 28.6062 20.3234C28.5163 20.4283 28.3965 20.5181 28.3067 20.623L28.6062 20.1287C28.756 19.949 28.8608 19.7393 29.0106 19.5596C29.0855 18.9905 28.112 20.5031 28.067 20.5631C22.3608 27.0181 12.6108 26.0746 7.95302 18.9605C7.72836 18.631 7.51869 18.017 7.30901 17.7324C4.67307 12.3108 6.09588 6.29004 10.9035 2.71055C11.5625 2.23129 12.3113 1.75203 13.0452 1.40756C13.5394 1.18291 14.2134 1.04811 14.6178 0.853413C14.7825 0.778528 14.7226 0.793505 14.6926 0.658713C14.9023 0.613782 15.2168 0.658713 15.3966 0.538897C15.1569 0.464013 14.9323 0.538897 14.6926 0.568851C10.574 0.464013 6.42537 2.86032 3.90925 6.03543C2.1869 8.22206 1.09358 11.0976 0.958791 13.8983C0.823998 16.699 1.43805 19.0504 2.75602 21.5366C4.59818 25.0262 7.77329 27.4974 11.6973 28.4709C11.6373 28.5757 11.6673 28.6057 11.5475 28.6206C10.8286 28.3511 10.1097 28.1264 9.40578 27.8269C-4.13337 21.9409 -0.673695 1.69212 13.6892 0.419082C13.824 0.419082 16.3101 0.239359 15.3816 0.763551C15.2168 0.853413 14.1984 1.03314 13.8839 1.16793C6.665 3.98359 3.75948 12.3856 8.11776 18.9156C8.04288 18.6011 8.28251 17.1483 8.1627 16.9686C8.14772 16.9386 7.86316 16.9386 7.81823 16.8188C7.62353 16.3246 8.13274 16.3096 8.1627 16.2197C8.1627 16.1898 8.20763 15.6356 8.20763 15.5158C8.23758 15.2163 8.29749 13.1195 8.25256 12.9697C8.25256 12.9248 8.01293 12.7751 7.99795 12.6702C7.95302 12.3257 8.28251 12.3407 8.29749 12.3257C8.34242 12.2658 8.29749 11.0078 8.29749 10.828C8.29749 10.7981 8.1627 10.5884 8.14772 10.3039H8.17767Z" fill="#6E4717"/>
<path d="M14.6627 0.673775C14.5878 0.688752 14.483 0.703729 14.4081 0.718706C14.4081 0.643822 14.2733 0.673775 14.2134 0.673775C14.3182 0.613868 14.5279 0.598891 14.6627 0.568937C14.8873 0.538983 15.127 0.464098 15.3666 0.538983C15.1869 0.673775 14.8724 0.613868 14.6627 0.658798V0.673775Z" fill="#F9DC8C"/>
<path d="M28.5913 20.3534C28.5913 20.3534 28.5913 20.2336 28.6662 20.2036C28.7561 20.2935 28.5913 20.3384 28.5913 20.3534Z" fill="#BC8624"/>
<path d="M22.5106 16.3546C22.3758 16.759 22.5106 17.418 22.4657 17.8523C22.4657 17.8523 22.3159 17.8373 22.3159 17.8823C22.286 18.1219 22.3009 18.5413 22.3159 18.7809C22.3159 18.8258 22.4956 19.35 22.5106 19.4998C22.5106 19.5447 22.5106 19.6046 22.5106 19.6496C22.3459 19.8892 22.6903 20.7429 22.1661 20.5182C22.3758 19.0655 22.0463 17.3581 22.2111 15.9503C22.4657 15.9952 22.1062 16.4894 22.5106 16.3546Z" fill="#FCDD63"/>
<path d="M24.8019 15.2462C24.8019 15.2462 24.7869 15.5157 24.727 15.5457C24.4274 15.6955 22.4655 15.3959 21.9862 15.5906C21.7615 15.4558 21.7466 15.4708 21.8065 15.2462H24.8019Z" fill="#F7B620"/>
<path d="M24.1581 20.2485C24.1881 20.0089 24.1132 19.6494 24.0533 19.3948C24.0832 19.3798 24.233 19.3648 24.248 19.275C24.248 19.245 24.1581 18.7957 24.1432 18.7807C24.0982 18.7208 24.0084 18.8107 23.9485 18.7059C24.263 18.646 24.0832 18.1667 23.7987 18.4513C23.7987 18.4513 23.6938 18.4513 23.6938 18.4213C23.7238 18.3015 24.1282 18.1966 24.248 18.3764C24.218 17.987 24.2779 17.5526 24.248 17.1782C24.248 17.1782 24.2031 16.8337 24.0982 16.9536C24.0982 16.8038 24.0832 16.5042 24.0533 16.3545L24.3079 16.2047C24.3828 17.6275 24.3379 19.0503 24.3528 20.4731C24.1731 20.6678 24.1282 20.3983 24.1581 20.2485Z" fill="#FCDD63"/>
<path d="M24.8015 15.2463H21.8062C21.8361 15.1265 21.8062 15.0366 21.9859 14.9917C22.2105 14.9318 24.6518 14.9767 24.7566 15.0666C24.7566 15.0666 24.8015 15.2014 24.8015 15.2463Z" fill="#FCDD63"/>
<path d="M24.5028 10.7083L22.0615 10.6634C22.0615 10.5436 22.1813 10.3938 22.2862 10.3638C22.406 10.3339 24.0235 10.3339 24.1882 10.3638C24.3979 10.4088 24.6525 10.4537 24.5177 10.7083H24.5028Z" fill="#FAF38B"/>
<path d="M24.5028 10.7083C24.5028 10.7083 24.5028 10.7981 24.3829 10.858C23.8288 10.7382 22.6456 10.9928 22.1813 10.858C22.1214 10.8431 22.0615 10.7382 22.0615 10.6633L24.5028 10.7083Z" fill="#F7B620"/>
<path d="M24.0526 19.3948C24.0975 19.6345 24.1874 19.9939 24.1574 20.2485C24.0975 20.7278 24.0676 20.5331 23.7531 20.5481C23.783 20.3384 23.7081 19.6195 23.798 19.4697C23.8729 19.3499 24.0226 19.4248 24.0526 19.3948Z" fill="#1D4075"/>
<path d="M22.855 20.5031C22.855 20.5031 22.6004 20.6229 22.5105 20.533C22.4806 20.5031 22.5255 19.7992 22.5105 19.6644C22.5105 19.6195 22.5105 19.5595 22.5105 19.5146C22.9599 18.9455 22.855 20.2784 22.855 20.5181V20.5031Z" fill="#1D4075"/>
<path d="M23.4989 20.5033C23.4989 20.5033 23.424 20.6231 23.1694 20.6081C23.1245 20.6081 23.1544 20.5033 23.1395 20.5033C22.9897 19.1254 23.6337 19.1404 23.4839 20.5033H23.4989Z" fill="#1D4075"/>
<path d="M24.0533 16.3545C24.0832 16.5043 24.0982 16.8038 24.0982 16.9536C24.0982 17.2382 24.0982 17.5377 24.0982 17.8223H23.6938C23.7238 17.6126 23.604 15.9951 23.9634 16.1448C23.9934 16.1448 24.0233 16.2946 24.0383 16.3395L24.0533 16.3545Z" fill="#1D4075"/>
<path d="M22.8997 17.2981L22.8547 17.5976C22.7798 17.8373 22.9745 17.8822 22.5103 17.8522L22.5552 16.2048C22.8997 15.9202 22.9146 17.1034 22.8997 17.2981Z" fill="#1D4075"/>
<path d="M22.511 17.8522H22.466C22.511 17.4178 22.3762 16.7589 22.511 16.3545C22.5259 16.2946 22.481 16.2796 22.5559 16.2047L22.511 17.8522Z" fill="#694252"/>
<path d="M23.9481 18.6909C23.8732 18.5861 23.8582 18.616 23.7983 18.4363C24.0829 18.1368 24.2626 18.616 23.9481 18.6909Z" fill="#215686"/>
<path d="M24.3078 16.2048L24.0532 16.3545C24.0532 16.3545 24.0083 16.1748 23.9783 16.1598C23.6189 16.0101 23.7237 17.6126 23.7087 17.8372H24.1131C24.1131 17.5527 24.1131 17.2531 24.1131 16.9686C24.218 16.8488 24.2629 17.1783 24.2629 17.1932C24.2928 17.5677 24.2329 18.002 24.2629 18.3914C24.158 18.2117 23.7387 18.3165 23.7087 18.4363C23.7087 18.4813 23.8136 18.4513 23.8136 18.4663C23.8735 18.631 23.8885 18.6011 23.9634 18.7209C24.0382 18.8257 24.1281 18.7359 24.158 18.7958C24.173 18.8257 24.2629 19.275 24.2629 19.29C24.2329 19.3799 24.0832 19.3948 24.0682 19.4098C24.0382 19.4398 23.9034 19.3649 23.8136 19.4847C23.7237 19.6345 23.7836 20.3534 23.7686 20.563C23.6488 20.563 23.559 20.5181 23.514 20.5181C23.6638 19.1552 23.0198 19.1402 23.1696 20.5181C23.0947 20.5181 23.0348 20.5331 22.87 20.5181C22.87 20.2785 22.9749 18.9455 22.5256 19.5147C22.5106 19.3499 22.3309 18.8407 22.3309 18.7958C22.3159 18.5561 22.3009 18.1368 22.3309 17.8972C22.3309 17.8522 22.4806 17.8822 22.4806 17.8672H22.5256C23.0048 17.8972 22.8101 17.8672 22.87 17.6126C22.9 17.4928 22.915 17.4478 22.915 17.3131C22.915 17.1034 22.915 15.9202 22.5705 16.2197C22.4806 16.2946 22.5405 16.3096 22.5256 16.3695C22.1212 16.5193 22.4806 16.0101 22.226 15.9651C22.226 15.8603 22.1811 15.7405 22.3009 15.6656L24.3228 15.7405C24.3228 15.9052 24.3228 16.055 24.3228 16.2197L24.3078 16.2048Z" fill="#F7B620"/>
<path d="M23.1543 17.7924L23.1094 16.5942C23.1393 16.3995 23.1393 16.1299 23.379 16.1898C23.5287 16.2647 23.4838 17.5977 23.4988 17.8073C23.4239 17.8673 23.2292 17.8373 23.1543 17.7774V17.7924Z" fill="#1D4075"/>
<path d="M22.6303 18.3015C22.9448 18.2266 22.9148 18.8557 22.5853 18.7059C22.4955 18.661 22.4805 18.3464 22.6303 18.3015Z" fill="#1D4075"/>
<path d="M23.3337 18.3465C23.5734 18.2267 23.6483 18.691 23.4386 18.691C23.2738 18.691 23.2289 18.3915 23.3337 18.3465Z" fill="#215686"/>
<path d="M23.1541 17.7923C23.1541 17.7923 23.0792 16.7439 23.1091 16.5941L23.1541 17.7923Z" fill="#694252"/>
<path d="M22.855 17.5978L22.8999 17.2982C22.8999 17.433 22.8999 17.4779 22.855 17.5978Z" fill="#A76328"/>
<path d="M16.0551 15.0516C16.145 15.1715 16.2348 15.3212 16.3097 15.456C16.8189 16.3846 16.8189 17.2233 16.9088 18.2567C16.8938 18.4065 16.8639 19.0505 16.7291 19.1104C16.6991 19.1254 16.0102 19.1254 15.9802 19.1104C15.8454 19.0505 15.9054 18.2867 15.9054 18.1069L15.9503 15.456C16.1001 15.3362 15.8005 15.0516 16.0551 15.0516Z" fill="#E89429"/>
<path d="M17.7625 19.0504C17.6576 19.1103 17.2533 19.0804 17.1185 19.0504C17.2832 18.1069 17.3132 16.8937 16.8638 16.055C16.774 15.7255 16.5793 15.3361 16.4595 15.0067C16.6092 15.2014 17.1784 15.6357 17.3132 15.8304C18.0021 16.7889 17.9122 17.9421 17.7625 19.0504Z" fill="#E1592D"/>
<path d="M15.0071 15.1564C14.9472 15.5907 14.6626 16.0999 14.6027 16.6241C14.5278 17.4479 14.6626 18.2716 14.7974 19.0654C14.7525 19.1103 14.0036 19.1103 13.8988 19.0354C13.9437 18.7658 13.764 18.4513 13.749 18.1817C13.9138 18.1817 13.9287 18.2416 13.9437 18.0619C13.9587 17.8822 13.8838 17.4479 13.9437 17.1633C14.0785 16.4744 14.5278 15.6806 14.9921 15.1414L15.0071 15.1564Z" fill="#E66C32"/>
<path d="M15.8161 18.3015C15.8161 18.4363 15.861 19.0504 15.7412 19.0953C15.7113 19.0953 15.0523 19.0953 15.0223 19.0953C14.9475 18.5112 14.8276 17.9271 14.8276 17.343C15.1122 17.3879 14.8726 17.0285 15.0523 16.9386C15.2769 16.8338 15.4567 17.2831 15.5316 16.6391C15.5316 16.8338 15.5465 18.1368 15.5765 18.2117C15.6364 18.3465 15.7263 18.2716 15.8311 18.2866L15.8161 18.3015Z" fill="#E28332"/>
<path d="M17.8075 19.5446C16.2799 19.5446 14.6624 19.6046 13.1946 19.5896C12.6705 19.5896 12.1612 19.5746 11.652 19.5446L11.6221 19.29H17.7327L17.8075 19.5446Z" fill="#FBCE5D"/>
<path d="M17.8075 19.5447L17.7327 19.2901H11.6221L19.7396 19.1403C19.9043 19.2302 19.9343 19.2751 19.9193 19.4698C19.8444 19.7244 18.137 19.5447 17.8225 19.5447H17.8075Z" fill="#F9DC8C"/>
<path d="M15.0068 15.0067C15.0068 15.0067 15.0068 15.1115 15.0068 15.1564C14.5425 15.6956 14.0932 16.4894 13.9584 17.1783C13.8985 17.4629 13.9883 17.8972 13.9584 18.0769C13.9284 18.2566 13.9284 18.1967 13.7637 18.1967C13.6139 16.3546 13.9883 16.1898 15.0068 15.0067Z" fill="#E28332"/>
<path d="M15.7107 15.8003C15.7557 16.6241 15.8156 17.4778 15.8156 18.3015C15.7107 18.2865 15.6209 18.3614 15.561 18.2266C15.531 18.1517 15.516 16.8487 15.516 16.654C15.516 16.1897 15.4861 15.6955 15.6658 15.2612C15.6658 15.4409 15.7107 15.6206 15.7107 15.8153V15.8003Z" fill="#F5B191"/>
<path d="M15.0066 15.0066C13.9882 16.1898 13.5988 16.3545 13.7635 18.1967C13.7785 18.4663 13.9582 18.7658 13.9133 19.0504C13.5688 18.8257 13.6138 17.0734 13.7186 16.684C13.8085 16.3096 15.0366 14.3626 15.2463 14.3626C15.4559 14.3626 15.0815 14.9317 15.0216 15.0066H15.0066Z" fill="#FAF7BD"/>
<path d="M17.7629 19.0504C17.9126 17.9421 18.0025 16.7889 17.3136 15.8304C17.1788 15.6357 16.6097 15.2014 16.4599 15.0067C16.4599 15.0067 16.4599 14.9468 16.415 14.8569C16.3401 14.7521 16.2053 14.6023 16.2352 14.4525C16.8343 15.1115 17.6431 15.8753 17.8527 16.7739C17.9426 17.1334 18.0474 18.8707 17.7479 19.0504H17.7629Z" fill="#EBC088"/>
<path d="M17.1039 19.0504C17.014 19.0354 16.9841 19.1402 16.9092 19.0803C17.059 18.0319 17.1189 17.0884 16.8643 16.055C17.3136 16.8937 17.2686 18.1068 17.1189 19.0504H17.1039Z" fill="#F3AD57"/>
<path d="M15.7108 14.7969C15.7108 14.7969 15.6509 14.8568 15.6658 14.9916C15.2914 15.381 15.2165 15.9201 15.0668 16.4144C15.0368 16.5192 15.0069 16.624 14.8721 16.5941C14.932 16.1448 15.0817 15.5906 15.2165 15.1413C15.3214 14.9466 15.576 14.8268 15.561 14.4973C15.7707 14.5722 15.6958 14.6022 15.7108 14.7969Z" fill="#FBCE5D"/>
<path d="M15.2165 15.1564C15.0817 15.5908 14.917 16.1449 14.872 16.6092C14.8421 16.8338 14.8271 17.1334 14.8271 17.358C14.8271 17.9421 14.9469 18.5262 15.0218 19.1103C14.7522 19.0205 14.7073 17.2382 14.7223 16.9387C14.7672 16.3097 14.9469 15.6507 15.2165 15.1714V15.1564Z" fill="#FAF7BD"/>
<path d="M16.9086 18.2417C16.8188 17.2083 16.8188 16.3696 16.3096 15.441L16.5043 15.3961C16.8637 16.2798 17.0135 17.2832 16.9086 18.2417Z" fill="#F9D59C"/>
<path d="M15.9654 15.4559L15.9204 18.1068C15.9054 17.5227 15.9204 16.9386 15.9204 16.3545C15.9204 16.055 15.8755 15.7555 15.8755 15.4559L15.9504 15.3062L15.9803 15.4559H15.9654Z" fill="#E6DFB0"/>
<path d="M13.4648 19.0954C13.7494 18.7808 13.4348 18.3166 13.4199 17.9272C13.3749 17.2083 13.4348 16.729 13.7643 16.1C13.4498 17.0435 13.3899 18.0769 13.7643 19.0205C13.6895 19.1403 13.5696 19.0804 13.4648 19.0954Z" fill="#E38357"/>
<path d="M16.5047 15.3961L16.31 15.441C16.2351 15.3062 16.1453 15.1565 16.0554 15.0366C15.9955 14.9618 15.9056 14.812 15.8008 14.782C15.8158 14.5724 15.7708 14.5274 16.0254 14.4376C16.1602 14.7671 16.3699 15.0666 16.5047 15.3811V15.3961Z" fill="#E6DFB0"/>
<path d="M18.1073 19.0503C18.0025 19.0503 17.9875 19.1552 17.9126 19.0204C18.0923 18.3464 18.1672 17.6575 18.0624 16.9536C18.272 17.6724 18.2421 18.3015 18.1073 19.0503Z" fill="#F3AD57"/>
<path d="M15.8158 14.797C15.8008 14.9917 15.8607 15.2313 15.8607 15.441C15.8607 15.7405 15.9056 16.04 15.9056 16.3396C15.666 16.4744 15.9506 15.7705 15.7109 15.7854C15.7109 15.6057 15.681 15.411 15.666 15.2313C15.666 15.1564 15.666 15.0665 15.666 14.9767C15.666 14.8419 15.7109 14.782 15.7109 14.782C15.7409 14.782 15.7858 14.782 15.8158 14.782V14.797Z" fill="#8A322B"/>
<path d="M21.6566 23.139C21.6865 23.4685 21.7015 24.1575 21.5518 24.3372C21.5518 24.0826 21.5518 23.843 21.5518 23.5883C21.5518 23.4386 21.5518 23.2888 21.5518 23.139H21.6566Z" fill="#AF8546"/>
<path d="M15.5608 14.4974C15.5758 14.8418 15.3211 14.9467 15.2163 15.1414C15.2912 14.9167 15.3211 14.6771 15.411 14.4674C15.426 14.4524 15.5458 14.4824 15.5608 14.4974Z" fill="#F9F9E6"/>
<path d="M10.6186 21.5515H10.5137C10.5137 21.5515 10.334 21.4167 10.4089 21.252C10.6335 21.2969 10.7533 21.1771 10.6036 21.5515H10.6186Z" fill="#DA362A"/>
<path d="M16.4594 15.0067C16.4594 15.0067 16.3695 14.9618 16.4144 14.8569C16.4743 14.9468 16.4594 15.0067 16.4594 15.0067Z" fill="#E1592D"/>
<path d="M16.0558 15.0516C15.8012 15.0516 16.1008 15.3361 15.951 15.456L15.921 15.3062L15.8462 15.456C15.8462 15.2313 15.7863 15.0067 15.8012 14.812C15.8911 14.8419 15.9959 14.9917 16.0558 15.0666V15.0516Z" fill="#F7B620"/>
<path d="M15.6657 15.2463C15.486 15.6806 15.5159 16.1749 15.5159 16.6392C15.456 17.2832 15.2613 16.8339 15.0367 16.9387C14.8569 17.0286 15.0966 17.373 14.812 17.3431C14.812 17.1184 14.842 16.8189 14.8569 16.5942C15.0067 16.6242 15.0217 16.5193 15.0516 16.4145C15.2014 15.9203 15.2763 15.3811 15.6507 14.9917C15.6507 15.0666 15.6507 15.1564 15.6507 15.2463H15.6657Z" fill="#E89429"/>
<path d="M15.6814 10.9628C15.7712 11.1275 15.4867 11.2773 15.4567 11.487C15.3219 12.2957 15.9809 12.8648 16.7597 12.6402C15.4567 13.8234 14.1088 11.6966 15.6814 10.9628Z" fill="#FCE624"/>
<path d="M15.2919 11.502C15.202 12.0112 15.2919 12.3257 15.6364 12.7001C15.202 12.4904 15.0373 11.8914 15.2919 11.502Z" fill="#FAF38B"/>
<path d="M15.6806 13.1046C15.9652 13.0447 15.8903 13.5689 15.9053 13.6288C15.9502 13.7486 16.1599 13.9134 16.1599 14.0781C16.1449 14.5574 15.1564 14.6472 15.411 13.8235C15.441 13.7486 15.6057 13.6887 15.6057 13.6737C15.6057 13.6438 15.3811 13.1645 15.6806 13.1046Z" fill="#FAF838"/>
<path d="M15.8303 13.8534C16.0549 13.8534 15.9052 14.1679 15.8303 14.1529C15.7554 14.138 15.6356 13.8534 15.8303 13.8534Z" fill="white"/>
<path d="M9.6752 12.3107C9.70516 12.0861 9.72013 11.2773 9.6752 11.0826C9.6752 11.0077 9.6153 10.8879 9.55539 10.9029C9.46553 10.843 9.49548 12.9098 9.28581 12.2808C9.2259 12.116 9.4206 10.813 9.10608 10.9628C8.94133 11.0377 9.10608 12.1609 8.98627 12.3556C8.65677 12.2209 8.95631 11.0826 8.80654 10.9628C8.46207 10.6782 8.68673 12.1759 8.47705 12.3556L8.507 10.7531L9.78004 10.7831C9.72014 11.2324 9.89986 11.8165 9.82497 12.2358C9.81 12.3407 9.76507 12.3856 9.6752 12.3107Z" fill="#FAF38B"/>
<path d="M9.07583 12.4007C9.18066 12.4007 9.55509 12.4007 9.62997 12.4007C9.71983 12.4007 10.0793 12.4456 10.1092 12.4456C10.244 12.4906 10.244 12.7452 10.1092 12.7901C10.0194 12.82 8.34196 12.82 8.26707 12.7901C7.95256 12.6703 8.16223 12.5055 8.38689 12.4456C8.58159 12.4007 8.88113 12.4007 9.0908 12.4007H9.07583Z" fill="#FCDD63"/>
<path d="M9.67511 12.3109C9.67511 12.3109 9.6152 12.3708 9.63018 12.4157C9.55529 12.4157 9.18087 12.4157 9.07603 12.4157C9.0311 12.4157 9.01612 12.3858 8.97119 12.3708C9.09101 12.1761 8.94124 11.0528 9.09101 10.9779C9.40552 10.8282 9.21082 12.1461 9.27073 12.2959C9.49538 12.9249 9.45045 10.8731 9.54031 10.918C9.60022 10.9031 9.64515 11.0229 9.66013 11.0978C9.70506 11.2925 9.69008 12.1012 9.66013 12.3259L9.67511 12.3109Z" fill="#324066"/>
<path d="M8.97164 12.3557C8.97164 12.3557 9.03154 12.4006 9.07647 12.4006C8.88177 12.4006 8.56726 12.4006 8.37256 12.4455C8.37256 12.4006 8.43247 12.3856 8.4774 12.3407C8.68708 12.161 8.46242 10.6633 8.80689 10.9478C8.95666 11.0676 8.65712 12.2059 8.98661 12.3407L8.97164 12.3557Z" fill="#1D4075"/>
<path d="M8.41751 13.509C8.41751 14.138 8.34263 14.8119 8.37258 15.426C8.37258 15.5159 8.32765 15.6656 8.47742 15.6507C8.47742 15.6806 8.47742 15.7106 8.47742 15.7555C8.28272 15.7555 8.38756 16.1149 8.43249 16.2497V16.2947V12.8949V13.494L8.41751 13.509Z" fill="#FAF38B"/>
<path d="M8.4771 15.7555C8.4771 15.9052 8.52203 16.1299 8.43217 16.2497C8.40221 16.0999 8.29738 15.7405 8.4771 15.7555Z" fill="#BC8624"/>
<path d="M10.1241 16.9987V20.5182L11.8016 20.5931C11.8016 20.5931 11.8165 20.3685 11.8315 20.2936H11.9363C11.9363 20.2936 11.9064 20.5632 11.9663 20.5931C12.6403 20.5931 13.3142 20.6231 13.9882 20.638V20.683C12.9548 20.683 11.9214 20.653 10.888 20.683C10.6184 20.683 10.3937 20.698 10.1391 20.7279C9.94442 20.7429 9.74972 20.8178 9.54004 20.7728C9.54004 20.7579 9.54004 20.7429 9.54004 20.7279C9.79465 20.8028 9.8246 20.638 9.83958 20.6231C9.83958 20.6231 9.98935 20.7429 10.0343 20.5931C10.2589 19.9192 9.86953 17.7475 10.0343 16.9238L10.1391 16.9687L10.1241 16.9987Z" fill="#573417"/>
<path d="M8.9264 9.31532C8.50705 9.59988 8.40221 10.0492 8.58193 10.5135C8.56696 10.5284 8.38723 10.4536 8.43216 10.6183C8.37226 10.6183 8.35728 10.5434 8.2824 10.5734C8.2824 10.5284 8.37226 10.3787 8.17756 10.3188C8.1476 9.94435 8.25244 9.40518 8.7317 9.27039L8.9264 9.31532Z" fill="#A41E20"/>
<path d="M9.97472 14.4076C9.9897 15.0366 9.95975 15.6506 9.97472 16.2797L9.82495 16.2347C9.82495 16.2347 9.82495 16.085 9.82495 16.0101C9.795 15.7405 9.82496 14.5124 9.78002 14.3926C9.76505 14.3327 9.66021 14.2877 9.6003 14.3177C9.43556 14.3776 9.58532 16.04 9.48048 16.3096C9.36067 16.3546 9.34569 16.2647 9.33072 16.2647C9.33072 16.0101 9.39062 14.3926 9.2109 14.3177C9.03118 14.2428 9.00122 14.6172 8.98625 14.7371C8.92634 15.2013 9.03118 15.7854 8.98625 16.2647C8.91136 16.2647 8.88141 16.2647 8.79155 16.2647C8.70168 15.8903 8.91136 14.6622 8.79155 14.3926C8.50698 13.6887 8.49201 15.5907 8.49201 15.6656C8.34224 15.6806 8.40215 15.5308 8.38717 15.441C8.37219 14.8269 8.4321 14.153 8.4321 13.5239C8.46205 13.5389 8.58187 13.479 8.58187 13.479C8.58187 13.7036 8.83648 13.6737 8.83648 13.479C8.88141 13.5089 9.24086 13.6288 9.28579 13.5838C9.28579 13.5838 9.28579 13.5239 9.33072 13.5389C9.42058 13.7186 9.54039 13.6138 9.66021 13.7336C9.80998 13.7336 9.66021 13.6587 9.69016 13.6288C9.73509 13.5539 9.88486 13.5239 9.73509 13.3292C10.1095 12.8799 9.48049 13.1495 9.43555 12.9248C9.52542 12.9248 9.89984 12.8949 9.92979 12.9548C9.92979 13.449 9.95975 13.9433 9.97472 14.4225V14.4076Z" fill="#F7B620"/>
<path d="M7.87791 16.5942L10.3192 16.4444C10.4689 16.6391 10.424 16.7589 10.1993 16.8488C9.92975 16.9536 8.41708 16.684 7.99773 16.8488C7.93782 16.7889 7.86294 16.684 7.87791 16.5942Z" fill="#F7B620"/>
<path d="M9.42045 12.9099C9.46538 13.1346 10.0944 12.865 9.71999 13.3143C9.70501 13.3293 9.24072 13.4042 9.67505 13.6138C9.66008 13.6438 9.79487 13.7187 9.6451 13.7187C9.52529 13.5839 9.40547 13.6887 9.31561 13.524C9.30063 13.479 9.33059 13.3293 9.31561 13.2993C9.12091 12.9998 8.8663 13.509 9.27068 13.5689C9.22575 13.6138 8.8663 13.494 8.82137 13.4641C8.82137 13.4641 8.85132 13.2993 8.79142 13.2694C8.55178 13.1196 8.58174 13.4491 8.56676 13.4641C8.56676 13.4641 8.44695 13.524 8.41699 13.509V12.9099C8.74648 12.9099 9.09095 12.8949 9.42045 12.9099Z" fill="#FBCE5D"/>
<path d="M8.7766 16.2497C8.7766 16.2497 8.61185 16.3246 8.47706 16.2947C8.46208 16.2947 8.44711 16.2947 8.43213 16.2947V16.2497C8.52199 16.1299 8.47706 15.9053 8.47706 15.7555C8.47706 15.7255 8.47706 15.6956 8.47706 15.6507C8.47706 15.5758 8.47706 13.6737 8.7766 14.3776C8.89641 14.6472 8.68674 15.8753 8.7766 16.2497Z" fill="#1D4075"/>
<path d="M9.46581 16.3546C9.60061 16.3546 9.7354 16.3996 9.81028 16.3996C9.97503 16.3996 10.1398 16.3996 10.3045 16.3996V16.4445L7.86328 16.5943C7.86328 16.5943 7.93817 16.4595 7.93817 16.3996C8.11789 16.4445 8.29761 16.3696 8.46236 16.3546C8.77687 16.3247 9.1513 16.3546 9.46581 16.3546Z" fill="#FCDD63"/>
<path d="M8.97162 16.2497C9.09143 16.2497 9.21125 16.2497 9.31609 16.2497C9.31609 16.2497 9.34604 16.3396 9.46586 16.2946V16.3396C9.15134 16.3396 8.77692 16.3096 8.4624 16.3396V16.2946C8.59719 16.3246 8.73199 16.2497 8.76194 16.2497C8.8518 16.2497 8.88176 16.2497 8.95664 16.2497H8.97162Z" fill="#372429"/>
<path d="M9.91455 9.70482C10.0943 9.94445 10.0793 9.98938 10.0643 10.3039C9.83967 10.3488 9.77976 10.4087 9.76478 10.6034C9.33045 10.5735 8.83621 10.6484 8.41686 10.6034C8.37193 10.4537 8.55165 10.5285 8.56663 10.4986C8.65649 10.4087 8.46179 10.0193 8.7164 9.64491C8.65649 9.74975 8.61156 10.4087 8.7164 10.4686C9.37538 10.873 9.1058 9.65989 9.19566 9.3903C9.31548 9.54007 9.15073 10.5585 9.45027 10.4387C9.6899 10.3488 9.39036 9.43523 9.22561 9.28546C9.27055 9.28546 9.28552 9.21058 9.34543 9.24053C9.37538 9.24053 9.89957 9.65989 9.91455 9.68984V9.70482Z" fill="#9E4428"/>
<path d="M8.41681 10.6035C8.83616 10.6484 9.3304 10.5735 9.76473 10.6035C9.76473 10.6035 10.0044 10.6634 9.79469 10.7083C9.7198 10.7083 8.31197 10.7382 8.25206 10.7083C8.17718 10.6634 8.28202 10.5885 8.28202 10.5585C8.3569 10.5286 8.37188 10.6035 8.43179 10.6035H8.41681Z" fill="#E1DA8A"/>
<path d="M9.22611 9.31537C9.39086 9.46514 9.69039 10.3638 9.45076 10.4686C9.1662 10.5884 9.31597 9.56998 9.19616 9.42021C9.10629 9.68979 9.37588 10.8879 8.71689 10.4985C8.61206 10.4386 8.65699 9.77965 8.71689 9.67481C8.71689 9.67481 8.80676 9.61491 8.82173 9.62988L8.79178 10.4836C8.88164 10.3338 8.9715 9.71975 8.82173 9.62988L8.79178 9.52505C8.71689 9.555 8.73187 9.65984 8.71689 9.67481C8.46229 10.0492 8.65699 10.4386 8.56712 10.5285C8.3874 10.0642 8.50722 9.61491 8.91159 9.33035C8.94155 9.33035 9.19616 9.33035 9.21113 9.33035L9.22611 9.31537Z" fill="#E28332"/>
<path d="M9.59999 10.1092C9.73478 10.1092 9.67487 10.3788 9.64492 10.4537C9.51012 10.4537 9.57003 10.1841 9.59999 10.1092Z" fill="#E28332"/>
<path d="M9.82494 15.9951V16.3994C9.75005 16.3994 9.61526 16.3545 9.48047 16.3545V16.3096C9.58531 16.04 9.45052 14.3775 9.60029 14.3176C9.66019 14.2877 9.75005 14.3326 9.78001 14.3925C9.82494 14.5123 9.80996 15.7404 9.82494 16.01V15.9951Z" fill="#1D4075"/>
<path d="M10.0194 16.9537C9.85464 17.7774 10.244 19.9491 10.0194 20.623C9.97446 20.7578 9.82469 20.638 9.82469 20.653C9.92953 19.7244 9.46524 19.6645 9.52515 20.653C9.42031 20.7279 9.42031 20.653 9.33045 20.6081C9.42031 20.3385 9.19566 19.6645 9.03091 20.2037C8.82123 19.9341 8.52169 19.6795 8.3869 19.35C8.49174 19.3799 8.47676 19.3051 8.49174 19.3051C9.1657 19.335 8.49174 18.7359 8.49174 19.2002C8.25211 19.0654 8.31202 18.3016 8.34197 18.032C8.34197 17.9871 8.3869 17.6276 8.49174 17.6576C8.50672 17.8074 8.46179 18.5862 8.49174 18.6311C8.52169 18.676 8.76132 18.676 8.79128 18.6311C8.83621 18.5712 8.88114 16.9986 8.49174 17.403C8.49174 17.403 8.34197 17.4479 8.29704 17.2532C8.29704 17.1783 8.26709 16.9387 8.32699 16.9088L10.0493 16.9537H10.0194Z" fill="#F7B620"/>
<path d="M8.4776 17.403C8.4776 17.403 8.4776 17.5827 8.4776 17.6576C8.37276 17.6277 8.32783 17.9871 8.32783 18.032C8.29788 18.3016 8.23797 19.0654 8.4776 19.2002V19.3051C8.4776 19.3051 8.4776 19.38 8.37276 19.35C8.14811 18.8258 8.17806 17.8523 8.26792 17.2532C8.31285 17.4479 8.46262 17.388 8.46262 17.403H8.4776Z" fill="#FCDD63"/>
<path d="M9.82443 20.6528C9.82443 20.6528 9.7795 20.8326 9.52489 20.7577C9.52489 20.7277 9.52489 20.6978 9.52489 20.6528C9.46498 19.6644 9.92927 19.7243 9.82443 20.6528Z" fill="#1D4075"/>
<path d="M9.31516 20.5929C9.06056 20.4731 9.15042 20.3683 9.01562 20.1886C9.18037 19.6344 9.40502 20.3084 9.31516 20.5929Z" fill="#1D4075"/>
<path d="M9.6007 17.343C9.6007 17.343 9.70554 17.343 9.75047 17.343C9.85531 17.4029 9.85531 18.601 9.7954 18.6459C9.78043 18.6459 9.49586 18.646 9.46591 18.616C9.43596 18.5711 9.52582 17.3729 9.58573 17.343H9.6007Z" fill="#1D4075"/>
<path d="M8.47734 17.6426C8.47734 17.6426 8.49232 17.4479 8.47734 17.388C8.86674 16.9836 8.82181 18.5562 8.77688 18.6161C8.74693 18.661 8.5073 18.661 8.47734 18.6161C8.44739 18.5712 8.49232 17.7924 8.47734 17.6426Z" fill="#1D4075"/>
<path d="M9.15133 17.2982C9.31608 17.2982 9.43589 18.9606 9.00156 18.6461C8.94165 18.6012 8.92668 17.2832 9.15133 17.2982Z" fill="#1D4075"/>
<path d="M8.47705 19.29V19.1852C8.47705 18.7059 9.15101 19.32 8.47705 19.29Z" fill="#215686"/>
<path d="M9.60024 19.0505C9.83987 18.9606 9.80991 19.3051 9.70508 19.35C9.55531 19.3949 9.46545 19.0954 9.60024 19.0505Z" fill="#1D4075"/>
<path d="M9.09141 18.9904C9.2262 18.8856 9.43588 19.1702 9.24118 19.2451C9.0315 19.3199 9.01652 19.0504 9.09141 18.9904Z" fill="#215686"/>
<path d="M9.31564 16.2497C9.19582 16.2497 9.07601 16.2497 8.97117 16.2497C9.0161 15.7705 8.91126 15.1864 8.97117 14.7221C8.98615 14.6023 9.0161 14.2278 9.19582 14.3027C9.37555 14.3776 9.30066 15.9951 9.31564 16.2497Z" fill="#1D4075"/>
<path d="M8.82169 13.449C8.82169 13.6437 8.58206 13.6737 8.56708 13.449C8.56708 13.4191 8.5521 13.0896 8.79173 13.2543C8.85164 13.2843 8.79173 13.449 8.82169 13.449Z" fill="#1D4075"/>
<path d="M9.31574 13.5088L9.27081 13.5538C8.88141 13.4939 9.13602 12.9846 9.31574 13.2842C9.33072 13.3141 9.30077 13.4639 9.31574 13.5088Z" fill="#1D4075"/>
<path d="M9.71976 13.2993C9.85455 13.494 9.71976 13.5239 9.67483 13.5988C9.2405 13.3891 9.70478 13.3142 9.71976 13.2993Z" fill="#215686"/>
<path d="M8.82146 9.61499C8.97123 9.70485 8.88137 10.3189 8.7915 10.4687L8.82146 9.61499Z" fill="#C53D1E"/>
<path d="M8.82163 9.61491C8.82163 9.61491 8.73177 9.65984 8.7168 9.65984C8.7168 9.64486 8.7168 9.54002 8.79168 9.51007L8.82163 9.61491Z" fill="#851D0F"/>
<path d="M9.45112 8.57841C9.45112 8.80599 9.26663 8.99049 9.03904 8.99049C8.81145 8.99049 8.62695 8.80599 8.62695 8.57841C8.62695 8.35082 8.81145 8.16632 9.03904 8.16632C9.26663 8.16632 9.45112 8.35082 9.45112 8.57841Z" fill="#FAF838"/>
<path fill-rule="evenodd" clip-rule="evenodd" d="M9.03904 8.84072C9.18391 8.84072 9.30135 8.72328 9.30135 8.57841C9.30135 8.43353 9.18391 8.31609 9.03904 8.31609C8.89417 8.31609 8.77672 8.43353 8.77672 8.57841C8.77672 8.72328 8.89417 8.84072 9.03904 8.84072ZM9.03904 8.99049C9.26663 8.99049 9.45112 8.80599 9.45112 8.57841C9.45112 8.35082 9.26663 8.16632 9.03904 8.16632C8.81145 8.16632 8.62695 8.35082 8.62695 8.57841C8.62695 8.80599 8.81145 8.99049 9.03904 8.99049Z" fill="#6E4717"/>
<defs>
<linearGradient id="paint0_linear_6413_76998" x1="13.569" y1="9.80963" x2="15.4262" y2="22.2405" gradientUnits="userSpaceOnUse">
<stop stop-color="#E39724"/>
<stop offset="1" stop-color="#FDC968"/>
</linearGradient>
</defs>
</svg>
