<svg width="110" height="100" viewBox="0 0 54 34" fill="none" xmlns="http://www.w3.org/2000/svg">
<path d="M7.77105 13.0836C8.00716 13.1186 8.24982 13.1382 8.47936 13.1973C8.57555 13.3044 8.45968 13.4137 8.45094 13.4814L6.63427 13.4246C6.6299 13.2781 6.63427 13.1688 6.63427 13.0267C7.0081 13.0267 7.39941 13.0289 7.76887 13.0836H7.77105Z" fill="#A1D7CB"/>
<path d="M49.7639 6.38739C49.9279 7.62037 50.1618 8.86427 50.2755 10.1038C50.3782 11.2362 50.2798 12.5107 50.3892 13.5929H50.3323C50.3411 13.3174 50.2361 11.116 50.1618 11.0111C50.1181 10.9498 49.4404 10.9848 49.3966 11.0395C49.2589 11.2056 49.6043 14.2749 49.3398 14.7275C49.1387 14.7122 48.9507 14.64 48.743 14.6706C48.5703 11.7718 48.2774 8.90144 47.6084 6.07259L47.8358 5.93049C48.0216 5.92393 48.931 5.84304 48.9988 5.87365C49.1802 5.95235 48.9878 6.36116 49.1693 6.44204C49.3158 6.50544 49.6481 6.3852 49.7661 6.3852L49.7639 6.38739Z" fill="#255275"/>
<path d="M47.8331 5.93268L47.6058 6.07478C48.2747 8.90144 48.5698 11.7718 48.7404 14.6728C48.7338 14.6728 48.76 14.7799 48.7119 14.7865C48.3622 14.8324 47.8615 14.7952 47.4921 14.8433C47.0614 14.4826 47.0221 11.5204 46.7554 10.8711C46.8428 10.8449 46.963 10.9214 47.0396 10.7859C47.1336 10.5476 46.9346 10.2306 46.9259 10.0776C46.9171 9.92455 46.8734 9.76933 46.869 9.6797C46.8581 9.4283 46.9412 9.08945 46.9259 8.80088C46.8931 8.20625 46.6286 6.67815 46.7554 6.19064C46.7969 6.02887 46.9477 6.17971 46.9259 5.9917C47.197 5.96328 47.5577 5.94361 47.8331 5.93486V5.93268Z" fill="#18436A"/>
<path d="M50.8424 7.52206C50.8555 7.64011 50.8861 7.74504 50.8992 7.8631C51.0829 9.43055 51.3715 11.1117 51.4108 12.6857C51.4152 12.8562 51.4392 13.6935 51.3824 13.7635C51.3365 13.8203 50.438 14.0717 50.3899 13.5929C50.2828 12.5108 50.379 11.2341 50.2762 10.1039C50.1647 8.86216 49.9286 7.62043 49.7646 6.38746C49.9177 6.38746 50.8053 6.36341 50.8424 6.41588C50.8708 6.77222 50.8053 7.17446 50.8424 7.52206Z" fill="#255275"/>
<path d="M35.3497 7.9177C35.3563 9.27092 35.647 14.2728 36.0865 15.3527C35.9138 15.3986 35.3978 15.462 35.2645 15.4096C34.9344 15.2806 35.1289 14.0629 34.8382 13.8202C34.777 12.0626 34.4818 10.3093 34.4971 8.54294C34.5037 7.77123 34.3419 7.64444 35.3476 7.9177H35.3497Z" fill="#255275"/>
<path d="M34.4984 8.54304C34.4831 10.3094 34.7782 12.0627 34.8394 13.8204C34.8481 14.0761 35.0624 14.6358 34.5836 14.6139C34.0721 14.5921 33.8753 12.6792 33.8185 12.231C33.7901 12.0146 33.7835 11.82 33.7616 11.6058C33.7463 11.444 33.6567 11.2167 33.648 11.0943C33.6436 11.033 33.7616 10.974 33.7616 10.9522C33.7376 10.5171 33.5321 9.05241 33.648 8.73979C33.7245 8.52992 34.3147 8.52992 34.4984 8.54086V8.54304Z" fill="#255275"/>
<path d="M46.9261 5.98962C46.9502 6.17763 46.7971 6.02679 46.7556 6.18856C46.6288 6.67607 46.8933 8.20417 46.9261 8.7988C46.9414 9.08737 46.8583 9.42622 46.8693 9.67762C46.5413 9.8066 46.0495 9.65576 45.7915 9.67762L45.962 6.13172C46.0101 6.02242 46.76 6.00711 46.9261 5.98962Z" fill="#255275"/>
<path d="M50.3301 13.593C50.3235 13.7876 50.271 14.662 50.1311 14.7276L47.5209 14.955C47.4684 14.9353 47.5012 14.85 47.4925 14.8413C47.8619 14.7932 48.3625 14.8304 48.7123 14.7845C48.7604 14.7779 48.7342 14.6708 48.7407 14.6708C48.9462 14.6402 49.1364 14.7123 49.3376 14.7276C49.6021 14.2751 49.2567 11.2036 49.3944 11.0396C49.4403 10.985 50.1158 10.95 50.1595 11.0112C50.2339 11.1161 50.3388 13.3176 50.3301 13.593Z" fill="#255275"/>
<path d="M51.8637 8.82715C52.0342 9.48955 52.4736 8.91678 52.913 9.11134C53.0551 9.17474 52.9852 9.49392 52.9983 9.6229C52.889 9.4021 52.2113 9.42396 52.0626 9.50922C51.9664 9.56387 52.008 10.1345 52.1479 10.1891C51.9861 10.1607 52.0255 10.3487 52.0342 10.4449C52.0823 10.9652 52.3053 11.9489 52.1479 12.4321C52.0451 12.7491 51.6932 13.077 51.468 12.6879C51.4221 11.4133 51.2887 10.1476 51.127 8.88617L51.8637 8.82933V8.82715Z" fill="#255275"/>
<path d="M46.9271 10.0754C46.9358 10.2284 47.1348 10.5476 47.0407 10.7837C46.9664 10.9192 46.844 10.8427 46.7566 10.8689C46.4265 10.9717 45.5935 10.9892 45.2241 10.9826C45.1344 10.9826 44.9858 10.9236 44.7125 10.9258C44.5661 10.9258 44.2797 10.9848 44.3146 10.8121C44.3212 10.7378 44.2644 10.4426 44.2578 10.3005L46.9249 10.0732L46.9271 10.0754Z" fill="#0D143B"/>
<path d="M51.8632 8.82712L51.1265 8.88396C51.0893 8.58664 51.1265 8.07072 50.8991 7.86303C50.886 7.74498 50.8554 7.64005 50.8423 7.522C51.0718 7.51544 50.8357 7.27059 51.0981 7.18096C51.1549 7.16129 51.6031 7.17222 51.638 7.20938C51.6927 7.26841 51.8129 8.62599 51.8654 8.82712H51.8632Z" fill="#407290"/>
<path d="M46.8696 9.6775C46.874 9.76713 46.9177 9.92891 46.9265 10.0754L44.2594 10.3027C44.255 10.224 44.126 10.0317 44.231 9.90486C44.5239 9.9136 44.8234 9.89393 45.1098 9.84802C45.3415 9.81304 45.5361 9.81304 45.7634 9.79118C45.8115 9.78681 45.7853 9.6775 45.7919 9.6775C46.0498 9.65564 46.5417 9.80648 46.8696 9.6775Z" fill="#7E899D"/>
<path d="M40.1737 10.8121C40.3333 10.8187 40.4732 10.8405 40.6284 10.8689C40.6852 11.0395 40.729 11.2122 40.7989 11.3805C40.565 11.457 40.307 11.4964 40.0622 11.4942C39.9529 11.4942 39.5069 11.516 39.4654 11.4942C39.3495 11.4351 39.3823 10.9979 39.3801 10.8689C39.6446 10.8296 39.9048 10.799 40.1737 10.8121Z" fill="#0D1C39"/>
<path d="M52.9981 9.6207C53.0134 9.7781 53.1205 9.95736 53.0265 10.1323C52.8473 10.0579 52.2417 10.2263 52.1477 10.1891C52.0078 10.1344 51.9663 9.56386 52.0625 9.5092C52.2111 9.42395 52.891 9.40208 52.9981 9.62288V9.6207Z" fill="#152D5A"/>
<path d="M33.7618 11.6078C33.7837 11.8199 33.7902 12.0167 33.8186 12.2331C33.1038 12.3468 32.9027 12.4145 32.9114 11.6647L33.7618 11.6078Z" fill="#4A4D66"/>
<path d="M51.1263 8.88396C51.2859 10.1454 51.4214 11.4111 51.4673 12.6856H51.4105C51.3733 11.1116 51.0826 9.4283 50.8989 7.86304C51.1285 8.07072 51.0891 8.58883 51.1263 8.88396Z" fill="#628293"/>
<path d="M33.6479 11.0964C33.6566 11.2166 33.7462 11.4462 33.7615 11.6079L32.9111 11.6648C32.9177 10.9849 32.9549 11.1095 33.6479 11.0964Z" fill="#0D143B"/>
<path d="M40.2302 10.3596C40.2061 10.506 40.1843 10.6634 40.1733 10.8143C39.9022 10.8012 39.6443 10.8318 39.3798 10.8711C39.3798 10.7421 39.2508 10.5716 39.3513 10.4164L40.2302 10.3596Z" fill="#99A8B2"/>
<path d="M40.6261 10.869C40.4709 10.8406 40.331 10.8188 40.1714 10.8122C40.1823 10.6636 40.2042 10.5061 40.2282 10.3575C40.2282 10.3531 40.2741 10.3772 40.2851 10.3007C40.6939 10.2832 40.5671 10.692 40.6261 10.869Z" fill="#94747D"/>
<path d="M36.0883 15.3526C35.6467 14.2749 35.3581 9.27302 35.3516 7.91762C35.3516 7.5897 35.3669 7.25522 35.3516 6.92512L35.5505 6.78302L38.8997 6.55566C39.3981 9.49819 39.2625 12.5172 39.4965 15.4926C39.4287 15.6303 36.6086 15.9123 36.4599 15.862C36.4293 15.8511 36.1036 15.3811 36.0905 15.3505L36.0883 15.3526Z" fill="#255275"/>
<path d="M37.6484 12.1173C37.8474 12.2266 37.8736 12.5851 37.9042 12.771C37.9501 13.0377 38.0791 15.0489 37.9895 15.1254C37.8845 15.1604 37.8124 15.0555 37.7905 14.9833C37.6003 14.3734 37.8211 12.83 37.6484 12.1173Z" fill="#255275"/>
<path d="M16.6237 12.3446C16.6127 12.7906 16.5406 13.23 16.5668 13.6781C16.9079 13.6759 17.2205 13.4923 17.3036 13.9339C17.262 14.2115 17.227 14.5067 17.1899 14.7843L16.8488 17.4514C16.8029 17.4667 16.5231 17.9761 16.0553 17.5082C16.134 17.0207 15.8651 16.7606 15.3754 16.7715C15.4016 16.6097 15.4104 16.4261 15.4322 16.2599C15.5262 15.5298 15.5109 13.4967 15.6596 13.0245C15.6705 12.9917 16.0116 12.7643 16.0575 12.4845C16.1187 12.1019 15.7514 10.8099 15.2355 11.4352L15.065 10.9804C14.9994 11.2384 15.0562 11.5139 15.0365 11.774C15.0169 12.0342 14.9885 12.2571 14.9797 12.5107C14.9753 12.6419 15.0387 12.7031 15.0365 12.7381C14.995 13.8727 14.8638 15.0095 14.8092 16.1419C14.5381 16.1441 14.2889 16.0676 14.0156 16.0851C14.1009 14.9898 14.2036 13.8946 14.243 12.7927C14.2692 12.0866 14.3763 11.3805 14.1861 10.6941C14.3916 10.67 16.4488 10.8471 16.5406 10.9214C16.8095 11.1335 16.6324 12.0342 16.6259 12.3402L16.6237 12.3446Z" fill="#118A88"/>
<path d="M14.013 16.0895C14.2863 16.072 14.5377 16.1485 14.8066 16.1464C14.8066 16.1835 14.8066 16.2229 14.8066 16.26C14.7978 16.4459 14.6645 17.6701 14.7213 17.7357C14.7366 17.7532 15.1039 17.8493 15.1476 17.8209C15.2875 17.7269 15.3444 16.9596 15.375 16.7716C15.8668 16.7607 16.1357 17.023 16.0548 17.5083C16.0242 17.7007 16.0417 17.8953 15.7991 17.963C15.692 17.9914 13.6851 17.8406 13.5867 17.7925C13.2435 17.6242 13.4381 16.577 13.4446 16.2032C13.6676 16.2753 13.8425 16.1004 14.013 16.0895Z" fill="#086F6C"/>
<path d="M18.098 12.6856C18.1024 12.8343 18.1024 12.9895 18.098 13.1404C17.2083 13.0791 17.4072 13.2344 17.3044 13.9339C17.2214 13.4923 16.9088 13.676 16.5677 13.6781C16.5415 13.23 16.6136 12.7906 16.6246 12.3446L16.8519 11.3521C17.5974 11.2494 17.3722 11.9183 17.3066 12.4299C17.5602 12.4299 17.2913 11.9926 17.5624 11.8899C17.6433 11.8593 17.8532 11.9118 17.9603 11.8899C18.1767 11.9752 18.0958 12.467 18.1024 12.6835L18.098 12.6856Z" fill="#6EC6BC"/>
<path d="M14.2398 12.7993C14.2004 13.8989 14.0999 14.9942 14.0124 16.0916C13.8441 16.1026 13.667 16.2774 13.444 16.2053C13.4528 15.7571 13.4178 15.1472 13.444 14.7297C13.4528 14.6007 13.4877 14.3121 13.5009 14.1044C13.5118 13.9361 13.5796 12.9349 13.6145 12.8846C13.632 12.8583 14.1305 12.7993 14.2398 12.7993Z" fill="#27A39B"/>
<path d="M18.7799 14.3886C18.7799 14.3886 18.8084 14.4127 18.8368 14.4454C18.6641 14.522 18.7821 14.8236 18.7799 14.8433C18.7362 15.1384 18.4105 16.6578 18.2684 16.8021C17.9733 17.1038 17.9252 16.8917 17.7568 16.7737C17.8508 15.8468 18.0651 14.9176 18.1547 13.9929C18.8084 13.9273 18.5854 14.2771 18.6094 14.3055C18.6925 14.4061 18.7734 14.382 18.7799 14.3908V14.3886Z" fill="#118A88"/>
<path d="M14.1828 10.6984C14.373 11.3849 14.2659 12.0932 14.2396 12.7971C14.1303 12.7971 13.6341 12.8561 13.6144 12.8824C13.5794 12.9326 13.5116 13.9339 13.5007 14.1022C13.1728 14.0978 12.7378 13.9776 12.423 13.9885C12.377 13.8617 12.5913 13.7218 12.5935 13.7043C12.7552 13.6737 13.3564 13.7568 13.4439 13.6759C13.5532 13.5754 13.6035 11.0701 13.927 10.7531C14.0166 10.7115 14.0866 10.7072 14.1828 10.6962V10.6984Z" fill="#6EC6BC"/>
<path d="M13.5002 14.1044C13.487 14.3099 13.4521 14.5985 13.4433 14.7297C13.1416 14.6072 12.7875 14.6903 12.4792 14.6728C12.2672 14.6619 12.0529 14.6422 11.854 14.5591C11.8955 14.452 11.8802 14.1525 11.9108 14.0476C12.0661 14.1853 12.2016 14.0563 12.3087 14.0476C12.3634 14.0432 12.3699 13.9929 12.4224 13.9908C12.7372 13.9798 13.1722 14.1001 13.5002 14.1044Z" fill="#086F6C"/>
<path d="M8.45111 13.4793C8.42706 13.652 8.35492 13.8116 8.33743 13.9908C8.10351 14.0345 7.78434 14.0061 7.54386 13.9908C7.26404 13.9733 6.98203 13.8903 6.69346 13.934L6.57978 13.9056C6.52731 13.746 6.64099 13.5405 6.63662 13.4224L8.45329 13.4793H8.45111Z" fill="#1A8172"/>
<path d="M18.78 14.3887C18.78 14.3887 18.6926 14.404 18.6095 14.3034C18.5855 14.275 18.8084 13.9274 18.1548 13.9908C18.1963 13.5667 18.1613 13.1141 18.2116 12.6857C19.3003 12.2812 18.6314 13.8356 18.78 14.3887Z" fill="#27A39B"/>
<path d="M17.7565 16.26C17.7259 16.4261 17.6866 16.6076 17.6429 16.7715C17.374 17.7903 17.5183 17.1672 16.963 17.3968C16.9149 16.9705 17.0329 16.5639 17.0767 16.1485L17.7565 16.2622V16.26Z" fill="#086F6C"/>
<path d="M18.2119 12.6857C18.1617 13.1141 18.1966 13.5667 18.1551 13.9908C18.0655 14.9155 17.8534 15.8446 17.7572 16.7715C17.7441 16.7628 17.6785 16.7759 17.6436 16.7715C17.6873 16.6076 17.7266 16.4261 17.7572 16.26C17.919 15.3899 18.0677 14.0214 18.0983 13.1382C18.1026 12.9895 18.1026 12.8343 18.0983 12.6835C18.1332 12.6791 18.1879 12.6922 18.2119 12.6835V12.6857Z" fill="#9ABBA9"/>
<path d="M17.0775 16.1463C17.0359 16.5617 16.9157 16.9705 16.9638 17.3946C16.9201 17.4121 16.8938 17.4361 16.8501 17.4514L17.1911 14.7844C17.1321 15.2325 17.1234 15.696 17.0775 16.1463Z" fill="#27A39B"/>
<path d="M18.7799 14.8404C18.7821 14.8207 18.6643 14.5197 18.8367 14.4434C18.9872 14.6157 19.2271 14.9756 18.7799 14.8404Z" fill="#086F6C"/>
<path d="M15.6587 13.0268C15.5101 13.4968 15.5276 15.5321 15.4314 16.2622H14.8062C14.8062 16.2251 14.8062 16.1857 14.8062 16.1486C14.8608 15.014 14.992 13.8772 15.0335 12.7448C15.2303 12.9 15.3789 13.088 15.6587 13.0289V13.0268Z" fill="#118A88"/>
<path d="M18.0976 13.1404C18.0692 14.0236 17.9183 15.3921 17.7565 16.2622L17.0767 16.1485C17.1226 15.6981 17.1313 15.2347 17.1903 14.7865C17.2275 14.5089 17.2625 14.2116 17.304 13.9361C17.409 13.2344 17.2078 13.0792 18.0976 13.1426V13.1404Z" fill="#118A88"/>
<path d="M15.6589 13.0267C15.3812 13.0879 15.2304 12.8977 15.0336 12.7425C15.0336 12.7075 14.9724 12.6463 14.9768 12.5152C15.1495 12.5042 15.3309 11.6844 15.0336 11.7784C15.0533 11.5183 14.9965 11.2428 15.062 10.9849L15.2326 11.4396C15.7507 10.8143 16.1158 12.1063 16.0545 12.4889C16.0108 12.7687 15.6676 12.9961 15.6567 13.0289L15.6589 13.0267Z" fill="#6EC6BC"/>
<path d="M15.4311 16.2599C15.4092 16.4261 15.4005 16.6097 15.3743 16.7715C15.3436 16.9595 15.2868 17.729 15.1469 17.8208C15.1032 17.8493 14.7359 17.7531 14.7206 17.7356C14.6638 17.67 14.7971 16.4458 14.8059 16.2599H15.4311Z" fill="#118A88"/>
<path d="M14.9766 12.5152C14.9853 12.2616 15.0137 12.0255 15.0334 11.7784C15.3307 11.6844 15.1493 12.5042 14.9766 12.5152Z" fill="#A1D7CB"/>
<path d="M5.38636 9.67764C5.46069 10.7467 5.24645 11.796 5.159 12.8563C5.08467 13.7635 5.03876 14.6708 4.98848 15.5802C4.95569 16.1726 4.93602 16.7869 4.81797 17.3684C5.15244 17.3619 5.39073 17.5237 5.61153 17.5674C5.36887 17.539 3.84076 17.5215 3.76644 17.4537C3.64839 17.3422 3.85607 16.94 3.79486 16.8569C3.76425 16.8153 3.22428 16.7957 3.11497 16.7716C3.24614 16.3388 3.09311 15.9081 3.11497 15.4665C3.1412 14.9287 3.49317 13.3066 3.34233 12.9131C3.29642 12.7972 3.39261 12.6923 3.39917 12.6289C3.56313 12.513 3.49536 12.3294 3.51285 12.1742C3.97631 12.1501 4.06375 12.1195 4.22115 12.5721C4.23208 12.3141 4.36106 11.9687 4.30641 11.7217L4.53377 9.62299C4.79392 9.62299 5.11746 9.66234 5.38417 9.67983L5.38636 9.67764Z" fill="#118A88"/>
<path d="M6.63467 13.0266C6.63467 13.1687 6.6303 13.278 6.63467 13.4245C6.63904 13.5425 6.52536 13.7458 6.57783 13.9076L6.69151 13.936C6.4095 14.3558 6.61499 14.9548 6.46415 15.4117C6.46415 15.3942 6.35484 15.1297 6.35047 15.0991C6.33954 14.9963 6.47727 14.7165 6.46415 14.7012C6.36578 14.5984 5.90888 14.7799 5.8105 14.5591L5.61156 15.8358C5.54598 15.4379 5.32081 15.6106 4.98633 15.58C5.03661 14.6706 5.08033 13.7633 5.15685 12.8561C5.46509 12.7227 5.29239 11.6515 5.3842 11.5226C5.46946 11.4001 5.95478 11.634 6.12093 11.4373C6.07939 11.7849 5.99632 12.1325 6.00725 12.4866C6.31112 11.7237 6.25647 10.7443 6.40512 9.90482C6.40512 9.89607 6.49038 9.79988 6.5188 9.79114C6.71118 9.99008 6.63467 12.5369 6.63248 13.0266H6.63467Z" fill="#118A88"/>
<path d="M2.77526 12.6857C2.74684 13.0595 2.69437 13.4443 2.66158 13.8203L2.49106 13.5645C2.43859 13.735 2.46045 14.3952 2.37738 14.4717C2.26589 14.5723 2.091 14.4062 1.95109 14.4433C1.81117 14.4805 1.79368 14.8893 1.58163 14.898C1.57944 14.5395 1.6188 13.9755 1.63847 13.5929C1.64066 13.5426 1.68219 13.1885 1.69531 13.0245C1.70624 12.8846 1.68875 12.76 1.69531 12.6835C1.71717 12.4583 1.8702 10.9696 1.92267 10.8952C1.95764 10.845 2.51511 10.7488 2.5479 10.7531C2.62223 10.7619 2.77963 10.8362 2.88894 10.8384C2.85396 11.4527 2.82116 12.0692 2.77526 12.6835V12.6857Z" fill="#6EC6BC"/>
<path d="M6.46575 15.4095C6.48105 16.0413 6.49854 17.7421 5.61534 17.565C5.39236 17.5213 5.15625 17.3595 4.82178 17.3661C4.93764 16.7845 4.9595 16.1702 4.9923 15.5778C5.32677 15.6084 5.55194 15.4357 5.61753 15.8336L5.81647 14.5569C5.91484 14.7777 6.36956 14.5962 6.47012 14.699C6.48542 14.7143 6.34551 14.9941 6.35644 15.0969C6.35863 15.1275 6.47012 15.392 6.47012 15.4095H6.46575Z" fill="#086F6C"/>
<path d="M3.6852 10.246C3.5125 10.9499 3.48189 11.9009 3.401 12.6288C3.39444 12.6922 3.29825 12.795 3.34416 12.913C3.20862 12.5611 3.13867 12.7075 2.77577 12.6857C2.82168 12.0714 2.85447 11.4571 2.88945 10.8406C2.78014 10.8406 2.62274 10.7641 2.54841 10.7553C2.40194 9.894 3.12774 10.2438 3.68301 10.2438L3.6852 10.246Z" fill="#27A39B"/>
<path d="M6.52309 9.7912C6.49686 9.79994 6.4116 9.89613 6.40941 9.90488C6.4269 9.67971 6.29792 9.90925 6.29573 9.9333C6.25201 10.4405 6.18424 10.9345 6.12521 11.4374C5.95907 11.6341 5.47375 11.4002 5.38849 11.5226C5.29667 11.6516 5.46938 12.7228 5.16113 12.8561C5.24858 11.7981 5.46282 10.7487 5.38849 9.67752C5.75357 9.70157 6.24982 9.57914 6.52309 9.7912Z" fill="#51B4B4"/>
<path d="M4.53523 9.62066L4.30787 11.7193C4.22042 11.3193 4.03679 11.4198 3.65422 11.3783C3.58863 11.4177 3.52742 12.0407 3.51212 12.1719C3.49463 12.3271 3.56458 12.5085 3.39844 12.6266C3.47932 11.8986 3.50774 10.9454 3.68263 10.2437C3.71543 10.1147 3.8925 9.81085 3.88157 9.61847C4.098 9.61847 4.31661 9.61847 4.53523 9.61847V9.62066Z" fill="#6EC6BC"/>
<path d="M2.66223 13.8203C2.63163 14.1832 2.55293 14.5286 2.54855 14.8981C2.17473 15.3724 2.73438 15.9605 1.81183 15.8053C1.57354 15.6195 1.58666 15.191 1.58447 14.8981C1.79434 14.8893 1.80746 14.4849 1.95393 14.4433C2.1004 14.4018 2.26873 14.5723 2.38022 14.4718C2.4633 14.3952 2.44143 13.735 2.4939 13.5645L2.66442 13.8203H2.66223Z" fill="#27A39B"/>
<path d="M2.55069 14.898C2.55069 15.0248 2.44138 15.2106 2.52227 15.2959C2.60753 15.3833 3.02508 15.2718 3.11908 15.4664C3.09722 15.908 3.25025 16.3387 3.11908 16.7715C1.80522 16.4808 2.64907 16.5136 2.4392 15.9495C2.38454 15.8009 2.08723 16.0217 1.81396 15.8074C2.7387 15.9605 2.17686 15.3746 2.55069 14.9002V14.898Z" fill="#035F5D"/>
<path d="M1.69766 13.0267C1.68454 13.1885 1.64301 13.5448 1.64082 13.5951C1.36537 13.6279 1.02652 13.5754 0.960938 13.254L1.24513 13.2256C1.06587 12.8343 1.46593 12.9851 1.69985 13.0267H1.69766Z" fill="#118A88"/>
<path d="M1.69839 12.6857C1.69184 12.7601 1.70933 12.8869 1.69839 13.0268C1.46448 12.9852 1.06442 12.8322 1.24368 13.2257L0.959484 13.2541C0.828316 12.6289 1.25898 12.7775 1.69621 12.6857H1.69839Z" fill="#A1D7CB"/>
<path d="M3.34354 12.9129C3.49438 13.3064 3.14242 14.9285 3.11618 15.4663C3.02437 15.2718 2.60463 15.3832 2.51937 15.2958C2.43411 15.2084 2.5456 15.0247 2.54779 14.8979C2.55216 14.5263 2.63086 14.1831 2.66147 13.8202C2.69208 13.4573 2.74673 13.0594 2.77515 12.6856C3.13804 12.7074 3.208 12.561 3.34354 12.9129Z" fill="#118A88"/>
<path d="M4.30821 11.7216C4.36287 11.9708 4.23388 12.314 4.22295 12.572C4.06555 12.1195 3.97811 12.1523 3.51465 12.1741C3.52995 12.0408 3.59116 11.4177 3.65675 11.3806C4.03713 11.4221 4.22295 11.3215 4.3104 11.7216H4.30821Z" fill="#6EC6BC"/>
<path d="M6.40911 9.90488C6.26045 10.7444 6.31511 11.7237 6.01124 12.4867C6.0003 12.1325 6.08338 11.785 6.12491 11.4374C6.18394 10.9345 6.25171 10.4405 6.29543 9.9333C6.29543 9.90925 6.4266 9.67971 6.40911 9.90488Z" fill="#6EC6BC"/>
<path d="M30.1855 7.80409C29.8291 7.88279 29.499 8.88185 29.4203 8.88185C29.4947 8.44462 29.4356 8.01177 29.3919 7.57673C29.3416 7.07173 29.3526 6.51646 29.0509 6.07267C29.0137 6.01802 28.1742 5.26818 28.1152 5.25069C28.0409 5.22883 26.8451 5.56768 26.5827 5.59173C25.4656 5.6901 23.8894 5.67917 23.1221 4.74132C22.9406 5.30097 22.2651 5.80159 22.1296 6.35906C21.994 6.91652 22.1165 7.53301 22.0727 8.09047C22.0684 8.16043 22.099 8.34188 22.0443 8.37467C21.8541 8.12326 21.7864 7.74069 21.3907 7.74943C21.3907 7.73195 21.2289 7.51552 21.2202 7.43682C21.1874 7.13076 21.1196 5.83439 21.0496 5.67699C20.9841 5.52833 19.95 4.73258 19.915 4.31503L20.6233 4.79816L21.1065 4.82658C20.6408 4.45931 20.4769 3.58267 20.8223 3.09517C20.713 3.30722 20.7807 3.89529 20.9075 4.11609C20.8988 3.73352 20.9075 3.47337 20.9928 3.09517C21.1305 2.47431 21.5044 1.96494 21.9285 1.50585L22.0421 2.29942C22.3373 1.38124 23.0784 0.8522 23.8588 0.369065C24.0184 0.533025 23.5265 1.16482 23.802 1.21947C24.0403 0.902481 26.4384 0.338459 26.4975 0.622656C26.5193 0.723218 26.1149 0.950576 26.1849 1.10579C27.0134 0.963692 27.8113 0.677309 28.5109 0.198547C28.7601 0.329715 29.0552 2.01522 29.1645 1.92996C29.4028 1.47525 29.3023 1.12984 29.2498 0.653262L30.0434 2.07206L30.4412 0.596423C30.8173 1.28943 30.8391 2.06987 30.8107 2.8372L31.237 2.41091C31.4665 2.81316 30.7233 3.60891 30.697 3.74445C30.6795 3.83189 30.8391 4.71946 30.8107 5.04957C30.7342 5.91309 30.203 6.89466 30.1855 7.8019V7.80409Z" fill="#0D143B"/>
<path d="M29.6764 14.898C29.9847 14.898 31.3073 15.3527 31.7183 15.4664C31.1258 16.8961 30.5815 18.2494 30.6405 19.8365C30.2601 20.3939 30.2164 21.522 30.2995 22.1909C30.4307 23.2447 31.3073 23.9377 31.4341 24.4601C31.4931 24.7006 31.3926 26.3424 31.3772 26.7293C31.2898 29.0139 31.1499 31.834 29.9584 33.7949C26.6858 33.8037 23.411 33.749 20.1405 33.7381V33.1697C20.1405 32.68 20.2214 31.5913 20.0837 31.1825C20.0465 30.2293 19.9941 29.2587 19.8564 28.3165C19.7339 27.4661 19.3863 26.4845 19.288 25.6778C19.2289 25.1881 19.3251 25.0526 19.3448 24.6569C19.4628 22.3418 19.653 20.0092 20.0815 17.7334C20.2979 17.1978 20.5144 16.6535 20.6499 16.0873C21.3364 15.7878 21.9944 15.5123 22.6918 15.2369C23.3061 19.2069 28.8588 18.5204 29.5015 14.9243C29.5999 14.7822 29.6065 14.8958 29.6721 14.8958L29.6764 14.898Z" fill="url(#paint0_linear_6413_63599)"/>
<path d="M30.6396 19.8365C30.7074 21.6903 31.8201 23.6207 33.4772 24.4908C33.4663 26.2418 33.3307 27.7525 33.193 29.4839C33.1187 30.4283 33.0334 31.3771 32.9656 32.3215C32.9307 32.809 32.9088 33.3074 32.9088 33.7971C31.9272 33.808 30.9413 33.7949 29.9575 33.7971C31.149 31.8361 31.2889 29.016 31.3763 26.7315C31.3916 26.3446 31.4922 24.7028 31.4332 24.4623C31.3064 23.9377 30.4275 23.2468 30.2986 22.1931C30.2155 21.5242 30.2592 20.394 30.6396 19.8387V19.8365Z" fill="#B3314A"/>
<path d="M32.6254 15.6938C31.81 16.7278 31.3465 18.2909 31.3771 19.6091C31.4186 21.4236 32.1991 22.6304 33.5895 23.695C33.5479 23.9224 33.478 24.2678 33.4758 24.4886C31.8187 23.6207 30.706 21.6903 30.6382 19.8343C30.5792 18.2494 31.1235 16.894 31.7159 15.4642C32.0133 15.5451 32.3303 15.5976 32.6232 15.6916L32.6254 15.6938Z" fill="#E7B99D"/>
<path d="M29.6761 14.8979C29.6105 14.8979 29.604 14.7843 29.5056 14.9264C28.8629 18.5204 23.3101 19.209 22.6958 15.239C22.9516 15.1384 23.1768 14.9941 23.4325 14.8979C23.1899 15.2281 23.4719 15.8773 23.6599 16.2031C24.8929 18.3345 28.7579 17.0272 28.994 14.6706C29.2039 14.8171 29.569 14.64 29.6739 14.8979H29.6761Z" fill="#F9F2E4"/>
<path d="M20.6507 16.0894C20.5152 16.6534 20.2988 17.1978 20.0823 17.7356C19.8375 18.3433 20.0233 18.7171 19.2319 18.586C19.3412 17.9323 19.5424 17.2699 19.5161 16.5988C19.9031 16.413 20.2594 16.2599 20.6507 16.0872V16.0894Z" fill="#E7B99D"/>
<path d="M19.3467 24.659C18.94 23.3058 18.8373 21.8105 18.9488 20.4026C18.9969 19.7992 19.1324 19.1828 19.233 18.5859C20.0244 18.7171 19.8385 18.3433 20.0834 17.7355C19.6527 20.0113 19.4625 22.3439 19.3467 24.659Z" fill="#F9F2E4"/>
<path d="M45.2239 10.9827C45.0294 11.4855 45.1278 12.0036 44.9398 12.5436C44.8283 12.8606 44.2774 13.4487 44.2599 13.5077C44.0675 14.1373 44.9485 18.0745 44.9966 19.126C45.084 21.0433 44.649 22.8971 43.8052 24.6023C43.5144 24.7553 42.9788 25.8462 42.4432 26.1916C41.9797 26.4889 42.0803 26.2856 41.5928 26.2484C41.1971 25.903 40.6506 25.6473 40.3445 25.1991C39.8002 24.4033 39.5728 22.9692 39.5509 22.0205C39.5356 21.3974 39.7958 20.1929 39.7215 19.7228C39.7193 19.7054 39.7258 19.6835 39.7215 19.666L41.9338 13.934C42.3601 14.0979 42.758 14.3931 43.2389 14.2466C42.6246 13.993 42.089 13.4487 41.4223 13.3962L41.6212 13.652L41.4223 13.7656C40.5894 13.3481 40.3226 12.3315 40.0603 11.4964C40.3052 11.4964 40.5653 11.4593 40.797 11.3828C40.8408 11.4877 41.0244 11.8572 41.0812 11.9512C41.1359 12.0386 41.1075 12.1982 41.2802 12.2354C41.4092 12.2638 42.2158 12.2594 42.3579 12.2354C42.594 12.1938 43.5516 11.7369 43.7199 11.7238C43.7898 11.7194 44.3998 12.0605 44.5419 11.8091C44.6709 11.5817 44.1724 11.1182 44.7124 10.9302C44.9857 10.9281 45.1343 10.9849 45.2239 10.9871V10.9827Z" fill="#E79B78"/>
<path d="M8.33782 13.9908C8.33345 14.0454 8.34219 14.1045 8.33782 14.1613C8.26786 14.9024 8.1826 15.591 8.96305 14.6729C9.05706 14.7887 8.99147 14.9024 9.16199 15.0139C9.20353 15.0423 10.0758 15.2937 10.1261 15.2981C10.4343 15.3199 10.7163 15.062 10.7513 15.0707C10.7863 15.0795 10.9502 15.5058 11.3197 15.4118L11.8028 14.7319L12.3712 14.9592C12.1635 15.508 11.875 16.4633 11.3503 16.7759C11.1229 16.6666 11.1754 16.389 11.1514 16.378C11.0639 16.3365 9.79815 17.2853 9.41995 17.1432C9.79815 17.3574 10.2922 17.1672 10.6682 17.0579C11.3656 18.8265 11.9253 20.7 13.108 22.2216C13.1014 22.2369 13.1145 22.2631 13.108 22.2784C12.909 22.7375 13.4424 23.5398 13.5627 24.0666C14.0502 26.2353 13.5517 28.8018 11.3503 29.7703C11.1426 29.744 10.8475 29.7025 10.6704 29.5997C8.97617 28.6313 8.51708 24.3355 8.2307 22.6194C8.20228 22.4467 8.2307 22.2478 8.17386 22.051C8.19354 21.3252 8.14544 20.5929 8.17386 19.8671C8.19791 19.2309 8.54113 16.9748 8.45806 16.5748C8.44494 16.5114 7.83501 15.8009 7.72133 15.497C7.54644 15.0358 7.42839 14.4783 7.55081 13.993C7.79347 14.0083 8.11046 14.0367 8.34438 13.993L8.33782 13.9908Z" fill="#E79B78"/>
<path d="M39.7192 19.6659C39.7235 19.6834 39.717 19.7053 39.7192 19.7228C39.0699 20.6584 39.1114 21.9526 39.2076 23.0435C39.2295 23.2927 39.5968 24.799 39.4634 24.8318C36.5078 23.5113 34.0309 21.4126 31.3769 19.6113C31.3463 18.293 31.8119 16.73 32.6252 15.6959C34.3981 16.2556 34.5446 16.7475 35.8891 17.4558C36.2913 17.6678 37.0849 17.7727 37.5352 17.9673C38.038 18.1859 39.5814 19.1478 39.7192 19.6703V19.6659Z" fill="#E79B78"/>
<path d="M39.7192 19.7229C39.7935 20.1929 39.5334 21.3974 39.5487 22.0205C39.5706 22.9693 39.8001 24.4012 40.3423 25.1991C40.6483 25.6495 41.1949 25.9031 41.5905 26.2485C38.6152 26.0255 35.9919 25.5336 33.5893 23.6951C32.1968 22.6304 31.4185 21.4237 31.377 19.6092C34.0309 21.4106 36.5078 23.5092 39.4634 24.8297C39.5968 24.7991 39.2295 23.2928 39.2077 23.0414C39.1093 21.9527 39.0699 20.6563 39.7192 19.7207V19.7229Z" fill="#DB7862"/>
<path d="M45.1102 9.84804C44.8216 9.89176 44.5243 9.91362 44.2314 9.90488C44.1264 10.0317 44.2554 10.2241 44.2598 10.3028C44.2664 10.4427 44.321 10.74 44.3166 10.8143C44.3166 10.8209 44.2117 10.8515 44.203 10.8996C44.1592 11.1313 44.3013 11.4767 43.9472 11.5532C43.1842 11.715 43.37 10.1825 43.0399 9.73655C42.9656 10.1978 43.663 11.5882 43.0399 11.7237C42.1611 11.9139 42.524 10.5104 42.0759 10.0776C42.0715 10.6722 42.8607 11.903 41.9053 12.0079L41.1686 10.1913L41.4812 11.9227L41.0833 11.9511C41.0265 11.8571 40.8429 11.4898 40.7992 11.3827C40.7314 11.2144 40.6855 11.0439 40.6286 10.8711C40.5718 10.6984 40.6964 10.2853 40.2876 10.3028C40.3248 10.0601 40.2045 9.81743 40.4297 9.62287C40.5762 9.49607 40.8626 9.55073 40.9413 9.50919C40.9609 9.49826 40.9981 9.22937 41.2254 9.16815C41.3938 9.12443 41.8223 9.24248 41.8507 9.22499C41.8813 9.20532 41.7785 8.99982 41.8223 8.91238C42.148 8.26528 42.7011 9.00638 42.7579 8.99764C42.7951 8.99108 42.8782 8.58664 43.3832 8.71344C43.4444 8.72874 43.558 8.96047 43.6674 8.9408C43.6827 8.93861 43.7439 8.74842 43.8947 8.71344C44.4565 8.58227 44.9462 9.413 45.1146 9.84804H45.1102Z" fill="#E79B78"/>
<path d="M28.5959 13.3087C28.62 13.6038 28.7708 14.5155 28.9938 14.6707C28.7577 17.0273 24.8926 18.3346 23.6597 16.2031C23.981 15.8818 24.3264 16.2622 24.4248 16.26C24.4598 16.26 24.932 15.9211 25.0216 15.8621C26.2065 15.097 27.1771 13.8006 28.5959 13.3087Z" fill="#E79B78"/>
<path d="M12.082 13.3087C12.058 13.4136 11.9268 13.3328 11.9115 13.394C11.8219 13.7372 11.636 15.1516 11.2578 15.2391C10.3768 15.4446 11.3606 13.418 11.201 13.0267C10.9999 13.418 10.7988 15.0226 10.3506 15.1254C9.35592 15.3527 10.2806 13.6279 10.1232 13.1382C9.93961 13.4224 9.92868 14.6816 9.61169 14.7843C9.5155 14.8149 9.11107 14.7494 9.07172 14.6422C8.95804 14.3253 9.58327 13.018 9.38434 12.572L8.84436 14.4455C8.81376 14.4302 8.42025 14.6029 8.33281 14.1613C8.33718 14.1066 8.32844 14.0476 8.33281 13.9908C8.3503 13.8137 8.42244 13.6519 8.44649 13.4792C8.45523 13.4115 8.5711 13.3021 8.47491 13.195C8.24318 13.136 8.00052 13.1163 7.7666 13.0813C7.77972 12.5304 8.94274 11.7719 9.3275 11.8899C9.42587 11.9205 9.57234 12.2266 9.61169 12.2309C9.69039 12.2397 10.0533 11.5117 10.5474 12.0888C10.6151 12.1675 10.5342 12.3971 10.6326 12.4015C10.6676 12.4015 10.8884 12.2288 11.1442 12.2878C11.1879 12.2987 11.33 12.5064 11.3715 12.5151C11.3978 12.5195 11.5814 12.3206 11.8831 12.4583C12.2132 12.6091 12.1498 13.018 12.082 13.3087Z" fill="#E79B78"/>
<path d="M28.5959 12.5152C28.5544 12.7032 28.5785 13.1054 28.5959 13.3088C27.1771 13.8006 26.2043 15.0992 25.0216 15.8621C24.8161 15.3156 23.8674 15.2588 23.7733 14.7844C23.6793 14.31 23.8214 13.5623 23.6597 13.0246C25.1419 14.3319 27.2755 13.7503 28.5959 12.513V12.5152Z" fill="#DB7862"/>
<path d="M12.0819 13.3087C12.2852 13.3044 12.6328 13.4399 12.5934 13.7066C12.5913 13.7219 12.377 13.864 12.4229 13.9908C12.3705 13.9908 12.3639 14.0433 12.3093 14.0476C12.283 13.4443 12.0731 13.4989 11.9114 14.0476C11.8808 14.1504 11.8961 14.4499 11.8545 14.5592C11.8523 14.5679 11.7496 14.6182 11.7977 14.7297L11.3146 15.4096C10.9473 15.5036 10.7811 15.0795 10.7462 15.0686C10.7112 15.0576 10.4314 15.3178 10.1209 15.2959C10.0707 15.2916 9.19839 15.0401 9.15685 15.0117C8.98634 14.9002 9.05192 14.7866 8.95792 14.6707C8.92294 14.627 8.86173 14.4521 8.84424 14.4433L9.38421 12.5698C9.58315 13.018 8.95792 14.3231 9.0716 14.6401C9.10876 14.745 9.51319 14.8128 9.61157 14.7822C9.92856 14.6816 9.93949 13.4202 10.1231 13.136C10.2805 13.6257 9.35579 15.3506 10.3505 15.1232C10.8008 15.0205 10.9998 13.4137 11.2009 13.0245C11.3605 13.418 10.3767 15.4424 11.2577 15.2369C11.6337 15.1495 11.8217 13.735 11.9114 13.3918C11.9267 13.3306 12.0578 13.4115 12.0819 13.3065V13.3087Z" fill="#C65E5B"/>
<path d="M25.0217 15.8642C24.9321 15.921 24.4621 16.2599 24.4249 16.2621C24.3243 16.2643 23.9789 15.8839 23.6598 16.2052C23.4718 15.8795 23.1897 15.2302 23.4324 14.9001C23.5417 14.8586 23.6707 14.852 23.7734 14.7864C23.8674 15.2608 24.8162 15.3177 25.0217 15.8642Z" fill="#DB7862"/>
<path d="M41.9315 13.9339C41.7522 13.8661 41.5992 13.853 41.4199 13.7634L41.6189 13.6497L41.4199 13.3939C42.0845 13.4486 42.6201 13.9907 43.2366 14.2443C42.7556 14.3908 42.3578 14.0957 41.9315 13.9317V13.9339Z" fill="#C65E5B"/>
<path d="M11.3452 16.7715C11.2009 16.8567 10.8183 17.0098 10.6653 17.0557C10.2893 17.165 9.79519 17.3552 9.41699 17.1409C9.79519 17.283 11.061 16.3342 11.1484 16.3758C11.1703 16.3867 11.12 16.6643 11.3473 16.7737L11.3452 16.7715Z" fill="#C65E5B"/>
<path d="M18.9481 20.4027C18.8344 21.8105 18.9393 23.3058 19.346 24.6591C19.3263 25.0569 19.2301 25.1903 19.2891 25.68C18.1698 26.878 16.7445 27.7787 15.2885 28.5176C14.2064 29.0663 12.5471 29.9189 11.3447 29.7658C13.5483 28.7974 14.0468 26.2309 13.5571 24.0622C13.439 23.5354 12.9034 22.7331 13.1024 22.274C13.8763 23.4523 14.3288 24.8536 14.3507 26.2746C14.355 26.5173 14.1058 27.8355 14.2654 27.8923C16.128 27.1403 17.5446 25.7303 18.0955 23.778C18.36 22.8468 18.3797 21.6116 18.6639 20.7131C18.712 20.5644 18.7317 20.3983 18.9481 20.4005V20.4027Z" fill="#DB7862"/>
<path d="M44.3158 10.8121C44.2808 10.9848 44.565 10.928 44.7137 10.9258C44.1759 11.1138 44.6743 11.5773 44.5432 11.8046C44.4011 12.056 43.7911 11.715 43.7212 11.7194C43.5528 11.7303 42.5953 12.1894 42.3592 12.2309C42.2171 12.255 41.4104 12.2593 41.2815 12.2309C41.1088 12.1938 41.1372 12.0342 41.0825 11.9467L41.4804 11.9183L41.1678 10.1869L41.9045 12.0036C42.8598 11.8986 42.0707 10.6678 42.075 10.0732C42.5232 10.5061 42.1603 11.9096 43.0391 11.7194C43.6622 11.5838 42.9648 10.1956 43.0391 9.73218C43.3692 10.176 43.1834 11.7084 43.9463 11.5488C44.3005 11.4745 44.1584 11.1269 44.2021 10.8952C44.2109 10.8471 44.3158 10.8165 44.3158 10.8099V10.8121Z" fill="#C65E5B"/>
<path d="M8.84889 14.4455C8.86638 14.4543 8.9276 14.6291 8.96257 14.6729C8.18431 15.591 8.26957 14.9024 8.33734 14.1613C8.42479 14.6029 8.81829 14.4302 8.84889 14.4455Z" fill="#C65E5B"/>
<path d="M29.3912 7.57882L28.8797 6.69999C28.6567 6.33928 28.0949 6.00262 27.8588 5.73591C27.8238 5.69656 27.9812 5.58288 27.8872 5.53697C27.8478 5.51948 27.3734 5.79275 27.2619 5.82117C26.4727 6.02667 25.6333 6.00262 24.8222 5.99169C24.0112 5.98076 23.2285 5.47795 22.6383 6.36114C22.2863 6.88363 22.3891 7.63566 22.0699 8.09256C22.1114 7.53509 21.9934 6.90986 22.1267 6.36114C22.2601 5.81243 22.9378 5.30306 23.1192 4.74341C23.8866 5.68344 25.4628 5.69219 26.5799 5.59381C26.8422 5.57195 28.0358 5.23092 28.1123 5.25278C28.1714 5.27027 29.0108 6.02011 29.048 6.07476C29.3475 6.51854 29.3366 7.07382 29.389 7.57882H29.3912Z" fill="#DB7862"/>
<path d="M29.3903 7.57888C29.434 8.01392 29.4931 8.44677 29.4187 8.884C29.4974 8.884 29.8276 7.88494 30.1839 7.80624C30.9119 7.64446 30.831 9.61417 30.2691 9.96176C30.1117 10.0601 29.762 10.0733 29.7292 10.1039C29.6898 10.141 29.5368 10.9324 29.445 11.1248C29.2635 11.5074 28.6558 12.2244 28.5946 12.5152C27.2742 13.7503 25.1405 14.3318 23.6583 13.0267C23.5774 12.7622 23.0331 12.1851 22.8647 11.8637C22.7051 11.562 22.3095 10.2722 22.2395 10.2175C22.0537 10.0733 21.6842 10.2744 21.4459 9.64914C21.1705 8.92772 21.4459 8.26314 21.3891 7.74721C21.7826 7.73628 21.8526 8.12104 22.0427 8.37244C22.0974 8.33965 22.0668 8.1582 22.0712 8.08825C22.3903 7.63135 22.2876 6.88151 22.6396 6.35683C23.232 5.47364 24.0496 5.97645 24.8235 5.98738C25.5974 5.99831 26.474 6.02236 27.2632 5.81686C27.3747 5.78844 27.8491 5.51518 27.8885 5.53266C27.9825 5.57857 27.8251 5.69007 27.86 5.7316C28.0983 5.99831 28.658 6.33716 28.881 6.69568L29.3925 7.57451L29.3903 7.57888Z" fill="#E79B78"/>
<path d="M24.2568 10.8689L27.1797 10.9542C26.4211 12.1587 25.0154 11.9467 24.2568 10.8689Z" fill="#FFFEFD"/>
<path d="M19.5166 16.6009C19.5428 17.272 19.3417 17.9322 19.2324 18.5881C19.134 19.1849 18.9963 19.8014 18.9482 20.4048C18.7318 20.4026 18.7121 20.5665 18.664 20.7174C18.382 21.6159 18.3601 22.851 18.0956 23.7823C17.5425 25.7345 16.1281 27.1446 14.2655 27.8966C14.1059 27.842 14.3551 26.5215 14.3508 26.2789C14.3289 24.8579 13.8764 23.4566 13.1025 22.2783C13.109 22.263 13.0959 22.2367 13.1025 22.2214C13.4719 21.5087 14.5978 21.0584 15.0328 20.6037C15.3083 20.3151 15.7258 19.3773 16.0538 18.9575C17.1643 17.5431 17.9885 17.3332 19.5144 16.6031L19.5166 16.6009Z" fill="url(#paint1_linear_6413_63599)"/>
<path d="M17.1626 19.2681C17.2413 19.6944 16.8434 20.219 16.8216 20.6869C16.6598 20.6803 17.0096 19.3927 17.1626 19.2681Z" fill="#DB7862"/>
<path d="M12.309 14.0476C12.2019 14.0564 12.0663 14.1854 11.9111 14.0476C12.0729 13.4989 12.2828 13.4443 12.309 14.0476Z" fill="#D99A90"/>
<defs>
<linearGradient id="paint0_linear_6413_63599" x1="30.4962" y1="15.6544" x2="20.7002" y2="33.1915" gradientUnits="userSpaceOnUse">
<stop stop-color="#E9685D"/>
<stop offset="0.62" stop-color="#DB4E5A"/>
<stop offset="1" stop-color="#AE2845"/>
</linearGradient>
<linearGradient id="paint1_linear_6413_63599" x1="18.7296" y1="18.7171" x2="13.719" y2="26.0165" gradientUnits="userSpaceOnUse">
<stop stop-color="#DB7A65"/>
<stop offset="1" stop-color="#E79B78"/>
</linearGradient>
</defs>
</svg>
