<svg width="30" height="30" viewBox="0 0 30 30" fill="none" xmlns="http://www.w3.org/2000/svg">
<path d="M21.1244 9.67212C20.992 9.79226 20.8902 9.96635 20.7314 10.065C20.4507 9.84743 20.078 9.54524 19.7881 9.35767C19.8586 9.18665 20.0529 9.02237 20.1418 8.88568C20.4464 8.9954 20.8822 9.28718 21.0851 9.5342C21.1305 9.58937 21.1789 9.51152 21.1244 9.67151V9.67212Z" fill="#114771"/>
<path d="M21.0459 7.27356C21.3665 7.54756 21.7631 7.77129 22.0683 8.06C22.1952 8.17953 22.3387 8.39346 22.4613 8.53199C22.0309 8.5516 21.8802 9.50661 21.459 8.9249C21.41 9.03891 21.6062 9.20993 21.6754 9.27858C21.6282 9.26939 21.5939 9.29513 21.5577 9.31781C21.2212 8.95861 20.8191 8.66561 20.4568 8.33522C20.4017 8.28496 20.2699 8.25309 20.2208 8.15807C20.1957 7.98889 20.9264 7.41516 21.0465 7.27356H21.0459Z" fill="#4B8890"/>
<path d="M22.4618 8.53198C22.5384 8.61841 22.8406 8.80843 22.8155 8.94451L22.1669 9.67211C22.0425 9.52438 21.8028 9.40546 21.6753 9.27919C21.6061 9.21054 21.4099 9.03952 21.4589 8.92551C21.8801 9.50722 22.0315 8.5516 22.4612 8.5326L22.4618 8.53198Z" fill="#4B8890"/>
<path d="M21.5573 9.31847C21.4586 9.37976 21.2208 9.58572 21.1252 9.67215C21.1797 9.51217 21.1313 9.59001 21.0859 9.53485C20.883 9.28782 20.4472 8.99604 20.1426 8.88632C20.24 8.73676 20.3099 8.47931 20.457 8.33588C20.8187 8.66627 21.2214 8.95988 21.5579 9.31847H21.5573Z" fill="#103760"/>
<path d="M20.6726 8.76801C20.9803 8.77291 20.7376 8.92186 20.8099 9.02361C20.8203 9.03832 21.0281 9.07081 21.0851 9.22038C21.0778 9.48702 20.523 8.88263 20.417 8.82746C20.4752 8.83298 20.6591 8.76801 20.6726 8.76862V8.76801Z" fill="#114771"/>
<path d="M25.0955 25.4365C24.8982 25.42 24.694 25.4365 24.5059 25.3581C24.8638 24.9363 25.2426 24.4196 25.5283 23.9427C25.8538 23.9262 26.7806 23.9967 26.7469 23.5302C26.7132 23.0637 26.2504 23.3506 26.0395 23.1569C26.0542 23.1452 26.2032 22.8945 26.2363 22.8424C27.3445 22.5543 28.2885 23.4879 27.8876 24.5919C27.5284 25.5818 25.942 25.5076 25.0961 25.4371L25.0955 25.4365Z" fill="url(#paint0_linear_6413_75803)"/>
<path d="M15.3846 7.82399C15.3331 7.81909 15.2791 7.82767 15.227 7.82399C14.8568 7.79825 14.5344 7.81173 14.1654 7.82399C13.9116 7.83257 13.5322 7.79702 13.3005 7.82399C13.2808 7.65236 13.2674 7.48624 13.2612 7.31277C13.3397 7.28335 13.2625 7.16137 13.3593 7.11601C13.4562 7.07065 15.3833 7.03816 15.482 7.07678C15.6212 7.13072 15.6849 7.88406 15.3839 7.82399H15.3846Z" fill="#114771"/>
<path d="M15.6603 6.76296V7.82463C15.6327 7.82095 15.4678 7.83198 15.3851 7.82463C15.6867 7.88531 15.6223 7.13136 15.4832 7.07742C15.3845 7.0388 13.4567 7.0719 13.3604 7.11665C13.2642 7.16139 13.3408 7.28399 13.2624 7.31341C13.2624 7.30054 13.2624 7.28705 13.2624 7.27418C13.2562 7.12155 13.2777 6.94992 13.2624 6.80219C13.3451 6.7789 13.5688 6.72496 13.6357 6.72373C14.2407 6.71331 15.081 6.84571 15.6603 6.76296Z" fill="#051F4D"/>
<path d="M7.955 7.31342C8.03408 7.43111 8.73164 7.9883 8.74145 8.04101C8.76351 8.16177 8.51036 8.30459 8.42699 8.37508C8.14196 8.61659 7.8036 8.83052 7.52286 9.08245L6.81549 8.31562C6.78852 8.1305 7.29422 8.74286 7.34633 8.76799C7.57987 8.80109 6.85901 8.24329 6.95341 8.17832L7.48424 8.66992L6.97303 8.09986C6.9767 8.09618 7.00858 8.02446 7.01226 8.0214C7.29177 7.77069 7.74169 7.52121 7.95562 7.31403L7.955 7.31342Z" fill="#155578"/>
<path d="M9.17333 9.3969C8.85091 9.59795 8.44206 9.86705 8.1509 10.1043C8.1509 10.0712 8.12086 10.0638 8.11167 10.0258C8.07857 9.89034 7.8389 9.73158 7.83644 9.69174C7.83215 9.62063 8.6094 8.89487 8.66211 8.72876C8.82945 8.95311 8.99925 9.17807 9.17333 9.3969Z" fill="#3A7688"/>
<path d="M8.62294 8.68894C8.63029 8.73368 8.58555 8.72633 8.58371 8.72817C8.61068 8.6822 8.49667 8.56941 8.48563 8.57064C8.4366 8.57738 8.07433 9.15725 7.79788 9.278C7.73842 9.30375 7.67958 9.32827 7.62073 9.35646C7.40129 9.12782 7.8506 9.10024 7.87634 8.88448C8.06268 8.74411 8.22451 8.57002 8.42679 8.45233C8.43476 8.46582 8.57881 8.63009 8.62355 8.68833L8.62294 8.68894Z" fill="#114771"/>
<path d="M8.42619 8.45358C8.22391 8.57127 8.06208 8.74536 7.87574 8.88573C7.75192 8.97951 7.62994 9.07513 7.50244 9.16095L7.52206 9.08249C7.8028 8.83056 8.14116 8.61663 8.42619 8.37512C8.42987 8.39964 8.41944 8.44255 8.42619 8.45358Z" fill="#5988A6"/>
<path d="M7.52179 9.08245L7.50218 9.16091C7.62968 9.07509 7.75166 8.97947 7.87548 8.88569C7.84973 9.10145 7.40042 9.12904 7.61987 9.35767C7.67871 9.32948 7.73756 9.30496 7.79702 9.27921C7.74001 9.40181 7.77127 9.37668 7.85586 9.31844C8.07592 9.16704 8.40508 8.92246 8.58346 8.72877C8.5853 8.72693 8.63004 8.73428 8.62269 8.68954C8.62453 8.69199 8.6374 8.69628 8.66192 8.72877C8.6092 8.89549 7.83257 9.62125 7.83625 9.69174C7.8387 9.7322 8.07837 9.89034 8.11147 10.0258C7.96742 9.93264 7.38142 9.28412 7.26618 9.2786C7.09455 9.27124 6.87143 9.72913 6.71574 9.63228L6.10645 8.90469C6.38412 8.62456 6.68141 8.36466 6.97135 8.09863L7.48256 8.6687L6.95173 8.17709C6.85733 8.24207 7.5788 8.79987 7.34465 8.76677C7.29254 8.74164 6.78684 8.12989 6.81381 8.3144L7.52118 9.08122L7.52179 9.08245Z" fill="#051F4D"/>
<path d="M8.58391 8.72817C8.40615 8.92187 8.07699 9.16644 7.85632 9.31785C7.77173 9.37608 7.74047 9.40121 7.79747 9.27862C8.07392 9.15786 8.4368 8.57799 8.48522 8.57125C8.49687 8.56941 8.61027 8.68281 8.5833 8.72878L8.58391 8.72817Z" fill="#577A8B"/>
<path d="M6.73584 8.96417C6.79652 9.04018 7.10914 9.2161 6.99145 9.35709C6.8425 9.27311 6.80817 9.06899 6.73584 8.96417Z" fill="#114771"/>
<path d="M6.48047 9.00336C6.58651 9.1235 6.79737 9.34294 6.79492 9.51457C6.71033 9.34601 6.49518 9.20625 6.48047 9.00336Z" fill="#4B5B72"/>
<path d="M6.65651 8.84576C6.62045 8.79076 6.45606 8.73454 6.47989 8.61047C6.57095 8.62025 6.62656 8.80909 6.65651 8.84576Z" fill="#114771"/>
<path d="M6.32317 8.76801C6.34896 8.76494 6.41772 8.87913 6.36246 8.88588C6.33668 8.88895 6.26791 8.77476 6.32317 8.76801Z" fill="#4B5B72"/>
<path d="M6.73581 8.96432C6.69406 8.91213 6.66766 8.85871 6.65723 8.84644C6.68117 8.88266 6.71187 8.92932 6.73581 8.96432Z" fill="#114771"/>
<path d="M15.3846 7.82401C15.4673 7.83136 15.6322 7.82033 15.6598 7.82401C15.9467 7.86078 16.6161 8.02077 16.9176 8.09923C17.1303 8.1544 17.4074 8.26228 17.625 8.33522C18.333 8.57122 19.1599 8.95126 19.7869 9.35766C20.0775 9.54584 20.4496 9.84742 20.7303 10.065C20.9663 10.2477 21.2139 10.4567 21.4377 10.6547C21.7429 10.925 22.0053 11.2033 22.2633 11.5196L21.8704 11.5588C20.7628 10.2704 19.2212 9.23322 17.644 8.61045L15.3834 8.09923C15.5783 7.93005 15.3558 7.8614 15.167 7.90247L15.2258 7.82401C15.2773 7.82768 15.3319 7.8191 15.3834 7.82401H15.3846Z" fill="#89D7D3"/>
<path d="M22.2649 11.5197C22.2967 11.5583 22.393 11.6386 22.4224 11.6772C22.7221 12.0701 23.0262 12.5721 23.2481 13.0141C23.3596 13.236 23.4283 13.4922 23.5233 13.7214C23.4031 13.8275 23.7256 14.2094 23.4448 14.1738C23.0617 13.2433 22.5284 12.3226 21.8726 11.5595L22.2655 11.5203L22.2649 11.5197Z" fill="#63B6BA"/>
<path d="M21.793 17.0235H21.8322C21.4687 17.1485 21.1512 17.3723 20.8098 17.5347C20.5793 17.3263 20.2581 17.4893 20.3378 17.8099C20.1073 17.9197 19.6151 18.1789 19.3748 18.1636C19.0402 18.1428 17.6236 17.1369 17.0946 16.945C16.5055 16.7317 16.0844 16.6637 15.4629 16.709C15.404 16.6416 15.1809 16.4963 15.1092 16.473L14.598 12.7382C14.5961 12.6156 14.6372 12.3441 14.4803 12.3061C14.4815 12.2509 14.5581 12.1062 14.5195 12.0112C14.3705 12.2779 14.3742 12.7744 14.3227 13.1317C14.164 14.2431 14.0009 15.3556 13.8906 16.4737C13.6264 16.565 13.3634 16.8684 13.1434 17.0241C12.9233 17.1798 12.7217 17.3251 12.5145 17.4961C11.15 18.6209 10.6173 19.6133 9.91977 21.2309C9.75366 21.6165 9.54586 21.8224 9.68378 22.3318C9.61574 22.3753 9.43798 22.5421 9.34971 22.5286C9.22895 22.5096 8.52649 21.4712 8.3475 21.3492C8.66257 21.0452 9.23263 20.9447 9.40917 20.5039C9.36994 20.3538 8.28192 20.941 8.22981 21.0348C8.18016 21.0452 8.15074 21.0164 8.11212 20.9955L7.56168 19.4429C7.58436 19.4128 8.27701 19.3718 8.22981 19.2461C7.98217 19.259 7.72963 19.4227 7.4826 19.305C7.51509 19.2234 7.44521 19.1928 7.44337 19.1873C7.39556 19.0334 7.25213 17.8816 7.28584 17.7915C7.47525 17.7192 8.46765 17.8369 8.54365 17.6739C8.70793 17.3208 7.47157 17.5028 7.28584 17.3986L7.52183 15.7473L8.38673 15.9441L7.56106 15.5904L8.20958 14.0769C8.36957 14.1658 9.30251 14.8603 9.40855 14.6078C9.4815 14.4337 8.51239 13.9145 8.38612 13.7821L9.42817 12.5439L10.1355 13.1728L9.52624 12.4452L10.8037 11.443C10.8797 11.4547 11.6569 13.0282 11.6882 12.406L11.1377 11.3051L12.6119 10.6958L12.9264 11.5215L12.71 10.6762C12.7541 10.572 14.2737 10.3777 14.3614 10.4794C14.2811 10.6566 14.3816 11.7158 14.4987 11.7569C14.723 11.8353 14.6145 10.6204 14.6954 10.4598L16.2677 10.6566C16.3958 10.7424 16.0807 11.3431 16.1102 11.5215L16.4246 10.6958L17.8792 11.2855L17.368 12.5825C17.6346 12.5617 18.09 11.5472 18.2329 11.5209C18.7208 11.7826 19.1376 12.1583 19.5501 12.5231L18.8428 13.152C18.9127 13.2366 18.8887 13.1961 18.9408 13.1716C19.0714 13.1109 19.4588 12.5629 19.609 12.5819L20.6112 13.8201C20.5235 13.966 19.3503 14.5103 19.5888 14.685C19.6862 14.7561 20.5946 14.2204 20.7485 14.1542C20.9569 14.1671 21.3609 15.3967 21.4363 15.6284L20.689 15.9036L21.4755 15.7461L21.7899 17.0235H21.793Z" fill="url(#paint1_linear_6413_75803)"/>
<path d="M16.4072 9.63289C17.7355 9.9357 19.0479 10.6069 20.0635 11.5202C20.6716 12.067 21.1608 12.7474 21.6358 13.4076C21.6787 13.5706 21.8032 13.7183 21.8718 13.8795C22.3003 14.8885 22.3793 15.5333 22.6975 16.4742L22.7367 16.8279C22.5896 16.8506 22.4492 16.8715 22.3046 16.9064C22.1899 15.9643 21.9356 15.0448 21.5181 14.194C19.3752 9.82475 13.8585 8.52096 9.92073 11.3633C9.84227 11.4203 9.73868 11.4877 9.64551 11.5208C9.75829 11.4007 9.83553 11.2616 9.99919 11.1868C10.0164 11.0648 9.82817 11.0317 9.72397 11.0495C9.71845 11.0311 9.65102 10.971 9.64551 10.971C10.6404 10.2416 11.927 9.71074 13.1443 9.51643C14.2937 9.33315 15.2769 9.37667 16.4072 9.63412V9.63289Z" fill="#05425A"/>
<path d="M18.9621 11.5589C19.4427 11.9095 19.9079 12.303 20.299 12.7578C20.5564 13.0576 21.0689 13.9819 21.2424 14.1339C21.2571 14.1468 21.4704 14.1566 21.5176 14.1928C21.935 15.0436 22.1894 15.9637 22.304 16.9052C22.1342 16.9463 22.0049 16.9634 21.832 17.0229H21.7928C21.5636 14.5967 20.1635 12.5102 18.058 11.3223C18.0255 11.1856 18.1174 11.2113 18.1953 11.2438C18.3871 11.3229 18.8107 11.8194 18.9621 11.5582V11.5589Z" fill="#C6D0D7"/>
<path d="M8.30864 12.935C7.68954 13.7594 7.06799 14.9884 6.85406 16.0016C6.74434 16.5208 6.7094 16.9689 6.69653 17.4954L6.61807 17.4366L6.55923 17.8099C6.50958 17.7743 6.35633 17.7768 6.34285 17.7511C6.32078 17.7094 6.44092 16.9499 6.38208 16.8077C6.20493 16.934 6.19819 17.4961 6.18531 17.7511C6.16938 18.0735 6.21719 18.3947 6.22455 18.714C6.22455 18.7263 6.14547 18.9378 6.14608 18.95C5.88067 17.4912 6.03575 15.9937 6.539 14.6059C6.69837 14.1664 7.41064 12.6824 7.7772 12.4636C7.9047 12.3876 7.83727 12.455 7.9145 12.5028C7.80785 12.6352 7.13848 13.5522 7.16729 13.6233C7.17465 13.6417 7.3095 13.6625 7.34444 13.6822C7.76923 13.049 8.21976 12.4323 8.74017 11.8739C8.82109 11.8776 8.8548 11.8702 8.81863 11.972C8.7604 12.1356 8.40365 12.6076 8.2878 12.8173C8.26206 12.8632 8.18605 12.9527 8.30742 12.935H8.30864Z" fill="#407091"/>
<path d="M20.0629 11.5196C19.0479 10.6069 17.7355 9.93512 16.4066 9.63231C16.3336 9.45087 15.972 9.62189 16.2098 9.27863C17.0723 9.43738 18.1456 9.77942 18.9026 10.222C19.236 10.4169 21.2257 11.9371 21.2025 12.2074C21.1694 12.596 20.6342 11.5828 20.6128 11.8929C20.4356 11.7293 20.3094 11.516 20.0623 11.5196H20.0629Z" fill="#46A7AB"/>
<path d="M13.144 9.23938V9.5146C11.9266 9.70892 10.64 10.2397 9.64514 10.9692C9.63349 10.9692 9.61633 10.9661 9.60591 10.9692C9.53848 10.7271 9.40056 10.8239 9.62552 10.6155C10.3507 9.94184 12.1718 9.37975 13.144 9.23938Z" fill="#25697E"/>
<path d="M16.2106 9.27858C15.9728 9.62184 16.3344 9.45143 16.4074 9.63226C15.2771 9.37481 14.2938 9.33129 13.1445 9.51457V9.23935C14.2362 9.08181 15.1238 9.07814 16.2112 9.27858H16.2106Z" fill="#4B8890"/>
<path d="M7.0109 21.0335C7.22605 21.508 7.48411 21.9462 7.71827 22.4096C7.62755 22.4047 7.53376 22.4139 7.44304 22.4096L6.49968 20.5027C6.36115 19.9933 6.17236 19.4852 6.146 18.95C6.14539 18.9378 6.22507 18.7263 6.22446 18.7141C6.401 19.5219 6.67193 20.2863 7.0109 21.0335Z" fill="#114771"/>
<path d="M22.6973 16.473C22.3791 15.5321 22.3 14.8873 21.8716 13.8783C22.072 13.7803 22.0598 14.0144 22.1468 13.7999C22.2682 14.0438 22.1235 14.0028 22.1468 14.0555C22.2069 14.1903 22.3993 14.3981 22.4613 14.5667C22.4705 14.5918 22.5152 14.7653 22.5397 14.8419C22.7383 15.4561 22.9259 16.0783 22.9326 16.7292C22.8621 16.8788 22.7052 16.4988 22.6966 16.4736L22.6973 16.473Z" fill="#5295A5"/>
<path d="M9.64494 10.9692C9.65046 10.9692 9.71789 11.0293 9.7234 11.0477C9.34827 11.1096 8.98049 11.6159 8.74081 11.8733C8.22102 12.4317 7.76987 13.0484 7.34508 13.6816C7.31075 13.662 7.1759 13.6411 7.16793 13.6227C7.13851 13.5516 7.80849 12.6346 7.91514 12.5022C8.17259 12.1823 9.26061 11.0581 9.60571 10.9692C9.61614 10.9661 9.6333 10.9692 9.64494 10.9692Z" fill="#155578"/>
<path d="M15.2274 7.824L15.1686 7.90246C15.3574 7.86139 15.5799 7.93005 15.385 8.09923C15.3807 8.1029 15.3543 8.17217 15.3261 8.17769C15.2697 8.18933 14.2246 8.10229 14.186 8.06C14.1425 8.0128 14.1762 7.8902 14.1664 7.824C14.5354 7.81174 14.8572 7.79826 15.228 7.824H15.2274Z" fill="#89D7D3"/>
<path d="M14.166 7.82402C14.1764 7.89022 14.1421 8.01282 14.1856 8.06002C14.2242 8.10231 15.2693 8.18935 15.3257 8.17771C15.3539 8.17219 15.3809 8.10292 15.3845 8.09925L17.6452 8.61046C19.2224 9.23324 20.764 10.271 21.8716 11.5588C22.5281 12.322 23.0608 13.2427 23.4439 14.1732C23.7246 14.2093 23.4022 13.8274 23.5223 13.7208C23.5983 13.9041 23.6934 14.0818 23.7583 14.2712C24.0562 15.1374 24.1886 15.8404 24.3088 16.7483H23.3262C23.1282 16.7556 22.9314 16.7973 22.7365 16.8267L22.6973 16.473C22.7059 16.4982 22.8628 16.8782 22.9333 16.7286C22.9259 16.0783 22.739 15.4555 22.5404 14.8413C22.5152 14.7647 22.4711 14.5912 22.4619 14.5661C22.4 14.3975 22.2069 14.1897 22.1474 14.0549C22.1242 14.0021 22.2688 14.0432 22.1474 13.7993C22.0261 13.5553 21.8048 13.2905 21.6558 13.052C21.6056 13.0545 21.6319 13.3886 21.6362 13.4057C21.1612 12.7456 20.672 12.0658 20.064 11.5184C20.311 11.5147 20.4373 11.728 20.6144 11.8917C20.6359 11.5815 21.171 12.5948 21.2041 12.2061C21.2274 11.9358 19.2377 10.4157 18.9042 10.2207C18.1472 9.77817 17.0739 9.43613 16.2114 9.27737C15.124 9.07693 14.2371 9.08061 13.1448 9.23814C12.1726 9.37851 10.3515 9.94061 9.62631 10.6143C9.40135 10.8233 9.53927 10.7258 9.60669 10.9679C9.26159 11.0568 8.17357 12.181 7.91612 12.501C7.83827 12.4532 7.9057 12.3857 7.77882 12.4618C7.41165 12.6812 6.69999 14.1646 6.54062 14.6041C6.03737 15.9918 5.88229 17.4893 6.1477 18.9482C6.17406 19.4833 6.36285 19.9915 6.50139 20.5009L7.44475 22.4078C6.91208 22.3827 6.36531 22.3398 5.83264 22.3293C5.77073 22.3281 5.70085 22.33 5.63587 22.3293C5.58683 22.1669 5.5047 22.0131 5.43911 21.8574C5.31651 21.5668 5.18105 21.253 5.08543 20.9532C5.04374 20.8233 4.95302 20.6124 4.92789 20.5211C4.79978 20.0473 4.70048 19.4024 4.65267 18.909C4.6447 18.8256 4.61957 18.757 4.61344 18.673C4.58279 18.2427 4.59198 17.653 4.61344 17.2184C4.63918 16.6845 4.69925 16.1279 4.8102 15.6063C4.90031 15.1833 5.05723 14.6783 5.20312 14.2694C5.34778 13.8655 5.55435 13.4701 5.75356 13.09C6.01959 12.5819 6.30769 12.1283 6.65769 11.6747C6.9225 11.3314 7.21366 10.9955 7.52259 10.6921C7.7071 10.5107 7.95658 10.2618 8.1515 10.1024C8.44205 9.8646 8.85151 9.59612 9.17394 9.39506C9.82736 8.98683 10.6107 8.5933 11.3359 8.3334C11.5418 8.25984 11.7533 8.15625 11.9648 8.09741C12.2909 8.0073 12.9756 7.86019 13.3017 7.82218C13.5334 7.79521 13.9128 7.83076 14.1666 7.82218L14.166 7.82402Z" fill="url(#paint2_linear_6413_75803)"/>
<path d="M24.3084 16.7482C24.3139 16.7899 24.374 16.8316 24.3476 16.9058C24.0191 16.8052 23.6623 16.8046 23.3252 16.7482H24.3078H24.3084Z" fill="#114771"/>
<path d="M22.1474 13.7999C22.0604 14.0144 22.0726 13.7803 21.8722 13.8783C21.8036 13.7171 21.6791 13.57 21.6362 13.4064C21.6319 13.3892 21.6056 13.0551 21.6558 13.0527C21.8048 13.2911 22.0242 13.5522 22.1474 13.7999Z" fill="#46A7AB"/>
<path d="M21.4971 12.2668C21.7705 12.5697 22.0818 13.334 22.4404 13.4854C22.5685 13.54 22.8542 13.3671 22.7549 13.7607C22.6924 13.4793 22.4576 13.5829 22.362 13.5247C22.0408 13.331 21.6184 12.6334 21.4971 12.2668Z" fill="#4B8890"/>
<path d="M7.24669 18.2819C7.27182 18.6166 7.33619 18.8661 7.40422 19.1861C7.41097 19.2192 7.43058 19.2498 7.44345 19.3038C7.52008 19.6329 7.82227 20.8374 8.11159 20.9943C8.15021 21.0152 8.18024 21.044 8.22928 21.0336C8.13672 21.1997 8.29364 21.3204 8.30774 21.348C8.5327 21.7808 8.96914 22.1682 9.2511 22.5666C8.95443 22.5776 8.67614 22.509 8.3862 22.4881C7.72971 21.6018 7.20685 20.6964 6.93162 19.6182C6.73915 18.863 6.67663 18.274 6.69563 17.4955C6.7085 16.9683 6.74344 16.5209 6.85316 16.0017C6.92856 16.0801 6.95921 15.9459 6.97085 15.9036C7.04748 15.6266 7.10326 15.3476 7.20685 15.0779L7.36438 14.9204C7.21604 15.0902 7.36806 15.2018 7.36438 15.2349C7.33741 15.4623 7.09038 15.9238 7.04993 16.139C6.92672 16.7979 6.9304 17.4759 6.93224 18.144L7.24669 18.2813V18.2819Z" fill="#89B1C9"/>
<path d="M8.38705 22.4881C8.16576 22.4722 7.93529 22.4213 7.71891 22.4096C7.48475 21.9468 7.22669 21.508 7.01154 21.0335L7.42407 21.6624C7.49946 21.2603 7.05567 20.8294 6.93247 20.385C6.87975 20.1937 6.74674 19.7175 6.93247 19.6182C7.20769 20.6964 7.73055 21.6017 8.38705 22.4881Z" fill="#051F4D"/>
<path d="M9.68459 22.3312C9.80657 22.2533 9.92671 22.1908 9.99904 22.0559C9.9923 22.1939 9.84335 22.3508 9.68459 22.4489C9.47127 22.5806 9.45534 22.5592 9.25244 22.5665C8.97048 22.1681 8.53343 21.7801 8.30908 21.348H8.34831C8.52791 21.4699 9.22976 22.5089 9.35052 22.5273C9.4394 22.5408 9.61655 22.3741 9.68459 22.3306V22.3312Z" fill="#103760"/>
<path d="M18.0587 11.3229C20.1642 12.5102 21.5643 14.5974 21.7935 17.0235L21.4791 15.7461L20.6926 15.9036L21.4398 15.6284C21.3644 15.3967 20.9599 14.1671 20.7521 14.1542C20.5982 14.2204 19.6898 14.7561 19.5923 14.685C19.3533 14.5103 20.5265 13.966 20.6148 13.8201L19.6126 12.5819C19.4624 12.5629 19.075 13.1109 18.9444 13.1716C18.8917 13.1961 18.9162 13.2366 18.8464 13.152L19.5537 12.5231C19.1412 12.1584 18.7244 11.7826 18.2365 11.5209C18.0936 11.5472 17.6382 12.5611 17.3716 12.5825L17.8828 11.2855L16.4282 10.6958L16.1137 11.5215C16.0837 11.3431 16.3994 10.7424 16.2713 10.6566L14.699 10.4598C14.6181 10.6204 14.7266 11.8359 14.5022 11.7569C14.3852 11.7158 14.284 10.6566 14.3649 10.4794C14.2779 10.3777 12.7577 10.572 12.7136 10.6762L12.93 11.5215L12.6155 10.6958L11.1413 11.3051L11.6918 12.406C11.6605 13.0276 10.8833 11.4547 10.8073 11.443L9.52983 12.4452L10.1391 13.1728L9.43176 12.5439L8.38971 13.7821C8.51598 13.9139 9.48509 14.4337 9.41214 14.6078C9.3061 14.8603 8.37316 14.1665 8.21317 14.077L7.56465 15.5904L8.39032 15.9441L7.52542 15.7473L7.28943 17.3986C7.47516 17.5028 8.71213 17.3208 8.54724 17.6739C8.47123 17.8375 7.47822 17.7198 7.28943 17.7916C7.2551 17.8817 7.39854 19.0334 7.44696 19.1873H7.40773C7.34031 18.8673 7.27594 18.6178 7.2502 18.2832C6.80825 12.4489 12.9171 8.42415 18.0611 11.3247L18.0587 11.3229Z" fill="#051F4D"/>
<path d="M8.3475 21.348H8.30827C8.29356 21.3204 8.13725 21.1997 8.22981 21.0335C8.28191 20.9398 9.36994 20.3525 9.40917 20.5027C9.23324 20.9434 8.66318 21.044 8.3475 21.348Z" fill="#051F4D"/>
<path d="M8.1115 20.9943C7.82217 20.8374 7.51998 19.6329 7.44336 19.3037H7.48259C7.72962 19.4208 7.98216 19.2577 8.2298 19.2449C8.27639 19.3705 7.58434 19.4116 7.56166 19.4416L8.11211 20.9943H8.1115Z" fill="#051F4D"/>
<path d="M7.48288 19.3039H7.44359C7.4307 19.2493 7.41105 19.2186 7.4043 19.186H7.44359C7.44543 19.1922 7.51604 19.2229 7.48288 19.3039Z" fill="#5988A6"/>
<path d="M18.9626 11.5589C18.8112 11.82 18.3876 11.3229 18.1958 11.2444C18.1179 11.2125 18.0254 11.1862 18.0585 11.3229C12.9144 8.42231 6.80497 12.4471 7.24753 18.2813L6.93308 18.144C6.93124 17.4759 6.92756 16.7979 7.05077 16.139C7.09122 15.9238 7.33825 15.4623 7.36522 15.2349C7.3689 15.2018 7.21688 15.0902 7.36522 14.9204L7.20769 15.0779C7.1041 15.3476 7.04832 15.6265 6.97169 15.9036C6.96005 15.9459 6.92879 16.0801 6.854 16.0017C7.06793 14.9891 7.68948 13.7601 8.30858 12.935C8.70088 12.4127 9.20229 11.9922 9.64547 11.5196C9.73864 11.4865 9.84223 11.4191 9.92069 11.3621C9.98076 11.4528 9.91824 11.4731 10.0188 11.4406C10.2781 11.3578 10.8561 10.8871 11.1981 10.7332C13.7971 9.5655 16.6756 9.88853 18.9626 11.5589Z" fill="#B8D3E4"/>
<path d="M21.5183 14.1928C21.4711 14.1566 21.2578 14.1468 21.2431 14.134C21.0696 13.9819 20.5565 13.0576 20.2997 12.7578C19.9092 12.303 19.4434 11.9095 18.9628 11.5589C16.6758 9.88853 13.7973 9.56549 11.1983 10.7332C10.8557 10.8871 10.2783 11.3584 10.019 11.4406C9.91845 11.4724 9.98036 11.4528 9.9209 11.3621C13.8586 8.51977 19.3753 9.82294 21.5183 14.1928Z" fill="#EDF5F5"/>
<path d="M9.64492 11.5196C9.20175 11.9922 8.70034 12.4121 8.30803 12.935C8.18667 12.9521 8.26268 12.8632 8.28842 12.8173C8.40427 12.6076 8.76102 12.1356 8.81925 11.972C8.85542 11.8702 8.82109 11.877 8.74079 11.8739C8.98046 11.6165 9.34825 11.1101 9.72338 11.0482C9.82759 11.0311 10.0158 11.0642 9.99861 11.1855C9.83494 11.2609 9.7571 11.3995 9.64492 11.5196Z" fill="#25697E"/>
<path d="M6.69645 17.4955C6.67745 18.274 6.73997 18.863 6.93245 19.6182C6.74672 19.7175 6.87973 20.1938 6.93245 20.385C7.05565 20.83 7.49944 21.2604 7.42405 21.6625L7.01152 21.0336C6.67255 20.2863 6.40161 19.522 6.22508 18.7141C6.21772 18.3947 6.16991 18.0735 6.18585 17.7511C6.19811 17.4961 6.20546 16.934 6.38261 16.8077C6.44084 16.9499 6.32131 17.7094 6.34338 17.7511C6.35687 17.7768 6.5095 17.7744 6.55976 17.8099L6.61861 17.4366L6.69707 17.4955H6.69645Z" fill="#114771"/>
<path d="M15.1487 0.236692C15.6348 0.313926 16.4256 0.736876 16.8001 1.06236C16.8785 1.1304 17.1366 1.46386 17.2322 1.57358L17.0747 1.8488C16.8338 1.56439 16.4421 1.23093 16.1313 1.02313C15.4148 0.544403 14.7074 0.413227 13.8511 0.590989L13.7334 0.276535C13.8247 0.258759 13.8076 0.237918 13.8119 0.237305C14.1386 0.18459 14.8177 0.185203 15.1487 0.237305V0.236692Z" fill="#FED550"/>
<path d="M18.0971 4.75793H17.9396C18.072 3.69565 17.7618 2.66096 17.0747 1.84877L17.2322 1.57355C18.213 2.69283 18.3693 3.26412 18.0971 4.75793Z" fill="#FDE4A6"/>
<path d="M13.7338 0.275943L13.8515 0.590396C13.6608 0.630239 13.2305 0.755285 13.0847 0.86562C12.913 0.994956 13.2747 1.02193 13.3403 0.98331C12.5256 1.2806 11.8998 2.03088 11.6105 2.8308C11.2672 3.77845 11.2666 4.54037 11.768 5.4255C11.7913 5.46657 11.8042 5.53829 11.8072 5.54319L13.1833 7.05662V7.17431C12.8995 7.43053 13.0362 7.14856 13.0258 7.13508C12.772 6.80162 12.0267 6.41361 11.768 5.99495C11.388 5.58917 11.2182 5.08469 11.0208 4.5796C11.0036 4.53547 10.8816 4.58451 10.8632 4.54037C10.7321 4.21489 10.9552 3.39228 10.9025 3.02695C11.1011 2.18534 11.5375 1.47001 12.2394 0.943467C12.6648 0.624109 13.2109 0.377083 13.7332 0.27533L13.7338 0.275943Z" fill="#F78320"/>
<path d="M11.807 5.54377C12.0099 5.86128 12.6719 6.52329 13.0256 6.64466C13.09 6.66673 13.0832 6.70841 13.2224 6.72312C13.2199 6.75806 13.2573 6.76235 13.2616 6.80158C13.2769 6.94869 13.2555 7.12094 13.2616 7.27357C12.9753 7.44888 12.3434 6.97137 12.1019 6.76235C11.8604 6.55333 11.0034 5.47511 10.9029 5.19008C10.6884 4.57956 10.7558 3.65091 10.9029 3.02814C10.9556 3.39408 10.7325 4.21607 10.8637 4.54156C10.8814 4.58569 11.0034 4.53666 11.0212 4.58079C11.218 5.08588 11.3878 5.59035 11.7684 5.99614C12.0271 6.4148 12.7724 6.80281 13.0262 7.13626C13.0366 7.14975 12.8993 7.43171 13.1838 7.17549V7.0578L11.8076 5.54438L11.807 5.54377Z" fill="#E14222"/>
<path d="M16.1317 1.02313C16.4424 1.23093 16.8341 1.56438 17.075 1.8488C17.7622 2.66099 18.0723 3.69568 17.9399 4.75796C17.794 5.93057 16.7391 7.04924 15.6597 7.47035V7.23436C15.7528 7.15467 16.386 6.7826 16.4069 6.74276C16.4357 6.68636 16.4044 6.43688 16.4461 6.34984C16.5172 6.20028 16.9708 5.76384 17.1142 5.50456C17.1198 5.49475 17.1087 5.47575 17.1142 5.46533C17.406 4.91549 17.6396 4.43799 17.5464 3.77475C17.5942 2.87614 16.6821 1.57971 15.9343 1.14082L16.131 1.02313H16.1317Z" fill="#F78320"/>
<path d="M16.1325 1.0231L15.9358 1.14079C15.6624 0.980192 15.4956 0.957512 15.1885 0.904797C14.7067 0.822046 14.3604 0.788332 13.8517 0.865567C13.7327 0.883343 13.4465 0.94464 13.3404 0.983257C13.2748 1.02126 12.9132 0.994903 13.0848 0.865567C13.2307 0.755232 13.6604 0.630186 13.8517 0.590343C14.708 0.412582 15.4153 0.543757 16.1319 1.02249L16.1325 1.0231Z" fill="#FDA621"/>
<path d="M15.6597 7.23438V6.76239C15.7026 6.75626 15.8423 6.70048 15.8957 6.68393C16.367 6.53375 16.7747 5.8601 17.1142 5.50458C16.9708 5.76386 16.5172 6.2003 16.4461 6.34986C16.4044 6.4369 16.4357 6.687 16.4069 6.74278C16.3867 6.78262 15.7528 7.15469 15.6597 7.23438Z" fill="#E14222"/>
<path d="M13.6549 5.07239L14.0086 5.13123C14.0104 5.14533 13.761 5.1864 13.7334 5.19008C13.563 5.21337 13.5213 5.14165 13.3797 5.24892L13.4189 6.64465C13.3374 6.63975 13.2546 6.72679 13.2222 6.72311C13.083 6.7084 13.0904 6.66672 13.0254 6.64465V5.13123C13.0701 5.0307 13.5354 5.07729 13.6543 5.07239H13.6549Z" fill="#051F4D"/>
<path d="M15.6604 5.1901L15.6212 6.66429C15.9142 6.70536 15.8719 6.45037 15.8964 6.21192V6.68391C15.8437 6.70107 15.7033 6.75624 15.6604 6.76237C15.0812 6.84512 14.2408 6.71272 13.6358 6.72314C13.5684 6.72437 13.3452 6.77892 13.2625 6.8016C13.2582 6.76237 13.2208 6.75808 13.2233 6.72314C13.2551 6.72682 13.3385 6.63978 13.42 6.64468C13.5475 6.65203 13.653 6.64223 13.7737 6.64468C13.8025 6.64529 13.8289 6.64468 13.8522 6.64468C13.8938 6.64529 13.9202 6.72253 13.9306 6.64468C14.375 6.71824 14.8274 6.65203 15.2675 6.64468C15.3012 6.64468 15.2988 6.64897 15.346 6.64468C15.3723 6.64223 15.5109 6.73662 15.582 6.66429L15.5427 5.1901C15.6126 5.16558 15.5777 5.14168 15.6604 5.1901Z" fill="#407091"/>
<path d="M15.1883 5.07242L15.4243 5.13126L15.1883 5.17049C15.474 5.48433 15.173 6.1966 15.2668 6.64469C14.8267 6.65204 14.3743 6.71824 13.9299 6.64469L13.871 5.34764L13.8514 6.64469C13.8281 6.64469 13.8018 6.6453 13.773 6.64469L13.7337 5.19011C13.7613 5.18643 14.0108 5.14475 14.009 5.13126L13.6553 5.07242C14.142 5.05158 14.7004 5.05587 15.1883 5.07242Z" fill="#114771"/>
<path d="M15.8953 5.97656C15.891 6.0538 15.9033 6.13593 15.8953 6.21256C15.8708 6.45039 15.9131 6.70538 15.6201 6.66493L15.6593 5.19073C15.9376 5.35256 15.6177 5.79512 15.8953 5.97718V5.97656Z" fill="#155578"/>
<path d="M15.8954 5.97653C15.6177 5.79509 15.9383 5.35192 15.6594 5.19009C15.576 5.14167 15.6116 5.16557 15.5417 5.19009C15.4982 5.20542 15.4283 5.16496 15.3841 5.24894C15.2683 5.47145 15.3927 6.35044 15.3449 6.64467C15.2977 6.64896 15.3002 6.64467 15.2664 6.64467C15.1727 6.19659 15.4736 5.48432 15.188 5.17048L15.424 5.13125L15.188 5.0724C15.2946 5.07608 15.8672 5.05156 15.8954 5.09202C15.8837 5.38563 15.9113 5.68415 15.8954 5.97653Z" fill="#407091"/>
<path d="M13.7341 5.19011L13.7733 6.64468C13.6525 6.64223 13.5471 6.65204 13.4196 6.64468L13.3804 5.24895C13.522 5.14168 13.5636 5.2134 13.7341 5.19011Z" fill="#051F4D"/>
<path d="M15.5421 5.19006L15.5813 6.66426C15.5102 6.73659 15.3717 6.64219 15.3453 6.64464C15.3931 6.35042 15.2687 5.47142 15.3845 5.24891C15.4287 5.16493 15.4986 5.20539 15.5421 5.19006Z" fill="#114771"/>
<path d="M13.9305 6.6447C13.9201 6.72255 13.8937 6.64531 13.8521 6.6447L13.8717 5.34766L13.9305 6.6447Z" fill="#051F4D"/>
<path d="M14.3237 16.3946C14.5891 16.3737 14.8551 16.3909 15.1101 16.473C15.1818 16.4963 15.405 16.641 15.4638 16.709C15.0445 16.7397 14.6676 16.8095 14.2845 16.9842C14.0288 17.1007 13.1934 17.6965 13.0659 17.9276H13.0266C13.0003 17.6076 13.0432 17.3238 13.1443 17.0235C13.3644 16.8678 13.6274 16.5644 13.8915 16.473C13.9988 16.4356 14.206 16.4038 14.3237 16.3946Z" fill="#051F4D"/>
<path d="M20.8101 17.5347C20.6379 17.6168 20.492 17.737 20.3381 17.8099C20.2584 17.4893 20.579 17.3263 20.8101 17.5347Z" fill="#305E9A"/>
<path d="M12.5937 18.3996C11.4548 19.9308 12.1199 21.7084 12.8689 23.2353C12.4429 23.2421 12.2045 23.152 12.1616 23.589L11.2575 23.6675C11.4793 23.4339 11.6571 23.011 11.67 22.6849C11.4279 22.501 11.0006 23.73 10.8835 23.7466C10.7248 23.5731 9.83475 23.0986 9.76303 22.9601C9.67354 22.7873 9.77958 22.6052 9.68457 22.4489C9.84333 22.3508 9.99228 22.1939 9.99902 22.056C10.0125 21.7906 9.90279 21.5 9.92056 21.2303C10.6181 19.6127 11.1508 18.6203 12.5153 17.4955L12.633 17.7903L12.5937 18.3996Z" fill="url(#paint3_linear_6413_75803)"/>
<path d="M11.2567 23.6675C11.1868 23.741 11.0366 23.7913 10.9814 23.8642C10.5469 23.6264 10.1601 23.3708 9.76286 23.0778C9.76164 23.0398 9.77757 22.9981 9.72363 22.9993C9.72608 22.9693 9.72976 22.9558 9.76286 22.9601C9.83458 23.0986 10.7246 23.5725 10.8834 23.7465C10.9998 23.7306 11.4277 22.501 11.6698 22.6849C11.6569 23.011 11.4792 23.4345 11.2573 23.6675H11.2567Z" fill="#051F4D"/>
<path d="M14.4809 12.3061C14.4453 13.6282 14.5771 14.9375 14.5986 16.2573L14.6967 16.3553L14.7555 16.2573C14.7494 15.0816 14.6182 13.9114 14.598 12.7388L15.1092 16.4736C14.8542 16.3915 14.5882 16.3743 14.3228 16.3952V13.1323C14.3736 12.775 14.3706 12.2785 14.5195 12.0118C14.5581 12.1069 14.4815 12.2515 14.4803 12.3067L14.4809 12.3061Z" fill="#F67325"/>
<path d="M14.3242 16.3946C14.2065 16.4037 13.9994 16.4362 13.8921 16.473C14.0024 15.355 14.1661 14.2424 14.3242 13.1311V16.3939V16.3946Z" fill="#B2453B"/>
<path d="M14.5992 12.7382C14.6188 13.9108 14.75 15.081 14.7567 16.2567L14.6979 16.3548L14.5998 16.2567C14.5784 14.937 14.4466 13.6283 14.4821 12.3055C14.6397 12.3441 14.598 12.6156 14.5998 12.7376L14.5992 12.7382Z" fill="#FAC885"/>
<path d="M13.1439 17.0235C13.0422 17.3239 12.9999 17.6083 13.0262 17.9276C12.8981 18.0986 12.7216 18.228 12.5941 18.3996L12.6333 17.7903L12.5156 17.4955C12.7228 17.3251 12.9263 17.1786 13.1445 17.0235H13.1439Z" fill="#5988A6"/>
<path d="M9.99863 22.056C9.9263 22.1908 9.80615 22.2533 9.68417 22.3312C9.54626 21.8218 9.75405 21.6158 9.92017 21.2303C9.90239 21.5 10.0121 21.7905 9.99863 22.056Z" fill="#8B9DB3"/>
<path d="M12.1614 23.589C12.1602 23.6019 12.1614 23.6153 12.1614 23.6282C12.1645 23.7753 12.189 23.7986 12.2791 23.9034C12.1093 23.8667 12.04 23.6736 12.0235 23.6675C11.8433 23.6019 11.5325 23.684 11.4534 23.8642C11.4234 23.8225 11.4338 23.6552 11.2371 23.7465C10.9618 23.874 11.4332 24.015 11.5319 24.061C12.1252 24.3393 12.9595 24.5796 13.6154 24.533C13.6423 24.5728 13.7098 24.6188 13.7331 24.6507C13.7698 24.7015 13.8538 24.8799 13.8906 24.9259C13.5798 24.6194 13.0845 24.6807 12.6916 24.5722C12.3471 24.4772 11.9812 24.3521 11.6496 24.2185C11.4124 24.1223 11.2033 23.9862 10.9814 23.8648C11.0366 23.7925 11.1868 23.7422 11.2567 23.6681L12.1608 23.5896L12.1614 23.589Z" fill="#103760"/>
<path d="M12.0041 25.594C12.0782 25.7963 12.408 26.5104 12.397 26.6557C12.6819 26.5325 13.0656 27.3915 13.049 27.4443C12.9927 27.6263 12.3185 27.3434 12.3185 27.3434C12.2695 27.352 12.1812 27.2969 12.1812 27.2969L10.0781 26.6551C10.0781 26.4148 10.0371 25.6106 9.99967 25.3973C9.98802 25.3298 9.99783 25.3427 9.96044 25.2796C9.87769 25.138 9.30824 24.9498 9.13477 24.9259C9.2402 24.8051 9.70605 24.7205 9.76367 24.5722C10.4318 25.0626 11.2146 25.3593 12.0041 25.594Z" fill="#051F4D"/>
<path d="M10.9819 23.8642C11.2044 23.9862 11.4128 24.1223 11.65 24.2179L11.7677 24.7683C11.7561 24.764 11.7401 24.7726 11.7285 24.7683C11.0303 24.525 10.3732 24.1989 9.7627 23.7857C9.7627 23.551 9.77066 23.3125 9.7627 23.0784C10.1599 23.3714 10.5467 23.6264 10.9813 23.8648L10.9819 23.8642Z" fill="#5988A6"/>
<path d="M11.7289 24.7684C11.7951 24.9253 11.8343 25.1269 11.8864 25.2796L11.2379 25.122L9.76367 24.3356C9.78022 24.1677 9.76367 23.9592 9.76367 23.7852C10.3742 24.1983 11.0313 24.5244 11.7295 24.7677L11.7289 24.7684Z" fill="#051F4D"/>
<path d="M11.8858 25.2795C11.9208 25.3813 11.9661 25.491 12.0035 25.594C11.214 25.3592 10.4307 25.0626 9.76252 24.5716C9.77846 24.5299 9.75578 24.4012 9.76252 24.3356L11.2367 25.122L11.8852 25.2795H11.8858Z" fill="#103760"/>
<path d="M14.9525 23.0778C14.9881 23.2782 14.2666 23.2022 14.1857 23.1562C14.0876 23.1011 13.1853 21.4632 13.1044 21.2493C12.7489 20.309 12.5631 18.8348 13.0652 17.9276C13.1927 17.6965 14.0288 17.1007 14.2838 16.9842L15.1094 16.8469C13.4789 18.2089 13.6598 20.1968 14.4021 21.9971C14.4817 22.1902 14.8409 22.9546 14.9525 23.0784V23.0778Z" fill="#E14222"/>
<path d="M13.0648 17.9276C12.5628 18.8354 12.7486 20.309 13.1041 21.2493C13.185 21.4632 14.0873 23.1005 14.1854 23.1562C14.2663 23.2022 14.9871 23.2776 14.9522 23.0778C14.989 23.1189 15.0362 23.1342 15.0503 23.1955C15.5486 23.114 16.0653 23.1636 16.5637 23.0778C16.59 23.0735 16.6415 23.1446 16.701 23.117C16.7108 23.1115 16.8315 22.9552 16.8383 22.9399C17.0663 22.474 17.3949 20.9998 17.5855 20.3844C17.5971 20.3464 17.648 20.2189 17.5463 20.2471C17.6217 20.187 17.6431 20.1521 17.743 20.1294L16.7801 23.2353C15.4781 23.2611 14.1676 23.2139 12.8681 23.2353C12.119 21.7084 11.454 19.9308 12.5929 18.3996C12.7204 18.228 12.8969 18.0992 13.025 17.9276H13.0642H13.0648Z" fill="#E14222"/>
<path d="M20.3381 17.8099C20.492 17.737 20.6379 17.6168 20.8101 17.5347C21.1515 17.3723 21.4691 17.1485 21.8326 17.0235C22.0054 16.964 22.1348 16.9469 22.3045 16.9058C22.4492 16.8709 22.5896 16.8494 22.7367 16.8273C22.9316 16.7973 23.1284 16.7562 23.3264 16.7489C23.6629 16.8047 24.0196 16.8059 24.3488 16.9064C24.8208 17.0505 25.7862 17.6377 26.1178 18.0073C26.3128 18.2243 26.4678 18.5277 26.5898 18.7937C26.6352 18.893 26.7143 19.0089 26.7474 19.1082C26.8552 19.4337 26.927 19.8266 26.9441 20.1699C26.9613 20.5131 26.9251 20.7332 26.8657 21.074C26.797 21.4638 26.6634 21.8892 26.512 22.2534C26.455 22.3907 26.3066 22.7327 26.2367 22.843C26.2036 22.8951 26.0547 23.1458 26.04 23.1575C26.0099 23.1814 25.964 23.1979 25.9419 23.2359H22.0502L21.2441 20.4249C21.1117 20.1453 20.7856 20.0626 20.576 20.3072L19.5339 24.9657L18.2957 20.3464C18.1431 20.0375 18.0751 20.0546 17.7453 20.13C17.6454 20.1527 17.6239 20.1876 17.5485 20.2477C17.4406 20.3341 17.3395 20.4163 17.2733 20.5426C16.9294 21.1984 16.8338 22.3612 16.5659 23.0784C16.0676 23.1648 15.5508 23.1146 15.0525 23.1961C15.0378 23.1342 14.9912 23.1189 14.9544 23.0784C14.8429 22.9546 14.4837 22.1902 14.404 21.9971C13.6623 20.1968 13.4808 18.209 15.1113 16.847L14.2857 16.9843C14.6688 16.8096 15.0458 16.7397 15.465 16.709C16.0866 16.6637 16.5071 16.7311 17.0968 16.945C17.6257 17.1369 19.0423 18.1428 19.377 18.1636C19.6173 18.1789 20.1101 17.919 20.34 17.8099H20.3381Z" fill="url(#paint4_linear_6413_75803)"/>
<path d="M25.3115 18.3996C25.5978 18.3555 25.9165 18.6007 26.0783 18.8121C26.7771 19.7279 26.1268 21.0366 25.5083 21.8194C25.8522 20.6259 26.0955 19.4791 25.3115 18.399V18.3996Z" fill="#FED550"/>
<path d="M16.564 23.0778C16.8318 22.3606 16.9275 21.1984 17.2713 20.5419C17.3375 20.4156 17.4387 20.3335 17.5466 20.2471C17.6483 20.2189 17.5974 20.3464 17.5858 20.3844C17.3958 20.9998 17.0666 22.474 16.8386 22.9399C16.8312 22.9546 16.7111 23.1115 16.7013 23.117C16.6418 23.1446 16.5897 23.0729 16.564 23.0778Z" fill="#F67325"/>
<path d="M26.0388 23.1563C26.2497 23.35 26.7143 23.0821 26.7462 23.5296C26.7781 23.977 25.8525 23.9255 25.5276 23.9421C24.1895 24.0107 22.8207 23.9176 21.4783 23.9813C21.4189 23.486 20.9782 22.7008 20.9279 22.1534C20.904 22.1154 20.869 22.1712 20.8494 22.1927C20.5356 22.5366 20.0697 25.7589 19.7878 26.3995C19.7675 26.5049 19.4586 26.5717 19.3752 26.5368C19.1582 26.4473 18.2265 22.539 17.9795 22.0554C18.0672 21.8231 18.0616 21.462 17.9991 21.2297C17.8649 21.4363 17.8882 21.7483 17.822 21.9769C17.7594 22.1921 17.2856 23.6853 17.2323 23.7656C17.2047 23.8072 16.9638 23.8943 16.9178 23.9029C16.8811 23.9102 16.8375 23.8986 16.8001 23.9029L16.859 23.6276H12.1612C12.1612 23.6148 12.16 23.6013 12.1612 23.5884C12.2041 23.1514 12.4425 23.2415 12.8686 23.2347C14.1681 23.2133 15.4786 23.2605 16.7805 23.2347L17.7435 20.1288C18.0727 20.0528 18.1413 20.0356 18.294 20.3452L19.5322 24.9645L20.5742 20.306C20.7838 20.0614 21.1099 20.1441 21.2423 20.4236L22.0484 23.2347H25.9401C25.9628 23.1961 26.0082 23.1802 26.0382 23.1563H26.0388Z" fill="#EDF5F5"/>
<path d="M21.478 23.9819C22.8204 23.9181 24.1892 24.0113 25.5273 23.9427C25.2423 24.4196 24.8635 24.9363 24.5049 25.358C24.15 25.7761 23.6903 26.2425 23.2863 26.6158C23.0233 26.8592 22.7788 27.1074 22.4606 27.284C22.3362 27.2956 22.1652 27.4078 22.0285 27.4017C22.8695 26.7341 23.5597 26.1788 24.3087 25.377C24.5502 25.1183 24.5362 24.9363 24.8592 24.7481L21.144 24.65C20.9821 24.2884 21.1041 23.9978 21.0459 23.6478H21.1636C21.1354 23.9457 21.4063 24.1842 21.38 24.4539C21.4811 24.5213 21.4811 24.0076 21.478 23.9819Z" fill="#C74F1F"/>
<path d="M16.8 23.9035C16.7233 23.912 16.6412 23.8973 16.564 23.9035C16.5382 23.9053 16.5113 23.9016 16.4855 23.9035C16.1429 23.9286 15.7689 23.9353 15.4238 23.9427C14.7392 23.9568 13.9392 23.9721 13.2619 23.9427C13.0253 23.9323 12.4534 23.9408 12.2793 23.9035C12.1886 23.7986 12.1647 23.7753 12.1616 23.6282H16.8594L16.8006 23.9035H16.8Z" fill="#BEBDC0"/>
<path d="M17.9793 22.056L17.8218 21.9775C17.888 21.7495 17.8647 21.4369 17.9989 21.2303C18.0608 21.4626 18.067 21.8236 17.9793 22.056Z" fill="#DADDDA"/>
<path d="M21.872 27.5598C21.8684 27.5813 21.7758 27.6959 21.7543 27.7173C21.3014 28.1636 20.3065 28.5559 19.7493 28.8967C19.593 28.8967 19.3871 28.9365 19.1989 28.9359C19.2252 28.8158 19.2381 28.8679 19.1793 28.7784C19.0101 28.5216 18.6472 28.1758 18.4517 27.9135C19.1222 27.946 19.867 27.9368 20.5351 27.8743C20.9967 27.8314 21.4785 27.7848 21.872 27.5598Z" fill="#EF6126"/>
<path d="M18.4123 27.9135C18.4251 27.9141 18.4386 27.9129 18.4515 27.9135C18.647 28.1758 19.0093 28.5216 19.1791 28.7784C19.2379 28.8673 19.2251 28.8158 19.1987 28.9359C19.1466 28.9359 19.0933 28.9359 19.0412 28.9359C18.2762 28.7618 17.6307 28.3101 16.9969 27.8743C16.992 27.8712 16.9834 27.8222 16.9185 27.7958V27.7173C17.2973 27.8559 17.9826 27.8908 18.4123 27.9141V27.9135Z" fill="#E14222"/>
<path d="M21.8717 27.52C21.8705 27.5328 21.8736 27.5463 21.8717 27.5592C21.4788 27.7841 20.9964 27.8307 20.5348 27.8736L20.4956 27.52C20.7169 27.5144 21.8539 27.3949 21.8717 27.52Z" fill="#B2453B"/>
<path d="M15.0311 24.6507C15.8573 25.5891 16.7057 26.5153 17.5865 27.4029C17.5914 27.4078 17.6215 27.4636 17.6258 27.4814C17.3009 27.4771 16.9693 27.4887 16.6432 27.4814C16.6334 27.4814 16.5328 27.444 16.4464 27.4421C16.4403 27.4421 16.4378 27.4054 16.3287 27.4029C15.6097 26.6416 14.7632 25.9624 14.0877 25.1619C14.0221 25.084 13.9541 25.0056 13.8909 24.9259C13.8548 24.8799 13.7702 24.7016 13.7334 24.6507C14.1631 24.5501 14.6008 24.6323 15.0304 24.6507H15.0311Z" fill="#D03626"/>
<path d="M17.9791 22.0559C18.2261 22.5402 19.1572 26.4485 19.3748 26.5374C19.4588 26.5717 19.7671 26.5055 19.7874 26.4001C20.0693 25.7601 20.5346 22.5371 20.849 22.1932C20.8686 22.1718 20.9036 22.116 20.9275 22.154C20.9778 22.7014 21.4185 23.4872 21.4779 23.9819C21.481 24.0076 21.481 24.5207 21.3799 24.4539C21.4062 24.1842 21.1353 23.9457 21.1635 23.6478H21.0458C21.104 23.9978 20.982 24.289 21.1439 24.65L24.8591 24.7481C24.5367 24.9363 24.5501 25.1183 24.3086 25.377C23.5596 26.1788 22.8694 26.7341 22.0284 27.4017C21.991 27.4311 21.9646 27.5445 21.8709 27.5193C21.8531 27.3943 20.7166 27.5138 20.4947 27.5193C19.731 27.539 18.9776 27.5328 18.2145 27.5193C18.0048 27.5157 17.7817 27.482 17.6248 27.4801C17.6205 27.4623 17.5905 27.4066 17.5856 27.4017C17.7946 27.2864 17.9166 27.4317 18.1164 27.4409C18.1078 27.3968 18.1391 27.2349 18.136 27.2245C18.0024 26.7697 16.1819 25.2305 15.8558 24.6886C15.8539 24.5697 15.7583 24.4698 15.6982 24.3742C16.1138 24.1407 16.4424 24.5636 16.4847 23.9022C16.5104 23.9004 16.5374 23.904 16.5631 23.9022L16.5239 24.2363C16.8132 24.4257 16.9095 24.1541 16.9168 23.9022C16.9628 23.893 17.2037 23.806 17.2313 23.7649C17.2846 23.6846 17.7584 22.1914 17.821 21.9763L17.9785 22.0547L17.9791 22.0559Z" fill="url(#paint5_linear_6413_75803)"/>
<path d="M16.7996 23.9035C16.8376 23.8992 16.8812 23.9108 16.9173 23.9035C16.91 24.1554 16.8131 24.4269 16.5244 24.2375L16.5636 23.9035C16.6409 23.8973 16.723 23.912 16.7996 23.9035Z" fill="#E14222"/>
<path d="M17.764 22.4489L19.0022 26.3608C18.9728 26.6698 18.9329 27.0038 18.6681 27.2061C18.6332 27.2061 18.4389 26.7832 18.4125 26.7145C18.2458 26.283 17.4986 23.7091 17.5084 23.3726C17.5158 23.1262 17.7088 22.7051 17.764 22.4489Z" fill="#D03626"/>
<path d="M15.8564 24.6899C16.1825 25.2318 18.0031 26.7703 18.1367 27.2258C18.1397 27.2362 18.1085 27.398 18.1171 27.4421C17.9172 27.433 17.7953 27.2877 17.5862 27.4029C16.7054 26.5159 15.857 25.5891 15.0308 24.6507C15.2876 24.6617 15.6008 24.5293 15.8564 24.6899Z" fill="#E14222"/>
<path d="M15.424 23.9427C15.5233 24.0812 15.6098 24.2308 15.6993 24.3748C15.7587 24.4705 15.8543 24.5704 15.8568 24.6893C15.6018 24.5287 15.2879 24.6611 15.0311 24.6501C14.6008 24.6317 14.1638 24.5495 13.7341 24.6501C13.7108 24.6176 13.6433 24.5722 13.6164 24.5324C13.4889 24.3442 13.3736 24.1413 13.2627 23.9427C13.94 23.9721 14.7406 23.9568 15.4246 23.9427H15.424Z" fill="#B72922"/>
<path d="M20.4961 27.52L20.5353 27.8736C19.8672 27.9362 19.1224 27.9454 18.4518 27.9129C18.4389 27.9123 18.4255 27.9135 18.4126 27.9129L18.2158 27.52C18.979 27.5334 19.7323 27.5396 20.4961 27.52Z" fill="#B72922"/>
<path d="M17.6253 27.4807C17.7829 27.4826 18.0054 27.5163 18.215 27.5199L18.4118 27.9129C17.9815 27.8896 17.2968 27.8552 16.918 27.7161C16.9008 27.71 16.6348 27.5353 16.6428 27.4801C16.9695 27.4875 17.3011 27.4758 17.6253 27.4801V27.4807Z" fill="#88242A"/>
<path d="M16.4855 23.9034C16.4432 24.5642 16.1153 24.1413 15.6991 24.3754C15.6096 24.2314 15.5231 24.0818 15.4238 23.9433C15.7683 23.9359 16.1428 23.9292 16.4855 23.9041V23.9034Z" fill="#D03626"/>
<path d="M12.2793 23.9034C12.4534 23.9408 13.0259 23.9322 13.2619 23.9427C13.3728 24.1413 13.4881 24.3441 13.6156 24.5323C12.9597 24.5789 12.1254 24.3386 11.5321 24.0603C11.5278 23.9978 11.4886 23.9126 11.4536 23.8636C11.5327 23.6834 11.8428 23.6018 12.0237 23.6668C12.0402 23.6729 12.1095 23.866 12.2793 23.9028V23.9034Z" fill="#114771"/>
<path d="M13.8908 24.9253C13.9539 25.0049 14.022 25.0834 14.0876 25.1613C13.2932 25.3047 12.5043 25.0197 11.7681 24.7683L11.6504 24.2179C11.9814 24.3515 12.348 24.4766 12.6924 24.5716C13.086 24.6801 13.5806 24.6188 13.8914 24.9253H13.8908Z" fill="#114771"/>
<path d="M11.4534 23.8642C11.4889 23.9133 11.5276 23.9985 11.5319 24.061C11.4332 24.015 10.9618 23.874 11.237 23.7465C11.4338 23.6552 11.4234 23.8232 11.4534 23.8642Z" fill="#6F9AB8"/>
<path d="M14.0876 25.1612C14.7631 25.9618 15.6096 26.641 16.3286 27.4023C15.7101 27.3869 15.0971 27.4403 14.4811 27.4415C14.2874 27.4415 13.1093 27.4758 13.0462 27.4415C12.9567 27.3925 12.7403 26.6367 12.3976 26.6551C12.4087 26.5098 12.0789 25.7957 12.0047 25.5934C11.9667 25.4904 11.9214 25.3807 11.887 25.2789C11.8349 25.1263 11.7963 24.9246 11.7295 24.7677C11.7411 24.772 11.7571 24.7634 11.7687 24.7677C12.5049 25.019 13.2938 25.3041 14.0882 25.1606L14.0876 25.1612Z" fill="#030C31"/>
<path d="M16.3286 27.4023C16.4383 27.4048 16.4401 27.4415 16.4463 27.4415H14.4805C15.0965 27.4403 15.7095 27.387 16.328 27.4023H16.3286Z" fill="#114771"/>
<path d="M4.77102 28.1097L4.73179 29.6623C4.79554 29.8064 5.39257 29.6801 5.51823 29.6819C5.63408 29.6838 6.24766 29.7812 6.30467 29.7015V28.1489C6.33041 28.1489 6.35738 28.1489 6.38313 28.1489L6.3439 29.8002C5.14677 29.7917 3.96006 29.7126 2.7666 29.6825C2.25968 29.6697 1.70984 29.5618 1.23357 29.5649C1.18821 29.5716 1.19679 29.5268 1.19434 29.5256L3.65112 29.6041C3.67932 29.0929 3.87485 28.5602 3.6315 28.071C4.01461 28.1011 4.38975 28.0956 4.77163 28.1103L4.77102 28.1097Z" fill="#E14222"/>
<path d="M1.38986 27.4023C1.41929 27.5678 1.92008 27.6818 2.07762 27.7168C4.26469 28.2041 7.00896 27.7603 9.25243 27.8344V28.0312C9.1709 28.0392 9.09796 28.0668 9.05567 28.0704C9.05199 28.0704 9.04341 28.0649 8.9772 28.0704C8.77063 28.087 8.55548 28.0576 8.3483 28.0704C8.26187 28.076 8.18831 28.1078 8.15153 28.1097C7.84321 28.1274 7.51466 28.1403 7.20817 28.1489C6.93847 28.1563 6.65405 28.1471 6.3825 28.1489C6.35676 28.1489 6.32979 28.1489 6.30404 28.1489C6.08828 28.1501 5.87129 28.1507 5.65552 28.1489C5.62732 28.1489 5.6782 28.2292 5.53783 28.2274C5.48634 28.2268 5.62119 28.1514 5.47899 28.1489C5.23931 28.1446 5.00761 28.1189 4.77162 28.1097C4.38974 28.095 4.0146 28.1005 3.63149 28.0704C2.78314 28.0036 1.85879 28.0545 1.11525 27.5985C1.11403 27.5243 1.17471 27.4832 1.15448 27.4017C1.22865 27.4121 1.31386 27.3968 1.39048 27.4017L1.38986 27.4023Z" fill="#FED550"/>
<path d="M11.1395 28.4247C11.1438 28.4959 11.0837 28.5302 11.1002 28.5621L11.1389 28.7031L11.1002 29.053C11.0727 29.1818 11.1199 29.3847 11.1002 29.525C9.7278 29.6237 8.64898 29.7898 7.2085 29.8003V28.1489C7.51498 28.1403 7.84353 28.1275 8.15186 28.1097L8.2107 29.7218L8.34801 28.0705C8.55519 28.0576 8.77034 28.087 8.97691 28.0705V29.6231C9.0094 29.6881 9.06396 29.6685 9.0946 29.682C9.2883 29.7653 9.63095 29.6709 9.84181 29.6231L9.72412 27.9914C9.83139 27.9779 9.93131 27.9693 10.0386 27.9521C10.1599 28.1992 10.0036 29.4699 10.0778 29.5839C10.095 29.6096 10.2022 29.6133 10.2151 29.6035C10.2819 29.552 10.2317 28.1121 10.1955 27.9129C10.5161 27.8565 10.8783 27.8633 11.1389 27.6377C11.1585 27.8964 11.1229 28.1655 11.1395 28.4247Z" fill="#F78320"/>
<path d="M7.20767 28.1495V29.8008C7.18193 29.8008 7.15496 29.8008 7.12921 29.8008C6.86809 29.802 6.60451 29.8027 6.34277 29.8008L6.382 28.1495C6.65355 28.1476 6.93797 28.1568 7.20767 28.1495Z" fill="#F78320"/>
<path d="M3.63035 28.0704C3.8737 28.5596 3.67816 29.0923 3.64996 29.6035L1.19318 29.525C1.14046 29.5005 1.07855 29.5054 1.03564 29.4269C1.12207 28.8201 1.12514 28.209 1.1141 27.5991C1.85764 28.0551 2.782 28.0042 3.63035 28.071V28.0704Z" fill="#E14222"/>
<path d="M1.60572 27.9135C1.62043 27.9013 1.83191 27.9454 1.84171 27.9527C1.90178 27.9987 1.90301 29.4024 1.84171 29.4466C1.82271 29.46 1.57752 29.4649 1.54688 29.3877L1.60572 27.9135Z" fill="#E14222"/>
<path d="M2.64697 26.2229C2.62859 26.5423 2.49864 27.1914 2.72543 27.363C2.91362 27.5052 3.40154 27.4335 3.70803 27.4415C3.69025 27.558 3.81407 27.5199 3.88517 27.5199C5.11479 27.5193 6.36954 27.5659 7.60039 27.5199C7.83086 27.5114 8.93543 27.3269 8.99612 27.3624C9.30076 27.5432 8.22561 27.5512 8.15083 27.5788C8.34514 27.7149 8.70005 27.588 8.91766 27.5592L8.78035 27.6769C8.67431 27.683 8.58604 27.7112 8.4659 27.7161C7.58935 27.7547 6.70422 27.7167 5.83197 27.8142C6.722 27.8559 7.61632 27.8234 8.50513 27.7946C8.89866 27.7817 9.31057 27.7516 9.7041 27.7161L9.25173 27.8338C7.00826 27.7596 4.26399 28.2034 2.07691 27.7161C1.91938 27.6812 1.41858 27.5671 1.38916 27.4016C1.49459 27.409 2.45818 27.3851 2.50967 27.3624C2.67946 27.287 2.44408 26.3725 2.64697 26.2223V26.2229Z" fill="#F67325"/>
<path d="M6.3037 28.1495V29.7021C6.2473 29.7818 5.63372 29.6844 5.51726 29.6825L5.47803 28.1495C5.62024 28.1519 5.48538 28.2273 5.53687 28.2279C5.67786 28.2298 5.62698 28.1489 5.65456 28.1495C5.87094 28.1513 6.08732 28.1507 6.30308 28.1495H6.3037Z" fill="#F67325"/>
<path d="M5.47768 28.1495L5.51691 29.6826C5.39186 29.6801 4.79483 29.807 4.73047 29.6629L4.7697 28.1103C5.00631 28.1195 5.23801 28.1452 5.47707 28.1495H5.47768Z" fill="#EF6126"/>
<path d="M9.72393 27.9919L9.84162 29.6237C9.63075 29.6715 9.2881 29.7659 9.09441 29.6825L9.05518 28.0704C9.09747 28.0667 9.17041 28.0385 9.25194 28.0312C9.40702 28.0165 9.56946 28.0109 9.72393 27.9919Z" fill="#FA9525"/>
<path d="M11.1395 27.6383C10.8783 27.8638 10.5167 27.8571 10.1961 27.9135C10.1526 27.9209 10.1085 27.9417 10.0386 27.9527C9.93131 27.9699 9.83139 27.9791 9.72412 27.992C9.57027 28.011 9.40722 28.0165 9.25214 28.0312V27.8344L9.70451 27.7167C9.31098 27.7523 8.89907 27.7823 8.50554 27.7952L8.46631 27.7167C8.58645 27.7112 8.67472 27.683 8.78076 27.6775C9.05353 27.6622 9.59479 27.7885 9.78297 27.5598C9.68735 27.5114 9.1277 27.7278 9.01614 27.5794C9.28891 27.4605 10.0717 27.6199 9.92027 27.1669C9.92763 27.1669 9.98831 27.0884 10.038 27.0884C10.1434 27.0884 11.1456 27.4152 11.1781 27.501C11.2044 27.5629 11.1364 27.6082 11.1389 27.6383H11.1395Z" fill="#FBE0B5"/>
<path d="M8.34801 28.0704L8.2107 29.7218L8.15186 28.1097C8.18863 28.1078 8.26219 28.0753 8.34862 28.0704H8.34801Z" fill="#FDC437"/>
<path d="M9.05502 28.0704L9.09425 29.6826C9.06299 29.6691 9.00844 29.6887 8.97656 29.6237V28.0711C9.04276 28.0655 9.05134 28.0711 9.05502 28.0711V28.0704Z" fill="#FED550"/>
<path d="M10.0386 27.9527C10.1078 27.9417 10.1526 27.9209 10.1961 27.9135C10.2323 28.1121 10.2825 29.552 10.2157 29.6041C10.2029 29.6139 10.095 29.6102 10.0784 29.5845C10.0042 29.4711 10.1606 28.1998 10.0392 27.9527H10.0386Z" fill="#FDA621"/>
<path d="M8.46499 27.7167L8.50422 27.7952C7.61541 27.824 6.72109 27.8565 5.83105 27.8148C6.70331 27.7173 7.58844 27.7547 8.46499 27.7167Z" fill="#FAC885"/>
<path d="M5.83163 22.4096C6.1136 22.4195 8.35829 22.5874 8.3871 22.7829C8.28167 22.9031 8.16091 22.9895 7.99419 22.9993C7.73858 23.0146 7.24514 22.7952 6.95214 22.7633C5.98487 22.6573 4.99125 22.6726 4.02337 22.7633C3.67459 22.7958 2.90225 22.8222 2.64725 22.9993C2.56389 23.0576 2.50749 23.0594 2.52956 23.1961C2.35057 23.1501 1.85345 23.0686 1.86142 22.8816C2.83788 22.3704 4.71909 22.3723 5.83224 22.4096H5.83163Z" fill="#F78320"/>
<path d="M1.78255 23.1955C1.70225 23.3493 1.88982 23.6123 1.90024 23.7459C1.9125 23.8949 1.85427 24.9326 1.80216 24.9645C1.79358 24.9694 1.66118 24.8848 1.62501 24.8861C1.5864 24.8867 1.54472 24.8818 1.50732 24.8861C1.53797 24.791 1.50732 24.6783 1.50732 24.5716C1.50732 24.3344 1.50978 23.2041 1.54655 23.0778C1.74883 23.014 1.74883 23.1783 1.78255 23.1955Z" fill="#F78320"/>
<path d="M1.86145 22.881C1.85348 23.068 2.3506 23.1495 2.52959 23.1955C2.65648 23.228 2.79807 23.2899 2.9225 23.3132L2.88327 23.4309C2.57679 23.3739 2.04534 23.3297 1.78238 23.1949C1.74867 23.1777 1.74867 23.0128 1.54639 23.0772C1.59236 22.9197 1.76583 22.9307 1.86084 22.8804L1.86145 22.881Z" fill="#FA9525"/>
<path d="M7.99407 22.9993C8.04373 23.133 7.93584 23.1213 8.11176 23.1961C6.80062 23.4217 5.33133 23.4131 4.00364 23.3536C4.60987 23.2684 5.22223 23.3487 5.83152 23.2752C5.9063 23.266 5.99947 23.2966 6.06751 23.2556C5.89036 23.1955 5.92285 23.0833 5.90998 23.0784L3.98341 23.0392C3.94418 23.0404 3.90434 23.0373 3.86572 23.0392C3.91721 22.8823 4.08088 23.0361 4.02326 22.764C4.99114 22.6732 5.98476 22.6579 6.95203 22.764C7.24441 22.7958 7.73785 23.0153 7.99407 23V22.9993Z" fill="#FED550"/>
<path d="M2.6472 22.9993L3.39442 23.1569L5.83158 23.2746C5.22229 23.3481 4.60932 23.2678 4.00371 23.353C5.33201 23.4131 6.80069 23.4211 8.11183 23.1955C8.31043 23.1612 8.53601 23.1532 8.68189 22.9987C8.74626 23.3168 8.01069 23.2556 7.79738 23.3524C6.23921 23.2194 4.66939 23.6442 2.92243 23.3132C2.798 23.2893 2.6564 23.228 2.52951 23.1955C2.50806 23.0594 2.56384 23.057 2.6472 22.9987V22.9993Z" fill="#EF6126"/>
<path d="M4.02321 22.7633C4.08083 23.0355 3.91778 22.8816 3.86568 23.0385C3.76699 23.0434 3.51874 23.1421 3.39369 23.1562L2.64648 22.9987C2.90148 22.8215 3.67321 22.7952 4.0226 22.7627L4.02321 22.7633Z" fill="#FAC885"/>
<path d="M4.2592 25.1613C4.59449 25.1735 4.91262 25.157 5.24179 25.1613C5.29634 25.1619 5.34599 25.1613 5.39932 25.1613C5.68129 25.1613 5.97367 25.2085 6.26422 25.2005C6.34207 25.1986 6.42175 25.2035 6.50022 25.2005C6.69882 25.1931 6.8919 25.1723 7.08989 25.1613C7.41109 25.1435 7.75619 25.1514 8.07248 25.122V25.2796C7.78071 25.32 7.50365 25.3666 7.20758 25.3972C7.01021 25.4181 6.76563 25.5008 6.57868 25.5149C6.54741 25.5174 6.50389 25.5088 6.42114 25.5149C5.22217 25.5995 3.8767 25.5818 2.70593 25.4757C2.69367 25.4745 2.6385 25.586 2.5484 25.5542C2.50917 25.5407 2.54656 25.4395 2.50917 25.4365C2.25969 25.4144 2.00408 25.453 1.76196 25.358L1.86003 25.594C1.56826 25.5296 1.12018 25.3439 0.877441 25.1619C0.928931 25.1472 0.944255 25.0975 0.995132 25.0834C1.00065 25.2636 1.64733 25.3402 1.66327 25.2998L1.62404 24.8873C1.65959 24.8866 1.79261 24.9706 1.80119 24.9657C1.8539 24.9338 1.91152 23.8961 1.89926 23.7471C2.08193 23.752 3.002 23.9083 3.07862 24.0027C3.11539 24.0475 2.94805 25.0957 3.09823 25.1625C3.48379 25.1729 3.87303 25.1484 4.25797 25.1625L4.2592 25.1613Z" fill="#E14222"/>
<path d="M8.03326 23.5106C8.07127 23.5057 8.11295 23.5155 8.15095 23.5106V25.0044C7.81872 25.0326 7.48036 25.0828 7.14875 25.1221C7.07151 25.0651 7.13404 24.9792 7.12913 24.8861C7.10768 24.4693 7.14507 24.0451 7.12913 23.6283C7.4019 23.6074 7.75007 23.5461 8.03326 23.5106Z" fill="#FA9525"/>
<path d="M9.01627 23.4315C8.97213 23.5614 8.90655 23.9825 9.0555 24.0604C9.05795 24.335 9.05366 24.6115 9.0555 24.8861C8.83238 24.8738 8.41065 24.9823 8.15137 25.0038V23.51C8.43946 23.4719 8.73124 23.4168 9.01627 23.3524C9.01933 23.3775 9.01014 23.4113 9.01627 23.4309V23.4315Z" fill="#FDA621"/>
<path d="M9.76292 23.0778C9.77088 23.312 9.76292 23.551 9.76292 23.7852C9.76292 23.9593 9.77947 24.1677 9.76292 24.3356C9.75617 24.4012 9.77885 24.5299 9.76292 24.5716C9.7053 24.7206 9.23944 24.8046 9.13401 24.9253C9.09539 24.9198 9.09171 24.8879 9.05555 24.8861C9.05371 24.6115 9.058 24.335 9.05555 24.0604C9.05371 23.8446 9.07945 23.6436 9.01632 23.4315C9.01019 23.4119 9.01938 23.3782 9.01632 23.353C9.32832 23.2832 9.69733 23.3445 9.72369 22.9994C9.77763 22.9981 9.76169 23.0398 9.76292 23.0778Z" fill="#F78320"/>
<path d="M7.79699 23.353C7.90917 23.3628 8.12309 23.3757 8.03299 23.5105C7.74979 23.5461 7.40163 23.6074 7.12885 23.6282C7.11721 23.6288 7.04427 23.6233 6.97132 23.6282C6.74207 23.6429 6.49075 23.6601 6.26395 23.6675C5.9777 23.6767 5.68592 23.6693 5.39905 23.6675C5.36105 23.6675 5.31508 23.6681 5.28136 23.6675C4.95404 23.6607 4.58319 23.6564 4.25893 23.6282C3.82556 23.5902 3.31189 23.5118 2.88281 23.4315L2.92204 23.3138C4.66901 23.6448 6.23882 23.22 7.79699 23.353Z" fill="#FAC885"/>
<path d="M7.44317 22.4096C7.53389 22.4139 7.62767 22.4047 7.71839 22.4096C7.93538 22.4213 8.16524 22.4722 8.38653 22.4881C8.67646 22.5089 8.95475 22.5782 9.25143 22.5666C9.45493 22.5586 9.47026 22.5807 9.68357 22.4489C9.77858 22.6052 9.67254 22.7866 9.76203 22.9601C9.72893 22.9558 9.72525 22.9693 9.7228 22.9993C9.69583 23.3444 9.32682 23.2831 9.01543 23.353C8.7304 23.4174 8.43863 23.4719 8.15053 23.5105C8.11253 23.5154 8.07085 23.5056 8.03284 23.5105C8.12295 23.3757 7.90902 23.3628 7.79685 23.353C8.01016 23.2555 8.74573 23.3174 8.68137 22.9993C8.53548 23.1538 8.30991 23.1618 8.1113 23.1961C7.93538 23.1219 8.04326 23.1329 7.99361 22.9993C8.16034 22.9895 8.2811 22.9031 8.38653 22.7829C8.35772 22.5868 6.11302 22.4188 5.83105 22.4096V22.3312C6.36311 22.3416 6.9105 22.3845 7.44317 22.4096Z" fill="#FDE4A6"/>
<path d="M8.64209 22.6058C9.04359 22.6352 9.37275 22.8657 9.6443 23.1366L8.64209 22.6058Z" fill="#FED550"/>
<path d="M2.88295 23.4315C3.31203 23.5112 3.8257 23.5902 4.25907 23.6283V25.1613C3.87413 25.1472 3.48489 25.1717 3.09933 25.1613C2.94916 25.0945 3.1165 24.0463 3.07972 24.0016C3.0031 23.9072 2.08303 23.7508 1.90036 23.7459C1.88933 23.6123 1.70237 23.3494 1.78267 23.1955C2.04564 23.3303 2.57708 23.3745 2.88357 23.4315H2.88295Z" fill="#EF6126"/>
<path d="M3.98408 23.0385C4.20782 23.033 4.52288 23.1127 4.75091 23.117C4.95503 23.1213 5.80889 23.0398 5.91065 23.0778C5.92352 23.0827 5.89042 23.1942 6.06818 23.2549C6.00075 23.2966 5.90758 23.2653 5.83219 23.2745L3.39502 23.1568C3.51945 23.1427 3.76771 23.0434 3.86701 23.0392C3.90562 23.0373 3.94608 23.0404 3.9847 23.0392L3.98408 23.0385Z" fill="#FAC885"/>
<path d="M5.91045 23.0778C5.8087 23.0398 4.95483 23.1213 4.75071 23.117C4.52269 23.1121 4.20762 23.0324 3.98389 23.0385L5.91045 23.0778Z" fill="#E14222"/>
<path d="M5.28061 23.6675L5.24138 25.1613C4.91221 25.157 4.59408 25.1735 4.25879 25.1613V23.6282C4.58305 23.6564 4.9539 23.6607 5.28122 23.6675H5.28061Z" fill="#F67325"/>
<path d="M6.26431 23.6675V25.2005C5.97377 25.2085 5.68138 25.1619 5.39941 25.1613V23.6675C5.68628 23.6693 5.97806 23.6767 6.26431 23.6675Z" fill="#F78320"/>
<path d="M6.97153 23.6282C6.87223 23.8121 6.93536 25.0417 6.89307 25.1024C6.84035 25.1778 6.51609 25.0319 6.50015 25.2005C6.42231 25.2036 6.34262 25.1987 6.26416 25.2005V23.6675C6.49157 23.6601 6.74289 23.6429 6.97153 23.6282Z" fill="#F78320"/>
<path d="M7.12891 23.6282C7.14484 24.0456 7.10745 24.4698 7.12891 24.886C6.99834 24.8707 7.04064 25.0767 7.08968 25.1612C6.89169 25.1723 6.6986 25.1931 6.5 25.2005C6.51594 25.0319 6.84081 25.1772 6.89291 25.1024C6.93521 25.0417 6.87207 23.8121 6.97137 23.6282C7.04432 23.6233 7.11726 23.6288 7.12891 23.6282Z" fill="#FDA621"/>
<path d="M5.39972 23.6675V25.1613C5.34701 25.1613 5.29674 25.1619 5.24219 25.1613L5.28142 23.6675C5.31513 23.6681 5.36172 23.6675 5.39911 23.6675H5.39972Z" fill="#FA9525"/>
<path d="M9.05524 24.0604C8.90629 23.9825 8.97188 23.5614 9.01601 23.4315C9.07915 23.6435 9.0534 23.8452 9.05524 24.0604Z" fill="#FDC437"/>
<path d="M2.60804 25.83C2.62091 25.8312 2.63439 25.8288 2.64727 25.83C2.64175 25.96 2.65462 26.0936 2.64727 26.2229C2.44437 26.3731 2.67975 27.2877 2.50996 27.3631C2.45847 27.3857 1.49488 27.4096 1.38945 27.4023C1.31283 27.3974 1.22824 27.4127 1.15346 27.4023C1.03025 27.3851 0.566233 27.2711 0.524551 27.1467C0.492677 27.0517 0.564394 25.6474 0.603011 25.515C0.612819 25.4812 0.63366 25.3666 0.661856 25.3574C1.22701 25.7307 1.95277 25.7516 2.60804 25.8294V25.83Z" fill="#E14222"/>
<path d="M6.34274 25.7117C6.33293 25.7509 6.34457 25.8196 6.34274 25.8692C6.34274 25.8821 6.34274 25.8956 6.34274 25.9085C6.13739 25.8521 5.89404 25.9036 5.6746 25.9085C5.62311 25.9097 5.57775 25.9048 5.51707 25.9085C5.38466 25.9158 4.81644 25.8637 4.76986 25.9673L4.73063 27.4415C4.69201 27.4434 4.65155 27.4397 4.61294 27.4415L4.59332 25.9085L3.82649 25.9673L3.86572 27.4415C3.82649 27.4415 3.78665 27.4427 3.74803 27.4415V25.9281C3.43603 25.865 3.11974 25.8662 2.80467 25.83C2.7538 25.8239 2.69863 25.8361 2.64714 25.83C2.63427 25.8288 2.62078 25.8312 2.60791 25.83L2.68637 25.6725C3.89515 25.7669 5.13151 25.7552 6.34274 25.7117Z" fill="#FED550"/>
<path d="M2.80431 25.83L2.72585 27.3631C2.49844 27.1914 2.62839 26.5423 2.64739 26.2229C2.65474 26.093 2.64187 25.96 2.64739 25.83C2.69826 25.8361 2.75343 25.8239 2.80492 25.83H2.80431Z" fill="#F78320"/>
<path d="M6.42127 25.5156C6.47398 25.7178 6.34587 25.6995 6.34281 25.7123C5.13158 25.7558 3.89522 25.7675 2.68644 25.6731C2.40018 25.6504 2.15009 25.6584 1.86077 25.5946L1.7627 25.3586C2.00421 25.4537 2.26043 25.4156 2.50991 25.4371C2.5473 25.4402 2.50991 25.5413 2.54914 25.5548C2.63924 25.5867 2.69441 25.4751 2.70667 25.4763C3.87744 25.5824 5.22291 25.6002 6.42188 25.5156H6.42127Z" fill="#F67325"/>
<path d="M1.50682 24.8861C1.54483 24.8818 1.5859 24.8867 1.62451 24.8861L1.66374 25.2986C1.64781 25.339 1.00051 25.2624 0.995605 25.0822C1.1654 25.035 1.31435 24.9081 1.50682 24.8854V24.8861Z" fill="#EF6126"/>
<path d="M7.12929 24.8861C7.13419 24.9792 7.07167 25.0644 7.1489 25.1221C7.48113 25.0822 7.81888 25.0326 8.15111 25.0044C8.41039 24.9823 8.83212 24.8744 9.05524 24.8867C9.0914 24.8885 9.09508 24.9204 9.1337 24.9259C9.30717 24.9498 9.876 25.138 9.95937 25.2796C9.87417 25.3035 9.80184 25.3568 9.72338 25.3973C9.61917 25.4512 9.20603 25.6222 9.17293 25.6921V27.2252C9.4316 27.3189 9.69089 27.1853 9.92014 27.1663C10.0715 27.6193 9.28878 27.4605 9.01601 27.5788C9.12757 27.7272 9.68721 27.5108 9.78283 27.5592C9.59404 27.7879 9.0534 27.6622 8.78063 27.6769L8.91793 27.5592C8.70094 27.588 8.34542 27.7149 8.15111 27.5788C8.22589 27.5513 9.30104 27.5433 8.99639 27.3625C8.93571 27.3269 7.83114 27.5114 7.60066 27.52V27.3625C7.76371 27.36 7.91573 27.3324 8.07265 27.3232C8.12965 27.3196 8.1934 27.3288 8.26941 27.3232C8.53299 27.3048 8.80944 27.3386 9.07547 27.284C9.20542 27.2043 9.10857 25.9287 9.09508 25.6915C9.07608 25.6547 8.36136 25.7816 8.26941 25.7896C8.20811 25.7951 8.06652 25.7718 7.95496 25.7896C7.8434 25.8074 7.47194 25.8251 7.44374 25.8877V27.3226C7.41799 27.3226 7.39102 27.3226 7.36528 27.3226C7.38306 27.1381 7.37938 25.9355 7.32605 25.8877C7.22859 25.8 6.64443 25.9067 6.50038 25.9073C6.49241 25.9073 6.4256 25.8307 6.34285 25.868C6.34468 25.819 6.33304 25.7504 6.34285 25.7105C6.34591 25.6983 6.47402 25.7166 6.42131 25.5138C6.50406 25.5076 6.54758 25.5162 6.57884 25.5138C6.53225 25.5732 6.51325 25.6762 6.59845 25.7105C6.69714 25.7497 8.51153 25.6014 8.72117 25.553C8.90751 25.5107 8.75979 25.4751 8.83886 25.2778L7.20713 25.3954C7.5032 25.3642 7.78026 25.3182 8.07203 25.2778C8.40978 25.2306 8.77388 25.2336 9.11408 25.1993C9.47635 24.7212 8.18482 25.1104 8.07203 25.1208C7.75574 25.1503 7.41064 25.1423 7.08944 25.1601C7.04041 25.0755 6.99811 24.8695 7.12867 24.8848L7.12929 24.8861Z" fill="#FED550"/>
<path d="M3.7479 27.4415C3.73502 27.4415 3.72154 27.4415 3.70867 27.4415C3.40157 27.4335 2.91364 27.5046 2.72607 27.3631L2.80453 25.83C3.1196 25.8668 3.43651 25.8656 3.7479 25.9281V27.4415Z" fill="#E14222"/>
<path d="M5.67455 25.9085L5.63532 27.3827C5.65494 27.4108 6.28875 27.4176 6.32307 27.4023C6.4708 27.3367 6.33901 26.1034 6.34269 25.9085C6.34269 25.8956 6.34269 25.8821 6.34269 25.8692C6.42483 25.8318 6.49164 25.9085 6.50022 25.9085V27.3434C6.57378 27.5089 7.23088 27.3238 7.36512 27.3238C7.39087 27.3238 7.41784 27.3238 7.44358 27.3238C7.45155 27.3238 7.49875 27.3649 7.60111 27.363V27.5206C6.37027 27.5665 5.11552 27.52 3.8859 27.5206C3.8148 27.5206 3.69098 27.558 3.70876 27.4421C3.72163 27.4421 3.73511 27.4421 3.74799 27.4421C3.78722 27.4433 3.82706 27.4421 3.86568 27.4421C4.11209 27.4452 4.36709 27.4538 4.61289 27.4421C4.6515 27.4403 4.69196 27.4439 4.73058 27.4421C4.99232 27.4286 5.25467 27.401 5.51702 27.3833V25.9091C5.57709 25.9054 5.62245 25.9103 5.67455 25.9091V25.9085Z" fill="#FDC437"/>
<path d="M4.6131 27.4415C4.36791 27.4532 4.1123 27.4446 3.86589 27.4415L3.82666 25.9674L4.59349 25.9085L4.6131 27.4415Z" fill="#EF6126"/>
<path d="M5.51691 25.9085V27.3827C5.25456 27.4005 4.99221 27.4281 4.73047 27.4415L4.7697 25.9674C4.81567 25.8638 5.38451 25.9159 5.51691 25.9085Z" fill="#F67325"/>
<path d="M6.34311 25.9085C6.33943 26.1034 6.47122 27.3367 6.32349 27.4023C6.28855 27.4176 5.65536 27.4108 5.63574 27.3826L5.67497 25.9085C5.89442 25.9035 6.13838 25.8521 6.34311 25.9085Z" fill="#F78320"/>
<path d="M9.9995 25.3973C10.0375 25.6112 10.078 26.4148 10.078 26.6551C10.078 26.7489 9.99766 26.9585 10.0387 27.0872C9.98847 27.0872 9.92778 27.1651 9.92104 27.1657C9.69179 27.1847 9.4325 27.3189 9.17383 27.2245V25.6915C9.20693 25.6216 9.62007 25.4506 9.72427 25.3967L9.86158 27.1265C9.91184 27.0695 9.93514 27.1148 9.95966 27.0284C10.0737 26.6238 9.83645 25.9336 9.8812 25.5346C9.891 25.4488 9.88732 25.3905 9.99889 25.3973H9.9995Z" fill="#F78320"/>
<path d="M6.57904 25.5155C6.766 25.5014 7.01118 25.4181 7.20795 25.3978L8.83967 25.2802C8.75999 25.4775 8.90832 25.5131 8.72198 25.5554C8.51173 25.6032 6.69796 25.7521 6.59927 25.7129C6.51406 25.6786 6.53307 25.5756 6.57965 25.5161L6.57904 25.5155Z" fill="#FA9525"/>
<path d="M8.07275 25.2795V25.122C8.18493 25.1116 9.47707 24.7223 9.1148 25.2005C8.77522 25.2348 8.41111 25.2323 8.07275 25.2789V25.2795Z" fill="#FA9525"/>
<path d="M9.9595 25.2795C9.99689 25.3433 9.98709 25.3304 9.99873 25.3972C9.88656 25.3911 9.89024 25.4487 9.88104 25.5345C9.83691 25.9336 10.0741 26.6238 9.9595 27.0283C9.93498 27.1154 9.91169 27.0694 9.86143 27.1264L9.72412 25.3966C9.80258 25.3562 9.87491 25.3022 9.96011 25.2789L9.9595 25.2795Z" fill="#F78320"/>
<path d="M7.3649 27.3238C7.23066 27.3238 6.57356 27.509 6.5 27.3435V25.9085C6.64405 25.9085 7.22821 25.8012 7.32567 25.8889C7.379 25.9367 7.38268 27.1393 7.3649 27.3238Z" fill="#F78320"/>
<path d="M8.26904 27.3238V25.7908C8.36099 25.7822 9.07571 25.6553 9.09471 25.6927C9.1082 25.9293 9.20505 27.2049 9.0751 27.2852C8.80907 27.3398 8.53262 27.3061 8.26904 27.3245V27.3238Z" fill="#FA9525"/>
<path d="M8.07288 27.3238C7.91657 27.333 7.76456 27.3606 7.60089 27.363C7.49853 27.3643 7.45194 27.3238 7.44336 27.3238V25.8888C7.47094 25.8257 7.84669 25.8079 7.95458 25.7908L8.07227 27.3238H8.07288Z" fill="#FA9525"/>
<path d="M8.26904 25.7902V27.3232C8.19365 27.3288 8.1299 27.3196 8.07228 27.3232L7.95459 25.7902C8.06615 25.7724 8.20775 25.7957 8.26904 25.7902Z" fill="#FDC437"/>
<defs>
<linearGradient id="paint0_linear_6413_75803" x1="27.4714" y1="23.7993" x2="25.163" y2="24.5827" gradientUnits="userSpaceOnUse">
<stop stop-color="#BBD9E5"/>
<stop offset="1" stop-color="#84B2CC"/>
</linearGradient>
<linearGradient id="paint1_linear_6413_75803" x1="17.9417" y1="11.7636" x2="9.85235" y2="22.1565" gradientUnits="userSpaceOnUse">
<stop offset="0.22" stop-color="#EFF4F2"/>
<stop offset="1" stop-color="#A2C4D2"/>
</linearGradient>
<linearGradient id="paint2_linear_6413_75803" x1="19.7054" y1="10.3905" x2="6.23168" y2="22.1553" gradientUnits="userSpaceOnUse">
<stop stop-color="#57C1BE"/>
<stop offset="1" stop-color="#051B4A"/>
</linearGradient>
<linearGradient id="paint3_linear_6413_75803" x1="13.1374" y1="19.8045" x2="10.387" y2="22.8302" gradientUnits="userSpaceOnUse">
<stop stop-color="#6399B9"/>
<stop offset="1" stop-color="#5A819F"/>
</linearGradient>
<linearGradient id="paint4_linear_6413_75803" x1="22.8593" y1="16.2138" x2="17.2941" y2="24.1713" gradientUnits="userSpaceOnUse">
<stop stop-color="#FDD157"/>
<stop offset="0.43" stop-color="#FBA52A"/>
<stop offset="1" stop-color="#F5782D"/>
</linearGradient>
<linearGradient id="paint5_linear_6413_75803" x1="20.9385" y1="23.3677" x2="18.9813" y2="26.9125" gradientUnits="userSpaceOnUse">
<stop stop-color="#F8872C"/>
<stop offset="1" stop-color="#F3672B"/>
</linearGradient>
</defs>
</svg>
