<svg width="31" height="31" viewBox="0 0 31 31" fill="none" xmlns="http://www.w3.org/2000/svg">
<path d="M11.3395 6.68823C11.3395 6.68823 9.40845 9.44954 9.61508 11.2328C9.82171 13.0161 10.6006 10.6004 11.1203 11.5496C11.64 12.4989 12.2975 12.5277 11.8867 11.0036C11.476 9.47959 12.5429 6.93619 12.5429 6.93619L11.3382 6.68948L11.3395 6.68823Z" fill="#7DD1AC"/>
<path d="M18.0703 7.5509C18.0703 7.5509 18.2344 11.1174 19.8486 13.3615C20.3958 14.2532 20.4509 14.3108 21.0257 14.1092C20.3695 13.448 21.9286 13.7923 22.4483 12.6703C20.2869 12.2132 19.7121 9.36172 19.8486 7.72247" fill="#7DD1AC"/>
<path d="M3.81641 34.1371L4.37868 8.55527L5.19142 7.83521V34.1371H3.81641Z" fill="#855F3B"/>
<path d="M1.76032 10.7606L1.0941 11.4957L0.935059 12.455L9.07872 14.3071L9.39555 13.577L1.76032 10.7606Z" fill="#855F3B"/>
<path d="M5.19141 34.1371H6.94211L6.06676 8.33362L5.19141 7.83521V34.1371Z" fill="#A4804E"/>
<path d="M1.5376 11.7487L1.76051 10.7606L9.39574 12.5789V13.577L1.5376 11.7487Z" fill="#A4804E"/>
<path d="M24.9229 34.6481L25.3962 13.0974L26.0812 12.4913V34.6481H24.9229Z" fill="#855F3B"/>
<path d="M22.9867 15.0948L22.3242 15.6747L22.1978 16.4874L29.6276 18.0402L30.0108 17.4391L22.9867 15.0948Z" fill="#855F3B"/>
<path d="M26.0806 34.6481H27.5558L26.8182 12.9108L26.0806 12.4913V34.6481Z" fill="#A4804E"/>
<path d="M22.8091 15.9339L22.9869 15.0948L30.011 16.5976V17.4391L22.8091 15.9339Z" fill="#A4804E"/>
<path d="M13.9058 34.1371L14.7498 1.63387L15.6602 0.718445V34.1371H13.9058Z" fill="#855F3B"/>
<path d="M10.6421 5.11041L9.65151 5.81545L9.41357 6.98259L21.7236 9.50596L22.1932 8.76085L10.6421 5.11041Z" fill="#855F3B"/>
<path d="M15.6602 34.1371H18.2862L16.9738 1.3521L15.6602 0.718445V34.1371Z" fill="#A4804E"/>
<path d="M10.3101 6.29383L10.6419 5.11041L22.1931 7.49227V8.76085L10.3101 6.29383Z" fill="#A4804E"/>
<path d="M12.2079 5.43335C11.7583 10.9071 12.9981 15.3315 16.7926 15.0948C20.587 14.8581 20.9038 7.22663 20.9038 7.22663L19.4925 6.9361C19.4925 6.9361 18.3817 12.1168 16.4006 11.924C14.4195 11.7324 13.2536 5.64874 13.2536 5.64874L12.2067 5.43335H12.2079Z" fill="#A5E8D2"/>
<path opacity="0.2" d="M12.981 6.68823C12.981 6.68823 13.3366 10.658 14.8694 11.9817" stroke="#370305" stroke-width="0.131491" stroke-miterlimit="10"/>
<path opacity="0.2" d="M13.3906 11.1187C13.3906 11.1187 13.8352 13.6834 16.2521 13.9376" stroke="#370305" stroke-width="0.131491" stroke-miterlimit="10"/>
<path opacity="0.2" d="M15.1152 12.8156C15.1152 12.8156 16.8622 13.9965 18.2873 12.1694" stroke="#370305" stroke-width="0.131491" stroke-miterlimit="10"/>
<path opacity="0.2" d="M20.0693 7.30804C20.0693 7.30804 19.9604 8.81706 19.5771 10.0831" stroke="#370305" stroke-width="0.131491" stroke-miterlimit="10"/>
<path opacity="0.2" d="M20.425 7.83521C20.425 7.83521 20.425 9.56462 19.5771 11.1175" stroke="#370305" stroke-width="0.131491" stroke-miterlimit="10"/>
<path opacity="0.2" d="M19.5755 8.21722C19.5755 8.21722 19.2198 9.70871 18.8091 10.5139" stroke="#370305" stroke-width="0.131491" stroke-miterlimit="10"/>
<path opacity="0.2" d="M11.2842 7.30804C11.2842 7.30804 10.792 8.38502 10.6543 9.30545" stroke="#370305" stroke-width="0.131491" stroke-miterlimit="10"/>
<path opacity="0.2" d="M11.5292 7.72382C11.5292 7.72382 11.2011 9.01869 11.2825 9.91032" stroke="#370305" stroke-width="0.131491" stroke-miterlimit="10"/>
<g style="mix-blend-mode:multiply" opacity="0.2">
<path d="M16.4994 18.8379C16.4994 18.8379 16.2239 19.9011 16.4994 20.8866C16.7749 21.8709 17.0116 22.3443 16.696 23.6442C16.3804 24.9441 16.5658 26.3779 16.6109 26.9214" stroke="#370305" stroke-width="0.131491" stroke-miterlimit="10"/>
</g>
<g style="mix-blend-mode:multiply" opacity="0.2">
<path d="M16.8467 16.6327C16.8467 16.6327 17.295 18.4372 16.8467 19.3902" stroke="#370305" stroke-width="0.131491" stroke-miterlimit="10"/>
</g>
<g style="mix-blend-mode:multiply" opacity="0.2">
<path d="M16.252 25.2395C16.1055 25.5739 16.0479 27.6376 16.252 28.488" stroke="#370305" stroke-width="0.131491" stroke-miterlimit="10"/>
</g>
<g style="mix-blend-mode:multiply" opacity="0.2">
<path d="M17.9362 25.3736C17.9362 25.3736 16.6075 26.7173 17.0458 27.9771C17.4841 29.2382 17.1585 30.2225 17.0458 30.9713C16.9331 31.7202 16.8467 33.1065 16.8467 33.1065" stroke="#370305" stroke-width="0.131491" stroke-miterlimit="10"/>
</g>
<g style="mix-blend-mode:multiply" opacity="0.2">
<path d="M15.6602 15.687C15.6602 15.687 16.3577 16.7502 15.6602 18.1691" stroke="#370305" stroke-width="0.131491" stroke-miterlimit="10"/>
</g>
<g style="mix-blend-mode:multiply" opacity="0.2">
<path d="M14.8856 16.3558C14.8856 16.3558 15.4404 18.8742 14.8856 20.8854C14.3308 22.8978 14.4899 24.5095 14.4899 24.5095" stroke="#370305" stroke-width="0.131491" stroke-miterlimit="10"/>
</g>
<g style="mix-blend-mode:multiply" opacity="0.2">
<path d="M15.1321 23.2498C15.1321 23.2498 15.1109 24.4707 14.8003 25.8883" stroke="#370305" stroke-width="0.131491" stroke-miterlimit="10"/>
</g>
<g style="mix-blend-mode:multiply" opacity="0.2">
<path d="M15.1313 25.8896C15.1313 25.8896 14.9786 28.4155 15.6598 29.2407" stroke="#370305" stroke-width="0.131491" stroke-miterlimit="10"/>
</g>
<g style="mix-blend-mode:multiply" opacity="0.2">
<path d="M14.0708 27.7392C14.0708 27.7392 14.6043 28.6859 14.4678 30.3803" stroke="#370305" stroke-width="0.131491" stroke-miterlimit="10"/>
</g>
<g style="mix-blend-mode:multiply" opacity="0.2">
<path d="M14.8851 29.2395C14.8839 29.5125 14.8476 31.5613 14.8851 32.0334" stroke="#370305" stroke-width="0.131491" stroke-miterlimit="10"/>
</g>
<g style="mix-blend-mode:multiply" opacity="0.2">
<path d="M26.5825 24.5107C26.5825 24.5107 26.6213 26.1412 26.5825 26.9214" stroke="#370305" stroke-width="0.131491" stroke-miterlimit="10"/>
</g>
<g style="mix-blend-mode:multiply" opacity="0.2">
<path d="M26.5833 22.0675C26.5833 22.0675 26.2577 22.6824 26.4255 23.2497" stroke="#370305" stroke-width="0.131491" stroke-miterlimit="10"/>
</g>
<g style="mix-blend-mode:multiply" opacity="0.2">
<path d="M27.0161 26.3227C27.0161 26.3227 27.0624 27.2719 26.8032 28.0584" stroke="#370305" stroke-width="0.131491" stroke-miterlimit="10"/>
</g>
<g style="mix-blend-mode:multiply" opacity="0.2">
<path d="M26.5827 29.5125C26.5827 29.5125 26.3811 30.4579 26.6002 30.9701" stroke="#370305" stroke-width="0.131491" stroke-miterlimit="10"/>
</g>
<g style="mix-blend-mode:multiply" opacity="0.2">
<path d="M25.6777 27.1895C25.6777 27.1895 25.4811 28.8863 25.6777 29.2395" stroke="#370305" stroke-width="0.131491" stroke-miterlimit="10"/>
</g>
<g style="mix-blend-mode:multiply" opacity="0.2">
<path d="M25.6332 23.4075C25.6332 23.4075 25.7359 24.7487 25.5894 25.2396" stroke="#370305" stroke-width="0.131491" stroke-miterlimit="10"/>
</g>
<g style="mix-blend-mode:multiply" opacity="0.2">
<path d="M25.5903 19.7044C25.5903 19.7044 25.5816 20.9254 25.5903 21.2798" stroke="#370305" stroke-width="0.131491" stroke-miterlimit="10"/>
</g>
<g style="mix-blend-mode:multiply" opacity="0.2">
<path d="M26.55 19.3889C26.55 19.3889 26.4085 20.6099 26.3784 20.7677" stroke="#370305" stroke-width="0.131491" stroke-miterlimit="10"/>
</g>
<g style="mix-blend-mode:multiply" opacity="0.2">
<path d="M4.83171 24.7863C4.83171 24.7863 4.79289 23.1559 4.83171 22.3757" stroke="#370305" stroke-width="0.131491" stroke-miterlimit="10"/>
</g>
<g style="mix-blend-mode:multiply" opacity="0.2">
<path d="M4.83154 27.2296C4.83154 27.2296 5.15714 26.6147 4.98933 26.0474" stroke="#370305" stroke-width="0.131491" stroke-miterlimit="10"/>
</g>
<g style="mix-blend-mode:multiply" opacity="0.2">
<path d="M4.39823 22.9754C4.39823 22.9754 4.3519 22.0262 4.61112 21.2397" stroke="#370305" stroke-width="0.131491" stroke-miterlimit="10"/>
</g>
<g style="mix-blend-mode:multiply" opacity="0.2">
<path d="M4.83198 19.7846C4.83198 19.7846 5.0336 18.8392 4.81445 18.327" stroke="#370305" stroke-width="0.131491" stroke-miterlimit="10"/>
</g>
<g style="mix-blend-mode:multiply" opacity="0.2">
<path d="M5.7373 22.1075C5.7373 22.1075 5.93391 20.4106 5.7373 20.0575" stroke="#370305" stroke-width="0.131491" stroke-miterlimit="10"/>
</g>
<g style="mix-blend-mode:multiply" opacity="0.2">
<path d="M5.78107 25.8896C5.78107 25.8896 5.67838 24.5484 5.8249 24.0575" stroke="#370305" stroke-width="0.131491" stroke-miterlimit="10"/>
</g>
<g style="mix-blend-mode:multiply" opacity="0.2">
<path d="M5.8252 29.5926C5.8252 29.5926 5.83396 28.3716 5.8252 28.0172" stroke="#370305" stroke-width="0.131491" stroke-miterlimit="10"/>
</g>
<g style="mix-blend-mode:multiply" opacity="0.2">
<path d="M4.86572 29.9081C4.86572 29.9081 5.00723 28.6871 5.03729 28.5294" stroke="#370305" stroke-width="0.131491" stroke-miterlimit="10"/>
</g>
<g style="mix-blend-mode:multiply" opacity="0.2">
<path d="M0.935059 12.4549L1.53741 11.7486" stroke="#370305" stroke-width="0.131491" stroke-miterlimit="10"/>
</g>
<g style="mix-blend-mode:multiply" opacity="0.2">
<path d="M4.27637 13.2151L5.19179 12.5989" stroke="#370305" stroke-width="0.131491" stroke-miterlimit="10"/>
</g>
<g style="mix-blend-mode:multiply" opacity="0.2">
<path d="M9.41357 6.98252L10.3102 6.29376" stroke="#370305" stroke-width="0.131491" stroke-miterlimit="10"/>
</g>
<g style="mix-blend-mode:multiply" opacity="0.2">
<path d="M14.584 8.04188L15.6071 7.39319" stroke="#370305" stroke-width="0.131491" stroke-miterlimit="10"/>
</g>
<g style="mix-blend-mode:multiply" opacity="0.2">
<path d="M22.1978 16.4865L22.808 15.9338" stroke="#370305" stroke-width="0.131491" stroke-miterlimit="10"/>
</g>
<g style="mix-blend-mode:multiply" opacity="0.2">
<path d="M25.3066 17.1373L26.0806 16.6176" stroke="#370305" stroke-width="0.131491" stroke-miterlimit="10"/>
</g>
</svg>
