<svg width="24" height="24" viewBox="0 0 32 25" fill="none" xmlns="http://www.w3.org/2000/svg">
<path fill-rule="evenodd" clip-rule="evenodd" d="M9.2846 13.4108C9.42371 13.7753 9.98494 14.2262 10.6373 14.4613C13.0213 15.3295 14.0431 15.2671 14.801 17.4881C13.7696 18.5817 12.5081 19.4596 11.093 20.0352H3.16385C1.86391 19.5075 0.69828 18.7304 -0.280273 17.7567C-0.217915 13.9192 4.01289 16.1497 5.01063 13.4108C5.19771 12.8975 5.2073 12.0868 5.08738 11.5544L7.15001 11.5928L9.21265 11.5544C9.09273 12.0868 9.09753 12.8975 9.2894 13.4108H9.2846Z" fill="#F0C17D"/>
<path fill-rule="evenodd" clip-rule="evenodd" d="M9.28504 13.4108C9.39536 13.7082 9.77431 14.0631 10.278 14.2838C12.7483 15.3583 14.5424 15.2959 14.8062 17.4881C13.7749 18.5817 12.5133 19.4596 11.0982 20.0352H7.12646V11.5928H7.14565L9.20829 11.5544C9.08837 12.0868 9.09316 12.8975 9.28504 13.4108Z" fill="#E0AF6A"/>
<path fill-rule="evenodd" clip-rule="evenodd" d="M4.66553 13.7897L7.14069 14.0535L9.64943 13.7705L9.41918 21.5893H4.91976L4.66553 13.7897Z" fill="#A0E8E8"/>
<path fill-rule="evenodd" clip-rule="evenodd" d="M7.17891 12.792C7.17891 12.792 7.15493 12.792 7.14533 12.792C6.71841 12.792 6.50256 12.792 6.27231 12.6913C6.04686 12.5953 5.93653 12.3747 5.62953 12.0773C5.36571 11.823 4.89562 11.564 4.7805 11.2906C4.64139 10.9548 4.67497 10.5903 4.61261 10.101C4.36797 10.2353 4.10894 9.53496 4.05617 9.30471C3.97943 8.96414 3.73479 8.38852 3.65804 8.00477C3.61487 7.78412 3.63885 7.60664 3.7156 7.55387C3.87869 7.43395 4.04658 7.5059 4.29122 7.84648C4.27683 7.3572 4.27203 6.94467 4.32959 6.58971C4.66537 4.65659 9.39505 3.5725 9.9227 6.58011C9.98505 6.93508 9.98026 7.34761 9.96587 7.83688C10.2105 7.49631 10.3784 7.42915 10.5367 7.54907C10.6086 7.60664 10.6374 7.77932 10.5943 7.99998C10.5175 8.38852 10.2729 8.96414 10.1961 9.29992C10.1434 9.52537 9.88912 10.2113 9.64928 10.0962C9.59651 10.5711 9.62529 10.926 9.49098 11.257C9.37586 11.5352 8.90577 11.7943 8.64674 12.0533C8.33974 12.3555 8.22942 12.5762 8.00876 12.6769C7.78331 12.7728 7.57705 12.7872 7.18371 12.7872L7.17891 12.792Z" fill="#FFDBA7"/>
<path fill-rule="evenodd" clip-rule="evenodd" d="M7.17923 12.792C7.17923 12.792 7.15525 12.792 7.14565 12.792H7.12646V4.72374C8.39283 4.61341 9.66399 5.10269 9.92302 6.58011C9.98537 6.93507 9.98058 7.3476 9.96619 7.83688C10.2108 7.4963 10.3787 7.42915 10.537 7.54907C10.609 7.60663 10.6377 7.77932 10.5946 7.99997C10.5178 8.38851 10.2732 8.96413 10.1964 9.29991C10.1437 9.52536 9.88944 10.2113 9.6496 10.0962C9.59683 10.5711 9.62561 10.926 9.4913 11.257C9.37618 11.5352 8.90609 11.7943 8.64706 12.0533C8.34006 12.3555 8.22974 12.5761 8.00908 12.6769C7.78363 12.7728 7.57737 12.7872 7.18403 12.7872L7.17923 12.792Z" fill="#F0C17D"/>
<path fill-rule="evenodd" clip-rule="evenodd" d="M9.16957 12.8879C9.23193 13.3245 9.36144 13.5211 9.65405 13.7418L8.41647 15.8572L7.10693 14.0248C7.7593 13.665 8.92013 13.2189 9.17437 12.8927L9.16957 12.8879Z" fill="#DBFBF6"/>
<path fill-rule="evenodd" clip-rule="evenodd" d="M5.0919 12.8879C5.02954 13.3245 4.90003 13.5211 4.60742 13.7418L5.845 15.8572L7.15454 14.0248C6.50217 13.665 5.34134 13.2189 5.0871 12.8927L5.0919 12.8879Z" fill="#DBFBF6"/>
<path fill-rule="evenodd" clip-rule="evenodd" d="M4.66506 13.7418C3.37471 14.893 0.789217 14.3318 -0.467552 16.1738C-1.1487 17.1763 -0.961625 19.1718 -1 21.5894H6.4159C5.86906 19.5459 5.13514 15.1376 4.66026 13.7418H4.66506Z" fill="#0E82B3"/>
<path fill-rule="evenodd" clip-rule="evenodd" d="M7.18859 14.1111L7.83137 15.0561L7.81698 15.3007L7.28453 15.838L7.87934 16.7973L7.67787 21.5894H6.60338L6.37793 16.7925L6.97274 15.8332L6.44509 15.2959L6.4259 15.0561L7.06867 14.1063L7.18859 14.1111Z" fill="#1470C6"/>
<path fill-rule="evenodd" clip-rule="evenodd" d="M7.18793 14.1111L7.83071 15.0561L7.81632 15.3007L7.28387 15.838L7.87868 16.7973L7.67721 21.5894H7.13037V14.1063L7.18793 14.1111Z" fill="#0E82B3"/>
<path fill-rule="evenodd" clip-rule="evenodd" d="M4.66509 13.7418C4.39167 13.972 3.90719 14.2118 3.39873 14.3941L3.42271 14.4133L3.36035 17.1139L4.51639 16.9844L3.84003 17.8862L4.86176 21.5894H6.40634C5.8643 19.5507 5.13518 15.1424 4.66509 13.7418Z" fill="#086A94"/>
<path fill-rule="evenodd" clip-rule="evenodd" d="M4.97737 6.10521C4.57444 6.58489 4.4785 8.45565 4.50728 9.10802C3.83093 6.64725 3.46637 4.89161 4.9342 3.78834C6.86732 2.3349 9.03549 3.2367 9.38566 3.82671C10.8055 4.6086 10.3114 6.81514 9.88453 8.76265C9.87494 8.01435 9.51997 6.22033 9.24175 5.46243C8.16247 4.78128 6.01829 6.80075 4.97258 6.10521H4.97737Z" fill="#703100"/>
<path fill-rule="evenodd" clip-rule="evenodd" d="M7.12646 3.00165C8.25372 2.96808 9.17471 3.45256 9.39057 3.82191C10.8104 4.6038 10.3164 6.81034 9.88944 8.75785C9.87984 8.00954 9.52488 6.21553 9.24666 5.45763C8.71422 5.12185 7.91794 5.44324 7.12646 5.77422V3.00165Z" fill="#4F2200"/>
<path fill-rule="evenodd" clip-rule="evenodd" d="M9.59117 13.7418C10.8815 14.893 13.467 14.3318 14.7238 16.1738C15.4049 17.1763 15.2179 19.1718 15.2562 21.5894H7.84033C8.38717 19.5459 9.12109 15.1376 9.59597 13.7418H9.59117Z" fill="#066F9C"/>
<path fill-rule="evenodd" clip-rule="evenodd" d="M9.59632 13.7418C9.75941 13.8809 10.8483 14.4037 10.8387 14.4133L10.9011 17.1139L9.74502 16.9844L10.4214 17.8862L9.48119 21.5894H7.85986C8.39711 19.5603 9.12143 15.152 9.59632 13.7418Z" fill="#0E82B3"/>
<path fill-rule="evenodd" clip-rule="evenodd" d="M28.2845 13.4108C28.4236 13.7753 28.9849 14.2262 29.6372 14.4613C32.0212 15.3295 33.043 15.2671 33.8009 17.4881C32.7696 18.5817 31.508 19.4596 30.0929 20.0352H22.159C20.859 19.5075 19.6934 18.7304 18.7148 17.7567C18.7772 13.9192 23.008 16.1497 24.0057 13.4108C24.1928 12.8975 24.2024 12.0868 24.0825 11.5544L26.1451 11.5928L28.2078 11.5544C28.0878 12.0868 28.0926 12.8975 28.2845 13.4108Z" fill="#F0C17D"/>
<path fill-rule="evenodd" clip-rule="evenodd" d="M28.285 13.4108C28.3953 13.7082 28.7742 14.0631 29.2779 14.2838C31.7483 15.3583 33.5423 15.2959 33.8013 17.4881C32.77 18.5817 31.5084 19.4596 30.0934 20.0352H26.1216V11.5928H26.1408L28.2034 11.5544C28.0835 12.0868 28.0883 12.8975 28.2802 13.4108H28.285Z" fill="#E0AF6A"/>
<path fill-rule="evenodd" clip-rule="evenodd" d="M23.666 13.7897L26.1412 14.0535L28.6499 13.7705L28.4197 21.5893H23.9202L23.666 13.7897Z" fill="#A0E8E8"/>
<path fill-rule="evenodd" clip-rule="evenodd" d="M26.1789 12.792C26.1789 12.792 26.1549 12.792 26.1453 12.792C25.7184 12.792 25.5026 12.792 25.2723 12.6913C25.0469 12.5953 24.9365 12.3747 24.6295 12.0773C24.3657 11.823 23.8956 11.564 23.7805 11.2906C23.6414 10.9548 23.675 10.5903 23.6126 10.101C23.368 10.2353 23.1089 9.53496 23.0562 9.30471C22.9794 8.96414 22.7348 8.38852 22.658 8.00477C22.6149 7.78412 22.6389 7.60664 22.7156 7.55387C22.8787 7.43395 23.0466 7.5059 23.2912 7.84648C23.2768 7.3572 23.272 6.94467 23.3296 6.58971C23.6654 4.65659 28.395 3.5725 28.9227 6.58011C28.9851 6.93508 28.9803 7.34761 28.9659 7.83688C29.2105 7.49631 29.3784 7.42915 29.5367 7.54907C29.6134 7.60664 29.6374 7.77932 29.5943 7.99998C29.5175 8.38852 29.2729 8.96414 29.1961 9.29992C29.1434 9.52537 28.8891 10.2113 28.6445 10.0962C28.5917 10.5711 28.6205 10.926 28.4862 11.257C28.3711 11.5352 27.901 11.7943 27.6419 12.0533C27.3349 12.3555 27.2246 12.5762 27.004 12.6769C26.7785 12.7728 26.5723 12.7872 26.1789 12.7872V12.792Z" fill="#FFDBA7"/>
<path fill-rule="evenodd" clip-rule="evenodd" d="M26.1787 12.792C26.1787 12.792 26.1548 12.792 26.1452 12.792H26.126V4.72374C27.3923 4.61341 28.6635 5.10269 28.9225 6.58011C28.9849 6.93507 28.9801 7.3476 28.9657 7.83688C29.2103 7.4963 29.3782 7.42915 29.5365 7.54907C29.6133 7.60663 29.6373 7.77932 29.5941 7.99997C29.5173 8.38851 29.2727 8.96413 29.1959 9.29991C29.1432 9.52536 28.889 10.2113 28.6443 10.0962C28.5915 10.5711 28.6203 10.926 28.486 11.257C28.3709 11.5352 27.9008 11.7943 27.6418 12.0533C27.3348 12.3555 27.2245 12.5761 27.0038 12.6769C26.7783 12.7728 26.5721 12.7872 26.1787 12.7872V12.792Z" fill="#F0C17D"/>
<path fill-rule="evenodd" clip-rule="evenodd" d="M28.1652 12.8879C28.2275 13.3245 28.357 13.5211 28.6497 13.7418L27.4121 15.8572L26.1025 14.0248C26.7549 13.665 27.9157 13.2189 28.17 12.8927L28.1652 12.8879Z" fill="#DBFBF6"/>
<path fill-rule="evenodd" clip-rule="evenodd" d="M24.0924 12.8879C24.03 13.3245 23.9005 13.5211 23.6079 13.7418L24.8455 15.8572L26.155 14.0248C25.5027 13.665 24.3418 13.2189 24.0876 12.8927L24.0924 12.8879Z" fill="#DBFBF6"/>
<path fill-rule="evenodd" clip-rule="evenodd" d="M23.6651 13.7418C22.3747 14.893 19.7892 14.3318 18.5324 16.1738C17.8513 17.1763 18.0384 19.1718 18 21.5894H25.4159C24.8691 19.5459 24.1351 15.1376 23.6603 13.7418H23.6651Z" fill="#0E82B3"/>
<path fill-rule="evenodd" clip-rule="evenodd" d="M26.1881 14.1111L26.8309 15.0561L26.8165 15.3007L26.284 15.838L26.8788 16.7973L26.6774 21.5894H25.6029L25.3774 16.7925L25.9722 15.8332L25.4446 15.2959L25.4254 15.0561L26.0682 14.1063L26.1881 14.1111Z" fill="#1470C6"/>
<path fill-rule="evenodd" clip-rule="evenodd" d="M26.1884 14.1111L26.8312 15.0561L26.8168 15.3007L26.2844 15.838L26.8792 16.7973L26.6777 21.5894H26.1309V14.1063L26.1884 14.1111Z" fill="#0E82B3"/>
<path fill-rule="evenodd" clip-rule="evenodd" d="M23.6651 13.7418C23.3917 13.972 22.9072 14.2118 22.3987 14.3941L22.4227 14.4133L22.3604 17.1139L23.5164 16.9844L22.84 17.8862L23.8618 21.5894H25.4063C24.8643 19.5507 24.1352 15.1424 23.6651 13.7418Z" fill="#1470C6"/>
<path fill-rule="evenodd" clip-rule="evenodd" d="M23.9774 6.10521C23.5744 6.58489 23.4785 8.45565 23.5073 9.10802C22.8309 6.64725 22.4664 4.89161 23.9342 3.78834C25.8673 2.3349 28.0355 3.2367 28.3857 3.82671C29.8055 4.6086 29.3114 6.81514 28.8845 8.76265C28.8749 8.01435 28.52 6.22033 28.2418 5.46243C27.1625 4.78128 25.0183 6.80075 23.9726 6.10521H23.9774Z" fill="#703100"/>
<path fill-rule="evenodd" clip-rule="evenodd" d="M26.126 3.00165C27.2532 2.96808 28.1742 3.45256 28.3901 3.82191C29.8099 4.6038 29.3159 6.81034 28.889 8.75785C28.8794 8.00954 28.5244 6.21553 28.2462 5.45763C27.7137 5.12185 26.9175 5.44324 26.126 5.77422V3.00165Z" fill="#4F2200"/>
<path fill-rule="evenodd" clip-rule="evenodd" d="M28.5917 13.7418C29.882 14.893 32.4675 14.3318 33.7243 16.1738C34.4054 17.1763 34.2183 19.1718 34.2567 21.5894H26.8408C27.3877 19.5459 28.1216 15.1376 28.5965 13.7418H28.5917Z" fill="#066F9C"/>
<path fill-rule="evenodd" clip-rule="evenodd" d="M28.5919 13.7418C28.755 13.8809 29.8439 14.4037 29.8343 14.4133L29.8967 17.1139L28.7406 16.9844L29.417 17.8862L28.4768 21.5894H26.8555C27.3927 19.5603 28.117 15.152 28.5919 13.7418Z" fill="#086A94"/>
<path fill-rule="evenodd" clip-rule="evenodd" d="M19.587 13.7478C19.7706 14.2343 20.5152 14.825 21.374 15.1378C24.5213 16.2845 25.8715 16.2001 26.8743 19.1339C25.5141 20.5834 23.8462 21.7351 21.9747 22.4995H11.4955C9.78283 21.8046 8.23899 20.772 6.94336 19.4913C7.02279 14.4229 12.6173 17.3666 13.9328 13.7478C14.181 13.0677 14.191 12.0004 14.0321 11.2955L16.7574 11.3501L19.4827 11.2955C19.3239 12.0004 19.3288 13.0677 19.582 13.7478H19.587Z" fill="#F0C17D"/>
<path fill-rule="evenodd" clip-rule="evenodd" d="M19.5873 13.7478C19.7362 14.14 20.2376 14.6116 20.8978 14.8995C24.1642 16.3193 26.5271 16.2398 26.8746 19.1339C25.5144 20.5834 23.8465 21.7351 21.975 22.4996H16.7329V11.3502H16.7627L19.488 11.3005C19.3291 12.0054 19.3341 13.0727 19.5873 13.7528V13.7478Z" fill="#E0AF6A"/>
<path fill-rule="evenodd" clip-rule="evenodd" d="M13.4805 14.2492L16.7518 14.6017L20.0629 14.2294L19.7551 24.5547H13.818L13.4805 14.2492Z" fill="#5C80B0"/>
<path fill-rule="evenodd" clip-rule="evenodd" d="M16.8025 12.9337C16.8025 12.9337 16.7727 12.9337 16.7578 12.9337C16.1919 12.9337 15.909 12.9288 15.6012 12.7997C15.3033 12.6756 15.1594 12.3827 14.7523 11.9856C14.4048 11.653 13.7794 11.3105 13.6304 10.9431C13.4468 10.5013 13.4865 10.0148 13.412 9.36949C13.0893 9.54819 12.7418 8.62487 12.6773 8.32206C12.578 7.87529 12.2554 7.11578 12.1561 6.60447C12.0965 6.31159 12.1362 6.07828 12.2305 6.00878C12.444 5.84993 12.6674 5.94425 12.995 6.39598C12.9752 5.75065 12.9652 5.20459 13.0496 4.73797C13.4964 2.18145 19.7413 0.751783 20.4412 4.72804C20.5256 5.19467 20.5157 5.74072 20.5008 6.39102C20.8234 5.94425 21.0418 5.84993 21.2553 6.00878C21.3546 6.08324 21.3893 6.31656 21.3298 6.60447C21.2305 7.11578 20.9078 7.87529 20.8085 8.32206C20.739 8.6199 20.4015 9.52834 20.0838 9.37445C20.0143 9.99993 20.049 10.4715 19.8703 10.9084C19.7164 11.2757 19.1009 11.6232 18.7534 11.9608C18.3463 12.3579 18.2024 12.6508 17.9095 12.7848C17.6116 12.9139 17.3436 12.9288 16.8174 12.9337H16.8025Z" fill="#FFDBA7"/>
<path fill-rule="evenodd" clip-rule="evenodd" d="M16.8024 12.9337C16.8024 12.9337 16.7726 12.9337 16.7577 12.9337H16.7329V2.27573C18.4058 2.12681 20.0837 2.77711 20.4312 4.72801C20.5156 5.19463 20.5056 5.74069 20.4907 6.39098C20.8134 5.94421 21.0318 5.8499 21.2453 6.00875C21.3446 6.08321 21.3793 6.31652 21.3198 6.60444C21.2205 7.11575 20.8978 7.87526 20.7985 8.32203C20.729 8.61987 20.3915 9.52831 20.0738 9.37442C20.0043 9.9999 20.039 10.4715 19.8603 10.9083C19.7064 11.2757 19.0909 11.6232 18.7434 11.9607C18.3363 12.3579 18.1924 12.6507 17.8995 12.7848C17.6016 12.9138 17.3336 12.9287 16.8074 12.9337H16.8024Z" fill="#F0C17D"/>
<path fill-rule="evenodd" clip-rule="evenodd" d="M19.4275 13.0628C19.507 13.6337 19.6807 13.8968 20.0629 14.1897L18.4297 16.9845L16.6973 14.562C17.5561 14.0854 19.09 13.4996 19.4275 13.0628Z" fill="#709EC4"/>
<path fill-rule="evenodd" clip-rule="evenodd" d="M14.0421 13.0628C13.9627 13.6337 13.789 13.8968 13.4067 14.1897L15.0399 16.9845L16.7724 14.562C15.9136 14.0854 14.3797 13.4996 14.0421 13.0628Z" fill="#709EC4"/>
<path fill-rule="evenodd" clip-rule="evenodd" d="M13.4809 14.1896C11.7782 15.7087 8.36292 14.969 6.7049 17.4014C5.80144 18.7268 6.04964 21.3628 6 24.5547H15.7992C15.0744 21.8542 14.1064 16.0363 13.4809 14.1896Z" fill="#1A3F6A"/>
<path fill-rule="evenodd" clip-rule="evenodd" d="M16.8114 14.6761L17.6653 15.9271L17.6404 16.2448L16.9405 16.9596L17.7248 18.2205L17.4617 24.5547H16.042L15.7441 18.2155L16.5285 16.9546L15.8285 16.2398L15.8087 15.9221L16.6526 14.6711L16.8114 14.6761Z" fill="#245B88"/>
<path fill-rule="evenodd" clip-rule="evenodd" d="M16.8118 14.6761L17.6656 15.9271L17.6408 16.2448L16.9408 16.9596L17.7252 18.2205L17.4621 24.5547H16.7373V14.6711L16.8118 14.6761Z" fill="#1A3F6A"/>
<path fill-rule="evenodd" clip-rule="evenodd" d="M13.4813 14.1896C13.1239 14.4924 12.4835 14.8102 11.8084 15.0484L11.8432 15.0732L11.7588 18.6424L13.2877 18.4737L12.3942 19.6651L13.7444 24.5597H15.7847C15.0699 21.8642 14.1068 16.0462 13.4813 14.1946V14.1896Z" fill="#245B88"/>
<path fill-rule="evenodd" clip-rule="evenodd" d="M13.8973 4.10257C13.3662 4.73798 13.2421 7.21011 13.2768 8.0689C12.3833 4.82237 11.9017 2.50413 13.8427 1.03971C16.3943 -0.876436 19.2586 0.309987 19.7252 1.08935C21.5967 2.12685 20.9464 5.03582 20.3854 7.6122C20.3705 6.62434 19.8989 4.25646 19.5366 3.25371C18.1119 2.3552 15.2773 5.02093 13.9023 4.10257H13.8973Z" fill="#703100"/>
<path fill-rule="evenodd" clip-rule="evenodd" d="M16.7329 0.00219945C18.2221 -0.0424776 19.4384 0.602857 19.7263 1.08438C21.5977 2.12188 20.9474 5.03085 20.3865 7.60722C20.3716 6.61936 19.9 4.25148 19.5376 3.24873C18.8327 2.80692 17.7853 3.22887 16.7379 3.66572V0.00219945H16.7329Z" fill="#4F2200"/>
<path fill-rule="evenodd" clip-rule="evenodd" d="M19.9887 14.1896C21.6913 15.7087 25.1067 14.969 26.7647 17.4014C27.6681 18.7268 27.4199 21.3628 27.4696 24.5547H17.6704C18.3952 21.8542 19.3632 16.0363 19.9887 14.1896Z" fill="#14405F"/>
<path fill-rule="evenodd" clip-rule="evenodd" d="M19.9932 14.1896C20.2116 14.3733 21.6463 15.0683 21.6314 15.0732L21.7158 18.6424L20.1868 18.4737L21.0803 19.6651L19.8393 24.5597H17.6948C18.4097 21.8791 19.3628 16.0611 19.9932 14.1946V14.1896Z" fill="#245B88"/>
<path fill-rule="evenodd" clip-rule="evenodd" d="M17.0659 7.38883C17.2098 7.65689 17.3935 8.17316 17.5623 8.3618C17.736 8.56036 18.1232 8.62489 18.6593 8.61497C19.1756 8.60504 19.7663 8.4859 19.9947 8.24266C20.2131 8.00934 20.3124 7.61718 20.501 7.14062L20.6549 7.06616C20.6946 6.86263 20.7095 6.71371 20.7194 6.51018C20.6748 6.48536 20.5308 6.40593 20.3471 6.36622C19.8805 6.26197 19.121 6.31658 18.8778 6.33147C18.3565 6.37119 17.7261 6.49529 17.1751 6.70378C16.8971 6.80803 16.5694 6.80803 16.2914 6.70378C15.7355 6.49529 15.11 6.37119 14.5888 6.33147C14.3455 6.31162 13.586 6.25701 13.1194 6.36622C12.9357 6.40593 12.7917 6.48536 12.7471 6.51018C12.762 6.71867 12.7769 6.86263 12.8116 7.06616L12.9655 7.14062C13.1541 7.62214 13.2484 8.00934 13.4718 8.24266C13.7002 8.4859 14.2909 8.60504 14.8072 8.61497C15.3433 8.62489 15.7305 8.5554 15.9042 8.3618C16.073 8.17316 16.2567 7.65689 16.4007 7.38883C16.5397 7.13566 16.9269 7.13566 17.0659 7.38883ZM17.3587 7.4484C17.2197 7.07113 17.2148 6.90731 17.3786 6.83781C17.8353 6.63925 18.4012 6.55486 18.843 6.52507C19.0664 6.51018 20.1237 6.47543 20.2627 6.63428C20.3422 6.72364 20.1585 7.3243 20.1039 7.47818C20.0046 7.75121 19.9252 7.97459 19.7862 8.12352C19.5926 8.32705 19.0912 8.42633 18.6593 8.43626C18.2026 8.44619 17.88 8.38662 17.731 8.2228C17.5871 8.06395 17.4431 7.69164 17.3587 7.4484ZM16.1078 7.4484C16.0184 7.69164 15.8794 8.05898 15.7355 8.2228C15.5865 8.38662 15.2639 8.44619 14.8072 8.43626C14.3703 8.42633 13.8739 8.32705 13.6803 8.12352C13.5413 7.97459 13.4569 7.75121 13.3577 7.47818C13.3031 7.3243 13.1194 6.72364 13.1988 6.63428C13.3328 6.4804 14.3902 6.51018 14.6136 6.52507C15.0554 6.55486 15.6213 6.63925 16.078 6.83781C16.2468 6.91227 16.2368 7.07113 16.0978 7.4484H16.1078Z" fill="#1C1C1C"/>
</svg>
