<svg width="110" height="100" viewBox="0 0 72 36" fill="none" xmlns="http://www.w3.org/2000/svg">
<path opacity="0.1" d="M66.3287 32.9756C66.3287 33.8778 52.4358 34.6088 35.2981 34.6088C18.1605 34.6088 4.2666 33.8778 4.2666 32.9756C4.2666 32.0735 18.1595 31.3424 35.2981 31.3424C52.4368 31.3424 66.3287 32.0735 66.3287 32.9756Z" fill="black"/>
<path d="M51.1971 17.2191H50.6719V32.6894H51.1971V17.2191Z" fill="#634C31"/>
<path d="M34.4962 21.9653H33.394V23.4838H34.4962V21.9653Z" fill="#303030"/>
<path d="M34.4041 22.3789H33.4443V29.7584H34.4041V22.3789Z" fill="#56585E"/>
<path d="M39.1488 31.1562L34.5542 28.7069V29.8227L37.8489 31.1562V31.4011H39.1488V31.1562Z" fill="#0A2126"/>
<path d="M34.555 29.8228H33.3086V28.707V27.809H34.555V29.8228Z" fill="#0A2126"/>
<path d="M28.7134 31.1562L33.308 28.7069V29.8227L30.0133 31.1562V31.4011H28.7134V31.1562Z" fill="#0A2126"/>
<path d="M33.5126 28.7069V31.4011H33.2051V31.5916H34.5549V31.4011H34.2691L34.359 28.7069H33.5126Z" fill="#0A2126"/>
<path d="M35.9412 18.2468H31.3747L30.1201 10.4799C29.8952 9.08473 30.9719 7.81927 32.3853 7.81927H34.9307C36.344 7.81927 37.4217 9.08473 37.1958 10.4799L35.9412 18.2468Z" fill="#004555"/>
<path d="M30.7521 14.3925L28.8779 15.1364L30.0291 19.9315L30.5325 19.8571L29.981 15.6797L30.977 15.2516L30.7521 14.3925Z" fill="#1E0C00"/>
<path d="M36.4401 14.3925L38.0448 15.5056L37.7781 20.18L37.1304 20.0594L37.3572 16.029L36.0718 15.2752L36.4401 14.3925Z" fill="#1E0C00"/>
<path d="M38.5262 20.7043H29.981V19.8571H37.6798C38.1479 19.8571 38.5271 20.2362 38.5271 20.7043H38.5262Z" fill="#0089A9"/>
<path d="M35.6803 4.63799C35.6803 4.63799 35.4988 6.66453 36.0567 7.22242C36.6137 7.7803 36.6935 7.76488 36.8868 7.71136C36.8868 7.71136 36.7579 8.05426 36.4033 8.07694C36.3788 8.07875 36.3543 8.07875 36.328 8.07694C35.9161 8.05154 36.3606 8.38808 36.5747 8.46337C36.7897 8.53867 36.1447 8.62485 35.6939 8.5169C35.4154 8.45068 32.5262 8.48696 32.0762 8.08691C31.7959 7.83836 33.0233 6.58924 33.0813 5.9615C33.231 4.32413 35.6803 4.6389 35.6803 4.6389V4.63799Z" fill="#1E1D1F"/>
<path d="M41.4957 4.46203C41.4957 4.46203 41.2263 5.0308 41.1083 5.68394C40.9913 6.33707 41.1691 7.49548 41.4957 7.9808C41.8222 8.46611 41.8549 8.64664 42.1497 8.64664C42.4445 8.64664 43.6247 8.12775 43.7299 6.92671C43.8352 5.72566 41.581 4.46112 41.581 4.46112H41.4957V4.46203Z" fill="#E9A871"/>
<path d="M53.6853 14.7335C53.6853 14.7335 52.927 14.3869 52.6929 14.1529C52.4589 13.9189 51.7196 13.3093 51.3449 13.3093C50.9703 13.3093 49.0989 14.1475 49.361 14.2436C49.6232 14.3398 51.0637 13.9089 51.0637 13.9089C51.0637 13.9089 49.3792 14.601 49.6785 14.7326C49.9779 14.8632 50.895 14.5076 50.895 14.5076C50.895 14.5076 50.4269 14.7326 50.4269 14.9004C50.4269 15.0682 51.1127 14.7317 51.5091 14.7317C51.9055 14.7317 52.9533 15.3866 52.9533 15.3866L53.6835 14.7317L53.6853 14.7335Z" fill="#FC9575"/>
<path d="M3.90681 25.2221C3.76439 25.3709 3.50495 25.4652 3.21194 25.4552C2.91894 25.4444 2.66767 25.3319 2.53613 25.1731C2.67855 25.0244 2.93799 24.93 3.23099 24.94C3.524 24.9509 3.77528 25.0634 3.90681 25.2221Z" fill="#59C465"/>
<path d="M7.08591 31.3244C6.89088 29.9909 6.80107 28.6429 6.82375 27.2985C6.82919 26.6264 6.86638 25.9542 6.91991 25.2847C6.9707 24.6143 7.05235 23.9476 7.14578 23.2827C7.33628 21.9537 7.6057 20.6366 7.93952 19.3375C8.10734 18.688 8.2924 18.0431 8.49469 17.4035C8.69789 16.764 8.9156 16.1299 9.16597 15.5067L9.24489 15.5394C9.00359 16.1608 8.79404 16.7976 8.59992 17.4371C8.40579 18.0766 8.22981 18.7216 8.07106 19.3711C7.75447 20.6701 7.50319 21.9846 7.32993 23.309C7.24557 23.9712 7.17209 24.6352 7.13036 25.301C7.08591 25.9669 7.05779 26.6336 7.06051 27.3004C7.05507 28.6338 7.1603 29.9664 7.36985 31.28L7.08773 31.3244H7.08591Z" fill="#59C465"/>
<path d="M9.55734 12.8334C9.17725 13.062 8.87518 13.5473 8.79081 14.1406C8.70645 14.7339 8.86248 15.2845 9.16365 15.6102C9.54374 15.3816 9.84672 14.8962 9.93017 14.3021C10.0145 13.7088 9.85851 13.1582 9.55734 12.8325V12.8334Z" fill="#59C465"/>
<path d="M7.31889 14.879C7.27263 15.2228 7.41958 15.6437 7.7398 15.9857C8.06002 16.3277 8.47095 16.5018 8.81748 16.4774C8.86374 16.1335 8.71678 15.7126 8.39656 15.3706C8.07635 15.0287 7.66542 14.8545 7.3198 14.879H7.31889Z" fill="#59C465"/>
<path d="M8.84766 16.6687C9.13885 16.8574 9.58334 16.9036 10.0287 16.7594C10.4741 16.6152 10.8071 16.3176 10.9323 15.9938C10.6411 15.8051 10.1966 15.7588 9.75116 15.9031C9.30576 16.0473 8.97284 16.3449 8.84766 16.6687Z" fill="#59C465"/>
<path d="M8.44678 17.9325C8.73797 18.1203 9.18246 18.1674 9.62787 18.0232C10.0733 17.879 10.4062 17.5805 10.5314 17.2576C10.2402 17.0698 9.79569 17.0226 9.35028 17.1669C8.90488 17.3111 8.57196 17.6086 8.44678 17.9325Z" fill="#59C465"/>
<path d="M7.9917 19.441C8.28289 19.6297 8.72739 19.6759 9.17279 19.5317C9.61819 19.3875 9.95111 19.089 10.0763 18.7661C9.78511 18.5774 9.34061 18.5311 8.89521 18.6754C8.4498 18.8196 8.11688 19.1171 7.9917 19.441Z" fill="#59C465"/>
<path d="M7.68652 20.8461C7.97771 21.0348 8.4213 21.0811 8.86761 20.9368C9.31302 20.7926 9.64593 20.4951 9.77111 20.1712C9.47992 19.9825 9.03543 19.9363 8.59003 20.0805C8.14463 20.2247 7.81171 20.5223 7.68652 20.8461Z" fill="#59C465"/>
<path d="M7.81311 20.5613C7.52192 20.7491 7.07743 20.7963 6.63202 20.652C6.18662 20.5078 5.8537 20.2103 5.72852 19.8864C6.01971 19.6986 6.4642 19.6515 6.90961 19.7957C7.35501 19.9399 7.68793 20.2375 7.81311 20.5613Z" fill="#59C465"/>
<path d="M6.91117 16.2153C6.86491 16.5591 7.01187 16.9809 7.33209 17.322C7.6523 17.664 8.06324 17.8381 8.40885 17.8137C8.45512 17.4699 8.30816 17.048 7.98794 16.707C7.66772 16.365 7.25679 16.1908 6.91117 16.2153Z" fill="#59C465"/>
<path d="M6.44291 17.7338C6.39665 18.0776 6.54361 18.4994 6.86382 18.8405C7.18404 19.1825 7.59497 19.3566 7.94059 19.3321C7.98686 18.9883 7.8399 18.5665 7.51969 18.2254C7.19947 17.8835 6.78853 17.7093 6.44291 17.7338Z" fill="#59C465"/>
<path d="M15.6639 19.0255C15.0816 19.3466 14.5355 19.7258 14.0057 20.125C13.4768 20.5259 12.9716 20.9586 12.489 21.414C12.0064 21.8703 11.5465 22.3511 11.1119 22.8536C10.6792 23.358 10.2737 23.8859 9.89365 24.432C9.13438 25.5251 8.5012 26.7053 7.99139 27.9372C7.49338 29.1736 7.12418 30.4627 6.89014 31.7771L7.17225 31.8243C7.38271 30.5262 7.72742 29.2498 8.20004 28.0207C8.68445 26.7969 9.29222 25.6195 10.0288 24.5246C10.3962 23.9776 10.7908 23.4469 11.2135 22.9398C11.6372 22.4336 12.0871 21.9492 12.5606 21.4875C13.0341 21.0276 13.5304 20.5885 14.051 20.1812C14.5727 19.7757 15.1115 19.3884 15.6848 19.0609L15.6657 19.0255H15.6639Z" fill="#59C465"/>
<path d="M17.8123 17.5252C17.7814 17.9678 17.4866 18.4577 16.9968 18.8033C16.5069 19.148 15.9454 19.2596 15.519 19.1399C15.5499 18.6972 15.8447 18.2073 16.3346 17.8617C16.8244 17.517 17.3859 17.4054 17.8123 17.5252Z" fill="#59C465"/>
<path d="M14.5118 17.1496C14.8393 17.449 15.0407 17.9842 15.0062 18.5829C14.9717 19.1816 14.7105 19.6905 14.3512 19.9499C14.0238 19.6506 13.8224 19.1154 13.8568 18.5166C13.8913 17.9179 14.1526 17.4099 14.5118 17.1496Z" fill="#59C465"/>
<path d="M12.5645 18.1282C12.96 18.3296 13.2965 18.7923 13.4226 19.3783C13.5487 19.9643 13.4326 20.524 13.155 20.8705C12.7595 20.6691 12.4229 20.2065 12.2969 19.6205C12.1708 19.0345 12.2869 18.4748 12.5645 18.1282Z" fill="#59C465"/>
<path d="M11.2495 19.3376C11.645 19.539 11.9816 20.0016 12.1077 20.5876C12.2338 21.1736 12.1176 21.7333 11.8401 22.0799C11.4445 21.8785 11.108 21.4158 10.9819 20.8298C10.8558 20.2438 10.9719 19.6841 11.2495 19.3376Z" fill="#59C465"/>
<path d="M9.7367 20.5803C10.1703 20.6738 10.6139 21.0348 10.886 21.5691C11.1582 22.1034 11.189 22.674 11.0094 23.0804C10.5758 22.9869 10.1322 22.6259 9.86007 22.0916C9.58793 21.5573 9.55709 20.9867 9.7367 20.5812V20.5803Z" fill="#59C465"/>
<path d="M8.67063 22.136C9.06704 22.1187 9.5315 22.331 9.88619 22.732C10.2418 23.132 10.3969 23.6191 10.3334 24.0101C9.93789 24.0274 9.47254 23.8151 9.11785 23.4141C8.76225 23.0141 8.60713 22.527 8.67063 22.136Z" fill="#59C465"/>
<path d="M7.8967 23.1149C8.29221 23.0976 8.75757 23.3099 9.11226 23.7108C9.46786 24.1109 9.62298 24.598 9.55948 24.989C9.16397 25.0062 8.69861 24.794 8.34392 24.393C7.98832 23.993 7.8332 23.5058 7.8967 23.1149Z" fill="#59C465"/>
<path d="M7.45578 24.5572C7.79505 24.5427 8.19328 24.7241 8.49808 25.0679C8.80288 25.4108 8.93531 25.8281 8.88089 26.1637C8.54162 26.1783 8.14339 25.9968 7.83859 25.653C7.53379 25.3101 7.40135 24.8928 7.45578 24.5572Z" fill="#59C465"/>
<path d="M7.02678 26.0622C7.27352 25.9225 7.64091 25.9061 8.00014 26.0449C8.36027 26.1837 8.62062 26.4422 8.71042 26.7117C8.46368 26.8514 8.09629 26.8677 7.73616 26.7289C7.37603 26.5901 7.11569 26.3316 7.02588 26.0622H7.02678Z" fill="#59C465"/>
<path d="M6.85498 27.3022C7.00647 27.1335 7.28133 27.0264 7.58976 27.04C7.89818 27.0536 8.16307 27.1834 8.29914 27.3648C8.14764 27.5335 7.87279 27.6406 7.56436 27.627C7.25593 27.6133 6.99196 27.4836 6.85498 27.3022Z" fill="#59C465"/>
<path d="M16.9983 20.8199C16.6209 21.0531 16.0513 21.1012 15.4852 20.9052C14.9182 20.7093 14.5001 20.3192 14.3477 19.9028C14.725 19.6697 15.2947 19.6216 15.8608 19.8176C16.4277 20.0135 16.8459 20.4036 16.9983 20.8199Z" fill="#59C465"/>
<path d="M15.802 21.8049C15.4246 22.0381 14.855 22.0861 14.2889 21.8902C13.7229 21.6943 13.3038 21.3042 13.1514 20.8878C13.5287 20.6547 14.0984 20.6066 14.6645 20.8025C15.2305 20.9985 15.6496 21.3886 15.802 21.8049Z" fill="#59C465"/>
<path d="M14.5261 23.0187C14.1488 23.2518 13.5791 23.2999 13.013 23.1039C12.447 22.908 12.0279 22.5179 11.8755 22.1016C12.2529 21.8684 12.8225 21.8203 13.3886 22.0163C13.9546 22.2122 14.3737 22.6023 14.5261 23.0187Z" fill="#59C465"/>
<path d="M13.0865 23.8261C12.7799 24.0157 12.3163 24.0547 11.8555 23.896C11.3947 23.7363 11.0545 23.4197 10.9312 23.0805C11.2378 22.8909 11.7013 22.8519 12.1621 23.0106C12.623 23.1703 12.9631 23.4869 13.0874 23.8261H13.0865Z" fill="#59C465"/>
<path d="M12.0093 24.5971C11.7589 24.7595 11.3824 24.7967 11.0096 24.6679C10.6377 24.5391 10.3646 24.2769 10.2676 23.9948C10.5179 23.8324 10.8944 23.7952 11.2672 23.924C11.6392 24.0528 11.9122 24.315 12.0093 24.5971Z" fill="#59C465"/>
<path d="M11.3647 25.5896C11.1135 25.7519 10.7379 25.7891 10.3651 25.6603C9.99316 25.5315 9.72011 25.2693 9.62305 24.9872C9.87342 24.8248 10.2499 24.7877 10.6227 24.9165C10.9946 25.0453 11.2677 25.3074 11.3647 25.5896Z" fill="#59C465"/>
<path d="M10.6592 26.4868C10.456 26.66 10.115 26.7435 9.75029 26.6845C9.38471 26.6256 9.08808 26.4387 8.9502 26.2101C9.15339 26.0368 9.49448 25.9534 9.85914 26.0123C10.2247 26.0713 10.5214 26.2582 10.6592 26.4868Z" fill="#59C465"/>
<path d="M9.97688 27.617C9.74828 27.6823 9.44348 27.6234 9.17497 27.4392C8.90555 27.2551 8.74045 26.9929 8.71777 26.7561C8.94637 26.6908 9.25117 26.7498 9.52059 26.9339C9.79001 27.1181 9.95511 27.3793 9.97778 27.617H9.97688Z" fill="#59C465"/>
<path d="M9.21764 28.2919C9.03621 28.3082 8.81578 28.2212 8.6398 28.0443C8.46381 27.8683 8.37673 27.6478 8.39305 27.4664C8.57448 27.4501 8.79492 27.5372 8.9709 27.7141C9.14689 27.8901 9.23397 28.1114 9.21764 28.2919Z" fill="#59C465"/>
<path d="M8.71372 28.4687C8.59489 28.4869 8.45429 28.4388 8.34634 28.3309C8.23839 28.2229 8.19122 28.0823 8.20936 27.9635C8.32819 27.9453 8.4688 27.9934 8.57675 28.1013C8.6847 28.2093 8.73187 28.3499 8.71372 28.4687Z" fill="#59C465"/>
<path d="M8.55162 28.8026C8.43278 28.8207 8.29217 28.7727 8.18422 28.6647C8.07627 28.5568 8.02911 28.4162 8.04725 28.2973C8.16608 28.2792 8.30669 28.3273 8.41464 28.4352C8.52259 28.5432 8.56976 28.6838 8.55162 28.8026Z" fill="#59C465"/>
<path d="M2.70795 17.906C3.12432 18.3614 3.4908 18.8576 3.83642 19.3665C4.18113 19.8763 4.49591 20.407 4.78528 20.9513C5.07375 21.4955 5.3341 22.0552 5.56632 22.6267C5.79583 23.1991 5.9954 23.7833 6.16594 24.3766C6.50702 25.5631 6.71113 26.7887 6.79186 28.0224C6.8599 29.257 6.80093 30.4997 6.61406 31.7235L6.35281 31.6808C6.5551 30.478 6.63311 29.2542 6.58413 28.0332C6.52335 26.8141 6.34011 25.5985 6.0208 24.4174C5.86114 23.8269 5.67246 23.2436 5.45293 22.6721C5.23069 22.1015 4.98122 21.5409 4.70273 20.9957C4.42424 20.4505 4.11945 19.9171 3.7829 19.4037C3.44636 18.8921 3.08713 18.3913 2.68164 17.9323L2.70885 17.9069L2.70795 17.906Z" fill="#33A441"/>
<path d="M1.26716 15.9477C1.16284 16.3459 1.27533 16.8639 1.6028 17.3129C1.93028 17.762 2.3902 18.0268 2.80113 18.0486C2.90545 17.6504 2.79297 17.1324 2.46549 16.6834C2.13801 16.2343 1.6781 15.9695 1.26716 15.9477Z" fill="#33A441"/>
<path d="M4.27791 16.6025C3.90145 16.7676 3.5649 17.1777 3.41613 17.7138C3.26827 18.2499 3.34538 18.7742 3.58396 19.1099C3.96042 18.9448 4.29696 18.5347 4.44573 17.9986C4.5936 17.4625 4.51649 16.9382 4.27791 16.6025Z" fill="#33A441"/>
<path d="M5.69819 18.0421C5.29089 18.1011 4.85728 18.4068 4.57153 18.8839C4.28578 19.3611 4.22138 19.8872 4.36107 20.2746C4.76838 20.2156 5.20199 19.9099 5.48773 19.4327C5.77348 18.9556 5.83789 18.4295 5.69728 18.0421H5.69819Z" fill="#33A441"/>
<path d="M6.49194 19.4963C6.08464 19.5552 5.65103 19.8609 5.36619 20.3381C5.08044 20.8152 5.01603 21.3414 5.15664 21.7287C5.56394 21.6698 5.99755 21.3641 6.2833 20.8869C6.56905 20.4098 6.63345 19.8836 6.49285 19.4963H6.49194Z" fill="#33A441"/>
<path d="M7.451 21.0393C7.04189 20.9922 6.54478 21.1772 6.14654 21.5655C5.74831 21.9537 5.55146 22.4463 5.58775 22.8554C5.99686 22.9026 6.49397 22.7175 6.8913 22.3293C7.28953 21.941 7.48638 21.4484 7.45009 21.0393H7.451Z" fill="#33A441"/>
<path d="M7.92309 22.7239C7.58019 22.5915 7.10939 22.6387 6.6776 22.8845C6.2458 23.1303 5.96459 23.5113 5.90381 23.8742C6.24671 24.0066 6.71751 23.9594 7.14931 23.7136C7.5811 23.4678 7.86231 23.0868 7.92309 22.7239Z" fill="#33A441"/>
<path d="M8.31078 23.8134C7.96789 23.681 7.49709 23.7281 7.06529 23.974C6.6335 24.2198 6.35228 24.6008 6.2915 24.9637C6.6344 25.0961 7.1052 25.0489 7.537 24.8031C7.96879 24.5573 8.25001 24.1763 8.31078 23.8134Z" fill="#33A441"/>
<path d="M8.26792 25.2131C7.97401 25.0997 7.57033 25.1405 7.20022 25.351C6.83011 25.5614 6.58882 25.888 6.53711 26.1991C6.83102 26.3125 7.23469 26.2717 7.6048 26.0613C7.97491 25.8508 8.21622 25.5242 8.26792 25.2131Z" fill="#33A441"/>
<path d="M8.19528 26.6618C8.02021 26.4658 7.70271 26.3416 7.3453 26.3561C6.98789 26.3706 6.68128 26.5203 6.52344 26.7298C6.69851 26.9257 7.01601 27.05 7.37342 27.0355C7.73083 27.021 8.03744 26.8713 8.19528 26.6618Z" fill="#33A441"/>
<path d="M7.97814 27.8029C7.89559 27.6088 7.68604 27.4337 7.41118 27.3539C7.13632 27.274 6.86509 27.3085 6.69092 27.4273C6.77347 27.6215 6.98302 27.7965 7.25788 27.8764C7.53274 27.9571 7.80397 27.9217 7.97814 27.8029Z" fill="#33A441"/>
<path d="M1.00091 19.0855C1.26216 19.403 1.74929 19.6153 2.30446 19.6116C2.86053 19.608 3.34404 19.3912 3.60166 19.0701C3.34041 18.7526 2.85418 18.5403 2.29811 18.5439C1.74204 18.5476 1.25853 18.7644 1 19.0855H1.00091Z" fill="#33A441"/>
<path d="M1.7583 20.3064C2.01956 20.6239 2.50578 20.8361 3.06185 20.8325C3.61792 20.8289 4.10143 20.6121 4.35905 20.291C4.0978 19.9735 3.61157 19.7612 3.0555 19.7648C2.49943 19.7684 2.01593 19.9852 1.7583 20.3064Z" fill="#33A441"/>
<path d="M2.51556 21.7533C2.77681 22.0708 3.26394 22.283 3.81911 22.2794C4.37518 22.2758 4.85868 22.059 5.11631 21.7379C4.85505 21.4204 4.36883 21.2081 3.81276 21.2117C3.25668 21.2153 2.77318 21.4321 2.51465 21.7533H2.51556Z" fill="#33A441"/>
<path d="M3.53955 22.8917C3.75273 23.1502 4.14824 23.3226 4.59999 23.3199C5.05265 23.3172 5.44544 23.1403 5.6559 22.8799C5.44272 22.6214 5.04721 22.449 4.59546 22.4518C4.1428 22.4545 3.75001 22.6314 3.54046 22.8917H3.53955Z" fill="#33A441"/>
<path d="M4.25684 23.8905C4.42919 24.1073 4.7485 24.2524 5.11408 24.2506C5.47965 24.2488 5.79715 24.1 5.96678 23.8805C5.79533 23.6637 5.47511 23.5185 5.11045 23.5203C4.74487 23.5222 4.42738 23.6709 4.25774 23.8905H4.25684Z" fill="#33A441"/>
<path d="M4.52686 24.9536C4.69921 25.1704 5.01852 25.3156 5.38319 25.3138C5.74876 25.3119 6.06626 25.1632 6.2359 24.9436C6.06445 24.7268 5.74423 24.5817 5.37956 24.5835C5.01399 24.5853 4.69649 24.7341 4.52686 24.9536Z" fill="#33A441"/>
<path d="M4.87891 25.9524C5.0059 26.1647 5.27986 26.3398 5.61822 26.3969C5.95658 26.4541 6.27317 26.3779 6.46276 26.2191C6.33576 26.0069 6.06181 25.8318 5.72345 25.7746C5.38509 25.7175 5.0685 25.7937 4.87891 25.9524Z" fill="#33A441"/>
<path d="M5.14111 27.1489C5.32254 27.2741 5.60738 27.3131 5.89857 27.2324C6.18976 27.1517 6.41292 26.9702 6.50363 26.7689C6.3222 26.6437 6.03736 26.6047 5.74617 26.6854C5.45498 26.767 5.23183 26.9476 5.14111 27.1489Z" fill="#33A441"/>
<path d="M5.60742 27.9681C5.76163 28.0361 5.98116 28.0252 6.18889 27.9227C6.39663 27.8202 6.53814 27.6524 6.57806 27.4882C6.42384 27.4202 6.20431 27.4311 5.99658 27.5336C5.78885 27.6361 5.64734 27.8039 5.60742 27.9681Z" fill="#33A441"/>
<path d="M5.99756 28.2728C6.09644 28.3245 6.23432 28.3245 6.36132 28.2619C6.48832 28.1993 6.57177 28.0904 6.59173 27.9798C6.49285 27.9281 6.35497 27.9281 6.22797 27.9907C6.10097 28.0533 6.01752 28.1621 5.99756 28.2728Z" fill="#33A441"/>
<path d="M6.04102 28.6148C6.13989 28.6665 6.27778 28.6665 6.40478 28.6039C6.53178 28.5413 6.61523 28.4324 6.63428 28.3218C6.53541 28.2701 6.39752 28.2701 6.27052 28.3326C6.14352 28.3952 6.06007 28.5041 6.04102 28.6148Z" fill="#33A441"/>
<path d="M11.5234 16.5527C11.0998 17.0653 10.7306 17.6186 10.384 18.1847C10.0393 18.7516 9.72817 19.3394 9.44605 19.9409C9.16394 20.5423 8.91356 21.1583 8.69313 21.786C8.47542 22.4146 8.29218 23.0542 8.13978 23.7019C7.83407 24.9972 7.67895 26.3271 7.65718 27.6606C7.64811 28.9932 7.77783 30.3285 8.04271 31.6366L8.32211 31.5767C8.0409 30.2922 7.89304 28.9777 7.88125 27.6615C7.88306 26.3452 8.0155 25.0263 8.29853 23.7381C8.44004 23.0941 8.61239 22.4564 8.81831 21.8295C9.02695 21.2036 9.26734 20.5868 9.53858 19.9844C9.80981 19.3821 10.111 18.7924 10.4448 18.2219C10.7804 17.6531 11.1406 17.0952 11.5533 16.58L11.5234 16.5536V16.5527Z" fill="#1C7627"/>
<path d="M12.9728 14.3682C13.1062 14.7909 13.0128 15.3551 12.6835 15.8559C12.3542 16.3566 11.8734 16.6659 11.4316 16.7113C11.2983 16.2886 11.3917 15.7243 11.721 15.2236C12.0503 14.7229 12.5311 14.4135 12.9728 14.3682Z" fill="#1C7627"/>
<path d="M9.76414 15.2311C10.1787 15.3889 10.5624 15.8135 10.7502 16.3822C10.938 16.951 10.8817 17.5207 10.6431 17.8944C10.2286 17.7366 9.84487 17.312 9.65709 16.7433C9.46931 16.1745 9.52556 15.6048 9.76414 15.2311Z" fill="#1C7627"/>
<path d="M8.31165 16.8557C8.75342 16.8983 9.23601 17.2049 9.56803 17.7029C9.90094 18.2018 9.99801 18.7652 9.86738 19.1888C9.4256 19.1462 8.94301 18.8396 8.61009 18.3415C8.27808 17.8426 8.18011 17.2793 8.31074 16.8557H8.31165Z" fill="#1C7627"/>
<path d="M7.532 18.4632C7.97377 18.5058 8.45637 18.8124 8.78929 19.3105C9.1213 19.8094 9.21927 20.3727 9.08864 20.7963C8.64687 20.7537 8.16427 20.4471 7.83226 19.9491C7.50025 19.4502 7.40228 18.8868 7.53291 18.4632H7.532Z" fill="#1C7627"/>
<path d="M6.58062 20.1749C7.01877 20.1023 7.56305 20.2756 8.01298 20.6729C8.46201 21.0702 8.70059 21.59 8.68245 22.0327C8.2443 22.1053 7.70003 21.932 7.251 21.5347C6.80196 21.1374 6.56339 20.6176 6.58153 20.1749H6.58062Z" fill="#1C7627"/>
<path d="M6.16162 22.0136C6.52357 21.8531 7.03338 21.8794 7.51144 22.1216C7.98859 22.3638 8.31244 22.7593 8.39589 23.1466C8.03395 23.3072 7.52414 23.2809 7.04608 23.0387C6.56892 22.7965 6.24598 22.401 6.16162 22.0136Z" fill="#1C7627"/>
<path d="M5.80176 23.2075C6.1637 23.0469 6.67351 23.0732 7.15157 23.3154C7.62872 23.5576 7.95257 23.9531 8.03602 24.3405C7.67408 24.501 7.16427 24.4747 6.68621 24.2325C6.20906 23.9903 5.88521 23.5948 5.80176 23.2075Z" fill="#1C7627"/>
<path d="M5.91992 24.7115C6.23016 24.5736 6.6674 24.5963 7.07652 24.8041C7.48563 25.0118 7.76231 25.3502 7.83488 25.6822C7.52464 25.82 7.0874 25.7974 6.67828 25.5896C6.26917 25.3819 5.99159 25.0435 5.91992 24.7115Z" fill="#1C7627"/>
<path d="M6.07373 26.269C6.25244 26.0485 6.58717 25.8989 6.9727 25.8952C7.35823 25.8925 7.69568 26.0368 7.87802 26.2545C7.69931 26.4749 7.36458 26.6246 6.97905 26.6282C6.59352 26.6309 6.25606 26.4867 6.07373 26.269Z" fill="#1C7627"/>
<path d="M6.36865 27.4855C6.44757 27.2723 6.66438 27.0727 6.95647 26.972C7.24857 26.8713 7.54157 26.8949 7.7357 27.0137C7.65678 27.2269 7.43997 27.4265 7.14788 27.5272C6.85578 27.6279 6.56278 27.6043 6.36865 27.4855Z" fill="#1C7627"/>
<path d="M13.4242 17.7319C13.1593 18.0875 12.6468 18.3415 12.0481 18.3669C11.4494 18.3923 10.9169 18.1837 10.6221 17.8517C10.887 17.4961 11.3995 17.2421 11.9982 17.2167C12.5969 17.1913 13.1294 17.3999 13.4242 17.7319Z" fill="#1C7627"/>
<path d="M12.6732 19.0872C12.4083 19.4428 11.8958 19.6968 11.2971 19.7222C10.6984 19.7476 10.1659 19.539 9.87109 19.207C10.136 18.8514 10.6485 18.5974 11.2472 18.572C11.8459 18.5466 12.3784 18.7552 12.6732 19.0872Z" fill="#1C7627"/>
<path d="M11.932 20.6846C11.6671 21.0402 11.1546 21.2942 10.5559 21.3196C9.95719 21.345 9.4247 21.1363 9.12988 20.8043C9.39477 20.4487 9.90729 20.1947 10.506 20.1693C11.1047 20.1439 11.6372 20.3526 11.932 20.6846Z" fill="#1C7627"/>
<path d="M10.8896 21.9646C10.6737 22.254 10.2573 22.4599 9.77016 22.4808C9.28303 22.5017 8.85032 22.332 8.61084 22.0617C8.82674 21.7723 9.24311 21.5664 9.73025 21.5456C10.2174 21.5247 10.6501 21.6943 10.8896 21.9646Z" fill="#1C7627"/>
<path d="M10.1702 23.0776C9.9969 23.3208 9.66035 23.4931 9.26665 23.5104C8.87296 23.5276 8.52372 23.3834 8.32959 23.1566C8.50285 22.9135 8.8394 22.7411 9.23309 22.7239C9.62679 22.7066 9.97694 22.8509 10.1702 23.0776Z" fill="#1C7627"/>
<path d="M9.9353 24.2361C9.76113 24.4792 9.42549 24.6516 9.0318 24.6688C8.6381 24.686 8.28885 24.5418 8.09473 24.315C8.26799 24.0719 8.60454 23.8995 8.99823 23.8823C9.39193 23.8651 9.74208 24.0093 9.9353 24.2361Z" fill="#1C7627"/>
<path d="M9.60733 25.3301C9.48214 25.5659 9.19549 25.7682 8.83445 25.8472C8.47251 25.9261 8.1287 25.8617 7.91553 25.6993C8.04071 25.4634 8.32736 25.2611 8.6884 25.1822C9.05035 25.1033 9.39506 25.1677 9.60733 25.3301Z" fill="#1C7627"/>
<path d="M9.38858 26.6318C9.1999 26.7761 8.8951 26.8332 8.57669 26.7615C8.2592 26.689 8.00883 26.5066 7.90088 26.2944C8.08956 26.1501 8.39436 26.093 8.71276 26.1647C9.03026 26.2372 9.28063 26.4196 9.38858 26.6318Z" fill="#1C7627"/>
<path d="M8.9293 27.5391C8.76693 27.6207 8.52926 27.6207 8.30066 27.5209C8.07206 27.4212 7.90969 27.2488 7.85889 27.0737C8.02126 26.9921 8.25893 26.9921 8.48753 27.0919C8.71613 27.1916 8.8785 27.364 8.9293 27.5391Z" fill="#1C7627"/>
<path d="M8.52514 27.8882C8.42082 27.949 8.27296 27.9562 8.13326 27.8954C7.99356 27.8347 7.8974 27.7213 7.87109 27.6042C7.97541 27.5435 8.12328 27.5362 8.26298 27.597C8.40267 27.6578 8.49883 27.7712 8.52514 27.8882Z" fill="#1C7627"/>
<path d="M8.49681 28.2584C8.39249 28.3192 8.24463 28.3265 8.10493 28.2657C7.96523 28.2049 7.86908 28.0915 7.84277 27.9745C7.94709 27.9137 8.09495 27.9064 8.23465 27.9672C8.37435 28.028 8.47051 28.1414 8.49681 28.2584Z" fill="#1C7627"/>
<path d="M5.36232 27.237C4.7364 26.319 4.07601 25.4227 3.37207 24.5619L3.38386 24.5519C4.10594 25.3991 4.78448 26.2827 5.43036 27.1889C6.07442 28.097 6.68311 29.0322 7.23011 30.0047C7.36165 30.2405 7.49046 30.4791 7.61474 30.7195C7.56575 30.7467 7.51767 30.7739 7.46959 30.802C7.34985 30.558 7.22558 30.3167 7.09858 30.0772C6.57425 29.0993 5.98734 28.155 5.36323 27.2361L5.36232 27.237Z" fill="#59C465"/>
<path d="M2.68185 23.3915C2.91227 23.4124 3.15266 23.5666 3.30324 23.8179C3.45382 24.0692 3.47741 24.3531 3.3876 24.5672C3.15628 24.5463 2.9168 24.3921 2.76531 24.1408C2.61473 23.8896 2.59114 23.6056 2.68095 23.3915H2.68185Z" fill="#59C465"/>
<path d="M4.39767 23.9276C4.49201 24.1108 4.49654 24.3866 4.39131 24.6605C4.28609 24.9345 4.0965 25.1349 3.90418 25.2075C3.80984 25.0243 3.80531 24.7485 3.91053 24.4746C4.01667 24.2006 4.20535 24.0001 4.39767 23.9276Z" fill="#59C465"/>
<path d="M4.45605 25.9459C4.29912 26.0801 4.03242 26.1473 3.74123 26.1074C3.45095 26.0674 3.21147 25.9296 3.09717 25.7581C3.2541 25.6239 3.52079 25.5567 3.81198 25.5966C4.10227 25.6366 4.34175 25.7744 4.45605 25.9459Z" fill="#59C465"/>
<path d="M5.14893 26.8405C4.99199 26.9747 4.7253 27.0427 4.43411 27.0019C4.14382 26.962 3.90434 26.8241 3.79004 26.6527C3.94697 26.5184 4.21458 26.4504 4.50486 26.4912C4.79514 26.5311 5.03463 26.669 5.14893 26.8405Z" fill="#59C465"/>
<path d="M5.62012 27.5535C5.46319 27.6877 5.19558 27.7558 4.9053 27.715C4.61502 27.675 4.37644 27.5372 4.26123 27.3657C4.41816 27.2315 4.68486 27.1643 4.97605 27.2042C5.26634 27.2442 5.50582 27.382 5.62012 27.5535Z" fill="#59C465"/>
<path d="M6.14258 28.34C5.98564 28.4742 5.71804 28.5413 5.42775 28.5014C5.13747 28.4615 4.8989 28.3236 4.78369 28.1522C4.94063 28.0179 5.20732 27.9499 5.49851 27.9907C5.7888 28.0306 6.02737 28.1685 6.14258 28.34Z" fill="#59C465"/>
<path d="M5.00111 24.6951C5.09545 24.8784 5.09999 25.1541 4.99385 25.4281C4.88863 25.702 4.69904 25.9025 4.50672 25.9751C4.41238 25.7919 4.40785 25.5161 4.51307 25.2421C4.6183 24.9682 4.80789 24.7677 5.00111 24.6951Z" fill="#59C465"/>
<path d="M5.57826 25.4853C5.6726 25.6685 5.67714 25.9443 5.57191 26.2183C5.46578 26.4922 5.27709 26.6927 5.08387 26.7653C4.98953 26.582 4.98499 26.3062 5.09022 26.0323C5.19636 25.7583 5.38504 25.5579 5.57826 25.4853Z" fill="#59C465"/>
<path d="M6.12758 26.2817C6.22192 26.4649 6.22645 26.7407 6.12123 27.0146C6.016 27.2886 5.82641 27.4891 5.63319 27.5616C5.53885 27.3784 5.53431 27.1026 5.63954 26.8287C5.74477 26.5556 5.93436 26.3542 6.12758 26.2817Z" fill="#59C465"/>
<path d="M6.65882 27.0619C6.75317 27.2451 6.7577 27.5209 6.65247 27.7949C6.54725 28.0688 6.35766 28.2693 6.16444 28.3419C6.0701 28.1586 6.06556 27.8828 6.17079 27.6089C6.27692 27.3349 6.4656 27.1345 6.65882 27.0619Z" fill="#59C465"/>
<path d="M4.94879 29.3388H9.10618C9.79651 29.6917 10.2356 30.216 10.2356 30.8029C10.2356 31.4288 9.73573 31.9849 8.96376 32.336H5.09302C4.32015 31.9849 3.82031 31.4288 3.82031 30.8029C3.82031 30.2169 4.25846 29.6917 4.94969 29.3388H4.94879Z" fill="url(#paint0_linear_6413_74467)"/>
<path d="M5.33997 29.6672C4.92995 29.6191 4.38113 29.9284 4.23962 30.5498C4.0464 31.7762 5.27375 32.1355 5.94412 31.8243C5.35993 31.6774 4.72131 31.4098 4.70316 30.8065C4.67051 30.4908 4.85828 30.186 4.86191 30.177C4.88822 30.1398 4.93993 30.0482 5.0379 29.9411C5.12407 29.8377 5.2293 29.7515 5.34088 29.6672H5.33997Z" fill="#F8F0A1"/>
<path d="M4.75435 29.4467H9.34717V29.1582H4.75435V29.4467Z" fill="#6B9FC5"/>
<path d="M60.4823 7.66693H59.7285V15.1535H60.4823V7.66693Z" fill="#046DE5"/>
<path d="M22.2918 22.3789H21.332V29.7557H22.2918V22.3789Z" fill="#56585E"/>
<path d="M22.4432 29.8202H21.1968V28.7044V27.8073H22.4432V29.8202Z" fill="#0A2126"/>
<path d="M16.6025 31.1528L21.1972 28.7044V29.8202L17.9025 31.1528V31.3977H16.6025V31.1528Z" fill="#0A2126"/>
<path d="M27.038 31.1528L22.4434 28.7044V29.8202L25.7372 31.1528V31.3977H27.038V31.1528Z" fill="#0A2126"/>
<path d="M21.4013 28.7044V31.3977H21.0938V31.5882H22.4436V31.3977H22.1578L22.2467 28.7044H21.4013Z" fill="#0A2126"/>
<path d="M22.4526 21.9653H21.2144V23.4838H22.4526V21.9653Z" fill="#303030"/>
<path d="M18.6403 14.3925L17.1172 15.2343L18.3482 20.8168L18.9469 20.7044L18.2402 15.5201L19.0684 15.1645L18.6403 14.3925Z" fill="#1E0C00"/>
<path d="M24.3283 14.3925L25.933 15.6525L25.6663 20.9457L25.0186 20.8087L25.2454 16.2449L23.96 15.3913L24.3283 14.3925Z" fill="#1E0C00"/>
<path d="M23.8304 18.2468H19.2639L18.0093 10.4799C17.7843 9.08473 18.8611 7.81927 20.2744 7.81927H22.8198C24.2332 7.81927 25.3108 9.08473 25.0849 10.4799L23.8304 18.2468Z" fill="#0089A9"/>
<path d="M26.222 21.3683H17.6768C17.6768 20.9002 18.0559 20.5211 18.524 20.5211H25.3756C25.8437 20.5211 26.2229 20.9002 26.2229 21.3683H26.222Z" fill="#0089A9"/>
<path d="M24.2247 8.72828L24.6538 8.4389C24.6538 8.4389 23.5344 6.59833 23.6496 5.01175C23.7104 4.17447 22.3379 2.94077 21.9723 3.13127C21.9505 3.1231 20.7531 3.15757 20.647 5.89258L20.3921 9.09658L21.6857 10.2423C21.6857 10.2423 22.5012 8.84439 23.5371 9.45943C24.574 10.0736 24.1839 9.81049 24.1839 9.81049C24.1839 9.81049 24.2238 9.02491 24.2238 8.72919L24.2247 8.72828Z" fill="#3D3D3D"/>
<path d="M19.5571 8.8018C19.5571 8.8018 19.5462 11.8507 19.8546 12.4966C20.1639 13.1424 20.026 16.995 20.026 16.995L23.5884 17.1012C23.5884 17.1012 24.0437 13.508 24.0437 12.5247C24.0437 11.5413 24.4021 8.79092 24.4021 8.79092C24.4021 8.79092 21.9791 8.16953 19.5562 8.8018H19.5571Z" fill="#B1DFF9"/>
<path d="M23.0315 6.63014C23.085 6.68366 22.8655 8.14777 23.0805 8.57684C23.0805 8.57684 22.5108 11.7328 22.1262 11.779C21.7923 11.8189 21.6136 9.13655 21.5465 8.82994C21.4567 8.4181 21.6526 6.36072 21.6526 6.36072L23.0306 6.62923L23.0315 6.63014Z" fill="#FAA5AA"/>
<path d="M23.0087 7.27149C22.4989 7.73231 21.99 7.5146 21.6035 6.93676C21.6126 6.64557 21.6525 6.37796 21.6534 6.36163L23.0313 6.63014C23.0531 6.65192 23.0295 6.92587 23.0087 7.27149Z" fill="#FF9197"/>
<path d="M22.8281 3.24377C22.8281 3.24377 23.4558 3.36351 23.5302 3.90144C23.6046 4.43937 23.7098 4.8875 23.6046 5.51523C23.5003 6.14297 23.1265 6.97935 22.5142 7.1136C21.9019 7.24786 21.2597 6.23187 21.2597 5.67943C21.2597 5.12698 21.0356 4.2008 21.4538 3.63293C21.872 3.06507 22.8281 3.24468 22.8281 3.24468V3.24377Z" fill="#FAA5AA"/>
<path d="M22.1196 6.1366C22.4498 6.28083 22.9388 6.28355 22.9388 6.28355C22.9388 6.28355 22.9043 6.35068 22.8444 6.42325C22.7011 6.41509 22.4217 6.38969 22.1913 6.30805C22.1432 6.21552 22.1196 6.1366 22.1196 6.1366Z" fill="white"/>
<path d="M22.1914 6.30817C22.4218 6.39072 22.7021 6.41611 22.8445 6.42337C22.6105 6.70186 22.3629 6.63473 22.1914 6.30817Z" fill="#2E0A29"/>
<path d="M22.8282 3.24375C22.8282 3.24375 23.4559 3.36349 23.5303 3.90142C23.5983 4.38855 23.69 4.80311 23.6292 5.34286C23.5294 5.27392 23.3879 5.20497 23.1883 5.13875C22.6341 4.95642 22.0698 4.11188 21.9918 3.47507C21.9809 2.93805 22.8282 3.24375 22.8282 3.24375Z" fill="#FF9197"/>
<path d="M22.8346 5.77556C22.8183 5.60411 22.8065 5.43175 22.8083 5.2594C22.8464 5.47893 22.8554 5.63858 22.8681 5.79733C22.7765 5.82273 22.6677 5.87353 22.5298 5.82182C22.635 5.84178 22.7384 5.81184 22.8346 5.77647V5.77556Z" fill="#172866"/>
<path d="M22.4941 5.24222C22.4633 5.14334 22.378 5.049 22.2628 5.01815C22.0578 4.96463 21.9326 5.25945 21.792 5.25673C21.8927 5.30844 22.0542 5.13608 22.1648 5.09163C22.2247 5.06714 22.2782 5.08437 22.3372 5.1125C22.3952 5.14243 22.4469 5.1887 22.4932 5.24222H22.4941Z" fill="#313131"/>
<path d="M22.1235 5.15429C22.1235 5.21689 22.168 5.26678 22.2233 5.26678C22.2787 5.26678 22.3231 5.21598 22.3231 5.15429C22.3231 5.09261 22.2787 5.04181 22.2233 5.04181C22.168 5.04181 22.1235 5.09261 22.1235 5.15429Z" fill="#313131"/>
<path d="M22.9496 5.30665C22.985 5.20959 23.0739 5.11888 23.19 5.09348C23.3969 5.04903 23.5084 5.34929 23.649 5.35292C23.5456 5.40009 23.3923 5.22048 23.2835 5.17149C23.2245 5.14428 23.1701 5.15879 23.1102 5.18419C23.0512 5.2114 22.9977 5.25495 22.9487 5.30665H22.9496Z" fill="#313131"/>
<path d="M23.3253 5.23499C23.3225 5.29758 23.2754 5.34566 23.2209 5.34294C23.1656 5.34022 23.1239 5.2876 23.1266 5.22592C23.1293 5.16333 23.1765 5.11525 23.2309 5.11797C23.2862 5.12069 23.328 5.1733 23.3253 5.23499Z" fill="#313131"/>
<path d="M22.5668 4.76411C22.5895 4.74959 22.4099 4.56998 22.1958 4.54912C21.9808 4.52916 21.7495 4.76411 21.7495 4.76411C21.7495 4.76411 22.0652 4.57542 22.1985 4.6362C22.3319 4.69698 22.4435 4.84394 22.5668 4.76411Z" fill="#313131"/>
<path d="M22.2773 5.64682C22.2501 5.72846 22.0995 5.75205 21.9417 5.69943C21.7839 5.64682 21.6777 5.53705 21.7049 5.45541C21.7322 5.37377 21.8827 5.35019 22.0406 5.4028C22.1984 5.45541 22.3046 5.56518 22.2773 5.64682Z" fill="#FF9197"/>
<path d="M23.5515 5.60585C23.5633 5.68387 23.4608 5.7646 23.3229 5.78547C23.185 5.80633 23.0625 5.76007 23.0507 5.68205C23.0389 5.60404 23.1414 5.52331 23.2793 5.50244C23.4172 5.48158 23.5397 5.52784 23.5515 5.60585Z" fill="#FF9197"/>
<path d="M20.4725 16.7855L19.8012 17.1012C19.8012 17.1012 19.0401 17.943 18.8723 19.4316C18.7036 20.9193 20.7256 21.6496 20.7256 21.6496L24.7124 21.3692C24.7124 21.3692 26.1865 17.3307 23.7391 16.8445C21.3896 16.3782 20.4734 16.7864 20.4734 16.7864L20.4725 16.7855Z" fill="#354A8D"/>
<path d="M22.7182 19.0106C22.7182 19.0106 22.74 19.7164 22.7781 19.7309C23.1128 19.8633 24.5788 19.6973 24.7402 20.5355C24.9198 21.4708 21.9499 28.2879 22.1467 29.2984C22.3436 30.309 22.6094 31.1807 22.7708 31.3422C22.9323 31.5037 22.935 31.6415 22.7944 31.7812C22.6538 31.9218 22.0569 31.7595 21.8882 31.5907C21.7195 31.422 21.5181 30.1194 21.216 29.8182C20.9139 29.5161 20.7951 29.3265 21.1462 28.6108C21.4972 27.8951 22.4098 22.3498 22.5214 21.7746C22.6339 21.1995 22.4524 20.9446 22.4524 20.9446L21.0618 20.0629L22.7182 19.0097V19.0106Z" fill="#FF9197"/>
<path d="M23.8411 18.3928C23.8411 18.3928 23.3213 18.0418 22.2827 18.3928C21.244 18.7439 20.5419 19.6138 20.4294 20.0211C20.3169 20.4284 19.8543 28.3314 19.2365 29.6222C18.6188 30.914 18.5816 30.9884 18.3103 31.2596C18.0391 31.5309 18.1625 32.2012 18.3103 32.3491C18.4582 32.497 19.6021 32.1958 19.7327 31.7468C19.8633 31.2977 20.1446 30.2491 20.257 29.9316C20.3695 29.6132 21.1615 26.6042 21.9162 25.18C22.6718 23.7549 22.9177 20.6108 22.9177 20.3486C22.9177 20.0865 24.243 19.9876 24.243 19.9876C24.243 19.9876 24.5242 18.548 23.8411 18.3928Z" fill="#FAA5AA"/>
<path d="M24.4032 8.79095C24.4032 8.79095 24.8867 9.07307 24.9557 9.42776C25.2305 10.8619 25.4709 14.4959 25.3584 15.4158C25.2178 16.5642 24.7688 16.5642 24.7688 16.5642L19.4067 15.921L19.6317 14.4896C19.6317 14.4896 23.2811 14.7145 23.6467 14.7145C24.0123 14.7145 24.0377 11.9432 24.0377 11.9432L24.4041 8.79095H24.4032Z" fill="#FCFCFA"/>
<path d="M19.5568 8.80187C19.5568 8.80187 18.2822 8.79099 18.0019 10.4193C17.7216 12.0476 17.8895 16.5651 18.4791 16.5651C19.0687 16.5651 22.3272 14.6747 22.7753 14.6747C22.6555 14.6474 22.5639 14.5513 22.5421 14.4306L22.387 13.5634C22.387 13.5634 19.8543 13.5915 19.4053 14.0406C19.4053 14.0406 19.8824 12.2717 19.8824 11.6258C19.8824 10.9799 20.3423 8.80096 19.5568 8.80096V8.80187Z" fill="#FCFCFA"/>
<path d="M23.895 14.0848C23.895 14.0848 22.4735 13.6104 22.4354 13.8317C22.3338 14.425 22.6649 14.6953 22.6649 14.6953C22.6649 14.6953 23.6274 14.8405 23.7825 14.6853C23.9376 14.5302 23.895 14.0848 23.895 14.0848Z" fill="#FAA5AA"/>
<path d="M35.9963 14.1838L35.9229 16.4743C35.9229 16.4743 37.0087 16.6803 37.308 16.565C37.4741 16.5015 37.5058 15.3604 37.4532 14.0405C36.8844 13.9924 36.5324 13.9906 35.9963 14.1829V14.1838Z" fill="#F2C198"/>
<path d="M37.4535 14.0406C37.4109 12.982 37.3147 11.809 37.1895 10.9835C36.9083 9.13026 35.7862 8.1687 35.7862 8.1687L35.7554 13.8719L35.7799 14.2528C36.316 14.0605 36.8857 13.9916 37.4535 14.0397V14.0406Z" fill="#F1709E"/>
<path d="M31.7451 8.28098C31.7451 9.02937 31.8739 12.7659 32.0979 13.9587C32.3229 15.1525 30.5322 17.228 30.5322 18.2359C30.5322 19.2437 31.8421 20.7033 31.8421 20.7033H36.2218C36.2218 20.7033 37.5698 18.2513 37.0826 17.1001C36.5955 15.949 35.9224 16.8099 36.259 15.1634C36.5955 13.516 36.6282 11.2591 36.4413 9.68704C36.2544 8.11498 35.4035 7.63692 33.944 7.63692C32.4844 7.63692 31.7442 7.5326 31.7442 8.28098H31.7451Z" fill="#47003F"/>
<path d="M35.7547 17.5411C35.7547 17.5411 33.6909 16.9098 32.704 17.8967C31.717 18.8837 31.8431 20.7043 31.8431 20.7043H36.2228C36.2228 20.7043 37.6451 18.7014 35.7547 17.5411Z" fill="#060032"/>
<path d="M34.8447 18.8582C34.5363 18.1089 34.1998 17.9656 33.9176 17.9656C33.4069 17.9656 32.5978 18.2468 32.2521 19.1322C31.8847 20.0719 30.4624 25.8023 30.2138 26.8627C30.0369 27.6175 29.6877 28.1409 29.3194 28.57C28.542 29.742 28.766 30.4958 29.2949 31.0537C29.2949 31.1245 29.8609 31.2696 30.4923 29.5143C30.6338 29.1224 30.6982 28.8811 30.8669 28.0311C31.0357 27.1811 35.1532 19.6066 34.8447 18.8573V18.8582Z" fill="#F2C198"/>
<path d="M30.4207 29.7076C30.2139 29.8374 29.715 30.1385 29.5163 30.1385C29.3177 30.1385 29.0573 29.5698 28.9421 29.2985C28.6555 30.0932 28.8831 30.6873 29.295 31.1219C29.3721 31.2126 29.8193 31.2643 30.4216 29.7067L30.4207 29.7076Z" fill="#482044"/>
<path d="M36.9307 19.3001C36.947 18.4809 36.4426 18.3086 36.0426 18.2369C35.54 18.1462 34.8805 18.724 34.3381 19.574C33.7956 20.424 32.5483 26.2442 32.2997 27.3046C32.1229 28.0593 31.7736 28.5828 31.4053 29.0118C30.6279 30.1838 30.852 30.9495 31.3808 31.5083C31.3808 31.579 31.9469 31.7124 32.5782 29.9571C32.7197 29.5652 32.7842 29.3239 32.9529 28.4739C33.1216 27.6239 36.9143 20.1101 36.9307 19.3001Z" fill="#E6AB7A"/>
<path d="M32.4068 30.396C32.16 30.4795 31.9015 30.5357 31.6983 30.5021C31.2974 30.435 31.2248 29.7692 31.2221 29.3147C30.6696 30.3271 30.8991 31.0546 31.3808 31.5635C31.4706 31.6134 31.848 31.6977 32.4068 30.396Z" fill="#4B2847"/>
<path d="M34.481 14.3036L35.4725 16.136C35.4797 16.1505 35.4752 16.1686 35.4607 16.1759C35.4471 16.1831 35.4289 16.1786 35.4208 16.165L34.3712 14.3662C34.354 14.3362 34.364 14.2972 34.3939 14.28C34.4238 14.2627 34.4628 14.2727 34.4801 14.3027C34.4801 14.3027 34.4801 14.3036 34.481 14.3045V14.3036Z" fill="#99CEDC"/>
<path d="M34.987 14.9004C34.772 14.6854 34.4446 14.9766 34.1452 15.0701C33.8459 15.1635 31.0383 15.1454 30.6455 15.051C30.5004 15.0166 30.5675 14.5684 30.7153 13.9634C30.2591 13.8128 29.7629 13.7701 29.2984 13.8237C29.1451 15.2978 29.0952 16.604 29.2984 16.7383C29.7474 17.0349 33.4848 15.8185 33.8622 15.8185C34.2396 15.8185 34.0527 15.9935 34.6142 15.9935C34.9453 15.9935 35.1757 15.9318 35.3091 15.881C35.3898 15.8502 35.4288 15.7604 35.398 15.6806C35.3154 15.4665 35.1431 15.0565 34.9879 14.9004H34.987Z" fill="#F2C198"/>
<path d="M30.662 14.1856C30.6774 14.1149 30.6956 14.0405 30.7137 13.9643C30.2574 13.8137 29.7612 13.7711 29.2968 13.8246C29.2777 14.0096 29.2596 14.192 29.2441 14.3689C29.5226 14.3153 30.2111 14.192 30.662 14.1856Z" fill="#DDA679"/>
<path d="M30.7145 13.9633C31.1799 12.9428 31.9392 11.2401 31.9981 10.557C32.0916 9.47117 31.8557 7.81927 31.8557 7.81927C31.8557 7.81927 30.5785 8.61211 30.1666 9.52922C29.9417 10.0309 29.2441 12.1817 29.0581 13.9642C29.5226 13.9107 30.2573 13.8136 30.7145 13.9642V13.9633Z" fill="#F1709E"/>
<path d="M33.562 16.4154H36.2562C36.2562 16.4154 34.4075 15.8176 33.562 16.4154Z" fill="#CEF2FA"/>
<path d="M38.8413 16.4154H36.2578C36.2578 16.4154 37.2538 16.2067 37.9251 16.2067C38.5964 16.2067 38.8413 16.4154 38.8413 16.4154Z" fill="#5DB9F4"/>
<path d="M38.3832 15.5826C38.3832 15.5826 37.1259 15.5463 36.2578 16.4153C36.2578 16.4153 36.6687 16.1196 37.3446 15.9463C38.0204 15.7721 38.4785 15.7803 38.4785 15.7803L38.3841 15.5826H38.3832Z" fill="#5DB9F4"/>
<path d="M33.3862 16.4154H36.2573L33.5413 16.3519L33.3862 16.4154Z" fill="#00485C"/>
<path d="M38.5081 13.4164C38.3076 12.1101 38.4718 10.5816 38.4718 10.5816C38.4718 10.5816 38.8211 10.2768 39.2882 10.402C39.7554 10.5263 40.004 10.6043 39.9577 10.4709C39.9123 10.3376 39.3055 10.1262 39.3055 10.1262C39.3055 10.1262 39.8906 10.1199 40.189 10.2732C40.4875 10.4265 40.5573 10.1298 39.7246 9.98288C38.8927 9.83502 39.1649 9.75519 39.3046 9.70712C39.4443 9.65904 40.2743 9.87494 40.4938 9.71891C40.697 9.57377 39.369 9.42772 38.978 9.47398C40.6798 8.99048 40.1482 8.78184 38.5371 9.33428C38.0745 9.49303 37.6599 10.1834 37.65 10.2006C37.6082 10.255 37.1528 12.365 37.1274 13.9743C37.5665 13.7765 38.1026 13.6731 38.5081 13.4182V13.4164Z" fill="#F2C198"/>
<path d="M37.3792 10.7639C37.2541 10.8891 35.8135 16.2766 36.6363 16.4925C37.4591 16.7084 38.4605 15.6797 38.4605 15.6797L38.6565 11.2338L37.3792 10.7648V10.7639Z" fill="#333A6A"/>
<path d="M48.795 10.5018C48.9647 10.119 49.6713 10.0202 49.8981 9.94759C50.1249 9.87502 50.3335 9.42145 50.485 9.37247C50.6365 9.32439 50.5902 9.83147 50.3616 9.96301C50.133 10.0945 50.4261 10.2941 50.6039 10.2959C50.7817 10.2977 51.4275 10.2488 51.5754 9.91402C51.7233 9.57929 51.9981 9.37972 52.0353 9.49674C52.0725 9.61376 51.6933 10.1218 51.6933 10.1218C51.6933 10.1218 52.3056 9.56206 52.3501 9.70085C52.3945 9.83873 51.8357 10.2406 51.8357 10.2406C51.8357 10.2406 52.2122 10.0673 52.322 10.1317C52.4317 10.1961 51.4266 10.8166 51.228 10.8801C51.0293 10.9436 50.2455 10.9019 49.8573 10.862C49.6949 10.8456 49.6133 11.6448 49.3366 12.6889C49.1951 12.434 48.5047 12.2136 48.3052 12.0041C48.6372 11.2911 48.7279 10.6524 48.795 10.5009V10.5018Z" fill="#F2C198"/>
<path d="M48.3224 11.2683L47.0542 16.6004C47.0542 16.6004 48.2444 16.7737 48.7433 16.6004C49.2422 16.4272 49.8663 12.8903 49.8663 11.3463L48.3224 11.2683Z" fill="#333A6A"/>
<path d="M58.149 21.1034L55.5047 21.615L53.8247 20.9473L55.5047 19.2065L58.149 21.1034Z" fill="#47405C"/>
<path d="M59.4129 9.24994C59.4129 9.24994 58.9839 9.50847 58.4668 10.7639C57.9506 12.0194 57.9525 14.6193 57.4472 14.8569C57.0045 15.0656 53.4649 15.4974 52.5895 15.6026C52.4661 15.6171 52.3554 15.687 52.2892 15.7931L51.832 16.5224L54.2087 16.6004C54.2087 16.6004 56.9102 17.9475 57.6005 17.4876C58.2908 17.0277 60.2956 13.2268 60.5559 12.1038C60.8163 10.9807 59.4129 9.24994 59.4129 9.24994Z" fill="#5F557B"/>
<path d="M54.2086 14.4904C54.0961 14.4904 52.9731 14.2282 52.9731 14.2282L52.7109 15.3884L53.8712 15.8747L54.2077 14.4895L54.2086 14.4904Z" fill="#C3EDF4"/>
<path d="M51.9625 30.1367C51.9625 30.1367 51.5679 31.3359 50.4639 31.6325C50.0485 31.7441 48.1489 32.6821 48.5045 32.6821C48.6397 32.6821 52.5758 32.6957 52.5758 32.6957C52.5758 32.6957 52.8697 32.1768 52.7572 31.7087C52.6447 31.2406 53.1863 30.1367 53.1863 30.1367H51.9625Z" fill="#5F557B"/>
<path d="M43.5399 31.6871C43.5399 31.6871 43.5508 31.7388 43.5771 31.8195C43.656 32.0608 43.8773 32.5588 44.3835 32.6822C45.0575 32.8464 45.5909 32.6686 45.7125 32.7901C45.834 32.9126 45.8794 33.2891 45.8794 33.2891L41.8218 33.4787L42.0613 31.8213L43.5408 31.688L43.5399 31.6871Z" fill="#403003"/>
<path d="M40.2412 21.7095L41.7988 32.2178L43.8806 31.8858L43.5423 21.636L40.2412 21.7095Z" fill="#403003"/>
<path d="M41.5919 31.3188C41.5919 31.3188 41.0766 31.7579 41.0766 32.2178L39.295 33.5313H38.6646C38.6646 33.5313 39.9781 31.8876 40.243 31.4766C40.5078 31.0657 40.5178 30.6611 40.5178 30.6611L41.5928 31.3188H41.5919Z" fill="#4C3D65"/>
<path d="M47.2227 21.4718C46.6449 19.731 45.0556 20.5365 45.0556 20.5365C44.0641 20.7243 42.5864 24.1487 42.3805 25.2164C42.2317 25.9875 40.7676 29.4935 39.9639 31.3849C40.5208 31.0819 41.2593 31.2588 41.5813 31.784C43.2831 28.9674 47.4123 22.0442 47.2227 21.4718Z" fill="#554004"/>
<path d="M40.4212 31.5917C40.4212 31.5917 40.9083 31.7323 41.0634 32.0562C41.2194 32.3791 40.4212 33.0041 40.4212 33.2889C40.4212 33.5738 40.6316 33.816 40.4212 33.9212C40.2107 34.0264 38.4826 34.0437 38.577 33.6981C38.6713 33.3524 39.3508 32.9624 39.6274 32.5306C39.9041 32.0988 40.1508 31.4774 40.4203 31.5926L40.4212 31.5917Z" fill="#322844"/>
<path d="M45.2903 21.1035C45.2903 21.1035 47.901 20.3496 47.0538 22.1322C46.8896 22.4769 39.3667 22.9948 39.3667 22.3644C39.3667 21.7339 39.8439 21.1035 39.8439 21.1035H45.2903Z" fill="#403003"/>
<path d="M39.5349 9.82325C39.5349 9.82325 40.4211 9.46311 41.4943 9.37149C42.083 9.32069 42.6708 9.5121 43.334 9.5121C45.2054 9.5121 47.0115 10.0083 47.2092 10.9173C47.4079 11.8316 44.9423 20.707 45.5038 21.2686C46.0653 21.8301 40.5454 22.1839 39.8533 21.4908C39.1611 20.7987 37.5138 10.6097 39.5349 9.82415V9.82325Z" fill="#000945"/>
<path d="M42.0552 7.6779L41.4946 9.56656C41.4946 9.56656 42.9596 10.1453 43.943 9.56656L43.6346 7.47198L42.0561 7.6779H42.0552Z" fill="#F2C198"/>
<path d="M39.5345 9.8233C39.5345 9.8233 37.9606 11.936 37.6249 12.9466C37.2884 13.9571 36.3686 15.6725 36.4466 16.1188C36.5246 16.5651 37.0725 17.006 37.9887 16.7856C38.9049 16.5651 38.8387 15.6798 38.8387 15.6798L39.5354 9.8233H39.5345Z" fill="#000945"/>
<path d="M47.1601 10.7639C47.1601 10.7639 49.134 16.2085 48.7439 16.5995C48.353 16.9905 47.0549 16.5995 47.0549 16.5995L45.6279 13.8155L47.161 10.763L47.1601 10.7639Z" fill="#000945"/>
<path d="M59.0572 3.0415C59.0572 3.0415 58.3224 4.00669 58.2117 4.66254C58.0983 5.33654 57.9604 6.41422 57.9604 6.41422H58.2598C58.2598 6.41422 58.5093 7.01202 58.5093 7.41116C58.5093 7.8103 59.1406 7.56084 59.5062 7.56084C59.8718 7.56084 60.6855 7.24515 61.0012 6.09854C61.3168 4.95192 61.8983 2.90815 59.0572 3.0415Z" fill="#FC9575"/>
<path d="M59.92 8.49432L59.4737 8.82633L59.3149 9.43502L59.9527 9.14292L59.92 8.49432Z" fill="#98B0BF"/>
<path d="M60.6695 6.08209L61.7826 8.64112C61.7826 8.64112 59.6472 9.34687 59.7561 9.23892C59.864 9.13097 59.6182 7.24504 59.6182 7.24504L60.6695 6.08209Z" fill="#FC9575"/>
<path d="M58.0604 2.344C58.0269 2.40115 57.449 3.57407 58.4441 4.0222C59.4393 4.47032 59.686 3.82535 59.9518 4.22358C60.2176 4.62272 59.7214 5.26769 59.9373 5.63327L60.2684 5.69676C60.2684 5.69676 60.3355 5.49992 60.4689 5.49992C60.6022 5.49992 60.6394 6.50683 60.8535 6.50683C61.0676 6.50683 61.483 5.64959 61.6817 5.25136C61.8813 4.85222 62.2967 3.50694 61.532 3.1577C60.7682 2.80845 60.4353 3.07424 60.4353 2.74223C60.4353 2.41022 60.1033 2.75856 60.1033 2.75856C60.1033 2.75856 59.92 2.5091 60.0371 2.22698C60.1532 1.94486 59.2234 1.84507 59.0066 2.40931C58.7907 2.97446 58.4251 1.72805 58.0595 2.34309L58.0604 2.344Z" fill="#2D1175"/>
<path d="M62.2547 25.2164H61.2949V32.3202H62.2547V25.2164Z" fill="#56585E"/>
<path d="M62.4056 32.3809H61.1592V31.3068V30.4423H62.4056V32.3809Z" fill="#0A2126"/>
<path d="M56.5649 33.6646L61.1596 31.3069V32.381L57.8649 33.6646V33.9004H56.5649V33.6646Z" fill="#0A2126"/>
<path d="M66.9999 33.6646L62.4053 31.3069V32.381L65.7 33.6646V33.9004H66.9999V33.6646Z" fill="#0A2126"/>
<path d="M61.3632 31.3069V33.9004H61.0557V34.0837H62.4055V33.9004H62.1197L62.2095 31.3069H61.3632Z" fill="#0A2126"/>
<path d="M62.3893 23.7124H61.1592V26.1952H62.3893V23.7124Z" fill="#303030"/>
<path d="M48.589 25.621C48.589 25.621 47.6928 26.519 47.3934 26.8184C47.0941 27.1177 45.4231 27.272 45.7561 27.6049C46.0881 27.9369 46.9462 28.3669 47.339 28.3669C47.7318 28.3669 49.2286 28.0312 49.2286 28.0312C49.2286 28.0312 49.3991 26.5308 49.6032 26.3276L48.5899 25.621H48.589Z" fill="#47405C"/>
<path d="M53.8716 17.9086C52.5989 17.9086 48.1431 25.2092 48.1431 25.2092L48.5894 25.621L49.7859 26.5109C49.9891 26.3077 54.6499 20.5356 54.6499 20.5356C54.6499 20.5356 56.4588 21.274 57.844 21.274C59.2291 21.274 60.8874 18.4111 60.8874 18.4111C60.7259 18.2496 55.1425 17.9086 53.8698 17.9086H53.8716Z" fill="#5F557B"/>
<path d="M63.0921 17.8433C63.0948 17.817 63.0967 17.7907 63.0994 17.7653C63.1928 16.6794 63.4885 8.06982 61.97 8.06982C61.97 8.06982 60.221 8.3846 59.1062 9.80064C58.9184 10.0392 58.8848 10.2542 58.8023 10.5799C58.248 12.7506 57.8806 16.7765 57.9314 18.3032C59.6432 18.9817 61.56 18.9373 63.093 17.8424L63.0921 17.8433Z" fill="#C3EDF4"/>
<path d="M61.3877 7.33307C61.238 7.33307 59.7077 8.80807 59.7077 8.80807L59.5762 9.65624L61.9692 8.53865L61.3877 7.33307Z" fill="#CAEBFF"/>
<path d="M59.6929 8.90698L59.3192 9.0621L58.9282 9.87217L59.1505 9.80141L59.604 9.46396L59.6929 8.90698Z" fill="#C33EA4"/>
<path d="M59.1499 9.80151C59.1499 9.80151 58.2437 14.398 58.0323 18.4402L57.4463 18.9636C57.4463 18.9636 57.5216 18.3268 57.5216 17.4106C57.5216 16.4943 58.4704 10.5327 58.9276 9.87227L59.1508 9.80242L59.1499 9.80151Z" fill="#743064"/>
<path d="M61.9688 8.07073C61.9688 8.07073 61.5116 8.15328 60.9156 8.4227C60.7487 9.10033 59.8107 10.666 59.3925 12.3361C59.0805 13.5843 58.3521 15.2117 58.2323 16.2494C58.1289 17.1421 57.9602 17.9086 57.9021 18.4329C57.7606 19.6975 57.1846 21.8474 57.1846 21.8474L62.631 21.1026C62.631 21.1026 63.0056 18.8502 63.0991 17.7653C63.1925 16.6794 63.4882 8.06982 61.9697 8.06982L61.9688 8.07073Z" fill="#7F71A4"/>
<path d="M61.269 19.9695L60.2086 19.8489C59.7995 19.8026 59.5047 19.4325 59.5518 19.0234L59.785 16.9733L62.3277 17.2626L62.0945 19.3128C62.0483 19.7219 61.6782 20.0167 61.269 19.9695Z" fill="#998DB6"/>
<path d="M61.2014 7.8438L59.7491 9.07932L58.2896 16.1359C58.2896 16.1359 59.9623 13.2086 59.9197 12.9056C59.877 12.6035 59.6176 12.3359 59.6176 12.3359C59.6176 12.3359 61.2014 8.36359 61.2014 7.8429V7.8438Z" fill="#B2AAC8"/>
<path d="M61.6935 7.49921L61.2019 7.84392L61.0195 8.566L62.177 8.12966L61.6935 7.49921Z" fill="#B2AAC8"/>
<path d="M60.5239 22.0922H62.8389V23.3694C62.8389 23.6034 62.6493 23.793 62.4153 23.793H60.9476C60.7135 23.793 60.5239 23.6034 60.5239 23.3694V22.0922Z" fill="#303030"/>
<path d="M63.6232 16.7737C63.6232 16.7737 58.2811 16.7374 58.1123 17.1102C57.9436 17.483 58.1958 21.8482 58.1958 21.8482L58.8317 21.7339C58.8317 21.7339 58.5686 18.0319 58.9632 17.6373C59.3578 17.2427 63.6794 17.8405 63.7357 17.7842C63.7919 17.728 63.6232 16.7737 63.6232 16.7737Z" fill="#1E0C00"/>
<path d="M58.0431 16.9969C57.7583 17.2962 58.0985 20.5374 58.1474 20.9456C58.1874 19.1123 58.1311 17.5774 58.2227 17.1738C58.5185 16.9923 60.7473 16.9161 62.5552 16.7755C61.942 16.7365 58.4668 16.6104 58.0431 16.9969ZM58.2246 17.1656V17.1638C58.2246 17.1638 58.2246 17.1638 58.2246 17.1656Z" fill="#B2AAC8"/>
<path d="M66.0936 22.1267H56.5859C56.5859 21.5616 57.044 21.1035 57.6092 21.1035H66.0936V22.1267Z" fill="#0A6980"/>
<path d="M65.1958 10.148C65.1958 10.148 62.9497 11.2257 62.9497 14.8043C62.9497 18.383 64.2596 21.1035 64.2596 21.1035H66.0938C66.0938 21.1035 63.7353 16.0598 64.8211 13.909C65.907 11.7582 67.7412 10.5598 65.1958 10.148Z" fill="#0A6980"/>
<path d="M64.8209 13.9089C65.8568 11.8552 67.5759 10.6705 65.5139 10.2087C67.0397 10.7249 65.4622 11.8869 64.4889 13.8173C63.403 15.9681 65.7616 21.0118 65.7616 21.0118V22.035H56.5896C56.5868 22.065 56.5859 22.0958 56.5859 22.1258H66.0936V21.1025C66.0936 21.1025 63.7351 16.0588 64.8209 13.908V13.9089Z" fill="#084F60"/>
<path d="M61.4592 8.75824C60.7807 8.9188 59.9706 9.41682 59.5243 10.7639C59.0771 12.1119 58.628 13.9879 58.0293 14.2627C57.4306 14.5367 53.5354 14.2283 53.5354 14.2283L53.4365 15.9781C53.4365 15.9781 57.6874 17.2263 58.8267 17.1011C59.9661 16.976 61.9672 12.9292 62.575 11.466C63.747 8.64757 62.1722 8.58951 61.4592 8.75824Z" fill="#998DB6"/>
<path d="M61.4594 8.7583C59.5453 9.3434 59.6243 11.3418 58.7815 13.3974C58.6473 13.7103 58.3896 14.2555 58.0667 14.378C57.995 14.3771 57.5859 14.7445 53.5347 14.2283C54.8917 14.2583 57.6676 14.3544 58.0277 14.1231C58.5693 13.7503 59.041 11.7682 59.4646 10.6397C59.6324 10.1916 59.8728 9.76068 60.2148 9.41869C60.555 9.07852 60.994 8.83813 61.4594 8.7583Z" fill="#D4C5F6"/>
<path d="M55.4169 22.5504C54.9035 25.025 53.2988 30.8098 53.2988 30.8098L51.3457 30.2438C51.3457 30.2438 52.5667 20.9747 53.5537 19.9877C54.5406 19.0008 55.9304 20.0766 55.4169 22.5513V22.5504Z" fill="#7F71A4"/>
<path d="M52.6186 15.7813C52.6186 15.7813 53.1583 15.6987 53.4368 15.9781C53.7153 16.2566 53.826 16.5814 53.826 16.5814L51.833 16.5215C51.833 16.5215 52.1432 15.7604 52.6195 15.7813H52.6186Z" fill="#313B3D"/>
<path d="M51.8318 16.5224C51.8318 16.5224 52.1421 15.7613 52.6183 15.7822C52.6183 15.7822 53.1581 15.6997 53.4366 15.9791C53.4855 16.028 53.5291 16.0788 53.5681 16.1287C53.5182 16.0444 53.4592 15.9573 53.3894 15.8729C53.1109 15.5364 52.758 15.6189 52.5712 15.6352C52.0967 15.677 51.7847 16.5288 51.7847 16.5288L51.8318 16.5224Z" fill="#C3EDF4"/>
<path d="M52.5935 15.7811C52.5935 15.7811 52.3223 15.7557 52.2243 15.851C52.1263 15.9471 52.0637 16.017 52.0329 16.0478C52.0021 16.0778 52.0284 16.4687 52.4792 16.5676C52.9301 16.6656 52.8484 16.4533 52.9781 16.5068C53.1079 16.5604 53.2539 16.6447 53.3183 16.5821C53.3827 16.5186 53.4689 16.6737 53.5623 16.5821C53.6558 16.4905 53.3981 15.9145 53.2503 15.7711C53.1024 15.6269 52.9963 15.6795 52.8765 15.6795C52.7568 15.6795 52.5935 15.782 52.5935 15.782V15.7811Z" fill="#FC9475"/>
<path d="M54.0413 17.4767H53.5161V32.947H54.0413V17.4767Z" fill="#634C31"/>
<path d="M12.6917 17.3841H12.1665V32.8544H12.6917V17.3841Z" fill="#634C31"/>
<path d="M17.5828 16.9949H17.0576V32.4652H17.5828V16.9949Z" fill="#634C31"/>
<path d="M55.8747 16.4154H10.6704V17.4867H55.8747V16.4154Z" fill="url(#paint1_linear_6413_74467)"/>
<path d="M44.6602 22.6882H38.7266L37.0965 13.8064C36.8035 12.2108 38.2032 10.7639 40.0402 10.7639H43.3476C45.1836 10.7639 45.3233 12.9066 45.2299 14.6256L44.9813 18.1398L44.6602 22.6882Z" fill="#0089A9"/>
<path d="M37.7113 14.5675C37.4183 12.9719 38.818 11.525 40.655 11.525H43.9624C44.3479 11.525 44.6591 11.6193 44.9085 11.7844C44.6328 11.1758 44.1538 10.7639 43.3474 10.7639H40.0399C38.2039 10.7639 36.8042 12.2108 37.0963 13.8064L38.7264 22.6882H39.2017L37.7113 14.5675Z" fill="#339CB4"/>
<path d="M43.0213 24.1487H42.0615V33.4505H43.0213V24.1487Z" fill="#666E9E"/>
<path d="M43.1712 33.5212H41.9248V32.2966V31.3115H43.1712V33.5212Z" fill="#371C45"/>
<path d="M37.3306 34.9844L41.9252 32.2966V33.5212L38.6314 34.9844V35.2529H37.3306V34.9844Z" fill="#371C45"/>
<path d="M47.7665 34.9844L43.1719 32.2966V33.5212L46.4666 34.9844V35.2529H47.7665V34.9844Z" fill="#371C45"/>
<path d="M42.1293 32.2966V35.2529H41.8218V35.4625H43.1716V35.2529H42.8858L42.9756 32.2966H42.1293Z" fill="#371C45"/>
<path d="M43.1596 23.3259H41.9214V24.2702H43.1596V23.3259Z" fill="#303030"/>
<path d="M47.9013 23.3258H37.1953C37.1953 22.6636 37.7323 22.1266 38.3945 22.1266H46.7021C47.3643 22.1266 47.9013 22.6636 47.9013 23.3258Z" fill="#004555"/>
<path d="M41.4228 8.93958C41.4228 8.93958 43.1445 9.62446 43.9437 8.99219L44.1832 9.54554C44.1832 9.54554 43.9093 10.0245 42.8026 10.1089C41.6959 10.1932 41.1543 9.40947 41.1543 9.40947L41.4219 8.93958H41.4228Z" fill="#333A6A"/>
<path d="M41.654 6.25821C41.654 6.25821 41.2585 5.95795 41.2585 6.17929C41.2585 6.40063 41.2141 7.18349 41.5842 6.96577C41.9543 6.74806 41.654 6.25821 41.654 6.25821Z" fill="#F2C198"/>
<path d="M42.1073 4.07201C42.1073 4.07201 41.3607 3.82708 41.1548 4.58726C40.9489 5.34744 41.495 6.12848 41.495 6.50675C41.495 6.88503 41.6982 7.32045 42.0556 7.67696C42.4121 8.03346 43.2448 8.40538 43.2448 8.40538C43.2448 8.40538 44.1719 7.83298 44.4885 7.20071C44.8042 6.56844 44.6146 6.14753 44.7416 5.19867C44.8677 4.25071 44.22 3.93412 43.9433 3.93412C43.6667 3.93412 42.7196 2.90362 42.1073 4.0711V4.07201Z" fill="#38373A"/>
<path d="M48.1425 18.9635L44.9902 18.0156L44.9321 18.8347L47.0539 19.31L46.5368 22.1639L47.1392 22.2101L48.1425 18.9635Z" fill="#1E0C00"/>
<path d="M35.0483 7.90205C35.0483 7.67164 34.8678 7.59907 34.6419 7.54917C33.8745 7.37773 32.8866 7.34688 32.9583 7.61449C33.0517 7.96192 33.7892 8.43998 34.289 8.43998C34.7889 8.43998 35.0265 8.02996 35.0265 8.02996L35.0474 7.90296L35.0483 7.90205Z" fill="#4B2847"/>
<path d="M34.4803 6.81886L34.6418 8.6667C34.6418 8.6667 33.9696 8.99962 33.1323 8.61046L33.4671 5.58063L34.4803 6.81977V6.81886Z" fill="#F2C198"/>
<path d="M34.48 6.81886L34.5489 7.61351C34.4736 7.61078 34.3956 7.58992 34.3167 7.54728C33.6735 7.20076 33.5792 6.24736 33.5674 5.7049L34.4791 6.81886H34.48Z" fill="#DDA679"/>
<path d="M35.6396 3.63652C35.6396 3.63652 35.9344 3.86784 36.0006 4.28603C36.0669 4.70422 35.7875 5.17411 35.7875 5.52608C35.7875 5.87805 35.1325 7.55806 34.317 7.16164C33.5015 6.76522 33.5677 5.48707 33.5677 5.20042C33.5677 4.91376 33.9641 3.92227 34.4494 3.69095C34.9338 3.45963 35.6396 3.63561 35.6396 3.63561V3.63652Z" fill="#F2C198"/>
<path d="M35.2499 5.28669C35.2499 5.28669 35.2181 5.08893 35.0975 4.9447C34.9768 4.80047 34.6421 4.7796 34.6421 4.7796C34.6421 4.7796 34.9578 4.85671 35.0349 4.95559C35.112 5.05537 35.1437 5.1987 35.1437 5.1987L35.249 5.28669H35.2499Z" fill="#1E1D1F"/>
<path d="M35.4297 5.42451C35.4297 5.42451 35.5585 5.30477 35.6955 5.28391C35.8325 5.26304 35.954 5.44356 35.954 5.44356C35.954 5.44356 35.8089 5.31565 35.7173 5.3347C35.6256 5.35375 35.5286 5.43358 35.5286 5.43358L35.4306 5.42451H35.4297Z" fill="#1E1D1F"/>
<path d="M34.4468 6.39246C34.6935 6.49678 34.806 6.602 35.1308 6.58658C34.8813 6.67457 34.5883 6.57388 34.4468 6.39246Z" fill="white"/>
<path d="M34.9212 5.40008C34.8976 5.47991 34.8332 5.53162 34.777 5.51438C34.7207 5.49805 34.6944 5.42004 34.7171 5.34021C34.7407 5.26038 34.8051 5.20868 34.8613 5.22591C34.9176 5.24224 34.9439 5.32025 34.9212 5.40008Z" fill="#1E1D1F"/>
<path d="M34.4419 5.31013C34.9363 5.0398 34.9971 5.36819 35.1159 5.42624C35.0125 5.40084 34.9299 5.2557 34.8102 5.25026C34.7122 5.24482 34.5498 5.28654 34.4419 5.30922V5.31013Z" fill="#1E1D1F"/>
<path d="M35.6816 5.76282C35.6562 5.8236 35.6009 5.85807 35.5592 5.83902C35.5174 5.81997 35.5047 5.75465 35.5301 5.69388C35.5555 5.6331 35.6109 5.59863 35.6526 5.61768C35.6943 5.63673 35.7079 5.70204 35.6816 5.76282Z" fill="#1E1D1F"/>
<path d="M35.3501 5.73648C35.7075 5.3963 35.8127 5.71108 35.9198 5.75099C35.8309 5.74192 35.7393 5.61039 35.6404 5.62309C35.5596 5.63216 35.4336 5.69747 35.3501 5.73648Z" fill="#1E1D1F"/>
<path d="M34.6354 5.68672C34.6037 5.79649 34.4595 5.85091 34.3143 5.80828C34.1692 5.76564 34.0776 5.64227 34.1093 5.53342C34.1411 5.42365 34.2853 5.36923 34.4304 5.41186C34.5756 5.4545 34.6672 5.57787 34.6354 5.68672Z" fill="#DDA679"/>
<path d="M35.4052 5.57971C35.3199 5.77384 35.2373 6.01877 35.1784 6.22378C35.1022 6.22378 35.0133 6.20291 34.9443 6.15393C35.0378 6.26097 35.1956 6.25734 35.2038 6.26006C35.2591 6.09315 35.3417 5.87362 35.4043 5.57971H35.4052Z" fill="#D2905B"/>
<g style="mix-blend-mode:multiply" opacity="0.53">
<path d="M35.6394 3.63661C35.6394 3.63661 35.9342 3.86793 36.0004 4.28612C36.0667 4.70431 36.1338 5.46176 35.7873 5.52617C35.5859 5.56336 34.8901 4.40949 35.087 3.5722C35.3908 3.57402 35.6394 3.63661 35.6394 3.63661Z" fill="#DDA679"/>
</g>
<path d="M32.9586 7.6134L32.7554 8.51781C32.9885 8.88339 34.1841 10.7621 34.5007 11.2682C34.6966 11.5812 34.9216 9.46305 35.0486 7.90187C34.1732 8.17764 33.6852 8.31643 32.9595 7.6134H32.9586Z" fill="#F1709E"/>
<path d="M60.1846 5.13596C60.1846 5.13596 60.1682 5.79181 60.3261 5.79181C60.4839 5.79181 60.8304 5.4208 60.7724 5.02529C60.7134 4.62978 60.2562 4.67785 60.1846 5.13596Z" fill="#FC7575"/>
<path d="M60.2957 5.06532C60.2957 5.06532 60.2168 5.32567 60.3356 5.44451C60.4545 5.56334 60.6831 5.2785 60.557 5.06532C60.4309 4.85215 60.3211 4.91474 60.2966 5.06532H60.2957Z" fill="#FD5E5A"/>
<path d="M58.5718 4.88312L58.5464 5.04187C58.5464 5.04187 58.824 5.0083 58.9764 5.1607C59.1288 5.3131 59.1496 5.33033 59.1496 5.33033C59.1496 5.33033 59.0689 4.97202 58.5709 4.88312H58.5718Z" fill="#2D1175"/>
<path d="M58.8714 5.37195C58.8714 5.45178 58.817 5.51709 58.7489 5.51709C58.6809 5.51709 58.6265 5.45178 58.6265 5.37195C58.6265 5.29212 58.6809 5.22681 58.7489 5.22681C58.817 5.22681 58.8714 5.29212 58.8714 5.37195Z" fill="#2D1175"/>
<path d="M58.4803 7.13896C58.4803 7.13896 58.4277 7.39568 58.4277 7.54354C58.4277 7.6914 58.796 7.85469 59.128 7.75944C59.46 7.66419 59.9209 7.44557 60.0343 7.33218C60.1477 7.21879 60.2384 5.69027 60.2384 5.69027L59.9381 5.63312C59.9381 5.63312 59.7893 6.63006 59.666 6.75343C59.5417 6.8768 58.4803 7.13896 58.4803 7.13896Z" fill="#2D1175"/>
<path d="M58.6357 6.83514C58.73 6.83514 58.8262 6.81518 58.9024 6.76892C58.9405 6.74533 58.9704 6.71358 58.9904 6.6782C59.013 6.64282 59.0185 6.60019 59.0239 6.56028V6.55483C59.0276 6.52853 59.052 6.51038 59.0774 6.51401C59.1038 6.51764 59.1219 6.54123 59.1192 6.56753C59.1192 6.57025 59.1192 6.57207 59.1174 6.57479C59.1028 6.6265 59.0847 6.6782 59.0484 6.71993C59.0139 6.76166 58.9704 6.79341 58.9232 6.81246C58.828 6.84965 58.7291 6.85237 58.6348 6.83695L58.6357 6.83514Z" fill="#2D1175"/>
<path d="M57.622 3.53948C57.6148 3.59391 57.671 3.68916 57.7037 3.73361C57.8778 3.96039 58.2171 3.99214 58.4448 4.02117C58.4149 4.02298 58.1119 4.08104 57.8579 4.00847C57.583 3.9359 57.4197 3.75538 57.3726 3.57214L57.6229 3.53857L57.622 3.53948Z" fill="#2D1175"/>
<path d="M18.7802 31.8457C18.6414 31.8457 18.5426 31.3296 18.499 31.0502C18.4428 31.1255 18.3856 31.1853 18.3103 31.2597C18.0391 31.531 18.1625 32.2013 18.3103 32.3492C18.4582 32.497 19.6021 32.1959 19.7327 31.7468C19.7518 31.6824 19.7735 31.6062 19.7971 31.5219C19.5023 31.6335 18.9199 31.8457 18.7802 31.8457Z" fill="#322554"/>
<path d="M21.1973 28.4549C21.1973 28.4549 20.7827 29.1434 20.7827 29.4672C20.7827 29.7911 20.9904 31.6144 20.9904 31.6144L21.268 31.6244C21.268 31.6244 21.0639 30.3771 21.2408 30.3308C21.4168 30.2855 21.6998 31.99 21.6998 31.99L23.1331 32.087C23.1331 32.087 23.1576 31.6126 22.7185 31.2761C22.2795 30.9386 22.2586 31.0511 22.0482 30.3308C21.8377 29.6115 21.1991 28.454 21.1991 28.454L21.1973 28.4549Z" fill="#322554"/>
<path d="M20.8887 20.3286C20.8887 20.3286 20.8551 20.8112 20.9984 20.9546C21.1418 21.0979 21.8339 21.0063 21.8339 20.6416C21.8339 20.2769 21.1028 20.1155 20.8887 20.3286Z" fill="#FF9197"/>
<path d="M35.2697 19.2656C34.7081 19.4824 35.3958 20.1083 35.8384 20.0348C36.2811 19.9614 35.9645 18.9971 35.2697 19.2656Z" fill="#FFC99C"/>
<path d="M33.6488 19.0234C33.6488 19.0234 33.4048 18.7867 32.8986 18.8547C32.3924 18.9227 33.2587 19.7827 33.6579 19.6874C34.057 19.5922 33.6479 19.0234 33.6479 19.0234H33.6488Z" fill="#DDA679"/>
<path d="M29.7543 15.9736C29.9602 15.9528 30.1961 15.9573 30.1961 16.0897C30.1961 16.3256 29.4531 16.5025 29.4531 16.3111C29.4577 16.2993 29.4613 16.0036 29.7534 15.9727L29.7543 15.9736Z" fill="#DDA679"/>
<path d="M20.176 13.7538C20.176 13.7538 20.1007 13.0444 20.0136 12.9492C19.9266 12.8539 19.1646 11.9078 19.0693 12.0112C18.9741 12.1155 19.6345 12.8621 19.6345 12.8621C19.6345 12.8621 18.8552 12.13 18.8126 12.2969C18.7709 12.4638 19.5292 13.1632 19.5292 13.1632C19.5292 13.1632 18.731 12.5555 18.731 12.6861C18.731 12.6861 19.4784 13.4689 19.5038 13.4971C19.5292 13.5252 19.5982 13.9189 19.5982 13.9189L20.176 13.7529V13.7538Z" fill="#FAA5AA"/>
<path d="M19.585 12.1047C19.585 12.1047 19.9551 12.2789 19.9551 12.4177C19.9551 12.5565 20.0658 13.2105 20.0658 13.2105L19.7492 13.0754L19.8109 12.4894C19.8109 12.4894 19.4571 12.1047 19.585 12.1047Z" fill="#FF8F96"/>
<path d="M22.2736 2.78755C21.8164 2.84016 21.0916 2.72768 20.7542 3.47515C20.5546 3.89878 20.1464 4.71611 20.1464 6.16843C20.1464 8.33195 18.0591 9.28988 18.0591 9.28988L18.9744 9.73165L19.5205 9.28988L19.1476 10.0845L20.648 10.2342L20.7115 9.19735L21.0218 10.3757L21.723 10.2333C21.723 10.2333 21.4463 6.69185 21.4164 5.35473C21.4209 5.36018 21.4236 5.36381 21.4236 5.36381C21.4236 5.36381 21.4173 5.19145 21.4173 4.97011C21.4173 4.97011 21.4173 4.9692 21.4173 4.9683C21.4209 4.90298 21.4209 4.83676 21.4191 4.76963C21.4227 4.55646 21.4345 4.3333 21.4617 4.18362C21.5289 3.81805 21.6631 3.63118 21.9924 3.47425C22.3208 3.31731 23.4983 3.76453 23.4983 3.76453C23.4574 3.08327 22.7317 2.73493 22.2745 2.78755H22.2736Z" fill="#3D3D3D"/>
<path d="M22.8861 2.91083C23.4612 3.03783 23.6354 3.9232 24.1053 4.394C24.5761 4.8648 24.4563 5.54424 24.2323 5.99237C24.0082 6.44049 23.649 6.1493 23.649 6.1493C23.649 6.1493 23.8368 6.25362 23.9556 5.88079C24.0753 5.50705 23.8658 5.21586 23.2308 5.00722C22.5958 4.79767 21.9907 3.47598 21.9907 3.47598C21.9753 3.21745 22.3101 2.78474 22.8852 2.91174L22.8861 2.91083Z" fill="#3D3D3D"/>
<path d="M23.649 6.14927C23.8667 6.27627 24.1752 5.74196 23.9502 5.39363C23.7869 5.12421 23.4295 5.01081 23.1438 4.89198C22.6911 4.63163 22.2557 3.91409 21.9917 3.47504C22.1831 3.99845 22.5886 4.72507 23.0775 5.01444L23.1955 5.06524C23.3161 5.11423 23.6844 5.2131 23.8622 5.45259C24.0055 5.64036 23.9366 5.93246 23.8423 6.07035C23.8014 6.13022 23.728 6.17648 23.6499 6.14927H23.649Z" fill="#868282"/>
<path d="M21.5436 5.43171C21.5436 5.43171 21.3839 4.73775 21.1172 4.90557C20.8515 5.07339 21.1372 5.84083 21.3849 5.84083C21.6325 5.84083 21.5436 5.43171 21.5436 5.43171Z" fill="#FF9197"/>
<path d="M21.2851 5.05174C21.2851 5.05174 21.6779 5.68219 21.4085 5.61234C21.1391 5.54249 21.032 4.93381 21.2851 5.05174Z" fill="#FFB9BD"/>
<path d="M35.6948 3.67828C36.348 3.84247 36.6047 4.4811 36.2781 4.97276C36.2228 5.05622 36.1475 5.13423 36.0486 5.14149V5.00088C36.0849 5.00723 36.1547 4.93103 36.1774 4.9011C36.5031 4.48563 36.3026 3.88148 35.6948 3.67828Z" fill="#3F3E40"/>
<path d="M35.2149 3.23284C35.2149 3.23284 35.673 3.23465 36.0113 3.57211C36.3488 3.91047 36.2481 5.24305 36.0113 5.4408C35.7746 5.63856 36.6137 5.82543 36.1111 5.82543C35.6086 5.82543 34.7658 3.2791 35.2149 3.23193V3.23284Z" fill="#1E1D1F"/>
<path d="M35.7986 3.84614C35.8049 3.82346 35.541 3.10864 34.8906 3.00251C34.1131 2.87551 33.1942 3.45426 32.913 4.23893C32.6318 5.0236 32.3787 5.91894 31.6104 6.1421C30.842 6.36525 30.7014 7.49736 30.9409 8.20764C31.1804 8.91793 31.9161 8.7365 31.9161 8.7365C31.9161 8.7365 31.4661 8.34371 31.5859 8.22397C31.5859 8.22397 31.9288 8.8889 32.317 8.75736C32.7053 8.62492 32.8622 8.40903 32.8622 8.40903C32.8622 8.40903 32.1927 8.30652 32.6327 7.93459C32.9393 7.67606 33.0953 7.4393 33.4591 7.00115C33.8065 6.58206 33.6251 5.46084 33.9272 4.65531C33.9653 4.68706 34.0242 4.71699 34.1186 4.72606C34.5295 4.7687 34.3426 4.46844 34.7345 4.02031C35.4058 3.64204 35.7532 3.84614 35.7986 3.84433V3.84614Z" fill="#1E1D1F"/>
<path d="M33.0986 4.73615C33.2048 5.04003 33.2792 5.43736 33.2665 5.7476C33.2166 6.73819 32.1652 6.22112 31.8731 6.24199C31.6935 6.24924 31.5402 6.41434 31.6064 6.6384C31.659 6.82255 31.7779 6.87789 31.8404 6.95227C31.9348 7.06657 31.8849 7.19901 31.776 7.25253C31.5592 7.36139 31.2916 7.11556 31.2045 7.40856C31.1383 7.61267 31.2018 7.85668 31.3642 8.01634C31.1801 7.88027 31.0875 7.62627 31.1374 7.39132C31.19 7.15003 31.3579 7.16091 31.5883 7.17815C31.7307 7.18722 31.7833 7.11918 31.7715 7.07474C31.7624 6.98856 31.5638 6.9559 31.4776 6.67741C31.4096 6.47784 31.4867 6.26285 31.6717 6.15762C32.1534 5.87913 33.2284 6.88152 33.183 5.40742C33.1776 5.18245 33.1431 4.9593 33.0986 4.73705V4.73615Z" fill="#3F3E40"/>
<path d="M33.9964 4.94384C33.9964 4.94384 34.0127 4.56284 33.814 4.59459C33.6154 4.62634 33.4766 4.8876 33.5727 5.14069C33.6689 5.39468 34.0236 5.2822 33.9964 4.94293V4.94384Z" fill="#E6AB7A"/>
<path d="M33.9188 5.00369C33.9188 5.00369 33.946 4.76965 33.858 4.74879C33.7709 4.72701 33.6793 4.91026 33.6983 5.0309C33.7174 5.15155 33.9052 5.14339 33.9188 5.00369Z" fill="#F2C198"/>
<defs>
<linearGradient id="paint0_linear_6413_74467" x1="3.81941" y1="30.8374" x2="10.2356" y2="30.8374" gradientUnits="userSpaceOnUse">
<stop stop-color="#F24949"/>
<stop offset="1" stop-color="#FFC16F"/>
</linearGradient>
<linearGradient id="paint1_linear_6413_74467" x1="33.0367" y1="21.8283" x2="33.2771" y2="16.8563" gradientUnits="userSpaceOnUse">
<stop stop-color="#6A0303"/>
<stop offset="1" stop-color="#B86200"/>
</linearGradient>
</defs>
</svg>
