<svg width="30" height="30" viewBox="0 0 30 30" fill="none" xmlns="http://www.w3.org/2000/svg">
<path d="M0.478107 14.876C0.489964 14.7914 0.428985 14.6338 0.542474 14.6169C0.539086 14.6999 0.584821 14.8608 0.478107 14.876Z" fill="#A08074"/>
<path d="M0.542541 14.5504C0.544234 14.4759 0.50697 14.3607 0.606908 14.3557C0.596744 14.4285 0.649254 14.5437 0.542541 14.5504Z" fill="#96817E"/>
<path d="M9.05359 6.88395C9.05359 6.88395 8.996 6.98558 8.98923 7.01437C8.87574 6.99235 8.8046 6.95001 8.79443 6.95001C8.83509 6.93137 8.97906 6.83482 8.98923 6.81958L9.05359 6.88395Z" fill="#B6AEAF"/>
<path d="M8.27341 7.01477C8.6704 7.34051 7.8815 7.19969 7.85096 7.20987C7.83739 7.21327 7.77801 7.37105 7.65586 7.40498C6.57515 7.70866 5.38926 7.76974 4.6343 8.73677C4.61394 8.94715 5.45373 8.39916 5.51142 8.3788C5.75233 8.29397 7.32164 7.81215 7.46076 7.79349C7.81194 7.74599 8.21233 7.75786 8.56521 7.79349C8.62799 7.82572 8.5211 7.91734 8.50074 7.92412C7.31485 8.32621 5.60982 8.24307 4.6343 9.15921C4.30008 9.24234 4.05238 9.4612 3.75718 9.61389L2.84782 10.849C3.26009 10.3604 4.83279 9.68854 5.08897 9.25761C5.12969 9.19145 4.99906 9.13377 5.0245 9.09475C5.18228 8.85214 5.96779 8.70623 6.29183 8.64007C6.35969 8.6265 6.76178 8.51622 6.81098 8.50943C7.17743 8.46023 7.58121 8.47041 7.94767 8.3788C7.96803 8.47381 7.85266 8.60275 7.7848 8.63837C6.27147 9.42557 5.61151 9.34584 4.17792 10.6522C3.40429 11.3579 2.68665 12.2045 2.16411 13.1207C1.98089 13.1885 2.15563 12.8407 2.16411 12.8289C2.29644 12.6134 3.44501 11.2426 3.23634 11.1069C2.52039 11.5819 1.82141 12.3114 1.3854 13.0562C0.878125 13.141 1.02064 14.0775 0.60498 14.2913C0.710167 13.7959 1.14448 13.1461 1.19029 12.7322C1.59577 12.0484 2.0708 11.4445 2.55432 10.8151C2.59843 10.7574 2.46271 10.6861 2.48985 10.6522C2.49325 10.6488 2.51869 10.6318 2.55432 10.5877C2.56789 10.5707 2.63915 10.7065 2.87836 10.4248C2.99882 10.284 3.28384 9.79542 3.33304 9.74283C3.56886 9.48665 4.29159 8.80803 4.56813 8.5739C4.6835 8.4755 4.81752 8.30585 4.89217 8.24986C4.96682 8.19387 5.28408 7.96314 5.34685 7.92582C5.64375 7.74429 6.14593 7.69848 6.38684 7.40667C6.65829 7.38123 6.81267 7.30827 7.03662 7.27604C7.2436 7.2472 7.52183 7.11487 7.75087 7.08094C7.92222 7.05549 8.09696 7.02665 8.27001 7.01647L8.27341 7.01477Z" fill="#FCC462"/>
<path d="M13.862 6.1698C13.7517 6.83655 13.5278 7.2064 13.0171 7.6C12.6727 7.23694 12.4522 7.09612 12.0755 6.95022L12.822 7.73063C12.7491 7.77644 12.7219 7.77814 12.6914 7.7951L12.0094 7.20979C11.8092 7.34891 12.3181 7.39811 11.9449 7.53383L11.1645 7.14362L12.1722 8.05298C12.1451 8.06485 12.0704 8.0411 12.0416 8.05298C11.7091 7.90877 11.2391 7.41847 10.9049 7.33873C10.7573 7.3031 10.5537 7.35909 10.742 7.53383C10.5758 7.47275 9.9701 7.40489 9.73428 7.33873C9.54766 7.28613 9.27451 7.06898 8.98779 7.01469C8.99458 6.98585 9.04717 6.88914 9.05226 6.88405C9.12352 6.82467 9.18968 6.83825 9.24737 6.81958C10.0447 6.55492 10.5283 6.70591 11.2612 6.65671C11.1831 6.45482 10.7522 6.65671 10.6759 6.49384C10.8099 6.52947 10.798 6.42937 10.8065 6.42937C11.3901 6.32249 12.2062 6.24615 12.8203 6.1698C13.1596 6.12739 13.5227 6.02729 13.8603 6.1698H13.862Z" fill="#FA9023"/>
<path d="M29.8454 17.9949C29.8267 18.7295 29.803 19.0943 29.6503 19.8136C29.4874 19.2452 29.6113 18.721 29.5858 18.0916C29.54 17.0041 29.3398 15.6078 29.1956 14.5831C29.1294 14.1166 28.8461 14.3202 28.8054 14.2591C28.8003 14.2506 28.9208 14.1776 28.8699 14.064C28.4729 13.1869 28.1081 11.9619 27.6348 11.173C27.7688 10.8202 28.1437 11.475 28.2201 11.5955C29.3551 13.4091 29.8997 15.881 29.8437 17.9949H29.8454Z" fill="#FDA338"/>
<path d="M18.2158 6.23432C18.1547 6.64827 17.6355 6.36325 17.3386 6.49389C17.2691 6.52443 16.3377 7.47789 16.2664 7.40324C16.3275 6.99268 16.8823 6.90445 16.9162 6.39549C16.5514 6.28691 16.3462 6.4888 16.0069 6.55836C15.9492 6.3904 15.9678 6.2394 15.9424 6.16815C16.716 6.03921 17.454 6.13083 18.2158 6.23262V6.23432Z" fill="#FDA338"/>
<path d="M26.3369 13.3819C26.566 13.7857 26.812 14.1063 26.9867 14.5508C27.3209 15.4059 27.2972 16.0692 27.4414 17.0515C27.4448 17.0804 27.6976 17.5418 27.7009 17.5707C27.7637 18.0881 27.5517 18.9127 27.8316 19.2605V18.8058C27.9368 18.743 27.8927 18.9805 27.896 19.0331C28.0012 20.4379 27.6178 20.9977 27.2463 22.2176C27.2395 22.2379 27.2531 22.2634 27.2463 22.282C26.7899 22.7214 26.5422 23.3203 26.2063 23.8412C25.8704 24.362 25.5141 25.0762 24.9712 25.4325C25.7075 24.4553 26.1774 22.8605 26.2063 21.6322L26.5303 21.7289C26.5541 20.2258 26.778 18.2731 26.3352 16.8242H26.5303C26.7169 17.5062 26.6576 17.0176 26.9205 17.1822C26.7763 17.3043 27.0342 18.6429 27.1801 18.3511C27.1156 17.7013 27.0715 17.0023 26.9205 16.3695C27.1716 16.451 27.0647 16.0234 27.0512 15.9471C26.9053 15.1361 26.5066 14.2013 26.174 13.4464L26.3369 13.3819Z" fill="#FDA338"/>
<path d="M23.0234 10.133C23.2083 10.3094 23.5052 10.6963 23.6731 10.9134C24.2737 11.687 25.0406 13.0154 25.3629 13.935C25.4766 14.259 26.05 16.6257 26.0127 16.7937C26.0076 16.8123 25.6954 16.9175 25.7531 17.0855C25.6768 17.1092 25.5716 17.1754 25.4936 17.2161C25.5003 17.0465 25.48 17.0872 25.3629 17.1516C25.4494 16.9243 24.8964 15.0971 24.7776 14.7476C24.1109 12.7779 22.6382 10.2501 20.8145 9.15917L20.8789 8.8996C21.6746 9.20498 22.399 9.54089 23.0234 10.1347V10.133Z" fill="#E48141"/>
<path d="M28.3506 22.4126C28.0401 23.2117 27.7873 23.8021 27.2461 24.4926L27.8314 22.3804C27.5278 22.6145 27.4361 23.0641 27.3768 23.4204L27.1172 23.3237C27.1884 23.0879 27.4412 22.4025 27.2478 22.2192C27.6194 20.9994 28.0028 20.4412 27.8976 19.0348C28.1521 19.0297 28.1012 18.9754 28.1572 19.1977C28.2912 19.727 27.8484 21.1097 27.8331 21.471C27.8213 21.7306 27.8739 21.9698 27.9298 22.2175C28.4235 21.6407 28.6407 20.6618 28.7425 19.9102C28.7781 19.6472 28.4609 19.2299 28.9054 19.1637C28.9376 19.3741 29.1683 19.4267 29.1972 19.6506C29.2532 20.0731 28.544 21.9189 28.3523 22.4126H28.3506Z" fill="#EE6014"/>
<path d="M25.2966 12.342C25.3814 12.4743 25.4747 12.7101 25.5561 12.8611C26.0532 13.7756 26.72 15.5315 26.9202 16.3696C27.0712 17.0024 27.1153 17.7014 27.1797 18.3512C27.0338 18.643 26.776 17.3027 26.9202 17.1823C26.6572 17.0194 26.7166 17.5063 26.53 16.8243C25.9209 14.5933 25.5663 12.5541 23.768 10.8473L23.6713 10.9118C23.5033 10.6946 23.2064 10.3078 23.0215 10.1314C23.0639 9.93798 23.2386 10.0771 23.3133 10.1314C23.7815 10.4741 24.9708 11.8398 25.2949 12.3403L25.2966 12.342Z" fill="#FA9023"/>
<path d="M27.6369 11.1729C28.1103 11.9618 28.475 13.1884 28.872 14.0639C28.9229 14.1775 28.8008 14.2505 28.8076 14.259C28.8483 14.3217 29.1316 14.1182 29.1978 14.583C29.342 15.6077 29.5422 17.004 29.588 18.0915C29.6151 18.7209 29.4896 19.2451 29.6524 19.8135C29.5523 20.2902 29.2894 20.6906 29.2622 21.1775C29.0485 21.5355 28.7363 22.1547 28.548 22.5415L28.3529 22.4109C28.5446 21.9172 29.2538 20.0714 29.1978 19.6489C29.1672 19.425 28.9382 19.3724 28.906 19.162C28.4615 19.2282 28.7787 19.6455 28.7431 19.9085C28.643 20.6601 28.4258 21.6373 27.9304 22.2158C27.8728 21.9664 27.8202 21.7289 27.8337 21.4693C27.8507 21.1063 28.2918 19.7253 28.1578 19.1959C28.1018 18.9754 28.1527 19.028 27.8982 19.0331C27.8948 18.9805 27.9389 18.743 27.8337 18.8057V19.2604C27.5538 18.9126 27.7676 18.0881 27.7031 17.5706C27.6997 17.5418 27.4469 17.0803 27.4435 17.0515C27.2993 16.0675 27.3231 15.4041 26.9889 14.5508C27.2315 14.5949 27.1568 14.4592 27.1195 14.3234C26.6818 12.7287 24.6188 10.1448 23.1886 9.28806C23.0427 9.19984 21.4021 8.32951 21.4021 8.67052C23.6432 9.54933 25.1837 11.346 26.3408 13.3818L26.1779 13.4463C26.5104 14.203 26.9091 15.1378 27.055 15.947C27.0686 16.0234 27.1755 16.4509 26.9244 16.3695C26.7242 15.5314 26.0574 13.7755 25.5604 12.861C25.9998 12.861 25.4789 12.179 25.3008 12.3419C24.9767 11.8414 23.7875 10.4757 23.3192 10.1329C23.2446 10.0787 23.0681 9.93954 23.0274 10.1329C22.4031 9.54085 21.6803 9.20324 20.883 8.89786C19.6343 8.41943 18.3025 8.15307 16.9843 7.92403C16.5381 7.73741 16.5364 7.8426 16.27 7.40489C16.3413 7.47954 17.2727 6.52607 17.3422 6.49553C17.6391 6.3649 18.1583 6.64992 18.2194 6.23596C19.1033 6.35472 19.3493 6.58036 20.0058 6.75511C20.0788 6.77377 21.8686 6.87726 21.3699 7.07915C21.0034 7.01468 20.357 6.95021 20.0058 7.01468C19.9125 7.03165 19.7785 6.97905 19.8752 7.14532C21.2867 7.20639 22.6864 7.35569 23.969 7.9902C24.9581 8.4805 27.0771 10.2347 27.6403 11.1746L27.6369 11.1729Z" fill="#FDA338"/>
<path d="M26.9869 14.5507C26.8121 14.1045 26.5661 13.7856 26.3371 13.3818C25.1801 11.3459 23.6413 9.54926 21.3984 8.67045C21.3984 8.32944 23.039 9.19977 23.1849 9.28799C24.6151 10.1448 26.6781 12.7286 27.1158 14.3234C27.1531 14.4591 27.2295 14.5948 26.9852 14.5507H26.9869Z" fill="#FDEFC7"/>
<path d="M23.187 8.2481C23.2871 8.23283 24.6987 9.20496 24.8768 9.35256C26.1611 10.4112 27.5743 12.3741 28.1579 13.9333C28.2156 14.0859 28.7958 15.9114 28.5804 15.9148C27.9374 13.4175 26.704 11.2391 24.7462 9.54766C24.4883 9.32542 23.1718 8.52803 23.1226 8.44321C23.0734 8.35838 23.1226 8.25828 23.187 8.2481Z" fill="#FDEFC7"/>
<path d="M24.4202 9.6139C24.5848 9.57827 26.5833 11.7583 26.5002 12.213L24.3235 9.84123C24.2981 9.76659 24.3558 9.62747 24.4202 9.6139Z" fill="#FCC462"/>
<path d="M20.8796 8.89788L20.8152 9.15745C20.1213 8.7418 19.0966 8.30748 18.2805 8.50767V8.4432C18.3484 8.42454 18.5435 8.48223 18.5079 8.31257C17.9565 8.21587 17.4848 8.13274 16.981 7.92236C18.2975 8.15309 19.631 8.41776 20.8796 8.89619V8.89788Z" fill="#B54C14"/>
<path d="M20.3926 7.53376C20.5877 7.47098 21.2341 7.53376 21.4648 7.63046L20.3281 7.6627C20.2637 7.63046 20.3739 7.53885 20.3926 7.53206V7.53376Z" fill="#FCC462"/>
<path d="M25.558 12.8602C25.475 12.7077 25.3835 12.474 25.2988 12.3419C25.4784 12.1809 25.9967 12.8602 25.558 12.8602Z" fill="#FCC462"/>
<path d="M1.38715 13.056C0.978279 13.7533 0.723795 14.5456 0.542264 15.3294H0.41163C0.421809 15.2989 0.401451 15.2361 0.41163 15.1988C0.440471 15.0851 0.46083 14.9918 0.476099 14.8747C0.584678 14.8578 0.537175 14.6983 0.540568 14.6152C0.540568 14.5931 0.540568 14.5711 0.540568 14.5507C0.647451 14.5439 0.594858 14.4285 0.605037 14.3556C0.60843 14.3352 0.599947 14.3115 0.605037 14.2911C1.02069 14.0791 0.878182 13.1409 1.38545 13.056H1.38715Z" fill="#F6DD87"/>
<path d="M0.542551 15.3312L0.282979 16.5663C0.288068 16.2898 0.523889 15.6926 0.152344 15.657C0.332178 15.5688 0.274496 15.5738 0.347448 15.4619C0.391558 15.3957 0.381379 15.4178 0.411917 15.3312H0.542551Z" fill="#FDA338"/>
<path d="M0.802373 20.431C0.380078 18.2296 0.997044 15.1704 2.16518 13.1244C1.98396 13.1902 2.15794 12.844 2.1664 12.8321C2.29873 12.6166 3.4473 11.2458 3.23862 11.1101C2.52437 11.5851 1.82539 12.3147 1.38768 13.0594C0.978814 13.755 0.722634 14.5473 0.542799 15.3328L0.283227 16.5679C0.27644 16.9768 0.269654 17.3958 0.283227 17.803C0.303585 18.3781 0.323944 19.0924 0.413861 19.654C0.471544 20.0085 1.01275 21.5439 0.999173 21.6678L1.71173 23.193C1.55225 22.2429 0.983904 21.381 0.802373 20.431Z" fill="#FCC462"/>
<path d="M1.64741 16.0455C1.70509 16.1184 1.71188 16.2084 1.84251 16.1761C1.34033 18.0966 1.55919 20.7874 2.36166 22.6417C2.42443 22.7842 2.54828 23.132 2.75186 22.9997C2.90116 23.4849 3.14886 24.1567 3.40164 24.591C3.73247 25.1594 4.36529 25.6616 4.7012 26.1502C4.70629 26.1569 4.56718 26.2723 4.57057 26.2808C4.83014 26.7083 6.29427 27.3479 6.84395 27.3853C5.58341 26.4471 4.73005 25.0695 3.79015 23.8445L3.92079 23.5527C3.25404 22.1039 2.95375 20.4616 3.01144 18.8753C3.01483 18.7685 3.03688 18.6395 3.14207 18.5835C3.18448 18.7871 3.42879 19.3504 3.53228 19.5574C3.31682 19.6133 3.38807 20.219 3.40164 20.37C3.43049 20.6669 3.80712 22.5484 3.92079 22.7095C3.97508 22.7842 4.13116 22.8724 4.18036 22.774C4.21769 22.6994 3.82918 21.4473 3.79015 21.1504C3.76471 20.9502 3.62898 20.1019 3.85462 20.0782C4.15831 20.5753 4.60959 21.1657 5.02355 21.5729C4.92515 21.941 5.0999 22.5535 5.21865 22.9369C4.89631 23.3254 4.56887 22.5823 4.27707 22.9369C4.03446 23.2321 5.31366 25.0712 5.54439 25.4054C6.2807 26.4793 7.17139 27.9265 8.66266 27.8094C8.7407 27.8925 8.88321 27.9824 8.9867 28.0367L8.7916 28.1334C7.54124 27.767 6.28239 27.5329 5.08802 26.8983C4.61129 26.6456 3.85123 26.1044 3.46442 25.7294C3.1794 25.4546 2.94188 25.0593 2.684 24.7556C2.54997 24.5961 2.42782 24.4197 2.32603 24.2364C2.3286 24.2411 2.20168 24.1595 2.13938 24.0932L1.7832 23.3691C1.7832 23.3691 1.75938 23.2796 1.70848 23.1965C1.54901 22.2464 0.980661 21.3845 0.79913 20.4345C0.376688 18.2306 0.994234 15.1718 2.16316 13.1257C2.6857 12.2096 3.40334 11.363 4.17697 10.6572C3.80373 11.1662 4.25331 10.9473 4.3076 11.0797C4.3568 11.1984 2.80615 12.7508 2.61784 13.029C2.2429 13.5838 1.91037 14.5356 1.77295 15.1735C1.7017 15.5009 1.39632 15.7418 1.64232 16.0506L1.64741 16.0455Z" fill="#D33C17"/>
<path d="M8.9897 7.0147C9.27811 7.07068 9.54956 7.28614 9.73618 7.33874C9.972 7.4049 10.5777 7.47276 10.7439 7.53384C11.1935 7.6984 11.4565 8.11406 11.9129 8.11915C11.8009 8.16326 11.7059 8.20907 11.5888 8.24979C11.1087 8.05977 10.9 7.83074 10.3537 7.73064C10.3317 7.72725 10.3792 7.52027 9.99575 7.66617C9.17632 7.97834 10.5777 8.1938 10.6133 8.34819L10.1586 8.63999C10.1179 8.64678 10.0704 8.63321 10.028 8.63999L7.94801 8.38042C7.58156 8.47034 7.17778 8.46016 6.81132 8.51106C6.76212 8.51784 6.36004 8.62642 6.29217 8.64169C5.96813 8.70786 5.18263 8.85376 5.02485 9.09637C4.90439 9.15575 4.74831 9.13369 4.63464 9.16084C5.61016 8.2447 7.3152 8.32783 8.50109 7.92575C8.52145 7.91896 8.63003 7.82904 8.56556 7.79511C8.21267 7.75948 7.81229 7.74761 7.4611 7.79511C7.32198 7.81377 5.75267 8.2939 5.51176 8.38042C5.45408 8.40078 4.61428 8.94877 4.63464 8.73839C5.38961 7.77136 6.5755 7.71028 7.6562 7.4066C7.77836 7.37267 7.83774 7.21658 7.85131 7.21149C7.88185 7.20132 8.67074 7.34213 8.27375 7.01639C8.3959 7.00791 8.76745 6.94853 8.7929 6.95192C8.80308 6.95192 8.87433 6.99434 8.988 7.01639L8.9897 7.0147Z" fill="#FDA338"/>
<path d="M10.0277 8.63841C9.78335 8.67912 9.19465 8.70118 9.18277 8.96245C9.10982 8.98281 9.05553 9.00486 8.98767 9.02692C8.99446 8.65367 8.41593 9.0863 8.37012 9.09139C8.29548 9.10157 7.90866 8.97941 7.72035 9.02692C6.50052 9.33399 4.58681 11.1154 3.8539 12.1452C2.53228 12.9002 1.94867 14.6391 1.64498 16.0439C1.39898 15.7351 1.70436 15.4942 1.77562 15.1667C1.91304 14.5305 2.24556 13.5771 2.6205 13.0223C2.80712 12.7441 4.35777 11.1917 4.31027 11.073C4.25598 10.9406 3.80809 11.1595 4.17964 10.6505C5.61153 9.34417 6.27149 9.42391 7.78651 8.63671C7.85437 8.60108 7.96974 8.47214 7.94938 8.37714L10.0294 8.63671L10.0277 8.63841Z" fill="#FA9023"/>
<path d="M5.02678 9.09296C5.00133 9.13028 5.13196 9.18796 5.09125 9.25583C4.83337 9.68675 3.26066 10.3586 2.8501 10.8472L3.75945 9.6121C4.05465 9.45941 4.30235 9.24056 4.63657 9.15743C4.75024 9.12859 4.90632 9.15064 5.02678 9.09296Z" fill="#EE6014"/>
<path d="M10.3539 7.72899C10.3946 8.1684 11.0868 8.25153 11.3939 8.37877C11.2599 8.41949 11.1683 8.46529 11.0037 8.5094C10.7255 8.58235 10.4421 8.59253 10.1588 8.64004L10.6135 8.34823C10.5779 8.19384 9.17651 7.97838 9.99595 7.66622C10.3794 7.52031 10.3302 7.72729 10.3539 7.73069V7.72899Z" fill="#E48141"/>
<path d="M12.6934 7.79334C12.5204 7.89174 12.3524 7.96978 12.1743 8.05291L11.1665 7.14355L11.9469 7.53376C12.3219 7.39634 11.8112 7.34884 12.0114 7.20972L12.6934 7.79503V7.79334Z" fill="#EE6014"/>
<path d="M12.0434 8.05299C12.0248 8.06147 11.9874 8.08862 11.9128 8.11746C11.4547 8.11406 11.1917 7.69841 10.7439 7.53215C10.5555 7.3574 10.7591 7.30142 10.9067 7.33704C11.2409 7.41678 11.7109 7.90709 12.0434 8.05129V8.05299Z" fill="#EE6014"/>
<path d="M11.5886 8.24803C11.5767 8.25142 11.4766 8.35321 11.3935 8.37866C11.0864 8.25142 10.3942 8.16829 10.3535 7.72888C10.8981 7.83068 11.1085 8.05801 11.5886 8.24803Z" fill="#D33C17"/>
<path d="M10.9393 8.70286C10.3777 8.65535 9.72456 8.81313 9.18506 8.96243C9.19693 8.70116 9.78564 8.67741 10.0299 8.63839C10.0707 8.6316 10.1182 8.64517 10.1606 8.63839C10.4439 8.59088 10.7272 8.5807 11.0055 8.50775L10.941 8.70286H10.9393Z" fill="#982E0E"/>
<path d="M13.0173 7.59827C12.9494 7.65086 12.8934 7.68309 12.8222 7.7289L12.0757 6.94849C12.4523 7.09439 12.6729 7.2352 13.0173 7.59827Z" fill="#D33C17"/>
<path d="M18.2149 8.5739C19.3346 8.54167 20.7597 9.36449 21.5927 10.0686L21.3331 10.3926C20.5239 9.6071 18.7866 8.57729 17.7602 9.48325C16.9917 9.66478 17.046 10.038 17.37 10.6522C17.3904 10.6912 17.3004 10.7438 17.3055 10.7489C17.4582 10.983 18.1843 11.3512 18.2149 11.7566C18.2268 11.911 18.1945 12.1418 17.9875 12.1468C17.9112 12.1468 17.5413 10.7014 17.1104 11.2375C17.046 11.0356 16.8305 10.6624 16.7202 10.4571C16.7592 9.88025 17.1444 9.08117 17.6296 8.76731C17.6364 8.76391 17.7314 8.71472 17.7602 8.70284C17.879 8.64685 18.0809 8.57729 18.2149 8.5722V8.5739Z" fill="#FDA338"/>
<path d="M15.7475 2.27106C15.6576 2.2049 15.8018 2.07257 15.812 1.94702C15.8255 1.79942 15.9511 1.74174 15.7797 1.62298C15.5201 1.84353 15.1639 1.77058 14.8704 1.62298C14.4937 2.06578 14.9399 2.18284 15.3573 2.20829C15.2436 2.27106 15.5914 2.47804 15.0332 2.27276C14.548 2.09462 14.5192 1.77906 14.1884 2.56457C13.4979 4.20683 14.738 5.87115 13.7981 7.82728C13.7337 7.963 13.4979 8.22936 13.3757 8.31419C13.0313 8.5534 12.5122 8.4567 12.3035 8.76887C11.9981 8.73494 11.8132 8.57546 11.6537 8.8995C11.5112 8.852 11.0514 8.71458 10.9395 8.7044L11.0039 8.50929C11.1685 8.46688 11.2601 8.41938 11.3941 8.37866C11.4773 8.35321 11.5774 8.25311 11.5892 8.24802C11.7063 8.209 11.803 8.1615 11.9133 8.11739C11.9862 8.08855 12.0252 8.05971 12.0439 8.05292C12.0728 8.04105 12.1474 8.0648 12.1745 8.05292C12.3544 7.96809 12.5206 7.89175 12.6937 7.79335C12.7242 7.77638 12.7497 7.77469 12.8243 7.72888C12.899 7.68307 12.9499 7.65253 13.0194 7.59824C13.5301 7.20464 13.754 6.83479 13.8643 6.16805C14.1595 4.39006 12.7225 4.29505 14.1239 2.07426C14.431 1.58735 14.7041 1.03258 15.3912 0.969805C16.3023 0.886674 16.0393 1.76379 15.7492 2.26937L15.7475 2.27106Z" fill="#4A2722"/>
<path d="M15.7468 2.27126C15.6721 2.40189 15.5093 2.49351 15.4872 2.53083C15.1462 2.4494 14.6152 3.24508 14.5779 3.47242C14.5066 3.89825 14.963 5.89001 15.097 6.42951C14.8561 6.41255 15.0071 6.85195 14.9664 7.04706L15.1615 6.95036C15.5771 8.36698 16.3728 8.59771 17.7606 8.70459C17.7334 8.71816 17.6367 8.76567 17.63 8.76906C16.7664 9.15248 15.7417 8.8963 15.2259 8.08705C15.1004 7.89025 15.1106 7.50513 14.9019 7.40503C14.8493 7.19127 15.0342 7.03009 14.6423 7.08099C14.6525 6.29379 14.6135 5.8459 14.5117 5.06718C14.4404 4.51071 14.1605 4.19006 14.2521 3.54028C14.3302 2.9906 14.7763 2.71745 15.0325 2.27295C15.5924 2.47824 15.2446 2.26956 15.3566 2.20849C15.4685 2.14741 15.6857 2.13214 15.8112 1.94891C15.8011 2.07446 15.6569 2.20679 15.7468 2.27295V2.27126Z" fill="#81605B"/>
<path d="M15.486 2.53067C15.05 3.25679 14.9312 3.21098 15.0958 4.15427C15.1484 4.46134 15.1993 4.48849 15.2909 4.73958L15.0313 4.90245C15.5301 5.7117 15.4928 7.6356 16.2986 8.11911C16.6566 8.33288 17.8815 8.54834 18.2802 8.44315V8.50762C18.2802 8.50762 18.2904 8.58397 18.2157 8.57209C18.0817 8.57549 17.8798 8.64674 17.7611 8.70273C16.3733 8.59585 15.5776 8.36512 15.1619 6.94849C15.1314 6.84161 15.1348 6.58034 15.0975 6.42935C14.9618 5.89154 14.5071 3.89809 14.5783 3.47225C14.6173 3.24491 15.1467 2.44923 15.4877 2.53067H15.486Z" fill="#4A2722"/>
<path d="M15.2925 4.73956C15.452 5.17388 15.6963 5.63025 15.8778 6.10359C15.9118 6.19351 15.9406 6.16467 15.9423 6.16806C15.9677 6.23762 15.9491 6.38861 16.0068 6.55827C16.1103 6.85517 16.056 7.05706 16.2663 7.40315C16.5344 7.84086 16.5344 7.73737 16.9806 7.9223C17.4845 8.13267 17.9561 8.2158 18.5075 8.31251C18.5431 8.48216 18.348 8.42448 18.2802 8.44314C17.8815 8.54833 16.6549 8.33287 16.2986 8.1191C15.4927 7.63558 15.53 5.71169 15.0312 4.90243L15.2908 4.73956H15.2925Z" fill="#715350"/>
<path d="M14.5118 5.06529C14.6119 5.844 14.6509 6.2919 14.6424 7.0791C14.6356 7.69664 14.427 8.30571 14.5779 8.93004L15.4228 8.86557C15.0411 8.46518 15.0258 7.90871 14.9037 7.40314C15.1124 7.50324 15.1039 7.88835 15.2277 8.08515C15.7435 8.89441 16.7682 9.15059 17.6317 8.76717C17.1465 9.07933 16.7614 9.88011 16.7224 10.4569C16.1761 9.44409 15.5009 8.63144 14.2539 9.22185C13.935 9.37284 13.8298 9.57473 13.6041 9.80716C13.4022 10.0158 13.2478 10.2194 13.085 10.4569C12.9764 10.1549 12.9493 9.91573 12.6948 9.67652C12.6218 9.38471 12.3555 9.26087 12.1095 9.15738C11.9992 9.05897 11.7905 8.94191 11.6548 8.8978C11.8143 8.57546 11.9992 8.73493 12.3046 8.76717C12.5794 8.79771 12.8169 8.94022 13.1172 8.8978C14.4168 8.70779 14.3574 6.28172 14.3845 5.35709C14.3879 5.23833 14.3201 5.03644 14.5152 5.06529H14.5118Z" fill="#4A2722"/>
<path d="M15.0313 2.27122C14.7751 2.71402 14.3289 2.98886 14.2508 3.53854C14.1592 4.18832 14.4392 4.50897 14.5104 5.06544C14.3153 5.0366 14.3832 5.23849 14.3798 5.35725C14.3526 6.28187 14.4137 8.70794 13.1125 8.89796C12.8122 8.94207 12.5746 8.79786 12.2998 8.76732C12.5085 8.45515 13.0276 8.55186 13.372 8.31264C13.4942 8.22782 13.7283 7.96146 13.7945 7.82573C14.7344 5.86961 13.4925 4.20529 14.1847 2.56302C14.5155 1.77582 14.5443 2.09308 15.0296 2.27122H15.0313Z" fill="#5F443F"/>
<path d="M15.8118 1.94537C15.6863 2.12859 15.4759 2.14047 15.3571 2.20494C14.9381 2.17949 14.4936 2.06413 14.8702 1.61963C15.1637 1.76723 15.52 1.84018 15.7796 1.61963C15.9509 1.74008 15.8254 1.79607 15.8118 1.94367V1.94537Z" fill="#8C6F69"/>
<path d="M14.9019 7.4032C15.0241 7.90708 15.0411 8.46524 15.4211 8.86563L14.5762 8.9301C14.4252 8.30577 14.6339 7.69501 14.6407 7.07916C15.0343 7.02826 14.8493 7.18944 14.9002 7.4032H14.9019Z" fill="#81605B"/>
<path d="M15.097 6.42948C15.1343 6.58023 15.1309 6.84278 15.1614 6.9478L14.9666 7.04435C15.0055 6.84956 14.8565 6.41085 15.097 6.42778V6.42948Z" fill="#8C6F69"/>
<path d="M20.8142 9.15756C22.638 10.2484 24.1106 12.7763 24.7774 14.746C24.5551 14.9089 24.511 14.3779 24.4533 14.2269C23.8595 12.6779 22.8721 11.1476 21.5946 10.0686C20.7616 9.36454 19.3365 8.54171 18.2168 8.57395C18.2914 8.58582 18.2779 8.50948 18.2813 8.50948C19.0973 8.30929 20.122 8.7436 20.8159 9.15926L20.8142 9.15756Z" fill="#FDEFC7"/>
<path d="M6.32411 22.6077C6.34786 24.0108 7.05871 25.3324 7.88324 26.442C7.9528 26.537 8.0003 26.6065 8.07834 26.7015C8.80447 27.5922 9.41014 28.1809 10.5791 28.4558C10.8794 28.527 11.5173 28.4269 11.6835 28.4558C11.7463 28.4659 11.6852 28.639 11.748 28.6509C11.8905 28.678 11.9889 28.6152 12.1704 28.6509V28.7153H12.106C11.5308 28.6644 10.8471 28.7849 10.2873 28.7153C10.1515 28.6984 9.91741 28.6254 9.76811 28.5847C9.41862 28.4931 9.12681 28.2284 8.79429 28.13L8.98939 28.0333C8.8859 27.979 8.7417 27.8891 8.66535 27.806C7.88833 26.9696 6.80253 25.9567 6.19686 25.0118C5.81853 24.4247 5.42833 23.6002 5.22304 22.9318C5.10428 22.5484 4.92954 21.9359 5.02794 21.5677C5.33671 21.8714 5.96274 22.3719 6.3275 22.6077H6.32411Z" fill="#D56B3A"/>
<path d="M8.53524 25.9211C8.94581 26.3656 10.3556 27.75 10.907 27.806C11.5602 27.8721 11.8825 26.939 12.4339 26.637C12.5832 27.1307 12.7715 27.5871 12.9531 28.0672L13.3161 28.6525H12.3678C12.305 28.6457 12.2337 28.6644 12.1727 28.6525C11.9911 28.6169 11.8927 28.6797 11.7502 28.6525C11.6874 28.6407 11.7485 28.4676 11.6857 28.4574C11.5195 28.4286 10.8816 28.5287 10.5813 28.4574C9.41236 28.1826 8.80669 27.5939 8.08057 26.7032C8.12298 26.5403 8.50471 26.4097 8.53524 26.2808C8.57426 26.1247 8.29094 25.9228 8.53524 25.9228V25.9211Z" fill="#B23016"/>
<path d="M16.2664 7.40328C16.056 7.05718 16.1086 6.85529 16.0068 6.55839C16.3461 6.48883 16.5514 6.28694 16.9162 6.39552C16.8823 6.90279 16.3275 6.99271 16.2664 7.40328Z" fill="#FDA338"/>
<path d="M26.3368 16.8259C26.7796 18.2765 26.5557 20.2275 26.5319 21.7307L26.2079 21.634C26.2096 21.5508 26.2215 20.6907 26.0128 21.0809C25.9432 21.2115 25.855 22.4839 25.7532 22.8351C25.5649 23.4866 24.8846 25.2527 24.5843 25.8567C24.5317 25.9636 24.5181 26.1875 24.3247 25.9873C24.8608 24.8048 25.1306 23.4357 25.2985 22.1531C25.4156 21.2675 25.5242 20.4209 25.4936 19.5218C25.4902 19.403 25.5598 19.2011 25.363 19.23C25.5649 18.7346 25.6701 18.3732 25.8177 17.8659C25.9755 17.3247 26.2469 17.0312 26.0772 16.4035C26.3334 16.2474 26.2944 16.6868 26.3368 16.8259Z" fill="#FA9023"/>
<path d="M27.1175 23.322C26.8155 24.3145 26.3931 25.0118 25.8179 25.8566C25.2716 26.3198 24.7423 26.6795 24.1604 27.0917C24.0535 27.1681 23.9331 27.4158 23.9331 27.4158C23.9331 27.4158 23.4767 27.6431 23.2833 27.7076C23.2642 27.7685 23.1834 27.7798 23.1834 27.7798L23.0858 27.8202C23.0701 27.8143 23.0712 27.8111 23.0559 27.806C22.9813 27.7822 22.9643 27.8569 22.8931 27.8704C23.0559 27.5447 24.0484 25.4054 24.2249 25.402C24.2656 25.5665 23.7125 26.4928 23.8669 26.6048C24.0315 26.7236 24.2554 26.1349 24.3216 25.9873C24.515 26.1892 24.5285 25.9635 24.5811 25.8566L24.7762 26.0195C24.8967 25.7786 25.1071 25.6395 25.2954 25.4664C25.3395 26.0704 26.259 24.8828 26.3998 24.6538C26.8138 23.9836 27.0072 23.0421 27.2447 22.282C27.2515 22.2616 27.2379 22.2362 27.2447 22.2175C27.4381 22.4008 27.187 23.0862 27.1141 23.322H27.1175Z" fill="#B54C14"/>
<path d="M26.5325 16.8258H26.3374C26.295 16.6867 26.3323 16.2473 26.0778 16.4034C26.2458 17.0311 25.9744 17.3246 25.8183 17.8658H25.7538C25.8302 17.5961 25.8658 17.3026 26.0134 17.0532C25.9116 16.9565 25.8369 17.06 25.7538 17.0854C25.6961 16.9175 26.01 16.8123 26.0134 16.7936C26.0507 16.6256 25.4773 14.259 25.3636 13.9349C25.0413 13.0154 24.2744 11.687 23.6738 10.9133L23.7705 10.8489C25.5689 12.5556 25.9235 14.5949 26.5325 16.8258Z" fill="#FDA338"/>
<path d="M26.2076 21.634C26.1787 22.8623 25.7088 24.4587 24.9725 25.4343C25.5154 25.0763 25.8564 24.3858 26.2076 23.8429C26.893 23.9803 25.5934 25.1967 25.2982 25.4665C25.1099 25.6395 24.8978 25.7787 24.7791 26.0196L24.584 25.8567C24.8843 25.2527 25.5646 23.4866 25.7529 22.8351C25.8547 22.484 25.9429 21.2115 26.0125 21.0809C26.2212 20.6907 26.2093 21.5492 26.2076 21.634Z" fill="#EE6014"/>
<path d="M25.2974 25.4666C25.5926 25.1951 26.8938 23.9804 26.2067 23.8429C26.5426 23.3221 26.7903 22.7232 27.2467 22.2838C27.0092 23.0439 26.8158 23.9855 26.4018 24.6556C26.261 24.8829 25.3415 26.0705 25.2974 25.4682V25.4666Z" fill="#CB592D"/>
<path d="M24.4517 14.2268C24.5094 14.3795 24.5552 14.9088 24.7758 14.7459C24.8945 15.0954 25.4459 16.9226 25.3611 17.15C25.3492 17.1805 24.8012 17.4893 24.7758 17.4418C25.1066 16.5816 24.1972 14.9699 24.2227 14.3557C24.2261 14.2607 24.3754 14.2234 24.45 14.2251L24.4517 14.2268Z" fill="#FDA338"/>
<path d="M27.2461 24.4926C26.7287 25.1509 26.4165 25.3477 25.8159 25.8567C26.391 25.0135 26.8135 24.3145 27.1155 23.322L27.3751 23.4187C27.4344 23.0641 27.5277 22.6128 27.8297 22.3787L27.2444 24.4909L27.2461 24.4926Z" fill="#C75509"/>
<path d="M20.8146 26.3756C20.2751 27.5853 19.7899 28.9324 18.1188 28.5201C17.9101 28.6931 18.1052 28.6507 18.1511 28.8441C18.0373 28.828 17.8792 28.6492 17.9267 28.8002L17.7534 28.7821L17.598 28.5184L17.4709 28.6473H17.3367C17.067 28.5184 16.7531 28.705 16.6547 28.7118C16.6479 28.7118 16.6343 28.6931 16.5241 28.7118C16.1389 28.7763 15.2245 29.0358 15.2245 29.0358C15.2245 29.0358 14.9904 28.8645 14.7698 28.8407C14.6646 28.5846 14.2473 28.6015 14.0233 28.4505C13.6569 28.2045 13.4804 27.8313 13.2769 27.4767C13.8316 28.3318 14.59 28.7797 15.6486 28.5812C16.3663 28.4471 16.8277 27.5276 17.2722 27.022C17.2587 28.2673 18.3903 28.515 19.3522 27.9314C19.946 27.5717 20.2785 26.7947 20.8146 26.3723V26.3756Z" fill="#B54C14"/>
<path d="M5.15531 11.6277C4.7159 12.1706 4.37319 12.8017 3.98638 13.382C3.9762 13.3972 3.80824 13.3497 3.66234 13.5448C3.02104 14.3999 3.09908 15.7928 2.81745 16.7937C2.87005 16.9006 2.94639 16.943 3.01256 17.0211C2.83781 17.1924 3.03631 17.4215 3.07703 17.6064C3.12453 17.8218 3.1398 18.0899 3.20766 18.3206C3.11265 18.3274 3.12962 18.5191 3.14319 18.5802C3.03801 18.6362 3.01765 18.7668 3.01256 18.872C2.95488 20.4583 3.25516 22.1023 3.92191 23.5494L3.79128 23.8412C3.69288 23.7123 3.56903 23.5816 3.46723 23.451L2.55788 20.3005L2.29831 20.2683C2.22536 19.7966 2.1066 19.3962 2.03874 19.001C2.02856 18.9399 2.10829 18.5073 2.1032 18.4818C2.09642 18.4462 1.85551 18.3902 1.84363 18.3512C1.808 18.2426 2.03534 17.983 2.03874 17.961C2.15071 17.2348 2.13035 16.5036 2.29831 15.7843C2.65798 14.2472 3.85575 12.4115 4.9619 11.3003L5.157 11.6243L5.15531 11.6277Z" fill="#EE6014"/>
<path d="M3.46573 23.4527C3.56922 23.5833 3.69137 23.7122 3.78977 23.8429C4.72966 25.0695 5.58303 26.4454 6.84357 27.3836C6.29389 27.3463 4.82806 26.7067 4.57019 26.2791C4.5651 26.2706 4.70591 26.157 4.70082 26.1485C4.3649 25.6599 3.73378 25.1577 3.40126 24.5894C3.14847 24.155 2.90078 23.4832 2.75148 22.998C2.70907 22.8606 2.71246 22.7113 2.68701 22.6078C2.98391 22.7961 3.24857 23.1744 3.46743 23.4527H3.46573Z" fill="#982E0E"/>
<path d="M2.2323 15.5908C2.22382 15.6586 2.20516 15.7842 2.29677 15.7859C2.12881 16.5052 2.14917 17.2364 2.0372 17.9625C2.0338 17.9846 1.80647 18.2442 1.84209 18.3527C1.85567 18.3918 2.09658 18.4478 2.10167 18.4834C2.10676 18.5088 2.02702 18.9415 2.0372 19.0025C2.10506 19.3978 2.22382 19.7982 2.29677 20.2699C2.41892 21.0638 2.48678 21.8324 2.68698 22.6094C2.71412 22.7129 2.70903 22.8622 2.75145 22.9996C2.54956 23.1319 2.42401 22.7858 2.36124 22.6416C1.55707 20.7873 1.33991 18.0966 1.84209 16.1761C1.90996 15.9131 1.7878 15.64 2.2323 15.5908Z" fill="#EE6014"/>
<path d="M6.19519 25.0118C6.80256 25.9551 7.88665 26.9696 8.66368 27.806C7.17071 27.9231 6.28171 26.4759 5.54541 25.402L6.19519 25.0118Z" fill="#982E0E"/>
<path d="M5.2198 22.9336C5.42509 23.602 5.81699 24.4248 6.19363 25.0135L5.54385 25.4037C5.31481 25.0695 4.03391 23.2288 4.27652 22.9353C4.56833 22.5807 4.89576 23.3238 5.21811 22.9353L5.2198 22.9336Z" fill="#B23016"/>
<path d="M3.85589 12.1467C3.23325 13.0222 2.36122 14.6186 2.23228 15.5907C1.78779 15.6382 1.91164 15.9131 1.84208 16.176C1.71144 16.2083 1.70466 16.1184 1.64697 16.0454C1.95066 14.6407 2.53427 12.9017 3.85589 12.1467Z" fill="#EE6014"/>
<path d="M7.55882 22.998C8.16109 23.3085 8.90927 23.4391 9.37752 23.9718C8.3545 23.6359 7.22968 23.1931 6.32372 22.6078C5.95896 22.372 5.33294 21.8715 5.02416 21.5678C4.6102 21.1623 4.15722 20.5719 3.85524 20.0732C3.76702 19.929 3.58888 19.6745 3.5312 19.554C3.4294 19.3453 3.1851 18.7821 3.14099 18.5802C3.12742 18.5191 3.11045 18.3274 3.20546 18.3206C3.88917 20.6517 5.49072 21.9309 7.55882 22.998Z" fill="#FCC462"/>
<path d="M3.53192 19.5539C3.5913 19.6743 3.76944 19.9305 3.85596 20.073C3.63032 20.0968 3.76435 20.9451 3.7915 21.1452C3.82882 21.4421 4.21903 22.6959 4.1817 22.7689C4.1325 22.8673 3.97472 22.779 3.92213 22.7044C3.80676 22.5432 3.43013 20.6617 3.40298 20.3648C3.38941 20.2155 3.31816 19.6082 3.53362 19.5522L3.53192 19.5539Z" fill="#EE6014"/>
<path d="M8.98943 9.0285C8.74174 9.10994 8.20732 9.19985 8.14455 9.48318C7.45745 9.85642 6.8416 10.7081 6.22744 11.2374L6.32415 11.497C5.25192 12.9577 5.25532 13.9706 4.89395 15.623C4.87359 15.7197 4.83288 15.8843 4.69885 15.8503C4.78028 14.7018 4.90922 13.5685 5.44533 12.537L5.28246 12.4725C5.35711 12.2859 5.44024 11.8872 5.67267 11.6599L5.57597 11.497C4.39177 12.6998 3.8353 14.0282 3.78949 15.7197C3.77762 15.3142 3.70467 15.1632 3.72503 14.7781C3.74878 14.298 3.83869 13.957 3.9846 13.3819C4.37311 12.8016 4.71581 12.1705 5.15352 11.6276C5.33845 11.4003 5.89831 10.7624 6.09511 10.5876C6.14771 10.5418 6.21896 10.6572 6.22575 10.6521C6.49719 10.4163 7.01804 10.1465 7.0384 9.77499C6.21896 10.1313 5.58106 10.6776 4.95842 11.3019C3.85227 12.4131 2.6545 14.2471 2.29483 15.7859C2.20152 15.7859 2.22018 15.6586 2.23036 15.5908C2.361 14.6186 3.23303 13.0222 3.85396 12.1468C4.58518 11.1153 6.50059 9.33558 7.72041 9.0285C7.90873 8.981 8.29554 9.10315 8.37019 9.09297C8.4143 9.08618 8.99452 8.65356 8.98774 9.0285H8.98943Z" fill="#FDA338"/>
<path d="M12.6934 9.67823C12.9462 9.91575 12.9751 10.155 13.0836 10.4586C12.8461 10.8013 12.4644 11.3578 12.3694 11.7582C12.2727 11.7378 12.0538 12.274 12.0454 12.3113C11.9164 12.7863 11.762 13.3292 11.6551 13.8059C11.611 14.001 11.796 14.2233 11.5245 14.4235C11.3973 13.94 11.27 13.4531 11.0698 12.9933C10.9341 12.4436 12.5051 10.4502 12.5 10.2975C12.4949 10.177 12.0335 9.62394 12.0454 9.58322C12.12 9.31686 12.5424 9.53742 12.6951 9.67993L12.6934 9.67823Z" fill="#DC8226"/>
<path d="M16.7212 10.457C16.8314 10.6623 17.0469 11.0338 17.1114 11.2374C17.3319 11.9347 17.3302 12.6659 17.4354 13.3819L17.3048 13.4141C17.035 11.7447 16.56 8.78758 14.251 9.2236C15.4996 8.6332 16.1732 9.44415 16.7195 10.4587L16.7212 10.457Z" fill="#FDEFC7"/>
<path d="M19.7743 9.74284C19.832 10.0906 20.0203 10.0126 20.229 10.133C21.4013 11.151 22.102 12.588 22.633 14.0317C22.6177 14.0758 22.5143 14.1658 22.5685 14.2913C22.5635 14.2828 22.4481 14.1759 22.4379 14.1607C21.9103 13.2038 21.0637 12.0892 19.9694 11.7566C20.1068 11.3732 19.2382 10.2111 18.9617 10.0669C18.4527 9.80052 18.1846 9.97187 17.7588 10.262C17.6384 10.3434 17.4076 10.5046 17.3686 10.6522C17.0446 10.038 16.9903 9.6648 17.7588 9.48326C18.5274 9.30173 19.0991 9.47478 19.7726 9.74284H19.7743Z" fill="#FDA338"/>
<path d="M19.7108 11.6921C19.2934 11.6242 18.8625 11.6666 18.4757 11.8872L18.2161 11.7566C18.1856 11.3511 17.4594 10.9829 17.3067 10.7488C17.3033 10.7437 17.3916 10.6911 17.3712 10.6521C17.4102 10.5062 17.641 10.345 17.7614 10.2619C18.5028 10.5554 19.4681 10.8286 19.7108 11.6921Z" fill="#FDA338"/>
<path d="M18.2158 11.7565L18.4754 11.8872C18.0343 12.14 17.8884 12.6235 17.6949 13.0561L17.4354 13.3801C17.3302 12.6642 17.3319 11.9347 17.1113 11.2357C17.5423 10.7013 17.9121 12.1467 17.9884 12.145C18.1954 12.14 18.2277 11.9092 18.2158 11.7548V11.7565Z" fill="#FA9023"/>
<path d="M23.9331 24.362C23.665 25.3952 23.3698 26.1977 22.7641 27.0901H22.569C22.8252 26.6846 22.9372 26.2384 23.0882 25.7905C23.2629 25.2764 23.475 24.7844 23.5106 24.2314C23.324 24.3807 23.0322 24.1347 22.8931 24.2636C22.832 24.3196 22.3943 25.5157 22.2433 25.7905C22.0431 26.1553 21.7852 26.6625 21.4629 26.9272C21.5341 26.5285 22.7472 24.0091 22.4706 23.8412C22.4401 24.1669 22.2077 23.943 22.0482 24.133C21.8616 24.3569 21.1965 26.3741 20.9437 26.861C20.6502 27.4277 20.3873 27.8365 19.9699 28.3235C19.8104 28.5084 19.7273 28.3947 19.7748 28.7137C19.6255 28.7137 19.4508 28.8443 19.4508 28.8443C19.4508 28.8443 18.4702 28.9088 18.1512 28.8443C18.1054 28.6492 17.9103 28.6933 18.119 28.5203C19.7901 28.9325 20.2753 27.5872 20.8148 26.3758C20.903 26.1756 20.9946 25.9992 21.0744 25.7905C21.3153 25.1594 21.8395 23.887 21.8209 23.2559C21.8175 23.1575 21.8039 23.0319 21.658 23.0607C22.4164 22.6807 23.7634 21.6221 24.3216 20.9808V22.5077C24.1587 23.1167 24.0892 23.7529 23.9314 24.3586L23.9331 24.362Z" fill="#FA9023"/>
<path d="M22.7639 27.0918L21.919 28.1962C21.7968 28.2353 21.5288 28.4558 21.5288 28.4558C21.5288 28.4558 20.443 28.7086 19.7745 28.7154C19.727 28.3981 19.8102 28.5101 19.9696 28.3252C19.7796 28.7493 20.2072 28.5593 20.4888 28.5203C21.371 28.3964 22.092 27.8417 22.5688 27.0901H22.7639V27.0918Z" fill="#D56B3A"/>
<path d="M12.7579 26.2468C12.8936 26.7014 13.0412 27.0696 13.277 27.4818C13.4806 27.8381 13.6571 28.2097 14.0235 28.4557C14.2475 28.6067 14.6665 28.5897 14.77 28.8459C14.2695 28.7916 13.7707 28.7475 13.2753 28.6508C13.2397 28.4709 13.0208 28.2538 12.9513 28.0655C12.7698 27.5853 12.5797 27.1307 12.4321 26.6353C12.4084 26.5572 12.3931 26.4622 12.3677 26.3757L12.7579 26.2451V26.2468Z" fill="#EE6014"/>
<path d="M25.297 22.153C25.1274 23.4339 24.8576 24.8047 24.3232 25.9872C24.2571 26.1348 24.0331 26.7218 23.8685 26.6047C23.7142 26.4944 24.2655 25.5664 24.2265 25.4019C24.0501 25.4052 23.0576 27.5463 22.8947 27.8703C22.7302 27.9009 22.1415 28.1231 21.9209 28.1944L22.7658 27.0899C23.3715 26.1975 23.6667 25.3951 23.9347 24.3619C24.1722 24.5451 24.2299 23.8275 24.3249 23.6799C24.7016 23.0911 24.7711 23.4644 24.9747 22.5432C25.0086 22.3922 25.0205 22.3073 25.0392 22.153H25.2987H25.297Z" fill="#CB592D"/>
<path d="M25.3633 19.2299C25.2615 19.4776 25.1496 19.7032 25.0393 19.9441C25.0071 20.012 24.8612 20.1528 24.7797 20.3343C24.7288 20.4463 24.6321 20.4701 24.5846 20.6584C24.4184 20.6736 24.359 20.9434 24.325 20.9824C23.7669 21.6237 22.4198 22.6807 21.6614 23.0624C21.5698 23.1082 21.373 23.1489 21.2712 23.193C21.1355 23.2507 20.3822 23.5849 20.3297 23.5832C20.1787 23.5764 20.3042 23.3949 20.2974 23.3881C22.8915 22.5551 25.0037 20.4989 25.7552 17.8658H25.8197C25.6721 18.3731 25.5669 18.7362 25.365 19.2299H25.3633Z" fill="#F6DD87"/>
<path d="M25.2972 22.1531H25.0376C25.1258 21.4405 25.1581 20.655 25.0376 19.9441C25.1496 19.7032 25.2615 19.4776 25.3616 19.2299C25.5567 19.2011 25.4872 19.4029 25.4923 19.5217C25.5228 20.4209 25.4142 21.2675 25.2972 22.1531Z" fill="#F67741"/>
<path d="M22.4383 14.1606C22.4484 14.1742 22.5638 14.2828 22.5689 14.2913C22.6944 14.505 22.7691 14.9869 22.8929 15.2329C22.8488 15.2939 22.2381 15.2668 22.1125 15.2651C22.0056 15.2651 21.8954 15.2651 21.7885 15.2651C21.5611 14.3727 20.0987 12.3826 19.0927 12.537C18.0866 12.6914 17.8525 14.9784 17.4351 15.7215C17.3113 15.7469 17.1637 15.8046 17.0449 15.7215C17.0449 15.5094 17.162 14.9088 17.24 14.7137C17.2587 14.6645 17.43 14.8291 17.4996 14.6492C17.9763 13.4243 17.9153 11.9856 19.7407 12.213C20.4754 12.3046 22.0192 13.5668 22.4366 14.1623L22.4383 14.1606Z" fill="#C4671F"/>
<path d="M21.9189 15.5909C22.6128 16.2797 22.1479 17.8524 21.9834 18.548C21.907 18.8703 22.1632 19.5252 21.5932 19.4573C21.5711 18.3325 21.8324 17.1585 21.2691 16.1117C21.2437 15.9454 20.957 15.6621 21.1385 15.4619C21.5711 15.4619 21.5406 15.2159 21.9189 15.5926V15.5909Z" fill="#FDA338"/>
<path d="M21.7887 15.2651C21.8956 15.2651 22.0059 15.2651 22.1128 15.2651L21.9177 15.5891C21.5393 15.2142 21.5699 15.4602 21.1372 15.4585C20.7572 15.4585 20.4043 15.4941 20.0328 15.5229C19.0166 15.6027 18.0054 15.7028 17.0112 15.9131L17.0435 15.7825C17.0435 15.7605 17.0435 15.7384 17.0435 15.718C17.1622 15.8012 17.3098 15.7435 17.4337 15.718C19.0505 15.3889 20.1346 15.2854 21.787 15.2634L21.7887 15.2651Z" fill="#F9CF89"/>
<path d="M21.3338 10.3925L21.5934 10.0685C22.8709 11.1475 23.8583 12.6778 24.4521 14.2267C24.3757 14.2233 24.2281 14.2624 24.2247 14.3574C24.1976 14.9715 25.1086 16.5849 24.7778 17.4434C24.8033 17.4909 25.3512 17.1821 25.3631 17.1516C25.4785 17.0871 25.5005 17.0464 25.4938 17.2161C25.375 17.2754 25.2104 17.4298 25.1035 17.4756C24.6624 17.6673 24.1671 17.854 23.7073 17.9948C23.4783 18.0643 22.3263 18.2018 22.2771 18.2543C22.1634 18.3782 22.3127 19.14 22.2449 19.3266C22.1566 19.5675 20.1157 19.9373 19.8408 19.749C19.8748 19.2859 20.0987 18.877 20.1649 18.4172C20.2124 18.0898 20.1377 17.6606 20.1649 17.3128C20.1869 17.0294 20.1903 17.2144 20.2955 17.2805C20.3786 18.1 20.6908 19.1535 19.9053 19.7168C19.9528 19.7931 21.2982 19.5844 21.3355 19.5217C21.3949 19.4216 21.4135 17.4519 21.4 17.1821C21.3966 17.1041 21.305 16.3338 21.2693 16.1099C21.8326 17.1567 21.573 18.3324 21.5934 19.4555C22.1634 19.5234 21.9072 18.8668 21.9836 18.5462C22.1482 17.8523 22.6113 16.2796 21.9191 15.5891L22.1142 15.265C22.2398 15.265 22.8505 15.2922 22.8946 15.2328C22.7708 14.9868 22.6961 14.505 22.5706 14.2912C22.5163 14.1657 22.6215 14.0757 22.6351 14.0316C22.9727 13.0273 21.1726 10.6708 20.231 10.1329C20.0224 10.0125 19.8341 10.0922 19.7764 9.74274C20.9487 10.211 21.78 11.2629 22.44 12.3096C22.7827 12.8525 22.9998 13.4785 23.3171 14.0316C23.0813 12.8118 22.2313 11.2645 21.3355 10.3925H21.3338Z" fill="#FCC462"/>
<path d="M21.3337 10.3926C22.2295 11.2629 23.0794 12.8119 23.3153 14.0317C22.998 13.4786 22.7808 12.8526 22.4381 12.3097C21.7782 11.2629 20.9469 10.2111 19.7746 9.74281C19.101 9.47306 18.492 9.31019 17.7607 9.48324C18.7889 8.57728 20.5244 9.60709 21.3337 10.3926Z" fill="#FDEFC7"/>
<path d="M24.225 15.3957C24.4829 16.1337 24.9901 17.7217 23.7703 17.6691C23.5226 16.8412 23.5226 16.0048 24.225 15.3957Z" fill="#FDA338"/>
<path d="M22.633 14.0316C22.102 12.5878 21.4013 11.1525 20.229 10.1329C21.1706 10.6707 22.9706 13.0272 22.633 14.0316Z" fill="#FDE3AA"/>
<path d="M20.0341 23.0623C20.0171 23.2422 20.2037 23.2931 20.2936 23.3864C20.3004 23.3932 20.1766 23.573 20.3259 23.5815C20.3785 23.5849 21.1334 23.2489 21.2675 23.1913C21.2878 24.0107 21.0215 24.859 20.6822 25.5953C20.6618 25.6394 20.6397 25.6818 20.6177 25.7259C20.2258 25.6852 20.862 24.294 20.8128 24.199C20.7466 24.1295 20.6296 23.9802 20.521 24.0361C20.4328 24.082 20.0782 25.5088 19.839 25.8871C19.671 26.1534 18.6124 27.2155 18.3443 27.2189C18.514 26.5946 19.1807 26.2943 19.5132 25.7565C19.8458 25.2186 20.0595 24.4111 20.163 23.8071L18.5055 26.5029C18.156 26.4605 19.2248 24.4264 18.8957 24.3585C18.48 24.73 18.3613 25.4392 18.2137 25.9821C17.9015 25.9261 18.173 25.373 18.2137 25.1372C18.2781 24.7572 18.5394 24.3704 18.1492 24.2279C18.5632 24.1566 18.9924 24.2363 19.123 23.8377C19.2689 23.3932 19.1536 22.8995 19.4148 22.6026C19.6863 22.5941 19.3605 23.2506 20.0324 23.0572L20.0341 23.0623Z" fill="#E48141"/>
<path d="M14.8362 24.1668C14.7734 24.786 14.9515 27.7889 15.8439 27.7397C16.039 27.7296 16.2358 27.3631 16.3308 27.2206C16.4971 26.9729 17.0603 25.407 17.2079 25.5308C17.3929 25.6869 16.8008 27.1561 16.8177 27.4157C17.0654 27.548 17.5982 24.5757 17.6949 24.3619C17.9561 24.3483 18.0053 24.2567 18.1495 24.2313C18.5397 24.3738 18.2785 24.7606 18.214 25.1406C17.778 24.9167 17.9459 25.6343 17.89 25.8226C17.7712 26.2145 17.1774 27.4734 17.8577 27.6736C18.9333 27.9925 20.1837 26.5844 20.6197 25.7242C20.6418 25.6801 20.6638 25.6394 20.6842 25.5936L21.0744 25.7887C20.9947 25.9974 20.903 26.1738 20.8148 26.374C20.2804 26.7965 19.9462 27.5735 19.3524 27.9331C18.3921 28.5168 17.2588 28.2691 17.2724 27.0238C16.8279 27.5294 16.3648 28.4489 15.6488 28.5829C14.5902 28.7797 13.8318 28.3335 13.277 27.4785C13.0395 27.0662 12.8919 26.6981 12.7579 26.2434C12.5492 25.5393 12.3829 24.8081 12.3677 24.0667C12.3965 24.0277 12.9954 24.0107 13.0497 24.0345C13.2414 24.1193 13.5756 27.7092 14.7717 27.7058C13.8539 26.6913 13.7724 25.4765 13.4721 24.1973C13.5434 23.9921 14.602 24.1668 14.8362 24.1651V24.1668Z" fill="#CB592D"/>
<path d="M3.9868 13.382C3.8392 13.9571 3.75098 14.2998 3.72722 14.7783C3.70687 15.1651 3.77982 15.3144 3.79169 15.7199C3.81036 16.3578 3.61355 16.5529 3.85616 17.2145C3.92402 17.4011 3.92911 17.4351 4.05127 17.6047C3.97153 17.581 3.81205 17.5114 3.72722 17.4741C3.56775 17.4045 3.12155 17.1484 3.01298 17.0194C2.94681 16.9414 2.87046 16.899 2.81787 16.7921C3.0995 15.7911 3.02146 14.3982 3.66275 13.5432C3.80866 13.3481 3.97831 13.3956 3.9868 13.3803V13.382Z" fill="#EE6014"/>
<path d="M3.46603 23.4526C3.24718 23.1743 2.98251 22.7977 2.68562 22.6077C2.48542 21.8323 2.41756 21.0621 2.29541 20.2681L2.55498 20.3004L3.46434 23.4509L3.46603 23.4526Z" fill="#D33C17"/>
<path d="M5.15555 11.6277L4.96045 11.3036C5.58139 10.6793 6.22099 10.133 7.04043 9.77673C7.02007 10.1483 6.50092 10.418 6.22778 10.6539C6.22269 10.6589 6.14973 10.5436 6.09714 10.5894C5.89864 10.7641 5.33878 11.402 5.15555 11.6294V11.6277Z" fill="#E48141"/>
<path d="M9.24933 22.9334C9.24933 22.9758 9.42577 23.7088 9.44443 23.7461C9.47497 23.8072 9.56828 23.7681 9.57507 23.7783C9.67008 23.9361 9.54962 23.8614 9.77017 23.9734C9.71079 24.1091 9.48006 24.0057 9.37997 23.9734C8.91172 23.4407 8.16184 23.3084 7.56126 22.9996C7.41875 22.8045 7.5392 22.6162 7.75636 22.5449C8.07871 22.7146 9.08137 23.3033 9.25103 22.9351L9.24933 22.9334Z" fill="#E48141"/>
<path d="M6.06489 13.1223C6.04792 13.1647 5.87996 13.3208 5.86978 13.3497C5.82737 13.4667 6.06319 13.4158 6.00042 13.6092C5.90711 13.8892 5.62209 14.371 5.54574 14.7137C5.43886 15.1904 5.22848 17.625 4.92819 17.7352C4.7755 17.7912 4.64996 17.6725 4.63639 17.6708C4.61264 17.0617 4.65844 16.456 4.70086 15.8521C4.83488 15.886 4.8756 15.7197 4.89596 15.6247C5.25733 13.9723 5.25393 12.9594 6.32616 11.4987C6.48903 11.2765 7.32034 10.3688 7.52901 10.2636C7.6342 10.211 7.62911 10.4027 7.65965 10.3943C7.69019 10.3858 8.1245 9.90904 8.08209 10.2976C8.07021 10.4044 6.83512 11.6463 6.65189 11.9212C6.41438 12.2791 6.22945 12.7253 6.06658 13.124L6.06489 13.1223Z" fill="#FA9023"/>
<path d="M5.28604 12.4725C4.6651 14.0435 4.18667 15.5415 3.85585 17.216C3.61154 16.5544 3.81004 16.3593 3.79138 15.7214C3.83718 14.0282 4.39365 12.7015 5.57785 11.4987L5.67455 11.6615C5.44382 11.8889 5.35899 12.2859 5.28435 12.4742L5.28604 12.4725Z" fill="#FA9023"/>
<path d="M4.7011 15.8504C4.65868 16.456 4.61288 17.0617 4.63663 17.6691C4.54502 17.6589 4.16668 17.6165 4.11748 17.6046C4.09712 17.5995 4.07168 17.6097 4.05301 17.6046C3.93256 17.4349 3.92747 17.401 3.85791 17.2144C4.18874 15.5416 4.66547 14.0418 5.28811 12.4708L5.45097 12.5353C4.91486 13.5685 4.78592 14.7001 4.70449 15.8487L4.7011 15.8504Z" fill="#EE6014"/>
<path d="M13.7974 19.3588C13.9331 19.3639 14.0638 19.4215 14.2521 19.4232C15.0494 19.4351 15.8282 19.3096 16.6239 19.3588L16.8834 18.4494C17.0531 18.7463 17.0039 20.28 17.1108 20.431C17.143 20.4768 17.3856 20.4768 17.4026 20.4632C17.557 20.3479 17.1515 18.3748 17.4993 18.0592C17.501 18.334 17.5688 20.3869 17.6621 20.4632C18.2254 20.923 17.7639 18.3663 17.954 18.1898C17.9573 18.1983 18.0574 18.1627 18.0846 18.2221C18.1355 18.334 17.9947 18.6903 18.1813 18.7752C18.4307 18.8854 19.5759 18.5851 19.676 18.6445L19.7082 18.7752C19.5029 18.7701 18.2373 18.8532 18.1813 18.9058C17.8386 19.2264 18.9023 21.0655 16.7511 20.5956C16.4695 20.5107 16.824 19.5522 16.556 19.4266C16.0063 19.6964 12.4418 19.3028 12.2671 19.4266C12.1331 19.5216 12.3977 20.47 12.072 20.5956C11.9329 20.6498 11.0083 20.5599 10.8691 20.4649L10.9658 18.3849C11.0914 18.6615 11.0066 20.3462 11.0625 20.431C11.0982 20.4836 11.2882 20.4836 11.3221 20.431C11.4053 20.3054 11.049 17.7793 11.2577 17.4094C11.3561 18.1067 11.3934 19.1688 11.5172 19.9763C11.5495 20.1901 11.5698 20.548 11.8752 20.4632C12.2671 19.7863 11.8328 18.9838 12.0703 18.2543C12.0635 19.8084 12.5894 19.3096 13.7923 19.3588H13.7974Z" fill="#FCC462"/>
<path d="M19.7104 11.6922C19.8309 11.7125 19.8648 11.7261 19.97 11.7566C21.0643 12.0892 21.9109 13.2038 22.4385 14.1607C22.0211 13.5669 20.4773 12.3029 19.7427 12.2113C17.9172 11.984 17.9766 13.4227 17.5015 14.6476C17.432 14.8291 17.2606 14.6645 17.2419 14.712C17.1639 14.9071 17.0468 15.5077 17.0468 15.7198C17.0468 15.7419 17.0468 15.7639 17.0468 15.7843C16.9383 14.9699 17.3556 13.8214 17.6966 13.0562C17.89 12.6219 18.0359 12.1401 18.477 11.8873C18.8622 11.6667 19.2948 11.6243 19.7121 11.6922H19.7104Z" fill="#982E0E"/>
<path d="M11.0682 12.9916C11.2684 13.4514 11.3956 13.9366 11.5229 14.4218C11.5975 14.7051 11.9165 15.5483 11.8469 15.7858C11.7248 15.8266 11.6637 15.7366 11.5873 15.7214C11.9657 15.3312 11.3753 14.8154 11.2633 14.5185C11.0529 13.9654 10.8086 12.5675 10.1911 12.3418C9.11547 11.9499 7.44776 12.7728 6.71484 13.5769C7.04398 12.8949 7.82948 12.145 8.53355 11.8872C9.90436 11.385 10.5236 11.743 11.0682 12.9916Z" fill="#982E0E"/>
<path d="M17.9557 18.19C17.7657 18.3664 18.2272 20.9248 17.6639 20.4633C17.5706 20.387 17.5045 18.3342 17.5011 18.0593C17.4977 17.6606 17.4587 16.8904 17.5011 16.5324C17.5146 16.4188 17.4909 16.3051 17.6639 16.3696C17.7878 16.4171 17.8048 17.7981 17.9557 18.1883V18.19Z" fill="#FDA338"/>
<path d="M11.2627 15.6552C11.3713 15.679 11.4815 15.6976 11.5867 15.7197C11.6631 15.7366 11.7242 15.8249 11.8463 15.7841L11.8141 15.9148C11.5833 15.813 11.3373 15.8656 11.1321 15.8503C9.76294 15.7417 8.42944 15.438 6.94157 15.3956C6.82281 15.3922 6.62092 15.4601 6.64976 15.265C6.8279 15.287 6.95853 15.1988 6.9738 15.2005C8.41757 15.2904 9.84607 15.3464 11.2627 15.6552Z" fill="#FCC462"/>
<path d="M17.4349 13.3819L17.6945 13.0579C17.3535 13.8247 16.9361 14.9716 17.0447 15.7859L17.0125 15.9165C18.0066 15.7062 19.0161 15.6061 20.034 15.5263C20.1053 16.1184 20.2325 16.6868 20.2936 17.2806C20.1901 17.2144 20.185 17.0295 20.163 17.3128C20.1358 17.6606 20.2105 18.0898 20.163 18.4173C20.0968 18.877 19.8729 19.2859 19.8389 19.7491C19.5844 19.5743 19.7575 19.084 19.7083 18.7752L19.6761 18.6446C19.576 18.5852 18.4308 18.8855 18.1814 18.7752C17.9931 18.6921 18.1339 18.3358 18.0847 18.2222C18.0575 18.1628 17.9574 18.1984 17.9541 18.1899C17.8031 17.7997 17.7861 16.4187 17.6622 16.3712C17.4892 16.3051 17.5129 16.4204 17.4994 16.5341C17.457 16.8921 17.496 17.6623 17.4994 18.061C17.1499 18.3765 17.5554 20.3496 17.4027 20.465C17.384 20.4786 17.1431 20.4786 17.1109 20.4328C17.004 20.2818 17.0532 18.7481 16.8835 18.4512L16.624 19.3605C15.83 19.3113 15.0496 19.4369 14.2522 19.425C14.1487 18.9245 14.6271 17.7794 13.7975 18.0288V19.3605C12.5946 19.3113 12.0687 19.8101 12.0755 18.2561C11.8397 18.9873 12.2723 19.7881 11.8804 20.465C11.575 20.5498 11.5563 20.1919 11.5224 19.9781C11.3986 19.1705 11.3612 18.1085 11.2628 17.4112C11.1882 16.8887 11.0355 16.3814 11.1322 15.8521C11.3375 15.869 11.5835 15.8147 11.8142 15.9165L11.8465 15.7859C11.916 15.5484 11.5971 14.7052 11.5224 14.4219C11.7922 14.2217 11.6089 13.9994 11.6531 13.8043C11.7599 13.3276 11.9143 12.7847 12.0433 12.3097C12.0534 12.2723 12.2723 11.7379 12.3673 11.7566C12.3486 11.8346 12.235 11.9144 12.3351 12.0162L12.822 11.3986L12.5302 13.0562C13.638 10.1177 15.7333 11.7837 16.1031 14.0961L16.0064 12.537C16.0115 12.5574 16.2049 12.8678 16.266 12.861C16.3152 13.0884 16.2745 13.6466 16.5256 13.6737C16.8666 11.8329 16.1031 8.57216 13.6024 9.80725C13.828 9.57482 13.9332 9.37294 14.2522 9.22194C16.5612 8.78593 17.0362 11.743 17.306 13.4124L17.4366 13.3802L17.4349 13.3819Z" fill="#FDA338"/>
<path d="M14.3491 15.9809C14.7173 15.9147 15.7946 17.7708 15.6487 17.8658L13.1479 17.8336C13.0716 17.7046 14.1404 16.0199 14.3508 15.9826L14.3491 15.9809Z" fill="#38140D"/>
<path d="M14.2525 19.4233C14.0642 19.4199 13.9319 19.3639 13.7979 19.3588V18.027C14.6292 17.7776 14.149 18.9245 14.2525 19.4233Z" fill="#FDA338"/>
<path d="M10.9388 8.70282C11.0524 8.713 11.5105 8.85042 11.653 8.89793C11.7955 8.94543 11.9974 9.0608 12.1077 9.1575C10.8879 8.63666 9.28631 8.8623 8.14453 9.48154C8.20561 9.19822 8.74172 9.1083 8.98941 9.02686C9.05728 9.00481 9.11157 8.98275 9.18452 8.9624C9.72402 8.8131 10.3772 8.65532 10.9388 8.70282Z" fill="#FDEFC7"/>
<path d="M12.1083 9.1575C12.3526 9.26269 12.6207 9.38654 12.6936 9.67665C12.5409 9.53244 12.1185 9.31189 12.0438 9.57995C12.032 9.62066 12.4934 10.1754 12.4985 10.2942C12.5053 10.4469 10.9326 12.442 11.0683 12.99C10.5254 11.7414 9.90617 11.3834 8.53366 11.8856C8.25712 11.6769 8.88654 11.0152 9.02057 10.9117C9.1546 10.8083 9.21059 10.9677 9.37854 10.8473C10.2082 10.2416 10.785 9.80729 11.847 9.57995C11.5298 9.19313 10.9937 9.37806 10.6119 9.54771C10.578 9.1609 9.59061 9.60709 9.47525 9.67835C8.82716 10.0753 9.24621 10.1042 9.18344 10.2959C9.14272 10.418 8.16381 11.2222 8.07898 11.0763L8.14345 10.9457C8.18078 10.8252 8.84583 10.2857 8.43526 10.2637C8.2181 10.2518 7.08141 11.7278 6.90836 11.9857C6.63352 12.3962 6.58771 12.9849 6.06348 13.1224C6.22635 12.7254 6.41127 12.2775 6.64879 11.9195C6.83202 11.6447 8.06711 10.4028 8.07898 10.2959C8.1214 9.90738 7.68538 10.3841 7.65654 10.3926C7.6277 10.4011 7.63279 10.2094 7.52591 10.262C7.31723 10.3654 6.48761 11.2748 6.32305 11.4971L6.22635 11.2375C6.8405 10.7082 7.45465 9.85648 8.14345 9.48324C9.28693 8.8623 10.8868 8.63666 12.1066 9.1592L12.1083 9.1575Z" fill="#FDA338"/>
<path d="M9.37793 10.8472C9.40847 10.4299 10.255 9.70714 10.613 9.54766C10.9947 9.378 11.5309 9.19478 11.8481 9.57989C10.7861 9.80723 10.2092 10.2416 9.37963 10.8472H9.37793Z" fill="#F6DD87"/>
<path d="M11.5544 9.80725C11.8547 9.75805 12.2042 9.93788 12.1075 10.2942C11.473 10.742 11.9633 10.1364 11.7495 10.0668C11.1422 10.2891 10.9386 10.8167 10.5806 11.3019C10.2837 11.0033 11.2134 9.86323 11.5544 9.80725Z" fill="#FCC462"/>
<path d="M16.2663 12.861C16.0898 12.0348 15.7437 9.90899 14.6749 9.74272C14.5579 9.72406 14.0251 9.78514 13.9929 9.90559C13.9081 10.2127 14.8819 10.2025 15.1296 10.328C15.8778 10.7047 15.8252 11.9143 16.0067 12.5369L16.1034 14.0961C15.7336 11.7837 13.6383 10.1194 12.5305 13.0561L12.8223 11.3986L12.3354 12.0161C12.237 11.9126 12.3489 11.8329 12.3676 11.7565C12.4626 11.3561 12.8443 10.7997 13.0819 10.457C13.2464 10.2195 13.3991 10.0159 13.601 9.80719C16.1017 8.5721 16.8669 11.8312 16.5242 13.6736C16.2731 13.6465 16.3121 13.09 16.2646 12.861H16.2663Z" fill="#FDEFC7"/>
<path d="M16.2664 12.861C16.2036 12.8678 16.0119 12.5556 16.0068 12.5369C15.8253 11.9126 15.8779 10.7047 15.1297 10.328C14.8803 10.2025 13.9082 10.2127 13.993 9.90559C14.027 9.78513 14.5597 9.72575 14.675 9.74272C15.7439 9.90898 16.0917 12.0348 16.2664 12.861Z" fill="#FCC462"/>
<path d="M14.3489 10.3925C14.4997 10.462 14.542 10.8499 14.4793 10.9769C14.3506 10.8397 14.2659 10.5704 14.3489 10.3925Z" fill="#FCC462"/>
<path d="M19.9697 11.7566C19.8645 11.7244 19.8305 11.7108 19.7101 11.6921C19.4675 10.8303 18.5021 10.5555 17.7607 10.2619C18.1849 9.97354 18.4529 9.80049 18.9636 10.0668C19.2401 10.2111 20.1071 11.3732 19.9714 11.7566H19.9697Z" fill="#FDEFC7"/>
<path d="M22.243 25.7922C23.2677 25.8041 22.0394 26.5387 22.3075 26.8966C22.0513 27.2325 21.5678 27.8314 21.2352 28.0656C20.9383 28.2742 20.5753 28.2182 20.4887 28.5202C20.2071 28.5593 19.7779 28.751 19.9696 28.3251C20.387 27.8399 20.6499 27.431 20.9434 26.8627C21.1962 26.3741 21.8613 24.3586 22.0479 24.1346C22.2074 23.9446 22.4398 24.1686 22.4703 23.8428C22.7469 24.0108 21.5338 26.5302 21.4626 26.9289C21.7832 26.6642 22.0428 26.1569 22.243 25.7922Z" fill="#C4671F"/>
<path d="M23.088 25.7923C22.7759 26.118 22.5842 26.5354 22.3076 26.8967C22.0379 26.5388 23.2679 25.8025 22.2432 25.7923C22.3942 25.5174 22.8319 24.3214 22.8929 24.2654C23.0321 24.1364 23.3239 24.3807 23.5105 24.2331C23.4749 24.7862 23.2628 25.2782 23.088 25.7923Z" fill="#EE6014"/>
<path d="M21.6594 23.0624C21.8036 23.0335 21.8188 23.1591 21.8222 23.2575C21.8392 23.8886 21.3167 25.1593 21.0758 25.7921L20.6855 25.597C21.0249 24.8607 21.2912 24.0124 21.2709 23.193C21.371 23.1506 21.5678 23.1099 21.6611 23.0624H21.6594Z" fill="#E48141"/>
<path d="M24.9086 22.5431H24.9731C24.7695 23.4644 24.6999 23.0911 24.3233 23.6798C24.2283 23.8274 24.1706 24.5451 23.9331 24.3619C24.0909 23.7545 24.1604 23.1183 24.3233 22.5109V20.984C24.3572 20.945 24.4183 20.6752 24.5829 20.66C24.4523 21.1825 24.515 22.1377 24.3878 22.706C24.5863 22.818 24.7508 22.6415 24.9069 22.5431H24.9086Z" fill="#E48141"/>
<path d="M23.0879 25.7922C22.9352 26.2401 22.8249 26.6863 22.5687 27.0917C22.092 27.8433 21.371 28.3981 20.4888 28.5219C20.5753 28.2199 20.9401 28.2759 21.2353 28.0673C21.5678 27.8331 22.0513 27.2326 22.3075 26.8983C22.584 26.537 22.7757 26.1196 23.0879 25.7939V25.7922Z" fill="#B54C14"/>
<path d="M12.1078 23.517C12.2723 23.7037 14.0385 23.7698 14.4151 23.7766C15.1972 23.7936 15.9776 23.7088 16.7546 23.646C16.9192 23.702 16.7173 23.9989 16.7224 24.1007C16.093 24.1414 15.4687 24.1617 14.8375 24.1651C14.6034 24.1668 13.5431 23.9921 13.4735 24.1974C13.7738 25.4766 13.8552 26.6913 14.7731 27.7058C13.577 27.7092 13.2445 24.1193 13.0511 24.0345C12.9968 24.0107 12.3962 24.0277 12.369 24.0667C12.3843 24.8081 12.5506 25.5393 12.7593 26.2434L12.369 26.374C12.1485 25.6123 12.0586 24.4247 11.8499 23.8072C11.8448 23.7919 11.6446 23.6307 11.5903 23.6443C11.6361 23.3898 11.4987 22.779 11.9805 23.0912C12.0535 23.2202 12.0213 23.4119 12.1112 23.5137L12.1078 23.517Z" fill="#E48141"/>
<path d="M9.3785 23.9717C9.4786 24.0039 9.70933 24.1074 9.76871 23.9717C9.98078 24.0803 11.2837 24.3738 11.4585 24.2957C11.6604 24.2058 11.5603 23.8071 11.5891 23.6459C11.6434 23.6307 11.8436 23.7935 11.8487 23.8088C12.0574 24.4264 12.1473 25.6139 12.3678 26.3757C12.3933 26.4639 12.4102 26.5589 12.4323 26.6353C11.8809 26.9373 11.5586 27.8704 10.9054 27.8042C10.354 27.7482 8.94419 26.3638 8.53362 25.9193C8.35548 25.7259 8.18752 25.0371 7.94831 25.4324C8.2011 25.938 8.5421 26.1772 7.88384 26.4402C7.05932 25.3323 6.34846 24.009 6.32471 22.606C7.23067 23.1913 8.35548 23.6341 9.3785 23.97V23.9717Z" fill="#D33C17"/>
<path d="M8.53503 25.921C8.29073 25.921 8.57406 26.1228 8.53503 26.2789C8.5045 26.4079 8.12277 26.5385 8.08036 26.7014C8.00232 26.6064 7.95481 26.5351 7.88525 26.4418C8.54521 26.1788 8.20251 25.9413 7.94972 25.434C8.18894 25.0388 8.3569 25.7292 8.53503 25.921Z" fill="#B23016"/>
<path d="M10.581 24.8167C10.978 25.2782 10.9254 26.0264 11.2308 26.5709C11.0425 26.6269 10.4351 25.0729 10.581 24.8167Z" fill="#EE6014"/>
<path d="M11.4581 24.2975C11.2834 24.3756 9.98211 24.0804 9.76835 23.9735C9.55458 23.8666 9.66995 23.9362 9.57324 23.7784C9.63432 23.8785 11.241 24.1228 11.4581 24.2975Z" fill="#F9CF89"/>
<path d="M25.0369 22.1531C25.0183 22.3075 25.0047 22.3923 24.9724 22.5433H24.908C24.7655 21.8002 25.2439 20.9909 24.7773 20.3344C24.8588 20.1545 25.0064 20.012 25.0369 19.9442C25.1574 20.655 25.1251 21.4405 25.0369 22.1531Z" fill="#FDA338"/>
<path d="M24.9083 22.5432C24.7505 22.6416 24.5877 22.8164 24.3892 22.7061C24.5164 22.1377 24.4536 21.1826 24.5843 20.66C24.6318 20.47 24.7285 20.448 24.7794 20.336C25.2442 20.9926 24.7675 21.8018 24.91 22.5449L24.9083 22.5432Z" fill="#FA9023"/>
<path d="M25.7517 17.8642C25.0001 20.4973 22.8879 22.5535 20.2939 23.3865C20.2023 23.2932 20.0173 23.2406 20.0343 23.0625C20.3142 22.9827 21.9107 21.9919 22.211 21.7629C23.5801 20.7144 24.5454 19.0891 25.1019 17.474C25.2071 17.4282 25.3734 17.2738 25.4921 17.2144C25.5718 17.1754 25.6753 17.1075 25.7517 17.0838C25.8348 17.0583 25.9112 16.9549 26.0113 17.0516C25.862 17.2993 25.828 17.5928 25.7517 17.8642Z" fill="#D56B3A"/>
<path d="M4.05099 17.6045C4.07134 17.6096 4.0951 17.5994 4.11546 17.6045C4.47512 17.9031 6.21409 18.0931 6.42277 18.2543C6.64332 18.4257 6.44482 19.0347 6.51947 19.2621C6.60939 19.5335 8.61981 19.9186 8.89125 19.8151C9.22887 19.6845 8.90822 18.7938 9.15083 18.7107C9.22208 18.6869 10.5844 18.8617 10.6455 18.9058C10.8219 19.0313 10.6065 20.2834 10.8728 20.4649C11.0103 20.5582 11.9366 20.6481 12.0757 20.5955C12.4014 20.47 12.1368 19.5216 12.2708 19.4266C12.4455 19.3028 16.01 19.6964 16.5597 19.4266C16.8277 19.5539 16.4715 20.5124 16.7548 20.5955C18.906 21.0672 17.8423 19.2264 18.185 18.9058C18.241 18.8532 19.5066 18.7718 19.7119 18.7751C19.7611 19.0839 19.588 19.5759 19.8425 19.749C20.1174 19.9373 22.1583 19.5674 22.2465 19.3265C22.3161 19.1399 22.1668 18.3782 22.2788 18.2543C22.328 18.2 23.4799 18.0643 23.709 17.9947C24.1687 17.8539 24.6641 17.6673 25.1052 17.4756C24.5488 19.0907 23.5834 20.7143 22.2143 21.7645C21.914 21.9935 20.3175 22.9843 20.0376 23.064C19.3658 23.2557 19.6915 22.6009 19.4201 22.6094C19.1588 22.9063 19.2742 23.4 19.1283 23.8445L17.1467 24.2347C16.8396 24.1142 17.4063 23.0827 17.0161 22.9996C16.6971 22.9317 16.7717 23.4322 16.7242 23.4865C16.4749 23.7715 12.7204 23.5526 12.1113 23.5187C12.0214 23.4169 12.0553 23.2269 11.9807 23.0963C11.4989 22.7824 11.6363 23.3949 11.5905 23.6493C11.5616 23.8105 11.6617 24.2092 11.4598 24.2991C11.2444 24.1244 9.63604 23.8801 9.57497 23.78C9.50032 23.6561 9.67846 22.7536 9.34763 22.6111C9.21699 22.6993 9.25092 22.8028 9.25092 22.9351C9.08127 23.3033 8.07861 22.7145 7.75626 22.5449C7.25408 22.2802 6.61957 21.8239 6.19713 21.4404C5.3251 20.6481 4.14939 18.9346 3.72864 17.8336C3.67774 17.6995 3.62006 17.6113 3.72864 17.4756C3.81347 17.5129 3.97294 17.5825 4.05268 17.6062L4.05099 17.6045Z" fill="url(#paint0_linear_6413_76239)"/>
<path d="M6.19565 21.4387C6.61809 21.8221 7.2526 22.2785 7.75478 22.5432C7.53762 22.6144 7.41886 22.8027 7.55968 22.9979C5.49158 21.9307 3.89003 20.6515 3.20632 18.3204C3.13846 18.0897 3.12488 17.82 3.07568 17.6062C3.82895 19.1246 4.30908 20.207 5.70704 21.2453C5.83258 21.3386 6.03617 21.5677 6.19395 21.4404L6.19565 21.4387Z" fill="#CB592D"/>
<path d="M3.7265 17.4757C3.61792 17.6114 3.6756 17.6996 3.7265 17.8336C4.14894 18.9347 5.32465 20.6465 6.19498 21.4405C6.0372 21.5678 5.83362 21.3387 5.70807 21.2454C4.31011 20.2071 3.82998 19.1247 3.07671 17.6063C3.036 17.4214 2.8375 17.194 3.01225 17.021C3.12252 17.1499 3.56702 17.4061 3.7265 17.4757Z" fill="#803824"/>
<path d="M19.1249 23.8428C18.9942 24.2415 18.565 24.1618 18.151 24.233C18.0068 24.2585 17.9576 24.3501 17.6964 24.3636C17.3129 24.3823 17.1331 24.3348 16.787 24.233C16.6988 24.2347 16.7242 24.1652 16.7225 24.1024C16.7191 24.0006 16.921 23.7037 16.7548 23.6477C15.9778 23.7105 15.1973 23.7936 14.4152 23.7783C14.0386 23.7699 12.2725 23.7037 12.1079 23.5188C12.717 23.5527 16.4714 23.7716 16.7208 23.4865C16.77 23.4305 16.6954 22.9318 17.0126 22.9996C17.4012 23.0827 16.8362 24.1126 17.1433 24.2347L19.1249 23.8445V23.8428Z" fill="#FCC462"/>
<path d="M9.57336 23.7767C9.56657 23.7665 9.47326 23.8039 9.44272 23.7445C9.42406 23.7072 9.24762 22.9742 9.24762 22.9318C9.24762 22.7995 9.21369 22.696 9.34432 22.6078C9.67515 22.7503 9.49701 23.6546 9.57166 23.7767H9.57336Z" fill="#FCC462"/>
<path d="M21.7884 15.2651C20.136 15.2872 19.0519 15.3907 17.4351 15.7198C17.8507 14.9767 18.112 12.6864 19.0926 12.5354C20.0732 12.3844 21.5611 14.3727 21.7884 15.2634V15.2651Z" fill="#4A2722"/>
<path d="M21.1392 15.4601C20.9576 15.6603 21.2426 15.9437 21.2698 16.1099C21.3054 16.3339 21.3953 17.1041 21.4004 17.1821C21.414 17.4502 21.3953 19.4216 21.336 19.5217C21.2986 19.5845 19.9533 19.7931 19.9058 19.7168C20.6913 19.1518 20.3791 18.1 20.296 17.2805C20.2349 16.6868 20.1077 16.1184 20.0364 15.5263C20.4079 15.4975 20.7625 15.4601 21.1409 15.4618L21.1392 15.4601Z" fill="#FDA338"/>
<path d="M20.6514 16.6953C20.9483 16.9125 21.0874 19.5557 20.9109 19.554L20.6514 16.6953Z" fill="#FCC462"/>
<path d="M20.6194 25.726C20.1851 26.5861 18.9348 27.9943 17.8575 27.6753C17.1788 27.4734 17.7709 26.2146 17.8897 25.8244C17.9474 25.6361 17.7777 24.9184 18.2137 25.1424C18.173 25.3782 17.9016 25.9296 18.2137 25.9872C18.1611 26.1806 17.8778 26.7575 17.8897 26.7999C17.9117 26.883 18.1985 27.224 18.3444 27.2223C18.6124 27.2189 19.6694 26.1569 19.839 25.8905C20.0782 25.5122 20.4345 24.0837 20.521 24.0396C20.6313 23.9819 20.7467 24.1329 20.8129 24.2025C20.8621 24.2975 20.2275 25.6886 20.6178 25.7294L20.6194 25.726Z" fill="#EE6014"/>
<path d="M18.3466 27.2206C18.2007 27.2223 17.914 26.8813 17.892 26.7982C17.8801 26.7558 18.1634 26.1806 18.216 25.9855C18.3636 25.4426 18.4824 24.7318 18.898 24.3619C19.2272 24.4298 18.1583 26.464 18.5078 26.5064L20.1653 23.8105C20.0619 24.4145 19.8379 25.2407 19.5156 25.7599C19.1932 26.279 18.5163 26.598 18.3466 27.2223V27.2206Z" fill="#EE6014"/>
<path d="M16.721 24.1024C16.7227 24.1651 16.6972 24.2347 16.7854 24.233L16.3308 27.2223C16.234 27.3648 16.0372 27.7313 15.8438 27.7415C14.9515 27.7907 14.7733 24.7861 14.8361 24.1685C15.4672 24.1634 16.0915 24.1448 16.721 24.1041V24.1024Z" fill="#EE6014"/>
<path d="M17.6965 24.362C17.5998 24.5758 17.0671 27.5481 16.8194 27.4158C16.8025 27.1562 17.3946 25.687 17.2096 25.5309C17.062 25.4071 16.4988 26.973 16.3325 27.2207L16.7872 24.2314C17.135 24.3332 17.3131 24.3807 17.6965 24.362Z" fill="#E48141"/>
<path d="M11.5883 15.7198C11.4814 15.696 11.3728 15.679 11.2642 15.6553C10.8723 14.7951 10.6789 12.6151 9.47778 12.537C8.54976 12.4759 7.24851 14.3846 6.97706 15.2006C6.96009 15.2006 6.83115 15.2871 6.65302 15.2651C6.47488 15.243 6.25433 15.1497 6.03547 15.2006C5.75384 15.0004 6.5139 13.7993 6.71748 13.577C7.4504 12.7728 9.11811 11.9517 10.1937 12.3419C10.8113 12.5676 11.0556 13.9655 11.2659 14.5186C11.3796 14.8155 11.97 15.3296 11.59 15.7215L11.5883 15.7198Z" fill="#B54C14"/>
<path d="M10.6133 9.54779C10.2553 9.70727 9.41044 10.43 9.3782 10.8474C9.21194 10.9695 9.14747 10.8134 9.02023 10.9118C8.8862 11.017 8.25678 11.6787 8.53332 11.8856C7.82925 12.1435 7.04374 12.8934 6.71461 13.5754C6.51103 13.7994 5.75097 15.0005 6.0326 15.199C6.25145 15.1481 6.46522 15.2414 6.65014 15.2635C6.6213 15.4586 6.82319 15.3907 6.94195 15.3941C8.42983 15.4365 9.76332 15.7402 11.1324 15.8488C11.0357 16.3781 11.1884 16.8854 11.2631 17.4079C11.0544 17.7761 11.4107 20.3039 11.3275 20.4295C11.2919 20.4821 11.1019 20.4821 11.068 20.4295C11.012 20.3447 11.0951 18.6583 10.9713 18.3834L10.8746 20.4634C10.6082 20.2819 10.8237 19.0298 10.6472 18.9043C10.5861 18.8602 9.22382 18.6854 9.15256 18.7092C8.90995 18.7923 9.2306 19.683 8.89299 19.8136C8.62324 19.9188 6.61282 19.532 6.52121 19.2606C6.44486 19.0349 6.64505 18.4259 6.4245 18.2528C6.21752 18.0916 4.47855 17.9016 4.11719 17.603C4.16639 17.6166 4.54472 17.6573 4.63633 17.6675C4.6516 17.6675 4.77545 17.788 4.92814 17.732C5.22843 17.6217 5.4388 15.1871 5.54569 14.7104C5.62203 14.3677 5.90875 13.8859 6.00036 13.606C6.06483 13.4125 5.82731 13.4634 5.86973 13.3464C5.87991 13.3175 6.04787 13.1615 6.06483 13.119C6.58907 12.9799 6.63318 12.3929 6.90972 11.9823C7.08276 11.7245 8.21946 10.2485 8.43661 10.2603C8.84548 10.2824 8.18213 10.8219 8.14481 10.9424L8.08034 11.073C8.16517 11.2189 9.14408 10.4164 9.1848 10.2926C9.24757 10.1009 8.82852 10.072 9.4766 9.67504C9.59197 9.60378 10.5794 9.15928 10.6133 9.5444V9.54779Z" fill="#FA9023"/>
<path d="M8.37199 17.2145L8.50263 18.7091C8.15653 18.3902 8.30074 17.6624 8.37199 17.2145Z" fill="#FDA338"/>
<path d="M11.263 15.6552C9.84639 15.3464 8.41789 15.2905 6.97412 15.2005C7.24727 14.3845 8.54683 12.4759 9.47484 12.537C10.676 12.615 10.8711 14.7968 11.2613 15.6552H11.263Z" fill="#38140D"/>
<defs>
<linearGradient id="paint0_linear_6413_76239" x1="14.0997" y1="18.8237" x2="14.2228" y2="23.8503" gradientUnits="userSpaceOnUse">
<stop stop-color="#37130D"/>
<stop offset="1" stop-color="#5A241A"/>
</linearGradient>
</defs>
</svg>
