<svg width="110" height="100" viewBox="0 0 64 36" fill="none" xmlns="http://www.w3.org/2000/svg">
<path d="M59.6686 18.733C59.6685 22.233 64.2686 23.033 60.6686 26.233C57.0686 29.433 58.5019 34.5664 59.6686 36.733" stroke="#514F43" stroke-width="0.3"/>
<path d="M63.6685 12.733C63.6685 15.2183 62.1537 19.233 59.6685 19.233C57.1832 19.233 54.6685 15.2183 54.6685 12.733C54.6685 10.2478 56.6832 8.23303 59.1685 8.23303C61.6537 8.23303 63.6685 10.2478 63.6685 12.733Z" fill="#258285"/>
<path d="M57.6684 12.233C57.6685 13.233 57.6685 13.733 56.6685 15.233C55.2877 15.233 55.6681 13.1137 55.6681 11.733C55.6681 10.3523 57.2877 8.73303 58.6685 8.73303C60.0492 8.73303 58.1685 10.733 57.6684 12.233Z" fill="#61C1C4"/>
<path d="M57.2845 11.0321C56.8703 11.7495 57.0128 12.6073 56.5345 12.3311C56.0562 12.055 56.0042 11.2495 56.4185 10.5321C56.8327 9.81463 57.5562 9.45689 58.0345 9.73303C58.5128 10.0092 57.6987 10.3146 57.2845 11.0321Z" fill="#93EDF0"/>
<path d="M6.63366 23.2733C6.63357 25.7045 9.99414 26.2602 7.3642 28.483C4.73425 30.7057 5.78136 34.2715 6.63366 35.7765" stroke="#3E575C" stroke-width="0.267925"/>
<path d="M1.81734 21.0469C2.63747 23.1094 5.7472 25.5532 7.28182 25.1211C8.81645 24.6891 10.1064 20.1394 9.28625 18.0769C8.46612 16.0144 6.1293 15.0073 4.06682 15.8274C2.00434 16.6476 0.997212 18.9844 1.81734 21.0469Z" fill="#1F4795"/>
<path d="M5.16054 19.0172C5.16055 19.857 5.16055 20.2769 3.80994 21.5367C1.94514 21.5367 2.45888 19.7568 2.45888 18.5972C2.45888 17.4377 4.64635 16.0777 6.51116 16.0777C8.37596 16.0777 5.83585 17.7574 5.16054 19.0172Z" fill="#3286C1"/>
<path d="M4.41347 18.5256C3.91041 19.3969 4.11455 20.4566 3.50261 20.1033C2.89066 19.75 2.80239 18.7572 3.30545 17.8859C3.8085 17.0146 4.71239 16.5946 5.32433 16.9479C5.93627 17.3012 4.91652 17.6543 4.41347 18.5256Z" fill="#78BEEF"/>
<path d="M12.6668 27.2453C12.6668 28.0991 12.6668 28.9529 12.6668 29.8067C12.0105 29.8876 11.7016 30.4268 11.5182 30.9571C11.47 31.0919 11.4314 31.73 11.4024 31.757C11.3638 31.8019 10.6495 31.8648 10.3696 32.2333C10.138 32.5299 10.0897 32.9972 10.0801 33.3567L9.96424 33.4106C9.82911 33.2578 9.60711 33.1859 9.42372 33.2758C9.25964 33.3837 9.22103 33.9319 9.33685 34.1027L8.62259 34.0218C8.29442 34.1746 8.52607 34.8127 8.47781 34.9025C8.39094 35.0643 8.01451 34.9385 7.87938 34.9834C7.34851 35.1452 7.06859 35.5137 6.93346 35.999C6.19025 35.999 5.43738 35.9541 4.69416 35.9451C4.22121 34.8127 4.83894 32.6197 6.47016 32.9523L6.58599 32.9253C6.58599 32.8444 6.58599 32.7635 6.58599 32.6827C6.60529 32.5389 6.4412 31.4694 6.58599 31.5862L6.99138 32.2243C6.80799 30.8043 7.22303 28.8271 9.20172 29.9505C9.27894 29.1955 9.36581 28.2519 10.0897 27.7576C10.0897 27.7576 10.1476 27.7396 10.2055 27.7036C10.9005 27.3082 11.8754 27.2273 12.6668 27.2273V27.2453Z" fill="#6E913D"/>
<path d="M12.666 29.8068V34.0219C12.5212 34.0219 12.0965 33.9679 12.0386 34.1027V35.9452C10.3591 35.9452 8.6314 36.0081 6.93262 35.9991C7.06775 35.5138 7.34766 35.1453 7.87853 34.9835C8.01366 34.9386 8.39975 35.0644 8.47696 34.9026C8.52522 34.8128 8.29357 34.1746 8.62175 34.0219L9.33601 34.1027C9.22018 33.932 9.25879 33.3838 9.42288 33.2759C9.60627 33.186 9.82827 33.2579 9.9634 33.4107L10.0792 33.3568C10.0792 32.9973 10.1371 32.5389 10.3688 32.2334C10.6487 31.8649 11.363 31.793 11.4016 31.757C11.4305 31.7211 11.4691 31.092 11.5174 30.9572C11.7008 30.4359 12.0097 29.8876 12.666 29.8068Z" fill="#4E6A29"/>
<path d="M58.3708 34.6662C58.3339 35.0933 58.2161 35.5205 58.1056 35.9329C56.1246 35.9255 54.1361 35.8887 52.155 35.8887V34.379L52.0666 34.3127C51.9562 34.4158 51.9046 34.3127 51.8457 34.3127V32.3905C52.8473 32.1622 53.4144 32.5967 53.2008 33.6351L53.6795 33.2816L53.4586 34.379C55.3144 33.5541 54.3497 35.1007 54.4454 35.1449C54.8063 34.865 55.3513 34.8282 55.7563 35.0123C55.83 34.9829 55.9036 34.3348 55.9552 34.2022C56.5443 32.6925 58.356 33.0754 58.3634 34.6588L58.3708 34.6662Z" fill="#859E34"/>
<path d="M53.4217 28.8481C53.4659 28.8702 53.5396 28.8849 53.5543 28.8923C54.2466 29.2458 54.7916 29.9749 54.5412 30.7703C54.7842 30.2842 55.2261 30.1369 55.7416 30.159C55.7711 30.159 55.8005 30.159 55.83 30.159C57.2219 30.3136 57.3692 31.7424 56.4412 32.5893C57.9363 31.6246 58.4739 33.5025 58.3634 34.6661C58.3634 33.0827 56.5443 32.6924 55.9552 34.2095C55.9036 34.3421 55.83 34.9902 55.7563 35.0196C55.3513 34.8355 54.8063 34.8724 54.4454 35.1522C54.3497 35.108 55.3144 33.5614 53.4586 34.3863L53.6795 33.289L53.2008 33.6425C53.4144 32.604 52.8399 32.1695 51.8457 32.3978C51.8457 31.1164 51.8899 29.8276 51.8899 28.5461C52.4201 28.5167 52.9357 28.6419 53.4217 28.8555V28.8481Z" fill="#9BAF47"/>
<path d="M51.9214 0.516627C51.9214 0.516627 51.8307 0.516627 51.7853 0.516627C51.6607 0.482624 51.5133 0.403284 51.4453 0.380615C51.604 0.380615 51.7967 0.380615 51.9214 0.516627Z" fill="#59427E"/>
<path d="M20.7896 19.7359L14.6948 19.9068C14.4897 21.0004 14.9568 28.7357 14.6948 29.1116C14.4897 29.4078 13.9885 28.6217 13.9543 29.6926C13.9543 29.7951 13.772 29.9546 13.9885 30.1027C16.0732 29.8976 18.7162 30.3761 20.7212 30.1027V33.3153H23.0224L23.1591 19.0296C23.2389 18.8587 24.1616 18.9384 24.3781 18.927V33.4178C23.0452 33.4178 21.7123 33.4178 20.3795 33.4178C17.8618 33.4178 15.1505 33.2811 12.667 33.4178V28.0749C12.667 26.9927 12.667 25.9104 12.667 24.8282C12.667 22.7206 12.6898 20.5333 12.8037 18.5283C13.7834 18.8017 20.4364 18.3688 20.7554 18.5967C20.8465 18.6536 20.7554 19.565 20.7896 19.7473V19.7359Z" fill="#FBFBFB"/>
<path d="M12.6674 33.4179C15.1509 33.2812 17.8736 33.4179 20.3799 33.4179L19.833 35.9241C17.1901 35.9241 14.5471 35.8558 11.9155 35.8558V33.5204C11.9953 33.3495 12.4965 33.4293 12.656 33.4179H12.6674Z" fill="#EE8D19"/>
<path d="M41.2366 33.4178C42.7973 33.4178 44.358 33.4747 45.9073 33.4861L46.0099 35.7873H52.2414L52.2755 33.4178L52.4122 33.5203V35.8557C48.4022 35.8557 44.3808 35.8557 40.3594 35.8557V33.4178C40.6556 33.4178 40.9518 33.4178 41.2366 33.4178Z" fill="#F5B51E"/>
<path d="M24.3768 33.4178C24.6275 33.4178 24.8781 33.4178 25.1173 33.4178C25.0831 33.7254 24.5477 33.4178 24.4452 33.657C24.3199 33.9532 24.5477 35.4228 24.4452 35.8557C22.9186 35.8557 21.3693 35.9241 19.8428 35.9241L20.3896 33.4178C21.7225 33.4178 23.0554 33.4178 24.3882 33.4178H24.3768Z" fill="#EE8D19"/>
<path d="M37.6496 33.4178C38.5495 33.4178 39.4609 33.4178 40.3609 33.4178V35.8557C39.3128 35.8557 38.242 35.9241 37.1825 35.9241C37.0686 35.4342 37.4673 35.2178 36.7724 35.1836C36.5217 35.195 36.6812 34.7165 36.6357 34.5115C36.6129 34.4089 36.6698 34.3178 36.5331 34.2381C36.1914 34.2494 36.2825 34.3406 35.9521 34.3748C35.9521 34.2836 35.9521 34.1925 35.9521 34.1014C35.9521 33.7596 35.8268 33.6343 35.8154 33.5545C35.8154 33.5317 35.8154 33.509 35.8154 33.4862C36.4078 33.3609 37.0458 33.4178 37.6382 33.4178H37.6496Z" fill="#EE8D19"/>
<path d="M25.46 33.4178C26.0296 33.4178 28.4448 33.3266 28.7751 33.4861C28.8549 33.5317 28.8549 33.5203 28.8435 33.6228C28.7751 33.6456 28.6156 33.5773 28.5701 33.657C28.5473 33.7026 28.5815 34.0443 28.5701 34.1696C28.5587 34.2722 28.5587 34.3405 28.4334 34.3747C28.2967 34.3747 27.6245 34.3519 27.5904 34.3747C27.522 34.4203 27.5562 34.9443 27.5562 35.0468V35.1835C26.9296 35.1835 26.9866 35.3772 27.0094 35.924C26.1549 35.924 25.2891 35.8557 24.4347 35.8557C24.5373 35.4228 24.3094 33.9532 24.4347 33.657C24.5373 33.4178 25.0727 33.7254 25.1069 33.4178C25.2208 33.4178 25.3347 33.4178 25.4486 33.4178H25.46Z" fill="#F5B51E"/>
<path d="M52.2642 33.4177L52.23 35.7873H45.9985L45.896 33.4861C47.8896 33.5089 49.9402 33.3608 51.9224 33.4177C52.0022 33.4177 52.0933 33.5772 52.2642 33.4177Z" fill="#F5B51E"/>
<path d="M39.9511 17.8447C39.7005 18.5055 40.2815 19.0295 39.279 18.9612L39.4157 33.1102C39.4954 33.2811 39.9283 33.2013 40.0878 33.2127C40.4865 33.2355 40.9308 33.0988 41.2384 33.4178C40.9422 33.4178 40.646 33.4178 40.3612 33.4178C39.4613 33.4178 38.5499 33.4178 37.6499 33.4178C37.6841 29.271 37.6499 25.1129 37.6499 20.9662V18.5966C37.9119 18.5966 39.4385 18.6536 39.5068 18.5966C39.5866 18.5397 39.5068 17.9359 39.541 17.7878C39.6891 17.7878 39.8714 17.8561 39.9511 17.8561V17.8447Z" fill="#C4C2D1"/>
<path d="M37.6476 20.9547C37.6476 25.1015 37.6818 29.2596 37.6476 33.4063C37.0438 33.4063 36.4172 33.3494 35.8248 33.4747C35.8248 33.4291 35.8248 33.3949 35.7565 33.4063V19.7016H33.3869C34.435 20.3851 35.3805 21.4674 35.4147 22.7775C35.3805 22.7661 35.278 22.7775 35.2097 22.7775C35.3236 22.6294 35.2097 22.6522 35.2097 22.6408C35.0616 22.0028 34.9362 21.5244 34.5375 20.9775C34.3325 20.6927 32.7034 19.1548 32.4414 19.7586C32.3844 20.6699 32.5211 21.6724 32.4414 22.5724C32.4414 22.675 32.4186 22.6977 32.373 22.7775C32.3502 22.7775 32.3275 22.7775 32.3047 22.7775C32.2591 22.6977 32.2477 22.675 32.2363 22.5724C32.168 21.6155 32.3161 20.6244 32.2021 19.6674C31.0743 19.8497 29.6617 21.4218 29.6617 22.5724V22.8458H29.3883C29.5022 21.4332 30.3452 20.4535 31.4503 19.6674L28.9782 19.7016C28.9782 20.7497 28.9782 21.7978 28.9782 22.8458C28.9782 22.9142 28.9782 22.9825 28.9782 23.0509C28.9554 25.728 29.3769 30.5811 28.9782 32.962C28.9554 33.076 28.8073 33.3266 28.7731 33.4747C28.4314 33.3152 26.0276 33.4063 25.458 33.4063L25.9365 33.3038C25.9137 29.5672 25.9707 25.8306 25.9365 22.1053C26.2213 21.9573 28.3174 21.2395 28.3744 21.1256C28.4883 20.8522 28.2149 19.1092 28.4769 18.9953H36.3944L36.4286 21.2623C36.5198 21.5016 37.4083 20.875 37.6476 20.9547Z" fill="#FBFBFB"/>
<path d="M19.707 17.0359C20.0716 17.0359 20.4247 17.0359 20.7893 17.0359C20.812 17.2865 20.7323 18.3688 20.7893 18.4941C20.9146 18.7333 23.3183 18.4713 23.7284 18.665L23.6943 17.8561C23.8082 17.8561 24.2525 17.8219 24.298 17.8903C24.412 18.0498 24.093 18.8472 24.5031 18.9384C24.4575 18.9384 24.412 18.9384 24.3664 18.9384C24.1499 18.9384 23.2272 18.87 23.1474 19.0409L23.0107 33.3266H20.7095V30.114C20.8804 30.0912 21.0513 30.0685 21.2222 30.0457C21.3019 29.8292 21.3703 29.7723 21.1196 29.7039V19.8497L20.7779 19.7472C20.7437 19.5649 20.8348 18.6536 20.7437 18.5966C20.4247 18.3688 13.7717 18.8017 12.792 18.5282C12.8034 18.3232 12.6325 17.2751 12.7236 17.1384C13.0084 17.1384 13.316 17.0587 13.6008 17.0359C15.5261 16.8764 17.7248 17.0928 19.6956 17.0359H19.707Z" fill="#C4C2D1"/>
<path d="M51.9229 17.0359C51.9457 17.5257 51.9229 18.027 51.9229 18.5283H41.3624C41.3624 18.4371 41.2143 18.027 41.2941 17.8561C42.1941 17.7992 41.7726 17.7194 41.8409 17.3777C41.8409 17.3207 41.8865 17.2068 41.9093 17.1042H42.7181C45.7826 17.1042 48.8585 17.0587 51.9229 17.0359Z" fill="#C4C2D1"/>
<path d="M38.6624 16.8308C38.8219 16.808 38.8333 17.1954 38.8675 17.3776C38.8675 17.4004 38.708 17.6966 38.8333 17.7878C38.8675 17.8105 39.4143 17.7878 39.5396 17.7878C39.5168 17.9359 39.5852 18.5396 39.5055 18.5966C39.4257 18.6536 37.9106 18.5966 37.6485 18.5966C33.5816 18.7105 29.4918 18.608 25.4248 18.6649L25.3223 17.8561H26.0286C26.0969 17.7991 26.0514 17.4916 26.0628 17.3776C26.0855 17.1954 26.0058 17.0017 26.1311 16.8308C30.3006 16.7852 34.4815 16.865 38.651 16.8308H38.6624Z" fill="#ACABC1"/>
<path d="M26.1429 16.8308C26.0176 17.0017 26.0973 17.1954 26.0746 17.3776C25.6416 17.5029 24.1037 17.0359 24.3429 17.7877C24.6619 17.7194 25.0265 17.8561 25.3227 17.8561L25.4252 18.6649C29.4922 18.608 33.5706 18.7105 37.6489 18.5966V20.9661C37.4097 20.8864 36.5211 21.5016 36.43 21.2737L36.3958 19.0067H28.4783C28.2163 19.1206 28.4897 20.8636 28.3758 21.137C28.3302 21.2623 26.2226 21.98 25.9378 22.1168C25.9378 21.0687 25.9378 20.0206 25.9378 18.9725C25.8809 18.8928 24.6847 18.9384 24.5138 18.9384C24.1037 18.8472 24.4227 18.0384 24.3088 17.8903C24.2632 17.8219 23.8189 17.8675 23.705 17.8561C22.862 17.7877 22.7481 18.0384 22.9645 16.9106C24.0354 16.8536 25.0834 16.8536 26.1429 16.8422V16.8308Z" fill="#C4C2D1"/>
<path d="M35.2125 22.6523L32.4328 22.5839C32.5125 21.6839 32.3758 20.6814 32.4328 19.77C32.6948 19.1663 34.3239 20.7042 34.5289 20.989C34.9277 21.5358 35.053 22.0029 35.2011 22.6523H35.2125Z" fill="#1F4795"/>
<path d="M32.2255 22.5839H29.6509C29.6509 21.4219 31.0635 19.8498 32.1913 19.6789C32.3052 20.6358 32.1571 21.6269 32.2255 22.5839Z" fill="#1F4795"/>
<path d="M35.7475 33.4179C35.7475 33.4976 35.7019 33.4748 35.6791 33.4862L35.5424 22.9941C35.5766 22.9143 35.4513 22.8118 35.4057 22.789C35.3715 21.4789 34.426 20.3967 33.3779 19.7131H35.7475V33.4179Z" fill="#1C6593"/>
<path d="M29.3901 22.8573H28.98C28.98 21.8092 28.98 20.7611 28.98 19.7131L31.4521 19.6789C30.347 20.465 29.504 21.4447 29.3901 22.8573Z" fill="#1C6593"/>
<path d="M35.2103 22.7889C35.2673 22.7889 35.3812 22.7775 35.4154 22.7889C35.461 22.8116 35.5863 22.9028 35.5521 22.9939L28.9902 23.0623C28.9902 22.9939 28.9902 22.9256 28.9902 22.8572H29.6624C30.5396 22.8572 31.4281 22.8003 32.3053 22.7889C32.3281 22.7889 32.3509 22.7889 32.3737 22.7889C33.2167 22.7889 34.4129 22.7319 35.2217 22.7889H35.2103Z" fill="#1F4795"/>
<path d="M32.2255 22.5839C32.2255 22.6865 32.2483 22.7092 32.2939 22.789C31.4167 22.789 30.5395 22.8573 29.6509 22.8573V22.5839H32.2255Z" fill="#369ACA"/>
<path d="M35.2108 22.6523C35.2108 22.6523 35.3247 22.6523 35.2108 22.789C34.402 22.732 33.2172 22.789 32.3628 22.789C32.4084 22.7092 32.4198 22.6865 32.4311 22.5839L35.2108 22.6523Z" fill="#3684C0"/>
<path d="M35.5535 22.994L35.6902 33.4861C35.6902 33.4861 35.6105 33.4861 35.6219 33.5545C34.346 33.5545 29.7436 33.3266 28.855 33.6228C28.8664 33.5203 28.8664 33.5317 28.7866 33.4861C28.8208 33.3494 28.9689 33.0874 28.9917 32.9735C29.3904 30.5811 28.9689 25.7395 28.9917 23.0623L35.5535 22.994Z" fill="#428CA6"/>
<path d="M35.8114 33.4851C35.8114 33.4851 35.8114 33.53 35.8114 33.5525H35.6094C35.6094 33.4739 35.6543 33.4964 35.6767 33.4851C35.6992 33.4739 35.7553 33.4851 35.7441 33.4178C35.8002 33.4178 35.8002 33.4402 35.8114 33.4851Z" fill="#643B4C"/>
<path d="M29.89 28.6787L31.9633 28.7129L31.8608 32.5292L29.7988 32.4951L29.89 28.6787Z" fill="#235FAB"/>
<path d="M33.0459 28.6787L35.0053 28.7471C35.2332 29.647 34.8344 31.504 35.0053 32.5065L32.9434 32.5406L32.9092 28.7129C32.932 28.6559 33.0345 28.6901 33.0459 28.6787Z" fill="#1F4795"/>
<path d="M32.501 26.7762L32.4326 23.8029C33.2642 23.8029 34.1073 23.7687 34.9389 23.837V26.6851C34.8591 26.8559 32.8313 26.7876 32.501 26.7876V26.7762Z" fill="#0A3782"/>
<path d="M32.226 23.7344V26.7078C31.8956 26.7078 29.902 26.9242 29.7881 26.6736V23.8939C29.8337 23.78 31.9184 23.723 32.226 23.723V23.7344Z" fill="#0A3782"/>
<path d="M32.4325 23.8029L32.5008 26.7763C32.0907 26.7763 32.2502 26.7079 32.2274 26.7079V23.7346C32.4211 23.7346 32.4211 23.8029 32.4325 23.8029Z" fill="#D9E9EB"/>
<path d="M35.0054 28.7469L33.046 28.6786C33.046 28.6786 33.0232 28.5647 33.0802 28.5419H34.9713C35.0396 28.576 34.9941 28.69 35.0054 28.7469Z" fill="#5D9CB1"/>
<path d="M22.953 16.8992C22.7366 18.027 22.8505 17.7764 23.6935 17.8448L23.7277 18.6536C23.3062 18.4713 20.9138 18.722 20.7885 18.4827C20.7316 18.3688 20.8113 17.2866 20.7885 17.0245C20.9708 17.0587 20.9025 16.9334 20.9252 16.8878C21.1189 17.1726 21.8024 17.0587 22.11 17.0245C22.167 17.0245 22.2012 16.8878 22.2125 16.8878C22.5657 16.8537 22.7252 16.8992 22.953 16.8878V16.8992Z" fill="#ACABC1"/>
<path d="M21.1297 29.6926C21.3803 29.761 21.3119 29.8179 21.2322 30.0344C21.0613 30.0572 20.8904 30.08 20.7195 30.1027C18.7145 30.3762 16.0602 29.8977 13.9868 30.1027C13.7703 29.9546 13.9526 29.7952 13.9526 29.6926H21.1297Z" fill="#C4C2D1"/>
<path d="M21.1311 29.6926H13.9541C13.9997 28.6217 14.4895 29.4078 14.6946 29.1116C14.9566 28.7356 14.4895 21.0004 14.6946 19.9067L20.7894 19.7358L21.1311 19.8384V29.6926Z" fill="#FBFBFB"/>
<path d="M16.9736 20.2828L18.8305 20.317L18.7964 22.4473L16.9395 22.4131L16.9736 20.2828Z" fill="#1F4795"/>
<path d="M17.0293 27.0496L18.8976 27.0838L18.7951 29.0774L16.9951 29.0432L17.0293 27.0496Z" fill="#7188BD"/>
<path d="M17.0293 24.8851L18.8976 24.9193L18.7951 26.8446L16.9951 26.8104L17.0293 24.8851Z" fill="#7188BD"/>
<path d="M15.1372 20.2828L16.6637 20.317L16.6296 22.4473L15.103 22.4131L15.1372 20.2828Z" fill="#1F4795"/>
<path d="M15.1372 27.0496L16.6637 27.0838L16.6296 29.0774L15.103 29.0432L15.1372 27.0496Z" fill="#7188BD"/>
<path d="M19.2056 27.0496L20.7207 27.0838L20.6865 29.0774L19.1714 29.0432L19.2056 27.0496Z" fill="#7188BD"/>
<path d="M15.2056 22.6522L16.6637 22.6864L16.6296 24.68L15.103 24.5775L15.2056 22.6522Z" fill="#235FAB"/>
<path d="M19.2056 22.6522L20.7321 22.7548C20.6865 24.2927 21.2106 25.0901 19.1714 24.5775L19.2056 22.6522Z" fill="#3684C0"/>
<path d="M15.4106 24.8168C15.5245 24.794 16.6296 24.8623 16.6637 24.9193L16.6296 26.8446L15.103 26.742V24.9193C15.2056 24.9193 15.3423 24.8281 15.4106 24.8168Z" fill="#3684C0"/>
<path d="M19.2056 24.8851L20.7321 24.9193C20.6865 26.4572 21.2106 27.2547 19.1714 26.742L19.2056 24.8851Z" fill="#6798C5"/>
<path d="M20.7204 21.4334C20.1622 21.7979 20.0255 22.5612 19.1597 22.3106L19.1938 20.2828H20.6862C20.7432 20.3283 20.7204 21.2625 20.7204 21.4334Z" fill="#235FAB"/>
<path d="M16.9395 24.0762L18.6369 22.6522C19.0926 22.7434 18.8989 24.6344 18.8078 24.68H17.0534C16.9053 24.4864 16.9736 24.2813 16.9508 24.0762H16.9395Z" fill="#557EB6"/>
<path d="M18.6246 22.6522L16.9271 24.0762C16.9158 23.8825 16.8816 22.6977 17.0297 22.6522C17.4967 22.7205 18.1917 22.561 18.6246 22.6522Z" fill="#1F4795"/>
<path d="M20.7204 21.4333C20.7204 21.5928 20.7546 22.4017 20.6862 22.4472H19.1938L19.1597 22.3105C20.0255 22.5612 20.1508 21.7979 20.7204 21.4333Z" fill="#3684C0"/>
<path d="M51.924 18.5169C51.924 20.4991 51.9923 22.4927 51.9923 24.475C51.9923 26.4572 51.924 28.4508 51.924 30.433V33.4064C49.9417 33.3494 47.8912 33.4975 45.8975 33.4747C44.3482 33.4633 42.7875 33.4064 41.2268 33.4064C40.9192 33.0874 40.4749 33.2355 40.0762 33.2013V18.9498C40.6344 18.7675 41.3065 19.2574 41.3635 18.5055H51.924V18.5169Z" fill="#FBFBFB"/>
<path d="M50.7733 29.6926C50.7733 29.6926 50.8416 30.0344 50.7391 30.1027C50.3176 30.3534 44.519 29.9091 43.5621 30.1027C43.4937 30.0572 43.5393 29.7952 43.5279 29.6926H50.7733Z" fill="#C4C2D1"/>
<path d="M50.7732 29.6926H43.5279C43.4595 28.7584 44.0063 29.3508 44.1316 29.0546V19.9181L50.4657 19.8156L50.4315 29.0546C50.9555 29.2597 50.8302 29.2255 50.7732 29.6926Z" fill="#FBFBFB"/>
<path d="M46.3418 20.2828L48.2101 20.317L48.1759 22.4473L46.3076 22.3447L46.3418 20.2828Z" fill="#3684C0"/>
<path d="M46.4106 27.0496L48.2106 27.0838L48.1081 29.0774L46.3765 29.0432L46.4106 27.0496Z" fill="#235FAB"/>
<path d="M44.519 20.2828L46.1025 20.317L46.0798 22.4473L44.4849 22.4131L44.519 20.2828Z" fill="#3684C0"/>
<path d="M44.519 22.6522L46.1025 22.7548L46.0114 24.68L44.4849 24.6458L44.519 22.6522Z" fill="#369ACA"/>
<path d="M44.519 24.8851L46.1025 24.9193L46.0114 26.8446L44.4849 26.8104L44.519 24.8851Z" fill="#369ACA"/>
<path d="M48.5063 27.0496L50.0329 27.0838L49.9987 29.0774L48.4722 29.0432L48.5063 27.0496Z" fill="#3684C0"/>
<path d="M48.5747 22.6522L50.0329 22.6864C49.9645 24.2129 50.5569 25.1129 48.4722 24.5775L48.5747 22.6522Z" fill="#235FAB"/>
<path d="M49.3266 24.8167C49.4291 24.8167 50.0101 24.8509 50.0329 24.9192V26.742L48.5063 26.8445L48.4722 24.9192C48.7228 24.9192 49.1101 24.8167 49.3152 24.8167H49.3266Z" fill="#369ACA"/>
<path d="M46.0456 27.5964C45.9772 28.0293 45.7722 28.4622 45.7722 28.9179L46.1139 28.4736C46.1139 28.5876 46.1481 29.0319 46.0798 29.0774L44.4849 29.0432L44.519 27.0496H46.0798C46.1823 27.2319 46.0798 27.4142 46.0456 27.5964Z" fill="#2A6FB0"/>
<path d="M46.7158 26.7761C46.7614 26.161 47.0576 25.4888 46.9209 24.885C47.0918 24.8736 48.174 24.8623 48.2082 24.9192V26.742C48.1057 26.9698 46.9437 26.7989 46.7158 26.7761Z" fill="#1F4795"/>
<path d="M50.0334 20.5562C49.6802 21.2511 49.2359 21.9005 48.541 22.3106C48.3473 21.7637 48.541 20.8979 48.4727 20.317L49.9992 20.2828C50.0903 20.3283 50.0334 20.5448 50.0334 20.5562Z" fill="#369ACA"/>
<path d="M46.3765 24.5433L48.0739 22.7206C48.0739 22.7206 48.1764 22.6864 48.2106 22.7548V24.6458L46.422 24.68C46.3651 24.6572 46.3993 24.5661 46.3879 24.5433H46.3765Z" fill="#1F4795"/>
<path d="M48.0727 22.7205L46.3753 24.5433C46.1703 24.2015 46.3753 23.1078 46.3753 22.6863C46.4209 22.618 47.9246 22.6294 48.0727 22.7205Z" fill="#369ACA"/>
<path d="M48.5389 22.3105C49.2338 21.9004 49.6781 21.2511 50.0313 20.5562C50.111 21.1144 49.9743 21.8435 50.0313 22.4131L48.5047 22.4472C48.425 22.4131 48.5617 22.3675 48.5389 22.3105Z" fill="#1F4795"/>
<path d="M46.9228 24.885C47.0709 25.4888 46.7633 26.1609 46.7177 26.7761C46.6608 26.7761 46.4443 26.9698 46.3076 26.7419L46.376 24.9192C46.4215 24.8508 46.8089 24.8964 46.9228 24.885Z" fill="#3684C0"/>
<path d="M46.102 28.4736L45.7603 28.9179C45.7603 28.4622 45.9653 28.0293 46.0337 27.5964C46.1476 27.8242 46.1134 28.2229 46.102 28.4736Z" fill="#99C8DE"/>
<path d="M41.3051 17.8448C41.2254 18.0271 41.3849 18.4258 41.3735 18.5169C41.3165 19.2574 40.6444 18.7789 40.0862 18.9612V33.2128C39.9267 33.2128 39.4824 33.2811 39.414 33.1102L39.2773 18.9612C40.2799 19.0296 39.7102 18.5055 39.9495 17.8448C40.2115 17.8448 41.0659 17.8562 41.3051 17.8448Z" fill="#DDD8E3"/>
<path d="M41.8414 17.3663C41.7844 17.6966 42.1945 17.7764 41.2945 17.8447C41.0553 17.8561 40.2009 17.8447 39.9389 17.8447C39.8591 17.8447 39.6883 17.7878 39.5288 17.7764C39.4034 17.7764 38.8566 17.7992 38.8224 17.7764C38.6971 17.6853 38.8566 17.4004 38.8566 17.3663H41.83H41.8414Z" fill="#FBFBFB"/>
<path d="M41.9787 16.8309C41.9787 16.9335 41.9331 17.0018 41.9103 17.1043C41.8875 17.2069 41.8534 17.3208 41.842 17.3778H38.8686C38.8458 17.2069 38.8231 16.8195 38.6636 16.8309C39.6205 16.8309 41.1015 16.9335 41.9787 16.8309Z" fill="#C4C2D1"/>
<path d="M25.9377 22.1054C25.9719 25.842 25.9149 29.5786 25.9377 33.3039L25.4592 33.4064C25.3453 33.4064 25.2314 33.4064 25.1174 33.4064C24.8668 33.4064 24.6162 33.4064 24.377 33.4064V18.9156C24.377 18.9156 24.4681 18.9156 24.5137 18.9156C24.6845 18.9156 25.8807 18.87 25.9377 18.9498C25.9377 19.9979 25.9377 21.0459 25.9377 22.094V22.1054Z" fill="#FBFBFB"/>
<path d="M26.0736 17.3663C26.0622 17.4689 26.1192 17.7878 26.0395 17.8448H25.3331C25.0256 17.8448 24.6724 17.7081 24.3534 17.7764C24.1028 17.036 25.6521 17.503 26.085 17.3663H26.0736Z" fill="#FBFBFB"/>
<path d="M36.7711 35.1722C37.466 35.2064 37.0559 35.4228 37.1812 35.9127C33.7977 35.9127 30.4143 35.9127 27.0308 35.9127C26.9966 35.3659 26.9511 35.1608 27.5776 35.1722C30.4826 35.2064 33.9116 35.0355 36.7825 35.1722H36.7711Z" fill="#FBFBFB"/>
<path d="M36.6348 34.5001C36.4753 34.5912 36.6348 34.9671 36.5322 35.0469C36.1677 35.3089 28.6261 34.8532 27.5666 35.0469C27.5666 34.933 27.5325 34.4203 27.6008 34.3747C27.635 34.352 28.3071 34.3747 28.4438 34.3747C30.9273 34.3861 33.4792 34.614 35.9626 34.3747C36.293 34.3406 36.2019 34.2494 36.5436 34.238C36.6803 34.3178 36.6234 34.4089 36.6462 34.5114L36.6348 34.5001Z" fill="#FBFBFB"/>
<path d="M35.6094 33.5431H35.8144C35.8258 33.6228 35.9398 33.7482 35.9512 34.0899L28.5691 34.1583C28.5804 34.0444 28.5463 33.6912 28.5691 33.6456C28.6146 33.5659 28.7741 33.6456 28.8425 33.6115C29.7311 33.3153 34.3335 33.5431 35.6094 33.5431Z" fill="#FBFBFB"/>
<path d="M36.7698 35.1722C33.8876 35.0355 30.4699 35.2064 27.5649 35.1722V35.0355C28.6358 34.8419 36.166 35.2975 36.5305 35.0355C36.6331 34.9558 36.4736 34.5798 36.6331 34.4887C36.6786 34.7052 36.5191 35.1836 36.7698 35.1608V35.1722Z" fill="#DDD8E3"/>
<path d="M35.9514 34.3633C33.4679 34.6026 30.9275 34.3747 28.4326 34.3633C28.5579 34.3405 28.5579 34.2608 28.5693 34.1583L35.9514 34.0899C35.9514 34.181 35.9514 34.2722 35.9514 34.3633Z" fill="#DDD8E3"/>
<path d="M41.0999 5.52994C41.0999 5.80336 41.5214 5.58691 41.6467 5.70083C41.6581 5.71222 41.6467 5.94006 41.715 6.04259C42.353 6.91978 42.8201 7.92229 43.5378 8.71974C43.6061 8.99315 43.7428 9.0615 43.8112 9.19821C44.415 10.4855 44.6884 10.0412 46.044 10.0412V5.64387C46.1352 5.64387 46.2377 5.54134 46.2491 5.54134C46.3972 5.49577 46.9098 5.5869 47.0579 5.71222L54.7704 16.774L54.7362 17.0474C53.8021 17.0474 52.8679 17.0474 51.9224 17.0474C48.8579 17.0702 45.782 17.1157 42.7175 17.1157C42.6606 17.0474 42.672 16.9676 42.6492 16.9107C43.0479 17.0132 44.0504 17.1271 43.7998 16.5347L33.6494 5.52994C35.2785 5.83753 39.2088 5.52994 41.0999 5.52994Z" fill="#F46035"/>
<path d="M30.1985 5.46155C30.2213 5.57547 30.1074 5.678 30.0277 5.73496C27.0543 7.91085 23.7392 11.8639 21.3241 14.7689C20.7545 15.4638 20.1621 16.2613 19.695 17.0359C17.7242 17.0929 15.5255 16.8765 13.6002 17.0359H9.94336C10.1028 16.4322 10.6041 15.7714 10.9573 15.2474C13.1673 11.9778 15.4571 8.74248 17.7584 5.5299C21.8937 5.45016 26.0518 5.678 30.1758 5.46155H30.1985Z" fill="url(#paint0_linear_6413_63314)"/>
<path d="M33.6498 5.52993L43.8002 16.5347C44.0508 17.1271 43.0483 17.0132 42.6495 16.9107C42.6268 16.8423 42.6496 16.7284 42.5128 16.7056L32.2599 5.80334L22.2121 16.8993C22.2121 16.8993 22.1665 17.0246 22.1096 17.036C21.802 17.0815 21.1184 17.1841 20.9248 16.8993C20.9248 16.8993 20.8336 16.7853 20.9248 16.66C21.1526 16.3524 21.54 15.9423 21.802 15.6461C24.707 12.3652 28.0449 8.50327 31.1435 5.46158C31.2688 5.33626 32.3169 4.43629 32.3966 4.44768C32.6017 4.48185 33.1941 5.45018 33.6498 5.52993Z" fill="#F15748"/>
<path d="M31.1433 5.46154C28.0446 8.50324 24.7067 12.3652 21.8017 15.6461C21.5397 15.9423 21.1524 16.3638 20.9245 16.66C20.8334 16.7853 20.9245 16.8878 20.9245 16.8992C20.9017 16.9448 20.9701 17.0701 20.7878 17.0359C20.4233 17.0359 20.0587 17.0359 19.7056 17.0359C20.1726 16.2613 20.7536 15.4638 21.3346 14.7689C23.7384 11.8639 27.0535 7.89945 30.0382 5.73495C30.118 5.67799 30.2205 5.57546 30.2091 5.46154C30.5281 5.45015 30.8471 5.47293 31.1546 5.46154H31.1433Z" fill="#B91C1E"/>
<path d="M43.4023 5.52989C43.4023 6.29316 43.3909 8.03615 43.539 8.70829C42.8213 7.91084 42.3542 6.90833 41.7162 6.03114C41.6479 5.92861 41.6593 5.70077 41.6479 5.68938C41.5226 5.57545 41.1125 5.7919 41.1011 5.51849H43.4023V5.52989Z" fill="#D51E2C"/>
<path d="M46.0444 5.25642C46.0444 5.25642 46.033 5.38173 46.0444 5.4273C46.0672 5.49566 46.238 5.40452 46.2494 5.52983C46.2494 5.52983 46.1355 5.63236 46.0444 5.63236V10.0297C44.6887 10.0297 44.4153 10.474 43.8115 9.1867C44.0622 9.22088 44.0166 9.14113 44.0166 8.94747C44.0166 7.52345 44.0508 6.14501 44.0849 4.72099C44.347 4.76656 45.9191 4.65264 46.0102 4.72099C46.0899 4.77795 46.0216 5.1425 46.0444 5.26781V5.25642Z" fill="#FBFBFB"/>
<path d="M46.1015 4.43623C45.4066 4.41345 44.7003 4.47041 44.0054 4.43623C43.9826 4.43623 43.9598 4.43623 43.937 4.43623V3.35398C44.6889 3.31981 45.4522 3.38816 46.204 3.35398C46.4205 3.44512 46.1129 4.37927 46.1015 4.43623Z" fill="#EA3634"/>
<path d="M43.9362 4.43628C43.9362 4.43628 43.9818 4.43628 44.0045 4.43628C43.959 4.56159 44.0729 4.65273 44.0729 4.70969C44.0387 6.1337 43.9931 7.51215 44.0045 8.93617C44.0045 9.12983 44.0501 9.19818 43.7995 9.1754C43.7311 9.0387 43.5944 8.98173 43.5261 8.69693C43.378 8.0248 43.3894 6.2818 43.3894 5.51853C43.3894 5.17677 43.5261 4.78943 43.4577 4.43628C43.583 4.45906 43.7881 4.43628 43.9362 4.43628Z" fill="#ADBCD2"/>
<path d="M43.9374 3.35414V4.43639C43.7893 4.43639 43.5843 4.45918 43.4589 4.43639C42.8665 4.31108 43.083 4.01489 42.9805 3.45667C43.0602 3.28579 43.7437 3.36553 43.926 3.35414H43.9374Z" fill="#820602"/>
<path d="M46.1006 4.43626C46.0664 4.68688 46.1803 5.02865 46.0322 5.2451C46.0094 5.13117 46.0778 4.75523 45.998 4.69827C45.9069 4.62992 44.3348 4.74384 44.0728 4.69827C44.0728 4.64131 43.9588 4.55018 44.0044 4.42486C44.6993 4.45904 45.4056 4.40208 46.1006 4.42486V4.43626Z" fill="#C4C2D1"/>
<path d="M42.5242 16.6942C42.6607 16.717 42.6379 16.8307 42.6607 16.899C42.6834 16.9558 42.6607 17.0241 42.7289 17.1037H41.9214C41.9441 17.0013 41.9896 16.9331 41.9896 16.8307C42.092 16.8193 42.3308 16.6032 42.5355 16.6942H42.5242Z" fill="#8EA0C4"/>
<path d="M42.5249 16.6941C42.3198 16.603 42.0806 16.8195 41.9781 16.8309C41.1009 16.9334 39.6199 16.8309 38.6629 16.8309C34.4934 16.865 30.3125 16.7853 26.143 16.8309C25.0721 16.8422 24.0241 16.8309 22.9646 16.8992C22.7368 16.9106 22.5659 16.865 22.2241 16.8992L32.272 5.80328L42.5249 16.7055V16.6941Z" fill="#FBFBFB"/>
<path d="M32.2257 7.55777C32.1232 7.64891 31.7586 8.19573 31.6219 8.36661C29.9929 10.2805 28.4777 12.3083 27.0195 14.3589L31.827 14.2563C32.465 14.4386 33.0004 14.3019 33.5244 13.9146C33.3877 14.0399 33.2054 14.2336 33.0801 14.393C34.2649 14.393 35.4497 14.3816 36.6345 14.393C36.8509 14.393 37.7281 14.5525 37.8876 14.4614C37.9446 14.4272 37.9218 14.3589 37.9218 14.2905C37.9218 13.8462 32.727 8.46914 32.3055 7.48942C32.5561 7.3641 34.3105 9.64253 34.5383 9.89315C35.6434 11.1007 38.7534 13.8804 39.4141 15.0424C39.4711 15.1563 39.5964 15.2588 39.4483 15.35L25.2651 15.2475L32.2371 7.56916L32.2257 7.55777Z" fill="#ADBCD2"/>
<path d="M36.6351 14.3929C36.4756 13.96 35.8832 12.9347 35.5187 12.6955C35.4959 12.6727 35.2111 12.855 34.9377 12.5588C34.3794 11.9436 34.6187 11.4993 33.4453 10.9981L32.5681 9.36899C32.5567 9.22089 32.5111 8.91331 32.2947 8.89052C32.2947 8.7766 32.477 8.85635 32.3972 8.75382C32.3744 8.71964 31.7023 8.48041 31.6226 8.3437C31.7707 8.17282 32.1352 7.6146 32.2263 7.53486C32.2263 7.53486 32.2263 7.45511 32.2947 7.46651C32.7162 8.44623 37.911 13.8233 37.911 14.2676C37.911 14.336 37.9338 14.4043 37.8768 14.4385C37.7173 14.5296 36.8402 14.3701 36.6237 14.3701L36.6351 14.3929Z" fill="#C4C2D1"/>
<path d="M32.2944 8.9133C32.2944 9.03861 32.2261 9.07279 32.2261 9.18671C31.964 9.41455 31.8387 9.76771 31.6792 10.0639C31.3375 10.1436 31.3033 10.7019 31.1324 10.9069C30.8362 11.2829 29.7426 11.9664 29.8451 12.6043C29.9021 12.9233 31.4628 14.1651 31.8045 14.2676L26.9971 14.3701C28.4553 12.3195 29.9704 10.2917 31.5995 8.37787C31.6906 8.51457 32.3514 8.75381 32.3742 8.78799C32.4539 8.89051 32.283 8.81077 32.2716 8.92469L32.2944 8.9133Z" fill="#C4C2D1"/>
<path d="M36.6354 14.393C35.4506 14.3816 34.2658 14.393 33.0811 14.393C33.2064 14.2335 33.3773 14.0513 33.5253 13.9146C34.0038 13.4703 34.5506 13.0943 34.9494 12.5589C35.2228 12.8551 35.4962 12.6728 35.5304 12.6956C35.8949 12.9234 36.4873 13.9487 36.6468 14.393H36.6354Z" fill="#C4C2D1"/>
<path d="M33.4451 11.0096C33.2286 10.9184 32.7843 10.7589 32.5679 10.7362C32.5337 10.3033 32.6134 9.802 32.5679 9.38049L33.4451 11.0096Z" fill="#1C6593"/>
<path d="M32.5688 9.38057C32.6144 9.80208 32.5346 10.3033 32.5688 10.7362C32.4777 10.7362 32.3865 10.7362 32.2954 10.7362C32.3524 10.2122 32.2384 9.69955 32.2271 9.17551C32.2271 9.06159 32.284 9.02741 32.2954 8.9021C32.5005 8.91349 32.546 9.22108 32.5688 9.38057Z" fill="#001758"/>
<path d="M32.2954 10.7362C31.9764 10.7362 31.6005 10.8729 31.2815 10.907C31.2473 10.8615 31.6233 10.1893 31.6916 10.064C31.8397 9.76783 31.9764 9.40328 32.2384 9.18683C32.2498 9.69947 32.3523 10.2235 32.3068 10.7475L32.2954 10.7362Z" fill="#2A6FB0"/>
<path d="M31.691 10.064C31.6226 10.1893 31.2581 10.8614 31.2809 10.907C31.5998 10.8728 31.9758 10.7361 32.2948 10.7361C32.3859 10.7361 32.477 10.7361 32.5682 10.7361C32.7846 10.7475 33.2289 10.9184 33.4454 11.0095C34.6188 11.4994 34.3681 11.9551 34.9377 12.5702C34.5504 13.1057 33.9922 13.4816 33.5137 13.9259C33.0011 14.3132 32.4543 14.4385 31.8163 14.2677C31.4631 14.1651 29.9024 12.9234 29.8569 12.6044C29.7543 11.9778 30.848 11.2943 31.1442 10.907C31.3037 10.6905 31.3492 10.1437 31.691 10.064Z" fill="#FBFBFB"/>
<path d="M32.0669 11.1462C32.9896 11.0892 33.958 11.6475 34.4706 12.3993C32.9441 14.2677 31.8049 14.2563 30.2783 12.3993C30.6087 11.7728 31.3492 11.1918 32.0669 11.1462Z" fill="#235FAB"/>
<defs>
<linearGradient id="paint0_linear_6413_63314" x1="28.4556" y1="10.2007" x2="10.7636" y2="12.1601" gradientUnits="userSpaceOnUse">
<stop stop-color="#DD373A"/>
<stop offset="1" stop-color="#B81D36"/>
</linearGradient>
</defs>
</svg>
