<svg width="28" height="28" viewBox="0 0 32 30" fill="none" xmlns="http://www.w3.org/2000/svg">
<path d="M29.527 0.654552C29.527 0.654552 29.464 0.654552 29.4325 0.654552C29.3459 0.627022 29.2435 0.562787 29.1963 0.544434C29.3065 0.544434 29.4404 0.544433 29.527 0.654552Z" fill="#59427E"/>
<path d="M8.00355 16.2881L3.79006 16.4271C3.64829 17.3167 3.9712 23.6086 3.79006 23.9144C3.64829 24.1553 3.30176 23.5159 3.27814 24.3869C3.27814 24.4703 3.15213 24.6001 3.30176 24.7205C4.74302 24.5537 6.57018 24.9429 7.9563 24.7205V27.3337H9.54719L9.6417 15.7136C9.69683 15.5746 10.3348 15.6395 10.4844 15.6302V27.4171C9.56294 27.4171 8.64149 27.4171 7.72003 27.4171C5.9795 27.4171 4.10509 27.3059 2.38818 27.4171V23.0711C2.38818 22.1908 2.38818 21.3105 2.38818 20.4302C2.38818 18.7159 2.40393 16.9368 2.48269 15.3059C3.16 15.5283 7.75941 15.1762 7.97993 15.3615C8.04293 15.4078 7.97993 16.1491 8.00355 16.2974V16.2881Z" fill="#FBFBFB"/>
<path d="M2.38845 27.417C4.10535 27.3058 5.98764 27.417 7.72029 27.417L7.34226 29.4556C5.5151 29.4556 3.68794 29.4 1.86865 29.4V27.5004C1.92378 27.3614 2.27031 27.4263 2.38057 27.417H2.38845Z" fill="#EE8D19"/>
<path d="M22.1387 27.4169C23.2176 27.4169 24.2966 27.4633 25.3677 27.4725L25.4386 29.3443H29.7466L29.7702 27.4169L29.8647 27.5003V29.3999C27.0925 29.3999 24.3123 29.3999 21.5322 29.3999V27.4169C21.737 27.4169 21.9418 27.4169 22.1387 27.4169Z" fill="#F5B51E"/>
<path d="M10.4832 27.4169C10.6564 27.4169 10.8297 27.4169 10.9951 27.4169C10.9715 27.6671 10.6013 27.4169 10.5304 27.6115C10.4438 27.8524 10.6013 29.0478 10.5304 29.3999C9.47507 29.3999 8.40398 29.4555 7.34863 29.4555L7.72667 27.4169C8.64812 27.4169 9.56958 27.4169 10.491 27.4169H10.4832Z" fill="#EE8D19"/>
<path d="M19.6591 27.417C20.2813 27.417 20.9113 27.417 21.5335 27.417V29.4C20.809 29.4 20.0686 29.4556 19.3362 29.4556C19.2574 29.0571 19.5331 28.8811 19.0527 28.8533C18.8794 28.8626 18.9897 28.4734 18.9582 28.3066C18.9424 28.2232 18.9818 28.149 18.8873 28.0842C18.651 28.0934 18.714 28.1676 18.4856 28.1954C18.4856 28.1212 18.4856 28.0471 18.4856 27.973C18.4856 27.695 18.399 27.5931 18.3911 27.5282C18.3911 27.5097 18.3911 27.4911 18.3911 27.4726C18.8006 27.3707 19.2417 27.417 19.6512 27.417H19.6591Z" fill="#EE8D19"/>
<path d="M11.2322 27.4169C11.626 27.4169 13.2956 27.3428 13.524 27.4725C13.5791 27.5096 13.5791 27.5003 13.5713 27.5837C13.524 27.6022 13.4137 27.5466 13.3822 27.6115C13.3665 27.6486 13.3901 27.9265 13.3822 28.0285C13.3744 28.1119 13.3744 28.1675 13.2877 28.1953C13.1932 28.1953 12.7286 28.1767 12.7049 28.1953C12.6577 28.2323 12.6813 28.6586 12.6813 28.742V28.8532C12.2481 28.8532 12.2875 29.0107 12.3033 29.4555C11.7126 29.4555 11.114 29.3999 10.5234 29.3999C10.5942 29.0478 10.4367 27.8524 10.5234 27.6115C10.5942 27.4169 10.9644 27.6671 10.988 27.4169C11.0668 27.4169 11.1455 27.4169 11.2243 27.4169H11.2322Z" fill="#F5B51E"/>
<path d="M29.7624 27.4169L29.7387 29.3443H25.4307L25.3599 27.4725C26.7381 27.4911 28.1557 27.3706 29.5261 27.4169C29.5812 27.4169 29.6442 27.5467 29.7624 27.4169Z" fill="#F5B51E"/>
<path d="M21.2501 14.7498C21.0768 15.2873 21.4785 15.7135 20.7854 15.6579L20.8799 27.1668C20.935 27.3058 21.2343 27.2409 21.3446 27.2502C21.6202 27.2687 21.9274 27.1575 22.14 27.417C21.9353 27.417 21.7305 27.417 21.5336 27.417C20.9114 27.417 20.2814 27.417 19.6592 27.417C19.6828 24.044 19.6592 20.6618 19.6592 17.2888V15.3614C19.8403 15.3614 20.8957 15.4077 20.9429 15.3614C20.998 15.3151 20.9429 14.824 20.9665 14.7035C21.0689 14.7035 21.1949 14.7591 21.2501 14.7591V14.7498Z" fill="#C4C2D1"/>
<path d="M19.6575 17.2795C19.6575 20.6525 19.6811 24.0347 19.6575 27.4077C19.24 27.4077 18.8069 27.3614 18.3974 27.4633C18.3974 27.4262 18.3973 27.3984 18.3501 27.4077V16.2602H16.712C17.4365 16.8162 18.0902 17.6965 18.1138 18.7622C18.0902 18.7529 18.0193 18.7622 17.9721 18.7622C18.0508 18.6417 17.9721 18.6602 17.9721 18.651C17.8697 18.1321 17.783 17.7429 17.5074 17.2981C17.3656 17.0664 16.2394 15.8155 16.0583 16.3066C16.0189 17.0479 16.1134 17.8633 16.0583 18.5954C16.0583 18.6788 16.0425 18.6973 16.011 18.7622C15.9953 18.7622 15.9795 18.7622 15.9638 18.7622C15.9323 18.6973 15.9244 18.6788 15.9165 18.5954C15.8693 17.817 15.9716 17.0108 15.8929 16.2324C15.1132 16.3807 14.1366 17.6595 14.1366 18.5954V18.8178H13.9476C14.0263 17.6687 14.6091 16.8718 15.3731 16.2324L13.6641 16.2602C13.6641 17.1128 13.6641 17.9653 13.6641 18.8178C13.6641 18.8734 13.6641 18.929 13.6641 18.9846C13.6483 21.1622 13.9397 25.1096 13.6641 27.0463C13.6483 27.139 13.5459 27.3428 13.5223 27.4633C13.286 27.3336 11.6243 27.4077 11.2305 27.4077L11.5612 27.3243C11.5455 24.2849 11.5849 21.2456 11.5612 18.2155C11.7581 18.095 13.2073 17.5112 13.2466 17.4185C13.3254 17.1962 13.1364 15.7784 13.3175 15.6857H18.7911L18.8148 17.5297C18.8778 17.7243 19.4921 17.2147 19.6575 17.2795Z" fill="#FBFBFB"/>
<path d="M7.25458 14.0919C7.5066 14.0919 7.75075 14.0919 8.00277 14.0919C8.01852 14.2958 7.96339 15.1761 8.00277 15.278C8.0894 15.4726 9.75117 15.2595 10.0347 15.417L10.0111 14.7591C10.0898 14.7591 10.397 14.7313 10.4285 14.7869C10.5072 14.9166 10.2867 15.5653 10.5702 15.6394C10.5387 15.6394 10.5072 15.6394 10.4757 15.6394C10.3261 15.6394 9.68817 15.5838 9.63304 15.7228L9.53853 27.3428H7.94764V24.7297C8.06577 24.7112 8.18391 24.6927 8.30204 24.6741C8.35717 24.4981 8.40443 24.4517 8.23116 24.3961V16.3807L7.99489 16.2973C7.97127 16.1491 8.03427 15.4077 7.97127 15.3614C7.75075 15.1761 3.15134 15.5282 2.47403 15.3058C2.48191 15.139 2.36377 14.2865 2.42678 14.1753C2.62367 14.1753 2.83631 14.1105 3.03321 14.0919C4.3642 13.9622 5.88421 14.1383 7.2467 14.0919H7.25458Z" fill="#C4C2D1"/>
<path d="M29.5264 14.0919C29.5422 14.4903 29.5264 14.898 29.5264 15.3058H22.2257C22.2257 15.2316 22.1233 14.898 22.1784 14.759C22.8006 14.7127 22.5092 14.6478 22.5564 14.3698C22.5564 14.3235 22.5879 14.2309 22.6037 14.1475H23.1629C25.2814 14.1475 27.4079 14.1104 29.5264 14.0919Z" fill="#C4C2D1"/>
<path d="M20.3592 13.925C20.4694 13.9065 20.4773 14.2216 20.5009 14.3698C20.5009 14.3884 20.3907 14.6293 20.4773 14.7034C20.5009 14.7219 20.879 14.7034 20.9656 14.7034C20.9498 14.8239 20.9971 15.315 20.942 15.3613C20.8868 15.4077 19.8394 15.3613 19.6582 15.3613C16.8466 15.454 14.0192 15.3706 11.2076 15.4169L11.1367 14.759H11.625C11.6723 14.7127 11.6408 14.4625 11.6486 14.3698C11.6644 14.2216 11.6093 14.064 11.6959 13.925C14.5784 13.888 17.4688 13.9528 20.3513 13.925H20.3592Z" fill="#ACABC1"/>
<path d="M11.7037 13.925C11.617 14.064 11.6722 14.2216 11.6564 14.3698C11.3571 14.4718 10.2939 14.0918 10.4593 14.7034C10.6798 14.6478 10.9319 14.759 11.1366 14.759L11.2075 15.4169C14.0191 15.3706 16.8386 15.454 19.6581 15.3613V17.2887C19.4927 17.2239 18.8784 17.7243 18.8154 17.5389L18.7918 15.6949H13.3182C13.1371 15.7876 13.3261 17.2053 13.2473 17.4277C13.2158 17.5297 11.7588 18.1135 11.5619 18.2246C11.5619 17.3721 11.5619 16.5196 11.5619 15.6671C11.5225 15.6023 10.6956 15.6393 10.5775 15.6393C10.2939 15.5652 10.5144 14.9073 10.4357 14.7868C10.4042 14.7312 10.097 14.7683 10.0183 14.759C9.43547 14.7034 9.35672 14.9073 9.50636 13.9899C10.2467 13.9436 10.9712 13.9436 11.7037 13.9343V13.925Z" fill="#C4C2D1"/>
<path d="M17.9741 18.6602L16.0524 18.6046C16.1075 17.8726 16.013 17.0572 16.0524 16.3158C16.2335 15.8247 17.3598 17.0757 17.5015 17.3073C17.7772 17.7521 17.8638 18.1321 17.9662 18.6602H17.9741Z" fill="#1F4795"/>
<path d="M15.9093 18.6047H14.1294C14.1294 17.6595 15.106 16.3808 15.8857 16.2418C15.9644 17.0201 15.862 17.8263 15.9093 18.6047Z" fill="#1F4795"/>
<path d="M18.3437 27.417C18.3437 27.4818 18.3122 27.4633 18.2965 27.4726L18.2019 18.9382C18.2256 18.8734 18.1389 18.79 18.1074 18.7715C18.0838 17.7058 17.4301 16.8255 16.7056 16.2695H18.3437V27.417Z" fill="#1C6593"/>
<path d="M13.9486 18.8271H13.665C13.665 17.9746 13.665 17.1221 13.665 16.2696L15.3741 16.2418C14.6101 16.8811 14.0273 17.678 13.9486 18.8271Z" fill="#1C6593"/>
<path d="M17.9725 18.7714C18.0119 18.7714 18.0906 18.7621 18.1143 18.7714C18.1458 18.7899 18.2324 18.8641 18.2088 18.9383L13.6724 18.9939C13.6724 18.9383 13.6724 18.8827 13.6724 18.827H14.137C14.7435 18.827 15.3578 18.7807 15.9642 18.7714C15.9799 18.7714 15.9957 18.7714 16.0114 18.7714C16.5942 18.7714 17.4212 18.725 17.9804 18.7714H17.9725Z" fill="#1F4795"/>
<path d="M15.9093 18.6047C15.9093 18.6879 15.9251 18.7065 15.9566 18.7712C15.3501 18.7712 14.7437 18.8267 14.1294 18.8267V18.6047H15.9093Z" fill="#369ACA"/>
<path d="M17.9733 18.6603C17.9733 18.6603 18.0521 18.6603 17.9733 18.7716C17.4141 18.7252 16.5951 18.7716 16.0044 18.7716C16.0359 18.7067 16.0438 18.6881 16.0516 18.6047L17.9733 18.6603Z" fill="#3684C0"/>
<path d="M18.2099 18.9382L18.3044 27.4726C18.3044 27.4726 18.2493 27.4726 18.2572 27.5282C17.3751 27.5282 14.1933 27.3428 13.579 27.5838C13.5869 27.5004 13.5869 27.5096 13.5317 27.4726C13.5554 27.3614 13.6577 27.1482 13.6735 27.0556C13.9491 25.1096 13.6577 21.1714 13.6735 18.9938L18.2099 18.9382Z" fill="#428CA6"/>
<path d="M18.3886 27.4713C18.3886 27.4713 18.3886 27.5076 18.3886 27.5257H18.2485C18.2485 27.4623 18.2797 27.4804 18.2952 27.4713C18.3108 27.4623 18.3497 27.4713 18.3419 27.4169C18.3808 27.4169 18.3808 27.4351 18.3886 27.4713Z" fill="#643B4C"/>
<path d="M14.2945 23.5622L15.7278 23.59L15.6569 26.6942L14.2314 26.6664L14.2945 23.5622Z" fill="#235FAB"/>
<path d="M16.4768 23.5622L17.8315 23.6178C17.989 24.3498 17.7133 25.8603 17.8315 26.6757L16.406 26.7035L16.3823 23.59C16.3981 23.5437 16.469 23.5715 16.4768 23.5622Z" fill="#1F4795"/>
<path d="M16.1 22.0146L16.0527 19.5961C16.6277 19.5961 17.2105 19.5683 17.7854 19.6239V21.9405C17.7303 22.0794 16.3284 22.0239 16.1 22.0239V22.0146Z" fill="#0A3782"/>
<path d="M15.9095 19.5405V21.959C15.6811 21.959 14.3029 22.135 14.2241 21.9312V19.6702C14.2556 19.5775 15.6969 19.5312 15.9095 19.5312V19.5405Z" fill="#0A3782"/>
<path d="M16.0525 19.5962L16.0997 22.0147C15.8162 22.0147 15.9264 21.9591 15.9107 21.9591V19.5406C16.0446 19.5406 16.0446 19.5962 16.0525 19.5962Z" fill="#D9E9EB"/>
<path d="M17.8309 23.6178L16.4763 23.5622C16.4763 23.5622 16.4605 23.4695 16.4999 23.4509H17.8072C17.8545 23.4787 17.823 23.5715 17.8309 23.6178Z" fill="#5D9CB1"/>
<path d="M9.49915 13.9807C9.34951 14.8981 9.42827 14.6943 10.0111 14.7499L10.0347 15.4078C9.7433 15.2595 8.0894 15.4634 8.00277 15.2688C7.96339 15.1761 8.01852 14.2958 8.00277 14.0827C8.12878 14.1105 8.08152 14.0085 8.09727 13.9715C8.23116 14.2031 8.7037 14.1105 8.91635 14.0827C8.95573 14.0827 8.97935 13.9715 8.98723 13.9715C9.23137 13.9437 9.34163 13.9807 9.49915 13.9715V13.9807Z" fill="#ACABC1"/>
<path d="M8.23786 24.3869C8.41112 24.4425 8.36387 24.4887 8.30874 24.6647C8.19061 24.6832 8.07247 24.7017 7.95434 24.7202C6.56821 24.9424 4.73318 24.5536 3.2998 24.7202C3.15016 24.5999 3.27617 24.4702 3.27617 24.3869H8.23786Z" fill="#C4C2D1"/>
<path d="M8.23903 24.3868H3.27734C3.30885 23.5157 3.6475 24.1551 3.78926 23.9142C3.9704 23.6084 3.6475 17.3165 3.78926 16.427L8.00276 16.288L8.23903 16.3714V24.3868Z" fill="#FBFBFB"/>
<path d="M5.36542 16.7329L6.64916 16.7607L6.62554 18.4935L5.3418 18.4657L5.36542 16.7329Z" fill="#1F4795"/>
<path d="M5.404 22.2371L6.69561 22.2649L6.62473 23.8865L5.38037 23.8587L5.404 22.2371Z" fill="#7188BD"/>
<path d="M5.404 20.4764L6.69561 20.5042L6.62473 22.0703L5.38037 22.0425L5.404 20.4764Z" fill="#7188BD"/>
<path d="M4.0954 16.7329L5.15075 16.7607L5.12712 18.4935L4.07178 18.4657L4.0954 16.7329Z" fill="#1F4795"/>
<path d="M4.0954 22.2371L5.15075 22.2649L5.12712 23.8865L4.07178 23.8587L4.0954 22.2371Z" fill="#7188BD"/>
<path d="M6.90839 22.2371L7.95586 22.2649L7.93223 23.8865L6.88477 23.8587L6.90839 22.2371Z" fill="#7188BD"/>
<path d="M4.14266 18.6603L5.15075 18.6881L5.12712 20.3097L4.07178 20.2263L4.14266 18.6603Z" fill="#235FAB"/>
<path d="M6.90839 18.6603L7.96373 18.7437C7.93223 19.9946 8.29451 20.6433 6.88477 20.2263L6.90839 18.6603Z" fill="#3684C0"/>
<path d="M4.28442 20.4209C4.36318 20.4024 5.12712 20.458 5.15075 20.5043L5.12712 22.0703L4.07178 21.9869V20.5043C4.14266 20.5043 4.23717 20.4302 4.28442 20.4209Z" fill="#3684C0"/>
<path d="M6.90839 20.4764L7.96373 20.5042C7.93223 21.7552 8.29451 22.4038 6.88477 21.9869L6.90839 20.4764Z" fill="#6798C5"/>
<path d="M7.95544 17.6688C7.56953 17.9653 7.47502 18.5862 6.87646 18.3823L6.90009 16.7329H7.93181C7.97119 16.77 7.95544 17.5298 7.95544 17.6688Z" fill="#235FAB"/>
<path d="M5.3418 19.8186L6.51528 18.6603C6.8303 18.7344 6.69642 20.2726 6.63341 20.3097H5.42055C5.31817 20.1522 5.36542 19.9854 5.34967 19.8186H5.3418Z" fill="#557EB6"/>
<path d="M6.50622 18.6601L5.33274 19.8174C5.32486 19.66 5.30123 18.6972 5.40362 18.6601C5.72652 18.7157 6.20694 18.586 6.50622 18.6601Z" fill="#1F4795"/>
<path d="M7.95544 17.6688C7.95544 17.7984 7.97906 18.4558 7.93181 18.4928H6.90009L6.87646 18.3817C7.47502 18.5854 7.56165 17.9651 7.95544 17.6688Z" fill="#3684C0"/>
<path d="M29.5271 15.2965C29.5271 16.9088 29.5744 18.5305 29.5744 20.1428C29.5744 21.7552 29.5271 23.3768 29.5271 24.9891V27.4077C28.1568 27.3613 26.7392 27.4818 25.3609 27.4633C24.2898 27.454 23.2108 27.4077 22.1319 27.4077C21.9192 27.1482 21.6121 27.2687 21.3364 27.2409V15.6486C21.7223 15.5004 22.187 15.8988 22.2264 15.2872H29.5271V15.2965Z" fill="#FBFBFB"/>
<path d="M28.7318 24.3869C28.7318 24.3869 28.779 24.6647 28.7081 24.7202C28.4167 24.9239 24.408 24.5628 23.7464 24.7202C23.6992 24.6832 23.7307 24.4702 23.7228 24.3869H28.7318Z" fill="#C4C2D1"/>
<path d="M28.7322 24.3869H23.7233C23.6761 23.627 24.0541 24.1089 24.1407 23.8679V16.4363L28.5196 16.3529L28.496 23.8679C28.8583 24.0347 28.7716 24.0069 28.7322 24.3869Z" fill="#FBFBFB"/>
<path d="M25.6677 16.7329L26.9593 16.7607L26.9357 18.4935L25.644 18.4101L25.6677 16.7329Z" fill="#3684C0"/>
<path d="M25.716 22.2371L26.9604 22.2649L26.8895 23.8865L25.6924 23.8587L25.716 22.2371Z" fill="#235FAB"/>
<path d="M24.4079 16.7329L25.5026 16.7607L25.4869 18.4935L24.3843 18.4657L24.4079 16.7329Z" fill="#3684C0"/>
<path d="M24.4079 18.6603L25.5026 18.7437L25.4396 20.3097L24.3843 20.2819L24.4079 18.6603Z" fill="#369ACA"/>
<path d="M24.4079 20.4764L25.5026 20.5042L25.4396 22.0703L24.3843 22.0425L24.4079 20.4764Z" fill="#369ACA"/>
<path d="M27.1647 22.2371L28.2201 22.2649L28.1965 23.8865L27.1411 23.8587L27.1647 22.2371Z" fill="#3684C0"/>
<path d="M27.212 18.6603L28.2201 18.6881C28.1728 19.9298 28.5824 20.6618 27.1411 20.2263L27.212 18.6603Z" fill="#235FAB"/>
<path d="M27.7318 20.4208C27.8027 20.4208 28.2043 20.4486 28.2201 20.5042V21.9869L27.1647 22.0703L27.1411 20.5042C27.3144 20.5042 27.5822 20.4208 27.7239 20.4208H27.7318Z" fill="#369ACA"/>
<path d="M25.4632 22.6818C25.416 23.034 25.2742 23.3861 25.2742 23.7567L25.5105 23.3954C25.5105 23.488 25.5341 23.8494 25.4869 23.8865L24.3843 23.8587L24.4079 22.2371H25.4869C25.5578 22.3853 25.4869 22.5336 25.4632 22.6818Z" fill="#2A6FB0"/>
<path d="M25.9268 22.0147C25.9583 21.5143 26.163 20.9676 26.0685 20.4764C26.1867 20.4672 26.9348 20.4579 26.9585 20.5042V21.9869C26.8876 22.1722 26.0843 22.0332 25.9268 22.0147Z" fill="#1F4795"/>
<path d="M28.2201 16.9553C27.976 17.5206 27.6688 18.0487 27.1884 18.3823C27.0545 17.9375 27.1884 17.2333 27.1411 16.7607L28.1965 16.7329C28.2595 16.77 28.2201 16.946 28.2201 16.9553Z" fill="#369ACA"/>
<path d="M25.6924 20.1984L26.8659 18.7158C26.8659 18.7158 26.9367 18.688 26.9604 18.7436V20.2818L25.7239 20.3096C25.6845 20.2911 25.7081 20.217 25.7003 20.1984H25.6924Z" fill="#1F4795"/>
<path d="M26.8649 18.7158L25.6914 20.1984C25.5497 19.9204 25.6914 19.0308 25.6914 18.688C25.7229 18.6324 26.7625 18.6416 26.8649 18.7158Z" fill="#369ACA"/>
<path d="M27.1871 18.3823C27.6675 18.0487 27.9746 17.5205 28.2188 16.9553C28.2739 17.4093 28.1794 18.0024 28.2188 18.4657L27.1635 18.4935C27.1083 18.4657 27.2028 18.4286 27.1871 18.3823Z" fill="#1F4795"/>
<path d="M26.0693 20.4764C26.1717 20.9675 25.9591 21.5142 25.9276 22.0146C25.8882 22.0146 25.7386 22.1721 25.644 21.9868L25.6913 20.5042C25.7228 20.4486 25.9906 20.4856 26.0693 20.4764Z" fill="#3684C0"/>
<path d="M25.5024 23.3947L25.2661 23.7558C25.2661 23.3854 25.4079 23.0336 25.4551 22.6818C25.5339 22.8669 25.5103 23.191 25.5024 23.3947Z" fill="#99C8DE"/>
<path d="M22.1861 14.7499C22.1309 14.8981 22.2412 15.2225 22.2333 15.2966C22.1939 15.8989 21.7293 15.5097 21.3434 15.658V27.2502C21.2331 27.2502 20.9259 27.3058 20.8787 27.1668L20.7842 15.658C21.4772 15.7136 21.0835 15.2873 21.2488 14.7499C21.43 14.7499 22.0207 14.7591 22.1861 14.7499Z" fill="#DDD8E3"/>
<path d="M22.5563 14.3605C22.5169 14.629 22.8004 14.6938 22.1783 14.7494C22.0129 14.7587 21.4222 14.7494 21.2411 14.7494C21.1859 14.7494 21.0678 14.7031 20.9575 14.6938C20.8709 14.6938 20.4929 14.7124 20.4692 14.6938C20.3826 14.6198 20.4929 14.3883 20.4929 14.3605H22.5484H22.5563Z" fill="#FBFBFB"/>
<path d="M22.6522 13.9252C22.6522 14.0085 22.6207 14.0641 22.6049 14.1474C22.5892 14.2307 22.5655 14.3233 22.5577 14.3696H20.5021C20.4864 14.2307 20.4706 13.9159 20.3604 13.9252C21.0219 13.9252 22.0457 14.0085 22.6522 13.9252Z" fill="#C4C2D1"/>
<path d="M11.5619 18.2154C11.5855 21.2548 11.5461 24.2942 11.5619 27.3243L11.2311 27.4077C11.1523 27.4077 11.0736 27.4077 10.9948 27.4077C10.8216 27.4077 10.6483 27.4077 10.4829 27.4077V15.6208C10.4829 15.6208 10.5459 15.6208 10.5774 15.6208C10.6956 15.6208 11.5225 15.5838 11.5619 15.6486C11.5619 16.5011 11.5619 17.3536 11.5619 18.2062V18.2154Z" fill="#FBFBFB"/>
<path d="M11.6563 14.3606C11.6484 14.444 11.6878 14.7032 11.6327 14.7495H11.1444C10.9317 14.7495 10.6876 14.6384 10.4671 14.694C10.2938 14.0921 11.3649 14.4718 11.6642 14.3606H11.6563Z" fill="#FBFBFB"/>
<path d="M19.0517 28.844C19.5321 28.8718 19.2486 29.0477 19.3352 29.4458C16.9962 29.4458 14.6571 29.4458 12.318 29.4458C12.2944 29.0014 12.2629 28.8347 12.696 28.844C14.7043 28.8718 17.0749 28.7329 19.0596 28.844H19.0517Z" fill="#FBFBFB"/>
<path d="M18.9576 28.2971C18.8473 28.3712 18.9576 28.6767 18.8867 28.7415C18.6347 28.9545 13.421 28.5841 12.6885 28.7415C12.6885 28.6489 12.6649 28.2323 12.7122 28.1953C12.7358 28.1768 13.2004 28.1953 13.295 28.1953C15.0119 28.2045 16.776 28.3897 18.4929 28.1953C18.7213 28.1675 18.6583 28.0934 18.8946 28.0842C18.9891 28.149 18.9497 28.223 18.9655 28.3064L18.9576 28.2971Z" fill="#FBFBFB"/>
<path d="M18.2487 27.5188H18.3905C18.3983 27.5836 18.4771 27.6855 18.485 27.9632L13.3815 28.0188C13.3894 27.9262 13.3658 27.6392 13.3815 27.6021C13.413 27.5373 13.5233 27.6021 13.5705 27.5744C14.1848 27.3336 17.3666 27.5188 18.2487 27.5188Z" fill="#FBFBFB"/>
<path d="M19.0506 28.8436C17.058 28.7325 14.6953 28.8714 12.687 28.8436V28.7325C13.4273 28.5751 18.6332 28.9454 18.8852 28.7325C18.9561 28.6677 18.8458 28.3622 18.9561 28.2881C18.9876 28.464 18.8773 28.8529 19.0506 28.8343V28.8436Z" fill="#DDD8E3"/>
<path d="M18.4851 28.1862C16.7682 28.3809 15.0119 28.1955 13.2871 28.1862C13.3737 28.1677 13.3737 28.1028 13.3816 28.0193L18.4851 27.9637C18.4851 28.0379 18.4851 28.112 18.4851 28.1862Z" fill="#DDD8E3"/>
<path d="M22.0443 4.73291C22.0443 4.9553 22.3357 4.77924 22.4223 4.87191C22.4302 4.88117 22.4223 5.0665 22.4695 5.1499C22.9106 5.86341 23.2335 6.67885 23.7297 7.3275C23.7769 7.54989 23.8714 7.60549 23.9187 7.71668C24.3361 8.76379 24.5251 8.4024 25.4623 8.4024V4.82557C25.5253 4.82557 25.5962 4.74218 25.6041 4.74218C25.7065 4.70511 26.0609 4.77924 26.1632 4.88117L31.4951 13.8788L31.4715 14.1012C30.8257 14.1012 30.1798 14.1012 29.5262 14.1012C27.4076 14.1198 25.2812 14.1568 23.1626 14.1568C23.1232 14.1012 23.1311 14.0364 23.1154 13.99C23.391 14.0734 24.0841 14.1661 23.9108 13.6842L16.8936 4.73291C18.0198 4.9831 20.7369 4.73291 22.0443 4.73291Z" fill="#F46035"/>
<path d="M14.5079 4.67725C14.5236 4.76991 14.4449 4.85331 14.3897 4.89964C12.3342 6.66952 10.0423 9.88495 8.3727 12.2479C7.97892 12.8131 7.56938 13.4618 7.24648 14.0919C5.88398 14.1382 4.36397 13.9622 3.03298 14.0919H0.504883C0.615143 13.6008 0.961673 13.0633 1.20582 12.6371C2.7337 9.97761 4.31672 7.34596 5.90761 4.73284C8.76649 4.66798 11.6411 4.85331 14.4921 4.67725H14.5079Z" fill="url(#paint0_linear_6413_75551)"/>
<path d="M16.894 4.73287L23.9112 13.6842C24.0845 14.166 23.3914 14.0734 23.1158 13.99C23.1 13.9344 23.1158 13.8417 23.0213 13.8232L15.9332 4.95526L8.9868 13.9807C8.9868 13.9807 8.9553 14.0826 8.91592 14.0919C8.70328 14.129 8.23074 14.2124 8.09685 13.9807C8.09685 13.9807 8.03384 13.8881 8.09685 13.7861C8.25436 13.5359 8.52214 13.2023 8.70328 12.9614C10.7116 10.2927 13.0192 7.1514 15.1613 4.67727C15.248 4.57534 15.9725 3.8433 16.0277 3.85257C16.1694 3.88036 16.579 4.66801 16.894 4.73287Z" fill="#F15748"/>
<path d="M15.1611 4.6773C13.0189 7.15142 10.7113 10.2927 8.70303 12.9614C8.52189 13.2024 8.25412 13.5452 8.09661 13.7861C8.0336 13.8881 8.09661 13.9715 8.09661 13.9807C8.08085 14.0178 8.12811 14.1197 8.0021 14.0919C7.75008 14.0919 7.49805 14.0919 7.25391 14.0919C7.57681 13.4618 7.97847 12.8132 8.38013 12.2479C10.0419 9.885 12.3337 6.6603 14.3972 4.89969C14.4523 4.85336 14.5232 4.76996 14.5153 4.6773C14.7358 4.66803 14.9563 4.68656 15.169 4.6773H15.1611Z" fill="#B91C1E"/>
<path d="M23.6358 4.73284C23.6358 5.35369 23.6279 6.77144 23.7303 7.31816C23.2342 6.66951 22.9112 5.85407 22.4702 5.14056C22.423 5.05716 22.4308 4.87183 22.423 4.86257C22.3363 4.7699 22.0528 4.94596 22.0449 4.72357H23.6358V4.73284Z" fill="#D51E2C"/>
<path d="M25.4626 4.51042C25.4626 4.51042 25.4547 4.61235 25.4626 4.64941C25.4783 4.70501 25.5965 4.63088 25.6043 4.73281C25.6043 4.73281 25.5256 4.81621 25.4626 4.81621V8.39303C24.5254 8.39303 24.3364 8.75442 23.9189 7.70732C24.0922 7.73512 24.0607 7.67025 24.0607 7.51272C24.0607 6.35443 24.0843 5.23319 24.108 4.0749C24.2891 4.11196 25.3759 4.0193 25.439 4.0749C25.4941 4.12123 25.4468 4.41775 25.4626 4.51968V4.51042Z" fill="#FBFBFB"/>
<path d="M25.5022 3.8426C25.0218 3.82409 24.5335 3.87038 24.0531 3.8426C24.0374 3.8426 24.0216 3.8426 24.0059 3.8426V2.96304C24.5257 2.93526 25.0533 2.99081 25.5731 2.96304C25.7228 3.0371 25.5101 3.79631 25.5022 3.8426Z" fill="#EA3634"/>
<path d="M24.0051 3.84338C24.0051 3.84338 24.0366 3.84338 24.0524 3.84338C24.0209 3.94531 24.0996 4.01944 24.0996 4.06578C24.076 5.22407 24.0445 6.34531 24.0524 7.5036C24.0524 7.66113 24.0839 7.71673 23.9106 7.6982C23.8634 7.587 23.7689 7.54067 23.7216 7.30901C23.6192 6.76229 23.6271 5.34454 23.6271 4.72369C23.6271 4.4457 23.7216 4.13064 23.6743 3.84338C23.761 3.86192 23.9027 3.84338 24.0051 3.84338Z" fill="#ADBCD2"/>
<path d="M24.0063 2.96308V3.84265C23.9039 3.84265 23.7621 3.86116 23.6755 3.84265C23.266 3.7408 23.4156 3.50008 23.3447 3.04641C23.3999 2.90753 23.8724 2.97234 23.9984 2.96308H24.0063Z" fill="#820602"/>
<path d="M25.5015 3.84324C25.4779 4.04693 25.5566 4.32469 25.4542 4.5006C25.4385 4.40801 25.4857 4.10248 25.4306 4.05619C25.3676 4.00063 24.2808 4.09322 24.0996 4.05619C24.0996 4.00989 24.0209 3.93582 24.0524 3.83398C24.5328 3.86176 25.0211 3.81546 25.5015 3.83398V3.84324Z" fill="#C4C2D1"/>
<path d="M23.0285 13.814C23.1229 13.8325 23.1072 13.9251 23.1229 13.9806C23.1386 14.0269 23.1229 14.0824 23.1701 14.1472H22.6118C22.6275 14.0639 22.659 14.0084 22.659 13.9251C22.7298 13.9158 22.8949 13.7399 23.0364 13.814H23.0285Z" fill="#8EA0C4"/>
<path d="M23.0291 13.8139C22.8874 13.7398 22.722 13.9158 22.6511 13.9251C22.0447 14.0085 21.0208 13.9251 20.3593 13.9251C17.4767 13.9529 14.5864 13.888 11.7039 13.9251C10.9636 13.9344 10.239 13.9251 9.50655 13.9807C9.34903 13.99 9.2309 13.9529 8.99463 13.9807L15.941 4.95526L23.0291 13.8232V13.8139Z" fill="#FBFBFB"/>
<path d="M15.9097 6.38234C15.8388 6.45647 15.5868 6.90126 15.4923 7.04026C14.3661 8.59701 13.3186 10.2464 12.3105 11.9144L15.6341 11.831C16.0751 11.9792 16.4453 11.868 16.8075 11.553C16.713 11.6549 16.587 11.8124 16.5004 11.9422C17.3195 11.9422 18.1385 11.9329 18.9576 11.9422C19.1072 11.9422 19.7137 12.0719 19.8239 11.9978C19.8633 11.97 19.8476 11.9144 19.8476 11.8588C19.8476 11.4974 16.2562 7.12365 15.9648 6.32674C16.1381 6.22481 17.351 8.07809 17.5085 8.28195C18.2724 9.26419 20.4225 11.5252 20.8793 12.4704C20.9186 12.563 21.0053 12.6464 20.9029 12.7205L11.0977 12.6371L15.9176 6.39161L15.9097 6.38234Z" fill="#ADBCD2"/>
<path d="M18.958 11.9421C18.8477 11.5899 18.4382 10.756 18.1862 10.5614C18.1704 10.5428 17.9735 10.6911 17.7845 10.4502C17.3986 9.94978 17.564 9.58839 16.7528 9.18067L16.1464 7.85558C16.1385 7.73512 16.107 7.48493 15.9573 7.46639C15.9573 7.37373 16.0834 7.43859 16.0282 7.3552C16.0125 7.3274 15.5478 7.1328 15.4927 7.02161C15.5951 6.88261 15.8471 6.42856 15.9101 6.36369C15.9101 6.36369 15.9101 6.29883 15.9573 6.3081C16.2487 7.105 19.8401 11.4787 19.8401 11.8401C19.8401 11.8957 19.8558 11.9513 19.8164 11.9791C19.7062 12.0532 19.0997 11.9235 18.9501 11.9235L18.958 11.9421Z" fill="#C4C2D1"/>
<path d="M15.9571 7.48496C15.9571 7.58689 15.9099 7.61469 15.9099 7.70735C15.7287 7.89268 15.6421 8.17994 15.5318 8.42086C15.2956 8.48573 15.2719 8.93978 15.1538 9.10657C14.949 9.41236 14.193 9.96835 14.2638 10.4873C14.3032 10.7467 15.3822 11.7568 15.6185 11.8402L12.2949 11.9236C13.303 10.2556 14.3505 8.60619 15.4767 7.04944C15.5397 7.16064 15.9965 7.35523 16.0123 7.38303C16.0674 7.46643 15.9492 7.40156 15.9414 7.49423L15.9571 7.48496Z" fill="#C4C2D1"/>
<path d="M18.9582 11.9423C18.1391 11.933 17.32 11.9423 16.501 11.9423C16.5876 11.8125 16.7057 11.6643 16.8081 11.5531C17.1389 11.1917 17.5169 10.8859 17.7926 10.4504C17.9816 10.6913 18.1706 10.543 18.1943 10.5616C18.4463 10.7469 18.8558 11.5809 18.9661 11.9423H18.9582Z" fill="#C4C2D1"/>
<path d="M16.7522 9.19002C16.6025 9.11589 16.2954 8.98616 16.1457 8.96763C16.1221 8.6155 16.1772 8.20779 16.1457 7.86493L16.7522 9.19002Z" fill="#1C6593"/>
<path d="M16.1464 7.86502C16.1779 8.20787 16.1228 8.61559 16.1464 8.96772C16.0834 8.96772 16.0204 8.96772 15.9574 8.96772C15.9968 8.54146 15.918 8.12448 15.9102 7.69822C15.9102 7.60556 15.9495 7.57776 15.9574 7.47583C16.0992 7.4851 16.1307 7.73529 16.1464 7.86502Z" fill="#001758"/>
<path d="M15.9573 8.96769C15.7368 8.96769 15.4769 9.07888 15.2564 9.10668C15.2328 9.06962 15.4927 8.5229 15.5399 8.42097C15.6423 8.18004 15.7368 7.88352 15.918 7.70746C15.9258 8.12445 15.9967 8.5507 15.9652 8.97695L15.9573 8.96769Z" fill="#2A6FB0"/>
<path d="M15.5393 8.4209C15.492 8.52283 15.24 9.06954 15.2557 9.10661C15.4763 9.07881 15.7362 8.96761 15.9567 8.96761C16.0197 8.96761 16.0827 8.96761 16.1457 8.96761C16.2953 8.97688 16.6025 9.11588 16.7521 9.19001C17.5633 9.58846 17.39 9.95912 17.7838 10.4595C17.5161 10.895 17.1301 11.2008 16.7994 11.5622C16.445 11.8773 16.0669 11.9792 15.6259 11.8402C15.3817 11.7568 14.3028 10.7468 14.2713 10.4873C14.2004 9.97765 14.9565 9.42167 15.1612 9.10661C15.2715 8.93055 15.303 8.48576 15.5393 8.4209Z" fill="#FBFBFB"/>
<path d="M15.7995 9.30116C16.4374 9.25483 17.1068 9.70889 17.4612 10.3205C16.4059 11.8402 15.6183 11.8309 14.563 10.3205C14.7914 9.81082 15.3033 9.33823 15.7995 9.30116Z" fill="#235FAB"/>
<defs>
<linearGradient id="paint0_linear_6413_75551" x1="13.3029" y1="8.53206" x2="1.03065" y2="9.68727" gradientUnits="userSpaceOnUse">
<stop stop-color="#DD373A"/>
<stop offset="1" stop-color="#B81D36"/>
</linearGradient>
</defs>
</svg>
