<svg width="32" height="32" viewBox="0 0 32 32" fill="none" xmlns="http://www.w3.org/2000/svg">
<g filter="url(#filter0_d_6413_76433)">
<mask id="mask0_6413_76433" style="mask-type:alpha" maskUnits="userSpaceOnUse" x="2" y="2" width="28" height="28">
<circle cx="16" cy="16" r="14" fill="#D9D9D9"/>
</mask>
<g mask="url(#mask0_6413_76433)">
<path d="M2 2H55.2V30H2V2Z" fill="#B22234"/>
<path d="M2 5.23077H55.2H2ZM55.2 9.53847H2H55.2ZM2 13.8462H55.2H2ZM55.2 18.1539H2H55.2ZM2 22.4615H55.2H2ZM55.2 26.7692H2H55.2Z" fill="black"/>
<path d="M2 5.23077H55.2M55.2 9.53847H2M2 13.8462H55.2M55.2 18.1539H2M2 22.4615H55.2M55.2 26.7692H2" stroke="white" stroke-width="2.15385"/>
<path d="M2 2H23.28V17.0769H2V2Z" fill="#3C3B6E"/>
<path d="M3.77347 2.64612L4.27987 4.20466L2.9541 3.24143H4.59284L3.26707 4.20466L3.77347 2.64612Z" fill="white"/>
<path d="M3.77347 5.66156L4.27987 7.2201L2.9541 6.25687H4.59284L3.26707 7.2201L3.77347 5.66156Z" fill="white"/>
<path d="M3.77347 8.67688L4.27987 10.2354L2.9541 9.27219H4.59284L3.26707 10.2354L3.77347 8.67688Z" fill="white"/>
<path d="M3.77347 11.6923L4.27987 13.2509L2.9541 12.2876H4.59284L3.26707 13.2509L3.77347 11.6923Z" fill="white"/>
<path d="M3.77347 14.7076L4.27987 16.2662L2.9541 15.303H4.59284L3.26707 16.2662L3.77347 14.7076Z" fill="white"/>
<path d="M5.54642 4.15387L6.05281 5.71241L4.72705 4.74918H6.36579L5.04002 5.71241L5.54642 4.15387Z" fill="white"/>
<path d="M5.54642 7.16937L6.05281 8.72791L4.72705 7.76468H6.36579L5.04002 8.72791L5.54642 7.16937Z" fill="white"/>
<path d="M5.54642 10.1846L6.05281 11.7432L4.72705 10.7799H6.36579L5.04002 11.7432L5.54642 10.1846Z" fill="white"/>
<path d="M5.54642 13.2001L6.05281 14.7586L4.72705 13.7954H6.36579L5.04002 14.7586L5.54642 13.2001Z" fill="white"/>
<path d="M7.31985 2.64612L7.82625 4.20466L6.50049 3.24143H8.13923L6.81346 4.20466L7.31985 2.64612Z" fill="white"/>
<path d="M7.31985 5.66156L7.82625 7.2201L6.50049 6.25687H8.13923L6.81346 7.2201L7.31985 5.66156Z" fill="white"/>
<path d="M7.31985 8.67688L7.82625 10.2354L6.50049 9.27219H8.13923L6.81346 10.2354L7.31985 8.67688Z" fill="white"/>
<path d="M7.31985 11.6923L7.82625 13.2509L6.50049 12.2876H8.13923L6.81346 13.2509L7.31985 11.6923Z" fill="white"/>
<path d="M7.31985 14.7076L7.82625 16.2662L6.50049 15.303H8.13923L6.81346 16.2662L7.31985 14.7076Z" fill="white"/>
<path d="M9.09329 4.15387L9.59969 5.71241L8.27393 4.74918H9.91267L8.58689 5.71241L9.09329 4.15387Z" fill="white"/>
<path d="M9.09329 7.16937L9.59969 8.72791L8.27393 7.76468H9.91267L8.58689 8.72791L9.09329 7.16937Z" fill="white"/>
<path d="M9.09329 10.1846L9.59969 11.7432L8.27393 10.7799H9.91267L8.58689 11.7432L9.09329 10.1846Z" fill="white"/>
<path d="M9.09329 13.2001L9.59969 14.7586L8.27393 13.7954H9.91267L8.58689 14.7586L9.09329 13.2001Z" fill="white"/>
<path d="M10.8667 2.64612L11.3731 4.20466L10.0474 3.24143H11.6861L10.3603 4.20466L10.8667 2.64612Z" fill="white"/>
<path d="M10.8667 5.66156L11.3731 7.2201L10.0474 6.25687H11.6861L10.3603 7.2201L10.8667 5.66156Z" fill="white"/>
<path d="M10.8667 8.67688L11.3731 10.2354L10.0474 9.27219H11.6861L10.3603 10.2354L10.8667 8.67688Z" fill="white"/>
<path d="M10.8667 11.6923L11.3731 13.2509L10.0474 12.2876H11.6861L10.3603 13.2509L10.8667 11.6923Z" fill="white"/>
<path d="M10.8667 14.7076L11.3731 16.2662L10.0474 15.303H11.6861L10.3603 16.2662L10.8667 14.7076Z" fill="white"/>
<path d="M12.6402 4.15387L13.1466 5.71241L11.8208 4.74918H13.4595L12.1338 5.71241L12.6402 4.15387Z" fill="white"/>
<path d="M12.6402 7.16937L13.1466 8.72791L11.8208 7.76468H13.4595L12.1338 8.72791L12.6402 7.16937Z" fill="white"/>
<path d="M12.6402 10.1846L13.1466 11.7432L11.8208 10.7799H13.4595L12.1338 11.7432L12.6402 10.1846Z" fill="white"/>
<path d="M12.6402 13.2001L13.1466 14.7586L11.8208 13.7954H13.4595L12.1338 14.7586L12.6402 13.2001Z" fill="white"/>
<path d="M14.4136 2.64612L14.92 4.20466L13.5942 3.24143H15.233L13.9072 4.20466L14.4136 2.64612Z" fill="white"/>
<path d="M14.4136 5.66156L14.92 7.2201L13.5942 6.25687H15.233L13.9072 7.2201L14.4136 5.66156Z" fill="white"/>
<path d="M14.4136 8.67688L14.92 10.2354L13.5942 9.27219H15.233L13.9072 10.2354L14.4136 8.67688Z" fill="white"/>
<path d="M14.4136 11.6923L14.92 13.2509L13.5942 12.2876H15.233L13.9072 13.2509L14.4136 11.6923Z" fill="white"/>
<path d="M14.4136 14.7076L14.92 16.2662L13.5942 15.303H15.233L13.9072 16.2662L14.4136 14.7076Z" fill="white"/>
<path d="M16.1866 4.15387L16.693 5.71241L15.3672 4.74918H17.0059L15.6802 5.71241L16.1866 4.15387Z" fill="white"/>
<path d="M16.1866 7.16937L16.693 8.72791L15.3672 7.76468H17.0059L15.6802 8.72791L16.1866 7.16937Z" fill="white"/>
<path d="M16.1866 10.1846L16.693 11.7432L15.3672 10.7799H17.0059L15.6802 11.7432L16.1866 10.1846Z" fill="white"/>
<path d="M16.1866 13.2001L16.693 14.7586L15.3672 13.7954H17.0059L15.6802 14.7586L16.1866 13.2001Z" fill="white"/>
<path d="M17.96 2.64612L18.4664 4.20466L17.1406 3.24143H18.7794L17.4536 4.20466L17.96 2.64612Z" fill="white"/>
<path d="M17.96 5.66156L18.4664 7.2201L17.1406 6.25687H18.7794L17.4536 7.2201L17.96 5.66156Z" fill="white"/>
<path d="M17.96 8.67688L18.4664 10.2354L17.1406 9.27219H18.7794L17.4536 10.2354L17.96 8.67688Z" fill="white"/>
<path d="M17.96 11.6923L18.4664 13.2509L17.1406 12.2876H18.7794L17.4536 13.2509L17.96 11.6923Z" fill="white"/>
<path d="M17.96 14.7076L18.4664 16.2662L17.1406 15.303H18.7794L17.4536 16.2662L17.96 14.7076Z" fill="white"/>
<path d="M19.7329 4.15387L20.2393 5.71241L18.9136 4.74918H20.5523L19.2265 5.71241L19.7329 4.15387Z" fill="white"/>
<path d="M19.7329 7.16937L20.2393 8.72791L18.9136 7.76468H20.5523L19.2265 8.72791L19.7329 7.16937Z" fill="white"/>
<path d="M19.7329 10.1846L20.2393 11.7432L18.9136 10.7799H20.5523L19.2265 11.7432L19.7329 10.1846Z" fill="white"/>
<path d="M19.7329 13.2001L20.2393 14.7586L18.9136 13.7954H20.5523L19.2265 14.7586L19.7329 13.2001Z" fill="white"/>
<path d="M21.5069 2.64612L22.0133 4.20466L20.6875 3.24143H22.3262L21.0005 4.20466L21.5069 2.64612Z" fill="white"/>
<path d="M21.5069 5.66156L22.0133 7.2201L20.6875 6.25687H22.3262L21.0005 7.2201L21.5069 5.66156Z" fill="white"/>
<path d="M21.5069 8.67688L22.0133 10.2354L20.6875 9.27219H22.3262L21.0005 10.2354L21.5069 8.67688Z" fill="white"/>
<path d="M21.5069 11.6923L22.0133 13.2509L20.6875 12.2876H22.3262L21.0005 13.2509L21.5069 11.6923Z" fill="white"/>
<path d="M21.5069 14.7076L22.0133 16.2662L20.6875 15.303H22.3262L21.0005 16.2662L21.5069 14.7076Z" fill="white"/>
</g>
</g>
<defs>
<filter id="filter0_d_6413_76433" x="1" y="2" width="30" height="30" filterUnits="userSpaceOnUse" color-interpolation-filters="sRGB">
<feFlood flood-opacity="0" result="BackgroundImageFix"/>
<feColorMatrix in="SourceAlpha" type="matrix" values="0 0 0 0 0 0 0 0 0 0 0 0 0 0 0 0 0 0 127 0" result="hardAlpha"/>
<feOffset dy="1"/>
<feGaussianBlur stdDeviation="0.5"/>
<feComposite in2="hardAlpha" operator="out"/>
<feColorMatrix type="matrix" values="0 0 0 0 0 0 0 0 0 0 0 0 0 0 0 0 0 0 0.25 0"/>
<feBlend mode="normal" in2="BackgroundImageFix" result="effect1_dropShadow_6413_76433"/>
<feBlend mode="normal" in="SourceGraphic" in2="effect1_dropShadow_6413_76433" result="shape"/>
</filter>
</defs>
</svg>
