<svg width="32" height="32" viewBox="0 0 30 20" fill="none" xmlns="http://www.w3.org/2000/svg">
<path d="M28.7561 16.7044C28.7561 16.7044 29.0137 16.8796 29.0756 16.9208L29.395 17.5082C28.7252 17.2918 29.024 17.7864 28.6428 18.0955C28.4779 18.0234 28.3955 17.8894 28.2718 17.7761H1.32619C1.23345 17.807 1.18193 17.9822 1.16132 17.9925C0.841892 18.0543 1.01706 18.147 0.841892 18.2088C0.81098 18.0543 0.780067 17.6936 0.738849 17.57C0.687328 17.4257 0.666721 17.4463 0.522461 17.4669C0.728546 17.1372 0.975848 16.9002 1.37771 16.8281C3.64465 16.3953 9.20895 16.8384 11.8571 16.8281C12.0632 16.8281 12.2899 16.8281 12.496 16.8281C14.0829 16.8281 15.7212 16.9311 17.3081 16.9311C20.5436 16.9311 23.7998 16.7353 27.0353 16.8281C27.396 16.8281 28.6119 16.6941 28.7458 16.725L28.7561 16.7044Z" fill="#F4C118"/>
<path d="M11.6522 11.8923C11.7346 13.5307 11.6522 15.1794 11.8686 16.8075C9.2204 16.8178 3.6561 16.3747 1.38916 16.8075C1.38916 15.9213 1.38916 15.0145 1.4922 14.1387H2.61537C2.79054 14.3344 2.52263 14.489 2.56385 14.6745C2.63598 14.9939 2.83176 16.4571 2.9348 16.488L10.6321 14.4581C10.7351 13.7265 10.6012 13.0567 10.6836 12.3148L11.1679 13.067C11.3843 12.6445 10.7763 11.9026 11.6522 11.8923Z" fill="#D28A24"/>
<path d="M29.8289 19.27C19.9162 19.27 10.0138 19.3318 0.101074 19.27C0.307159 18.5075 0.0804658 18.1675 0.533853 17.4565C0.667809 17.4359 0.688418 17.4152 0.750244 17.5595C0.338073 17.7244 0.533855 18.3117 0.853287 18.1984C1.02846 18.1365 0.853286 18.0541 1.17272 17.982L1.00785 18.8372C9.98286 18.8888 18.9682 18.9403 27.9535 18.8372C27.9844 18.8372 28.1802 19.0742 28.4893 19.0536C28.5408 19.0536 29.2724 18.6105 29.2931 18.5693C29.2931 18.559 29.2106 18.4972 29.19 18.3014C29.5919 18.1159 29.3961 17.7347 29.1385 17.5492C28.7366 17.8583 29.1694 17.9099 29.19 18.1881C29.0251 18.322 28.8191 18.1572 28.6542 18.085C29.0354 17.7759 28.7263 17.2813 29.4064 17.4977L29.087 16.9103C29.9113 17.4565 29.9834 18.3838 29.8392 19.2597L29.8289 19.27Z" fill="#E8AB3F"/>
<path d="M26.829 8.79076C28.251 11.2844 28.6013 13.8502 28.7559 16.7044C28.6219 16.6735 27.406 16.8178 27.0454 16.8075C27.0454 16.7044 27.0351 16.5911 27.0454 16.488C27.1072 15.9522 26.9836 13.6132 26.9423 12.964C26.7878 10.8001 25.3246 8.21372 23.9438 6.54443C24.222 5.90557 22.6455 5.44187 23.1916 4.83392C24.6651 5.95709 25.9016 7.16269 26.829 8.79076Z" fill="#D28A24"/>
<path d="M18.9159 2.4847C18.617 2.57744 18.6377 3.22661 18.5964 3.443H18.1637C18.1637 3.11326 18.2873 2.82474 18.0606 2.53622C17.0817 1.33062 17.4218 3.63878 17.4218 3.97882L16.8859 13.974C16.6489 14.0461 16.6901 13.7782 16.6695 13.6545C16.2162 10.5323 17.5454 5.06077 16.8859 2.10344C16.5665 0.691761 13.1764 0.928756 12.7127 2.0004C12.3933 2.732 12.7848 7.63683 12.8157 8.79091H12.4963C12.4551 7.91505 12.3933 2.969 12.2799 2.63927C12.2181 2.46409 11.9811 2.49501 11.9605 2.4744C10.6725 1.53671 11.3422 4.34977 11.4247 4.82377C11.0022 4.76194 11.1877 5.92633 11.2083 6.31789H10.6725C10.6003 5.22564 10.5282 4.09217 10.4561 2.99991C10.4458 2.76292 10.3633 2.59805 10.353 2.36105C10.4973 2.09314 11.0022 1.81493 11.2598 1.72219C12.7745 1.15545 14.0626 0.495981 15.8555 0.763891C16.7623 0.897847 17.0096 1.45427 17.3496 1.61914C17.6794 1.77371 18.9571 1.61914 18.8953 2.4744L18.9159 2.4847Z" fill="#F4C118"/>
<path d="M7.58108 4.51459C7.64291 4.84432 7.57078 4.84432 7.41621 5.05041C5.55114 7.59556 4.10854 8.1829 2.97508 11.7379C2.86173 12.0882 2.72777 13.6648 2.65564 13.7678C2.40834 14.1491 1.75917 13.6648 1.69735 14.1388H1.48096C1.63552 12.7477 1.99617 11.2433 2.5526 9.96554C2.63504 9.76976 2.87203 9.31637 2.98538 9.11029C3.43877 8.27564 4.45889 6.91548 5.12867 6.2251C5.30384 6.04992 6.00453 5.41106 6.20031 5.2668C6.427 5.09163 6.61248 4.88554 6.83917 4.73098C6.87009 4.71037 7.55017 4.5352 7.59138 4.51459H7.58108Z" fill="#E8AB3F"/>
<path d="M22.6556 4.4115C22.8411 4.54546 23.006 4.70002 23.1914 4.84428C22.6453 5.45224 24.2219 5.91593 23.9436 6.55479C22.975 5.39041 21.8313 4.42181 20.5226 3.6696C20.1929 3.47382 19.4922 2.69069 19.0285 3.08226C18.9049 3.1853 18.7812 5.79227 18.7091 6.23536C18.6473 6.60631 18.3896 6.63723 18.3896 6.66814C18.4103 5.6068 18.4206 4.50424 18.606 3.46351C18.6473 3.24712 18.6266 2.59795 18.9255 2.50522C19.3995 2.35065 22.1507 4.07146 22.6659 4.43211L22.6556 4.4115Z" fill="#E8AB3F"/>
<path d="M17.4225 3.97841C17.4225 5.11188 17.2988 6.41021 17.5873 7.50246C17.6595 6.19382 18.1541 4.73062 18.1747 3.44259H18.6074C18.422 4.48332 18.4117 5.58587 18.3911 6.64721C18.3189 7.19334 18.3395 7.64673 18.288 8.14133C18.185 8.12072 17.8655 8.59472 17.8552 8.62563C17.1133 11.0162 17.9171 14.4991 17.3194 16.6939C17.2988 16.7557 17.3194 16.8381 17.3194 16.9103C15.7326 16.9103 14.0942 16.7969 12.5073 16.8072C12.5898 15.9314 12.7134 14.9009 12.7237 14.0251C13.0431 14.0766 12.9298 13.7365 12.9401 13.5408C12.9916 12.0776 12.8783 10.2743 12.8371 8.78019C12.8061 7.62612 12.4146 2.72129 12.734 1.98968C13.1977 0.928345 16.5878 0.691346 16.9072 2.09273C17.577 5.05005 16.2375 10.5216 16.6909 13.6438C16.7115 13.7675 16.6702 14.0354 16.9072 13.9632L17.4431 3.9681L17.4225 3.97841Z" fill="url(#paint0_linear_6413_76911)"/>
<path d="M28.6546 18.0956C28.8195 18.1677 29.0256 18.3326 29.1905 18.1986C29.1905 18.2296 29.1905 18.2708 29.1905 18.3017C29.2111 18.4975 29.3038 18.5593 29.2935 18.5696C29.2729 18.6108 28.5413 19.0436 28.4898 19.0539C28.1806 19.0848 27.9849 18.8375 27.9539 18.8375C18.9583 18.9406 9.98331 18.889 1.0083 18.8375L1.17317 17.9823C1.17317 17.9823 1.2453 17.7968 1.33804 17.7659H28.2837C28.4073 17.8792 28.5001 18.0132 28.6546 18.0853V18.0956Z" fill="#E58E43"/>
<path d="M18.3806 12.5416C18.3806 13.0877 18.7515 13.6029 18.3806 14.3036L18.5454 14.4685C21.4821 14.7055 24.2849 15.5608 27.0464 16.4984C27.0361 16.6015 27.0464 16.7148 27.0464 16.8179C23.8006 16.7251 20.5548 16.9312 17.3192 16.9209C17.3192 16.8488 17.2986 16.7664 17.3192 16.7045L17.9581 16.653C18.092 13.8296 17.9581 10.9651 18.2775 8.15199C18.3393 7.65739 18.3084 7.204 18.3806 6.65787C18.3806 6.62696 18.6382 6.59605 18.7 6.2251C18.7412 8.32717 18.3393 10.4395 18.3806 12.5313V12.5416Z" fill="#D28A24"/>
<path d="M12.5064 8.79087C12.5785 10.522 12.7227 12.3046 12.7227 14.0254C12.7227 14.9013 12.5888 15.9214 12.5064 16.8076C12.29 16.8076 12.0736 16.8076 11.8675 16.8076C11.6511 15.1795 11.7335 13.5205 11.6511 11.8925C11.5584 10.048 11.3317 8.17261 11.2183 6.32815C11.1977 5.93659 11.0122 4.7722 11.4347 4.83403C11.4965 5.21529 11.3832 6.65789 11.9705 6.59606V2.47436C11.9705 2.47436 12.2281 2.46405 12.29 2.63923C12.4033 2.96896 12.4651 7.9047 12.5064 8.79087Z" fill="#F4C118"/>
<path d="M0.841973 18.2083C0.522811 18.3216 0.3169 17.7347 0.739017 17.57C0.790495 17.6936 0.821382 18.0539 0.841973 18.2083Z" fill="#F7D244"/>
<path d="M10.6832 11.8924C10.6729 12.0367 10.7038 12.1809 10.6832 12.3252C10.6008 13.0671 10.7245 13.7266 10.6317 14.4685L2.93443 16.4984C2.83139 16.4572 2.63561 14.994 2.56348 14.6849C2.97565 14.4788 2.81078 13.5514 2.88291 13.1392C3.56299 9.31633 5.90206 6.65783 9.03455 4.53516L10.6935 11.913L10.6832 11.8924Z" fill="#F9CF27"/>
<path d="M11.2191 6.33855C11.3222 8.18302 11.5489 10.0481 11.6519 11.9029C10.7761 11.9235 11.384 12.6551 11.1676 13.0775L10.6833 12.3253C10.7039 12.1914 10.673 12.0368 10.6833 11.8926C10.8585 9.85231 10.8482 8.61579 10.6833 6.32825H11.2191V6.33855Z" fill="#E8AB3F"/>
<path d="M29.1788 18.3113C29.1788 18.3113 29.1788 18.2392 29.1788 18.2083C29.1582 17.9304 28.7155 17.8789 29.1273 17.57C29.395 17.7553 29.5803 18.1363 29.1788 18.3216V18.3113Z" fill="#EEDE7F"/>
<path d="M26.9432 12.9641C26.9844 13.6133 27.1081 15.9626 27.0463 16.4881C24.2847 15.5505 21.482 14.6952 18.5452 14.4582L18.3804 14.2933C18.7513 13.5926 18.3804 13.0774 18.3804 12.5313C18.9883 12.5313 18.7616 11.913 18.8131 11.7276C18.9986 11.0269 19.1738 10.3468 19.349 9.64611C19.7611 7.9356 20.1218 6.18388 20.6885 4.51459C23.0585 5.91597 25.1503 8.21382 26.191 10.7693C26.4795 11.4803 26.4898 12.3664 26.9432 12.9641Z" fill="#F9CF27"/>
<path d="M23.945 6.54433C25.3258 8.21362 26.789 10.8 26.9436 12.9639C26.5005 12.3662 26.4799 11.4801 26.1913 10.7691C25.1506 8.21362 23.0485 5.91577 20.6889 4.51439C20.1221 6.18368 19.7615 7.93541 19.3493 9.64592C18.7208 9.81078 18.9165 9.00705 18.9165 8.62579C18.9165 7.77054 19.2257 5.21508 19.4524 4.40105C19.947 4.55561 19.3699 5.86425 19.9367 5.68908C20.2767 5.58604 20.39 4.07131 20.421 3.76218C20.421 3.67975 20.4416 3.64883 20.524 3.65914C21.8326 4.41135 22.9867 5.37995 23.945 6.54433Z" fill="#F7D244"/>
<path d="M18.1746 3.4532C18.154 4.75153 17.6594 6.20444 17.5872 7.51308C17.2987 6.42083 17.4224 5.11218 17.4224 3.98902C17.4224 3.64898 17.0823 1.34083 18.0612 2.54643C18.2982 2.83494 18.1746 3.12346 18.1643 3.4532H18.1746Z" fill="#EEDE7F"/>
<path d="M11.971 2.48445V6.60615C11.3837 6.65768 11.497 5.22538 11.4352 4.84413C11.3528 4.37013 10.683 1.55707 11.971 2.49476V2.48445Z" fill="#EEDE7F"/>
<path d="M12.8263 8.79059C12.8675 10.2847 12.9809 12.088 12.9294 13.5512C12.9294 13.7469 13.0324 14.0767 12.713 14.0355C12.713 12.3043 12.5687 10.5217 12.4966 8.80089H12.816L12.8263 8.79059Z" fill="#F8910F"/>
<path d="M20.5229 3.65915C20.4302 3.64885 20.4199 3.67976 20.4199 3.7622C19.6058 3.47368 19.6161 3.82402 19.4616 4.40106C19.2452 5.2151 18.9361 7.77055 18.9257 8.62581C18.9257 8.99676 18.7197 9.8108 19.3585 9.64593C19.1937 10.3466 19.0082 11.037 18.8227 11.7274C18.7712 11.9129 19.0082 12.5208 18.3899 12.5311C18.359 10.4394 18.7506 8.32699 18.7094 6.22492C18.7815 5.78183 18.9051 3.17485 19.0288 3.07181C19.4925 2.68025 20.1932 3.46337 20.5229 3.65915Z" fill="#F4C118"/>
<path d="M18.2762 8.15178C17.9464 10.9648 18.0907 13.8294 17.9567 16.6528L17.3179 16.7043C17.9155 14.5095 17.1118 11.0164 17.8537 8.63608C17.8537 8.60516 18.1731 8.13117 18.2865 8.15178H18.2762Z" fill="#F4C118"/>
<path d="M10.4667 3.02057C10.5285 4.11282 10.6006 5.24629 10.6831 6.33854C10.8479 8.62609 10.8582 9.8626 10.6831 11.9028L9.02408 4.52499C5.90189 6.64767 3.56282 9.30617 2.87244 13.1291C2.80031 13.5515 2.96518 14.4686 2.55301 14.6747C2.51179 14.4995 2.7797 14.3347 2.60453 14.1389H1.69775C1.76988 13.6649 2.40875 14.1389 2.65605 13.7679C2.72818 13.6649 2.86214 12.078 2.97548 11.738C4.10895 8.19331 5.55155 7.60597 7.41662 5.05051C7.57118 4.84442 7.64331 4.84442 7.58149 4.51469C8.47796 3.94795 9.49808 3.02057 10.4667 3.02057Z" fill="#F4C118"/>
<path d="M9.55961 3.87555C9.70387 3.82402 9.96147 3.87555 10.0439 4.04042L10.3118 8.16212C9.98208 8.23425 10.013 7.82208 9.94086 7.57478C9.76569 7.02865 9.0444 4.06103 9.56991 3.88585L9.55961 3.87555Z" fill="#EEDE7F"/>
<path d="M20.4105 3.77277C20.3899 4.07159 20.2662 5.58632 19.9262 5.69967C19.3595 5.87484 19.9365 4.5765 19.4419 4.41163C19.5965 3.82429 19.5862 3.48425 20.4002 3.77277H20.4105Z" fill="#EEDE7F"/>
<defs>
<linearGradient id="paint0_linear_6413_76911" x1="15.6295" y1="2.21638" x2="15.2276" y2="15.7974" gradientUnits="userSpaceOnUse">
<stop stop-color="#F9D927"/>
<stop offset="1" stop-color="#E79C23"/>
</linearGradient>
</defs>
</svg>
