<svg width="140" height="100" viewBox="0 0 72 36" fill="none" xmlns="http://www.w3.org/2000/svg">
<path d="M38.1256 8.44393C38.2116 9.5803 37.9905 10.7474 38.4696 11.8162C38.7521 13.3027 41.0863 16.03 38.3344 17.4612C38.1625 17.5472 38.1809 17.627 37.9229 17.5963C37.9966 17.2769 37.1489 17.1295 37.0998 17.0128C37.0507 16.9022 37.1428 15.0103 37.0998 14.6049C36.9155 12.7867 36.4733 11.8715 36.6882 9.95499C36.719 9.69086 36.848 9.21789 36.6882 8.99061C36.6084 8.87391 35.8652 8.63435 35.687 8.51149C34.5506 7.68225 34.1391 6.05448 34.0347 4.72769C32.6587 6.92058 30.0543 7.82353 27.5604 7.96481C27.2472 8.48078 27.7631 8.57292 27.1796 8.78791C27.0875 8.82476 26.9093 8.72648 26.8356 8.89233C26.725 9.12575 27.1612 10.1761 27.3147 10.4403C27.2963 10.4157 27.0752 10.2805 26.9707 10.1331C26.9339 10.0778 26.8418 9.42059 26.6943 9.65401C26.5899 10.8088 26.1108 12.068 26.2152 13.2351C26.2644 13.7695 27.2717 16.3924 27.5911 16.8162C27.6034 16.8346 28.1071 16.8715 27.9351 16.9882C27.2656 16.9882 25.5887 18.0324 25.1096 17.885C24.7656 17.7806 24.096 16.9513 24.01 16.6135C23.5002 14.6725 24.8331 13.4255 25.2508 11.7609C25.8835 10.6245 25.2631 8.48078 25.386 7.04343C25.8589 1.466 33.3897 -1.79569 36.7435 3.52989C37.7509 5.12696 37.9843 6.61345 38.1195 8.45007L38.1256 8.44393Z" fill="url(#paint0_linear_6413_63498)"/>
<path d="M27.3146 10.4402C27.4252 10.5753 27.7139 10.6675 27.7937 10.821C27.9596 11.1159 28.1009 11.939 28.3466 12.4058C28.5493 12.7989 28.9117 13.1859 29.1697 13.5422C29.2802 13.6957 29.8392 14.2056 29.8576 14.267C29.9498 14.5864 29.8269 15.5938 29.8576 16.0238C27.5173 17.1171 26.8416 19.9488 26.7618 22.326C27.4129 22.756 28.0333 23.401 28.3466 24.1135C28.4694 24.3899 28.9178 25.4464 28.4817 25.5938C28.4633 25.5263 28.0394 24.6479 27.9289 24.4206C27.8552 24.2671 27.8122 24.0951 27.72 23.9415C27.5849 23.7142 26.9399 22.8788 26.7188 22.842C26.3932 22.7806 26.2458 23.057 26.0677 23.186C25.7176 23.4317 25.4596 23.6774 25.2446 24.0459C25.1094 24.2732 24.6426 25.9071 24.3478 25.4894C24.3293 24.8015 24.7348 23.8985 25.1709 23.358C25.3981 23.0754 26.3134 22.4673 26.3441 22.3936C26.4178 22.1847 26.3441 21.1651 26.4117 20.8088C26.6512 19.4574 27.0812 18.0877 27.9289 16.9881C28.1009 16.8714 27.5972 16.8346 27.5849 16.8162C27.2655 16.3985 26.252 13.7695 26.209 13.2351C26.1045 12.0741 26.5898 10.8087 26.6881 9.65395C26.8355 9.42668 26.9276 10.0839 26.9645 10.1331C27.0689 10.2805 27.29 10.4156 27.3085 10.4402H27.3146Z" fill="#273043"/>
<path d="M37.9161 17.6025C38.174 17.6332 38.1618 17.5533 38.3276 17.4673C38.2785 17.9587 39.4087 18.229 39.8755 18.5668C40.3424 18.9047 40.5819 19.3039 40.9443 19.6663C41.4357 20.1639 41.9456 20.5693 42.3203 21.1836C43.8866 23.7266 44.1815 30.6001 44.3166 33.7143C44.335 34.1013 44.3043 34.4944 44.3166 34.8876C41.0058 34.8876 37.5598 34.82 34.335 34.82C34.3841 32.4244 34.55 30.0472 34.7465 27.6578C34.9676 27.9035 35.4898 27.2278 35.6433 27.0743C36.1347 26.5583 36.5217 25.9993 36.8841 25.3851C36.8841 25.3973 37.0131 25.6492 37.0193 25.6615C36.9025 26.4907 38.4628 26.331 38.9112 26.0055C39.3596 25.6799 39.4701 24.3162 39.0463 24.1443C38.9664 24.1135 38.7453 24.175 38.6655 24.1443C38.561 24.1013 38.0696 23.8924 38.0451 23.8371C38.4013 21.5214 38.0881 18.9538 36.6016 17.0926C36.9885 16.9943 37.6151 17.5779 37.9099 17.6086L37.9161 17.6025Z" fill="#FAFAFA"/>
<path d="M29.8639 16.5029C28.5924 16.7731 28.8135 17.6699 28.832 18.708C28.8811 21.7486 29.6489 24.8874 29.9315 27.9341C29.6735 27.2462 29.0777 27.0127 28.5555 26.5582C28.5371 26.2572 28.5555 25.8764 28.488 25.5938C28.918 25.4464 28.4696 24.3899 28.3528 24.1135C28.0396 23.3948 27.4192 22.756 26.7681 22.326C26.8479 19.955 27.5236 17.1233 29.8639 16.0237C29.8762 16.1834 29.8455 16.3493 29.8639 16.5029Z" fill="#FAFAFA"/>
<path d="M27.7326 23.9354C27.8247 24.089 27.8616 24.261 27.9414 24.4145C27.2965 24.3531 26.0311 24.2425 26.2891 23.315C26.7743 23.5177 27.2473 23.745 27.7326 23.9354Z" fill="#E0E1E0"/>
<path d="M29.9314 27.928C29.9314 27.928 29.9314 27.9771 29.9314 27.9956C29.8024 28.4378 28.5248 27.154 28.4879 27.068C28.3896 26.853 28.5616 26.6503 28.5555 26.5521C29.0837 27.0128 29.6734 27.24 29.9314 27.928Z" fill="#E0E1E0"/>
<path d="M27.7324 23.9353C27.241 23.7448 26.768 23.5176 26.2889 23.3149C26.2398 23.2964 26.1108 23.235 26.0801 23.1797C26.2582 23.0507 26.4118 22.7743 26.7312 22.8357C26.9462 22.8787 27.5973 23.7141 27.7324 23.9353Z" fill="#FAFAFA"/>
<path d="M27.9352 16.982C27.0875 18.0815 26.6576 19.4513 26.418 20.8027C26.3566 21.1589 26.418 22.1724 26.3504 22.3874C26.3259 22.4611 25.4045 23.0693 25.1772 23.3518C24.7411 23.8985 24.3295 24.7953 24.3541 25.4833C24.649 25.901 25.1158 24.267 25.2509 24.0398C25.4659 23.6712 25.73 23.4255 26.074 23.1798C26.1047 23.2351 26.2337 23.2965 26.2829 23.315C26.0249 24.2425 27.2902 24.3592 27.9352 24.4145C28.0458 24.6417 28.4696 25.5201 28.488 25.5877C28.5618 25.8703 28.5433 26.2511 28.5556 26.5521C28.5556 26.6504 28.3898 26.8592 28.488 27.068C28.531 27.154 29.8025 28.4378 29.9315 27.9956C30.1404 30.2622 30.1711 32.5411 30.2755 34.8138C30.1711 34.8138 30.2264 34.9489 30.1711 34.9489C26.9708 34.9489 23.7644 34.8814 20.5703 34.8814C20.5703 32.5349 20.6993 30.1946 20.9143 27.8604C20.9266 27.7499 20.902 27.627 20.9143 27.5165C20.9511 27.1295 21.0064 26.7302 21.0494 26.3432C21.332 24.0336 21.7005 21.7977 23.0458 19.8383L25.1096 17.8788C25.5888 18.0262 27.2595 16.9881 27.9352 16.982Z" fill="#E0E1E0"/>
<path d="M24.8706 27.9279C25.1163 27.8849 25.8104 28.6343 25.147 28.6835C24.7908 28.7142 24.4591 28.0016 24.8706 27.9279Z" fill="#273043"/>
<path d="M27.4195 27.9955C28.0654 27.9647 27.6409 28.7705 27.2842 28.6844C26.9705 28.6044 26.9951 28.0139 27.4195 27.9955Z" fill="#273043"/>
<path d="M37.4376 23.9353C37.0629 24.439 36.6207 24.4881 36.8848 25.3788C36.5224 25.9869 36.1354 26.552 35.644 27.068C35.4904 27.2277 34.9683 27.8972 34.7472 27.6515C34.7595 27.5164 34.7349 27.3751 34.7472 27.24L36.1231 25.8948C36.5347 25.5016 36.3873 25.1576 36.6022 24.7215L36.7374 24.7891L36.7742 24.3407C36.6821 24.2977 35.7546 24.5741 36.0494 24.1687C36.0863 24.1196 36.6575 24.0827 36.7005 24.0643C36.7988 24.0336 37.4253 23.5114 37.4253 23.9291L37.4376 23.9353Z" fill="#E0E1E0"/>
<path d="M37.027 25.6552C37.9484 26.8776 39.7052 25.2437 38.6794 24.138C38.7531 24.1687 38.9804 24.1073 39.0602 24.138C39.4841 24.31 39.3674 25.6737 38.9251 25.9992C38.4828 26.3248 36.9103 26.4845 37.0332 25.6552H37.027Z" fill="#C4C6C7"/>
<path d="M37.4383 23.9353C37.4383 23.5176 36.8117 24.0398 36.7135 24.0705C36.6643 24.0889 36.0931 24.1258 36.0623 24.1749C35.7675 24.5803 36.695 24.3039 36.7872 24.3469L36.7503 24.7953L36.6152 24.7277C36.4002 25.1577 36.5415 25.5078 36.1361 25.9009L34.7601 27.2462C34.9935 24.482 35.4788 21.9513 35.4481 19.1196C35.4358 18.1245 35.7614 16.8407 34.5513 16.5029C34.5636 16.3616 34.4776 16.1834 34.4837 16.0913C37.1864 16.9083 38.0218 20.8149 37.7208 23.2842C37.6717 23.7019 37.641 23.6835 37.4444 23.9353H37.4383Z" fill="#FAFAFA"/>
<path d="M35.4419 19.1134C35.4726 21.939 34.9873 24.4758 34.7539 27.24C34.7416 27.3751 34.7662 27.5164 34.7539 27.6515C34.5574 30.0348 34.3915 32.4181 34.3424 34.8137C34.3362 34.8137 34.367 34.9489 34.3055 34.9489H30.3129C30.2576 34.9489 30.2883 34.8137 30.276 34.8137C30.1716 32.541 30.1409 30.2621 29.932 27.9955C29.932 27.9709 29.932 27.9464 29.932 27.9279C29.6495 24.8874 28.8817 21.7424 28.8325 18.7018L32.2416 24.3468L35.4419 19.1134Z" fill="url(#paint1_linear_6413_63498)"/>
<path d="M29.8638 16.5028C29.8822 16.6994 29.8638 16.8959 29.9313 17.0863L32.3085 22.6945C32.7876 20.9316 33.838 19.1502 34.3417 17.4303C34.4399 17.1048 34.5198 16.8468 34.5505 16.5028C35.7606 16.8345 35.435 18.1244 35.4473 19.1195L32.2471 24.353L28.838 18.708C28.8195 17.6699 28.5984 16.7731 29.8699 16.5028H29.8638Z" fill="#51BECF"/>
<path d="M36.6828 8.99662C36.8425 9.22389 36.7135 9.69687 36.6828 9.961C36.6828 10.52 35.9457 10.8947 35.786 11.1649C35.6263 11.4352 35.4543 12.2583 35.2332 12.6821C35.0489 13.0323 34.5513 13.3578 34.4776 13.7509C33.0587 14.7583 31.7196 15.7166 30.0734 14.4389C29.8707 14.2853 29.5636 13.6035 29.1766 13.5421C28.9125 13.1858 28.5562 12.7989 28.3535 12.4057C28.1078 11.9389 27.9727 11.1158 27.8007 10.821C27.7147 10.6735 27.4321 10.5753 27.3216 10.4401C27.168 10.176 26.7319 9.12561 26.8425 8.8922C26.9223 8.72635 27.0943 8.82463 27.1864 8.78777C26.6889 9.25461 27.2356 9.77058 27.5673 10.1637C27.7147 10.0716 27.3154 9.0519 27.4997 8.85534C27.5611 8.78777 29.0661 8.59735 29.3609 8.51136C31.0685 7.99539 32.684 7.04944 33.8388 5.68579C33.372 6.90201 33.63 7.6944 34.5943 8.51136C34.8708 8.74478 35.9703 9.23004 36.0071 9.30375C36.087 9.4696 35.8413 10.2804 35.9396 10.5445C36.3265 10.2313 36.4985 9.48188 36.6951 8.99662H36.6828Z" fill="#FCC392"/>
<path d="M36.6813 8.99667C36.4848 9.48193 36.3128 10.2313 35.9258 10.5446C35.8275 10.2805 36.0732 9.46964 35.9934 9.30379C35.9565 9.23008 34.857 8.74482 34.5806 8.5114C33.6162 7.70059 33.3582 6.90206 33.825 5.68584C32.6764 7.04948 31.0548 7.98929 29.3471 8.5114C29.0584 8.5974 27.5535 8.78782 27.4859 8.85539C27.3017 9.05195 27.7071 10.0716 27.5535 10.1637C27.2279 9.77063 26.6751 9.25465 27.1727 8.78782C27.7562 8.56669 27.2341 8.47455 27.5535 7.96472C30.0412 7.82344 32.6518 6.92049 34.0277 4.7276C34.1322 6.05439 34.5437 7.68216 35.6801 8.5114C35.8521 8.63425 36.5953 8.87996 36.6813 8.99052V8.99667Z" fill="#E8AE80"/>
<path d="M30.0726 14.4328C29.6795 14.7215 30.9018 15.8578 31.1414 16.0175C32.6402 17.0249 33.3711 15.4586 34.4829 14.7092C34.4645 15.1637 34.5014 15.6306 34.4829 16.0851C34.4829 16.1772 34.5628 16.3554 34.5505 16.4967C34.5259 16.8406 34.4399 17.0986 34.3417 17.4242C33.838 19.1502 32.7876 20.9254 32.3085 22.6883L29.9313 17.0802C29.8637 16.8898 29.8822 16.6932 29.8637 16.4967C29.8453 16.3369 29.876 16.1711 29.8637 16.0175C29.833 15.5876 29.9559 14.5802 29.8637 14.2608C29.8453 14.2055 29.2863 13.6895 29.1758 13.5359C29.5628 13.5974 29.8699 14.2731 30.0726 14.4328Z" fill="#FCC392"/>
<path d="M34.4766 13.7448C34.4275 13.9967 34.4889 14.4205 34.4766 14.7092C33.3709 15.4586 32.6338 17.0249 31.1351 16.0176C30.9016 15.8578 29.6731 14.7215 30.0663 14.4328C31.7125 15.7104 33.0577 14.7522 34.4705 13.7448H34.4766Z" fill="#E8AE80"/>
<path d="M37.9162 17.6024C37.6214 17.5717 37.001 16.982 36.6078 17.0864C38.0943 18.9476 38.4076 21.5152 38.0513 23.8309C38.0759 23.8923 38.5612 24.095 38.6717 24.138C39.6975 25.2376 37.9408 26.8776 37.0194 25.6553C37.0071 25.643 36.8843 25.3973 36.8843 25.3788C36.6201 24.4882 37.0563 24.439 37.4371 23.9353C37.6275 23.6774 37.6644 23.6958 37.7135 23.2842C38.0145 20.8088 37.1791 16.9083 34.4764 16.0913C34.4948 15.6368 34.458 15.1699 34.4764 14.7154C34.4887 14.4267 34.4272 14.0029 34.4764 13.751C34.5501 13.364 35.0476 13.0385 35.2319 12.6822C35.453 12.2584 35.6312 11.4291 35.7847 11.165C35.9383 10.9009 36.6816 10.52 36.6816 9.96106C36.4727 11.8775 36.9088 12.7928 37.0931 14.611C37.1361 15.0164 37.044 16.9083 37.0931 17.0188C37.1422 17.1417 37.9961 17.2891 37.9162 17.6024Z" fill="#273043"/>
<path d="M37.677 24.3469C38.7765 24.0889 38.7765 25.8457 37.677 25.5877C37.161 25.4648 37.161 24.4697 37.677 24.3469Z" fill="#A5AEAC"/>
<path d="M13.5656 14.5066C13.8175 14.8874 13.627 15.3297 13.6332 15.6798H11.1209L11.0165 15.8518V33.8187L22.6873 33.9907C22.8654 33.9108 22.7794 33.0325 22.7917 32.8175V16.0176L22.7549 15.6736H20.3101C20.3101 15.2989 20.1136 14.8813 20.3101 14.5004C20.863 14.5373 23.4735 14.3223 23.6148 14.74C23.6271 17.8972 23.6025 21.0545 23.6148 24.2056C23.6148 25.7167 23.6148 27.2339 23.6148 28.7511C23.6148 29.5988 23.6087 30.4526 23.6148 31.3003C23.6271 32.4919 23.6762 33.6897 23.6824 34.8814C19.1676 34.8814 14.6406 34.8814 10.1196 34.8814C9.94152 33.9231 10.0459 32.9465 10.0521 31.9882C10.0521 31.8531 10.0521 31.7118 10.0521 31.5767C10.0582 29.1012 10.0398 26.6196 10.0521 24.1442C10.0521 22.5594 10.0398 20.9747 10.0521 19.396C10.0521 18.8923 10.0459 18.3825 10.0521 17.8788C10.0644 17.0619 9.99066 16.1343 10.0521 15.3297C10.1749 13.7449 11.1086 14.8751 11.8088 14.5066C11.8396 14.4943 11.9501 14.5066 11.9501 14.5066C11.9501 14.5066 13.0374 14.5496 13.5656 14.5066Z" fill="#A2733D"/>
<path d="M20.2417 16.0176C20.2233 16.2326 20.254 16.4538 20.2417 16.6687L20.0697 16.7732C17.9321 16.724 15.7146 16.8776 13.6323 16.6687C13.6323 16.4538 13.6323 16.2326 13.6323 16.0176H20.2417Z" fill="#087B9F"/>
<path d="M16.9377 12.9893C17.0237 12.9893 17.1404 12.9771 17.2141 12.9893C18.1908 13.1552 18.0065 14.2486 18.0741 14.2977C18.1539 14.353 19.7694 14.2731 20.0704 14.2977C20.1134 14.2977 20.2178 14.5004 20.3099 14.5066C20.1134 14.8874 20.3099 15.3051 20.3099 15.6798C20.3099 15.7535 20.2485 15.9562 20.2424 16.0238H13.633C13.633 15.9071 13.633 15.7965 13.633 15.6798C13.6269 15.3297 13.8173 14.8935 13.5654 14.5066C13.762 14.4943 13.7251 14.3039 13.805 14.2977C14.1121 14.2731 15.7829 14.3591 15.8689 14.2977C16.004 14.2056 15.7276 13.0385 16.9377 12.9893Z" fill="#11A1CE"/>
<path d="M16.8325 13.401C17.7355 13.229 17.7908 14.7523 16.8325 14.5742C16.3043 14.4759 16.335 13.4992 16.8325 13.401Z" fill="#FAFAFA"/>
<path d="M13.6333 15.6736C13.6333 15.7904 13.6333 15.9009 13.6333 16.0176C13.6333 16.2326 13.6333 16.4537 13.6333 16.6687C15.7156 16.8714 17.9331 16.724 20.0707 16.7732L20.2427 16.6687C20.255 16.4537 20.2243 16.2265 20.2427 16.0176C20.2488 15.9501 20.3103 15.7474 20.3103 15.6736H22.755L22.7919 16.0176C22.7059 21.6073 23.0068 27.2278 22.7919 32.8175C22.7857 33.0325 22.8656 33.9108 22.6874 33.9907L11.0166 33.8187V15.8518L11.121 15.6798H13.6333V15.6736Z" fill="#EEF0EE"/>
<path d="M22.7849 32.8175C22.9999 27.2278 22.699 21.6135 22.7849 16.0176V32.8175Z" fill="#1B5F85"/>
<path d="M14.3576 21.3862H21.7225C21.7901 21.4169 21.8699 21.5766 21.8269 21.6258C21.5812 21.9145 15.1684 21.4784 14.29 21.6626L14.3576 21.3862Z" fill="#AEB0B2"/>
<path d="M14.2837 19.6663L21.8267 19.8383L14.3574 19.9427L14.2837 19.6663Z" fill="#AEB0B2"/>
<path d="M14.2837 24.3469L21.8267 24.5189L14.3574 24.6233L14.2837 24.3469Z" fill="#AEB0B2"/>
<path d="M14.3577 22.4181H21.5875L21.827 22.6576C20.8135 22.5164 14.7508 22.9586 14.2901 22.6945C14.198 22.6392 14.2717 22.4672 14.3577 22.4181Z" fill="#AEB0B2"/>
<path d="M14.3574 25.3788L21.8268 25.5508L14.3574 25.6552V25.3788Z" fill="#AEB0B2"/>
<path d="M14.3574 30.3359L21.8268 30.5079L14.3574 30.6123V30.3359Z" fill="#AEB0B2"/>
<path d="M14.3579 28.4133L21.8272 28.5853C20.9488 28.6037 14.6711 28.8924 14.3579 28.6897C14.3026 28.6529 14.3026 28.4502 14.3579 28.4133Z" fill="#AEB0B2"/>
<path d="M14.3574 31.3678H21.7223C21.7899 31.3985 21.8697 31.5582 21.8268 31.6074C21.5872 31.8961 15.2297 31.4599 14.3574 31.6442V31.3678Z" fill="#92979A"/>
<path d="M14.2837 27.3752L21.8267 27.5472L14.3574 27.6516L14.2837 27.3752Z" fill="#AEB0B2"/>
<path d="M14.3574 18.6344H18.1412L21.8268 18.8064L18.0061 18.8432L14.3574 18.6344Z" fill="#AEB0B2"/>
<path d="M12.0184 24.205L11.9839 25.8939L13.6727 25.9284L13.7072 24.2395L12.0184 24.205Z" fill="#71B4C9"/>
<path d="M12.3549 24.5557L13.3562 24.5926C13.4852 25.6061 13.3316 25.7228 12.3242 25.6245L12.3611 24.5557H12.3549Z" fill="#FAFAFA"/>
<path d="M12.0844 27.1724L13.6999 27.2031L13.663 28.8923L11.98 28.8555L12.0844 27.1724Z" fill="#71B4C9"/>
<path d="M12.355 27.5164L13.3562 27.5533L13.3193 28.6221C12.1953 28.7265 12.2321 28.5729 12.355 27.5226V27.5164Z" fill="#FAFAFA"/>
<path d="M12.0844 30.1331L13.6999 30.1638L13.663 31.853L11.98 31.8161L12.0844 30.1331Z" fill="#71B4C9"/>
<path d="M12.3549 30.4771L13.3562 30.5078L13.3193 31.5766L12.3242 31.5398L12.3549 30.4771Z" fill="#E0E1E0"/>
<path d="M12.0135 18.4234L11.979 20.1122L13.6679 20.1467L13.7023 18.4579L12.0135 18.4234Z" fill="#71B4C9"/>
<path d="M12.4965 18.7018C12.5702 18.6711 13.3257 18.7018 13.3564 18.7387C13.3257 18.9291 13.4178 19.7154 13.3196 19.8075C13.2581 19.8689 12.3859 19.8874 12.3183 19.7706C12.2507 19.6539 12.2692 18.7878 12.4903 18.7018H12.4965Z" fill="#FAFAFA"/>
<path d="M12.0844 21.3187L13.6999 21.3555L13.663 23.0386L11.98 22.9403L12.0844 21.3187Z" fill="#F5776E"/>
<path d="M12.4289 21.595C12.5149 21.5581 13.3933 21.595 13.4302 21.6994C13.7434 22.5594 13.1722 23.0938 12.3307 22.6638C12.3737 22.4611 12.2324 21.6871 12.4351 21.595H12.4289Z" fill="#FEDACF"/>
<path d="M58.5735 19.1135C58.6042 23.1737 58.6042 27.2401 58.5735 31.3003C58.5674 32.0743 58.7148 33.9478 58.5735 34.5682C58.5489 34.6664 58.2725 34.8384 58.2295 34.949C53.5981 34.949 48.9543 34.8814 44.3228 34.8814C44.3105 34.4944 44.3412 34.1013 44.3228 33.7082L57.302 33.6406L57.474 33.4686C57.4556 29.1873 57.4986 24.9059 57.474 20.6307C58.7639 20.8764 58.4629 20.084 58.4384 19.1135H58.5735Z" fill="#A2733D"/>
<path d="M42.3271 19.7338V21.1773C41.9463 20.5631 41.4426 20.1638 40.9512 19.6601V17.455C41.1354 17.6392 40.9696 18.5299 41.0187 18.6589C41.1109 18.9046 41.9033 19.4451 42.02 19.8628L42.3271 19.7277V19.7338Z" fill="#A2733D"/>
<path d="M58.6416 18.2903C58.6416 18.5237 58.5679 18.8431 58.574 19.1134H58.4389C58.4266 18.6404 58.3406 18.1797 58.3713 17.7006L57.4745 17.7375C57.4622 17.3382 57.5851 15.9193 57.3025 15.7411C56.9462 15.52 54.5936 15.7288 54.0347 15.7411C54.0531 15.5077 54.0777 14.4451 54.0347 14.2976C54.8516 14.4328 57.8123 14.0642 58.3344 14.4328C58.402 14.4819 58.5556 14.6723 58.574 14.7399C58.6846 15.1637 58.6354 17.633 58.6416 18.2841V18.2903Z" fill="#A2733D"/>
<path d="M58.4331 19.1135C58.4577 20.084 58.7587 20.8702 57.4688 20.6307C57.4688 19.6663 57.4933 18.7019 57.4688 17.7375L58.3656 17.7007C58.3348 18.1737 58.4208 18.6405 58.4331 19.1135Z" fill="#A2733D"/>
<path d="M45.6318 14.2977C45.8222 14.7645 45.6195 15.2743 45.6318 15.7412L42.3947 15.8456C42.2657 16.0114 42.3271 19.2363 42.3271 19.7338L42.02 19.8689C41.9094 19.4513 41.117 18.9046 41.0188 18.665C40.9696 18.536 41.1355 17.6453 40.9512 17.4611C40.9512 16.9267 40.8468 15.1023 40.9512 14.7399C40.9573 14.7154 41.3075 14.3714 41.332 14.3591C42.192 13.9967 44.778 14.5618 45.6318 14.2915V14.2977Z" fill="#A2733D"/>
<path d="M57.4693 17.7375C57.4938 18.6957 57.4693 19.6662 57.4693 20.6306C57.4938 24.912 57.4508 29.1933 57.4693 33.4685L57.2973 33.6405L44.3181 33.7081C44.1829 30.5938 43.8881 23.7203 42.3217 21.1773V19.7338C42.3217 19.2362 42.2603 16.0053 42.3893 15.8456L45.6264 15.7411C45.6264 15.8517 45.5957 16.3124 45.6633 16.3615H53.9926C54.0601 16.3124 54.0171 15.864 54.0294 15.7411C54.5884 15.7289 56.941 15.52 57.2973 15.7411C57.5798 15.9193 57.457 17.3382 57.4693 17.7375Z" fill="url(#paint2_linear_6413_63498)"/>
<path d="M53.3047 24.4882C53.6241 24.4882 54.2752 24.3469 53.9927 24.8322C52.8686 24.5742 44.6191 25.1823 44.3181 24.7953C44.2997 24.7769 44.3059 24.5926 44.355 24.5558C47.3341 24.6295 50.3256 24.4943 53.3047 24.4882Z" fill="#AEB0B2"/>
<path d="M45.5271 27.3751C48.236 27.1724 51.1905 27.5287 53.924 27.3751C53.9915 27.4059 54.0714 27.5656 54.0284 27.6147C53.7274 27.971 45.7851 27.3629 44.6979 27.7191C44.2925 27.3936 45.2691 27.3936 45.521 27.3751H45.5271Z" fill="#92979A"/>
<path d="M44.4216 23.1123C44.7901 22.8666 52.241 23.3027 53.3037 23.1123L53.3405 23.3518C52.2779 23.2229 44.7962 23.6283 44.4277 23.3887C44.3724 23.3518 44.3724 23.1491 44.4277 23.1123H44.4216Z" fill="#A5AEAC"/>
<path d="M44.7714 32.197C45.0356 32.0066 50.4963 32.3445 51.3132 32.197L51.4177 32.4366C50.6376 32.4673 45.0479 32.7314 44.7714 32.541C44.7162 32.498 44.7162 32.2339 44.7714 32.197Z" fill="#92979A"/>
<path d="M48.5554 20.4955H55.9878C56.0554 20.5263 56.1353 20.686 56.0923 20.7351C55.8466 21.0238 49.3723 20.5815 48.4878 20.772L48.5554 20.4955Z" fill="#A5AEAC"/>
<path d="M48.4882 18.8432C48.7954 18.6405 54.9011 18.9967 55.7856 18.8432L55.8224 19.0827C54.9441 18.9844 48.7954 19.3161 48.4882 19.1196C48.433 19.0827 48.433 18.88 48.4882 18.8432Z" fill="#C4C6C7"/>
<path d="M44.7714 28.6159C45.0663 28.4194 50.8771 28.7634 51.7248 28.6159C51.7924 28.6467 51.8722 28.8064 51.8292 28.8555C51.6019 29.1258 45.6007 28.7204 44.7714 28.8924C44.7162 28.8555 44.7162 28.6528 44.7714 28.6159Z" fill="#92979A"/>
<path d="M44.7717 29.8568C45.0665 29.6602 50.8159 30.0042 51.6574 29.8568L51.6943 30.0963C50.865 30.0103 45.0665 30.3236 44.7778 30.1332C44.7225 30.0963 44.7225 29.8936 44.7778 29.8568H44.7717Z" fill="#92979A"/>
<path d="M44.8394 31.0237L51.4119 31.1957C50.5827 31.2264 45.1158 31.4967 44.7657 31.3002C44.6736 31.2449 44.7473 31.0729 44.8333 31.0237H44.8394Z" fill="#92979A"/>
<path d="M48.4879 21.8039L53.3405 21.9759C52.5358 21.9882 49.0837 22.3014 48.5554 22.0803C48.4694 22.0435 48.3957 21.8592 48.4879 21.8039Z" fill="#AEB0B2"/>
<path d="M52.9599 28.7572C53.4452 28.6466 55.8776 28.6466 56.0926 29.138C56.1786 29.3285 56.2216 31.8039 56.1602 32.0312C56.1418 32.111 55.9268 32.3629 55.8531 32.412C55.4661 32.6516 52.7572 32.7192 52.5115 32.1725C52.3948 31.9083 52.3702 29.3039 52.5115 29.0766C52.5607 28.9968 52.8801 28.7818 52.9599 28.7695V28.7572Z" fill="#CE060A"/>
<path d="M54.0656 29.5127C54.0656 29.5127 54.5508 29.5004 54.5816 29.5495C54.4403 30.8395 54.8825 30.1331 55.3739 30.3419C55.7425 31.2449 54.7167 30.6982 54.5816 30.993C54.514 31.1404 54.6921 31.6871 54.4771 31.7854C53.8015 32.0987 54.1577 30.993 53.9243 30.8886C53.7953 30.8333 53.2056 30.9562 53.1319 30.8517C52.6774 30.2191 53.9857 30.3542 54.0287 30.2989C54.084 30.2252 53.9612 29.5802 54.0656 29.5065V29.5127Z" fill="#FAFAFA"/>
<path d="M47.5543 21.251C47.1305 20.6982 47.8983 19.7031 46.7312 20.0102C46.8356 19.4267 46.1784 19.7707 45.9388 19.6662C45.6256 19.5249 46.1968 18.4623 45.3184 18.7018C45.0359 19.5741 45.5641 19.7707 44.3541 19.6662L44.3909 20.2191C44.1759 20.2252 43.8258 20.4279 43.5678 20.3542C43.5432 19.7829 43.3958 18.2412 43.9486 18.0139C44.4708 17.7989 47.2472 17.7743 47.4929 18.4623C47.5543 18.6281 47.5912 20.9992 47.5605 21.251H47.5543Z" fill="#CE060A"/>
<path d="M47.5547 21.2511C47.524 21.4722 47.2721 21.8776 47.0387 21.9391C46.8913 21.9759 44.1578 21.9759 44.0104 21.9391C43.3962 21.7855 43.5805 20.8211 43.562 20.3543C43.8262 20.428 44.1763 20.2253 44.3851 20.2192C45.3188 20.1884 45.2389 20.2069 45.2082 21.1467C46.1112 21.4661 45.6812 20.5201 45.8286 20.3236C45.8532 20.2867 46.5227 20.2622 46.6886 20.2192C46.75 20.2007 46.7132 20.0165 46.7254 20.0103C47.8987 19.7032 47.1247 20.6921 47.5485 21.2511H47.5547Z" fill="#CE060A"/>
<path d="M46.7312 20.0103C46.7312 20.0103 46.7619 20.2007 46.6943 20.2191C46.5285 20.2621 45.8589 20.2867 45.8344 20.3235C45.6931 20.5262 46.1169 21.466 45.214 21.1466C45.2385 20.2068 45.3245 20.1884 44.3909 20.2191L44.354 19.6663C45.5641 19.7707 45.0358 19.5741 45.3184 18.7019C46.1968 18.4623 45.6255 19.525 45.9388 19.6663C46.1783 19.7707 46.8356 19.4267 46.7312 20.0103Z" fill="#FAFAFA"/>
<path d="M50.4471 11.8161C51.651 12.0802 52.296 13.6036 52.4803 13.6773C52.8611 13.8247 53.7948 13.4992 54.0282 14.2977C54.0712 14.4451 54.0466 15.5139 54.0282 15.7412C54.0221 15.8579 54.0651 16.3125 53.9914 16.3616H45.6621C45.5945 16.3125 45.6314 15.8518 45.6252 15.7412C45.6129 15.2744 45.8156 14.7645 45.6252 14.2977C45.6989 14.2731 45.9692 13.8247 46.2088 13.7449C46.35 13.7019 47.0441 13.7449 47.1731 13.6773C47.4557 13.5237 48.0331 12.0864 49.065 11.8161C49.5134 11.6994 49.9926 11.7178 50.441 11.8161H50.4471Z" fill="#11A1CE"/>
<path d="M46.0065 14.3653H53.783C53.8812 14.4329 53.8014 15.256 53.6478 15.3297H46.1416C45.9512 15.3297 45.8161 14.4513 46.0065 14.3653Z" fill="#80DAF6"/>
<path d="M50.5884 12.7129H50.5209C50.355 12.117 49.8329 12.5593 49.4213 12.4364C49.3661 12.4364 49.3415 12.4856 49.2862 12.504C48.5798 12.7497 48.6597 13.7755 48.0147 14.0888C47.7813 13.2657 48.9054 12.0986 49.667 12.0249C50.5516 11.9389 51.8784 13.1367 51.5958 14.0212L50.5946 12.7129H50.5884Z" fill="#80DAF6"/>
<path d="M50.5157 12.7129H50.5833C50.958 14.3653 48.4088 14.0213 49.2749 12.5041C49.3363 12.4857 49.3548 12.4427 49.4101 12.4365C49.0477 13.5483 50.2639 13.9046 50.5096 12.7129H50.5157Z" fill="#FAFAFA"/>
<path d="M50.5151 12.713C50.2694 13.9046 49.0531 13.5483 49.4156 12.4365C49.8332 12.5594 50.3492 12.1171 50.5151 12.713Z" fill="#80DAF6"/>
<path d="M49.7963 12.8542C50.0423 12.7619 50.1407 13.1925 49.9316 13.2663C49.7901 13.3155 49.5564 12.9403 49.7963 12.8542Z" fill="#FAFAFA"/>
<path d="M61.49 27.1725C61.4654 29.2487 61.7603 32.4858 61.4224 34.4023C61.4224 34.4084 61.3917 34.4023 61.3549 34.5374L60.9433 34.8814C59.5981 34.8814 58.2345 34.949 56.8831 34.949C56.2627 34.5251 56.3118 34.089 56.2627 33.4317L56.3978 30.9195L56.6742 31.159C56.6865 31.9637 56.361 34.3347 57.2578 34.5313C57.4543 34.5743 60.3905 34.5743 60.5625 34.5313C60.716 34.4944 61.0416 34.1259 61.0784 33.9477C61.2627 33.0939 61.1276 30.3175 61.146 29.2303C61.146 28.8863 61.0723 28.5116 61.0784 28.1983C61.0784 27.8236 61.146 27.4182 61.146 27.0251C61.2566 27.0804 61.3487 26.8224 61.3549 26.7855C61.4716 26.0546 61.189 24.6541 61.3549 24.0337C61.4347 23.7265 62.0305 23.7511 61.6988 23.1737C62.4359 23.3764 61.5146 23.9108 61.49 23.9661C61.404 24.1688 61.49 26.6934 61.49 27.1664V27.1725Z" fill="#CDECF3"/>
<path d="M61.6976 23.1798C62.0293 23.7572 61.4335 23.7327 61.3536 24.0398C61.1878 24.6602 61.4703 26.0668 61.3536 26.7916C61.3475 26.8346 61.2615 27.0865 61.1448 27.0312C61.1509 25.9071 61.0895 24.7769 61.2123 23.6589C61.2246 23.5484 61.458 23.6282 61.2492 23.4501L56.4273 23.5177C56.3597 23.6159 56.5931 23.7142 56.5993 23.7265C56.8204 24.4452 56.6607 26.6258 56.6669 27.5103C56.6669 27.6025 56.6669 27.6946 56.6669 27.7867C56.6669 27.9894 56.7344 28.229 56.7344 28.3396C56.7344 28.6037 56.6607 28.9354 56.6669 29.2364C56.6669 29.8752 56.6607 30.5202 56.6669 31.1651L56.3904 30.9256L56.2553 33.4379C56.1693 32.2831 56.2676 30.9686 56.2553 29.7892C56.243 28.8494 56.4334 24.482 56.2553 23.9722C56.2184 23.8616 55.727 23.7449 55.9113 23.2843C55.9912 23.1061 57.1153 23.186 57.3548 23.1798C57.49 23.1798 57.6312 23.1798 57.7664 23.1798C58.4666 23.1675 59.2099 23.1061 59.8978 23.1123C60.377 23.1123 61.2553 23.0631 61.6853 23.1798H61.6976Z" fill="#CDECF3"/>
<path d="M61.2116 23.6589C61.0827 24.7769 61.1502 25.9132 61.1441 27.0312C61.1441 27.4182 61.0765 27.8297 61.0765 28.2044H59.9033V27.8604C60.0814 27.8604 60.9045 27.9341 60.9352 27.756C60.6772 27.5103 60.2227 27.4796 59.9033 27.4489L59.7989 24.0766L59.762 27.4489C59.0495 27.3936 58.2079 27.4427 57.4893 27.5165C57.4893 27.4735 57.4893 27.4243 57.4893 27.3813C57.5445 26.3064 57.4585 25.1331 57.6244 24.0766C57.6428 23.9538 57.5937 23.8555 57.692 23.7326C58.8652 23.7326 60.0323 23.7511 61.2055 23.6651L61.2116 23.6589Z" fill="#CDECF3"/>
<path d="M61.078 28.2044C61.078 28.5177 61.1517 28.8924 61.1456 29.2364C60.7709 29.1872 60.2733 29.1012 59.9048 29.1012V28.2044H61.078Z" fill="#A7E3E4"/>
<path d="M57.7047 23.7265C57.6003 23.8493 57.6556 23.9476 57.6371 24.0705C57.3546 24.0889 57.5634 24.6172 57.502 24.7216C57.459 24.7891 57.2072 24.7031 57.158 24.8567C57.1212 24.9673 57.201 27.0865 57.2256 27.197C57.2686 27.3752 57.3361 27.3874 57.502 27.369C57.502 27.412 57.502 27.4611 57.502 27.5041C57.502 27.5963 57.502 27.6884 57.502 27.7806V28.2597C57.3546 28.2658 57.2379 28.3272 57.2256 28.3272C57.072 28.3457 56.9 28.315 56.7465 28.3272C56.7465 28.2167 56.6789 27.9771 56.6789 27.7744C57.4099 27.8543 57.459 27.3936 56.6789 27.498C56.6789 26.6073 56.8325 24.4329 56.6113 23.7142C56.9799 23.6773 57.3484 23.7142 57.7108 23.7142L57.7047 23.7265Z" fill="#CDECF3"/>
<path d="M61.2131 23.6589C60.046 23.7449 58.8728 23.7326 57.6995 23.7264C57.331 23.7264 56.9686 23.6896 56.6 23.7264C56.6 23.7141 56.3605 23.6159 56.428 23.5176L61.2499 23.45C61.4649 23.622 61.2315 23.5422 61.2131 23.6589Z" fill="#94D0DE"/>
<path d="M57.2203 28.3396L57.2879 29.1627C57.079 29.1811 56.8825 29.2425 56.6675 29.2302C56.6675 28.9293 56.735 28.5976 56.735 28.3334C56.8948 28.3212 57.0606 28.3519 57.2142 28.3334L57.2203 28.3396Z" fill="#7BD0D3"/>
<path d="M56.6733 27.7933C56.6733 27.7011 56.6733 27.6088 56.6733 27.5165C57.4545 27.412 57.4053 27.8733 56.6733 27.7933Z" fill="#94D0DE"/>
<path d="M59.701 28.2044C59.6703 28.4931 59.7256 28.8064 59.701 29.1012C58.9394 29.1012 58.0425 29.1012 57.2932 29.1688L57.2256 28.3457C57.2256 28.3457 57.3484 28.2843 57.502 28.2781C58.233 28.2474 58.9762 28.3457 59.7072 28.2105L59.701 28.2044Z" fill="#A7E3E4"/>
<path d="M59.904 27.8604V29.1012C59.8364 29.1012 59.7627 29.1012 59.6951 29.1012C59.7197 28.8125 59.6644 28.4931 59.6951 28.2044C59.6951 28.186 59.8302 27.9833 59.7627 27.8604C59.8057 27.8604 59.8548 27.8604 59.8978 27.8604H59.904Z" fill="#65BDAA"/>
<path d="M59.7011 29.1012C59.7687 29.1012 59.8424 29.1012 59.91 29.1012C60.2785 29.1012 60.7761 29.1872 61.1508 29.2363C61.1323 30.3236 61.2675 33.1 61.0832 33.9538C61.0463 34.1381 60.7208 34.5005 60.5672 34.5373C60.3952 34.5803 57.4591 34.5803 57.2625 34.5373C56.3596 34.3408 56.6913 31.9636 56.679 31.1651C56.6729 30.5263 56.679 29.8813 56.679 29.2363C56.894 29.2486 57.0905 29.1872 57.2994 29.1688C58.0488 29.1012 58.9517 29.1012 59.7073 29.1012H59.7011Z" fill="url(#paint3_linear_6413_63498)"/>
<path d="M58.1531 30.6799C58.6323 30.5632 58.749 31.3371 58.362 31.4354C57.803 31.5767 57.803 30.7597 58.1531 30.6799Z" fill="#DEEEF2"/>
<path d="M57.1159 32.197C57.485 32.0248 57.6572 32.7506 57.2512 32.7506C57.0052 32.7506 56.9068 32.2954 57.1159 32.197Z" fill="#DEEEF2"/>
<path d="M60.4941 30.7535C60.7156 30.7535 60.8509 31.1349 60.6295 31.2333C60.1989 31.4363 60.1251 30.7535 60.4941 30.7535Z" fill="#DEEEF2"/>
<path d="M57.8037 33.0939C58.222 32.9709 58.2651 33.5552 57.9391 33.5737C57.7238 33.586 57.5023 33.18 57.8037 33.0939Z" fill="#DEEEF2"/>
<path d="M60.3521 29.4453C60.5236 29.4514 60.5174 29.782 60.3521 29.7881C60.1378 29.7942 60.1378 29.433 60.3521 29.4453Z" fill="#BEDAE2"/>
<path d="M58.0128 31.9206C58.2404 31.8222 58.1973 32.1236 58.0805 32.1298C58.0436 32.1298 57.9144 31.9637 58.0128 31.9206Z" fill="#FAFAFA"/>
<path d="M60.0083 33.1615C60.1436 33.0938 60.2174 33.3767 60.0759 33.3706C59.9221 33.3644 59.9406 33.1984 60.0083 33.1615Z" fill="#FAFAFA"/>
<path d="M59.7688 27.4488C59.8118 27.4488 59.861 27.4488 59.904 27.4488C60.2234 27.4795 60.6841 27.5164 60.9359 27.756C60.9052 27.9341 60.0821 27.8542 59.904 27.8604C59.861 27.8604 59.8118 27.8604 59.7688 27.8604C59.0072 27.8788 58.2516 27.8358 57.4961 27.7928C57.4961 27.7007 57.4961 27.6085 57.4961 27.5164C58.2086 27.4427 59.0563 27.3935 59.7688 27.4488Z" fill="#94D0DE"/>
<path d="M57.6313 24.0704C57.4593 25.127 57.5514 26.3002 57.4962 27.3751C57.3303 27.3935 57.2627 27.3751 57.2197 27.2031C57.189 27.0926 57.1153 24.9734 57.1522 24.8628C57.2013 24.7093 57.4532 24.7953 57.4962 24.7277C57.5637 24.6171 57.3487 24.095 57.6313 24.0766V24.0704Z" fill="#F8FEFF"/>
<path d="M59.9042 27.4488C59.8612 27.4488 59.812 27.4488 59.769 27.4488L59.8059 24.0765L59.9103 27.4488H59.9042Z" fill="#94D0DE"/>
<path d="M59.7688 27.8604C59.8364 27.9833 59.7013 28.186 59.7013 28.2044C58.9703 28.3395 58.2332 28.2413 57.4961 28.272V27.7928C58.2516 27.8358 59.0072 27.8788 59.7688 27.8604Z" fill="#CDECF3"/>
<rect x="13.9604" y="14.8074" width="5.9541" height="0.622864" rx="0.311432" fill="#80DAF6"/>
<defs>
<linearGradient id="paint0_linear_6413_63498" x1="25.6624" y1="8.59749" x2="39.219" y2="11.724" gradientUnits="userSpaceOnUse">
<stop stop-color="#3C495E"/>
<stop offset="1" stop-color="#2F3D57"/>
</linearGradient>
<linearGradient id="paint1_linear_6413_63498" x1="32.2601" y1="21.681" x2="32.8436" y2="34.1995" gradientUnits="userSpaceOnUse">
<stop stop-color="#4D97A4"/>
<stop offset="1" stop-color="#265774"/>
</linearGradient>
<linearGradient id="paint2_linear_6413_63498" x1="50.8476" y1="15.6367" x2="49.1031" y2="32.6208" gradientUnits="userSpaceOnUse">
<stop stop-color="#FAFAFA"/>
<stop offset="1" stop-color="#EEF0EE"/>
</linearGradient>
<linearGradient id="paint3_linear_6413_63498" x1="58.1901" y1="29.6172" x2="59.7441" y2="33.6651" gradientUnits="userSpaceOnUse">
<stop stop-color="#4CBCCA"/>
<stop offset="1" stop-color="#15889F"/>
</linearGradient>
</defs>
</svg>
