<svg width="32" height="32" viewBox="0 0 32 32" fill="none" xmlns="http://www.w3.org/2000/svg">
<mask id="path-1-outside-1_6413_76431" maskUnits="userSpaceOnUse" x="-0.5" y="4" width="33" height="25" fill="black">
<rect fill="white" x="-0.5" y="4" width="33" height="25"/>
<path d="M4.193 13.854H3.984C4.01333 13.524 4.20767 12.556 4.567 10.95C4.92633 9.33667 5.15 8.13033 5.238 7.331C5.238 7.21367 5.19767 7.07433 5.117 6.913C5.04367 6.74433 4.96667 6.60867 4.886 6.506L4.776 6.352L4.809 6.187C5.21967 6.06233 5.92733 6 6.932 6C7.02733 6.176 7.075 6.34833 7.075 6.517C7.075 6.68567 7.06033 6.89467 7.031 7.144C7.94767 6.38133 8.69567 6 9.275 6C9.65633 6 9.96433 6.12467 10.199 6.374C10.4337 6.62333 10.551 6.97167 10.551 7.419C10.551 7.86633 10.3933 8.72067 10.078 9.982C9.77 11.236 9.616 12.1123 9.616 12.611C9.616 12.8237 9.65267 12.93 9.726 12.93C9.792 12.93 9.97533 12.8567 10.276 12.71L10.419 12.644L10.639 13.051C10.331 13.315 10.012 13.5313 9.682 13.7C9.352 13.8613 9.05133 13.942 8.78 13.942C8.516 13.942 8.29967 13.8467 8.131 13.656C7.96233 13.458 7.878 13.194 7.878 12.864C7.878 12.5267 8.02833 11.6943 8.329 10.367C8.637 9.03967 8.791 8.19267 8.791 7.826C8.791 7.45933 8.648 7.276 8.362 7.276C7.92933 7.276 7.438 7.49233 6.888 7.925C6.80733 8.31367 6.657 8.96267 6.437 9.872C5.953 11.874 5.711 13.128 5.711 13.634C5.425 13.7807 4.919 13.854 4.193 13.854Z"/>
<path d="M11.0585 11.907C11.0585 10.9903 11.3335 10.268 11.8835 9.74C12.4408 9.20467 13.0715 8.937 13.7755 8.937C14.2081 8.937 14.5638 9.04333 14.8425 9.256C15.1211 9.46867 15.2605 9.75467 15.2605 10.114C15.2605 10.466 15.1688 10.763 14.9855 11.005C14.8095 11.247 14.5931 11.434 14.3365 11.566C13.8158 11.8227 13.3391 11.984 12.9065 12.05L12.6425 12.083C12.6938 12.7723 12.9761 13.117 13.4895 13.117C13.6655 13.117 13.8525 13.073 14.0505 12.985C14.2485 12.897 14.4025 12.809 14.5125 12.721L14.6775 12.589L14.9415 12.941C14.8828 13.0217 14.7655 13.128 14.5895 13.26C14.4135 13.392 14.2485 13.502 14.0945 13.59C13.6691 13.8247 13.2035 13.942 12.6975 13.942C12.1915 13.942 11.7918 13.7623 11.4985 13.403C11.2051 13.0437 11.0585 12.545 11.0585 11.907ZM12.6315 11.544C13.0055 11.478 13.3025 11.3203 13.5225 11.071C13.7425 10.8217 13.8525 10.499 13.8525 10.103C13.8525 9.707 13.7351 9.509 13.5005 9.509C13.2218 9.509 13.0055 9.74733 12.8515 10.224C12.7048 10.6933 12.6315 11.1333 12.6315 11.544Z"/>
<path d="M15.738 12.908L15.859 10.037C15.859 9.78767 15.727 9.531 15.463 9.267L15.485 9.135C15.5363 9.12033 15.584 9.10933 15.628 9.102C15.6793 9.08733 15.7343 9.07267 15.793 9.058C15.859 9.04333 15.9323 9.02867 16.013 9.014C16.0937 8.99933 16.178 8.98467 16.266 8.97C16.4713 8.948 16.662 8.937 16.838 8.937C17.0213 8.937 17.1753 9.01033 17.3 9.157C17.432 9.30367 17.498 9.53833 17.498 9.861C17.498 10.1763 17.4467 10.631 17.344 11.225C17.2487 11.8117 17.201 12.2517 17.201 12.545C17.201 12.831 17.2707 12.974 17.41 12.974C17.6373 12.974 17.8867 12.831 18.158 12.545C18.1653 12.4277 18.213 12.0537 18.301 11.423C18.389 10.7923 18.433 10.334 18.433 10.048C18.433 9.762 18.411 9.51633 18.367 9.311C18.9317 9.09833 19.4377 8.992 19.885 8.992C19.9803 9.058 20.028 9.27433 20.028 9.641C20.028 10.0003 19.9657 10.5027 19.841 11.148C19.7163 11.786 19.654 12.2517 19.654 12.545C19.654 12.831 19.7127 12.974 19.83 12.974C20.1087 12.974 20.413 12.7687 20.743 12.358C21.073 11.94 21.249 11.5917 21.271 11.313L20.523 10.477C20.5523 10.1617 20.6293 9.87567 20.754 9.619C20.8787 9.36233 20.996 9.18267 21.106 9.08L21.26 8.937C21.5753 8.937 21.8137 9.02133 21.975 9.19C22.1363 9.35867 22.217 9.55667 22.217 9.784C22.217 10.3633 22.074 10.9757 21.788 11.621C21.502 12.2663 21.117 12.8163 20.633 13.271C20.149 13.7183 19.6577 13.942 19.159 13.942C18.9097 13.942 18.697 13.8723 18.521 13.733C18.3523 13.5863 18.2387 13.3993 18.18 13.172C17.6667 13.6853 17.168 13.942 16.684 13.942C16.3613 13.942 16.123 13.843 15.969 13.645C15.815 13.4397 15.738 13.194 15.738 12.908Z"/>
<path d="M12.449 25.812C12.1337 26.01 11.8513 26.1347 11.602 26.186C11.36 26.2447 11.096 26.274 10.81 26.274C10.524 26.274 10.2783 26.1897 10.073 26.021C9.875 25.8523 9.776 25.6287 9.776 25.35C9.776 25.0713 9.86767 24.8183 10.051 24.591C10.2417 24.3637 10.469 24.184 10.733 24.052C11.2683 23.7733 11.756 23.59 12.196 23.502L12.482 23.447C12.4893 23.4177 12.5333 23.271 12.614 23.007C12.6947 22.743 12.7533 22.5377 12.79 22.391C11.8587 22.9483 11.0923 23.227 10.491 23.227C10.1317 23.227 9.83467 23.1133 9.6 22.886C9.36533 22.6513 9.248 22.3213 9.248 21.896C9.248 21.4633 9.38733 20.6897 9.666 19.575C9.94467 18.453 10.084 17.705 10.084 17.331C10.084 17.089 9.974 16.814 9.754 16.506L9.644 16.352L9.677 16.187C10.117 16.0623 10.7953 16 11.712 16C11.8147 16.22 11.866 16.517 11.866 16.891C11.866 17.265 11.7267 18.057 11.448 19.267C11.1693 20.4697 11.03 21.1663 11.03 21.357C11.03 21.7457 11.162 21.94 11.426 21.94C11.9247 21.94 12.4563 21.797 13.021 21.511C13.4683 19.6703 13.7727 17.9323 13.934 16.297C14.308 16.1063 14.8213 16.011 15.474 16.011H15.683C15.683 16.3997 15.617 16.9387 15.485 17.628C15.3163 18.5007 15.056 19.8207 14.704 21.588C14.55 22.38 14.3483 23.073 14.099 23.667C13.8497 24.2537 13.593 24.7083 13.329 25.031C13.065 25.3537 12.7717 25.614 12.449 25.812ZM10.81 25.537C11.0667 25.537 11.3343 25.394 11.613 25.108C11.8917 24.8293 12.119 24.4957 12.295 24.107C11.9503 24.1437 11.5617 24.2757 11.129 24.503C10.7037 24.7377 10.491 24.976 10.491 25.218C10.491 25.306 10.5203 25.3793 10.579 25.438C10.645 25.504 10.722 25.537 10.81 25.537Z"/>
<path d="M15.8329 21.907C15.8329 20.9903 16.1079 20.268 16.6579 19.74C17.2152 19.2047 17.8459 18.937 18.5499 18.937C18.9825 18.937 19.3382 19.0433 19.6169 19.256C19.8955 19.4687 20.0349 19.7547 20.0349 20.114C20.0349 20.466 19.9432 20.763 19.7599 21.005C19.5839 21.247 19.3675 21.434 19.1109 21.566C18.5902 21.8227 18.1135 21.984 17.6809 22.05L17.4169 22.083C17.4682 22.7723 17.7505 23.117 18.2639 23.117C18.4399 23.117 18.6269 23.073 18.8249 22.985C19.0229 22.897 19.1769 22.809 19.2869 22.721L19.4519 22.589L19.7159 22.941C19.6572 23.0217 19.5399 23.128 19.3639 23.26C19.1879 23.392 19.0229 23.502 18.8689 23.59C18.4435 23.8247 17.9779 23.942 17.4719 23.942C16.9659 23.942 16.5662 23.7623 16.2729 23.403C15.9795 23.0437 15.8329 22.545 15.8329 21.907ZM17.4059 21.544C17.7799 21.478 18.0769 21.3203 18.2969 21.071C18.5169 20.8217 18.6269 20.499 18.6269 20.103C18.6269 19.707 18.5095 19.509 18.2749 19.509C17.9962 19.509 17.7799 19.7473 17.6259 20.224C17.4792 20.6933 17.4059 21.1333 17.4059 21.544Z"/>
<path d="M23.5484 19.256C23.5631 19.2413 23.6034 19.146 23.6694 18.97C24.0141 18.97 24.4761 19.0727 25.0554 19.278C24.8721 19.8867 24.7254 20.5247 24.6154 21.192C24.5054 21.852 24.4504 22.325 24.4504 22.611C24.4504 22.8897 24.4798 23.029 24.5384 23.029C24.5824 23.029 24.7438 22.9593 25.0224 22.82L25.1544 22.754L25.3524 23.139C25.2864 23.1977 25.1984 23.271 25.0884 23.359C24.9858 23.447 24.7878 23.568 24.4944 23.722C24.2011 23.8687 23.9371 23.942 23.7024 23.942C23.2478 23.942 22.9838 23.7367 22.9104 23.326C22.4411 23.7367 22.0158 23.942 21.6344 23.942C21.2604 23.942 20.9414 23.7953 20.6774 23.502C20.4208 23.2087 20.2924 22.7467 20.2924 22.116C20.2924 21.1333 20.4941 20.3597 20.8974 19.795C21.3008 19.223 21.7884 18.937 22.3604 18.937C22.7711 18.937 23.1671 19.0433 23.5484 19.256ZM22.2944 23.007C22.4704 23.007 22.6684 22.9373 22.8884 22.798C22.9398 21.764 23.1121 20.741 23.4054 19.729C23.1854 19.6337 22.9984 19.586 22.8444 19.586C22.5804 19.586 22.3531 19.8463 22.1624 20.367C21.9791 20.8803 21.8874 21.4487 21.8874 22.072C21.8874 22.6953 22.0231 23.007 22.2944 23.007Z"/>
<path d="M25.7756 23.843H25.6986C25.6839 23.7843 25.6766 23.6523 25.6766 23.447C25.6766 23.2343 25.7756 22.6697 25.9736 21.753C26.1716 20.8363 26.2706 20.312 26.2706 20.18C26.2706 19.9527 26.1679 19.7033 25.9626 19.432L25.8636 19.3L25.8746 19.157C26.2706 19.047 26.9049 18.992 27.7776 18.992C27.8656 19.1827 27.9096 19.4503 27.9096 19.795C27.9903 19.663 28.1589 19.487 28.4156 19.267C28.6723 19.047 28.9363 18.937 29.2076 18.937C29.6036 18.937 29.8016 19.2817 29.8016 19.971C29.7649 20.015 29.7136 20.0737 29.6476 20.147C29.5889 20.213 29.4643 20.3083 29.2736 20.433C29.0903 20.5577 28.9106 20.6347 28.7346 20.664C28.7273 20.664 28.6649 20.565 28.5476 20.367C28.4303 20.169 28.3423 20.07 28.2836 20.07C28.1003 20.136 27.9389 20.246 27.7996 20.4C27.4623 21.918 27.2936 22.9007 27.2936 23.348C27.2936 23.5093 27.2973 23.623 27.3046 23.689C27.0479 23.7917 26.5383 23.843 25.7756 23.843Z"/>
<path d="M6.31402 21.2857C6.01115 21.5231 5.68189 21.5428 5.35705 21.2903C4.71648 20.7912 4.26084 20.1396 3.97802 19.3834C3.81007 18.9345 3.91923 18.4851 4.17133 18.0805C4.30494 17.8661 4.50568 17.7718 4.75317 17.8242C4.9922 17.8762 4.94596 18.095 4.96398 18.2579C5.08097 19.3489 5.57145 20.2732 6.22781 21.1259C6.26496 21.1757 6.3214 21.2119 6.31384 21.2843L6.31402 21.2857Z"/>
<path d="M23.7792 10.2857C24.082 10.5231 24.4113 10.5428 24.7361 10.2903C25.3767 9.79118 25.8323 9.13964 26.1152 8.38338C26.2831 7.93447 26.174 7.48511 25.9219 7.08051C25.7882 6.86605 25.5875 6.77182 25.34 6.82418C25.101 6.87623 25.1472 7.09496 25.1292 7.25785C25.0122 8.34885 24.5217 9.27316 23.8654 10.1259C23.8282 10.1757 23.7718 10.2119 23.7793 10.2843L23.7792 10.2857Z"/>
<path d="M6.59318 23.9978C6.37245 23.6825 6.06312 23.568 5.67891 23.7152C4.92092 24.0066 4.29555 24.4975 3.80514 25.1389C3.51394 25.5197 3.48779 25.9813 3.6114 26.4417C3.67689 26.6858 3.84158 26.8343 4.09359 26.8561C4.33746 26.8758 4.35678 26.6531 4.42136 26.5025C4.85042 25.4926 5.5884 24.7508 6.46427 24.1256C6.51431 24.0887 6.57883 24.0705 6.59264 23.9991L6.59318 23.9978Z"/>
<path d="M23.5 12.9978C23.7207 12.6825 24.0301 12.568 24.4143 12.7152C25.1723 13.0066 25.7976 13.4975 26.288 14.1389C26.5792 14.5197 26.6054 14.9813 26.4818 15.4417C26.4163 15.6858 26.2516 15.8343 25.9996 15.8561C25.7557 15.8758 25.7364 15.6531 25.6718 15.5025C25.2428 14.4926 24.5048 13.7508 23.6289 13.1256C23.5789 13.0887 23.5144 13.0705 23.5005 12.9991L23.5 12.9978Z"/>
<path d="M6.23938 22.2011C6.19233 22.5669 5.96882 22.7131 5.73418 22.8271C4.79842 23.2826 3.19796 22.7871 2.67602 21.8907C2.58638 21.7369 2.50963 21.5745 2.50088 21.3964C2.48792 21.1307 2.61865 20.9376 2.84913 20.813C3.0677 20.694 3.20987 20.8425 3.34183 20.9768C3.70059 21.3412 4.11318 21.623 4.56922 21.8503C5.08356 22.1066 5.61009 22.2941 6.2406 22.1996L6.23938 22.2011Z"/>
<path d="M23.8538 11.2011C23.9009 11.5669 24.1244 11.7131 24.359 11.8271C25.2948 12.2826 26.8952 11.7871 27.4172 10.8907C27.5068 10.7369 27.5836 10.5745 27.5923 10.3964C27.6053 10.1307 27.4745 9.93762 27.2441 9.81298C27.0255 9.69403 26.8833 9.84248 26.7514 9.97681C26.3926 10.3412 25.98 10.623 25.524 10.8503C25.0096 11.1066 24.4831 11.2941 23.8526 11.1996L23.8538 11.2011Z"/>
</mask>
<path d="M4.193 13.854H3.984C4.01333 13.524 4.20767 12.556 4.567 10.95C4.92633 9.33667 5.15 8.13033 5.238 7.331C5.238 7.21367 5.19767 7.07433 5.117 6.913C5.04367 6.74433 4.96667 6.60867 4.886 6.506L4.776 6.352L4.809 6.187C5.21967 6.06233 5.92733 6 6.932 6C7.02733 6.176 7.075 6.34833 7.075 6.517C7.075 6.68567 7.06033 6.89467 7.031 7.144C7.94767 6.38133 8.69567 6 9.275 6C9.65633 6 9.96433 6.12467 10.199 6.374C10.4337 6.62333 10.551 6.97167 10.551 7.419C10.551 7.86633 10.3933 8.72067 10.078 9.982C9.77 11.236 9.616 12.1123 9.616 12.611C9.616 12.8237 9.65267 12.93 9.726 12.93C9.792 12.93 9.97533 12.8567 10.276 12.71L10.419 12.644L10.639 13.051C10.331 13.315 10.012 13.5313 9.682 13.7C9.352 13.8613 9.05133 13.942 8.78 13.942C8.516 13.942 8.29967 13.8467 8.131 13.656C7.96233 13.458 7.878 13.194 7.878 12.864C7.878 12.5267 8.02833 11.6943 8.329 10.367C8.637 9.03967 8.791 8.19267 8.791 7.826C8.791 7.45933 8.648 7.276 8.362 7.276C7.92933 7.276 7.438 7.49233 6.888 7.925C6.80733 8.31367 6.657 8.96267 6.437 9.872C5.953 11.874 5.711 13.128 5.711 13.634C5.425 13.7807 4.919 13.854 4.193 13.854Z" fill="#0769FB"/>
<path d="M11.0585 11.907C11.0585 10.9903 11.3335 10.268 11.8835 9.74C12.4408 9.20467 13.0715 8.937 13.7755 8.937C14.2081 8.937 14.5638 9.04333 14.8425 9.256C15.1211 9.46867 15.2605 9.75467 15.2605 10.114C15.2605 10.466 15.1688 10.763 14.9855 11.005C14.8095 11.247 14.5931 11.434 14.3365 11.566C13.8158 11.8227 13.3391 11.984 12.9065 12.05L12.6425 12.083C12.6938 12.7723 12.9761 13.117 13.4895 13.117C13.6655 13.117 13.8525 13.073 14.0505 12.985C14.2485 12.897 14.4025 12.809 14.5125 12.721L14.6775 12.589L14.9415 12.941C14.8828 13.0217 14.7655 13.128 14.5895 13.26C14.4135 13.392 14.2485 13.502 14.0945 13.59C13.6691 13.8247 13.2035 13.942 12.6975 13.942C12.1915 13.942 11.7918 13.7623 11.4985 13.403C11.2051 13.0437 11.0585 12.545 11.0585 11.907ZM12.6315 11.544C13.0055 11.478 13.3025 11.3203 13.5225 11.071C13.7425 10.8217 13.8525 10.499 13.8525 10.103C13.8525 9.707 13.7351 9.509 13.5005 9.509C13.2218 9.509 13.0055 9.74733 12.8515 10.224C12.7048 10.6933 12.6315 11.1333 12.6315 11.544Z" fill="#0769FB"/>
<path d="M15.738 12.908L15.859 10.037C15.859 9.78767 15.727 9.531 15.463 9.267L15.485 9.135C15.5363 9.12033 15.584 9.10933 15.628 9.102C15.6793 9.08733 15.7343 9.07267 15.793 9.058C15.859 9.04333 15.9323 9.02867 16.013 9.014C16.0937 8.99933 16.178 8.98467 16.266 8.97C16.4713 8.948 16.662 8.937 16.838 8.937C17.0213 8.937 17.1753 9.01033 17.3 9.157C17.432 9.30367 17.498 9.53833 17.498 9.861C17.498 10.1763 17.4467 10.631 17.344 11.225C17.2487 11.8117 17.201 12.2517 17.201 12.545C17.201 12.831 17.2707 12.974 17.41 12.974C17.6373 12.974 17.8867 12.831 18.158 12.545C18.1653 12.4277 18.213 12.0537 18.301 11.423C18.389 10.7923 18.433 10.334 18.433 10.048C18.433 9.762 18.411 9.51633 18.367 9.311C18.9317 9.09833 19.4377 8.992 19.885 8.992C19.9803 9.058 20.028 9.27433 20.028 9.641C20.028 10.0003 19.9657 10.5027 19.841 11.148C19.7163 11.786 19.654 12.2517 19.654 12.545C19.654 12.831 19.7127 12.974 19.83 12.974C20.1087 12.974 20.413 12.7687 20.743 12.358C21.073 11.94 21.249 11.5917 21.271 11.313L20.523 10.477C20.5523 10.1617 20.6293 9.87567 20.754 9.619C20.8787 9.36233 20.996 9.18267 21.106 9.08L21.26 8.937C21.5753 8.937 21.8137 9.02133 21.975 9.19C22.1363 9.35867 22.217 9.55667 22.217 9.784C22.217 10.3633 22.074 10.9757 21.788 11.621C21.502 12.2663 21.117 12.8163 20.633 13.271C20.149 13.7183 19.6577 13.942 19.159 13.942C18.9097 13.942 18.697 13.8723 18.521 13.733C18.3523 13.5863 18.2387 13.3993 18.18 13.172C17.6667 13.6853 17.168 13.942 16.684 13.942C16.3613 13.942 16.123 13.843 15.969 13.645C15.815 13.4397 15.738 13.194 15.738 12.908Z" fill="#0769FB"/>
<path d="M12.449 25.812C12.1337 26.01 11.8513 26.1347 11.602 26.186C11.36 26.2447 11.096 26.274 10.81 26.274C10.524 26.274 10.2783 26.1897 10.073 26.021C9.875 25.8523 9.776 25.6287 9.776 25.35C9.776 25.0713 9.86767 24.8183 10.051 24.591C10.2417 24.3637 10.469 24.184 10.733 24.052C11.2683 23.7733 11.756 23.59 12.196 23.502L12.482 23.447C12.4893 23.4177 12.5333 23.271 12.614 23.007C12.6947 22.743 12.7533 22.5377 12.79 22.391C11.8587 22.9483 11.0923 23.227 10.491 23.227C10.1317 23.227 9.83467 23.1133 9.6 22.886C9.36533 22.6513 9.248 22.3213 9.248 21.896C9.248 21.4633 9.38733 20.6897 9.666 19.575C9.94467 18.453 10.084 17.705 10.084 17.331C10.084 17.089 9.974 16.814 9.754 16.506L9.644 16.352L9.677 16.187C10.117 16.0623 10.7953 16 11.712 16C11.8147 16.22 11.866 16.517 11.866 16.891C11.866 17.265 11.7267 18.057 11.448 19.267C11.1693 20.4697 11.03 21.1663 11.03 21.357C11.03 21.7457 11.162 21.94 11.426 21.94C11.9247 21.94 12.4563 21.797 13.021 21.511C13.4683 19.6703 13.7727 17.9323 13.934 16.297C14.308 16.1063 14.8213 16.011 15.474 16.011H15.683C15.683 16.3997 15.617 16.9387 15.485 17.628C15.3163 18.5007 15.056 19.8207 14.704 21.588C14.55 22.38 14.3483 23.073 14.099 23.667C13.8497 24.2537 13.593 24.7083 13.329 25.031C13.065 25.3537 12.7717 25.614 12.449 25.812ZM10.81 25.537C11.0667 25.537 11.3343 25.394 11.613 25.108C11.8917 24.8293 12.119 24.4957 12.295 24.107C11.9503 24.1437 11.5617 24.2757 11.129 24.503C10.7037 24.7377 10.491 24.976 10.491 25.218C10.491 25.306 10.5203 25.3793 10.579 25.438C10.645 25.504 10.722 25.537 10.81 25.537Z" fill="#0769FB"/>
<path d="M15.8329 21.907C15.8329 20.9903 16.1079 20.268 16.6579 19.74C17.2152 19.2047 17.8459 18.937 18.5499 18.937C18.9825 18.937 19.3382 19.0433 19.6169 19.256C19.8955 19.4687 20.0349 19.7547 20.0349 20.114C20.0349 20.466 19.9432 20.763 19.7599 21.005C19.5839 21.247 19.3675 21.434 19.1109 21.566C18.5902 21.8227 18.1135 21.984 17.6809 22.05L17.4169 22.083C17.4682 22.7723 17.7505 23.117 18.2639 23.117C18.4399 23.117 18.6269 23.073 18.8249 22.985C19.0229 22.897 19.1769 22.809 19.2869 22.721L19.4519 22.589L19.7159 22.941C19.6572 23.0217 19.5399 23.128 19.3639 23.26C19.1879 23.392 19.0229 23.502 18.8689 23.59C18.4435 23.8247 17.9779 23.942 17.4719 23.942C16.9659 23.942 16.5662 23.7623 16.2729 23.403C15.9795 23.0437 15.8329 22.545 15.8329 21.907ZM17.4059 21.544C17.7799 21.478 18.0769 21.3203 18.2969 21.071C18.5169 20.8217 18.6269 20.499 18.6269 20.103C18.6269 19.707 18.5095 19.509 18.2749 19.509C17.9962 19.509 17.7799 19.7473 17.6259 20.224C17.4792 20.6933 17.4059 21.1333 17.4059 21.544Z" fill="#0769FB"/>
<path d="M23.5484 19.256C23.5631 19.2413 23.6034 19.146 23.6694 18.97C24.0141 18.97 24.4761 19.0727 25.0554 19.278C24.8721 19.8867 24.7254 20.5247 24.6154 21.192C24.5054 21.852 24.4504 22.325 24.4504 22.611C24.4504 22.8897 24.4798 23.029 24.5384 23.029C24.5824 23.029 24.7438 22.9593 25.0224 22.82L25.1544 22.754L25.3524 23.139C25.2864 23.1977 25.1984 23.271 25.0884 23.359C24.9858 23.447 24.7878 23.568 24.4944 23.722C24.2011 23.8687 23.9371 23.942 23.7024 23.942C23.2478 23.942 22.9838 23.7367 22.9104 23.326C22.4411 23.7367 22.0158 23.942 21.6344 23.942C21.2604 23.942 20.9414 23.7953 20.6774 23.502C20.4208 23.2087 20.2924 22.7467 20.2924 22.116C20.2924 21.1333 20.4941 20.3597 20.8974 19.795C21.3008 19.223 21.7884 18.937 22.3604 18.937C22.7711 18.937 23.1671 19.0433 23.5484 19.256ZM22.2944 23.007C22.4704 23.007 22.6684 22.9373 22.8884 22.798C22.9398 21.764 23.1121 20.741 23.4054 19.729C23.1854 19.6337 22.9984 19.586 22.8444 19.586C22.5804 19.586 22.3531 19.8463 22.1624 20.367C21.9791 20.8803 21.8874 21.4487 21.8874 22.072C21.8874 22.6953 22.0231 23.007 22.2944 23.007Z" fill="#0769FB"/>
<path d="M25.7756 23.843H25.6986C25.6839 23.7843 25.6766 23.6523 25.6766 23.447C25.6766 23.2343 25.7756 22.6697 25.9736 21.753C26.1716 20.8363 26.2706 20.312 26.2706 20.18C26.2706 19.9527 26.1679 19.7033 25.9626 19.432L25.8636 19.3L25.8746 19.157C26.2706 19.047 26.9049 18.992 27.7776 18.992C27.8656 19.1827 27.9096 19.4503 27.9096 19.795C27.9903 19.663 28.1589 19.487 28.4156 19.267C28.6723 19.047 28.9363 18.937 29.2076 18.937C29.6036 18.937 29.8016 19.2817 29.8016 19.971C29.7649 20.015 29.7136 20.0737 29.6476 20.147C29.5889 20.213 29.4643 20.3083 29.2736 20.433C29.0903 20.5577 28.9106 20.6347 28.7346 20.664C28.7273 20.664 28.6649 20.565 28.5476 20.367C28.4303 20.169 28.3423 20.07 28.2836 20.07C28.1003 20.136 27.9389 20.246 27.7996 20.4C27.4623 21.918 27.2936 22.9007 27.2936 23.348C27.2936 23.5093 27.2973 23.623 27.3046 23.689C27.0479 23.7917 26.5383 23.843 25.7756 23.843Z" fill="#0769FB"/>
<path d="M6.31402 21.2857C6.01115 21.5231 5.68189 21.5428 5.35705 21.2903C4.71648 20.7912 4.26084 20.1396 3.97802 19.3834C3.81007 18.9345 3.91923 18.4851 4.17133 18.0805C4.30494 17.8661 4.50568 17.7718 4.75317 17.8242C4.9922 17.8762 4.94596 18.095 4.96398 18.2579C5.08097 19.3489 5.57145 20.2732 6.22781 21.1259C6.26496 21.1757 6.3214 21.2119 6.31384 21.2843L6.31402 21.2857Z" fill="#FF006E"/>
<path d="M23.7792 10.2857C24.082 10.5231 24.4113 10.5428 24.7361 10.2903C25.3767 9.79118 25.8323 9.13964 26.1152 8.38338C26.2831 7.93447 26.174 7.48511 25.9219 7.08051C25.7882 6.86605 25.5875 6.77182 25.34 6.82418C25.101 6.87623 25.1472 7.09496 25.1292 7.25785C25.0122 8.34885 24.5217 9.27316 23.8654 10.1259C23.8282 10.1757 23.7718 10.2119 23.7793 10.2843L23.7792 10.2857Z" fill="#FF006E"/>
<path d="M6.59318 23.9978C6.37245 23.6825 6.06312 23.568 5.67891 23.7152C4.92092 24.0066 4.29555 24.4975 3.80514 25.1389C3.51394 25.5197 3.48779 25.9813 3.6114 26.4417C3.67689 26.6858 3.84158 26.8343 4.09359 26.8561C4.33746 26.8758 4.35678 26.6531 4.42136 26.5025C4.85042 25.4926 5.5884 24.7508 6.46427 24.1256C6.51431 24.0887 6.57883 24.0705 6.59264 23.9991L6.59318 23.9978Z" fill="#FF006E"/>
<path d="M23.5 12.9978C23.7207 12.6825 24.0301 12.568 24.4143 12.7152C25.1723 13.0066 25.7976 13.4975 26.288 14.1389C26.5792 14.5197 26.6054 14.9813 26.4818 15.4417C26.4163 15.6858 26.2516 15.8343 25.9996 15.8561C25.7557 15.8758 25.7364 15.6531 25.6718 15.5025C25.2428 14.4926 24.5048 13.7508 23.6289 13.1256C23.5789 13.0887 23.5144 13.0705 23.5005 12.9991L23.5 12.9978Z" fill="#FF006E"/>
<path d="M6.23938 22.2011C6.19233 22.5669 5.96882 22.7131 5.73418 22.8271C4.79842 23.2826 3.19796 22.7871 2.67602 21.8907C2.58638 21.7369 2.50963 21.5745 2.50088 21.3964C2.48792 21.1307 2.61865 20.9376 2.84913 20.813C3.0677 20.694 3.20987 20.8425 3.34183 20.9768C3.70059 21.3412 4.11318 21.623 4.56922 21.8503C5.08356 22.1066 5.61009 22.2941 6.2406 22.1996L6.23938 22.2011Z" fill="#FF006E"/>
<path d="M23.8538 11.2011C23.9009 11.5669 24.1244 11.7131 24.359 11.8271C25.2948 12.2826 26.8952 11.7871 27.4172 10.8907C27.5068 10.7369 27.5836 10.5745 27.5923 10.3964C27.6053 10.1307 27.4745 9.93762 27.2441 9.81298C27.0255 9.69403 26.8833 9.84248 26.7514 9.97681C26.3926 10.3412 25.98 10.623 25.524 10.8503C25.0096 11.1066 24.4831 11.2941 23.8526 11.1996L23.8538 11.2011Z" fill="#FF006E"/>
<path d="M4.193 13.854H3.984C4.01333 13.524 4.20767 12.556 4.567 10.95C4.92633 9.33667 5.15 8.13033 5.238 7.331C5.238 7.21367 5.19767 7.07433 5.117 6.913C5.04367 6.74433 4.96667 6.60867 4.886 6.506L4.776 6.352L4.809 6.187C5.21967 6.06233 5.92733 6 6.932 6C7.02733 6.176 7.075 6.34833 7.075 6.517C7.075 6.68567 7.06033 6.89467 7.031 7.144C7.94767 6.38133 8.69567 6 9.275 6C9.65633 6 9.96433 6.12467 10.199 6.374C10.4337 6.62333 10.551 6.97167 10.551 7.419C10.551 7.86633 10.3933 8.72067 10.078 9.982C9.77 11.236 9.616 12.1123 9.616 12.611C9.616 12.8237 9.65267 12.93 9.726 12.93C9.792 12.93 9.97533 12.8567 10.276 12.71L10.419 12.644L10.639 13.051C10.331 13.315 10.012 13.5313 9.682 13.7C9.352 13.8613 9.05133 13.942 8.78 13.942C8.516 13.942 8.29967 13.8467 8.131 13.656C7.96233 13.458 7.878 13.194 7.878 12.864C7.878 12.5267 8.02833 11.6943 8.329 10.367C8.637 9.03967 8.791 8.19267 8.791 7.826C8.791 7.45933 8.648 7.276 8.362 7.276C7.92933 7.276 7.438 7.49233 6.888 7.925C6.80733 8.31367 6.657 8.96267 6.437 9.872C5.953 11.874 5.711 13.128 5.711 13.634C5.425 13.7807 4.919 13.854 4.193 13.854Z" stroke="white" stroke-width="4" stroke-linejoin="round" mask="url(#path-1-outside-1_6413_76431)"/>
<path d="M11.0585 11.907C11.0585 10.9903 11.3335 10.268 11.8835 9.74C12.4408 9.20467 13.0715 8.937 13.7755 8.937C14.2081 8.937 14.5638 9.04333 14.8425 9.256C15.1211 9.46867 15.2605 9.75467 15.2605 10.114C15.2605 10.466 15.1688 10.763 14.9855 11.005C14.8095 11.247 14.5931 11.434 14.3365 11.566C13.8158 11.8227 13.3391 11.984 12.9065 12.05L12.6425 12.083C12.6938 12.7723 12.9761 13.117 13.4895 13.117C13.6655 13.117 13.8525 13.073 14.0505 12.985C14.2485 12.897 14.4025 12.809 14.5125 12.721L14.6775 12.589L14.9415 12.941C14.8828 13.0217 14.7655 13.128 14.5895 13.26C14.4135 13.392 14.2485 13.502 14.0945 13.59C13.6691 13.8247 13.2035 13.942 12.6975 13.942C12.1915 13.942 11.7918 13.7623 11.4985 13.403C11.2051 13.0437 11.0585 12.545 11.0585 11.907ZM12.6315 11.544C13.0055 11.478 13.3025 11.3203 13.5225 11.071C13.7425 10.8217 13.8525 10.499 13.8525 10.103C13.8525 9.707 13.7351 9.509 13.5005 9.509C13.2218 9.509 13.0055 9.74733 12.8515 10.224C12.7048 10.6933 12.6315 11.1333 12.6315 11.544Z" stroke="white" stroke-width="4" stroke-linejoin="round" mask="url(#path-1-outside-1_6413_76431)"/>
<path d="M15.738 12.908L15.859 10.037C15.859 9.78767 15.727 9.531 15.463 9.267L15.485 9.135C15.5363 9.12033 15.584 9.10933 15.628 9.102C15.6793 9.08733 15.7343 9.07267 15.793 9.058C15.859 9.04333 15.9323 9.02867 16.013 9.014C16.0937 8.99933 16.178 8.98467 16.266 8.97C16.4713 8.948 16.662 8.937 16.838 8.937C17.0213 8.937 17.1753 9.01033 17.3 9.157C17.432 9.30367 17.498 9.53833 17.498 9.861C17.498 10.1763 17.4467 10.631 17.344 11.225C17.2487 11.8117 17.201 12.2517 17.201 12.545C17.201 12.831 17.2707 12.974 17.41 12.974C17.6373 12.974 17.8867 12.831 18.158 12.545C18.1653 12.4277 18.213 12.0537 18.301 11.423C18.389 10.7923 18.433 10.334 18.433 10.048C18.433 9.762 18.411 9.51633 18.367 9.311C18.9317 9.09833 19.4377 8.992 19.885 8.992C19.9803 9.058 20.028 9.27433 20.028 9.641C20.028 10.0003 19.9657 10.5027 19.841 11.148C19.7163 11.786 19.654 12.2517 19.654 12.545C19.654 12.831 19.7127 12.974 19.83 12.974C20.1087 12.974 20.413 12.7687 20.743 12.358C21.073 11.94 21.249 11.5917 21.271 11.313L20.523 10.477C20.5523 10.1617 20.6293 9.87567 20.754 9.619C20.8787 9.36233 20.996 9.18267 21.106 9.08L21.26 8.937C21.5753 8.937 21.8137 9.02133 21.975 9.19C22.1363 9.35867 22.217 9.55667 22.217 9.784C22.217 10.3633 22.074 10.9757 21.788 11.621C21.502 12.2663 21.117 12.8163 20.633 13.271C20.149 13.7183 19.6577 13.942 19.159 13.942C18.9097 13.942 18.697 13.8723 18.521 13.733C18.3523 13.5863 18.2387 13.3993 18.18 13.172C17.6667 13.6853 17.168 13.942 16.684 13.942C16.3613 13.942 16.123 13.843 15.969 13.645C15.815 13.4397 15.738 13.194 15.738 12.908Z" stroke="white" stroke-width="4" stroke-linejoin="round" mask="url(#path-1-outside-1_6413_76431)"/>
<path d="M12.449 25.812C12.1337 26.01 11.8513 26.1347 11.602 26.186C11.36 26.2447 11.096 26.274 10.81 26.274C10.524 26.274 10.2783 26.1897 10.073 26.021C9.875 25.8523 9.776 25.6287 9.776 25.35C9.776 25.0713 9.86767 24.8183 10.051 24.591C10.2417 24.3637 10.469 24.184 10.733 24.052C11.2683 23.7733 11.756 23.59 12.196 23.502L12.482 23.447C12.4893 23.4177 12.5333 23.271 12.614 23.007C12.6947 22.743 12.7533 22.5377 12.79 22.391C11.8587 22.9483 11.0923 23.227 10.491 23.227C10.1317 23.227 9.83467 23.1133 9.6 22.886C9.36533 22.6513 9.248 22.3213 9.248 21.896C9.248 21.4633 9.38733 20.6897 9.666 19.575C9.94467 18.453 10.084 17.705 10.084 17.331C10.084 17.089 9.974 16.814 9.754 16.506L9.644 16.352L9.677 16.187C10.117 16.0623 10.7953 16 11.712 16C11.8147 16.22 11.866 16.517 11.866 16.891C11.866 17.265 11.7267 18.057 11.448 19.267C11.1693 20.4697 11.03 21.1663 11.03 21.357C11.03 21.7457 11.162 21.94 11.426 21.94C11.9247 21.94 12.4563 21.797 13.021 21.511C13.4683 19.6703 13.7727 17.9323 13.934 16.297C14.308 16.1063 14.8213 16.011 15.474 16.011H15.683C15.683 16.3997 15.617 16.9387 15.485 17.628C15.3163 18.5007 15.056 19.8207 14.704 21.588C14.55 22.38 14.3483 23.073 14.099 23.667C13.8497 24.2537 13.593 24.7083 13.329 25.031C13.065 25.3537 12.7717 25.614 12.449 25.812ZM10.81 25.537C11.0667 25.537 11.3343 25.394 11.613 25.108C11.8917 24.8293 12.119 24.4957 12.295 24.107C11.9503 24.1437 11.5617 24.2757 11.129 24.503C10.7037 24.7377 10.491 24.976 10.491 25.218C10.491 25.306 10.5203 25.3793 10.579 25.438C10.645 25.504 10.722 25.537 10.81 25.537Z" stroke="white" stroke-width="4" stroke-linejoin="round" mask="url(#path-1-outside-1_6413_76431)"/>
<path d="M15.8329 21.907C15.8329 20.9903 16.1079 20.268 16.6579 19.74C17.2152 19.2047 17.8459 18.937 18.5499 18.937C18.9825 18.937 19.3382 19.0433 19.6169 19.256C19.8955 19.4687 20.0349 19.7547 20.0349 20.114C20.0349 20.466 19.9432 20.763 19.7599 21.005C19.5839 21.247 19.3675 21.434 19.1109 21.566C18.5902 21.8227 18.1135 21.984 17.6809 22.05L17.4169 22.083C17.4682 22.7723 17.7505 23.117 18.2639 23.117C18.4399 23.117 18.6269 23.073 18.8249 22.985C19.0229 22.897 19.1769 22.809 19.2869 22.721L19.4519 22.589L19.7159 22.941C19.6572 23.0217 19.5399 23.128 19.3639 23.26C19.1879 23.392 19.0229 23.502 18.8689 23.59C18.4435 23.8247 17.9779 23.942 17.4719 23.942C16.9659 23.942 16.5662 23.7623 16.2729 23.403C15.9795 23.0437 15.8329 22.545 15.8329 21.907ZM17.4059 21.544C17.7799 21.478 18.0769 21.3203 18.2969 21.071C18.5169 20.8217 18.6269 20.499 18.6269 20.103C18.6269 19.707 18.5095 19.509 18.2749 19.509C17.9962 19.509 17.7799 19.7473 17.6259 20.224C17.4792 20.6933 17.4059 21.1333 17.4059 21.544Z" stroke="white" stroke-width="4" stroke-linejoin="round" mask="url(#path-1-outside-1_6413_76431)"/>
<path d="M23.5484 19.256C23.5631 19.2413 23.6034 19.146 23.6694 18.97C24.0141 18.97 24.4761 19.0727 25.0554 19.278C24.8721 19.8867 24.7254 20.5247 24.6154 21.192C24.5054 21.852 24.4504 22.325 24.4504 22.611C24.4504 22.8897 24.4798 23.029 24.5384 23.029C24.5824 23.029 24.7438 22.9593 25.0224 22.82L25.1544 22.754L25.3524 23.139C25.2864 23.1977 25.1984 23.271 25.0884 23.359C24.9858 23.447 24.7878 23.568 24.4944 23.722C24.2011 23.8687 23.9371 23.942 23.7024 23.942C23.2478 23.942 22.9838 23.7367 22.9104 23.326C22.4411 23.7367 22.0158 23.942 21.6344 23.942C21.2604 23.942 20.9414 23.7953 20.6774 23.502C20.4208 23.2087 20.2924 22.7467 20.2924 22.116C20.2924 21.1333 20.4941 20.3597 20.8974 19.795C21.3008 19.223 21.7884 18.937 22.3604 18.937C22.7711 18.937 23.1671 19.0433 23.5484 19.256ZM22.2944 23.007C22.4704 23.007 22.6684 22.9373 22.8884 22.798C22.9398 21.764 23.1121 20.741 23.4054 19.729C23.1854 19.6337 22.9984 19.586 22.8444 19.586C22.5804 19.586 22.3531 19.8463 22.1624 20.367C21.9791 20.8803 21.8874 21.4487 21.8874 22.072C21.8874 22.6953 22.0231 23.007 22.2944 23.007Z" stroke="white" stroke-width="4" stroke-linejoin="round" mask="url(#path-1-outside-1_6413_76431)"/>
<path d="M25.7756 23.843H25.6986C25.6839 23.7843 25.6766 23.6523 25.6766 23.447C25.6766 23.2343 25.7756 22.6697 25.9736 21.753C26.1716 20.8363 26.2706 20.312 26.2706 20.18C26.2706 19.9527 26.1679 19.7033 25.9626 19.432L25.8636 19.3L25.8746 19.157C26.2706 19.047 26.9049 18.992 27.7776 18.992C27.8656 19.1827 27.9096 19.4503 27.9096 19.795C27.9903 19.663 28.1589 19.487 28.4156 19.267C28.6723 19.047 28.9363 18.937 29.2076 18.937C29.6036 18.937 29.8016 19.2817 29.8016 19.971C29.7649 20.015 29.7136 20.0737 29.6476 20.147C29.5889 20.213 29.4643 20.3083 29.2736 20.433C29.0903 20.5577 28.9106 20.6347 28.7346 20.664C28.7273 20.664 28.6649 20.565 28.5476 20.367C28.4303 20.169 28.3423 20.07 28.2836 20.07C28.1003 20.136 27.9389 20.246 27.7996 20.4C27.4623 21.918 27.2936 22.9007 27.2936 23.348C27.2936 23.5093 27.2973 23.623 27.3046 23.689C27.0479 23.7917 26.5383 23.843 25.7756 23.843Z" stroke="white" stroke-width="4" stroke-linejoin="round" mask="url(#path-1-outside-1_6413_76431)"/>
<path d="M6.31402 21.2857C6.01115 21.5231 5.68189 21.5428 5.35705 21.2903C4.71648 20.7912 4.26084 20.1396 3.97802 19.3834C3.81007 18.9345 3.91923 18.4851 4.17133 18.0805C4.30494 17.8661 4.50568 17.7718 4.75317 17.8242C4.9922 17.8762 4.94596 18.095 4.96398 18.2579C5.08097 19.3489 5.57145 20.2732 6.22781 21.1259C6.26496 21.1757 6.3214 21.2119 6.31384 21.2843L6.31402 21.2857Z" stroke="white" stroke-width="4" stroke-linejoin="round" mask="url(#path-1-outside-1_6413_76431)"/>
<path d="M23.7792 10.2857C24.082 10.5231 24.4113 10.5428 24.7361 10.2903C25.3767 9.79118 25.8323 9.13964 26.1152 8.38338C26.2831 7.93447 26.174 7.48511 25.9219 7.08051C25.7882 6.86605 25.5875 6.77182 25.34 6.82418C25.101 6.87623 25.1472 7.09496 25.1292 7.25785C25.0122 8.34885 24.5217 9.27316 23.8654 10.1259C23.8282 10.1757 23.7718 10.2119 23.7793 10.2843L23.7792 10.2857Z" stroke="white" stroke-width="4" stroke-linejoin="round" mask="url(#path-1-outside-1_6413_76431)"/>
<path d="M6.59318 23.9978C6.37245 23.6825 6.06312 23.568 5.67891 23.7152C4.92092 24.0066 4.29555 24.4975 3.80514 25.1389C3.51394 25.5197 3.48779 25.9813 3.6114 26.4417C3.67689 26.6858 3.84158 26.8343 4.09359 26.8561C4.33746 26.8758 4.35678 26.6531 4.42136 26.5025C4.85042 25.4926 5.5884 24.7508 6.46427 24.1256C6.51431 24.0887 6.57883 24.0705 6.59264 23.9991L6.59318 23.9978Z" stroke="white" stroke-width="4" stroke-linejoin="round" mask="url(#path-1-outside-1_6413_76431)"/>
<path d="M23.5 12.9978C23.7207 12.6825 24.0301 12.568 24.4143 12.7152C25.1723 13.0066 25.7976 13.4975 26.288 14.1389C26.5792 14.5197 26.6054 14.9813 26.4818 15.4417C26.4163 15.6858 26.2516 15.8343 25.9996 15.8561C25.7557 15.8758 25.7364 15.6531 25.6718 15.5025C25.2428 14.4926 24.5048 13.7508 23.6289 13.1256C23.5789 13.0887 23.5144 13.0705 23.5005 12.9991L23.5 12.9978Z" stroke="white" stroke-width="4" stroke-linejoin="round" mask="url(#path-1-outside-1_6413_76431)"/>
<path d="M6.23938 22.2011C6.19233 22.5669 5.96882 22.7131 5.73418 22.8271C4.79842 23.2826 3.19796 22.7871 2.67602 21.8907C2.58638 21.7369 2.50963 21.5745 2.50088 21.3964C2.48792 21.1307 2.61865 20.9376 2.84913 20.813C3.0677 20.694 3.20987 20.8425 3.34183 20.9768C3.70059 21.3412 4.11318 21.623 4.56922 21.8503C5.08356 22.1066 5.61009 22.2941 6.2406 22.1996L6.23938 22.2011Z" stroke="white" stroke-width="4" stroke-linejoin="round" mask="url(#path-1-outside-1_6413_76431)"/>
<path d="M23.8538 11.2011C23.9009 11.5669 24.1244 11.7131 24.359 11.8271C25.2948 12.2826 26.8952 11.7871 27.4172 10.8907C27.5068 10.7369 27.5836 10.5745 27.5923 10.3964C27.6053 10.1307 27.4745 9.93762 27.2441 9.81298C27.0255 9.69403 26.8833 9.84248 26.7514 9.97681C26.3926 10.3412 25.98 10.623 25.524 10.8503C25.0096 11.1066 24.4831 11.2941 23.8526 11.1996L23.8538 11.2011Z" stroke="white" stroke-width="4" stroke-linejoin="round" mask="url(#path-1-outside-1_6413_76431)"/>
</svg>
