<svg width="110" height="100" viewBox="0 0 64 36" fill="none" xmlns="http://www.w3.org/2000/svg">
<path d="M48.2337 34.4736L49.9197 35.315C36.6994 35.3251 23.4654 35.4099 10.2417 35.3998C10.7641 34.9927 11.4596 34.8807 12.0092 34.4736H48.2337Z" fill="#919081"/>
<path d="M60.2962 34.5584C60.412 34.7688 60.37 35.1827 60.2842 35.3998C57.5036 35.4066 54.722 35.393 51.9414 35.3998L52.4616 34.4736L60.2962 34.5584Z" fill="#919081"/>
<path d="M7.69151 34.4737C7.84748 34.8638 8.03665 35.0877 8.21575 35.315C5.74749 35.3082 3.27621 35.4948 0.806945 35.3998C0.740535 35.2031 0.702298 35.0877 0.719404 34.7688L0.832101 34.4737H7.69151Z" fill="#919081"/>
<path d="M52.0258 4.65055C52.0767 4.85071 51.8392 4.90498 51.7747 4.9864C51.5949 4.84731 51.6153 4.9864 51.6051 4.9864C41.6042 7.34076 27.97 7.57484 17.8673 5.74292C16.6799 5.52919 14.0474 5.05764 13.0229 4.64716C12.7718 4.54539 12.704 4.4029 12.687 4.39612C21.8466 6.7403 31.6881 7.16774 41.1191 6.41801C43.202 6.25178 50.4313 5.46813 52.0292 4.65055H52.0258Z" fill="#1F1B1A"/>
<path d="M63.3122 0.861181C62.9492 1.0749 60.8357 2.12656 60.7848 2.29279L60.7441 6.58762L58.0064 4.56573C57.9216 4.46735 56.9751 3.5921 56.9106 3.55478C59.0886 2.917 61.2123 1.56002 63.3122 0.857788V0.861181Z" fill="#E7DFF9"/>
<path d="M3.45898 2.46252L7.20763 3.93484L3.79484 6.92698L3.45898 2.46252Z" fill="#5ECDC6"/>
<path d="M8.47364 4.06362C8.60756 3.98449 8.70325 3.91082 8.72151 3.8965C6.15784 3.17549 3.67574 2.19248 1.27148 1.04297V1.28521C3.5987 2.3708 6.03108 3.25622 8.47364 4.06362Z" fill="#1F1B1A"/>
<path d="M63.3122 0.86121C61.2089 1.56345 59.0853 2.91703 56.9107 3.5582C56.9005 3.55142 56.7784 3.52767 56.6597 3.47339C58.9167 2.60053 61.1643 1.67775 63.3156 0.573181V0.86121H63.3122Z" fill="#1F1B1A"/>
<path d="M8.30489 4.14508C8.15223 4.24346 7.68068 4.67431 7.54837 4.82018L7.42285 3.89404L8.30828 4.14508H8.30489Z" fill="#3CBDD1"/>
<path d="M55.3946 13.0774C55.4319 13.1012 55.8424 13.8407 55.8152 13.878C55.5642 13.9425 55.4048 13.8984 55.1402 14.0035C55.0723 14.0307 55.0384 14.0782 54.9705 14.0884C54.9841 13.9934 54.9129 14.0171 54.8857 14.0035C54.7941 13.956 54.4718 14.0951 54.3802 13.878C54.3192 13.7288 54.6652 13.2504 54.7161 13.0774C54.7466 13.0876 55.0689 12.8671 55.3912 13.0774H55.3946Z" fill="#C57614"/>
<path d="M56.6557 3.47334C56.7778 3.52762 56.8965 3.55137 56.9067 3.55815C56.9712 3.59547 57.9176 4.47072 58.0025 4.5691C60.35 7.3543 58.6504 11.9273 55.3903 13.0773C55.0714 12.867 54.7491 13.0875 54.7152 13.0773C51.3024 11.968 50.5052 8.46702 51.4313 5.32561C51.6823 5.38668 51.6552 5.10511 51.6823 5.07457C51.6891 5.06779 51.723 5.04404 51.7671 4.98976C51.835 4.90835 52.0725 4.85407 52.0182 4.65391C53.6703 3.8058 54.0367 2.28599 56.6523 3.47334H56.6557Z" fill="#FCC329"/>
<path d="M55.605 4.14508C56.8805 4.47076 57.9966 5.73953 57.7117 7.09312L55.605 4.14508Z" fill="#FEEDB7"/>
<path d="M51.6859 5.07465C51.6587 5.10861 51.6859 5.39048 51.4346 5.32595C51.4482 5.27501 51.3938 5.09502 51.6044 5.07465H51.6893H51.6859Z" fill="#32342F"/>
<path d="M51.7712 4.98957C51.7272 5.04365 51.6934 5.06732 51.6867 5.07408H51.6022V4.98957C51.6022 4.98957 51.592 4.85099 51.7712 4.98957Z" fill="#7D7381"/>
<path d="M50.8859 5.32562L49.7087 9.70527L47.1372 6.12624L50.8859 5.32562Z" fill="#3CBDD1"/>
<path d="M36.7354 7.01174C36.9898 7.00496 38.5707 6.97782 38.6318 7.05245L36.8202 11.0555C36.4912 10.7468 34.5201 7.2119 34.7135 7.09655C35.3852 7.17797 36.0739 7.02531 36.7354 7.01174Z" fill="#3CBDD1"/>
<path d="M26.2061 7.01178L30.1209 7.22211L28.0583 11.1404L26.2061 7.01178Z" fill="#F23E42"/>
<path d="M30.5854 7.09656L34.4189 7.22208L32.4377 11.1403L30.5854 7.09656Z" fill="#FCAF1D"/>
<path d="M22.1616 6.67255L25.9103 7.0525L23.678 10.886L22.1616 6.67255Z" fill="#F77E2D"/>
<path d="M46.5912 6.08551C46.7642 6.09908 46.8592 6.08551 46.8864 6.29584C46.9135 6.50617 45.526 9.88505 45.3292 10.3803L43.0122 6.7165L46.5912 6.08551Z" fill="#FCC329"/>
<path d="M18.2846 6.00085L21.867 6.71666L19.3803 10.2957L18.0742 6.296L18.2846 6.00085Z" fill="#E7DFF9"/>
<path d="M42.4623 6.67235C42.6048 6.67914 42.6625 6.66218 42.7575 6.79787C42.4793 7.16086 41.2444 10.8315 41.0307 10.801L38.8833 6.9675C39.9858 7.07266 41.4344 6.62147 42.4623 6.67235Z" fill="#831EA1"/>
<path d="M14.0742 5.07465L17.8229 6.04149L15.0004 9.45429L14.0742 5.07465Z" fill="#FCDB1E"/>
<path d="M10.4919 14.76V22.4269L10.3223 22.4964V14.6752C10.3833 14.6922 10.4953 14.6311 10.4919 14.76Z" fill="#313034"/>
<path d="M10.7468 13.8339C10.8112 13.8814 11.1912 14.4887 11.1674 14.5497L10.4923 14.7601C10.4957 14.6312 10.3838 14.6956 10.3227 14.6753C10.1836 14.6345 9.82063 14.7397 9.73242 14.6345L9.98346 13.6643C10.2379 13.7491 10.3532 13.5557 10.74 13.8339H10.7468Z" fill="#BB2A2B"/>
<path d="M12.6835 4.3995C12.7038 4.40629 12.7683 4.55216 13.0193 4.65054C15.3635 6.95062 14.6511 11.3337 12.0491 13.1588C11.6352 13.4505 11.1094 13.5252 10.743 13.8339C10.3562 13.5557 10.2375 13.7491 9.98647 13.6643C6.51939 12.5108 4.96905 7.61893 7.54391 4.82017C7.67961 4.67429 8.14776 4.24684 8.30042 4.14507C8.31739 4.13489 8.39541 4.10097 8.47005 4.06026C8.62271 3.97545 8.70752 3.89742 8.72109 3.89064C10.6141 3.06288 11.1263 3.73458 12.6801 4.39611L12.6835 4.3995Z" fill="#F23E42"/>
<path d="M10.8716 4.65051C12.1641 4.90495 13.3718 6.32638 13.0631 7.68336L10.8716 4.65051Z" fill="#FDC9C5"/>
<circle cx="9.1652" cy="30.9358" r="4.49089" fill="#44505B"/>
<path d="M8.59894 27.8176C13.0973 27.2103 13.5315 33.4897 9.77951 33.9681C5.43039 34.5244 4.82993 28.3264 8.59894 27.8176Z" fill="#EBEBEB"/>
<path d="M10.1153 32.0311C10.3189 32.0311 10.882 32.774 11.0856 32.9165C10.6615 33.3406 10.1052 33.5407 9.52844 33.6323C9.40971 33.6018 9.35882 32.5128 9.40292 32.411C9.41988 32.3737 10.078 32.0311 10.1187 32.0311H10.1153Z" fill="#44505B"/>
<path d="M11.2073 29.0829C11.4957 29.0523 12.2318 30.5348 11.8824 30.6841C10.3117 30.9385 10.0064 29.9547 11.2073 29.0829Z" fill="#44505B"/>
<path d="M7.08196 29.0829C7.17016 29.0626 7.95381 29.8259 7.96738 29.8835C7.98095 29.9582 7.72991 30.7486 7.67224 30.769C7.61457 30.7893 6.48489 30.6909 6.45096 30.6434C6.27455 30.3992 6.84109 29.2966 7.08196 29.0863V29.0829Z" fill="#44505B"/>
<path d="M8.34529 32.031C8.38261 32.0276 9.04074 32.2922 9.06109 32.3261C9.09502 32.3804 9.07127 33.5949 9.02039 33.6322C8.44706 33.5304 7.94159 33.3371 7.46325 33.0012C7.4429 32.9232 8.28423 32.0412 8.34868 32.031H8.34529Z" fill="#44505B"/>
<path d="M10.7867 31.0201C10.8409 30.9895 11.9503 31.0201 12.0079 31.1456C11.9231 31.6918 11.7399 32.2006 11.3769 32.6213C11.0038 32.299 10.0267 31.4509 10.7867 31.0201Z" fill="#44505B"/>
<path d="M6.49158 31.1048C8.12673 30.9047 8.35742 31.5492 7.24809 32.6213C6.88849 32.7129 6.29821 31.227 6.49158 31.1048Z" fill="#44505B"/>
<path d="M8.68026 28.1567C8.84649 28.1567 8.95166 28.1228 9.06022 28.2822C9.16877 29.819 8.08998 30.0361 7.45898 28.7029C7.48612 28.6147 8.55474 28.1567 8.68026 28.1567Z" fill="#44505B"/>
<path d="M9.44003 28.1568C9.96925 28.2586 10.5154 28.3977 10.9157 28.7878C10.1219 30.1414 9.07365 29.758 9.44003 28.1568Z" fill="#44505B"/>
<path d="M9.18651 29.9242C9.5495 29.9208 9.80393 31.1455 9.56646 31.4814L9.35613 31.6069C8.67764 31.556 9.07456 30.9521 8.4707 30.8063C8.75228 30.7316 9.04403 29.9242 9.18651 29.9208V29.9242Z" fill="#90648C"/>
<path d="M55.1408 20.5748C55.1238 22.3932 54.771 25.5142 55.056 27.1867C55.1781 27.9161 56.3214 28.8015 56.4028 29.6734C56.2637 30.1958 56.5046 30.915 56.1924 31.4408L59.4356 30.8505C58.6011 32.3636 56.586 32.1872 55.307 32.7028L55.4766 30.3858C54.3334 23.9198 44.4919 26.7423 46.714 32.618H13.4375C15.1337 28.2859 9.76008 24.8256 6.23533 27.6481C4.83764 28.7642 4.12523 30.9184 4.84442 32.618C2.76486 32.6451 1.16023 32.8657 0.71582 30.4265C0.902405 30.5486 1.0415 30.7148 1.22129 30.8472C2.01173 31.4374 2.81574 31.546 3.78937 31.5222C3.14481 29.7717 4.07095 27.9534 5.47542 26.8882C7.83317 25.097 11.5275 25.3005 13.4375 27.6447C14.3908 28.8185 14.6486 29.9549 14.3229 31.434H46.083C45.5062 29.5987 46.239 28.1332 47.5587 26.8848C50.0352 25.2394 52.7288 25.2293 54.9712 27.2647V14.0817C55.039 14.0715 55.0729 14.024 55.1408 13.9969C55.1238 16.185 55.1611 18.3799 55.1408 20.568V20.5748Z" fill="#313034"/>
<path d="M58.5969 22.8476C53.9899 22.1284 54.872 25.4428 59.0616 24.9543C59.1091 24.9475 59.5162 24.8525 59.4416 24.7032C59.8114 26.1349 59.9606 27.9634 59.7774 29.4221L56.5343 29.3373C56.5343 29.4561 56.4189 29.6359 56.4087 29.6732C56.3239 28.8013 55.1841 27.9159 55.0619 27.1865C54.777 25.5107 55.1298 22.393 55.1468 20.5746C56.4495 21.3685 57.6368 21.5415 58.6003 22.8476H58.5969Z" fill="#EBEBEB"/>
<path d="M58.5966 22.8476C59.0579 23.4752 59.2479 23.9604 59.4379 24.6999C59.5125 24.8526 59.1054 24.9476 59.0579 24.951C54.8717 25.4395 53.9862 22.125 58.5932 22.8442L58.5966 22.8476Z" fill="#E81B27"/>
<path d="M59.7738 29.4188C59.7026 29.9955 59.7399 30.3042 59.438 30.8504L56.1948 31.4407C56.5069 30.9114 56.2661 30.1956 56.4052 29.6732C56.4153 29.6359 56.5341 29.4527 56.5307 29.3373L59.7738 29.4222V29.4188Z" fill="#CFCFD2"/>
<path d="M1.22708 30.8505C1.04728 30.7182 0.90819 30.552 0.721606 30.4298C0.633403 29.9515 0.731783 29.7751 0.721606 29.4189H3.3745C3.43556 30.077 3.31683 30.5757 3.54412 31.2712C2.62477 31.5018 2.01413 30.9421 1.22708 30.8505Z" fill="#CFCFD2"/>
<path d="M1.3125 26.2198C1.55676 25.7177 1.5839 25.5108 2.06901 25.0392C8.0465 24.0045 4.57942 26.5251 1.3125 26.2198Z" fill="#FCC329"/>
<path d="M47.5611 26.8914C46.2415 28.1398 45.5087 29.6054 46.0854 31.4407H14.3254C14.651 29.9582 14.3966 28.8217 13.4399 27.6513C13.9759 27.4986 14.478 29.3713 14.5764 29.4188L17.0631 29.5036V29.4188H33.4893V29.334C36.6646 29.5579 40.2572 29.0354 43.3884 29.334C43.6225 29.3577 43.4732 29.6189 43.8532 29.585C43.8803 29.585 43.9109 29.585 43.938 29.585C44.1958 29.5612 44.0839 29.4188 44.1483 29.4154C44.4333 29.4052 45.5291 29.473 45.6648 29.4154C45.7598 29.3747 46.3636 27.9295 46.635 27.6038C46.9844 27.1831 47.2897 27.0678 47.5611 26.888V26.8914Z" fill="#CFCFD2"/>
<path d="M54.9735 14.0884V27.2714C52.7277 25.2359 50.0375 25.2461 47.561 26.8915C47.2862 27.0747 46.9843 27.1866 46.6349 27.6073C46.3669 27.9329 45.7596 29.3781 45.6646 29.4188C45.529 29.4765 44.4332 29.4087 44.1482 29.4188C44.0838 29.4188 44.1957 29.5613 43.9379 29.5885C44.2229 28.5063 44.7385 27.5157 45.3695 26.5963C46.4313 25.0561 48.3583 24.0248 48.2327 21.9622C56.1236 21.3516 48.4939 19.021 46.0005 18.3832C38.0384 16.3444 28.8008 16.3918 21.1475 19.5638C20.5809 19.7979 17.3581 21.3007 17.1037 21.5857C16.8492 21.8706 17.219 22.4508 16.7237 21.8808L17.0596 29.5036L14.5729 29.4188C14.4745 29.3713 13.9724 27.4953 13.4364 27.6514C11.5265 25.3038 7.83212 25.1036 5.47437 26.8949C4.07329 27.9601 3.14716 29.775 3.78833 31.5289C2.8147 31.5561 2.01069 31.4441 1.22025 30.8538C2.0073 30.9488 2.61794 31.5052 3.53729 31.2745C3.31 30.579 3.42873 30.0804 3.36767 29.4222H0.714775C0.674066 27.8413 0.633357 27.6005 1.30506 26.2198C4.57198 26.5251 8.03906 24.0045 2.06158 25.0392C4.08686 23.0885 7.04847 22.9528 9.6844 22.5966C9.80992 22.5797 9.6844 22.5966 10.485 22.4304C10.7293 22.505 14.2642 22.1251 14.6543 22.0097C16.1131 21.5755 18.7287 19.8352 20.3842 19.1465C29.0926 15.52 39.0155 15.4521 48.0156 18.1356C50.2886 18.8141 52.4733 19.9268 54.7564 20.4933L54.8819 14.007C54.9091 14.0205 54.9803 13.9968 54.9667 14.0918L54.9735 14.0884Z" fill="#EBEBEB"/>
<path d="M15.6726 22.8476C16.2256 22.8204 16.5072 23.8653 16.3884 24.2385C16.1883 24.8796 14.3428 24.805 13.9459 24.2385C13.8678 23.8585 15.3368 22.8645 15.6726 22.8476Z" fill="#E81B27"/>
<path d="M43.9384 29.5884C43.9112 29.5884 43.8807 29.5884 43.8535 29.5884C44.0096 28.669 44.4574 27.7259 44.9493 26.9355C45.9636 25.3003 48.3858 23.8993 47.9414 21.9215L33.6185 22.0911L33.493 29.3373V29.4222L33.2827 22.1759L16.9413 22.6814L17.0668 29.4222V29.507L16.731 21.8841C17.2263 22.4541 16.8531 21.8774 17.1109 21.589C17.3687 21.3006 20.5882 19.8012 21.1547 19.5671C28.8047 16.3952 38.0423 16.3477 46.0077 18.3865C48.5046 19.0243 56.1308 21.3549 48.24 21.9656C48.3621 24.0248 46.4386 25.0595 45.3768 26.5996C44.7424 27.5156 44.2301 28.5062 43.9451 29.5918L43.9384 29.5884Z" fill="#44505B"/>
<path d="M37.1566 17.7081C40.5627 17.9558 43.9788 18.4443 47.222 19.5197L45.9159 21.5009L35.9761 21.6705L37.1566 17.7115V17.7081Z" fill="#3CBDD1"/>
<path d="M30.4599 17.9625L27.0912 21.9215C25.7444 21.9792 24.3942 21.9724 23.0474 22.0063L25.8258 18.8887C27.3456 18.4985 28.8858 18.1084 30.4599 17.9625Z" fill="#8DD4E4"/>
<path d="M27.0888 21.9217L30.4575 17.9627C30.7188 17.9389 32.9747 17.7829 32.9849 17.922L30.5831 21.8402C29.4127 21.786 28.2524 21.8742 27.0854 21.925L27.0888 21.9217Z" fill="#3CBDD1"/>
<path d="M25.826 18.8885L23.0476 22.0062C21.8738 22.0333 20.6865 22.1317 19.5093 22.1317C20.1301 21.6839 20.9612 20.5882 21.5719 20.2354C22.4573 19.7231 24.7608 19.1633 25.826 18.8885Z" fill="#3CBDD1"/>
<circle cx="51.0636" cy="30.9333" r="4.49089" fill="#44505B"/>
<path d="M50.3804 27.8175C55.408 27.0542 55.33 34.6465 50.4652 33.968C47.1101 33.4998 47.0863 28.3162 50.3804 27.8175Z" fill="#EBEBEB"/>
<path d="M48.9487 29.0829C49.0437 29.0727 49.824 29.8259 49.8341 29.8835C49.8409 29.931 49.5153 30.7486 49.4542 30.769C49.3931 30.7893 48.4331 30.6129 48.2329 30.6435C48.3381 30.0769 48.4975 29.4866 48.9487 29.0863V29.0829Z" fill="#44505B"/>
<path d="M53.0782 29.083C53.3496 29.0626 54.0078 30.5044 53.7533 30.6842C52.0809 30.9149 51.8298 29.9989 53.0782 29.083Z" fill="#44505B"/>
<path d="M51.8969 32.0311C52.1004 32.0311 52.6636 32.774 52.8671 32.9165C52.46 33.3439 51.8765 33.5814 51.31 33.6323C51.2591 33.5882 51.2353 32.3839 51.2693 32.3262C51.2862 32.2957 51.8663 32.0311 51.9003 32.0311H51.8969Z" fill="#44505B"/>
<path d="M50.1295 32.031C50.1702 32.0276 50.8283 32.3736 50.8453 32.4109C50.8792 32.4957 50.8521 33.5949 50.8046 33.6322C50.2312 33.5542 49.7224 33.3201 49.2474 33.0012C49.2271 32.9232 50.0684 32.0411 50.1329 32.031H50.1295Z" fill="#44505B"/>
<path d="M52.5713 31.02C52.6833 30.9725 53.7112 30.9792 53.7926 31.1455C53.8876 31.4203 53.3312 32.6178 53.1616 32.6212C53.053 32.455 52.2965 31.8307 52.2762 31.7358C52.2558 31.6306 52.4865 31.0539 52.5713 31.02Z" fill="#44505B"/>
<path d="M48.2766 31.1048C49.8813 30.8911 50.2375 31.6103 49.0332 32.6212C48.6125 32.6755 48.124 31.193 48.2766 31.1048Z" fill="#44505B"/>
<path d="M50.5501 28.1567C50.6349 28.1567 50.7944 28.1228 50.8453 28.1974C51.405 30.3924 49.1423 29.3203 49.3288 28.7029C49.3594 28.6012 50.4178 28.15 50.5501 28.1567Z" fill="#44505B"/>
<path d="M51.3098 28.1568C51.5575 28.1636 52.8296 28.5435 52.7855 28.8726C51.7983 30.0328 51.0079 29.7953 51.3098 28.1568Z" fill="#44505B"/>
<path d="M50.9705 29.9244C51.5099 30.189 51.2521 30.8098 52.0222 30.725L51.5574 30.8505C51.3131 30.9896 51.5574 31.8411 50.8009 31.5256C50.7873 30.9862 50.3565 30.8505 50.3361 30.8098C50.3124 30.7623 50.9298 30.1076 50.9671 29.9244H50.9705Z" fill="#90648C"/>
<path d="M33.4926 29.419H17.063L16.9375 22.6816L33.2789 22.1761L33.4926 29.419Z" fill="#EBEBEB"/>
<path d="M28.8147 23.5227C29.3236 23.4277 31.5728 23.2886 31.2166 24.1537C31.1216 24.3844 28.4008 24.6388 28.2685 24.1537C28.16 23.7534 28.4721 23.5871 28.8147 23.5227Z" fill="#44505B"/>
<path d="M43.8537 29.5884C43.4771 29.6223 43.6264 29.3577 43.3889 29.3373C40.2577 29.0388 36.6651 29.5612 33.4897 29.3373L33.6153 22.0911L47.9382 21.9214C48.386 23.8992 45.9638 25.3003 44.946 26.9355C44.4541 27.7293 44.0063 28.669 43.8503 29.5884H43.8537Z" fill="#EBEBEB"/>
<path d="M44.7388 23.0172C45.2172 22.9697 46.7912 22.8306 46.4656 23.6482C46.3536 23.9298 43.7584 24.113 43.6023 23.733C43.3174 23.041 44.2978 23.0613 44.7388 23.0172Z" fill="#44505B"/>
</svg>
