<svg width="32" height="32" viewBox="0 0 32 32" fill="none" xmlns="http://www.w3.org/2000/svg">
<path d="M25.6855 8.27631H27.461C27.7535 8.27631 27.6038 9.15957 27.5324 9.5668C27.461 9.97404 25.6855 8.27631 25.6855 8.27631Z" fill="#FF7043"/>
<path d="M27.6337 8.73857C27.6383 8.50193 27.6061 8.30932 27.491 8.2818C27.4818 8.2818 27.4702 8.27905 27.461 8.27905H25.6855C25.6855 8.27905 25.9043 8.48817 26.1899 8.74132H27.636L27.6337 8.73857Z" fill="#FF8C68"/>
<path d="M27.4661 9.71261C27.1046 9.71261 25.99 8.67525 25.6423 8.34231C25.6193 8.3203 25.61 8.28453 25.6193 8.24876C25.6285 8.21299 25.6561 8.19373 25.6837 8.19373H27.4592C27.5237 8.19373 27.5813 8.22399 27.6204 8.28453C27.7632 8.4964 27.6941 9.03296 27.5974 9.58328C27.5882 9.64106 27.5582 9.68234 27.5122 9.7016C27.4984 9.7071 27.4799 9.70985 27.4592 9.70985L27.4661 9.71261ZM25.8864 8.35882C26.5726 8.99719 27.328 9.59979 27.4661 9.54751C27.5099 9.29712 27.6365 8.56794 27.5168 8.38909C27.503 8.36708 27.4869 8.35882 27.4638 8.35882H25.8864Z" fill="#37474F"/>
<path d="M4.69101 17.34C3.71001 17.34 2.91553 18.757 2.91553 20.5043C2.91553 22.2516 3.71001 23.6686 4.69101 23.6686H6.68296V17.3372H4.69101V17.34Z" fill="#45545B"/>
<path d="M6.68306 23.7539H4.69111C3.67326 23.7539 2.84424 22.2956 2.84424 20.5043C2.84424 18.713 3.67326 17.2546 4.69111 17.2546H6.68306C6.72221 17.2546 6.75215 17.2932 6.75215 17.3372V23.6686C6.75215 23.7154 6.71991 23.7512 6.68306 23.7512V23.7539ZM4.69111 17.4225C3.74925 17.4225 2.98471 18.8065 2.98471 20.5043C2.98471 22.202 3.75155 23.5861 4.69111 23.5861H6.61398V17.4197H4.69111V17.4225Z" fill="#37474F"/>
<path d="M6.68271 23.6688C7.66329 23.6688 8.4582 22.252 8.4582 20.5044C8.4582 18.7568 7.66329 17.3401 6.68271 17.3401C5.70214 17.3401 4.90723 18.7568 4.90723 20.5044C4.90723 22.252 5.70214 23.6688 6.68271 23.6688Z" fill="#37474F"/>
<path d="M6.6833 23.7539C5.66545 23.7539 4.83643 22.2956 4.83643 20.5043C4.83643 18.713 5.66545 17.2546 6.6833 17.2546C7.70115 17.2546 8.53017 18.713 8.53017 20.5043C8.53017 22.2956 7.70115 23.7539 6.6833 23.7539ZM6.6833 17.4225C5.74144 17.4225 4.9769 18.8065 4.9769 20.5043C4.9769 22.202 5.74374 23.5861 6.6833 23.5861C7.62285 23.5861 8.3897 22.202 8.3897 20.5043C8.3897 18.8065 7.62285 17.4225 6.6833 17.4225Z" fill="#37474F"/>
<path d="M18.9317 17.3922C17.9507 17.3922 17.1562 18.8093 17.1562 20.5566C17.1562 22.3038 17.9507 23.7209 18.9317 23.7209H20.9237V17.3895H18.9317V17.3922Z" fill="#45545B"/>
<path d="M20.9238 23.8062H18.9318C17.914 23.8062 17.085 22.3479 17.085 20.5566C17.085 18.7653 17.914 17.3069 18.9318 17.3069H20.9238C20.9629 17.3069 20.9929 17.3455 20.9929 17.3895V23.7209C20.9929 23.7677 20.9606 23.8035 20.9238 23.8035V23.8062ZM18.9318 17.4748C17.99 17.4748 17.2254 18.8588 17.2254 20.5566C17.2254 22.2543 17.9923 23.6384 18.9318 23.6384H20.8547V17.472H18.9318V17.4748Z" fill="#37474F"/>
<path d="M20.9234 23.7237C21.904 23.7237 22.6989 22.307 22.6989 20.5594C22.6989 18.8117 21.904 17.395 20.9234 17.395C19.9429 17.395 19.1479 18.8117 19.1479 20.5594C19.1479 22.307 19.9429 23.7237 20.9234 23.7237Z" fill="#37474F"/>
<path d="M20.924 23.8062C19.9062 23.8062 19.0771 22.3479 19.0771 20.5566C19.0771 18.7653 19.9062 17.3069 20.924 17.3069C21.9419 17.3069 22.7709 18.7653 22.7709 20.5566C22.7709 22.3479 21.9419 23.8062 20.924 23.8062ZM20.924 17.4748C19.9822 17.4748 19.2176 18.8588 19.2176 20.5566C19.2176 22.2543 19.9845 23.6384 20.924 23.6384C21.8636 23.6384 22.6304 22.2543 22.6304 20.5566C22.6304 18.8588 21.8636 17.4748 20.924 17.4748Z" fill="#37474F"/>
<path d="M18.0837 16.7485H12.8931V22.0646H18.0837V16.7485Z" fill="#37474F"/>
<path d="M18.0844 22.1499H12.8938C12.8546 22.1499 12.8247 22.1114 12.8247 22.0673V16.7512C12.8247 16.7045 12.8569 16.6687 12.8938 16.6687H18.0844C18.1235 16.6687 18.1535 16.7072 18.1535 16.7512V22.0673C18.1535 22.1141 18.1212 22.1499 18.0844 22.1499ZM12.9629 21.982H18.0153V16.831H12.9629V21.982Z" fill="#37474F"/>
<path d="M13.6349 17.34C12.6539 17.34 11.8594 18.757 11.8594 20.5043C11.8594 22.2516 12.6539 23.6686 13.6349 23.6686H15.6268V17.3372H13.6349V17.34Z" fill="#37474F"/>
<path d="M15.6298 23.7539H13.6379C12.62 23.7539 11.791 22.2956 11.791 20.5043C11.791 18.713 12.62 17.2546 13.6379 17.2546H15.6298C15.669 17.2546 15.6989 17.2932 15.6989 17.3372V23.6686C15.6989 23.7154 15.6667 23.7512 15.6298 23.7512V23.7539ZM13.6356 17.4225C12.6937 17.4225 11.9292 18.8065 11.9292 20.5043C11.9292 22.202 12.696 23.5861 13.6356 23.5861H15.5585V17.4197H13.6356V17.4225Z" fill="#37474F"/>
<path d="M15.629 23.6688C16.6096 23.6688 17.4045 22.252 17.4045 20.5044C17.4045 18.7568 16.6096 17.3401 15.629 17.3401C14.6484 17.3401 13.8535 18.7568 13.8535 20.5044C13.8535 22.252 14.6484 23.6688 15.629 23.6688Z" fill="#546E7A"/>
<path d="M15.6291 23.7539C14.6112 23.7539 13.7822 22.2956 13.7822 20.5043C13.7822 18.713 14.6112 17.2546 15.6291 17.2546C16.647 17.2546 17.476 18.713 17.476 20.5043C17.476 22.2956 16.647 23.7539 15.6291 23.7539ZM15.6291 17.4225C14.6872 17.4225 13.9227 18.8065 13.9227 20.5043C13.9227 22.202 14.6895 23.5861 15.6291 23.5861C16.5687 23.5861 17.3355 22.202 17.3355 20.5043C17.3355 18.8065 16.5687 17.4225 15.6291 17.4225Z" fill="#37474F"/>
<path d="M15.6291 23.1432C14.8393 23.1432 14.1968 21.96 14.1968 20.5072C14.1968 19.0543 14.8393 17.8712 15.6291 17.8712C16.419 17.8712 17.0615 19.0543 17.0615 20.5072C17.0615 21.96 16.419 23.1432 15.6291 23.1432Z" fill="#ECEFF1"/>
<path d="M15.6294 17.9509C16.3824 17.9509 16.9927 19.0956 16.9927 20.5044C16.9927 21.9132 16.3824 23.0579 15.6294 23.0579C14.8764 23.0579 14.2661 21.9132 14.2661 20.5044C14.2661 19.0956 14.8764 17.9509 15.6294 17.9509ZM15.6294 17.7858C15.2172 17.7858 14.8326 18.0775 14.5493 18.6113C14.2776 19.1204 14.1279 19.7945 14.1279 20.5072C14.1279 21.2198 14.2776 21.894 14.5493 22.403C14.8326 22.9341 15.2172 23.2285 15.6294 23.2285C16.0416 23.2285 16.4262 22.9368 16.7094 22.403C16.9811 21.894 17.1308 21.2198 17.1308 20.5072C17.1308 19.7945 16.9811 19.1204 16.7094 18.6113C16.4262 18.0802 16.0416 17.7858 15.6294 17.7858Z" fill="#37474F"/>
<path d="M16.866 20.5044C16.866 19.1864 16.311 18.1215 15.6271 18.1215C14.9432 18.1215 14.3882 19.1891 14.3882 20.5044C14.3882 21.8197 14.9432 22.8873 15.6271 22.8873C16.311 22.8873 16.866 21.8197 16.866 20.5044Z" fill="#CED6DB"/>
<path d="M16.341 21.1208C16.1637 21.9022 15.4774 22.1581 15.2103 21.9903C14.9432 21.8224 15.0307 22.4333 15.4152 22.4938C15.7998 22.5543 16.1706 22.3672 16.4768 21.8609C16.7831 21.3546 16.8545 20.7796 16.6565 20.7383C16.4607 20.697 16.3916 20.8841 16.3387 21.118L16.341 21.1208Z" fill="#EBEFF1"/>
<path d="M16.8616 20.741C16.8662 20.6639 16.8685 20.5841 16.8685 20.5071C16.8685 19.1891 16.3135 18.1242 15.6295 18.1242C14.9456 18.1242 14.3906 19.1918 14.3906 20.5071C14.3906 20.7602 14.4114 21.0051 14.4505 21.2363C15.1137 20.1164 16.325 19.7256 16.8616 20.7437V20.741Z" fill="#B7C2CA"/>
<path d="M15.8277 20.7108L16.5784 20.9557C16.6475 20.9887 16.6866 21.1263 16.6613 21.2501C16.6429 21.3409 16.6198 21.4317 16.5945 21.517C16.5692 21.6023 16.5392 21.6848 16.5093 21.7646C16.4655 21.8692 16.3826 21.8802 16.332 21.7866L15.7148 21.085C15.6273 20.9254 15.7079 20.653 15.8277 20.708V20.7108ZM15.8254 20.2788L16.5738 20.0036C16.6429 19.9678 16.6797 19.8275 16.6521 19.7037C16.6313 19.6129 16.6083 19.5248 16.5807 19.4395C16.553 19.3542 16.5231 19.2744 16.4909 19.1974C16.4471 19.0928 16.3619 19.0901 16.3136 19.1836L15.7079 19.9046C15.6227 20.0697 15.7079 20.3366 15.8254 20.276V20.2788ZM15.5053 19.6982L15.8691 18.7241C15.8875 18.5948 15.8415 18.4655 15.7701 18.449C15.7171 18.4352 15.6665 18.4297 15.6135 18.4325C15.5605 18.4325 15.5076 18.4435 15.4569 18.4572C15.3878 18.4792 15.3418 18.6113 15.3625 18.7379L15.2773 19.7064C15.3095 19.9266 15.4776 19.9211 15.5076 19.7009L15.5053 19.6982ZM15.0769 19.9238L14.9249 19.2222C14.8743 19.1286 14.7914 19.1396 14.7476 19.2442C14.7154 19.3212 14.6878 19.4038 14.6624 19.4918C14.6371 19.5771 14.6141 19.6679 14.5956 19.7587C14.5703 19.8825 14.6095 20.0201 14.6785 20.0531L14.9664 20.298C15.0838 20.3531 15.1667 20.0807 15.0792 19.9211L15.0769 19.9238ZM14.9687 20.7328L14.6854 21.0079C14.6164 21.0437 14.5795 21.184 14.6072 21.3079C14.6279 21.3987 14.6509 21.4867 14.6785 21.572C14.7062 21.6573 14.7361 21.7371 14.7684 21.8142C14.8121 21.9187 14.8973 21.9215 14.9457 21.8279L15.0884 21.107C15.1737 20.9419 15.0884 20.675 14.971 20.7355L14.9687 20.7328ZM15.2888 21.3134L15.3901 22.2874C15.3717 22.4168 15.4178 22.5461 15.4891 22.5626C15.5421 22.5764 15.5928 22.5819 15.6457 22.5791C15.6987 22.5791 15.7517 22.5681 15.8023 22.5543C15.8714 22.5323 15.9175 22.4003 15.8967 22.2737L15.5191 21.3051C15.4868 21.085 15.3187 21.0905 15.2888 21.3106V21.3134Z" fill="#546E7A"/>
<path d="M14.6065 21.305C14.6273 21.3958 14.6503 21.4839 14.6779 21.5692C14.7033 21.6462 14.7309 21.7205 14.7608 21.792L14.8967 21.1014C14.9451 21.0078 14.9381 20.8785 14.9013 20.7987L14.6871 21.0051C14.618 21.0408 14.5812 21.1812 14.6088 21.305H14.6065Z" fill="#3C5A68"/>
<path d="M15.3277 21.3078C15.3231 21.2803 15.3162 21.2555 15.3093 21.2335C15.3001 21.2555 15.2932 21.283 15.2886 21.3133L15.3899 22.2874C15.3715 22.4167 15.4175 22.546 15.4889 22.5625C15.505 22.5653 15.5212 22.568 15.5373 22.5708C15.5626 22.5653 15.5879 22.5598 15.611 22.5543C15.6801 22.5323 15.7261 22.4002 15.7054 22.2736L15.3277 21.3051V21.3078Z" fill="#3C5A68"/>
<path d="M16.3869 20.9556L15.7305 20.741C15.6753 20.8153 15.6546 20.9776 15.7144 21.0877L16.3155 21.7701C16.3155 21.7701 16.3155 21.7701 16.3155 21.7646C16.3477 21.6875 16.3753 21.605 16.4007 21.5169C16.426 21.4316 16.449 21.3408 16.4674 21.25C16.4928 21.1262 16.4536 20.9886 16.3845 20.9556H16.3869Z" fill="#3C5A68"/>
<path d="M16.2992 19.2029L15.7074 19.91C15.6498 20.0201 15.6705 20.1742 15.7235 20.2485L16.3821 20.0063C16.4512 19.9706 16.488 19.8302 16.4604 19.7064C16.4397 19.6156 16.4166 19.5276 16.389 19.4423C16.3614 19.3597 16.3314 19.2772 16.2992 19.2029Z" fill="#3C5A68"/>
<path d="M14.6779 20.0559L14.8898 20.2375C14.9289 20.1549 14.9381 20.0201 14.8852 19.9238L14.7401 19.2607C14.7102 19.335 14.6825 19.412 14.6595 19.4918C14.6342 19.5771 14.6111 19.6679 14.5927 19.7587C14.5674 19.8825 14.6065 20.0201 14.6756 20.0531L14.6779 20.0559Z" fill="#3C5A68"/>
<path d="M15.3591 18.7378L15.2739 19.7064C15.2785 19.7339 15.2854 19.7587 15.2923 19.7807C15.3016 19.7587 15.3085 19.7312 15.3131 19.7009L15.6769 18.7268C15.6953 18.5975 15.6493 18.4682 15.5779 18.4517C15.5618 18.4489 15.5457 18.4462 15.5295 18.4434C15.5042 18.4489 15.4789 18.4544 15.4558 18.4599C15.3868 18.4819 15.3407 18.614 15.3614 18.7406L15.3591 18.7378Z" fill="#3C5A68"/>
<path d="M30.3815 21.1235H28.8985C28.8985 21.1235 26.4276 22.0646 26.3654 22.0646C26.3032 22.0646 25.8242 18.7242 25.8242 18.6691C25.8242 18.6141 28.2583 16.5284 28.2583 16.5284L30.3815 17.3401C30.3815 17.3401 30.8145 20.1 30.7983 20.1412C30.7822 20.1825 30.3815 21.1235 30.3815 21.1235Z" fill="#37474F"/>
<path d="M26.3651 22.1498C26.2891 22.1498 26.2684 22.1498 26.0036 20.4053C25.9 19.7202 25.7549 18.7186 25.7549 18.6718C25.7549 18.614 25.7549 18.5948 27.0007 17.5134C27.6018 16.9906 28.212 16.4678 28.2189 16.4623C28.2373 16.4458 28.2604 16.443 28.2811 16.4513L30.4043 17.263C30.4296 17.2713 30.4458 17.296 30.4504 17.3263C30.8879 20.1109 30.8741 20.1467 30.8626 20.1769C30.8464 20.2182 30.4849 21.0657 30.4435 21.162C30.4319 21.1895 30.4066 21.206 30.3813 21.206H28.9098C27.7791 21.6353 26.425 22.1471 26.3651 22.1471V22.1498ZM25.8977 18.6993C25.9368 19.0323 26.3053 21.5527 26.4066 21.9682C26.6829 21.8774 27.9932 21.3821 28.8775 21.0437C28.8844 21.0437 28.8913 21.0409 28.8983 21.0409H30.3398C30.4872 20.697 30.6899 20.221 30.729 20.1247C30.7129 19.9376 30.4826 18.4324 30.3214 17.4061L28.2719 16.6219C27.383 17.3841 26.075 18.515 25.8977 18.6993Z" fill="#37474F"/>
<path d="M26.4415 17.34C25.4605 17.34 24.666 18.757 24.666 20.5043C24.666 22.2516 25.4605 23.6686 26.4415 23.6686H28.4335V17.3372H26.4415V17.34Z" fill="#37474F"/>
<path d="M28.4331 23.7539H26.4411C25.4233 23.7539 24.5942 22.2956 24.5942 20.5043C24.5942 18.713 25.4233 17.2546 26.4411 17.2546H28.4331C28.4722 17.2546 28.5021 17.2932 28.5021 17.3372V23.6686C28.5021 23.7154 28.4699 23.7512 28.4331 23.7512V23.7539ZM26.4411 17.4225C25.4993 17.4225 24.7347 18.8065 24.7347 20.5043C24.7347 22.202 25.5016 23.5861 26.4411 23.5861H28.364V17.4197H26.4411V17.4225Z" fill="#37474F"/>
<path d="M28.4332 23.6688C29.4138 23.6688 30.2087 22.252 30.2087 20.5044C30.2087 18.7568 29.4138 17.3401 28.4332 17.3401C27.4526 17.3401 26.6577 18.7568 26.6577 20.5044C26.6577 22.252 27.4526 23.6688 28.4332 23.6688Z" fill="#546E7A"/>
<path d="M28.4333 23.7539C27.4154 23.7539 26.5864 22.2956 26.5864 20.5043C26.5864 18.713 27.4154 17.2546 28.4333 17.2546C29.4512 17.2546 30.2802 18.713 30.2802 20.5043C30.2802 22.2956 29.4512 23.7539 28.4333 23.7539ZM28.4333 17.4225C27.4914 17.4225 26.7269 18.8065 26.7269 20.5043C26.7269 22.202 27.4937 23.5861 28.4333 23.5861C29.3729 23.5861 30.1397 22.202 30.1397 20.5043C30.1397 18.8065 29.3729 17.4225 28.4333 17.4225Z" fill="#37474F"/>
<path d="M28.4333 23.1432C27.6435 23.1432 27.001 21.96 27.001 20.5072C27.001 19.0543 27.6435 17.8712 28.4333 17.8712C29.2232 17.8712 29.8657 19.0543 29.8657 20.5072C29.8657 21.96 29.2232 23.1432 28.4333 23.1432Z" fill="#ECEFF1"/>
<path d="M28.4331 17.9509C29.1861 17.9509 29.7964 19.0956 29.7964 20.5044C29.7964 21.9132 29.1861 23.0579 28.4331 23.0579C27.6801 23.0579 27.0698 21.9132 27.0698 20.5044C27.0698 19.0956 27.6801 17.9509 28.4331 17.9509ZM28.4331 17.7858C28.0209 17.7858 27.6363 18.0775 27.3531 18.6113C27.0813 19.1204 26.9316 19.7945 26.9316 20.5072C26.9316 21.2198 27.0813 21.894 27.3531 22.403C27.6363 22.9341 28.0209 23.2285 28.4331 23.2285C28.8453 23.2285 29.2299 22.9368 29.5131 22.403C29.7849 21.894 29.9345 21.2198 29.9345 20.5072C29.9345 19.7945 29.7849 19.1204 29.5131 18.6113C29.2299 18.0802 28.8453 17.7858 28.4331 17.7858Z" fill="#37474F"/>
<path d="M28.4333 22.8873C29.1175 22.8873 29.6722 21.8204 29.6722 20.5044C29.6722 19.1884 29.1175 18.1215 28.4333 18.1215C27.749 18.1215 27.1943 19.1884 27.1943 20.5044C27.1943 21.8204 27.749 22.8873 28.4333 22.8873Z" fill="#CED6DB"/>
<path d="M29.1466 21.1208C28.9693 21.9022 28.2831 22.1581 28.016 21.9903C27.7488 21.8224 27.8363 22.4333 28.2209 22.4938C28.6055 22.5543 28.9762 22.3672 29.2825 21.8609C29.5888 21.3546 29.6602 20.7796 29.4621 20.7383C29.2664 20.697 29.1973 20.8841 29.1443 21.118L29.1466 21.1208Z" fill="#EBEFF1"/>
<path d="M29.6653 20.741C29.6699 20.6639 29.6722 20.5841 29.6722 20.5071C29.6722 19.1891 29.1172 18.1242 28.4333 18.1242C27.7493 18.1242 27.1943 19.1918 27.1943 20.5071C27.1943 20.7602 27.2151 21.0051 27.2542 21.2363C27.9174 20.1164 29.1287 19.7256 29.6653 20.7437V20.741Z" fill="#B7C2CA"/>
<path d="M28.6333 20.7108L29.384 20.9557C29.4531 20.9887 29.4923 21.1263 29.4669 21.2501C29.4485 21.3409 29.4255 21.4317 29.4002 21.517C29.3748 21.6023 29.3449 21.6848 29.315 21.7646C29.2712 21.8692 29.1883 21.8802 29.1376 21.7866L28.5205 21.085C28.433 20.9254 28.5136 20.653 28.6333 20.708V20.7108ZM28.6287 20.2788L29.3771 20.0036C29.4462 19.9678 29.4831 19.8275 29.4554 19.7037C29.4347 19.6129 29.4117 19.5248 29.384 19.4395C29.3564 19.3542 29.3265 19.2744 29.2942 19.1974C29.2505 19.0928 29.1653 19.0901 29.1169 19.1836L28.5113 19.9046C28.4261 20.0697 28.5113 20.3366 28.6287 20.276V20.2788ZM28.3109 19.6982L28.6748 18.7241C28.6932 18.5948 28.6471 18.4655 28.5757 18.449C28.5228 18.4352 28.4721 18.4297 28.4192 18.4325C28.3662 18.4325 28.3132 18.4435 28.2626 18.4572C28.1935 18.4792 28.1474 18.6113 28.1681 18.7379L28.0829 19.7064C28.1152 19.9266 28.2833 19.9211 28.3132 19.7009L28.3109 19.6982ZM27.8826 19.9238L27.7306 19.2222C27.6799 19.1286 27.597 19.1396 27.5533 19.2442C27.521 19.3212 27.4934 19.4038 27.4681 19.4918C27.4428 19.5799 27.4197 19.6679 27.4013 19.7587C27.376 19.8825 27.4151 20.0201 27.4842 20.0531L27.7721 20.298C27.8895 20.3531 27.9724 20.0807 27.8849 19.9211L27.8826 19.9238ZM27.7744 20.7328L27.4911 21.0079C27.422 21.0437 27.3852 21.184 27.4128 21.3079C27.4335 21.3987 27.4566 21.4867 27.4842 21.572C27.5118 21.6573 27.5418 21.7371 27.574 21.8142C27.6178 21.9187 27.703 21.9215 27.7513 21.8279L27.8941 21.107C27.9793 20.9419 27.8941 20.675 27.7767 20.7355L27.7744 20.7328ZM28.0945 21.3134L28.1958 22.2874C28.1774 22.4168 28.2234 22.5461 28.2948 22.5626C28.3478 22.5764 28.3984 22.5819 28.4514 22.5791C28.5044 22.5791 28.5573 22.5681 28.608 22.5543C28.6771 22.5323 28.7231 22.4003 28.7024 22.2737L28.3247 21.3051C28.2925 21.085 28.1244 21.0905 28.0945 21.3106V21.3134Z" fill="#546E7A"/>
<path d="M27.4132 21.305C27.4339 21.3958 27.4569 21.4839 27.4846 21.5692C27.5099 21.6462 27.5375 21.7205 27.5675 21.792L27.7033 21.1014C27.7517 21.0078 27.7448 20.8785 27.7079 20.7987L27.4938 21.0051C27.4247 21.0408 27.3878 21.1812 27.4155 21.305H27.4132Z" fill="#3C5A68"/>
<path d="M28.1314 21.3078C28.1268 21.2803 28.1199 21.2555 28.113 21.2335C28.1038 21.2555 28.0969 21.283 28.0923 21.3133L28.1936 22.2874C28.1752 22.4167 28.2212 22.546 28.2926 22.5625C28.3088 22.5653 28.3249 22.568 28.341 22.5708C28.3663 22.5653 28.3917 22.5598 28.4147 22.5543C28.4838 22.5323 28.5298 22.4002 28.5091 22.2736L28.1314 21.3051V21.3078Z" fill="#3C5A68"/>
<path d="M29.193 20.9556L28.5367 20.741C28.4814 20.8153 28.4607 20.9776 28.5206 21.0877L29.1216 21.7701C29.1216 21.7701 29.1216 21.7701 29.1216 21.7646C29.1539 21.6875 29.1815 21.605 29.2068 21.5169C29.2322 21.4289 29.2552 21.3408 29.2736 21.25C29.2989 21.1262 29.2598 20.9886 29.1907 20.9556H29.193Z" fill="#3C5A68"/>
<path d="M29.1029 19.2029L28.5111 19.91C28.4535 20.0201 28.4742 20.1742 28.5272 20.2485L29.1858 20.0063C29.2549 19.9706 29.2917 19.8302 29.2641 19.7064C29.2434 19.6156 29.2204 19.5276 29.1927 19.4423C29.1651 19.3597 29.1351 19.2772 29.1029 19.2029Z" fill="#3C5A68"/>
<path d="M27.4816 20.0559L27.6935 20.2375C27.7326 20.1549 27.7418 20.0201 27.6889 19.9238L27.5438 19.2607C27.5139 19.335 27.4862 19.412 27.4632 19.4918C27.4379 19.5771 27.4148 19.6679 27.3964 19.7587C27.3711 19.8825 27.4102 20.0201 27.4793 20.0531L27.4816 20.0559Z" fill="#3C5A68"/>
<path d="M28.1658 18.7378L28.0806 19.7064C28.0852 19.7339 28.0921 19.7587 28.099 19.7807C28.1082 19.7587 28.1151 19.7312 28.1197 19.7009L28.4836 18.7268C28.502 18.5975 28.4559 18.4682 28.3845 18.4517C28.3684 18.4489 28.3523 18.4462 28.3362 18.4434C28.3108 18.4489 28.2855 18.4544 28.2625 18.4599C28.1934 18.4819 28.1473 18.614 28.1681 18.7406L28.1658 18.7378Z" fill="#3C5A68"/>
<path d="M1.92529 22.0645C2.19242 22.4112 2.11182 22.6313 2.11182 22.6313H12.8522C12.8522 22.6313 13.0733 22.48 13.0733 22.0645H1.92529Z" fill="#546E7A"/>
<path d="M12.852 22.7167H2.11157C2.08854 22.7167 2.06551 22.7029 2.054 22.6782C2.04018 22.6534 2.04018 22.6259 2.04939 22.5984C2.04939 22.5984 2.10236 22.414 1.87668 22.1196C1.85826 22.0948 1.85365 22.059 1.86516 22.0288C1.87668 21.9985 1.90201 21.9792 1.92964 21.9792H13.0754C13.1145 21.9792 13.1444 22.0178 13.1444 22.0618C13.1444 22.5186 12.9003 22.6947 12.8888 22.7002C12.8773 22.7084 12.8658 22.7112 12.8543 22.7112L12.852 22.7167ZM2.19217 22.5488H12.829C12.8681 22.5131 12.9763 22.3947 12.9971 22.1471H2.07012C2.17144 22.3204 2.19217 22.458 2.19217 22.5488Z" fill="#37474F"/>
<path d="M8.41512 12.8552C11.4111 9.78993 13.5113 8.27655 16.3231 8.27655H25.562C26.4417 8.27655 27.1141 8.8021 27.554 9.60557C27.9478 10.3237 28.7146 12.1618 29.0025 13.1551C29.0508 13.323 29.1614 13.4495 29.2995 13.5128C29.638 13.6642 29.9397 14.1677 29.9397 14.9217V16.5286C31.3606 18.1795 31.0359 20.18 30.7572 20.8926C30.7019 21.0357 30.5799 21.1265 30.4486 21.1265H30.3819C30.6904 19.5031 29.9881 17.0019 28.5281 17.0019C27.0681 17.0019 26.3035 18.928 26.3519 21.6713C26.3565 21.8887 26.2091 22.0675 26.0249 22.0675H17.8936C17.7163 22.0675 17.5827 21.8749 17.6149 21.6658C17.9673 19.2609 17.0438 17.0019 15.5286 17.0019C14.0133 17.0019 13.2188 19.6104 13.3248 21.7208C13.334 21.9107 13.2096 22.0703 13.0507 22.0703H1.83592C1.69315 22.0703 1.55498 22.0098 1.44444 21.8997C0.98848 21.4319 0.997691 21.1348 0.997691 20.7138C0.997691 20.2432 0.926303 18.9665 1.27633 18.2208C1.60103 17.5274 2.08002 17.233 2.43466 17.1037C2.43466 16.347 2.49223 15.3537 4.04204 14.63C5.58263 13.9091 7.19462 13.2707 8.41282 12.858L8.41512 12.8552Z" fill="#FFF3E0"/>
<path d="M4.7991 16.2284C4.35005 16.2284 4.29709 15.6671 5.07775 15.1526C5.70412 14.7398 6.63446 14.2721 6.83711 14.1813C7.03976 14.0905 6.83711 14.0547 6.21304 14.3436C5.612 14.6243 3.94475 15.6038 3.91712 16.1569C3.88949 16.71 4.80141 16.2284 4.80141 16.2284H4.7991Z" fill="#FFE7C1"/>
<path d="M15.4816 13.2374C12.1079 13.9996 11.5207 14.8223 9.30076 16.11C8.92079 16.3302 4.20919 16.2229 3.84074 16.2036C3.52525 16.1871 3.7302 15.4744 3.65421 15.4387C3.57821 15.4029 2.00308 17.3758 2.43601 17.34C2.86894 17.3042 4.36809 17.34 4.90695 17.34H10.3462C11.2559 17.34 11.2996 17.3565 11.9444 17.0511C12.5892 16.7457 11.9375 15.7991 11.4125 16.0165C10.8874 16.2339 11.2052 15.3148 11.698 14.9681C12.9024 14.1179 14.3877 13.6556 15.7924 13.3557C17.0912 13.0778 16.1586 13.0888 15.4793 13.2401L15.4816 13.2374Z" fill="#FFE7C1"/>
<path d="M13.3245 21.7178C13.313 21.4977 13.3106 21.2721 13.3176 21.0437L13.2324 20.8978C13.2324 21.4372 12.5484 21.561 12.3826 21.2363C12.3665 21.2033 12.3504 21.1758 12.3342 21.151C12.2352 20.9088 12.1938 20.7603 12.1869 20.4301C12.1869 20.3255 12.0763 20.287 12.0257 20.3723C11.8737 20.6254 11.6181 20.8043 11.2105 20.8043C10.7269 20.8043 10.6002 20.708 10.5772 20.3448V19.8687C10.5772 19.3569 10.2295 18.9415 9.80113 18.9415H1.94156C1.54547 18.9415 1.21847 19.2964 1.17241 19.7532C1.16781 19.7229 1.1655 19.6899 1.1655 19.6596C1.1655 18.9112 1.44415 18.215 1.63068 17.9536C1.81721 17.6922 2.18796 17.3978 2.43437 17.3428C2.68077 17.2878 2.43437 17.1034 2.43437 17.1034C2.07973 17.2327 1.60074 17.5271 1.27604 18.2205C0.928313 18.9607 0.999701 20.2375 0.999701 20.708C0.999701 21.129 0.988187 21.4261 1.44645 21.8939C1.55468 22.004 1.69285 22.0645 1.83793 22.0645H13.0527C13.2116 22.0645 13.336 21.9049 13.3268 21.7178H13.3245Z" fill="#FFE7C1"/>
<path d="M15.4889 16.7485C13.5568 16.7485 13.0732 19.8688 13.0732 21.2748L13.315 21.1648C13.3473 19.1781 14.075 16.9961 15.5281 16.9961C16.5091 16.9961 17.2414 17.9399 17.5407 19.2579L17.7595 19.1589C17.7595 19.1589 17.421 16.7485 15.4912 16.7485H15.4889Z" fill="#FFE7C1"/>
<path d="M26.7035 18.1215H18.0886C17.9965 18.1215 17.9251 18.2261 17.9458 18.3334C18.0702 18.9828 17.4922 19.0708 17.4922 19.0708C17.658 20.0064 17.6833 19.877 17.6833 20.8979C17.6833 21.9187 25.7455 21.1455 25.7455 21.1455L26.7035 18.1215Z" fill="#FFE7C1"/>
<path d="M3.75805 16.1596C4.14953 14.8388 8.6769 12.8549 8.6769 12.8549H8.30384C8.30384 12.8549 4.37751 14.4151 3.91464 14.6875C3.44947 14.9599 3.75805 16.1596 3.75805 16.1596Z" fill="#FFFAF2"/>
<path d="M29.3012 13.5126C29.2713 13.4988 29.2437 13.4823 29.2183 13.463L17.6305 13.4575C15.5925 13.3364 12.2879 15.1085 12.0369 15.4607C11.7444 15.8707 11.422 17.3428 12.4445 16.4815C15.4888 13.917 17.1262 14.6269 29.923 14.6269C29.8562 14.0381 29.5937 13.6446 29.3012 13.5126Z" fill="#FFFAF2"/>
<path d="M30.4479 21.1234C30.5792 21.1234 30.7012 21.0326 30.7565 20.8896C31.0351 20.1796 31.3621 18.1765 29.939 16.5255V14.9186C29.939 14.1647 29.6396 13.6611 29.2988 13.5098C29.1606 13.4465 29.0501 13.3199 29.0017 13.1521C28.7139 12.1588 27.947 10.3234 27.5533 9.60252C27.1134 8.79905 26.441 8.2735 25.5613 8.2735H16.3223C13.5106 8.2735 11.4104 9.78688 8.41211 12.8522H27.1411C27.1411 12.8522 27.4427 13.7189 27.5026 14.1729C27.5625 14.6269 27.7352 15.7441 26.8164 16.6053C25.8975 17.4666 25.5268 18.2783 25.2251 19.4037C24.9234 20.5291 24.4836 20.6392 23.9701 20.6392H17.6856C17.6856 20.9721 17.6603 21.3161 17.6096 21.66C17.5797 21.8691 17.711 22.0617 17.8883 22.0617H26.0196C26.2015 22.0617 26.3489 21.8829 26.3466 21.6655C26.2982 18.9222 27.1295 16.9961 28.5228 16.9961C29.916 16.9961 30.6851 19.4973 30.3765 21.1207H30.4433L30.4479 21.1234Z" fill="#FF7043"/>
<path d="M29.6561 16.8888C29.2854 16.732 28.8778 16.7045 28.4817 16.7045C28.0856 16.7045 26.3193 17.0732 26.1789 19.8688C26.1167 21.107 26.0407 21.7344 26.0407 21.7344H18.0844C17.9462 21.7344 17.6814 21.6904 17.6353 21.5088C17.6284 21.561 17.6238 21.6133 17.6146 21.6656C17.5847 21.8747 17.7159 22.0673 17.8933 22.0673H26.0246C26.2065 22.0673 26.3539 21.8885 26.3516 21.6711C26.3032 18.9278 27.1345 17.0017 28.5277 17.0017C29.921 17.0017 30.6901 19.5029 30.3815 21.1263H30.4483C30.5796 21.1263 30.7016 21.0355 30.7569 20.8924C31.0355 20.1825 31.3625 18.1793 29.9394 16.5284C30.1789 17.0815 30.0246 17.0457 29.6538 16.8888H29.6561Z" fill="#E95C41"/>
<path d="M13.8348 8.74958C15.03 8.64502 18.5165 8.50744 19.0853 9.13205C19.3018 9.37144 17.266 11.4516 16.9114 12.1533C16.5568 12.855 16.9575 12.5413 17.3121 12.024C17.6667 11.5067 19.0484 9.76767 19.5896 9.29164C20.2183 8.73857 22.779 8.73857 24.1078 8.73857H26.406C25.9546 8.46066 25.4872 8.27631 24.9897 8.27631H16.3219C15.5159 8.27631 14.7698 8.40013 14.0421 8.65052C13.9707 8.68079 13.8993 8.71381 13.8325 8.74683L13.8348 8.74958Z" fill="#FF8C68"/>
<path d="M24.4028 8.73852C25.3608 8.73852 26.2451 9.47595 26.4823 10.0125C26.7195 10.5491 27.7097 10.5848 27.1847 9.60527C26.6596 8.6257 25.8697 8.50739 25.8697 8.50739L24.4028 8.73852Z" fill="#FF8C68"/>
<path d="M29.2183 13.4631H27.3369C27.4083 13.708 27.4797 13.9804 27.505 14.173C27.5211 14.2858 27.5419 14.4426 27.5534 14.627L29.9138 14.6132C29.9092 14.2418 29.6029 13.4603 29.2183 13.4603V13.4631Z" fill="#FF8C68"/>
<path d="M26.0266 22.1498H17.8953C17.7916 22.1498 17.6926 22.0948 17.6258 21.9985C17.5568 21.9022 17.5291 21.7756 17.5475 21.649C17.7594 20.2072 17.5084 18.7654 16.8912 17.8876C16.5205 17.362 16.0507 17.0814 15.5303 17.0814C15.0812 17.0814 14.6805 17.2988 14.342 17.728C13.5982 18.6718 13.3311 20.4081 13.3955 21.7123C13.4001 21.8279 13.3679 21.9352 13.3034 22.0205C13.2366 22.103 13.1491 22.1498 13.0524 22.1498H1.83531C1.67411 22.1498 1.51982 22.081 1.40008 21.9572C0.927995 21.4757 0.927995 21.151 0.930298 20.7382V20.708C0.930298 20.6502 0.930298 20.5787 0.927995 20.4989C0.918784 19.921 0.902664 18.8451 1.21815 18.1738C1.53825 17.4886 2.01033 17.1777 2.36727 17.0373C2.36727 16.366 2.41563 15.2956 4.0184 14.5472C5.43004 13.8868 7.06044 13.2264 8.38227 12.7779C11.2907 9.80616 13.4209 8.19373 16.3224 8.19373H25.5614C26.4135 8.19373 27.1227 8.667 27.6132 9.56127C28.0024 10.2712 28.7785 12.1285 29.0709 13.1273C29.1124 13.2677 29.2045 13.3805 29.3288 13.4355C29.6443 13.5786 30.0128 14.0519 30.0128 14.9214V16.4925C31.3922 18.116 31.1481 20.0999 30.8234 20.9254C30.7566 21.096 30.6092 21.206 30.4526 21.206H30.3858C30.3651 21.206 30.3444 21.195 30.3306 21.1757C30.3168 21.1565 30.3122 21.129 30.3168 21.1042C30.5217 20.0283 30.273 18.6498 29.7249 17.8298C29.3979 17.34 28.9834 17.0814 28.5321 17.0814C28.0807 17.0814 27.6915 17.285 27.3645 17.6867C26.7382 18.4517 26.395 19.9018 26.4273 21.6683C26.4273 21.7949 26.3904 21.9159 26.3144 22.0067C26.2384 22.0975 26.1394 22.1498 26.0312 22.1498H26.0266ZM15.528 16.9163C16.0899 16.9163 16.5988 17.2162 16.9949 17.7803C17.6374 18.6966 17.9022 20.1879 17.6811 21.6793C17.6696 21.7563 17.688 21.8334 17.7295 21.8939C17.7709 21.9517 17.8285 21.9847 17.893 21.9847H26.0243C26.0934 21.9847 26.1601 21.9517 26.2085 21.8912C26.2569 21.8334 26.2822 21.7536 26.2822 21.671C26.25 19.8632 26.6069 18.3664 27.2586 17.5712C27.6155 17.1364 28.0416 16.9163 28.5275 16.9163C29.0134 16.9163 29.4739 17.1969 29.8309 17.728C30.3858 18.559 30.6484 19.9348 30.4687 21.0409C30.5678 21.0327 30.6553 20.9611 30.6967 20.8566C31.0076 20.0641 31.2402 18.1517 29.8953 16.5888C29.8815 16.5723 29.8746 16.5531 29.8746 16.5283V14.9214C29.8746 14.1867 29.5752 13.7217 29.2805 13.5896C29.1193 13.5181 28.9949 13.3695 28.942 13.1824C28.6541 12.1945 27.885 10.3537 27.5004 9.65207C27.0375 8.80733 26.3674 8.36157 25.566 8.36157H16.327C13.4646 8.36157 11.3529 9.963 8.46287 12.9182C8.45596 12.9265 8.44675 12.932 8.43754 12.9347C7.11801 13.3805 5.4853 14.0436 4.07136 14.704C2.51004 15.4359 2.51004 16.4375 2.51004 17.1006C2.51004 17.1364 2.48932 17.1694 2.46168 17.1804C2.12547 17.3043 1.65799 17.5904 1.34251 18.2591C1.04544 18.8919 1.06156 19.9375 1.07077 20.4989C1.07077 20.5814 1.07307 20.6529 1.07307 20.7107V20.741C1.07307 21.14 1.07307 21.4014 1.49449 21.8334C1.58891 21.9297 1.71326 21.9847 1.83992 21.9847H13.0547C13.1123 21.9847 13.1653 21.9572 13.2044 21.9077C13.2436 21.8581 13.2643 21.7921 13.2597 21.7233C13.1791 20.0889 13.5636 18.4764 14.243 17.6152C14.6091 17.1502 15.0421 16.9163 15.5326 16.9163H15.528Z" fill="#37474F"/>
<path d="M23.975 20.7245H18.2248C18.2064 20.7245 18.188 20.7162 18.1742 20.6969C18.1604 20.6804 18.1535 20.6584 18.1558 20.6337C18.1972 19.8522 18.3239 17.1446 18.1857 15.1745C18.1028 13.9941 17.838 13.1245 17.8334 13.1163C17.8265 13.0915 17.8288 13.0613 17.8426 13.0393C17.8564 13.0172 17.8771 13.0035 17.9001 13.0035H26.9687C26.9871 13.0035 27.0032 13.0117 27.0148 13.0255L27.3556 13.3997C27.3556 13.3997 27.3694 13.4162 27.3717 13.4272C27.8461 14.759 27.6964 15.8816 26.9503 16.5888C26.8904 16.6438 26.8305 16.6989 26.7684 16.7539C26.2848 17.1859 25.7344 17.6784 25.2738 19.5193C25.0643 20.3502 24.6636 20.7217 23.975 20.7217V20.7245ZM18.2985 20.5594H23.975C24.6083 20.5594 24.9468 20.2457 25.1403 19.4752C25.6146 17.5821 26.2088 17.0511 26.6855 16.6246C26.7476 16.5695 26.8075 16.5173 26.8651 16.4622C27.7471 15.6257 27.5628 14.4013 27.2497 13.5125L26.9411 13.1713H17.9969C18.0706 13.4465 18.2571 14.2059 18.3239 15.1635C18.4574 17.0758 18.3446 19.6733 18.2985 20.5594Z" fill="#37474F"/>
<path d="M18.6094 9.22018C16.5622 8.9065 14.1787 9.01381 13.1655 9.18991C12.9628 9.22569 12.7694 9.30273 12.5898 9.42105C11.3393 10.241 9.66056 11.7461 8.67725 12.855C9.68128 13.0834 13.8978 13.243 16.0924 12.855C17.0135 11.4132 18.2087 10.0236 18.6831 9.49259C18.7637 9.40179 18.7199 9.23669 18.6094 9.22018Z" fill="#546E7A"/>
<path d="M12.4762 13.1715C10.8135 13.1715 9.23146 13.0669 8.66497 12.9376C8.63964 12.9321 8.61891 12.9101 8.612 12.8798C8.60509 12.8495 8.612 12.8165 8.63043 12.7973C9.68512 11.6086 11.3731 10.1282 12.5568 9.35226C12.7433 9.23119 12.9436 9.14864 13.1555 9.11287C14.1733 8.93402 16.5407 8.82395 18.6178 9.14314C18.6961 9.15414 18.7606 9.21743 18.7836 9.30823C18.809 9.39904 18.7882 9.49534 18.7307 9.55863C18.2586 10.0869 17.0657 11.4737 16.1492 12.9101C16.1377 12.9266 16.1215 12.9376 16.1031 12.9431C15.1474 13.1109 13.7865 13.177 12.4762 13.177V13.1715ZM8.82847 12.8C10.0305 13.0119 13.9776 13.1357 16.0548 12.778C16.9759 11.3417 18.1642 9.96036 18.6339 9.43206C18.6616 9.40179 18.6547 9.36327 18.6501 9.35501C18.6478 9.344 18.6339 9.30823 18.5971 9.30273C16.5568 8.9918 14.1526 9.10186 13.1716 9.27246C12.9759 9.30548 12.7893 9.38253 12.6189 9.49259C11.4813 10.2383 9.87626 11.6416 8.82386 12.8H8.82847Z" fill="#37474F"/>
<path d="M12.4769 12.9787C11.0445 12.9787 9.57304 12.8962 8.87988 12.7806C9.92998 11.6305 11.512 10.2547 12.6335 9.51724C12.8016 9.40718 12.9858 9.33289 13.1793 9.29987C13.7734 9.19531 14.7475 9.13202 15.7216 9.13202C16.751 9.13202 17.7458 9.20081 18.5955 9.33013C18.6163 9.33289 18.6255 9.35215 18.6278 9.36315C18.6301 9.37416 18.6324 9.39342 18.6163 9.41268C18.1465 9.94099 16.9605 11.3168 16.0394 12.7531C15.185 12.899 13.9208 12.9815 12.4746 12.9815L12.4769 12.9787Z" fill="#B2EBF2"/>
<path d="M12.4769 12.9787C11.0445 12.9787 9.57304 12.8962 8.87988 12.7806C9.92998 11.6305 11.512 10.2547 12.6335 9.51724C12.8016 9.40718 12.9858 9.33289 13.1793 9.29987C13.7734 9.19531 14.7475 9.13202 15.7216 9.13202C16.751 9.13202 17.7458 9.20081 18.5955 9.33013C18.6163 9.33289 18.6255 9.35215 18.6278 9.36315C18.6301 9.37416 18.6324 9.39342 18.6163 9.41268C18.1465 9.94099 16.9605 11.3168 16.0394 12.7531C15.185 12.899 13.9208 12.9815 12.4746 12.9815L12.4769 12.9787Z" fill="#B2EBF2"/>
<path d="M16.4375 12.1616C16.5826 11.9525 16.73 11.7489 16.875 11.5507L17.1721 9.36322H16.8175L16.4375 12.1588V12.1616Z" fill="#24C6DA"/>
<path d="M10.0038 12.8989L10.1696 11.6827C9.69063 12.0597 9.34981 12.4724 9.03662 12.8054C9.29224 12.8412 9.62384 12.8714 10.0038 12.8989Z" fill="#24C6DA"/>
<path d="M11.3579 10.6041C12.2537 9.81717 13.2923 9.3659 14.2111 9.3659H17.336C17.739 9.3659 18.0706 9.51449 18.3009 9.77589C18.4253 9.63006 18.5335 9.50899 18.6187 9.41268C18.6348 9.39342 18.6325 9.37416 18.6302 9.36315C18.6279 9.35215 18.6187 9.33289 18.598 9.33013C17.7459 9.20081 16.7511 9.13202 15.724 9.13202C14.7499 9.13202 13.7735 9.19806 13.1817 9.29987C12.9883 9.33289 12.8064 9.40718 12.6359 9.51724C11.5145 10.2547 9.93242 11.6305 8.88232 12.7806C8.93068 12.7889 8.98365 12.7971 9.03661 12.8054C9.60541 12.2028 10.4022 11.4461 11.3602 10.6041H11.3579Z" fill="#24C6DA"/>
<g style="mix-blend-mode:soft-light">
<path d="M13.1793 9.29987C12.9858 9.33289 12.8039 9.40718 12.6335 9.51724C11.512 10.2547 9.92998 11.6305 8.87988 12.7806C9.3013 12.8494 10.0106 12.9072 10.8258 12.943C11.5397 12.057 13.2645 10.5078 15.5282 9.13202C14.6208 9.14027 13.7343 9.20356 13.1793 9.29987Z" fill="#EBEFF1"/>
</g>
<path d="M21.4206 9.25592H24.5456C25.3032 9.25592 25.9987 9.75946 26.3464 10.5657C26.9313 11.9195 27.3067 13.4659 27.3067 13.4659H17.4045C17.1834 13.4659 17.0522 13.1714 17.1765 12.9541C17.6256 12.1726 18.321 11.2563 18.9082 10.5299C19.5669 9.71544 20.4719 9.25867 21.4183 9.25867L21.4206 9.25592Z" fill="#546E7A"/>
<path d="M27.3065 13.5456H17.4043C17.2753 13.5456 17.1602 13.4603 17.1003 13.3255C17.0404 13.1879 17.0474 13.0311 17.121 12.9018C17.5885 12.09 18.3254 11.1297 18.8597 10.4666C19.5252 9.64112 20.4602 9.16785 21.4204 9.16785H24.5454C25.3329 9.16785 26.0468 9.68515 26.4084 10.5216C26.991 11.8672 27.371 13.4218 27.3756 13.4356C27.3825 13.4603 27.3756 13.4879 27.364 13.5099C27.3502 13.5319 27.3295 13.5429 27.3088 13.5429L27.3065 13.5456ZM21.4204 9.33845C20.497 9.33845 19.5989 9.79246 18.9587 10.5849C18.1965 11.5287 17.6 12.3624 17.2339 12.9981C17.1901 13.0751 17.1855 13.1687 17.2224 13.2485C17.2592 13.331 17.326 13.3805 17.4043 13.3805H27.2144C27.1176 13.0091 26.7722 11.7296 26.284 10.6014C25.9478 9.82273 25.28 9.33845 24.5454 9.33845H21.4204Z" fill="#37474F"/>
<path d="M12.4765 13.0613C11.0579 13.0613 9.57492 12.9787 8.87026 12.8632C8.84262 12.8577 8.8219 12.8356 8.81269 12.8054C8.80578 12.7751 8.81269 12.7421 8.83111 12.7201C9.89272 11.5589 11.4771 10.1803 12.5985 9.44567C12.7736 9.33011 12.9647 9.25306 13.1673 9.21729C13.7638 9.11273 14.7425 9.04669 15.7212 9.04669C16.7529 9.04669 17.75 9.11548 18.6043 9.24756C18.6481 9.25306 18.6803 9.28883 18.6941 9.33836C18.708 9.38789 18.6965 9.43742 18.6642 9.47319C18.1967 9.99599 17.0131 11.3718 16.0942 12.8026C16.0827 12.8191 16.0666 12.8301 16.0482 12.8356C15.1915 12.9842 13.9227 13.064 12.4742 13.064L12.4765 13.0613ZM12.4765 12.8962C13.9019 12.8962 15.1524 12.8164 16.0044 12.6733C16.8979 11.2865 18.0332 9.96022 18.526 9.40165C17.6901 9.27783 16.7229 9.21179 15.7212 9.21179C14.7195 9.21179 13.7799 9.27507 13.1881 9.37963C13.0038 9.41265 12.8288 9.48144 12.6676 9.58876C11.5945 10.2932 10.0908 11.5919 9.03836 12.7201C9.78448 12.8246 11.157 12.8934 12.4765 12.8934V12.8962Z" fill="#37474F"/>
<path d="M17.4047 13.353C17.3356 13.353 17.2758 13.309 17.2435 13.2375C17.2113 13.1659 17.2159 13.0806 17.255 13.0146C17.6212 12.3817 18.2153 11.548 18.9776 10.6042C19.6131 9.81723 20.5043 9.36597 21.4232 9.36597H24.5481C25.2758 9.36597 25.9321 9.84474 26.266 10.6152C26.7381 11.7103 27.0766 12.943 27.1849 13.353H17.407H17.4047Z" fill="#24C6DA"/>
<path d="M26.2635 10.6151C26.0769 10.1859 25.7914 9.84744 25.446 9.63007H20.6929C20.032 9.63007 20.6699 10.9646 21.0637 12.0019C21.2341 12.4532 21.4068 12.943 21.545 13.353H27.18C27.0741 12.943 26.7356 11.7075 26.2612 10.6151H26.2635Z" fill="#B2EBF2"/>
<g style="mix-blend-mode:soft-light">
<path d="M23.7394 9.36597L20.3335 13.353H21.5195L25.0888 9.45952C24.9138 9.39899 24.7319 9.36597 24.5431 9.36597H23.7371H23.7394Z" fill="#EBEFF1"/>
<path d="M19.3575 13.353L22.943 9.36597H21.4208C21.3586 9.36597 21.2964 9.36597 21.2366 9.37147C20.0207 10.7418 18.7127 12.2276 17.7271 13.353H19.3575Z" fill="#EBEFF1"/>
</g>
<path d="M17.2526 13.0145C17.2134 13.0805 17.2088 13.1658 17.2411 13.2374C17.2733 13.3117 17.3332 13.3529 17.4023 13.3529H19.8387C19.7327 12.9457 19.4011 11.7378 18.936 10.6509C18.1922 11.5727 17.6118 12.3899 17.2526 13.0117V13.0145Z" fill="#B2EBF2"/>
<path d="M27.1825 13.4355H17.4047C17.3103 13.4355 17.2251 13.375 17.1813 13.2731C17.1376 13.1741 17.1422 13.0585 17.1975 12.965C17.5636 12.3266 18.1623 11.4901 18.9269 10.5436C19.5763 9.74009 20.4859 9.28058 21.4209 9.28058H24.5458C25.2988 9.28058 25.9805 9.77587 26.3259 10.5738C26.7934 11.6552 27.1273 12.8577 27.2493 13.3254C27.2562 13.3502 27.2516 13.3777 27.2378 13.3997C27.224 13.4217 27.2033 13.4327 27.1825 13.4327V13.4355ZM21.4209 9.44843C20.5227 9.44843 19.65 9.89143 19.0259 10.6619C18.266 11.6002 17.6741 12.4312 17.3103 13.0613C17.2873 13.1025 17.2827 13.1521 17.3034 13.1988C17.3241 13.2456 17.361 13.2704 17.4024 13.2704H27.0858C26.9477 12.7503 26.6299 11.6497 26.2015 10.6536C25.8814 9.91069 25.2459 9.45118 24.5458 9.45118H21.4209V9.44843Z" fill="#37474F"/>
<path d="M18.464 13.353H17.4047C17.3356 13.353 17.2758 13.3089 17.2435 13.2374C17.2113 13.1658 17.2159 13.0805 17.255 13.0145C17.4738 12.6348 17.7732 12.1863 18.1416 11.6827L18.464 13.353Z" fill="#546E7A"/>
<path d="M18.464 13.4356H17.4047C17.3103 13.4356 17.2251 13.375 17.1813 13.2732C17.1376 13.1742 17.1422 13.0586 17.1975 12.965C17.4162 12.5853 17.7156 12.1368 18.091 11.6278C18.1071 11.603 18.1347 11.5948 18.16 11.603C18.1854 11.6113 18.2038 11.6333 18.2107 11.6635L18.5331 13.3338C18.5377 13.3585 18.5331 13.3833 18.5193 13.4053C18.5055 13.4246 18.487 13.4356 18.464 13.4356ZM18.1048 11.8589C17.7755 12.3129 17.5083 12.7174 17.3126 13.0586C17.2873 13.0999 17.285 13.1494 17.3057 13.1962C17.3264 13.243 17.3633 13.2677 17.4047 13.2677H18.3765L18.1048 11.8589Z" fill="#37474F"/>
<path d="M2.43652 17.1006C2.86946 17.1529 3.40832 16.9383 3.64091 16.6576C3.88731 16.3632 3.64091 15.568 3.82744 15.1718C4.01396 14.7755 4.0439 14.627 4.0439 14.627C2.49409 15.3506 2.43652 16.3439 2.43652 17.1006Z" fill="#B0BEC5"/>
<path d="M2.56753 17.1914C2.52148 17.1914 2.47312 17.1914 2.42936 17.1831C2.39482 17.1776 2.36719 17.1419 2.36719 17.1006C2.36719 16.4347 2.36719 15.3231 4.01832 14.5499C4.04365 14.5389 4.06898 14.5444 4.08971 14.5636C4.10813 14.5829 4.11734 14.6159 4.11043 14.6462C4.11043 14.6517 4.07589 14.8085 3.88706 15.2102C3.80876 15.3753 3.81797 15.6367 3.82488 15.8926C3.83409 16.2063 3.8433 16.531 3.69132 16.7154C3.45873 16.9933 2.97974 17.1914 2.56753 17.1914ZM2.50536 17.0235C2.92447 17.0483 3.39655 16.8309 3.5923 16.5998C3.70283 16.4677 3.69362 16.1788 3.68671 15.9009C3.6798 15.623 3.67059 15.3368 3.76731 15.1332C3.8387 14.9791 3.88706 14.8635 3.9193 14.781C2.56293 15.4771 2.50996 16.3879 2.50766 17.0263L2.50536 17.0235Z" fill="#37474F"/>
<path d="M2.43652 17.1006C2.86946 17.1529 3.40832 16.9383 3.64091 16.6576C3.88731 16.3632 3.64091 15.568 3.82744 15.1718C4.01396 14.7755 4.0439 14.627 4.0439 14.627C2.49409 15.3506 2.43652 16.3439 2.43652 17.1006Z" fill="#B0BEC5"/>
<path d="M8.39139 16.4348H4.38906C4.17951 16.4348 3.97225 16.6384 3.92619 16.8861C3.88014 17.1365 4.0114 17.3373 4.22096 17.3373H8.22558C8.43514 17.3373 8.6424 17.1337 8.68845 16.8861C8.73451 16.6357 8.60325 16.4348 8.39369 16.4348H8.39139Z" fill="#455A64"/>
<path d="M8.22323 17.4225H4.2186C4.09885 17.4225 3.99292 17.3648 3.92384 17.263C3.85245 17.1556 3.82942 17.0181 3.85706 16.8695C3.91232 16.5806 4.14491 16.3522 4.38901 16.3522H8.39364C8.51338 16.3522 8.61932 16.41 8.6884 16.5118C8.75979 16.6191 8.78282 16.7567 8.75518 16.9052C8.69991 17.1942 8.46733 17.4225 8.22323 17.4225ZM4.38901 16.5173C4.21169 16.5173 4.03437 16.6906 3.99292 16.9052C3.9745 17.0043 3.98832 17.0924 4.03207 17.1584C4.07352 17.2217 4.1403 17.2547 4.2186 17.2547H8.22323C8.40055 17.2547 8.57786 17.0813 8.61932 16.8667C8.63774 16.7677 8.62392 16.6796 8.58017 16.6136C8.53872 16.5503 8.47193 16.5173 8.39364 16.5173H4.38901Z" fill="#37474F"/>
<path d="M4.15634 16.8888C4.2024 16.6384 4.40965 16.4375 4.61921 16.4375H4.38662C4.17706 16.4375 3.96981 16.6411 3.92375 16.8888C3.8777 17.1392 4.00896 17.34 4.21852 17.34H4.4511C4.24154 17.34 4.11028 17.1364 4.15634 16.8888Z" fill="#FFE0B2"/>
<path d="M4.45119 17.4225H4.2186C4.09885 17.4225 3.99292 17.3648 3.92384 17.263C3.85245 17.1556 3.82942 17.0181 3.85706 16.8695C3.91232 16.5806 4.14491 16.3522 4.38901 16.3522H4.6216C4.66074 16.3522 4.69068 16.3907 4.69068 16.4347C4.69068 16.4787 4.65844 16.5173 4.6216 16.5173C4.44428 16.5173 4.26696 16.6906 4.22551 16.9052C4.20709 17.0043 4.2209 17.0924 4.26466 17.1584C4.30611 17.2217 4.37289 17.2547 4.45119 17.2547C4.49033 17.2547 4.52027 17.2932 4.52027 17.3372C4.52027 17.3813 4.48803 17.4198 4.45119 17.4198V17.4225ZM4.22781 16.564C4.11497 16.6301 4.02056 16.7567 3.99292 16.9052C3.9745 17.0043 3.98832 17.0924 4.03207 17.1584C4.0597 17.1997 4.09885 17.2299 4.14491 17.2437C4.08273 17.1391 4.06201 17.0071 4.08964 16.8667C4.11037 16.7512 4.16103 16.6466 4.22781 16.5613V16.564Z" fill="#37474F"/>
<path d="M1.92516 19.6568H9.63044C10.0242 19.6568 10.0657 20.4878 9.63044 20.6942C9.07546 20.9583 2.48244 20.9721 1.90904 20.6942C1.48532 20.4905 1.58894 19.6568 1.92516 19.6568Z" fill="#78909C"/>
<path d="M5.76588 20.9805C3.96737 20.9805 2.16885 20.9117 1.881 20.7714C1.60466 20.6365 1.52636 20.2788 1.57242 20.0009C1.61387 19.7395 1.75204 19.5717 1.92475 19.5717H9.63003C9.81887 19.5717 9.95934 19.7285 10.0008 19.9789C10.0468 20.2678 9.94322 20.6338 9.65536 20.7686C9.3606 20.9062 7.56209 20.9777 5.76588 20.9777V20.9805ZM1.92475 19.7395C1.8004 19.7395 1.73131 19.8991 1.70829 20.0339C1.67374 20.2458 1.72901 20.5182 1.93396 20.6173C2.46592 20.8732 9.06123 20.8732 9.6047 20.6173C9.81887 20.5155 9.89947 20.2293 9.86492 20.0119C9.85571 19.9486 9.80735 19.7395 9.63003 19.7395H1.92475Z" fill="#37474F"/>
<path d="M2.26387 19.6899H9.47634C9.8448 19.6899 9.88394 20.3283 9.47634 20.4879C8.9559 20.6888 2.78431 20.6998 2.24775 20.4879C1.85166 20.3311 1.94838 19.6899 2.26387 19.6899Z" fill="#546E7A"/>
<path d="M5.86033 20.7273C4.17696 20.7273 2.49589 20.675 2.22646 20.5677C1.97775 20.4687 1.89485 20.2045 1.92478 19.9871C1.95472 19.7643 2.09519 19.6074 2.2656 19.6074H9.47808C9.66461 19.6074 9.80508 19.7478 9.83502 19.9679C9.86265 20.1825 9.77054 20.4632 9.50111 20.5677C9.22707 20.675 7.5437 20.7273 5.86263 20.7273H5.86033ZM2.2633 19.7725C2.14586 19.7725 2.07677 19.8936 2.06065 20.0119C2.04223 20.1495 2.08598 20.3338 2.27021 20.4081C2.76762 20.6063 8.94612 20.6063 9.45505 20.4081C9.64849 20.3338 9.71527 20.1412 9.69455 19.9926C9.68073 19.8881 9.61625 19.7725 9.47578 19.7725H2.2633Z" fill="#37474F"/>
<path d="M12.5225 14.7178C11.6451 14.7178 10.7193 15.7524 10.1275 16.0275C9.73143 16.2146 9.65543 16.9411 10.1736 17.0429C10.5144 17.1089 11.378 17.1584 11.6566 17.1172C12.1425 17.0429 13.0844 16.6576 13.3238 15.7551C13.5334 14.9764 13.0337 14.7178 12.5202 14.7178H12.5225Z" fill="#B0BEC5"/>
<path d="M2.3211 20.1411C2.3211 20.3723 2.19214 20.5594 2.03555 20.5594C1.87896 20.5594 1.75 20.3723 1.75 20.1411C1.75 19.91 1.87896 19.7229 2.03555 19.7229C2.19214 19.7229 2.3211 19.91 2.3211 20.1411Z" fill="#B0BEC5"/>
<path d="M2.0337 20.6419C1.83796 20.6419 1.67676 20.4163 1.67676 20.1411C1.67676 19.866 1.83565 19.6403 2.0337 19.6403C2.23174 19.6403 2.39064 19.866 2.39064 20.1411C2.39064 20.4163 2.23174 20.6419 2.0337 20.6419ZM2.0337 19.8082C1.91395 19.8082 1.81723 19.9568 1.81723 20.1411C1.81723 20.3255 1.91395 20.4741 2.0337 20.4741C2.15344 20.4741 2.25016 20.3255 2.25016 20.1411C2.25016 19.9568 2.15344 19.8082 2.0337 19.8082Z" fill="#37474F"/>
<path d="M2.2044 20.1411C2.2044 20.3723 2.07544 20.5594 1.91885 20.5594C1.76226 20.5594 1.6333 20.3723 1.6333 20.1411C1.6333 19.91 1.76226 19.7229 1.91885 19.7229C2.07544 19.7229 2.2044 19.91 2.2044 20.1411Z" fill="#CFD8DC"/>
<path d="M1.91797 20.6419C1.72223 20.6419 1.56104 20.4163 1.56104 20.1411C1.56104 19.866 1.71993 19.6403 1.91797 19.6403C2.11602 19.6403 2.27491 19.866 2.27491 20.1411C2.27491 20.4163 2.11602 20.6419 1.91797 20.6419ZM1.91797 19.8082C1.79823 19.8082 1.70151 19.9568 1.70151 20.1411C1.70151 20.3255 1.79823 20.4741 1.91797 20.4741C2.03772 20.4741 2.13444 20.3255 2.13444 20.1411C2.13444 19.9568 2.03772 19.8082 1.91797 19.8082Z" fill="#37474F"/>
<path d="M9.94171 20.1411C9.94171 20.3723 9.81275 20.5594 9.65616 20.5594C9.49956 20.5594 9.37061 20.3723 9.37061 20.1411C9.37061 19.91 9.49956 19.7229 9.65616 19.7229C9.81275 19.7229 9.94171 19.91 9.94171 20.1411Z" fill="#B0BEC5"/>
<path d="M9.65528 20.6419C9.45954 20.6419 9.29834 20.4163 9.29834 20.1411C9.29834 19.866 9.45724 19.6403 9.65528 19.6403C9.85332 19.6403 10.0122 19.866 10.0122 20.1411C10.0122 20.4163 9.85332 20.6419 9.65528 20.6419ZM9.65528 19.8082C9.53553 19.8082 9.43881 19.9568 9.43881 20.1411C9.43881 20.3255 9.53553 20.4741 9.65528 20.4741C9.77503 20.4741 9.87175 20.3255 9.87175 20.1411C9.87175 19.9568 9.77503 19.8082 9.65528 19.8082Z" fill="#37474F"/>
<path d="M9.82354 20.1411C9.82354 20.3723 9.69459 20.5594 9.53799 20.5594C9.3814 20.5594 9.25244 20.3723 9.25244 20.1411C9.25244 19.91 9.3814 19.7229 9.53799 19.7229C9.69459 19.7229 9.82354 19.91 9.82354 20.1411Z" fill="#CFD8DC"/>
<path d="M9.53809 20.6419C9.34235 20.6419 9.18115 20.4163 9.18115 20.1411C9.18115 19.866 9.34005 19.6403 9.53809 19.6403C9.73614 19.6403 9.89503 19.866 9.89503 20.1411C9.89503 20.4163 9.73614 20.6419 9.53809 20.6419ZM9.53809 19.8082C9.41834 19.8082 9.32163 19.9568 9.32163 20.1411C9.32163 20.3255 9.41834 20.4741 9.53809 20.4741C9.65784 20.4741 9.75456 20.3255 9.75456 20.1411C9.75456 19.9568 9.65784 19.8082 9.53809 19.8082Z" fill="#37474F"/>
<path d="M24.0273 9.36597L24.7965 13.353H25.1534L24.382 9.36597H24.0273Z" fill="#546E7A"/>
<path d="M25.1536 13.4355H24.7989C24.7667 13.4355 24.7391 13.408 24.7322 13.3722L23.9607 9.38513C23.9561 9.36037 23.9607 9.33561 23.9745 9.31359C23.9883 9.29433 24.0068 9.28333 24.0298 9.28333H24.3844C24.4167 9.28333 24.4443 9.31084 24.4512 9.34661L25.2227 13.3337C25.2273 13.3584 25.2227 13.3832 25.2088 13.4052C25.195 13.4245 25.1766 13.4355 25.1536 13.4355ZM24.8519 13.2704H25.0638L24.3246 9.44842H24.1127L24.8519 13.2704Z" fill="#37474F"/>
<path d="M11.9473 14.9901C12.4009 14.8938 12.6473 14.9351 12.7947 15.169C13.0043 15.5019 12.8246 16.1183 12.5944 16.421C12.3618 16.7236 11.9473 14.9874 11.9473 14.9874V14.9901Z" fill="#EBEFF1"/>
<path d="M12.7002 15.923C12.7002 16.4376 12.3939 16.8531 12.0186 16.8531C11.6432 16.8531 11.3369 16.4376 11.3369 15.923C11.3369 15.4085 11.6432 14.993 12.0186 14.993C12.3939 14.993 12.7002 15.4085 12.7002 15.923Z" fill="#DFE5E8"/>
<path d="M12.6287 15.923C12.6287 16.3825 12.3547 16.7567 12.0185 16.7567C11.6822 16.7567 11.4082 16.3825 11.4082 15.923C11.4082 15.4635 11.6822 15.0892 12.0185 15.0892C12.3547 15.0892 12.6287 15.4635 12.6287 15.923Z" fill="#CFD8DC"/>
<path d="M12.5919 15.6423C12.5067 15.3204 12.2833 15.0892 12.0162 15.0892C11.7491 15.0892 11.5119 15.3341 11.4336 15.6698C11.4336 15.6698 11.8412 15.6836 12.1889 15.923C12.1889 15.923 12.4561 15.7524 12.5896 15.6423H12.5919Z" fill="#C3CDD3"/>
<path d="M11.7739 15.158C12.117 15.4469 12.2552 15.923 12.2552 15.923C12.2552 15.923 12.3957 15.579 12.3197 15.1993C12.2299 15.1305 12.1286 15.0892 12.018 15.0892C11.9305 15.0892 11.8499 15.114 11.7739 15.158Z" fill="#EBEFF1"/>
<path d="M11.7002 16.6356C11.7923 16.7127 11.9005 16.7567 12.018 16.7567C12.0318 16.7567 12.0479 16.7567 12.0617 16.754C12.269 16.4128 12.2552 15.923 12.2552 15.923C12.1516 16.333 11.8292 16.5613 11.7002 16.6356Z" fill="#EBEFF1"/>
<path d="M12.4079 15.9262C12.4079 16.0255 12.341 16.1054 12.2579 16.1054C12.1748 16.1054 12.1079 16.0255 12.1079 15.9262C12.1079 15.8269 12.1748 15.7469 12.2579 15.7469C12.341 15.7469 12.4079 15.8269 12.4079 15.9262Z" fill="#DBE2E5"/>
<path d="M25.545 13.4631C25.3792 12.7009 26.4892 12.5936 27.0672 12.5936C27.1386 12.8412 27.3067 13.4631 27.3067 13.4631L27.4518 13.9363C26.3879 13.9363 25.6602 13.9996 25.545 13.4631Z" fill="#546E7A"/>
<path d="M26.8876 14.0215C26.1 14.0215 25.5865 13.9775 25.4783 13.485C25.4368 13.2951 25.4622 13.13 25.5543 12.9897C25.8237 12.5742 26.6182 12.5137 27.0672 12.5137C27.0972 12.5137 27.1225 12.5357 27.134 12.5687C27.2054 12.8163 27.3712 13.4327 27.3735 13.4382L27.5186 13.9087C27.5255 13.9335 27.5232 13.9638 27.5094 13.9858C27.4956 14.0078 27.4748 14.0215 27.4518 14.0215C27.3482 14.0215 27.2469 14.0215 27.1501 14.0215C27.058 14.0215 26.9705 14.0215 26.8853 14.0215H26.8876ZM27.0189 12.6788C26.6527 12.6815 25.8951 12.7366 25.6648 13.0915C25.6003 13.1906 25.5842 13.3061 25.6141 13.4437C25.7063 13.8647 26.2797 13.8592 27.1524 13.8565C27.2192 13.8565 27.286 13.8565 27.3551 13.8565L27.2446 13.496C27.2446 13.496 27.0995 12.9539 27.0212 12.6815L27.0189 12.6788Z" fill="#37474F"/>
<path d="M27.1184 13.3309C27.1184 13.584 26.8283 13.573 26.4713 13.573C26.1144 13.573 25.8242 13.4657 25.8242 13.3309C25.8242 13.1961 26.1144 13.0888 26.4713 13.0888C26.8283 13.0888 27.1184 13.0777 27.1184 13.3309Z" fill="#546E7A"/>
<path d="M26.5609 13.6584C26.5471 13.6584 26.5309 13.6584 26.5171 13.6584H26.4711C26.1256 13.6584 25.7549 13.5566 25.7549 13.3337C25.7549 13.1108 26.1256 13.009 26.4711 13.009H26.5171C26.7958 13.009 27.0145 13.009 27.1251 13.1384C27.1665 13.1879 27.1895 13.2539 27.1895 13.3337C27.1895 13.4135 27.1688 13.4796 27.1251 13.5291C27.0214 13.6529 26.8188 13.6584 26.5632 13.6584H26.5609ZM26.5586 13.1741C26.5448 13.1741 26.5309 13.1741 26.5171 13.1741H26.4711C26.0934 13.1741 25.9023 13.2897 25.8931 13.3337C25.9023 13.375 26.0934 13.4933 26.4711 13.4933H26.5171C26.7428 13.4933 26.957 13.4933 27.026 13.4135C27.0376 13.3998 27.0491 13.3805 27.0491 13.3365C27.0491 13.2924 27.0376 13.2704 27.026 13.2594C26.9616 13.1824 26.7704 13.1796 26.5586 13.1796V13.1741Z" fill="#37474F"/>
<path d="M20.4631 12.7421C20.4631 12.4339 20.3135 12.1587 20.0832 12.0239C19.8529 11.8918 19.5328 11.7625 19.1667 11.7625C18.8903 11.7625 18.6646 11.9001 18.5103 12.0322C18.3699 12.156 18.2847 12.3514 18.2847 12.5605V12.8879H20.4631V12.7393V12.7421Z" fill="#FF7043"/>
<path d="M18.69 13.2374H18.0889C17.8563 13.2374 17.7066 13.1356 17.7757 12.9265C17.8172 12.7999 17.9415 12.6073 18.0544 12.6073C18.1672 12.6073 18.211 12.888 18.211 12.888H18.4366L18.6923 13.2347L18.69 13.2374Z" fill="#546E7A"/>
<path d="M18.6899 13.32H18.0889C17.9092 13.32 17.7826 13.265 17.725 13.1604C17.6951 13.1081 17.6697 13.0228 17.7112 12.8962C17.7526 12.7752 17.8885 12.5248 18.0543 12.5248C18.181 12.5248 18.2408 12.7009 18.2662 12.8054H18.4366C18.4573 12.8054 18.4757 12.8164 18.4895 12.833L18.7452 13.1797C18.7636 13.2044 18.7682 13.2402 18.7567 13.2677C18.7452 13.298 18.7198 13.3172 18.6945 13.3172L18.6899 13.32ZM18.0543 12.6926C17.9875 12.6926 17.8816 12.8385 17.8401 12.9595C17.8171 13.0283 17.8332 13.0586 17.8401 13.0696C17.8632 13.1109 17.9415 13.1549 18.0889 13.1549H18.5379L18.4043 12.9733H18.2109C18.1764 12.9733 18.1487 12.9458 18.1418 12.9045C18.1257 12.7999 18.0796 12.6899 18.0543 12.6899V12.6926Z" fill="#37474F"/>
<path d="M18.2847 12.8907C18.2847 13.2044 18.614 13.2456 18.8581 13.2456H20.1615C20.3826 13.2456 20.4631 13.0668 20.4631 12.8907H18.2847Z" fill="#546E7A"/>
<path d="M20.1612 13.331H18.8578C18.4318 13.331 18.2153 13.1824 18.2153 12.8935C18.2153 12.8467 18.2476 12.8109 18.2844 12.8109H20.4629C20.502 12.8109 20.532 12.8494 20.532 12.8935C20.532 13.0943 20.4353 13.331 20.1612 13.331ZM18.3673 12.9733C18.3973 13.0586 18.4986 13.1631 18.8601 13.1631H20.1635C20.3155 13.1631 20.3708 13.0668 20.3869 12.9733H18.3673Z" fill="#37474F"/>
<path d="M10.1736 17.0456C10.3624 17.0814 10.7101 17.1144 11.0302 17.1281C11.0993 16.9988 11.1408 16.8447 11.1408 16.6796C11.1408 16.2201 10.8322 15.8459 10.4499 15.8376C10.3348 15.9174 10.2265 15.9835 10.1275 16.0303C9.73143 16.2174 9.65543 16.9438 10.1736 17.0456Z" fill="#FFAB91"/>
<path d="M11.141 16.6769C11.141 16.6769 11.141 16.6521 11.141 16.6411C10.4571 16.9988 9.94357 16.9135 9.94357 16.9135L9.93896 16.9245C9.99654 16.9823 10.0748 17.0263 10.1739 17.0456C10.2107 17.0539 10.2545 17.0594 10.3005 17.0676C10.6114 17.0291 10.9476 16.9163 11.1249 16.842C11.1341 16.7897 11.1387 16.7347 11.1387 16.6769H11.141Z" fill="#FF8661"/>
<path d="M10.7195 15.9064C10.6642 15.8762 10.6044 15.8569 10.5399 15.8459C10.3441 15.9642 10.176 16.0357 10.0494 16.077C9.9826 16.1265 9.92733 16.1926 9.88818 16.2669C10.1714 16.2036 10.5169 16.0275 10.7195 15.9064Z" fill="#FF8661"/>
<path d="M10.9547 16.1073C10.9547 16.1073 10.9547 16.1073 10.9524 16.1046C10.9156 16.0633 10.8188 16.0165 10.8188 16.0165C10.2569 16.377 9.85165 16.3908 9.85165 16.3908L9.8125 16.5283C9.8125 16.5283 9.8125 16.5338 9.8125 16.5366C10.2293 16.5228 10.911 16.1596 10.957 16.1101L10.9547 16.1073Z" fill="#FF8661"/>
<path d="M11.1132 16.4485C11.1017 16.4018 11.0879 16.3605 11.0718 16.3165C11.058 16.2945 11.0488 16.2807 11.0488 16.2807C10.3786 16.7127 9.84899 16.6742 9.84899 16.6742L9.83057 16.7347C9.83978 16.765 9.85129 16.7952 9.86741 16.8255C10.2934 16.8558 10.959 16.5449 11.1155 16.4485H11.1132Z" fill="#FF8661"/>
<path d="M2.86523 16.6769C2.86523 16.8145 2.89287 16.9439 2.94123 17.0567C3.22678 16.9824 3.49391 16.831 3.64129 16.6577C3.77716 16.4953 3.76334 16.1817 3.75413 15.8652C3.69425 15.846 3.63438 15.835 3.5699 15.835C3.18072 15.835 2.86523 16.2119 2.86523 16.6769Z" fill="#FFAB91"/>
<path d="M2.92036 16.3522C2.90193 16.4072 2.88812 16.4622 2.87891 16.5228C3.0378 16.5998 3.2842 16.7044 3.53061 16.7677C3.57206 16.7319 3.61121 16.6961 3.64345 16.6576C3.64805 16.6521 3.65266 16.6466 3.65726 16.6383C3.46613 16.5998 3.21051 16.5173 2.92266 16.3522H2.92036Z" fill="#FF8661"/>
<path d="M3.15455 16.9851C3.23055 16.9548 3.30193 16.9191 3.36872 16.8778C3.22134 16.8475 3.05323 16.7953 2.8667 16.7127C2.869 16.7787 2.87821 16.842 2.89203 16.9026C2.97033 16.9301 3.06014 16.9576 3.15455 16.9851Z" fill="#FF8661"/>
<path d="M3.2124 15.9532C3.36439 16.0385 3.56243 16.1376 3.75817 16.2064C3.75817 16.1596 3.75817 16.1128 3.75817 16.0633C3.64764 16.0247 3.51177 15.9642 3.35978 15.8762C3.30912 15.8954 3.25846 15.9229 3.2124 15.956V15.9532Z" fill="#FF8661"/>
<path d="M3.09748 16.055C3.06294 16.0908 3.03301 16.132 3.00537 16.1761C3.15966 16.2614 3.45212 16.4017 3.72616 16.4787C3.73767 16.4375 3.74458 16.3907 3.74919 16.3439C3.58799 16.2999 3.36231 16.2173 3.09748 16.055Z" fill="#FF8661"/>
<path d="M16.8611 17.0924C17.0154 17.2272 17.172 17.1199 17.0706 16.9246C16.7897 16.3825 15.8478 16.0165 15.3228 16.0165C14.625 16.0165 13.7338 16.4733 13.1765 17.4556C12.6216 18.4379 12.4926 19.5964 12.5041 20.1109C12.5156 20.6255 12.7827 20.8649 12.9785 19.811C13.1765 18.7571 13.6947 17.4006 14.6112 16.8338C15.4471 16.3137 16.4466 16.7292 16.8588 17.0924H16.8611Z" fill="#FFFAF2"/>
<path d="M2.20422 17.5794H10.6395C11.4156 17.5794 11.7287 18.0609 11.913 18.4296C12.0972 18.7984 11.4777 19.4615 10.9274 18.7708C10.7063 18.4929 10.4069 18.548 10.4069 18.548H1.63081C1.32223 18.548 1.87261 17.5794 2.20422 17.5794Z" fill="#FFFAF2"/>
<path d="M28.6263 16.176C27.3068 16.176 26.5607 16.8639 25.9067 18.0086C25.4047 18.8891 25.2941 19.7999 25.2596 20.3942C25.2435 20.6584 25.0593 20.862 24.8359 20.862H18.2866V21.5994H25.4392C25.7939 21.5994 25.9343 21.3986 25.9343 20.9528C25.9343 20.1026 26.0909 18.5617 26.6321 17.7224C27.3229 16.6521 28.1796 16.553 28.6286 16.553C29.0777 16.553 28.9741 16.1733 28.6286 16.1733L28.6263 16.176Z" fill="#FF8C68"/>
<path d="M20.0831 12.0268C19.8528 11.8947 19.5327 11.7654 19.1666 11.7654C18.8902 11.7654 18.6646 11.903 18.5103 12.035C18.4251 12.1093 18.3606 12.2111 18.3237 12.3267C19.0399 12.0213 20.0094 12.2497 20.4147 12.4423C20.3525 12.2634 20.2374 12.1121 20.0854 12.0268H20.0831Z" fill="#FF8C68"/>
<path d="M20.4629 12.9732H18.2844C18.2453 12.9732 18.2153 12.9347 18.2153 12.8907V12.5632C18.2153 12.3294 18.3097 12.1065 18.4686 11.9689C18.6183 11.8368 18.8624 11.6827 19.1641 11.6827C19.4658 11.6827 19.8043 11.7763 20.1106 11.9524C20.3662 12.0982 20.5297 12.4092 20.5297 12.7449V12.8934C20.5297 12.9402 20.4974 12.976 20.4606 12.976L20.4629 12.9732ZM18.3558 12.8081H20.3938V12.7421C20.3938 12.4697 20.2602 12.2193 20.053 12.101C19.8526 11.9854 19.5349 11.8478 19.1664 11.8478C18.9016 11.8478 18.6851 11.9854 18.5515 12.1037C18.4295 12.211 18.3558 12.3816 18.3558 12.566V12.8109V12.8081Z" fill="#37474F"/>
<path d="M11.0331 17.2107C11.0331 17.2107 11.0331 17.2107 11.0308 17.2107C10.6876 17.197 10.3491 17.1639 10.1649 17.1282C9.92309 17.0814 9.7642 16.8998 9.74347 16.6439C9.71814 16.355 9.87013 16.0661 10.105 15.956C10.1902 15.9147 10.2892 15.8569 10.4159 15.7689C10.4274 15.7606 10.4389 15.7579 10.4527 15.7579C10.8719 15.7661 11.2127 16.1816 11.2127 16.6824C11.2127 16.8585 11.1712 17.0291 11.0929 17.1777C11.0791 17.2025 11.0584 17.2162 11.0331 17.2162V17.2107ZM10.4689 15.9202C10.3445 16.0055 10.2432 16.0661 10.1557 16.1073C9.98066 16.1899 9.86322 16.4128 9.88164 16.6246C9.89776 16.8062 10.0083 16.9301 10.1879 16.9631C10.356 16.9961 10.6761 17.0264 10.9939 17.0429C11.0446 16.9301 11.0722 16.8062 11.0722 16.6769C11.0722 16.2752 10.8028 15.9395 10.4689 15.9202Z" fill="#37474F"/>
<g style="mix-blend-mode:soft-light">
<path d="M13.0393 14.8306C11.8603 15.5708 10.8309 16.1514 10.3819 16.2642C9.92819 16.3798 9.8476 16.7457 10.3957 16.7457C10.9437 16.7457 12.5235 16.5339 13.3272 15.7552C13.4607 15.2544 13.3041 14.971 13.0393 14.8306Z" fill="#EBEFF1"/>
</g>
<path d="M11.3416 17.2162C10.9594 17.2162 10.4182 17.1749 10.1649 17.1254C9.92309 17.0786 9.7642 16.897 9.74347 16.6411C9.71814 16.3522 9.87013 16.0633 10.105 15.9532C10.2962 15.8624 10.5356 15.6835 10.7867 15.4937C11.3186 15.092 11.922 14.6379 12.523 14.6379C12.7418 14.6379 13.1402 14.6847 13.3382 15.0067C13.4602 15.2048 13.4787 15.4662 13.3935 15.7826C13.1379 16.7374 12.1522 17.1281 11.6686 17.2024C11.5926 17.2134 11.4775 17.2189 11.3439 17.2189L11.3416 17.2162ZM12.523 14.803C11.9611 14.803 11.3762 15.2433 10.8603 15.634C10.6024 15.8294 10.3583 16.011 10.1534 16.1073C9.97836 16.1898 9.86092 16.4127 9.87934 16.6246C9.89546 16.8062 10.006 16.93 10.1856 16.963C10.5149 17.0263 11.3716 17.0786 11.6479 17.0373C12.1039 16.9685 13.025 16.6053 13.2599 15.7331C13.3313 15.4689 13.3175 15.257 13.2254 15.1057C13.1079 14.9159 12.8523 14.8058 12.523 14.8058V14.803Z" fill="#37474F"/>
<path d="M2.94049 17.1391C2.91516 17.1391 2.88983 17.1226 2.87831 17.0924C2.82304 16.9603 2.79541 16.8199 2.79541 16.6741C2.79541 16.1651 3.14314 15.7496 3.56916 15.7496C3.63594 15.7496 3.70503 15.7606 3.77181 15.7826C3.80175 15.7908 3.82247 15.8239 3.82247 15.8596V15.8899C3.83169 16.2036 3.8409 16.5283 3.68891 16.7126C3.53462 16.897 3.26058 17.0566 2.95431 17.1364C2.9497 17.1364 2.94509 17.1364 2.94049 17.1364V17.1391ZM3.56916 15.9174C3.21913 15.9174 2.93358 16.2586 2.93358 16.6769C2.93358 16.7759 2.9497 16.8695 2.97964 16.9603C3.23295 16.8832 3.46553 16.7484 3.58989 16.5971C3.69582 16.4705 3.69352 16.1981 3.6843 15.9312C3.64516 15.9229 3.60601 15.9174 3.56686 15.9174H3.56916Z" fill="#37474F"/>
<g style="mix-blend-mode:soft-light">
<path d="M3.00534 15.7882C2.93395 16.1376 3.30931 16.8393 3.75836 16.0606C3.75376 15.7442 3.72152 15.3947 3.82515 15.1691C4.01168 14.7729 4.04161 14.6243 4.04161 14.6243C3.2149 15.1416 3.07442 15.436 3.00304 15.7882H3.00534Z" fill="#EBEFF1"/>
</g>
<path d="M2.56753 17.1914C2.52148 17.1914 2.47312 17.1914 2.42936 17.1831C2.39482 17.1776 2.36719 17.1419 2.36719 17.1006C2.36719 16.4347 2.36719 15.3231 4.01832 14.5499C4.04365 14.5389 4.06898 14.5444 4.08971 14.5636C4.10813 14.5829 4.11734 14.6159 4.11043 14.6462C4.11043 14.6517 4.07589 14.8085 3.88706 15.2102C3.80876 15.3753 3.81797 15.6367 3.82488 15.8926C3.83409 16.2063 3.8433 16.531 3.69132 16.7154C3.45873 16.9933 2.97974 17.1914 2.56753 17.1914ZM2.50536 17.0235C2.92447 17.0483 3.39655 16.8309 3.5923 16.5998C3.70283 16.4677 3.69362 16.1788 3.68671 15.9009C3.6798 15.623 3.67059 15.3368 3.76731 15.1332C3.8387 14.9791 3.88706 14.8635 3.9193 14.781C2.56293 15.4771 2.50996 16.3879 2.50766 17.0263L2.50536 17.0235Z" fill="#37474F"/>
</svg>
