<svg width="26" height="31" viewBox="0 0 26 31" fill="none" xmlns="http://www.w3.org/2000/svg">
<path fill-rule="evenodd" clip-rule="evenodd" d="M12.9959 8.06359C15.5837 8.06359 17.6925 6.255 17.6925 4.03179C17.6925 1.80859 15.5837 0 12.9959 0C10.4081 0 8.29932 1.80859 8.29932 4.03179C8.29932 6.255 10.4081 8.06359 12.9959 8.06359Z" fill="#FC9E0A"/>
<path fill-rule="evenodd" clip-rule="evenodd" d="M12.9966 0.00714111C15.5915 0.00714111 17.6932 1.80858 17.6932 4.03893C17.6932 6.26929 15.5915 8.07073 12.9966 8.07073V0.00714111Z" fill="#ED8200"/>
<path fill-rule="evenodd" clip-rule="evenodd" d="M15.3056 4.48932C16.3993 3.50282 18.0649 3.95318 19.08 5.22562C22.1896 9.12874 18.8369 21.5887 12.8036 21.267C9.45087 20.9024 7.02036 17.4425 6.03386 13.9254C5.44767 11.8309 5.17603 8.21373 6.60574 6.38369C8.77891 3.6029 13.2396 4.14619 14.7551 4.73237L15.2984 4.48932H15.3056Z" fill="#FDB813"/>
<path fill-rule="evenodd" clip-rule="evenodd" d="M15.3056 4.48932C16.3993 3.50282 18.0649 3.95318 19.08 5.22562C22.1611 9.08585 18.9013 21.3171 12.9966 21.2742V4.33205C13.7257 4.41783 14.3477 4.5751 14.7551 4.73237L15.2984 4.48932H15.3056Z" fill="#FC9E0A"/>
<path fill-rule="evenodd" clip-rule="evenodd" d="M9.71503 19.6514C10.2941 21.8675 10.2154 24.1979 9.4005 25.2416C9.19319 25.5061 8.32106 25.7206 7.40605 25.8921C7.30597 25.9136 1.77297 29.3806 1.8659 30.3314C1.99458 31.6467 3.18839 31.4251 3.53152 32.5117C3.61016 32.7619 3.69594 33.3266 3.78172 33.9629C4.58236 34.3989 5.41874 37.0582 6.28372 37.3799H19.7302C20.5952 37.0582 21.4244 34.3989 22.225 33.9629C22.3108 33.3266 22.3966 32.7619 22.4752 32.5117C22.8184 31.4251 24.005 31.6467 24.1409 30.3314C24.2409 29.3234 23.9979 27.6507 22.0964 27.2575C21.4244 27.1145 19.8517 26.128 18.6007 25.8921C17.6857 25.7206 16.8136 25.5133 16.6063 25.2416C15.7913 24.1979 15.7127 21.8603 16.2917 19.6514H9.72218H9.71503Z" fill="#F0C17D"/>
<path fill-rule="evenodd" clip-rule="evenodd" d="M12.9966 37.3799H19.7162C20.5812 37.0582 21.4104 34.3989 22.2111 33.9629C22.2969 33.3266 22.3827 32.7619 22.4613 32.5117C22.8044 31.4251 23.9911 31.6467 24.1269 30.3314C24.227 29.3234 23.9839 27.8437 22.0824 27.4434C21.4104 27.3004 19.8378 26.128 18.5868 25.8921C17.6717 25.7206 16.7996 25.5133 16.5923 25.2416C15.7774 24.1979 15.6987 21.8603 16.2778 19.6514H12.9966V37.3799Z" fill="#E0AF6A"/>
<path fill-rule="evenodd" clip-rule="evenodd" d="M18.6285 12.2884C19.1647 11.4877 19.8009 12.0382 19.6007 13.0104C19.4435 13.8039 19.0717 14.7118 18.8716 15.6196C18.7358 16.2415 18.5142 16.6776 17.9709 16.5704C17.7493 17.3853 17.4633 17.9786 17.013 18.7078C16.3839 19.7229 15.8763 20.2805 15.2115 20.8667C14.2322 21.7388 13.5816 22.1892 12.9526 22.1892C12.3235 22.1892 11.7445 21.7674 10.6364 20.8095C10.0931 20.3377 9.67852 19.8301 9.13523 19.0724C8.58479 18.3003 8.24166 17.5569 7.96286 16.5847C7.45531 16.6562 7.248 16.2272 7.11218 15.6268C6.90487 14.7189 6.5403 13.8182 6.38303 13.0175C6.20431 12.1454 6.69042 11.6164 7.18367 12.0811C7.15507 11.2661 7.20511 10.4083 7.36238 9.37177C7.86993 6.07628 9.54984 4.7109 12.9883 4.70375C16.0979 4.6966 18.0209 6.91266 18.5284 9.83643C18.6643 10.6228 18.6786 11.452 18.6214 12.2955L18.6285 12.2884Z" fill="#FFDBA7"/>
<path fill-rule="evenodd" clip-rule="evenodd" d="M18.6297 12.2884C19.1658 11.4878 19.802 12.0382 19.6019 13.0104C19.4446 13.8039 19.0729 14.7118 18.8727 15.6196C18.7369 16.2416 18.5153 16.6776 17.972 16.5704C17.7504 17.3853 17.4644 17.9787 17.0141 18.7078C16.385 19.7229 15.8775 20.2805 15.2126 20.8667C14.2547 21.7174 13.6114 22.1677 12.9966 22.182V4.69661C16.1062 4.68946 18.0292 6.90552 18.5367 9.82929C18.6725 10.6156 18.6868 11.4449 18.6297 12.2884Z" fill="#F0C17D"/>
<path fill-rule="evenodd" clip-rule="evenodd" d="M19.0792 5.22561C21.8957 8.757 19.3079 12.3599 18.2643 14.869C18.9005 10.4941 17.8425 10.4369 17.3993 6.98416H17.385C15.8838 9.47901 11.6089 10.2225 9.14983 12.2241C8.04895 13.1176 7.5414 13.9826 7.84879 15.4767C6.61923 13.1677 5.48976 11.7165 5.65417 8.85708C5.7757 6.5195 7.41987 4.78955 9.44292 3.753C13.6606 1.58699 17.8782 3.72441 19.0649 5.21846L19.0792 5.22561Z" fill="#FDB813"/>
<path fill-rule="evenodd" clip-rule="evenodd" d="M19.0794 5.22558C21.8959 8.75698 19.3081 12.3599 18.2644 14.869C18.9006 10.4941 17.8426 10.4369 17.3994 6.98413H17.3851C16.5345 8.39955 14.7902 9.25023 12.9888 10.0866V2.83796C15.8268 2.75933 18.2215 4.1533 19.0722 5.21844L19.0794 5.22558Z" fill="#FC9E0A"/>
<path fill-rule="evenodd" clip-rule="evenodd" d="M6.33315 11.2376V9.24312C6.33315 7.66328 6.93363 6.21927 7.89869 5.18273C8.86375 4.14619 10.2005 3.49567 11.666 3.49567H14.3539C15.8193 3.49567 17.1561 4.14619 18.1211 5.18273C19.0862 6.22642 19.6867 7.66328 19.6867 9.24312V13.3821H19.1077V9.24312C19.1077 7.83485 18.5715 6.55525 17.7137 5.62594C16.8559 4.69663 15.662 4.11759 14.361 4.11759H11.6731C10.3649 4.11759 9.17829 4.69663 8.32046 5.62594C7.45548 6.55525 6.92649 7.83485 6.92649 9.24312V11.4735C7.68423 12.46 8.32761 16.4274 7.69138 16.6133C7.01942 16.8206 6.26167 16.3988 6.1187 15.6625L5.58255 12.8889C5.44673 12.1955 5.74697 11.4878 6.34745 11.2376H6.33315Z" fill="#404F55"/>
<path fill-rule="evenodd" clip-rule="evenodd" d="M19.687 11.2519C20.3018 11.5092 20.5877 12.2312 20.4376 12.9389L19.8514 15.6983C19.7585 16.1272 19.4368 16.4346 19.0794 16.5776C18.822 17.4854 18.3574 18.3004 17.7498 18.958C17.328 19.4084 16.8419 19.7873 16.3057 20.0732C16.2986 20.4378 16.0627 20.7595 15.7196 20.8453L14.1397 21.2384C13.7323 21.3385 13.3248 21.0669 13.2319 20.6308L13.1961 20.4735C13.1032 20.0375 13.3605 19.5943 13.7609 19.4942L15.3407 19.101C15.6552 19.0224 15.9769 19.1725 16.1485 19.4513C16.5917 19.2082 16.992 18.8865 17.3351 18.5148C17.8212 17.993 18.2001 17.3568 18.4432 16.649C18.3788 16.6419 18.3216 16.6276 18.2573 16.6062C17.6354 16.3988 18.3359 12.5243 19.1008 11.5164V9.24312C19.1008 7.83486 18.5647 6.55526 17.7069 5.62595C16.849 4.69663 15.6552 4.1176 14.3542 4.1176H13.0103V3.48853H14.3542C15.8196 3.48853 17.1564 4.13905 18.1215 5.17559C19.0865 6.21928 19.687 7.65614 19.687 9.23598V11.2447V11.2519Z" fill="#404F55"/>
<path fill-rule="evenodd" clip-rule="evenodd" d="M15.4624 37.3799L17.0923 25.5347C18.522 25.7706 19.8302 26.3711 21.2956 26.5855C24.5911 27.0645 25.8707 28.7301 25.9422 33.3981C25.9637 35.0423 26.0065 36.6221 25.9994 37.3799H15.4624Z" fill="#A32B1D"/>
<path fill-rule="evenodd" clip-rule="evenodd" d="M20.9239 26.4783L17.9072 29.2948L19.9446 29.8882L16.5633 37.3799H14.7476L17.0994 25.3274L20.9239 26.4783Z" fill="#BD3222"/>
<path fill-rule="evenodd" clip-rule="evenodd" d="M10.537 37.3799L8.90712 25.5347C7.47741 25.7706 6.16922 26.3711 4.71091 26.5855C1.41542 27.0573 0.128674 28.7229 0.0571886 33.3981C0.0357429 35.0423 0 36.6221 0 37.3799H10.537Z" fill="#BD3222"/>
<path fill-rule="evenodd" clip-rule="evenodd" d="M5.06836 26.4783L8.0922 29.2948L6.05486 29.8882L9.43614 37.3799H11.2519L8.89284 25.3274L5.06836 26.4783Z" fill="#D43726"/>
</svg>
