<svg width="110" height="100" viewBox="0 0 72 36" fill="none" xmlns="http://www.w3.org/2000/svg">
<path opacity="0.1" d="M67.0756 32.2919C67.0756 32.7857 52.7477 33.1867 35.0734 33.1867C17.3992 33.1867 3.07129 32.7866 3.07129 32.2919C3.07129 31.7972 17.3992 31.3971 35.0734 31.3971C52.7477 31.3971 67.0756 31.7972 67.0756 32.2919Z" fill="black"/>
<path d="M67.4663 24.6116C67.6195 24.7718 67.8988 24.8743 68.2149 24.8629C68.531 24.8515 68.8015 24.7298 68.9433 24.5591C68.7901 24.3989 68.5108 24.2964 68.1948 24.3078C67.8787 24.3192 67.6081 24.4409 67.4663 24.6125V24.6116Z" fill="#33A441"/>
<path d="M64.0638 31.1869C64.2739 29.7501 64.3702 28.2985 64.3466 26.8495C64.3404 26.1254 64.301 25.4014 64.2433 24.68C64.1881 23.9585 64.0997 23.2397 63.9999 22.5235C63.795 21.0912 63.5043 19.6728 63.1453 18.2729C62.965 17.5733 62.7654 16.8782 62.5474 16.1891C62.3285 15.5001 62.0938 14.8172 61.8242 14.1448L61.7393 14.1798C61.9984 14.8496 62.2243 15.5351 62.4335 16.2241C62.6428 16.9132 62.8328 17.6083 63.0035 18.3079C63.3441 19.707 63.6155 21.1236 63.802 22.5498C63.893 23.2634 63.9718 23.9787 64.0174 24.6966C64.0655 25.4136 64.0962 26.1325 64.0927 26.8504C64.0988 28.2871 63.985 29.7221 63.76 31.1378L64.0638 31.186V31.1869Z" fill="#33A441"/>
<path d="M61.402 11.2661C61.8109 11.513 62.1375 12.0357 62.2285 12.6748C62.3196 13.314 62.1515 13.9067 61.8267 14.2578C61.4178 14.0109 61.0912 13.4882 61.0002 12.8491C60.9091 12.2099 61.0772 11.6172 61.402 11.2661Z" fill="#1C7627"/>
<path d="M63.8129 13.4689C63.8628 13.8392 63.7044 14.2936 63.3594 14.6613C63.0144 15.029 62.5714 15.2173 62.1985 15.191C62.1486 14.8215 62.307 14.3663 62.652 13.9985C62.9969 13.6308 63.4399 13.4426 63.812 13.4689H63.8129Z" fill="#1C7627"/>
<path d="M62.1305 15.1935C61.817 15.3966 61.3381 15.4465 60.8583 15.2906C60.3786 15.1357 60.0196 14.8144 59.8848 14.4659C60.1982 14.2628 60.6771 14.2129 61.1569 14.3687C61.6367 14.5237 61.9957 14.845 62.1305 15.1935Z" fill="#1C7627"/>
<path d="M62.5987 16.7593C62.2853 16.9624 61.8064 17.0123 61.3266 16.8564C60.8468 16.7015 60.4879 16.3802 60.353 16.0317C60.6665 15.8286 61.1454 15.7787 61.6252 15.9345C62.105 16.0895 62.4639 16.4108 62.5987 16.7593Z" fill="#1C7627"/>
<path d="M63.088 18.3842C62.7746 18.5873 62.2957 18.6372 61.8159 18.4814C61.3361 18.3264 60.9771 18.0051 60.8423 17.6566C61.1557 17.4535 61.6346 17.4036 62.1144 17.5595C62.5942 17.7144 62.9532 18.0357 63.088 18.3842Z" fill="#1C7627"/>
<path d="M63.4171 19.8979C63.1037 20.101 62.6248 20.1509 62.145 19.995C61.6652 19.8401 61.3062 19.5188 61.1714 19.1703C61.4848 18.9672 61.9637 18.9173 62.4435 19.0731C62.9233 19.2281 63.2823 19.5494 63.4171 19.8979Z" fill="#1C7627"/>
<path d="M63.2803 19.5915C63.5937 19.7946 64.0726 19.8445 64.5524 19.6887C65.0322 19.5337 65.3912 19.2124 65.526 18.8639C65.2126 18.6608 64.7336 18.6109 64.2539 18.7667C63.7741 18.9217 63.4151 19.243 63.2803 19.5915Z" fill="#1C7627"/>
<path d="M64.2525 14.9092C64.3024 15.2795 64.1439 15.7339 63.799 16.1016C63.454 16.4693 63.011 16.6576 62.6389 16.6313C62.589 16.261 62.7475 15.8066 63.0924 15.4389C63.4374 15.0711 63.8804 14.8829 64.2525 14.9092Z" fill="#1C7627"/>
<path d="M64.7573 16.5454C64.8072 16.9157 64.6487 17.3701 64.3037 17.7379C63.9588 18.1056 63.5158 18.2938 63.1428 18.2675C63.0929 17.8972 63.2514 17.4428 63.5963 17.0751C63.9413 16.7074 64.3843 16.5191 64.7564 16.5454H64.7573Z" fill="#1C7627"/>
<path d="M54.8235 17.9359C55.4512 18.2817 56.0396 18.6897 56.6104 19.1204C57.1804 19.5521 57.7241 20.0187 58.245 20.509C58.7651 21.0002 59.2606 21.5185 59.729 22.0596C60.1957 22.6033 60.6326 23.1715 61.0414 23.7607C61.86 24.9383 62.5421 26.2096 63.091 27.5369C63.6269 28.8694 64.0252 30.258 64.2774 31.6737L63.9736 31.7245C63.7468 30.3263 63.3756 28.9508 62.8669 27.627C62.3451 26.3085 61.6902 25.0399 60.897 23.8605C60.5004 23.2713 60.0757 22.6996 59.6213 22.1533C59.1643 21.6078 58.6802 21.086 58.1706 20.5896C57.6602 20.0931 57.1261 19.6212 56.5649 19.1826C56.0037 18.7457 55.4223 18.329 54.8042 17.9761L54.8243 17.9385L54.8235 17.9359Z" fill="#33A441"/>
<path d="M52.5078 16.3196C52.5411 16.7968 52.8589 17.3247 53.3868 17.696C53.9148 18.0672 54.5189 18.188 54.9794 18.0584C54.9461 17.5821 54.6283 17.0533 54.1004 16.6821C53.5725 16.3109 52.9683 16.1901 52.5078 16.3196Z" fill="#1C7627"/>
<path d="M56.0637 15.9161C55.7109 16.2383 55.4946 16.8153 55.5314 17.4597C55.5682 18.1041 55.8501 18.6522 56.2371 18.9323C56.5899 18.6101 56.8062 18.0332 56.7694 17.3888C56.7326 16.7444 56.4507 16.1963 56.0637 15.9161Z" fill="#1C7627"/>
<path d="M58.1622 16.9693C57.7367 17.1864 57.3743 17.6846 57.2377 18.3159C57.102 18.9471 57.2272 19.5503 57.5257 19.9233C57.9513 19.7062 58.3137 19.208 58.4503 18.5768C58.586 17.9455 58.4608 17.3423 58.1622 16.9693Z" fill="#1C7627"/>
<path d="M59.5792 18.2722C59.1537 18.4893 58.7913 18.9875 58.6547 19.6188C58.519 20.25 58.6442 20.8533 58.9427 21.2262C59.3682 21.0091 59.7307 20.5109 59.8673 19.8797C60.003 19.2484 59.8778 18.6452 59.5792 18.2722Z" fill="#1C7627"/>
<path d="M61.2096 19.6116C60.742 19.7123 60.2649 20.101 59.9716 20.6771C59.6791 21.2524 59.6459 21.8679 59.8385 22.3047C60.3051 22.2041 60.7832 21.8153 61.0765 21.2392C61.3698 20.664 61.4022 20.0485 61.2096 19.6116Z" fill="#1C7627"/>
<path d="M62.3575 21.2872C61.9311 21.2688 61.4303 21.4973 61.0477 21.9289C60.6651 22.3606 60.4979 22.8841 60.5662 23.3061C60.9926 23.3245 61.4934 23.096 61.876 22.6644C62.2586 22.2327 62.4258 21.7092 62.3575 21.2872Z" fill="#1C7627"/>
<path d="M63.1895 22.3415C62.7632 22.3231 62.2624 22.5516 61.8798 22.9832C61.4971 23.4149 61.3299 23.9384 61.3982 24.3604C61.8246 24.3788 62.3254 24.1503 62.708 23.7187C63.0906 23.287 63.2578 22.7635 63.1895 22.3415Z" fill="#1C7627"/>
<path d="M63.6661 23.8963C63.301 23.8806 62.8711 24.0767 62.5437 24.4462C62.2154 24.8156 62.0718 25.2656 62.1313 25.6264C62.4973 25.6421 62.9263 25.446 63.2537 25.0765C63.582 24.7071 63.7256 24.257 63.6661 23.8963Z" fill="#1C7627"/>
<path d="M64.1271 25.5169C63.8609 25.3663 63.4661 25.3488 63.0782 25.4985C62.6903 25.6482 62.4093 25.9266 62.313 26.2164C62.5791 26.367 62.974 26.3845 63.3619 26.2348C63.7497 26.0851 64.0308 25.8067 64.1271 25.5169Z" fill="#33A441"/>
<path d="M64.3141 26.8539C64.1504 26.6718 63.8545 26.5571 63.5226 26.5711C63.1899 26.5851 62.9054 26.7252 62.7583 26.9204C62.922 27.1025 63.2179 27.2172 63.5498 27.2032C63.8825 27.1892 64.167 27.0491 64.3141 26.8539Z" fill="#33A441"/>
<path d="M53.3857 19.8699C53.792 20.1212 54.4057 20.1729 55.016 19.9619C55.6262 19.7509 56.0771 19.3306 56.2408 18.8823C55.8346 18.6311 55.2208 18.5794 54.6106 18.7904C54.0004 19.0014 53.5495 19.4217 53.3857 19.8699Z" fill="#1C7627"/>
<path d="M54.6748 20.9302C55.081 21.1815 55.6948 21.2331 56.305 21.0221C56.9153 20.8111 57.3662 20.3909 57.5299 19.9426C57.1236 19.6913 56.5099 19.6397 55.8997 19.8507C55.2894 20.0617 54.8385 20.4819 54.6748 20.9302Z" fill="#1C7627"/>
<path d="M56.0483 22.238C56.4546 22.4893 57.0683 22.541 57.6786 22.33C58.2888 22.119 58.7397 21.6987 58.9034 21.2504C58.4972 20.9992 57.8834 20.9475 57.2732 21.1585C56.663 21.3695 56.2121 21.7898 56.0483 22.238Z" fill="#1C7627"/>
<path d="M57.5996 23.1083C57.9297 23.3132 58.4296 23.3552 58.926 23.1836C59.4225 23.012 59.7893 22.6706 59.9224 22.3055C59.5923 22.1006 59.0924 22.0586 58.596 22.2302C58.0995 22.4018 57.7327 22.7432 57.5996 23.1083Z" fill="#1C7627"/>
<path d="M58.7603 23.9392C59.0308 24.1134 59.4362 24.1537 59.8371 24.0154C60.2381 23.877 60.5323 23.5942 60.6365 23.2904C60.3668 23.1162 59.9606 23.0759 59.5596 23.2143C59.1586 23.3526 58.8644 23.6354 58.7603 23.9392Z" fill="#1C7627"/>
<path d="M59.4536 25.0076C59.7233 25.1818 60.1295 25.2221 60.5305 25.0837C60.9315 24.9454 61.2257 24.6626 61.3299 24.3588C61.0593 24.1846 60.654 24.1443 60.253 24.2826C59.852 24.421 59.5578 24.7037 59.4536 25.0076Z" fill="#1C7627"/>
<path d="M60.2139 25.9748C60.4327 26.1613 60.7996 26.2515 61.1936 26.1875C61.5876 26.1236 61.9071 25.9223 62.056 25.6762C61.8371 25.4897 61.4702 25.3996 61.0763 25.4635C60.6823 25.5274 60.3627 25.7288 60.2139 25.9748Z" fill="#1C7627"/>
<path d="M60.9497 27.1928C61.1966 27.2628 61.5241 27.1998 61.8138 27.0019C62.1036 26.804 62.2823 26.5212 62.3068 26.2664C62.0599 26.1964 61.7324 26.2594 61.4426 26.4573C61.1528 26.6552 60.9742 26.938 60.9497 27.1928Z" fill="#1C7627"/>
<path d="M61.7677 27.9195C61.9629 27.937 62.2002 27.8433 62.3902 27.6533C62.5802 27.4633 62.6739 27.2261 62.6564 27.0308C62.4611 27.0133 62.2239 27.107 62.0339 27.297C61.8439 27.487 61.7502 27.7242 61.7677 27.9195Z" fill="#1C7627"/>
<path d="M62.3106 28.1102C62.4393 28.1303 62.5899 28.0787 62.7064 27.9622C62.8228 27.8458 62.8736 27.6952 62.8543 27.5665C62.7256 27.5464 62.575 27.598 62.4586 27.7145C62.3421 27.8309 62.2914 27.9815 62.3106 28.1102Z" fill="#1C7627"/>
<path d="M62.4859 28.4694C62.6137 28.4887 62.7652 28.4379 62.8817 28.3214C62.9981 28.205 63.0489 28.0544 63.0296 27.9257C62.9018 27.9056 62.7503 27.9572 62.6339 28.0737C62.5174 28.1901 62.4667 28.3407 62.4859 28.4694Z" fill="#1C7627"/>
<path d="M68.7806 16.7311C68.3323 17.2223 67.9375 17.7564 67.5645 18.3045C67.1924 18.8534 66.8536 19.4251 66.5427 20.0117C66.2319 20.5983 65.9518 21.2007 65.7014 21.8162C65.4536 22.4326 65.24 23.0629 65.0552 23.7012C64.6875 24.9795 64.4677 26.2997 64.3811 27.6288C64.3075 28.9587 64.3714 30.2974 64.5728 31.6159L64.8547 31.5695C64.6367 30.2738 64.5527 28.9552 64.6052 27.6402C64.6709 26.326 64.8679 25.0171 65.2128 23.7441C65.3853 23.1085 65.5884 22.4798 65.8248 21.8643C66.0638 21.2497 66.3326 20.6465 66.6329 20.0581C66.9332 19.4707 67.2616 18.8963 67.6231 18.343C67.9856 17.7914 68.3726 17.2521 68.8095 16.7583L68.7806 16.7311Z" fill="#59C465"/>
<path d="M70.3326 14.6212C70.4455 15.0502 70.3238 15.6088 69.971 16.0921C69.6182 16.5763 69.1226 16.8617 68.6805 16.8853C68.5675 16.4563 68.6892 15.8977 69.0421 15.4144C69.3949 14.9303 69.8904 14.6449 70.3326 14.6212Z" fill="#59C465"/>
<path d="M67.0882 15.3261C67.4944 15.5038 67.8569 15.9459 68.0162 16.5229C68.1756 17.0999 68.0924 17.6655 67.8359 18.0271C67.4296 17.8493 67.0672 17.4072 66.9078 16.8293C66.7485 16.2524 66.8317 15.6868 67.0882 15.3252V15.3261Z" fill="#59C465"/>
<path d="M65.558 16.8773C65.9967 16.9412 66.4633 17.2704 66.7715 17.7843C67.0788 18.2982 67.1488 18.8656 66.9974 19.2823C66.5587 19.2184 66.0921 18.8892 65.7839 18.3753C65.4766 17.8613 65.4066 17.294 65.558 16.8773Z" fill="#59C465"/>
<path d="M64.7035 18.4435C65.1422 18.5075 65.6088 18.8367 65.917 19.3506C66.2243 19.8645 66.2943 20.4319 66.1429 20.8486C65.7042 20.7847 65.2376 20.4555 64.9294 19.9416C64.6221 19.4276 64.5521 18.8603 64.7035 18.4435Z" fill="#59C465"/>
<path d="M63.6711 20.1063C64.1115 20.0555 64.6474 20.2543 65.0764 20.6728C65.5054 21.0913 65.7181 21.621 65.6787 22.0631C65.2383 22.1139 64.7025 21.9151 64.2735 21.4966C63.8445 21.0781 63.6317 20.5484 63.6711 20.1063Z" fill="#59C465"/>
<path d="M63.1626 21.9204C63.5321 21.7777 64.0399 21.8285 64.5048 22.0937C64.9697 22.3581 65.2726 22.7688 65.3383 23.1593C64.9688 23.302 64.461 23.2512 63.9961 22.9859C63.5312 22.7215 63.2283 22.3109 63.1626 21.9204Z" fill="#59C465"/>
<path d="M62.7451 23.0952C63.1146 22.9525 63.6224 23.0033 64.0873 23.2685C64.5522 23.533 64.8551 23.9436 64.9208 24.3341C64.5513 24.4768 64.0435 24.426 63.5786 24.1607C63.1137 23.8963 62.8108 23.4857 62.7451 23.0952Z" fill="#59C465"/>
<path d="M62.792 24.602C63.1081 24.4794 63.5432 24.5232 63.9424 24.7499C64.3408 24.9767 64.6008 25.3286 64.6569 25.6631C64.3408 25.7857 63.9048 25.7419 63.5064 25.5151C63.1081 25.2884 62.848 24.9364 62.792 24.6011V24.602Z" fill="#59C465"/>
<path d="M62.8682 26.1639C63.0573 25.9529 63.3987 25.8189 63.784 25.8347C64.1692 25.8504 64.4993 26.0115 64.67 26.2374C64.4809 26.4484 64.1394 26.5824 63.7542 26.5666C63.369 26.5509 63.0389 26.3898 62.8682 26.1639Z" fill="#59C465"/>
<path d="M63.103 27.3932C63.1923 27.1849 63.4182 26.9958 63.7141 26.9091C64.0109 26.8224 64.3025 26.8601 64.4899 26.9888C64.4006 27.1971 64.1747 27.3862 63.8787 27.4729C63.5819 27.5596 63.2904 27.522 63.103 27.3932Z" fill="#59C465"/>
<path d="M70.6204 18.0008C70.3385 18.3431 69.8149 18.5716 69.2161 18.5681C68.6172 18.5646 68.0963 18.33 67.8179 17.985C68.0998 17.6427 68.6234 17.4142 69.2222 17.4177C69.8211 17.4212 70.342 17.6558 70.6204 18.0008Z" fill="#59C465"/>
<path d="M69.8045 19.3167C69.5226 19.659 68.999 19.8875 68.4002 19.884C67.8013 19.8805 67.2804 19.6459 67.002 19.3009C67.2839 18.9586 67.8074 18.7301 68.4072 18.7336C69.006 18.7371 69.527 18.9717 69.8054 19.3167H69.8045Z" fill="#59C465"/>
<path d="M68.9876 20.8749C68.7057 21.2173 68.1821 21.4458 67.5833 21.4423C66.9844 21.4388 66.4635 21.2041 66.1851 20.8592C66.467 20.5169 66.9905 20.2883 67.5894 20.2918C68.1883 20.2954 68.7092 20.53 68.9876 20.8749Z" fill="#59C465"/>
<path d="M67.8844 22.1015C67.655 22.3799 67.2286 22.5655 66.7418 22.5629C66.255 22.5603 65.8304 22.3694 65.6045 22.0884C65.8339 21.81 66.2603 21.6244 66.7471 21.627C67.2338 21.6296 67.6585 21.8205 67.8844 22.1015Z" fill="#59C465"/>
<path d="M67.1122 23.1777C66.9275 23.4115 66.5825 23.5682 66.1894 23.5655C65.7954 23.5629 65.4531 23.4027 65.271 23.1672C65.4557 22.9334 65.8007 22.7767 66.1938 22.7793C66.5869 22.782 66.9292 22.9422 67.1122 23.1777Z" fill="#59C465"/>
<path d="M66.8207 24.3228C66.6351 24.5566 66.291 24.7133 65.8979 24.7107C65.5048 24.7081 65.1616 24.5478 64.9795 24.3123C65.1651 24.0786 65.5092 23.9218 65.9023 23.9245C66.2954 23.9271 66.6386 24.0864 66.8207 24.3228Z" fill="#59C465"/>
<path d="M66.4417 25.3989C66.3052 25.6282 66.0092 25.8165 65.645 25.8778C65.2808 25.9391 64.9393 25.8576 64.7354 25.686C64.8719 25.4566 65.1679 25.2684 65.5321 25.2071C65.8972 25.1458 66.2378 25.2273 66.4417 25.3989Z" fill="#59C465"/>
<path d="M66.1596 26.6877C65.9634 26.8225 65.657 26.8654 65.3427 26.7779C65.0293 26.6903 64.7885 26.4959 64.6904 26.2788C64.8865 26.144 65.193 26.102 65.5064 26.1886C65.8207 26.2762 66.0615 26.4705 66.1587 26.6877H66.1596Z" fill="#59C465"/>
<path d="M65.6567 27.5702C65.4904 27.6437 65.254 27.6323 65.0307 27.522C64.8074 27.4117 64.6542 27.2314 64.6113 27.0545C64.7777 26.981 65.0141 26.9923 65.2373 27.1027C65.4606 27.213 65.6138 27.3933 65.6567 27.5702Z" fill="#59C465"/>
<path d="M65.2383 27.8993C65.1314 27.9544 64.9835 27.9544 64.8469 27.887C64.7103 27.8196 64.6201 27.7023 64.5991 27.5832C64.7059 27.5281 64.8539 27.5281 64.9905 27.5955C65.1271 27.6629 65.2172 27.7802 65.2383 27.8993Z" fill="#59C465"/>
<path d="M65.1899 28.267C65.0831 28.3221 64.9351 28.3221 64.7986 28.2547C64.662 28.1873 64.5718 28.07 64.5508 27.9509C64.6576 27.8957 64.8056 27.8957 64.9421 27.9632C65.0787 28.0306 65.1689 28.1479 65.1899 28.267Z" fill="#59C465"/>
<path d="M59.2837 15.2725C59.7407 15.8249 60.1382 16.4203 60.5111 17.0305C60.8824 17.6416 61.2177 18.2746 61.5215 18.9225C61.8253 19.5704 62.0958 20.2341 62.3322 20.91C62.5669 21.5867 62.7639 22.2767 62.9285 22.9736C63.2577 24.3692 63.4249 25.8024 63.4485 27.2382C63.4582 28.6741 63.3189 30.1117 63.0335 31.5213L62.7323 31.4574C63.0353 30.0732 63.1946 28.6575 63.2069 27.2391C63.2051 25.8208 63.0615 24.4007 62.7569 23.0121C62.6045 22.3178 62.4189 21.6314 62.1965 20.9555C61.9715 20.2805 61.7132 19.6168 61.4208 18.968C61.1284 18.3193 60.8044 17.6837 60.4437 17.0699C60.0821 16.457 59.6943 15.8564 59.2495 15.3014L59.2819 15.2733L59.2837 15.2725Z" fill="#33A441"/>
<path d="M57.7217 12.9192C57.5781 13.3753 57.6788 13.983 58.0343 14.5223C58.3889 15.0616 58.9072 15.3952 59.3826 15.4442C59.5262 14.9881 59.4255 14.3804 59.0709 13.8411C58.7163 13.3018 58.198 12.9682 57.7226 12.9192H57.7217Z" fill="#33A441"/>
<path d="M61.179 13.8489C60.7324 14.0196 60.3192 14.4766 60.1169 15.0895C59.9147 15.7024 59.9751 16.3161 60.2325 16.7188C60.679 16.5481 61.0923 16.0911 61.2945 15.4782C61.4968 14.8654 61.4364 14.2516 61.179 13.8489Z" fill="#33A441"/>
<path d="M62.7445 15.5991C62.2691 15.6446 61.749 15.9747 61.3909 16.5122C61.0328 17.0498 60.9278 17.6565 61.0687 18.1136C61.5441 18.068 62.0642 17.738 62.4223 17.2004C62.7804 16.6628 62.8854 16.0561 62.7445 15.5991Z" fill="#33A441"/>
<path d="M63.5832 17.3309C63.1078 17.3764 62.5878 17.7065 62.2288 18.244C61.8707 18.7816 61.7656 19.3884 61.9066 19.8454C62.382 19.7999 62.9021 19.4698 63.2602 18.9322C63.6183 18.3946 63.7233 17.7879 63.5824 17.3309H63.5832Z" fill="#33A441"/>
<path d="M64.6084 19.1747C64.1365 19.0968 63.5499 19.2833 63.0657 19.7114C62.5824 20.1395 62.325 20.699 62.3443 21.177C62.8162 21.255 63.4028 21.0685 63.8869 20.6403C64.3702 20.2122 64.6276 19.6527 64.6084 19.1747Z" fill="#33A441"/>
<path d="M65.0605 21.1552C64.6709 20.9818 64.1211 21.0107 63.6063 21.2716C63.0915 21.5325 62.7439 21.9589 62.6528 22.3756C63.0424 22.549 63.5923 22.5201 64.1071 22.2601C64.6219 22 64.9695 21.5728 65.0605 21.156V21.1552Z" fill="#33A441"/>
<path d="M65.4482 22.4413C65.0586 22.2679 64.5088 22.2968 63.994 22.5577C63.4792 22.8186 63.1316 23.245 63.0405 23.6618C63.4301 23.8351 63.98 23.8062 64.4948 23.5453C65.0096 23.2844 65.3572 22.858 65.4482 22.4413Z" fill="#33A441"/>
<path d="M65.3201 24.0627C64.9856 23.9138 64.5146 23.9383 64.0742 24.1625C63.6329 24.3857 63.3352 24.7508 63.2573 25.1089C63.5918 25.2578 64.0628 25.2332 64.5032 25.0091C64.9445 24.7859 65.2421 24.4199 65.3201 24.0627Z" fill="#33A441"/>
<path d="M65.1545 25.7393C64.9619 25.502 64.6012 25.34 64.1853 25.3365C63.7703 25.333 63.4061 25.4898 63.21 25.7235C63.4026 25.9608 63.7633 26.1228 64.1792 26.1254C64.595 26.1289 64.9584 25.9731 65.1545 25.7384V25.7393Z" fill="#33A441"/>
<path d="M64.8374 27.0508C64.7525 26.8214 64.5196 26.606 64.2044 26.4975C63.8901 26.3889 63.574 26.4143 63.3647 26.5421C63.4497 26.7715 63.6826 26.9869 63.9977 27.0954C64.3121 27.204 64.6281 27.1786 64.8374 27.0508Z" fill="#33A441"/>
<path d="M57.2363 16.543C57.5217 16.9265 58.0742 17.1996 58.7195 17.2277C59.3647 17.2557 59.9382 17.0298 60.2551 16.6726C59.9697 16.2891 59.4173 16.0159 58.772 15.9888C58.1267 15.9608 57.5533 16.1867 57.2363 16.5439V16.543Z" fill="#33A441"/>
<path d="M58.0454 18.0033C58.3308 18.3868 58.8833 18.66 59.5286 18.6871C60.1738 18.7151 60.7473 18.4893 61.0642 18.132C60.7788 17.7486 60.2263 17.4754 59.5811 17.4483C58.9358 17.4202 58.3623 17.6461 58.0454 18.0033Z" fill="#33A441"/>
<path d="M58.8433 19.7236C59.1287 20.1071 59.6811 20.3802 60.3264 20.4074C60.9717 20.4354 61.5451 20.2095 61.8621 19.8523C61.5766 19.4688 61.0242 19.1956 60.3789 19.1676C59.7337 19.1396 59.1602 19.3655 58.8433 19.7227V19.7236Z" fill="#33A441"/>
<path d="M59.9668 21.1028C60.1988 21.4145 60.6479 21.6368 61.1724 21.6596C61.6968 21.6824 62.1635 21.4994 62.4218 21.2087C62.1897 20.897 61.7406 20.6746 61.2162 20.6519C60.6917 20.6291 60.2251 20.8121 59.9668 21.1028Z" fill="#33A441"/>
<path d="M60.7412 22.302C60.9286 22.5638 61.291 22.7503 61.7148 22.7678C62.1385 22.7862 62.5159 22.6312 62.7251 22.3869C62.5378 22.1251 62.1753 21.9387 61.7516 21.9212C61.3278 21.9036 60.9505 22.0577 60.7421 22.302H60.7412Z" fill="#33A441"/>
<path d="M60.9941 23.5505C61.1815 23.8123 61.544 23.9988 61.9677 24.0163C62.3915 24.0347 62.7688 23.8797 62.9772 23.6355C62.7898 23.3737 62.4274 23.1872 62.0036 23.1697C61.5799 23.1513 61.2025 23.3063 60.9941 23.5505Z" fill="#33A441"/>
<path d="M61.3472 24.7292C61.482 24.9831 61.7911 25.2011 62.1798 25.2869C62.5694 25.3719 62.9406 25.3027 63.1691 25.1285C63.0343 24.8746 62.7252 24.6566 62.3365 24.5708C61.9469 24.4858 61.5757 24.555 61.3472 24.7292Z" fill="#33A441"/>
<path d="M61.584 26.1316C61.788 26.2875 62.1154 26.3487 62.4586 26.2708C62.801 26.1929 63.0706 25.9959 63.1871 25.7674C62.9831 25.6115 62.6556 25.5503 62.3124 25.6282C61.9701 25.7061 61.7004 25.9031 61.584 26.1316Z" fill="#33A441"/>
<path d="M62.0786 27.1078C62.2537 27.1962 62.5094 27.1953 62.7554 27.0885C63.0023 26.9817 63.1765 26.7952 63.2317 26.607C63.0566 26.5186 62.8009 26.5194 62.5549 26.6263C62.3089 26.7331 62.1338 26.9196 62.0786 27.1078Z" fill="#33A441"/>
<path d="M62.5132 27.4844C62.6253 27.5501 62.7846 27.5571 62.9352 27.4923C63.0858 27.4266 63.1891 27.3049 63.218 27.178C63.1059 27.1123 62.9466 27.1053 62.796 27.1701C62.6454 27.2357 62.5421 27.3574 62.5132 27.4844Z" fill="#33A441"/>
<path d="M62.5439 27.8834C62.656 27.9491 62.8154 27.9561 62.9659 27.8913C63.1165 27.8257 63.2199 27.704 63.2487 27.577C63.1367 27.5113 62.9773 27.5043 62.8267 27.5691C62.6761 27.6348 62.5728 27.7565 62.5439 27.8826V27.8834Z" fill="#33A441"/>
<path d="M65.9213 26.7821C66.5963 25.7936 67.3073 24.8279 68.0655 23.9008L68.0532 23.8903C67.2757 24.8026 66.5447 25.7542 65.8486 26.7313C65.1543 27.7093 64.4994 28.717 63.9102 29.765C63.7684 30.0189 63.63 30.2755 63.4961 30.5346C63.5486 30.5635 63.6012 30.5933 63.6528 30.623C63.7815 30.3604 63.9155 30.1004 64.0529 29.8421C64.6176 28.7888 65.2498 27.7715 65.923 26.7812L65.9213 26.7821Z" fill="#33A441"/>
<path d="M68.8172 22.64C68.5686 22.6628 68.3103 22.8291 68.1475 23.0997C67.9846 23.3702 67.9592 23.6766 68.0564 23.9069C68.3051 23.8841 68.5633 23.7178 68.7262 23.4472C68.889 23.1767 68.9144 22.8703 68.8172 22.64Z" fill="#33A441"/>
<path d="M66.9601 23.217C66.8585 23.4149 66.8533 23.7117 66.9671 24.0068C67.0809 24.3018 67.284 24.5181 67.4924 24.596C67.594 24.3981 67.5992 24.1013 67.4854 23.8063C67.3716 23.5112 67.1676 23.295 66.9601 23.217Z" fill="#33A441"/>
<path d="M66.8965 25.3925C67.0655 25.537 67.3535 25.6097 67.6661 25.5668C67.9795 25.5239 68.236 25.375 68.3604 25.1912C68.1914 25.0467 67.9033 24.974 67.5908 25.0169C67.2773 25.0598 67.0208 25.2087 66.8965 25.3925Z" fill="#33A441"/>
<path d="M66.1509 26.3565C66.3199 26.5009 66.6079 26.5736 66.9205 26.5307C67.2339 26.4878 67.4904 26.339 67.6148 26.1551C67.4458 26.0106 67.1577 25.938 66.8452 25.9809C66.5317 26.0238 66.2752 26.1726 66.1509 26.3565Z" fill="#33A441"/>
<path d="M65.6426 27.1236C65.8116 27.268 66.0996 27.3407 66.4122 27.2978C66.7247 27.2549 66.9821 27.106 67.1065 26.9222C66.9375 26.7777 66.6494 26.7051 66.3369 26.748C66.0234 26.7909 65.7669 26.9397 65.6426 27.1236Z" fill="#33A441"/>
<path d="M65.0811 27.971C65.25 28.1155 65.5381 28.1882 65.8506 28.1453C66.1641 28.1024 66.4206 27.9535 66.5449 27.7697C66.376 27.6252 66.0879 27.5525 65.7754 27.5954C65.4628 27.6383 65.2054 27.7872 65.0811 27.971Z" fill="#33A441"/>
<path d="M66.3097 24.0445C66.2081 24.2423 66.2029 24.5391 66.3167 24.8333C66.4305 25.1284 66.6345 25.3446 66.842 25.4225C66.9436 25.2247 66.9488 24.9279 66.835 24.6328C66.7212 24.3378 66.5181 24.1215 66.3097 24.0436V24.0445Z" fill="#33A441"/>
<path d="M65.6886 24.8956C65.587 25.0935 65.5818 25.3903 65.6956 25.6844C65.8094 25.9795 66.0125 26.1957 66.2209 26.2737C66.3225 26.0758 66.3277 25.779 66.2139 25.4839C66.1001 25.1889 65.8961 24.9726 65.6886 24.8947V24.8956Z" fill="#33A441"/>
<path d="M65.0968 25.7534C64.9952 25.9513 64.99 26.2481 65.1038 26.5431C65.2176 26.8382 65.4216 27.0544 65.6291 27.1324C65.7307 26.9345 65.7359 26.6377 65.6221 26.3426C65.5083 26.0476 65.3043 25.8313 65.0968 25.7534Z" fill="#33A441"/>
<path d="M64.524 26.5939C64.4225 26.7918 64.4172 27.0886 64.5311 27.3827C64.6449 27.6778 64.8489 27.894 65.0564 27.972C65.1579 27.7741 65.1632 27.4773 65.0494 27.1822C64.9355 26.8872 64.7315 26.6709 64.524 26.593V26.5939Z" fill="#33A441"/>
<path d="M66.3672 29.0463H61.888C61.1438 29.4263 60.6719 29.9919 60.6719 30.624C60.6719 31.2991 61.2103 31.8979 62.0421 32.2761H66.2122C67.0448 31.8979 67.5824 31.2991 67.5824 30.624C67.5824 29.9919 67.1105 29.4272 66.3663 29.0463H66.3672Z" fill="#F4E034"/>
<path d="M65.9454 29.4009C66.3867 29.3493 66.9786 29.682 67.1309 30.3517C67.3393 31.672 66.0164 32.0608 65.2949 31.7246C65.9235 31.567 66.6117 31.278 66.6318 30.6284C66.6669 30.2878 66.4646 29.9604 66.4611 29.9499C66.4331 29.9096 66.3771 29.8107 66.2711 29.696C66.1783 29.5848 66.0654 29.4911 65.9446 29.4009H65.9454Z" fill="#F8ED85"/>
<path d="M66.5755 28.8527H61.6279V29.1635H66.5755V28.8527Z" fill="#4E93C5"/>
<path d="M15.0774 32.0983H15.4504V24.1415H14.7876L15.0774 32.0983Z" fill="#1E0C00"/>
<path d="M6.62939 32.0327H7.02952L7.29217 24.5776H6.62939V32.0327Z" fill="#1E0C00"/>
<path d="M19.9124 31.5038H20.2853V23.9874H19.6226L19.9124 31.5038Z" fill="#1E0C00"/>
<path d="M10.652 31.7587L11.0521 31.7535L11.2438 25.2325L10.5811 25.2404L10.652 31.7587Z" fill="#1E0C00"/>
<path d="M9.45588 22.0876C9.63099 20.812 8.14872 12.9848 7.49295 12.7528C7.17689 12.6416 5.65523 12.6941 4.26928 12.7703C2.96475 12.8421 2.00692 14.0223 2.20654 15.3128L3.12497 21.2559C3.52596 23.8518 15.0916 22.0491 15.0916 22.0491L9.45588 22.0867V22.0876Z" fill="#5DB9F4"/>
<path d="M18.1 18.089C16.0916 17.8674 12.6061 18.1301 11.7761 17.8035C10.9444 17.4761 10.2527 15.6839 9.64073 14.7733C8.75382 13.4548 8.43162 13.6439 7.49219 13.362L8.90353 22.2705L14.3948 24.686L19.9649 24.461C20.056 24.4549 20.2722 22.745 20.2678 22.5392C20.2398 21.2864 20.4281 18.3455 18.0992 18.089H18.1Z" fill="#00677F"/>
<path d="M15.0047 25.9354L19.4034 24.8988C19.7335 24.8227 19.9655 24.5355 19.9541 24.2159L19.9252 23.4166C19.8972 22.6522 19.1337 22.1234 18.3484 22.3248L14.0093 23.4393L15.0056 25.9354H15.0047Z" fill="#00485C"/>
<path d="M21.1026 30.3535C21.0895 30.4813 20.868 30.681 21.177 30.8815C21.2812 30.9489 21.3031 30.7843 21.6918 30.9699C21.9536 31.0951 22.4185 31.6204 22.6821 31.6834C23.1899 31.8069 23.5979 31.616 23.5979 31.616C23.3457 31.4523 23.1461 31.2571 22.8659 31.1091C22.0105 30.6582 21.592 27.2104 21.4449 27.3575C21.1306 27.5063 20.5974 27.6429 20.2866 27.7357C20.7533 28.3363 21.163 29.7984 21.1035 30.3526L21.1026 30.3535Z" fill="#F7A58E"/>
<path d="M21.5048 30.3998C21.4033 30.3342 21.2483 30.3517 21.1021 30.3534C21.1056 30.4821 20.744 30.7255 21.0452 30.9208C21.3543 31.1213 21.785 32.347 21.785 32.347L21.9881 32.2901C21.9881 32.2901 21.3262 30.9304 21.6283 31.0486C21.9303 31.1659 22.4592 32.1237 22.4592 32.1237L23.8451 31.7079L23.7584 31.4549C23.6122 31.3603 23.3793 31.2736 23.2393 31.3927C22.6492 31.8926 21.9496 30.6038 21.5048 30.4007V30.3998Z" fill="#32104B"/>
<path d="M19.5441 20.6124C19.0582 19.8113 15.775 19.5425 12.9672 19.0128C11.1452 18.6696 10.0289 18.1075 10.0289 18.1075L9.49658 19.5398L11.7703 21.1009L18.5749 21.6586C18.5749 21.6586 20.072 27.3942 20.867 28.753L22.4114 28.4063C21.5132 26.636 19.9897 21.3478 19.5441 20.6124Z" fill="#001542"/>
<path d="M20.5072 27.831C20.1666 27.9186 19.826 28.0158 19.4863 28.1252C19.7183 28.7924 19.8716 29.3334 19.8164 29.4989C19.7735 29.6267 19.7227 29.7563 19.6728 29.8806C19.5345 30.23 19.5678 30.5023 19.6614 30.6222C19.7183 30.6949 19.9801 30.5574 20.2174 30.9181C20.5098 31.362 20.6201 32.3461 20.6201 32.3461L22.1514 32.2997C22.1514 32.2997 22.3388 32.1675 21.9763 31.9259C21.6139 31.6851 21.3451 31.6369 21.1831 31.3288C21.0211 31.0214 20.7865 29.3361 20.579 28.2688C20.558 28.1594 20.5335 28.0096 20.5072 27.8293V27.831Z" fill="#F7A58E"/>
<path d="M22.2121 32.1595C22.1884 32.1061 21.9118 31.7068 21.3935 31.523L21.1124 31.8049C20.651 31.4214 20.5144 30.6877 20.1887 30.2692C20.1056 30.123 19.8972 29.961 19.6731 29.8805C19.5347 30.2298 19.4078 30.5363 19.5015 30.6553C19.6275 30.8173 19.9331 32.4361 19.9331 32.4361L20.1563 32.3924C20.1563 32.3924 19.7624 31.0843 19.9707 30.9609C20.1791 30.8383 20.5486 32.451 20.5486 32.451L22.2436 32.3635C22.2436 32.3635 22.3066 32.3118 22.2121 32.1577V32.1595Z" fill="#4F005E"/>
<path d="M17.9102 20.6123H17.9181C17.9181 20.6123 17.9161 20.6133 17.9102 20.6123Z" fill="#5279E0"/>
<path d="M18.2656 18.5533C18.1693 18.4281 17.5608 18.4141 17.5608 18.4141C17.5608 18.4141 16.8683 18.4587 16.2099 18.246C15.7887 18.1094 13.5772 17.4895 12.2858 16.6455C11.9067 17.0596 11.3384 17.3582 11.0767 17.8222C11.145 17.8625 11.2132 17.9019 11.2815 17.9387C13.9064 19.3185 15.9034 19.0663 15.9034 19.0663C15.9034 19.0663 16.8017 19.4113 17.2316 19.4612C17.6615 19.5111 17.9784 19.3859 17.7534 19.2441C17.5284 19.1022 17.3988 19.2414 17.1922 19.1119C16.9856 18.9823 17.0635 18.9919 17.1694 18.8632C17.2754 18.7345 17.911 18.8632 17.9276 18.9639C17.9443 19.0655 18.2034 19.8394 18.3304 19.6853C18.4573 19.5312 18.1439 18.7879 18.0598 18.7354C17.9758 18.682 17.5319 18.5979 17.5319 18.5979L18.1378 18.6934C18.1378 18.6934 18.3663 19.4875 18.4731 19.4699C18.5799 19.4524 18.3628 18.6793 18.2665 18.5541L18.2656 18.5533Z" fill="#F7A58E"/>
<path d="M12.285 16.6453C12.109 16.5306 9.8064 11.7844 8.2182 11.7844C7.87675 11.7844 6.66064 12.048 6.66064 12.048C6.66064 12.048 8.55265 16.6094 11.0759 18.1083C11.3386 17.6434 11.9059 17.0603 12.285 16.6462V16.6453Z" fill="#CA7F3E"/>
<path d="M17.9272 20.4959L13.1889 19.8516C13.1889 19.8516 10.1972 18.7685 10.192 18.294C10.1018 18.3159 8.46371 19.3324 8.46371 19.3324C8.09424 20.5135 8.56526 23.1348 9.41015 22.9676C10.5798 23.2757 16.8188 23.1497 16.8188 23.1497C16.8188 23.1497 18.815 27.6499 19.3692 29.2477C19.7842 29.1146 20.4488 28.8616 20.8646 28.7539C20.6186 27.0711 18.3589 20.5345 17.9264 20.4968L17.9272 20.4959Z" fill="#314C87"/>
<path d="M12.0493 18.8097C11.9355 18.2896 10.3359 18.8771 10.3359 16.4782C10.3359 15.6832 10.2816 15.2673 10.3499 14.5643C10.4156 13.8849 7.8494 11.4185 7.8494 11.4185C7.8494 11.4185 5.62557 11.7871 5.65358 12.5033C5.68248 13.2186 6.47395 17.0394 6.50021 17.2714C6.58164 17.9946 8.51829 21.0256 8.46488 21.5711C9.39119 21.3864 11.7017 19.863 12.0493 18.8088V18.8097Z" fill="#F6AA54"/>
<path d="M6.73904 6.1039C6.65849 6.21597 5.6849 6.27113 5.05978 7.29637C4.44954 8.29709 5.10443 10.0105 5.52644 10.8317C5.67615 11.1233 5.85826 11.2896 5.85826 11.2896C5.85826 11.2896 6.24349 11.069 6.69176 10.9955C7.14003 10.9219 7.85533 10.8562 8.32373 10.6864C8.80177 10.513 8.2607 7.56603 7.77828 6.89888C7.29674 6.2326 6.73904 6.10303 6.73904 6.10303V6.1039Z" fill="#2E0A29"/>
<path d="M6.11963 6.10838C6.11963 6.10838 7.68682 5.62334 8.21739 6.70549C8.54571 7.37526 8.70243 9.48527 9.33193 9.43975C9.33193 9.43975 9.08503 9.77507 8.85039 9.8136C8.85039 9.8136 8.75934 10.008 9.20761 10.3302C9.20761 10.3302 8.78998 10.5911 8.32332 10.6874C8.29093 10.6944 7.96874 10.8598 7.87768 10.5771C7.76999 10.2417 7.88906 9.42662 7.78575 9.1018C7.34799 7.72722 6.12051 6.10925 6.12051 6.10925L6.11963 6.10838Z" fill="#450F3D"/>
<path d="M6.78506 6.22564C6.88574 6.20375 6.98205 6.195 7.06873 6.20113C7.06873 6.20113 7.84181 6.36222 8.01867 7.01974C8.1964 7.67814 8.25419 8.10014 8.41528 8.51689C8.66831 9.1709 8.60965 10.4071 7.86808 10.542C7.7779 10.1883 7.88559 9.41518 7.78579 9.10086C7.41982 7.9513 6.93389 6.62751 6.78418 6.22564H6.78506Z" fill="#340B2E"/>
<path d="M6.50049 9.49475L6.65808 11.7212C6.65808 11.7212 8.14122 13.3698 8.80574 13.2184C8.84076 13.2105 8.12196 11.7431 8.10358 11.6888C8.10358 11.6888 7.94072 10.3843 7.90833 9.99292C7.87593 9.60157 6.50049 9.49475 6.50049 9.49475Z" fill="#F7A58E"/>
<path d="M6.55508 9.57369L6.66014 10.7845C7.48926 11.3282 7.93053 10.3039 7.93753 10.2977C7.85261 9.97818 7.91826 10.1305 7.90688 9.99307C7.87449 9.60171 6.5542 9.57281 6.5542 9.57281L6.55508 9.57369Z" fill="#D5775C"/>
<path d="M6.78448 6.23798C7.2275 6.25899 7.66439 6.484 7.91479 6.85435C8.20634 7.28335 8.17832 7.85332 8.36043 8.32785C8.51364 8.72709 8.56093 9.86615 7.97082 10.2776C7.38072 10.6883 6.30032 9.79698 6.05167 9.34784C5.80302 8.89869 5.60953 8.22366 5.62004 7.44007C5.62617 6.99881 5.85643 6.57943 6.24429 6.36143C6.41589 6.26512 6.59887 6.23097 6.78361 6.23973L6.78448 6.23798Z" fill="#F7A58E"/>
<path d="M7.84577 8.98548C7.71532 8.89968 7.6444 8.68255 7.63477 8.53809C7.69955 8.66329 7.79849 8.8918 7.90005 8.95921L7.92106 8.97322C7.91318 8.97847 7.82213 9.0993 7.67854 9.11943C7.71882 9.10105 7.80199 9.03889 7.84489 8.98548H7.84577Z" fill="#450F3D"/>
<path d="M7.27084 7.93904C7.27084 7.93904 7.18329 7.87512 7.03007 7.87337C6.87598 7.87075 6.59668 8.10626 6.59668 8.10626C6.59668 8.10626 6.89348 7.95918 6.98104 7.94429C7.06859 7.92941 7.22356 7.98632 7.22356 7.98632L7.27084 7.93904Z" fill="#5C1451"/>
<path d="M7.68301 7.89006C7.68301 7.89006 7.72853 7.80864 7.84673 7.74647C7.9658 7.68431 8.26698 7.74998 8.26698 7.74998C8.26698 7.74998 7.98331 7.75698 7.90976 7.78062C7.83622 7.80426 7.73641 7.9067 7.73641 7.9067L7.68213 7.89006H7.68301Z" fill="#5C1451"/>
<path d="M7.38619 8.33487C7.29688 8.2692 7.12966 8.27095 7.03773 8.30948C6.90465 8.36463 6.85037 8.49421 6.76807 8.52923C6.90377 8.53449 6.91778 8.38039 7.21983 8.33399C7.27412 8.32874 7.33015 8.32348 7.38706 8.33487H7.38619Z" fill="#2E0A29"/>
<path d="M7.83057 8.37502C7.8507 8.26645 7.97504 8.15351 8.06872 8.11849C8.20355 8.06858 8.33137 8.12637 8.4163 8.09485C8.31999 8.19116 8.20529 8.08784 7.95314 8.25945C7.90937 8.29272 7.86471 8.32686 7.83144 8.37414L7.83057 8.37502Z" fill="#2E0A29"/>
<path d="M7.19278 8.9257C7.21467 9.03076 7.09472 9.14545 6.92486 9.18047C6.75501 9.2155 6.59917 9.15946 6.57728 9.05352C6.5554 8.94846 6.67534 8.83377 6.84519 8.79875C7.01504 8.76372 7.17089 8.81976 7.19278 8.9257Z" fill="#FD5E5A"/>
<path d="M8.42331 8.60441C8.43994 8.68408 8.36202 8.76813 8.24908 8.79177C8.13614 8.81541 8.03108 8.76988 8.01444 8.68933C7.99781 8.60966 8.07573 8.52561 8.18867 8.50197C8.30162 8.47833 8.40667 8.52386 8.42331 8.60441Z" fill="#FD5E5A"/>
<path d="M6.78478 6.22571C6.78478 6.22571 6.04583 7.37965 6.25684 8.23592C6.46871 9.0913 7.40465 10.0535 7.40465 10.0535L6.83994 10.4956L7.4922 10.8791C7.4922 10.8791 5.60282 11.4018 5.21846 11.4018C4.83411 11.4018 3.21789 9.57284 4.44888 7.22556C5.02848 6.11977 6.17717 5.91928 6.78478 6.22571Z" fill="#170053"/>
<path d="M7.35352 9.49498C7.35352 9.49498 8.13273 9.41881 8.21766 9.25159C8.21766 9.25159 8.17476 9.62369 7.92173 9.69373C7.66783 9.76465 7.35352 9.49498 7.35352 9.49498Z" fill="#D37054"/>
<path d="M8.19091 9.37241C8.21192 9.30324 8.21717 9.25159 8.21717 9.25159C8.13224 9.41794 7.35303 9.49498 7.35303 9.49498C7.35303 9.49498 7.39505 9.53088 7.46072 9.57291C7.65858 9.54664 8.07096 9.48097 8.19003 9.37241H8.19091Z" fill="white"/>
<path d="M15.0045 25.9356L7.18519 25.883C5.22314 25.7858 3.59904 24.322 3.29874 22.3801L2.11503 14.721C1.95568 13.6879 2.95203 12.8246 3.93525 13.1774C4.04118 13.2159 4.11472 13.2588 4.14012 13.3096C4.60852 14.2386 5.33608 17.5069 6.44537 18.4595C7.76041 19.5889 11.2791 19.0005 13.7411 18.786C13.7411 18.786 15.0991 18.5864 15.3258 19.7622C15.5176 20.7568 15.0492 24.7772 15.0036 25.9356H15.0045Z" fill="#0089A9"/>
<path d="M15.0044 25.9355C13.9896 25.974 7.5309 26.1692 6.69039 26.0379C4.84041 25.7525 3.35115 24.3254 3.06485 22.3415C3.06222 22.3231 1.9827 15.0256 2.00021 14.4898C2.04574 13.5065 3.02808 12.8009 3.93512 13.1773C3.09112 12.9042 1.99759 13.5757 2.24886 14.8478C3.70048 22.816 3.40981 22.6216 3.95789 23.6206C4.6084 24.8253 5.91994 25.6868 7.47925 25.6833C8.37666 25.7078 11.089 25.735 15.0044 25.9355Z" fill="#00677F"/>
<path d="M3.93555 13.1773C4.13254 13.2298 4.13954 13.2272 4.36105 13.6825C4.81545 14.6596 5.81267 17.5357 6.5376 18.1118L6.64091 18.2089C7.68279 19.1055 11.0457 18.6703 12.4999 18.5268C12.5157 18.525 13.6898 18.4217 13.6749 18.4235C14.7246 18.3438 15.5459 18.7824 15.6597 19.8208C15.7954 21.1131 15.1528 24.9461 15.0048 25.9363C14.9155 22.7643 15.3331 20.0248 14.8332 19.4504C14.4296 18.9461 13.4735 19.2097 13.2485 19.2079L12.5778 19.2832C7.36235 19.8444 6.18652 19.4662 5.22082 16.985C4.61408 15.4134 4.25161 13.419 4.07738 13.2657C4.03711 13.2298 3.98633 13.2027 3.93555 13.1791V13.1773Z" fill="#32D3F9"/>
<path d="M6.37272 6.34039C6.22563 6.42094 6.10044 6.53388 5.9875 6.65471C5.10322 7.6099 5.29671 8.84352 6.26154 9.52292L5.98049 9.88889C4.94562 8.95821 4.8712 7.53636 5.9481 6.61268C6.07767 6.50324 6.21776 6.40343 6.3736 6.34039H6.37272Z" fill="#2D1175"/>
<path d="M5.91071 6.2372C4.98615 6.9315 4.26647 8.15898 4.78653 9.18422L4.86096 9.35495C4.87672 9.3707 5.4458 10.5912 6.67592 10.6498L6.64615 11.1104C4.63332 10.8538 3.24999 7.94185 5.91158 6.23633L5.91071 6.2372Z" fill="#2D1175"/>
<path d="M6.78537 6.22566C6.78537 6.22566 7.38423 6.03917 7.83074 6.34035C8.27726 6.64153 7.81587 7.34633 7.27129 7.57134C6.72584 7.79635 5.99039 7.96533 6.12085 8.52829C6.2513 9.09125 6.49995 9.25147 6.49995 9.25147C6.49995 9.25147 5.65332 8.98094 5.65332 8.23586C5.65332 7.49079 5.91948 6.30358 6.78537 6.22566Z" fill="#2D1175"/>
<path d="M14.5449 18.8525C14.4828 18.7614 14.0625 18.462 13.8182 18.4024C13.6466 18.3604 13.405 18.3683 13.2369 18.3814C13.0574 18.3648 12.8718 18.3613 12.6888 18.3779C12.0112 18.4383 8.64828 18.3639 8.26743 18.1074C8.20526 18.0654 8.1466 18.0076 8.08969 17.9384C7.57838 18.3639 7.08459 18.8087 6.86133 19.348C6.89372 19.3725 6.92699 19.3953 6.96026 19.4137C8.20876 20.1123 11.499 19.1037 12.4227 18.9505C13.3463 18.7964 13.9312 19.3305 14.1833 19.5756C14.2035 19.5958 14.2665 19.6177 14.2665 19.4986C14.2665 19.3795 14.0074 19.0241 14.0074 19.0241C14.0074 19.0241 14.3103 19.2018 14.4259 19.566C14.5414 19.9294 14.5624 19.5608 14.5099 19.4146C14.4574 19.2683 14.1833 18.9925 14.1833 18.9672C14.1833 18.9024 14.6071 19.4478 14.6649 19.5958C14.7227 19.7437 14.7752 19.4995 14.7034 19.355C14.6841 19.3156 14.6509 19.2648 14.6123 19.2123C14.7008 19.32 14.7848 19.4146 14.8058 19.4146C14.847 19.4146 14.7778 19.088 14.5449 18.8525Z" fill="#F7A58E"/>
<path d="M8.26732 18.1075C7.93812 16.5745 6.85684 11.8423 6.12052 11.9517C6.12052 11.9517 5.29228 11.9062 5.00686 12.9305C4.72932 13.9269 5.66 18.575 6.86122 19.4602C7.08448 18.9209 7.75513 18.533 8.26644 18.1075H8.26732Z" fill="#CA7F3E"/>
<path d="M48.5381 32.8311H48.166V24.8734H48.8288L48.5381 32.8311Z" fill="#1E0C00"/>
<path d="M56.9865 32.2918H56.5864L56.3237 25.3104H56.9865V32.2918Z" fill="#1E0C00"/>
<path d="M43.7045 32.0328H43.3315V24.7205H43.9943L43.7045 32.0328Z" fill="#1E0C00"/>
<path d="M52.9578 32.6262L52.5568 32.6218L52.3721 25.9232L53.0348 25.931L52.9578 32.6262Z" fill="#1E0C00"/>
<path d="M54.1615 22.8204C53.9864 21.5448 55.4687 13.7176 56.1245 13.4856C56.458 13.3674 58.1408 13.4339 59.5837 13.5162C60.7621 13.5836 61.6254 14.6535 61.445 15.8197L60.4916 21.9887C60.0906 24.5846 48.5249 22.7819 48.5249 22.7819L54.1607 22.8196L54.1615 22.8204Z" fill="#468BB7"/>
<path d="M44.2678 18.4069C46.3909 18.174 51.0864 18.8788 51.9636 18.5347C52.8427 18.1898 53.2051 15.9327 53.853 14.9731C54.7907 13.5836 55.1313 13.7833 56.1241 13.4865L54.6314 22.8738L48.8266 25.419L42.9387 25.1817C42.8424 25.1756 42.613 23.3737 42.6183 23.1566C42.6489 21.8363 41.8067 18.6774 44.2687 18.4069H44.2678Z" fill="#064655"/>
<path d="M48.824 25.4225L43.7153 25.4164C43.3642 25.4164 43.0639 25.187 43.0018 24.8727L42.8468 24.0864C42.6988 23.3344 43.3485 22.6497 44.1881 22.6716L48.8275 22.7942L48.824 25.4225Z" fill="#064655"/>
<path d="M52.403 17.9998C52.403 17.9998 52.0257 19.8629 52.4774 19.7263C52.9292 19.5897 52.6219 18.1661 52.403 17.9998Z" fill="#372C52"/>
<path d="M44.644 18.0891C44.644 18.0891 44.1563 19.32 44.8103 20.9494C45.3794 22.3669 46.1149 23.0244 46.4388 23.0279C46.487 23.0279 47.978 21.2961 47.3108 19.9233C46.6437 18.5513 44.6431 18.0891 44.6431 18.0891H44.644Z" fill="#372C52"/>
<path d="M50.9982 12.8332C50.781 12.5259 50.2951 12.5321 50.0824 12.5075C49.8696 12.4839 49.6043 12.1206 49.4625 12.1039C49.3207 12.0882 49.4511 12.5277 49.6761 12.603C49.9011 12.6791 49.6779 12.9068 49.5212 12.9392C49.3644 12.9724 48.7857 13.0434 48.5957 12.7746C48.4058 12.5058 48.1282 12.378 48.1159 12.4883C48.1037 12.5977 48.5283 12.9795 48.5283 12.9795C48.5283 12.9795 47.8883 12.5942 47.8743 12.7238C47.8594 12.8534 48.4241 13.109 48.4241 13.109C48.4241 13.109 48.0608 13.0224 47.9759 13.0994C47.8909 13.1756 48.8873 13.5459 49.0738 13.5669C49.2603 13.5879 50.2802 13.3078 50.6156 13.2045C50.7557 13.1607 51.0796 13.8664 51.5086 14.7393C51.5892 14.4897 51.7126 14.2621 51.8527 14.0415C51.4333 13.4706 51.0849 12.9541 50.9991 12.8324L50.9982 12.8332Z" fill="#FC7575"/>
<path d="M53.75 15.9581C53.7018 16.0133 53.6344 15.8154 53.5959 15.8268C53.3035 15.9161 52.4945 14.9154 51.8518 14.0416C51.7126 14.2623 51.4473 14.5284 51.3677 14.7779C51.963 15.9879 52.9025 17.4816 53.7036 17.7889C53.7036 17.7889 54.0205 17.4141 54.3874 16.8853C54.2026 16.5544 53.9811 16.2436 53.7491 15.9581H53.75Z" fill="#8AB3BC"/>
<path d="M51.1925 19.6826C51.1925 19.6826 45.3554 17.8834 44.437 18.2047L46.118 20.5739L47.1117 21.5737L52.1425 20.5581L51.1925 19.6826Z" fill="#E28664"/>
<path d="M46.122 31.3987L46.1045 32.7891L46.2595 32.7935L46.4538 31.2079L46.122 31.3987Z" fill="#1A1722"/>
<path d="M52.8138 20.0249C51.645 20.6439 46.524 20.4408 45.4086 20.7069C44.2932 20.9731 44.1732 22.0605 44.0901 22.8012C44.0253 23.3773 44.9787 28.0596 45.1959 30.4305C45.1241 31.6974 45.1066 31.9215 44.864 32.34C44.6189 32.7629 44.5629 32.8487 44.8938 32.8487C45.3184 32.8487 45.6905 32.7664 45.7728 32.5922C45.9147 32.291 46.0364 31.2552 46.327 31.2552C46.327 31.2552 46.524 30.8691 46.4741 30.666C46.4014 30.3736 46.2088 30.5058 46.1922 30.1442C46.3866 27.7628 46.6755 23.8553 46.5302 23.5357C46.3367 23.1102 46.1441 22.8922 46.1441 22.8922C46.1441 22.8922 52.4075 24.3316 53.1395 24.1565C53.5562 24.0567 54.4615 22.6532 55.2381 21.262L52.8129 20.0231L52.8138 20.0249Z" fill="#FFA17F"/>
<path d="M46.2203 30.3079C46.0924 31.0854 45.5864 32.6307 45.2878 32.6316C44.8851 32.6324 44.8614 32.6114 44.8641 32.34C44.6189 32.7629 44.3405 32.98 44.6706 32.98C45.0952 32.98 45.758 33.0054 45.8403 32.8312C45.9821 32.53 46.0592 31.3918 46.3498 31.3918L46.2597 32.7935L46.4137 32.7979C46.4137 32.7979 46.6423 30.8683 46.5924 30.6756C46.5232 30.4112 46.3026 30.3561 46.2203 30.3088V30.3079Z" fill="#332F44"/>
<path d="M42.3824 28.2942L42.1968 29.6723L42.35 29.695L42.7344 28.1445L42.3824 28.2942Z" fill="#1A1722"/>
<path d="M45.7841 19.7045C45.8856 18.8018 44.8744 17.7328 44.4366 18.2047C43.0953 19.6511 42.3397 23.8772 41.9431 25.5959C41.881 25.8664 41.3776 28.6033 41.0195 29.077C40.7244 29.4674 40.6587 29.5462 40.9871 29.5856C41.4091 29.6373 41.7882 29.6005 41.8906 29.4377C42.0675 29.1558 42.3144 28.1428 42.6024 28.1778C42.6024 28.1778 42.8449 27.818 42.8195 27.6105C42.7906 27.3732 42.6541 27.3925 42.612 27.2305C42.6217 26.9757 42.6812 26.5125 42.7994 26.2368C43.1023 25.5302 45.6816 20.6071 45.7832 19.7045H45.7841Z" fill="#E28664"/>
<path d="M42.6129 27.2304C42.3914 27.9868 41.7007 29.4525 41.4047 29.4174C41.0046 29.3702 40.9836 29.3465 41.0186 29.0768C40.4128 29.3737 40.4215 29.6486 40.749 29.688C41.171 29.7396 41.8259 29.8447 41.9283 29.6818C42.1051 29.3999 42.3196 28.2792 42.6077 28.3143L42.3485 29.6941L42.5017 29.7169C42.5017 29.7169 42.9623 27.8292 42.9351 27.6314C42.8984 27.3608 42.6874 27.2855 42.6121 27.2295L42.6129 27.2304Z" fill="#332F44"/>
<path d="M57.5823 13.0889C57.4492 12.5478 56.4327 12.3307 56.0308 12.6774C56.0308 12.6774 53.2992 14.5335 53.4402 15.6918C53.5785 16.8238 53.9655 19.2893 52.893 19.9792C52.8763 19.9731 52.8597 19.9661 52.8413 19.9591L55.4959 21.1936C56.0842 20.1403 56.3434 19.1641 56.5168 18.6983C56.9186 17.6171 57.7153 13.6308 57.5831 13.0889H57.5823Z" fill="#CEF2FA"/>
<path d="M52.8392 19.9593C51.7895 19.5539 46.2168 17.8142 44.6426 18.09C44.6426 18.09 47.1571 20.8112 46.4383 23.0289C46.4383 23.0289 52.5652 24.8035 53.1203 24.378C53.6745 23.9525 55.1979 21.5948 55.2014 21.5886L55.4938 21.1946L52.8392 19.9601V19.9593Z" fill="#7F71A4"/>
<path d="M52.8183 18.4122C51.6784 18.0716 50.5183 17.6505 50.5183 17.6505C50.5183 17.6505 50.4053 17.2495 50.6873 16.9168C50.9692 16.585 51.1277 16.4125 51.0016 16.3985C50.8755 16.3845 50.4693 16.796 50.4693 16.796C50.4693 16.796 50.689 16.3171 50.9289 16.1332C51.1688 15.9493 50.9543 15.7786 50.5139 16.3994C50.0726 17.0192 50.1129 16.7671 50.1278 16.6349C50.1427 16.5027 50.6382 15.9108 50.5953 15.6718C50.5559 15.4503 49.9247 16.4747 49.8117 16.8109C50.0753 15.2402 49.6997 15.5913 49.5281 17.1155C49.479 17.5524 49.8809 18.1565 49.8905 18.1714C49.9194 18.2266 51.5068 19.0846 52.8069 19.7264C52.8157 19.293 52.87 18.8403 52.8183 18.4122Z" fill="#FC7575"/>
<path d="M48.8072 14.7777C46.6587 14.5361 46.4197 12.8201 46.4179 12.8026C46.4136 12.7658 46.4407 12.7334 46.4783 12.729C46.516 12.7255 46.551 12.7509 46.5554 12.7877C46.5642 12.8542 46.7857 14.4162 48.8221 14.6455C48.8598 14.6499 48.8878 14.6832 48.8834 14.7191C48.879 14.7559 48.8449 14.7821 48.8072 14.7777Z" fill="#005569"/>
<path d="M57.508 9.83548C57.508 9.83548 58.2872 9.70153 58.3546 10.1148C58.422 10.528 58.1524 11.1628 57.845 11.365C57.6069 11.5217 56.7822 12.0287 56.5536 11.5384C56.3251 11.0481 56.5852 9.75843 57.508 9.83548Z" fill="#353535"/>
<path d="M57.9508 9.99392C58.1128 10.4028 58.1032 10.8362 57.6899 11.1286L57.7792 11.2538C58.1881 10.8922 58.1855 10.4317 57.9517 9.99304L57.9508 9.99392Z" fill="#5E5B5B"/>
<path d="M56.0407 10.641C56.0407 10.641 55.9934 11.3379 56.0004 11.9052C56.0039 12.2125 55.8804 12.4174 55.8051 12.6477C55.7255 12.8893 54.8683 13.9644 55.1205 14.0415C55.2746 14.0888 56.3541 13.3481 56.5362 13.2667C56.8251 13.1362 57.1123 12.8946 57.3715 12.7597L56.9652 9.88013L56.0424 10.641H56.0407Z" fill="#FFA17F"/>
<path d="M56.9629 9.88014L56.0401 10.641C56.0401 10.641 56.0129 11.0446 56.0024 11.4885C56.2975 11.3703 56.8561 10.9168 57.0172 10.268C56.913 9.67702 56.9629 9.88014 56.9629 9.88014Z" fill="#D57857"/>
<path d="M55.6759 7.32892C55.6759 7.32892 55.3038 7.44624 55.0919 7.82096C54.8801 8.19481 54.9921 8.73589 54.8695 9.07034C54.7461 9.40479 54.9939 11.084 55.7494 11.1269C56.6959 11.1804 57.0741 9.7979 57.1739 9.52648C57.2737 9.25507 57.2291 8.17818 56.8307 7.79207C56.4332 7.40596 55.675 7.32979 55.675 7.32979L55.6759 7.32892Z" fill="#FFA17F"/>
<path d="M55.4806 9.22711C55.456 9.44862 55.4026 9.71566 55.3475 9.93454C55.4193 9.97481 55.5156 10.0002 55.6066 9.98969C55.4604 10.0405 55.3125 9.95555 55.3037 9.9538C55.3414 9.77257 55.3816 9.52917 55.4806 9.22711Z" fill="#E86E42"/>
<path d="M55.9995 8.86716C55.9995 8.86716 56.2018 8.78836 56.4049 8.81988C56.608 8.85052 56.8172 9.14032 56.8172 9.14032C56.8172 9.14032 56.566 8.8978 56.4294 8.88204C56.2928 8.86628 56.1413 8.91531 56.1413 8.91531L55.9995 8.86804V8.86716Z" fill="#161616"/>
<path d="M55.5256 8.74462C55.5256 8.74462 55.4144 8.58178 55.2542 8.51524C55.0939 8.4487 54.8164 8.60542 54.8164 8.60542C54.8164 8.60542 55.1036 8.50823 55.2086 8.55814C55.3137 8.60804 55.4021 8.72098 55.4021 8.72098L55.5256 8.74462Z" fill="#161616"/>
<path d="M55.9623 10.2559C55.5911 10.4477 55.4449 10.4599 55.3057 10.452C55.521 10.5659 55.8406 10.4337 55.9623 10.2559Z" fill="white"/>
<path d="M56.048 9.2025C56.0576 9.27166 56.1163 9.3207 56.1802 9.31282C56.2432 9.30494 56.287 9.2419 56.2783 9.17273C56.2686 9.10356 56.21 9.05454 56.146 9.06242C56.083 9.0703 56.0392 9.13333 56.048 9.2025Z" fill="#161616"/>
<path d="M56.5683 9.27701C56.1533 8.84187 55.9746 9.1483 55.8311 9.16581C55.9466 9.17544 56.0832 9.059 56.2093 9.09402C56.3126 9.12204 56.4658 9.21747 56.5683 9.27701Z" fill="#161616"/>
<path d="M55.0981 9.12011C55.1095 9.18928 55.1585 9.23743 55.2075 9.2278C55.2565 9.21817 55.2881 9.15513 55.2767 9.08597C55.2653 9.0168 55.2163 8.96865 55.1664 8.97828C55.1173 8.98791 55.0867 9.05094 55.0981 9.12011Z" fill="#161616"/>
<path d="M55.4623 9.16237C55.1173 8.76751 54.9641 9.08445 54.8433 9.11422C54.9404 9.11422 55.056 8.98814 55.162 9.01178C55.2486 9.03017 55.3765 9.11247 55.4623 9.16237Z" fill="#161616"/>
<path d="M56.0715 9.82325C56.1065 9.93794 56.2632 9.99222 56.4217 9.94494C56.5793 9.89767 56.6791 9.76634 56.6441 9.65164C56.609 9.53695 56.4523 9.48267 56.2938 9.52994C56.1362 9.57722 56.0364 9.70855 56.0715 9.82325Z" fill="#F39573"/>
<path d="M56.5258 7.81997C56.0277 7.29115 55.6407 7.36294 55.6074 7.34981C55.6074 7.34631 55.617 7.33143 55.6346 7.30954C55.7212 7.19134 56.025 6.86127 56.637 6.98734C57.2657 7.10116 57.6211 7.19134 57.9757 7.68864C58.1351 7.9119 58.1543 8.30851 58.1105 8.56416C58.0309 9.03169 57.8164 9.09298 57.8505 9.57452C57.8829 10.035 56.8507 10.324 56.8507 10.324C56.8717 10.2679 56.975 9.82229 57.0266 9.70935C57.137 9.44056 57.1343 9.22081 57.0477 9.00017C56.9986 9.01768 56.8664 8.95902 56.7964 8.88811C56.5679 8.6596 56.7964 8.4521 56.5258 7.82084V7.81997Z" fill="#353535"/>
<path d="M55.9647 7.09339C55.9647 7.09339 55.5112 6.93668 55.0594 7.14067C54.6077 7.34467 54.3511 8.4452 54.5157 8.71399C54.6803 8.98278 53.6656 9.10447 54.1734 9.24193C54.8931 9.43717 56.3911 7.29126 55.9639 7.09252L55.9647 7.09339Z" fill="#353535"/>
<path d="M55.7919 7.22114C55.1038 7.0688 54.5636 7.52494 54.6389 8.11592C54.652 8.21573 54.6853 8.3208 54.7746 8.37333L54.8402 8.24638C54.8035 8.235 54.7737 8.13431 54.7658 8.09754C54.6546 7.57485 55.1265 7.12395 55.791 7.22114H55.7919Z" fill="#5E5B5B"/>
<path d="M56.9171 9.25499C56.9171 9.25499 57.0598 8.77433 57.2192 9.04399C57.3785 9.31365 57.1088 9.80482 56.9556 9.73741C56.8015 9.66912 56.9171 9.25499 56.9171 9.25499Z" fill="#F88B64"/>
<path d="M56.9463 9.32929C56.9463 9.32929 57.054 9.05175 57.1196 9.11741C57.1853 9.18308 57.0723 9.69876 56.9892 9.61559C56.906 9.53241 56.9463 9.32841 56.9463 9.32841V9.32929Z" fill="#F39573"/>
<path d="M57.3921 12.7291C57.3921 12.7291 56.4237 13.0618 55.88 14.7306C55.3363 16.3993 55.2654 18.5382 54.6657 18.7361C54.389 18.8271 53.3191 18.2738 52.4033 17.9998C52.673 18.5645 52.4865 19.2929 52.4777 19.7263C52.9575 19.9627 53.4793 20.0905 53.7866 20.2166C54.9397 20.6876 55.2978 20.5712 55.9973 19.7928C56.6969 19.0145 59.0214 12.6704 57.3921 12.7291Z" fill="#70C3F8"/>
<path d="M48.6117 26.6684L56.431 26.6158C58.394 26.5186 60.0172 25.0548 60.3175 23.1128L61.5012 15.4538C61.6605 14.4206 60.6642 13.5574 59.681 13.9102C59.575 13.9479 59.5015 13.9916 59.4761 14.0424C59.0068 14.9713 58.2801 18.2397 57.17 19.1922C55.8549 20.3217 52.3362 19.7333 49.8742 19.5188C49.8742 19.5188 48.5163 19.3183 48.2895 20.495C48.0978 21.4896 48.5662 25.51 48.6117 26.6684Z" fill="#0A6980"/>
<path d="M59.2342 14.4067C58.7272 15.4188 57.6784 18.2371 56.9885 18.7563L56.8913 18.8447C55.8941 19.6808 52.4716 19.2369 51.1321 19.1073C51.1163 19.1056 50.0508 19.0145 50.1182 19.0207C49.3512 18.9576 48.5939 19.0574 48.1404 19.6826C47.7806 20.1554 47.8042 20.7227 47.8208 21.2734C47.9329 23.1216 48.2787 24.8823 48.6114 26.6675C48.748 25.046 48.5572 21.5019 48.7235 20.6605C48.7804 20.3585 48.8942 20.1659 49.2243 20.0652C50.0245 19.8279 55.3285 21.1736 57.3133 19.6493C58.8787 18.3264 59.2508 14.278 59.5415 14.0013C59.58 13.9645 59.6299 13.9356 59.6798 13.9094C59.4513 13.961 59.4522 13.989 59.2324 14.4058L59.2342 14.4067Z" fill="#32D3F9"/>
<path d="M59.6815 13.9102C60.5071 13.6572 61.5892 14.3138 61.3301 15.5746C60.6375 19.201 60.4108 20.6824 60.0317 22.9938C59.7498 24.8219 58.2964 26.3006 56.1347 26.3488C54.6384 26.3751 51.2808 26.481 48.6113 26.6684C51.146 26.8119 53.7866 26.8627 56.3378 26.8881C57.6879 26.9284 59.3032 26.1089 60.1306 24.6109C60.6717 23.6172 60.634 22.774 60.8468 21.5964C61.035 20.2254 61.2268 19.0084 61.6286 15.621C61.7959 14.221 60.5973 13.5136 59.6815 13.9102Z" fill="#00677F"/>
<path d="M35.3268 32.395H33.7001C33.7001 32.2934 33.6064 32.2103 33.4926 32.2103H32.2546C32.2546 32.0063 32.0673 31.8399 31.8388 31.8399H31.4036C31.6243 30.2167 31.7267 29.1302 31.8029 28.2179C31.8641 27.4395 32.2616 26.2243 31.556 24.4032C31.7818 24.3699 32.3991 24.5275 32.3991 24.1292C32.3991 24.0758 32.3807 24.0267 32.3509 23.9847H33.2063C33.4909 23.9847 33.6914 23.7098 33.5408 23.4734H42.8266C42.6961 23.357 41.937 21.816 39.933 21.816H22.4593C20.3589 21.816 19.6374 23.4585 19.6226 23.4734H28.9084C28.7578 23.7098 28.9592 23.9847 29.2428 23.9847H30.0973C30.0676 24.0267 30.0492 24.0766 30.0492 24.1292C30.0492 24.5284 30.6734 24.3708 30.8923 24.4032C30.5938 25.1745 30.3906 26.2094 30.5079 27.1278C30.7575 29.0908 30.7032 29.3307 31.0438 31.8399H30.6086C30.3801 31.8399 30.1928 32.0063 30.1928 32.2103H28.9548C28.841 32.2103 28.7473 32.2934 28.7473 32.395H27.1205C26.977 32.395 26.8588 32.4966 26.8509 32.6226H35.5948C35.5869 32.4957 35.4695 32.395 35.3251 32.395H35.3268Z" fill="#1C0F00"/>
<path d="M19.622 23.4735H42.826C42.7848 23.4367 42.6798 23.2563 42.4924 23.0278H19.9039C19.7121 23.2782 19.6263 23.4682 19.6211 23.4735H19.622Z" fill="#887EA8"/>
<path d="M28.6413 14.4363C28.081 14.466 27.7798 14.3505 27.4795 14.5956C27.3928 14.6657 27.3114 14.748 27.2965 14.8154C27.2624 14.9677 26.667 21.1428 26.667 21.1428C26.667 21.1428 26.7003 21.3205 26.9008 21.2356C27.1013 21.1498 28.6413 14.4372 28.6413 14.4372V14.4363Z" fill="#30273F"/>
<path d="M27.0699 21.2776L31.1989 21.7916C31.3897 21.8152 31.5692 21.7075 31.6051 21.5473L31.7951 20.6937L32.1155 19.2525L32.2232 18.771L32.5437 17.3308L32.6759 16.7345L32.9963 15.2943L33.1066 14.7961C33.1478 14.6088 32.9779 14.4363 32.7529 14.4363H28.4532C28.0163 14.4363 27.6486 14.7121 27.5961 15.078L26.7652 20.9414C26.7424 21.1051 26.8773 21.254 27.0699 21.2776Z" fill="#4C4953"/>
<path opacity="0.31" d="M30.7559 14.4363L32.2224 18.771L32.5428 17.3308L31.5622 14.4363H30.7559Z" fill="white"/>
<path opacity="0.31" d="M29.6768 14.4363L31.7955 20.6945L32.116 19.2525L30.4866 14.4363H29.6768Z" fill="white"/>
<path opacity="0.31" d="M31.8975 14.4363L32.6758 16.7345L32.9954 15.2943L32.7047 14.4363H31.8975Z" fill="white"/>
<path d="M22.7562 21.8424H31.6945L31.691 21.0413L23.5757 21.022C23.1231 21.022 22.7554 21.3889 22.7554 21.8424H22.7562Z" fill="#434343"/>
<path d="M31.4063 17.0279C31.4063 17.1899 30.8802 17.3221 30.2305 17.3221C29.5809 17.3221 29.0547 17.1907 29.0547 17.0279C29.0547 16.865 29.5809 16.7337 30.2305 16.7337C30.8802 16.7337 31.4063 16.865 31.4063 17.0279Z" fill="#D1C7E5"/>
<path d="M35.8927 18.0208C35.8857 17.9096 35.7938 17.8221 35.6817 17.8221H34.3176C34.2056 17.8221 34.1136 17.9096 34.1066 18.0208L34.104 18.0576H35.8944L35.8927 18.0208Z" fill="#EAC733"/>
<path d="M34.1043 18.0575L33.8828 21.8161H36.1163L35.8948 18.0575H34.1043Z" fill="#00C9F7"/>
<path d="M35.1053 17.2092C35.1096 17.1698 35.0799 17.1357 35.0396 17.1357H34.9582C34.9188 17.1357 34.8881 17.1707 34.8925 17.2092V17.2127H35.1044V17.2092H35.1053Z" fill="#EAC733"/>
<path d="M36.0012 20.6885L35.8506 20.5957C36.369 19.7526 37.0116 18.4516 36.819 18.2003C36.5625 17.8658 35.8778 18.3526 35.8708 18.3579L35.7666 18.2152C35.7999 18.1907 36.594 17.6172 36.9591 18.0926C37.2953 18.5312 36.221 20.3313 36.0021 20.6877L36.0012 20.6885Z" fill="#00C9F7"/>
<path d="M34.894 17.2127L34.9431 17.6111H35.056L35.1059 17.2127H34.894Z" fill="#DAD2E0"/>
<path d="M35.0001 17.3999C34.6429 17.3999 34.3531 17.5881 34.3452 17.8219H35.655C35.6471 17.5881 35.3573 17.3999 35.0001 17.3999Z" fill="#0089A9"/>
<path d="M34.0621 18.7832L34.0043 19.7629L33.3687 18.335H33.7049L34.0621 18.7832Z" fill="#66A1AD"/>
<path d="M39.2081 21.4607C39.2607 21.4432 39.3158 21.4274 39.3719 21.4116C39.7177 21.3118 40.1099 21.198 40.1432 20.7349C40.1502 20.635 40.1301 20.5545 40.0837 20.495C39.9576 20.3347 39.6888 20.3444 39.5382 20.4013L39.5855 20.5256C39.6967 20.4836 39.9007 20.4775 39.9786 20.5773C40.004 20.6097 40.0145 20.6596 40.0101 20.7252C39.9839 21.0956 39.6687 21.1866 39.3351 21.2829C39.2782 21.2996 39.2213 21.3162 39.167 21.3337L39.2081 21.4607Z" fill="#00C9F7"/>
<path d="M40.534 21.5693C40.534 21.5693 40.534 21.5719 40.534 21.5728C40.534 21.6638 40.3764 21.747 40.112 21.8135H36.8629C36.5985 21.747 36.4409 21.663 36.4409 21.5728C36.4409 21.5719 36.4409 21.5702 36.4409 21.5693H40.5322H40.534Z" fill="#0089A9"/>
<path d="M37.7282 20.2297H39.5449C39.551 20.2569 39.5563 20.2849 39.5606 20.3129H37.7124C37.7168 20.2849 37.722 20.2569 37.7282 20.2297Z" fill="#EAC733"/>
<path d="M39.5613 20.3129C39.5788 20.4136 39.5876 20.5186 39.5876 20.6272C39.5876 20.9975 39.4816 21.3329 39.3091 21.5762H37.9635C37.7919 21.3337 37.6851 20.9975 37.6851 20.6272C37.6851 20.5186 37.6947 20.4136 37.7113 20.3129H39.5595H39.5613Z" fill="#00C9F7"/>
<path d="M38.3059 20.2184C38.3645 20.1571 38.46 20.2062 38.4994 20.2298H38.4206C38.389 20.2193 38.354 20.2167 38.3304 20.2412C38.2866 20.2867 38.256 20.5791 38.2463 20.7647C38.2463 20.7735 38.2385 20.7805 38.2297 20.7805C38.2201 20.7805 38.2131 20.7717 38.2139 20.763C38.2166 20.7148 38.2411 20.2876 38.3076 20.2184H38.3059Z" fill="#C16400"/>
<path d="M38.0034 21.2803H38.4534V20.8968C38.3799 20.8968 38.3204 20.8373 38.3204 20.7637H38.1374C38.1374 20.8373 38.0778 20.8968 38.0034 20.8968V21.2803Z" fill="#26151A"/>
<path d="M38.0875 21.2043H38.3589V20.9329H38.0875V21.2043Z" fill="#C16400"/>
</svg>
