<svg width="130" height="100" viewBox="0 0 72 36" fill="none" xmlns="http://www.w3.org/2000/svg">
<path d="M19.1701 27.6197L18.5752 27.4082C18.2787 27.3025 18.0766 27.0173 18.0917 26.7038C18.1125 26.2865 18.088 25.8729 18.02 25.4687C17.9671 25.1533 18.1371 24.8417 18.426 24.7039L19.0492 24.4074C19.4118 24.2355 19.5667 23.8012 19.3929 23.4386L19.0228 22.6586C18.8509 22.296 18.4166 22.1412 18.054 22.3149L17.3949 22.6284C17.1078 22.7644 16.7603 22.7077 16.5432 22.4754C16.2467 22.1582 15.9124 21.8711 15.5441 21.6237C15.2741 21.4424 15.1683 21.093 15.2779 20.7852L15.4648 20.2602C15.5989 19.8825 15.4025 19.467 15.0229 19.3311L14.2108 19.0421C13.8331 18.908 13.4177 19.1044 13.2817 19.484L13.0419 20.1601C12.9361 20.4547 12.6547 20.6436 12.3393 20.6436C11.9824 20.6436 11.6274 20.6757 11.2818 20.7399C10.9758 20.7966 10.668 20.6662 10.5094 20.4L10.0165 19.5709C9.81061 19.2253 9.36492 19.112 9.02122 19.3178L8.27903 19.7579C7.93343 19.9637 7.82012 20.4094 8.02597 20.7531L8.40934 21.399C8.5793 21.686 8.53587 22.0524 8.29603 22.2847C8.07129 22.5038 7.86356 22.7417 7.67471 22.9967C7.48774 23.2497 7.15159 23.3442 6.85509 23.2384L6.26021 23.0269C5.88251 22.8928 5.46704 23.0892 5.33106 23.4688L5.04212 24.2809C4.90804 24.6586 5.10444 25.074 5.48403 25.21L6.07514 25.4196C6.37352 25.5254 6.57748 25.8124 6.56237 26.1297C6.55104 26.3677 6.55482 26.6056 6.57182 26.8417C6.59637 27.1778 6.38108 27.4857 6.05814 27.5839L5.56902 27.7312C5.18565 27.8483 4.96847 28.2524 5.08367 28.6376L5.33484 29.4629C5.45193 29.8463 5.85607 30.0635 6.24133 29.9483L6.99484 29.7198C7.28756 29.631 7.59917 29.7386 7.78802 29.9785C8.05241 30.3146 8.35268 30.6244 8.69073 30.8982C8.93434 31.0965 9.03443 31.4194 8.93057 31.714L8.68884 32.392C8.55475 32.7697 8.75116 33.1852 9.13075 33.3212L9.94281 33.6101C10.3205 33.7442 10.736 33.5478 10.872 33.1682L11.0589 32.6432C11.1685 32.3354 11.4706 32.1314 11.7954 32.1616C12.2355 32.2032 12.6717 32.1918 13.1004 32.1333C13.4139 32.0898 13.7179 32.2655 13.8558 32.5525L14.175 33.223C14.3468 33.5855 14.7812 33.7404 15.1438 33.5667L15.9237 33.1965C16.2863 33.0247 16.4412 32.5903 16.2674 32.2277L15.969 31.5988C15.8312 31.3099 15.8973 30.9605 16.1371 30.749C16.4468 30.4771 16.7301 30.1692 16.9794 29.8312C17.1664 29.5781 17.5025 29.4837 17.799 29.5895L18.3939 29.801C18.7716 29.9351 19.1871 29.7387 19.323 29.3591L19.612 28.547C19.7461 28.1693 19.5497 27.7538 19.1701 27.6179V27.6197ZM15.3118 27.4271C14.7264 29.0701 12.921 29.9294 11.2761 29.344C9.63309 28.7585 8.77382 26.9531 9.35926 25.3082C9.9447 23.6633 11.7501 22.8059 13.395 23.3914C15.038 23.9768 15.8973 25.7822 15.3118 27.4271Z" fill="#DDDDDD"/>
<path d="M28.2441 30.5485L27.9118 30.3861C27.7456 30.3049 27.6474 30.1255 27.6776 29.9423C27.7172 29.7005 27.7305 29.4569 27.7191 29.2152C27.7097 29.0263 27.8287 28.8564 28.0081 28.7959L28.3914 28.6638C28.6143 28.5882 28.7333 28.3446 28.6577 28.1218L28.4934 27.6421C28.4179 27.4192 28.1743 27.3002 27.9514 27.3758L27.5454 27.5155C27.3679 27.576 27.1696 27.5193 27.0582 27.3701C26.9071 27.1643 26.7314 26.9754 26.5313 26.8055C26.3858 26.6808 26.3481 26.4712 26.4312 26.2974L26.5747 26.0028C26.6786 25.7913 26.5917 25.5345 26.3783 25.4306L25.9232 25.2078C25.7117 25.1039 25.4548 25.1908 25.3509 25.4042L25.1659 25.7838C25.0847 25.95 24.9071 26.0406 24.724 26.0179C24.5162 25.9934 24.3066 25.9896 24.0989 26.0028C23.9176 26.0161 23.7457 25.9197 23.6702 25.7517L23.4379 25.2342C23.3416 25.0189 23.0885 24.9226 22.8732 25.0189L22.4105 25.2267C22.1952 25.323 22.0989 25.576 22.1952 25.7913L22.3765 26.1936C22.4559 26.373 22.4068 26.5845 22.2519 26.7035C22.1065 26.8168 21.9686 26.9414 21.8421 27.0774C21.7156 27.2134 21.5135 27.2455 21.3473 27.1643L21.0149 27.0019C20.8034 26.898 20.5466 26.9849 20.4427 27.1983L20.2199 27.6534C20.116 27.8649 20.2029 28.1217 20.4163 28.2256L20.7468 28.388C20.9148 28.4692 21.013 28.6505 20.9828 28.8356C20.9602 28.9735 20.9469 29.1132 20.9413 29.253C20.9337 29.4513 20.7864 29.6156 20.5919 29.6514L20.2973 29.7062C20.065 29.7478 19.912 29.9706 19.9536 30.2029L20.0442 30.7015C20.0858 30.9337 20.3086 31.0867 20.5409 31.0452L20.996 30.9621C21.1736 30.93 21.3473 31.0131 21.4417 31.166C21.5739 31.3794 21.7288 31.5815 21.9082 31.7628C22.0366 31.895 22.0744 32.0895 21.9932 32.2557L21.8062 32.6353C21.7023 32.8468 21.7892 33.1036 22.0026 33.2075L22.4577 33.4304C22.6693 33.5342 22.9261 33.4474 23.03 33.234L23.1735 32.9393C23.2585 32.7675 23.4473 32.6674 23.6362 32.7071C23.8892 32.7599 24.1461 32.7826 24.401 32.7769C24.588 32.7732 24.7542 32.8959 24.8146 33.0715L24.9562 33.4851C25.0318 33.708 25.2754 33.8269 25.4982 33.7514L25.9779 33.5871C26.2008 33.5116 26.3198 33.2679 26.2442 33.0451L26.112 32.658C26.0516 32.4804 26.112 32.2802 26.2669 32.1726C26.4671 32.0347 26.6521 31.8742 26.8202 31.6929C26.9467 31.557 27.1488 31.5248 27.315 31.606L27.6474 31.7685C27.8589 31.8723 28.1157 31.7855 28.2196 31.5721L28.4424 31.1169C28.5463 30.9054 28.4594 30.6486 28.246 30.5447L28.2441 30.5485ZM26.0025 30.1783C25.5511 31.0999 24.4388 31.4795 23.5172 31.0282C22.5956 30.5768 22.216 29.4645 22.6674 28.5429C23.1187 27.6213 24.2311 27.2417 25.1527 27.6931C26.0742 28.1444 26.4538 29.2567 26.0025 30.1783Z" fill="#DDDDDD"/>
<path d="M60.5483 3.22262C60.9574 2.81345 60.9575 2.15005 60.5483 1.74088C60.1391 1.33171 59.4757 1.33172 59.0665 1.74089C58.6574 2.15005 58.6574 2.81345 59.0665 3.22262C59.4757 3.63178 60.1391 3.63179 60.5483 3.22262Z" fill="#DDDDDD"/>
<path d="M53.6644 5.22832C53.7969 4.66502 53.4476 4.10102 52.8843 3.96859C52.321 3.83616 51.757 4.18545 51.6246 4.74874C51.4921 5.31204 51.8414 5.87603 52.4047 6.00846C52.968 6.14089 53.532 5.79161 53.6644 5.22832Z" fill="#DDDDDD"/>
<path d="M45.5018 10.4026C45.6343 9.83934 45.285 9.27534 44.7217 9.14291C44.1584 9.01048 43.5944 9.35977 43.462 9.92306C43.3295 10.4864 43.6788 11.0503 44.2421 11.1828C44.8054 11.3152 45.3694 10.9659 45.5018 10.4026Z" fill="#DDDDDD"/>
<path d="M59.8084 2.57581L52.839 4.83355L44.8457 9.89994" stroke="#DDDDDD" stroke-width="0.628897" stroke-miterlimit="10"/>
<path d="M61.3176 5.47882H58.4586C57.8758 5.47882 57.4033 5.95129 57.4033 6.53411V34.5716C57.4033 35.1544 57.8758 35.6269 58.4586 35.6269H61.3176C61.9004 35.6269 62.3729 35.1544 62.3729 34.5716V6.53411C62.3729 5.95129 61.9004 5.47882 61.3176 5.47882Z" fill="#DDDDDD"/>
<path d="M54.5041 10.012H51.6451C51.0623 10.012 50.5898 10.4844 50.5898 11.0673V34.7213C50.5898 35.3042 51.0623 35.7766 51.6451 35.7766H54.5041C55.0869 35.7766 55.5594 35.3042 55.5594 34.7213V11.0673C55.5594 10.4844 55.0869 10.012 54.5041 10.012Z" fill="#DDDDDD"/>
<path d="M47.8732 14.115H45.0143C44.4315 14.115 43.959 14.5875 43.959 15.1703V34.6359C43.959 35.2187 44.4315 35.6912 45.0143 35.6912H47.8732C48.4561 35.6912 48.9285 35.2187 48.9285 34.6359V15.1703C48.9285 14.5875 48.4561 14.115 47.8732 14.115Z" fill="#DDDDDD"/>
<path d="M30.6431 16.6569C25.8609 16.8242 21.5467 18.8178 18.3657 21.9572C18.1557 22.1648 18.1607 22.5056 18.377 22.7069L26.0458 29.831C26.2383 30.0096 26.5351 30.0197 26.7326 29.8474C27.8419 28.8852 29.2708 28.3041 30.8254 28.1594C31.0908 28.1343 31.2971 27.9167 31.2971 27.65V17.2896C31.2971 16.9311 31.0003 16.6431 30.6431 16.6544V16.6569Z" fill="#FF9D2D"/>
<path d="M12.9387 35.6471H23.5104C23.7871 35.6471 24.0123 35.4307 24.0286 35.154C24.1292 33.4912 24.5607 32.2146 25.5405 31.0322C25.7141 30.8222 25.6889 30.5115 25.4889 30.3266L17.8944 23.2855C17.6818 23.088 17.3485 23.1031 17.1548 23.3182C14.3197 26.4589 12.5487 30.5794 12.4192 35.1125C12.4104 35.4056 12.6456 35.6471 12.9387 35.6471Z" fill="#FF5E2D"/>
<path d="M31.9536 17.174V27.6489C31.9536 27.9193 32.1611 28.1395 32.4291 28.1659C34.0101 28.3193 35.371 28.9042 36.5207 29.8689C36.7207 30.0362 37.015 30.0236 37.2062 29.8463L44.88 22.7158C45.0963 22.5146 45.1026 22.1737 44.8925 21.9662C41.6852 18.7966 37.3219 16.7929 32.4894 16.6545C32.1964 16.6457 31.9536 16.8809 31.9536 17.174Z" fill="#FFED2D"/>
<path d="M50.7592 35.1087C50.6296 30.5794 48.8612 26.4626 46.0311 23.3232C45.8374 23.1081 45.5041 23.093 45.2916 23.2905L37.7008 30.3429C37.5046 30.5253 37.4794 30.8272 37.6429 31.0385C38.6429 32.3265 38.9825 33.3679 39.1661 35.1766C39.1925 35.4408 39.4164 35.642 39.6818 35.642H50.241C50.5341 35.642 50.7693 35.4005 50.7605 35.1075L50.7592 35.1087Z" fill="#16D154"/>
<path d="M31.5678 28.7205C27.9315 28.7205 24.9505 31.5216 24.6638 35.0849C24.6399 35.388 24.8776 35.6471 25.182 35.6471H37.9549C38.2593 35.6471 38.497 35.3868 38.4731 35.0849C38.1863 31.5228 35.2053 28.7205 31.5691 28.7205H31.5678Z" fill="#E7E8E9"/>
<path d="M32.3362 31.9857C32.0972 31.592 31.6683 31.3845 31.2382 31.4096L27.7553 25.2741C27.739 25.2439 27.7189 25.2163 27.6962 25.1911L24.8964 21.9535C24.8486 21.8982 24.7593 21.9523 24.7869 22.0202L26.3743 25.9672C26.3869 25.9973 26.4007 26.0263 26.4183 26.0527L30.247 32.0549C30.0621 32.4134 30.0609 32.8561 30.2848 33.2271C30.6281 33.7932 31.3652 33.9743 31.9312 33.6322C32.4972 33.2888 32.6784 32.5517 32.3362 31.9857Z" fill="#1D3B63"/>
<path d="M58.3374 33.9843L58.3638 34.8761L59.3135 34.7189L59.3097 33.9793L58.3374 33.9843Z" fill="#E1B39D"/>
<path d="M59.3132 34.7189C58.3321 34.7038 58.0101 34.7025 56.7787 35.3214C56.6127 35.4132 56.6806 35.6673 56.8705 35.666L59.1333 35.6547C59.4616 35.6736 59.3132 34.7189 59.3132 34.7189Z" fill="#2F526E"/>
<path d="M62.73 33.9238L62.7539 34.8194L63.706 34.8911L63.701 33.9754L62.73 33.9238Z" fill="#E1B39D"/>
<path d="M63.1863 34.7151C63.0618 34.7151 62.6681 34.7416 62.4631 34.9441C62.199 35.2057 62.2342 35.6597 62.3424 35.6597L64.0203 35.6648C64.102 35.6711 64.0743 35.2736 63.8869 35.0208C63.7184 34.7931 63.5775 34.7126 63.1863 34.7139V34.7151Z" fill="#315780"/>
<path d="M62.9025 22.9095C63.0031 23.5988 63.4408 26.7395 63.393 29.1985C63.393 29.206 63.393 29.2136 63.393 29.2211L63.9653 34.1215C63.9779 34.2246 63.8974 34.3139 63.793 34.3139H62.6786C62.5981 34.3139 62.5289 34.2586 62.5101 34.1806C62.3164 33.3479 61.285 28.8928 61.2082 28.3017C61.1227 27.6489 61.0384 26.7697 61.0384 26.7697L60.3303 29.6563C60.3303 29.6563 60.329 29.6639 60.3278 29.6676L59.5417 34.2322C59.5278 34.3164 59.4536 34.3768 59.3681 34.3756L58.1996 34.3567C58.1002 34.3554 58.0223 34.2699 58.0298 34.1718L58.3996 28.9872C58.3996 28.9872 58.3996 28.9784 58.4008 28.9733L59.3404 22.6994C59.3543 22.6101 59.4335 22.5473 59.5228 22.5523L62.7415 22.7598C62.8233 22.7649 62.8899 22.8252 62.9012 22.9057L62.9025 22.9095Z" fill="#C51F29"/>
<path d="M61.0398 26.7709L60.5996 23.2717" stroke="#264154" stroke-width="0.0628897" stroke-miterlimit="10" stroke-linecap="round"/>
<path d="M60.7552 26.4943L59.8056 29.6073L59.1616 33.9794" stroke="#264154" stroke-width="0.0628897" stroke-miterlimit="10" stroke-linecap="round"/>
<path d="M62.6909 24.2855L63.0054 29.1771L63.6519 33.9793" stroke="#264154" stroke-width="0.0628897" stroke-miterlimit="10" stroke-linecap="round"/>
<path d="M60.1201 23.5283C60.1201 23.5283 60.2887 24.7118 60.7553 24.6955" stroke="#264154" stroke-width="0.0628897" stroke-miterlimit="10" stroke-linecap="round"/>
<path d="M61.8184 23.2717C61.8184 23.2717 61.9957 24.0377 62.5466 24.6956" stroke="#264154" stroke-width="0.0628897" stroke-miterlimit="10" stroke-linecap="round"/>
<path d="M62.8177 20.4077C62.8152 20.346 62.7775 19.8178 62.8378 19.814L63.8126 19.9498C63.8516 19.4316 63.6793 16.9575 62.4278 16.8305C61.536 16.7399 61.092 16.8016 60.3927 16.8305C59.8858 16.8506 59.4154 17.1034 59.1223 17.516C58.7563 18.0304 58.2947 18.76 58.15 19.3461C57.9337 20.2177 58.8796 20.6051 59.1588 20.6995C59.2041 20.7146 59.2343 20.7573 59.2343 20.8051L59.2418 22.756C59.2418 22.8516 59.321 22.9295 59.4166 22.9283L62.8139 22.8943C62.8756 22.8906 62.9221 22.839 62.9196 22.7774L62.8177 20.4064V20.4077Z" fill="#FDB826"/>
<path d="M60.4701 16.5187L60.4676 16.9149C60.4676 16.9149 60.5619 17.4721 61.1858 17.4872C61.8097 17.5035 61.8625 16.8218 61.8625 16.8218L61.6776 16.2143V15.5426L61.9216 14.5137L59.3683 13.6358C59.3683 13.6358 59.2098 15.1452 59.3683 15.6734C59.5268 16.2017 59.9255 16.7312 60.4714 16.5187H60.4701Z" fill="#FFD89A"/>
<path d="M59.3044 14.0343C59.3044 14.0343 60.2553 13.7689 60.5182 14.4028C60.781 15.0368 60.771 14.8934 60.8792 14.7714C60.9886 14.6506 61.3697 14.6859 61.3269 15.0192C61.2716 15.443 61.1785 15.7977 61.6766 16.2153C61.6766 16.2153 61.664 15.5902 62.0338 15.0506C62.4036 14.5098 62.3508 13.2922 61.1207 13.091C59.8905 12.8885 60.5484 12.6017 59.5773 12.7526C58.6063 12.9036 58.668 13.9815 59.3044 14.0356V14.0343Z" fill="#315782"/>
<path d="M59.7685 18.2342L59.5068 19.3876" stroke="#E69724" stroke-width="0.0628897" stroke-miterlimit="10" stroke-linecap="round"/>
<path d="M56.7939 18.4014L59.3372 18.2341C59.3938 18.2303 59.4466 18.2668 59.4617 18.3221L60.5773 22.3056C60.5987 22.3798 60.5446 22.454 60.4679 22.459L57.9209 22.6125C57.8643 22.6162 57.8127 22.5798 57.7964 22.5244L56.6845 18.5548C56.6631 18.4806 56.7159 18.4064 56.7926 18.4014H56.7939Z" fill="#315782"/>
<path d="M62.7119 19.4077L62.7559 20.0957L60.2831 20.1473C60.2831 20.1473 60.2114 19.7825 60.0089 19.6102C59.8064 19.4379 59.7171 19.4517 59.7045 19.5197C59.6919 19.5876 59.9007 19.8215 59.8529 19.941C59.8328 20.2391 58.8618 19.4656 58.8215 19.6605C58.7335 19.7297 58.907 19.9121 58.907 19.9121C58.8026 19.9209 58.702 20.0982 58.8341 20.1674C58.7259 20.2014 58.7309 20.424 58.8429 20.4504C58.5762 20.7007 59.5095 21.2944 60.2139 20.829C60.2139 20.829 63.2024 21.2592 63.4401 21.0542C63.6766 20.8479 63.6854 19.7033 63.6854 19.7033L62.7106 19.4102L62.7119 19.4077Z" fill="#FFD89A"/>
<path d="M62.4326 17.7047L62.576 19.7725L63.8149 19.9499C63.859 19.9549 63.7042 19.5914 63.6917 19.5486L63.503 19.1311L62.4339 17.7047H62.4326Z" fill="#EDA711"/>
<path d="M56.936 20.4641C56.8907 20.3182 56.8844 20.1031 57.0265 20.0201C57.3057 19.8579 57.3711 19.79 57.4705 19.844C57.5674 19.8981 57.468 20.0415 57.468 20.0415C57.5737 20.0365 57.6931 20.2013 57.5711 20.2855C57.6831 20.3056 57.7045 20.5283 57.5963 20.5673C57.7535 20.683 57.5837 20.9484 57.2391 20.9735C57.0089 20.9899 56.9749 20.5861 56.936 20.4641Z" fill="#FFD89A"/>
<path d="M62.7559 20.0693L62.4326 18.2732" stroke="#E69724" stroke-width="0.0628897" stroke-miterlimit="10" stroke-linecap="round"/>
<path d="M59.6782 22.6125L62.5447 22.5559" stroke="#E69724" stroke-width="0.0628897" stroke-miterlimit="10" stroke-linecap="round"/>
<path d="M16.3687 35.691H65" stroke="#315782" stroke-width="0.125779" stroke-miterlimit="10" stroke-linecap="round"/>
</svg>
