<svg width="32" height="32" viewBox="0 0 32 32" fill="none" xmlns="http://www.w3.org/2000/svg">
<path d="M26.402 12.3547L22.8934 15.8634L19.3848 19.372C20.284 20.2692 20.8379 21.5074 20.8379 22.8783H30.7568C30.7568 18.765 29.0933 15.0458 26.402 12.3547Z" fill="url(#paint0_linear_6413_75273)"/>
<path d="M15.8784 8V17.9189C17.2496 17.9189 18.4878 18.4725 19.3848 19.372L22.8934 15.8634L26.402 12.3547C23.7107 9.66343 19.9917 8 15.8784 8Z" fill="url(#paint1_linear_6413_75273)"/>
<path d="M5.35498 12.3547L8.8636 15.8634L12.3699 19.372H12.3722C13.2694 18.4728 14.5076 17.9189 15.8786 17.9189V8C11.7653 8 8.04605 9.66343 5.35498 12.3547Z" fill="url(#paint2_linear_6413_75273)"/>
<path d="M8.86337 15.8634L5.35475 12.3547C2.66343 15.0461 1 18.765 1 22.8783H10.9189C10.9189 21.5071 11.4728 20.2689 12.3697 19.372L8.86337 15.8634Z" fill="url(#paint3_linear_6413_75273)"/>
<path d="M15.47 21.9753L25.2595 17.415C25.3631 17.3658 25.4584 17.5205 25.354 17.5864L16.2744 23.4335C15.2587 24.0278 14.4219 22.5214 15.47 21.9751V21.9753Z" fill="#1D3B63"/>
<path d="M14.72 20.7943C15.7752 20.1587 17.1466 20.4975 17.7832 21.5527C18.0127 21.9336 18.1151 22.3545 18.103 22.7686C18.0815 23.5013 17.6992 24.2086 17.0253 24.6141C15.9706 25.2516 14.5991 24.9121 13.9626 23.8569C13.326 22.8023 13.6658 21.4316 14.7202 20.7943H14.72Z" fill="#1D3B63"/>
<path d="M15.292 21.7428C15.8232 21.4227 16.5133 21.5934 16.8339 22.1245C16.9494 22.3164 17.001 22.5282 16.9946 22.7365C16.9838 23.1054 16.7914 23.4613 16.4521 23.6656C15.9212 23.9864 15.2308 23.8157 14.9105 23.2846C14.5902 22.7537 14.7611 22.0638 15.292 21.743V21.7428Z" fill="white"/>
<defs>
<linearGradient id="paint0_linear_6413_75273" x1="25.0708" y1="23.073" x2="25.0708" y2="20.3025" gradientUnits="userSpaceOnUse">
<stop stop-color="#00963A"/>
<stop offset="0.16" stop-color="#05A540"/>
<stop offset="0.47" stop-color="#0EBD4B"/>
<stop offset="0.76" stop-color="#14CB51"/>
<stop offset="1" stop-color="#16D154"/>
</linearGradient>
<linearGradient id="paint1_linear_6413_75273" x1="22.4447" y1="16.4142" x2="20.0266" y2="14.0455" gradientUnits="userSpaceOnUse">
<stop stop-color="#FFAC05"/>
<stop offset="0.18" stop-color="#FFBE10"/>
<stop offset="0.49" stop-color="#FFD720"/>
<stop offset="0.78" stop-color="#FFE729"/>
<stop offset="1" stop-color="#FFED2D"/>
</linearGradient>
<linearGradient id="paint2_linear_6413_75273" x1="15.8245" y1="13.686" x2="12.122" y2="13.686" gradientUnits="userSpaceOnUse">
<stop stop-color="#FF4D05"/>
<stop offset="0.28" stop-color="#FF6E15"/>
<stop offset="0.55" stop-color="#FF8722"/>
<stop offset="0.8" stop-color="#FF972A"/>
<stop offset="1" stop-color="#FF9D2D"/>
</linearGradient>
<linearGradient id="paint3_linear_6413_75273" x1="9.28959" y1="16.2678" x2="7.61175" y2="18.1924" gradientUnits="userSpaceOnUse">
<stop stop-color="#FF0508"/>
<stop offset="0.05" stop-color="#FF0B0A"/>
<stop offset="0.32" stop-color="#FF2F19"/>
<stop offset="0.58" stop-color="#FF4824"/>
<stop offset="0.81" stop-color="#FF582A"/>
<stop offset="1" stop-color="#FF5E2D"/>
</linearGradient>
</defs>
</svg>
