<svg width="32" height="32" viewBox="0 0 32 32" fill="none" xmlns="http://www.w3.org/2000/svg">
<g clip-path="url(#clip0_6413_76515)">
<path d="M29.8479 10.4311L29.9016 10.4001C30.8042 11.2441 30.8466 12.5369 30.6106 13.6659C30.5968 13.7288 30.571 13.8081 30.5539 13.8777C30.5395 13.9313 30.5236 13.9906 30.5085 14.0471C30.5047 14.0612 30.5009 14.0753 30.4972 14.0894C28.1125 22.7689 13.8586 31.0246 5.1484 28.7603C5.04215 28.7334 4.91434 28.7022 4.80961 28.6696C4.74825 28.6501 4.6871 28.6186 4.62471 28.5973C3.53456 28.222 2.27276 27.4088 2.20688 26.1415C2.68149 27.6621 4.56305 28.2797 6.00106 28.4805C14.082 29.6093 25.653 22.8739 29.3612 15.7428C30.017 14.4812 31.0285 11.6038 29.8444 10.4332L29.8479 10.4311Z" fill="url(#paint0_linear_6413_76515)"/>
<path d="M7.45333 23.3608C7.82325 23.245 8.18923 23.1101 8.55164 22.9772C8.60585 23.0629 8.72679 23.1649 8.79031 23.2666C8.78125 23.3626 8.76988 23.3429 8.70139 23.3896C8.05837 23.83 7.24868 24.1472 6.58755 24.61C5.34171 25.482 4.47046 26.4241 6.36358 27.2189C8.2567 28.0136 10.6635 27.5858 12.5866 27.4611L12.5245 27.5685C10.0222 28.178 5.55017 28.8316 3.48263 26.9205C2.25247 25.786 2.5832 25.2179 3.98763 24.6123C5.01747 24.1681 6.36867 23.987 7.35486 23.525C7.39809 23.5048 7.56379 23.4116 7.45512 23.3597L7.45333 23.3608Z" fill="url(#paint1_linear_6413_76515)"/>
<path d="M25.8202 19.8897C25.8512 19.836 25.8441 19.6707 25.8471 19.6594C26.1663 18.9763 27.0569 17.9395 27.4844 17.1796C28.498 15.3845 29.9525 11.5091 26.1191 13.3309C25.3612 13.6921 24.6808 14.2043 23.9236 14.5627C23.8556 14.4325 23.8014 14.3015 23.7344 14.1731C23.807 14.1789 23.8442 14.1193 23.8955 14.0801C23.9973 14.1407 24.0892 14.0518 24.1807 13.9871C25.1727 13.2831 27.6491 10.5742 28.6035 10.4002C29.6137 10.2155 29.8957 12.2292 29.828 12.9222C29.5803 15.4445 27.5214 18.1033 25.8248 19.8895L25.8202 19.8897Z" fill="url(#paint2_linear_6413_76515)"/>
<path d="M7.45291 23.3609C7.56158 23.4127 7.39588 23.506 7.35264 23.5262C6.36467 23.9892 5.01629 24.171 3.98541 24.6135C2.58099 25.2191 2.25101 25.7843 3.48042 26.9216C5.54975 28.8317 10.02 28.1791 12.5223 27.5697C17.2733 26.4113 22.4497 23.4395 25.8193 19.8927C27.5158 18.1065 29.5748 15.4477 29.8225 12.9254C29.8912 12.2342 29.6082 10.2187 28.5979 10.4034C27.6446 10.5792 25.169 13.2852 24.1752 13.9903C24.0837 14.055 23.9918 14.1439 23.89 14.0833C25.2306 13.0325 26.8114 10.9672 28.1828 10.2135C28.6245 10.0898 29.1597 10.0123 29.5591 10.3115C30.858 11.2798 29.8496 14.2867 29.2734 15.4714C25.8961 22.4066 14.7822 28.8591 7.08615 28.3886C5.79711 28.3095 2.33003 27.6407 2.30946 25.9558C2.3038 25.4913 2.70779 25.1411 2.90969 24.7716C3.87965 24.1782 6.25511 23.7374 7.44754 23.364L7.45291 23.3609Z" fill="#FC6556"/>
<path d="M29.563 10.3093C29.5965 10.173 29.7832 10.3683 29.8481 10.4311C31.0305 11.6027 30.0207 14.4791 29.3649 15.7408C25.6567 22.8718 14.0857 29.6073 6.00479 28.4784C4.56678 28.2776 2.68521 27.66 2.2106 26.1394C2.1842 25.6224 2.46081 25.0475 2.91715 24.7673C2.71525 25.1368 2.31229 25.4888 2.31692 25.9515C2.3357 27.6375 5.80278 28.3062 7.09361 28.3843C14.7896 28.8548 25.9046 22.4042 29.2809 15.4671C29.857 14.2825 30.8665 11.2774 29.5666 10.3072L29.563 10.3093Z" fill="#DE2F20"/>
<path d="M8.91275 23.4797C8.6784 23.5864 8.68906 23.9645 8.5512 24.1514C8.56475 24.084 8.59405 23.9859 8.57812 23.9211C6.88258 25.184 7.61499 26.5105 9.57124 26.6292C14.4494 26.9271 23.7534 21.4982 26.2032 17.3131C26.6627 16.5299 27.326 15.054 26.2082 14.5108C25.5644 14.1976 25.0845 14.5487 24.5239 14.6814C24.3559 14.7211 24.1578 14.6135 24.0145 14.7249C23.9853 14.6702 23.9507 14.6186 23.9215 14.5638C24.6787 14.2054 25.3581 13.6915 26.1171 13.332C29.9504 11.5102 28.4959 15.3856 27.4824 17.1807C27.0538 17.9389 26.1642 18.9775 25.845 19.6605C25.8392 19.6711 25.8481 19.8354 25.8181 19.8909C22.4485 23.4377 17.2721 26.4095 12.5212 27.5679L12.5832 27.4604C10.6601 27.5851 8.18193 27.9802 6.36022 27.2182C4.53851 26.4562 5.33835 25.4814 6.58419 24.6093C7.24532 24.1465 8.05501 23.8294 8.69803 23.3889C8.76832 23.3412 8.77789 23.3619 8.78695 23.266C8.83187 23.3355 8.86604 23.4112 8.91096 23.4808L8.91275 23.4797Z" fill="#BE1E17"/>
<path d="M24.5242 14.6813C25.2835 14.9135 26.1551 14.7946 26.0431 15.8902C25.8311 17.9743 21.3294 21.7881 19.6046 22.8722C17.3417 24.2932 12.0813 26.4211 9.40498 25.9067C7.99511 25.6348 8.3523 25.1374 8.55145 24.1514C8.68931 23.9644 8.67865 23.5863 8.913 23.4797C9.55531 24.493 9.57494 25.1594 10.9197 25.3185C15.0722 25.8063 22.3095 21.4561 24.3706 17.9082C25.288 16.3309 24.7599 16.1561 24.013 14.7259C24.1563 14.6145 24.3544 14.7221 24.5224 14.6824L24.5242 14.6813Z" fill="#770A03"/>
<path d="M8.55112 24.1514C8.35197 25.1375 7.99477 25.6348 9.40465 25.9067C12.0792 26.4221 17.3413 24.2933 19.6042 22.8722C21.329 21.7881 25.8308 17.9743 26.0427 15.8902C26.1548 14.7946 25.2821 14.9118 24.5239 14.6814C25.0872 14.5494 25.5643 14.1976 26.2081 14.5108C27.3269 15.0557 26.6626 16.5299 26.2031 17.313C23.7534 21.4981 14.4504 26.9289 9.57116 26.6291C7.61388 26.5087 6.88147 25.1822 8.57804 23.9211C8.59396 23.9859 8.56466 24.0839 8.55112 24.1514Z" fill="#991C13"/>
<path d="M7.43288 20.7305C7.55751 20.7397 7.59752 20.7428 7.72517 20.7407C8.25989 20.7327 8.6263 20.6357 9.13854 20.5309C9.14673 20.5286 9.24885 20.5484 9.31928 20.5339C10.2999 20.3186 11.2141 19.9841 12.143 19.6172C13.0077 19.2755 13.7552 18.9704 14.5843 18.5299C15.338 18.1282 16.1874 17.6402 16.9111 17.1865C17.6911 16.698 18.3827 16.1722 19.0985 15.6015C19.8681 14.9877 20.6136 14.3568 21.2774 13.6299C21.6415 13.2312 21.9711 12.8142 22.2536 12.3528C22.3202 12.2451 22.337 12.1996 22.3908 12.0945C22.429 12.02 22.4932 11.9328 22.5436 11.8631C22.9244 12.6384 23.3344 13.4064 23.7342 14.1732C23.8011 14.3016 23.8563 14.4344 23.9233 14.5628C23.9525 14.6175 23.9871 14.6692 24.0163 14.7239C24.7633 16.1541 25.2896 16.3299 24.374 17.9062C22.3118 21.4523 15.0745 25.8025 10.923 25.3165C9.57828 25.1574 9.55968 24.4928 8.91633 23.4776C8.87141 23.4081 8.83724 23.3324 8.79232 23.2629C8.7288 23.1611 8.60786 23.0591 8.55365 22.9735C8.08638 22.2385 7.67197 21.4588 7.18652 20.7296C7.26626 20.7312 7.35645 20.7221 7.43646 20.7284L7.43288 20.7305Z" fill="#00285B"/>
<path d="M22.1866 13.7828C22.1442 14.0483 22.4586 14.535 22.4586 14.7498C22.4575 14.9175 21.9015 15.4509 21.9359 15.5146L22.8141 15.6137L23.271 16.653C23.1835 16.7703 23.2304 16.5332 23.0777 16.6572C22.9329 16.7742 23.0669 17.1097 23.148 17.2419C23.1676 17.2759 23.3096 17.3275 23.3215 17.3564C23.3314 17.3818 23.1889 17.8005 23.1645 17.8575C22.9954 18.2631 22.4469 19.2766 22.2069 19.6586C21.302 21.1046 16.1264 24.0903 14.4179 24.3345C13.3924 24.4804 12.6464 24.1473 11.7232 23.8379C11.5276 23.7719 11.0305 23.4193 10.9173 23.678C10.8416 23.4973 10.2997 22.9845 10.2653 22.8588C10.2544 22.815 10.6275 22.1509 10.6454 22.0331C10.6109 21.9982 9.84393 22.1785 9.73733 22.1302C9.62019 22.0762 9.25565 21.5564 9.12052 21.4339C9.23782 21.3519 9.23913 21.1268 9.19268 21.0009C10.1461 20.7797 11.1178 20.4622 12.0319 20.111C12.4184 19.9619 12.8001 19.7964 13.1798 19.6273C13.5059 20.0475 13.9927 20.3202 14.0591 20.9023C13.9255 20.9436 13.2988 21.1933 13.246 21.1928C13.1219 21.1928 12.4413 20.5142 12.2467 20.45C12.1648 20.4734 12.3867 21.5481 12.3439 21.6062C12.2471 21.7361 11.4786 21.9841 11.3171 22.1465C11.3071 22.2119 12.4875 22.4707 12.53 22.5154C12.6041 22.5943 12.8025 23.6778 12.9092 23.6353C13.0498 23.4778 13.3834 22.7577 13.5447 22.698C13.637 22.6638 14.7388 22.8773 14.7825 22.8043C14.588 22.5252 14.1776 22.2443 13.9993 21.9726C14.0223 21.8471 13.998 21.9208 14.0655 21.9343C14.5771 22.0351 15.0233 22.3574 15.5349 22.4415C16.3409 22.5728 17.5539 22.3879 18.2459 21.9455C19.4944 21.1483 19.9942 19.6951 20.1177 18.2969L20.562 19.4675C20.6465 19.3328 20.9988 18.3681 21.0466 18.331C21.121 18.2737 22.0278 18.311 22.1915 18.2761C22.2345 18.206 21.4396 17.5194 21.4 17.4301C21.357 17.3308 21.6923 16.3616 21.712 16.1808C21.6499 16.1021 20.8216 16.7426 20.6901 16.7875L19.7373 16.1252C19.6719 16.1773 19.9586 17.174 19.8924 17.3197C19.8596 17.3911 19.3357 17.8105 19.2229 17.921C18.7759 17.5395 18.7654 17.0253 18.5315 16.5374C18.866 16.2942 19.202 16.0453 19.5243 15.7852C20.3264 15.1408 21.0313 14.4809 21.726 13.729C22.1836 14.0256 22.0627 13.7541 22.1268 13.7123C22.1953 13.6656 22.1838 13.7821 22.1859 13.7856L22.1866 13.7828Z" fill="#00285B"/>
<path d="M22.1864 13.7828C22.419 13.9707 22.6751 14.1332 22.8975 14.3365C22.7693 14.871 23.3629 15.2873 23.4628 15.6878C23.4788 15.7526 23.3172 16.5928 23.2718 16.6548L22.815 15.6155L21.9368 15.5164C21.8996 15.452 22.4584 14.9193 22.4594 14.7517C22.4595 14.5369 22.1451 14.0502 22.1875 13.7846L22.1864 13.7828Z" fill="#C9BFBA"/>
<path d="M9.12296 21.4327C9.25809 21.5551 9.62263 22.0749 9.73977 22.129C9.84458 22.1783 10.6133 21.9969 10.6479 22.0319C10.6299 22.1496 10.2568 22.8137 10.2678 22.8575C10.3022 22.9832 10.8413 23.4953 10.9197 23.6767C10.9164 23.6834 10.9757 23.7447 10.9537 23.7645C10.9159 23.7982 10.1217 23.4931 10.0082 23.4537C10.0406 23.1915 9.40713 22.3258 9.12884 22.1786C9.1355 22.1199 8.98185 21.3495 9.02337 21.347C9.04714 21.3881 9.10801 21.415 9.12475 21.4316L9.12296 21.4327Z" fill="#C9BFBA"/>
<path d="M9.12663 22.1798C9.40595 22.3288 10.0384 23.1927 10.006 23.4549C10.0018 23.4931 9.62851 24.1238 9.57933 24.0758C9.47027 23.8787 9.38192 23.209 9.28466 23.0694C9.21577 22.9708 8.59192 22.6508 8.45074 22.551C8.65786 22.3765 9.09595 22.4863 9.12738 22.177L9.12663 22.1798Z" fill="#8E8783"/>
<path d="M19.4778 15.7046L19.5243 15.7851C19.2009 16.0434 18.8659 16.2941 18.5314 16.5373C16.8311 17.7672 15.097 18.7732 13.1797 19.6272C12.8 19.7962 12.4183 19.9618 12.0319 20.1109L12.1196 19.9528C14.5924 18.9905 17.4103 17.3732 19.4778 15.7046Z" fill="#5F96CD"/>
<path d="M23.4625 15.6857C23.3635 15.287 22.769 14.869 22.8971 14.3345L23.4859 13.8704C23.5344 14.0453 23.4744 14.7433 23.518 14.8518C23.5745 14.991 24.2168 15.5414 24.2154 15.6257L23.4643 15.6847L23.4625 15.6857Z" fill="#8E8783"/>
<path d="M21.7263 13.729C21.0298 14.4819 20.325 15.1418 19.5247 15.7852L19.4782 15.7047C20.6713 14.7414 21.7004 13.5601 22.752 12.4757C22.8015 12.5283 22.7691 12.5589 22.7395 12.607C22.5994 12.8478 21.9567 13.479 21.7271 13.7261L21.7263 13.729Z" fill="#4A719D"/>
<path d="M12.1213 19.9519L12.0336 20.1099C11.1195 20.4611 10.1478 20.7787 9.19436 20.9998C8.67014 21.1211 8.09468 21.1908 7.57107 21.2759L7.61457 21.1983C9.1473 20.91 10.6637 20.519 12.1213 19.9519Z" fill="#4A719D"/>
<path d="M14.0611 20.901C14.1139 20.8849 14.3676 20.7623 14.3929 20.7978C14.35 20.9467 13.9037 21.8272 13.9197 21.892C13.9228 21.8973 13.9626 21.9125 14.0003 21.9695C14.1786 22.2412 14.589 22.5222 14.7835 22.8012C14.7398 22.8742 13.638 22.6607 13.5456 22.695C13.3854 22.7565 13.049 23.4757 12.9102 23.6322C12.8045 23.6765 12.6062 22.593 12.5309 22.5124C12.4874 22.4659 11.3081 22.2089 11.318 22.1435C11.4806 21.9828 12.2481 21.733 12.3449 21.6031C12.3877 21.545 12.1658 20.4703 12.2477 20.4469C12.4423 20.5112 13.1229 21.1898 13.2469 21.1897C13.2998 21.1903 13.9254 20.9388 14.0601 20.8992L14.0611 20.901Z" fill="#C9BFBA"/>
<path d="M20.119 18.2939L18.9968 18.14C18.974 18.0839 19.1885 17.9553 19.2252 17.9198C19.338 17.8093 19.862 17.3899 19.8947 17.3185C19.961 17.1728 19.6743 16.1761 19.7397 16.124L20.6924 16.7863C20.8247 16.7386 21.653 16.0981 21.7144 16.1796C21.6957 16.3622 21.3585 17.3325 21.4023 17.4289C21.4409 17.5164 22.2369 18.2048 22.1938 18.2749C22.0302 18.3098 21.1215 18.2736 21.049 18.3298C20.9994 18.3679 20.6489 19.3316 20.5644 19.4663L20.12 18.2957L20.119 18.2939Z" fill="#C9BFBA"/>
<path d="M18.5311 16.5354C18.765 17.0232 18.7772 17.5364 19.2224 17.9189C19.1839 17.9555 18.9722 18.0849 18.994 18.1391L20.1162 18.2931C19.9945 19.6902 19.4939 21.1462 18.2444 21.9416C17.5524 22.3841 16.3384 22.5672 15.5334 22.4377C15.0201 22.3546 14.5756 22.0313 14.064 21.9305C13.9948 21.918 14.0208 21.8433 13.9978 21.9687C13.9601 21.9117 13.9175 21.8958 13.9172 21.8912C13.9013 21.8264 14.3493 20.9448 14.3904 20.797C14.3652 20.7615 14.1096 20.8852 14.0587 20.9003C13.9922 20.3181 13.5062 20.0426 13.1793 19.6252C15.0949 18.7723 16.829 17.7663 18.5311 16.5354Z" fill="#004E94"/>
<path d="M16.0854 18.4464L17.1269 19.2005L18.2636 18.6684L17.8213 19.8163L18.6738 20.7679C18.4787 20.8019 17.5056 20.7121 17.4019 20.7887C17.315 20.8532 16.9359 21.726 16.8171 21.8757L16.4461 20.6461L15.2154 20.4283L16.2445 19.71L16.0854 18.4464Z" fill="#DAE2E9"/>
<path d="M2.04503 10.9638C2.05587 11.0363 2.18243 11.0777 2.16607 11.1445C2.15878 11.1773 1.79081 11.5568 1.72687 11.6486C1.51999 11.9351 1.1437 12.3457 1.55857 12.655C1.62545 12.7047 1.82029 12.6495 1.80855 12.778C1.72718 12.8107 1.60551 13.005 1.6266 13.0787C1.65293 13.1781 2.2331 13.8192 2.35191 13.963C4.13917 16.141 6.00676 18.2845 7.43605 20.7312C7.35604 20.7249 7.26764 20.7329 7.18612 20.7323C5.81519 18.6719 4.2675 16.7518 2.66205 14.8722C2.175 14.3014 1.38977 13.6069 0.986996 13.0208C0.806377 12.7576 0.777902 12.638 0.898094 12.3419C1.08268 11.8845 1.68896 11.3101 2.04786 10.9645L2.04503 10.9638Z" fill="#BE1E17"/>
<path d="M18.3144 3.24826C18.1933 3.32776 17.7274 4.12889 17.5632 4.32393C16.483 5.61102 14.8679 6.56262 13.5216 7.54994C13.0628 7.75988 12.6599 8.11185 12.2281 8.36833C9.69967 9.87106 6.35243 11.8776 3.51208 12.5795C3.12515 12.6741 2.59844 12.7538 2.19773 12.8038C2.11318 12.8144 1.85531 12.7605 1.80822 12.7781C1.8207 12.6468 1.62511 12.7048 1.55824 12.6552C1.14336 12.3458 1.51965 11.9352 1.72654 11.6487C1.75961 11.706 1.8362 11.5783 1.79692 11.6797C1.70768 11.9054 1.36539 12.0649 1.66791 12.4152C2.12348 12.9398 4.45865 12.0283 5.04342 11.8052C8.82689 10.3559 13.8973 7.42367 16.8793 4.68536C17.4306 4.18097 18.2924 3.48293 18.1013 2.66011C18.3343 2.76187 18.1483 3.07212 18.3172 3.24902L18.3144 3.24826Z" fill="#E94536"/>
<path d="M22.5431 11.8659C22.4927 11.9356 22.4285 12.0228 22.3903 12.0973C21.0176 9.637 20.0709 6.99284 19.102 4.36389C19.0379 4.19088 18.7471 3.29443 18.6958 3.22621C18.6847 3.21113 18.3326 3.23782 18.3175 3.24891C18.1503 3.07098 18.3345 2.76177 18.1016 2.66001C18.2926 3.48282 17.4308 4.18086 16.8796 4.68525C13.8965 7.42178 8.82714 10.3558 5.04366 11.8051C4.45889 12.0282 2.12476 12.9414 1.66816 12.4151C1.36564 12.0648 1.70896 11.9071 1.79716 11.6796C1.83644 11.5782 1.75806 11.7069 1.72678 11.6486C1.79354 11.5576 2.15869 11.1773 2.16598 11.1445C2.18338 11.0795 2.05399 11.0373 2.04494 10.9638C5.24869 7.87788 12.7464 3.47034 17.0601 2.40214C17.5756 2.27397 18.6439 1.99133 18.9334 2.58785C19.9033 5.78898 21.0608 8.86032 22.5431 11.8659Z" fill="#DE2F20"/>
<path d="M12.5048 4.67649C12.548 4.76371 12.5888 4.71867 12.6443 4.7033C13.0543 4.59073 14.3047 4.11936 13.8036 5.10317C12.9797 6.72674 7.52968 9.90671 5.70858 9.74101C5.04385 9.68091 5.22539 9.40427 5.41102 8.94867C7.07283 7.30907 10.3146 5.50426 12.5037 4.6747L12.5048 4.67649Z" fill="url(#paint3_linear_6413_76515)"/>
<path d="M5.41133 8.94884C5.22392 9.40547 5.04313 9.6793 5.7089 9.74119C7.53 9.90689 12.9818 6.72588 13.8039 5.10335C14.304 4.11775 13.0546 4.5909 12.6447 4.70347C12.5873 4.71988 12.5475 4.76671 12.5051 4.67666C12.9007 4.52699 15.1056 3.71222 14.5549 4.9203C13.8154 6.54528 6.87514 10.5666 5.0943 10.3466C4.11756 10.2256 5.10455 9.25245 5.41237 8.95063L5.41133 8.94884Z" fill="#FC6556"/>
<path d="M19.1008 4.36229L19.5648 5.96781L19.4233 6.03279C19.2885 5.68347 19.1579 5.32925 19.0285 4.97683C18.864 4.53484 18.7262 3.99865 18.5436 3.57905C18.5276 3.54297 18.5318 3.45938 18.4941 3.46442C18.0987 4.00298 17.6322 4.53007 17.1469 4.99162C16.6897 5.4274 16.1788 5.83215 15.684 6.2276C15.3412 6.50189 14.9772 6.79319 14.6261 7.05316C14.275 7.31312 13.883 7.58481 13.5104 7.84051C13.3588 7.66072 13.7642 7.61046 13.8421 7.48912C13.8363 7.39224 13.5685 7.52776 13.5217 7.55002C14.869 6.56449 16.4831 5.6111 17.5633 4.32402C17.7293 4.12793 18.1951 3.32681 18.3145 3.24834C18.3306 3.23904 18.6817 3.21056 18.6928 3.22564C18.7459 3.29282 19.0367 4.18928 19.099 4.36332L19.1008 4.36229Z" fill="#F3E1E0"/>
<path d="M19.1016 4.3619C20.0705 6.99084 21.0154 9.63605 22.3899 12.0953C22.336 12.2004 22.3183 12.244 22.2526 12.3535C21.1743 10.308 20.2596 8.1823 19.4241 6.0324L19.5656 5.96742L19.1016 4.3619Z" fill="#F3E1E0"/>
<path d="M19.0285 4.9768C19.1598 5.32819 19.2885 5.68344 19.4234 6.03276C20.26 8.18445 21.1764 10.3091 22.2519 12.3539C21.9712 12.8143 21.6416 13.2313 21.2758 13.631C21.1068 13.4541 20.9785 13.2442 20.8594 13.0338C20.5389 12.4623 20.1223 11.691 19.8507 11.1008C19.7837 10.9557 19.6999 10.7941 19.6574 10.642C19.3772 9.66062 19.1105 7.56176 19.0135 6.50089C18.9688 6.01838 18.934 5.45378 19.0267 4.97784L19.0285 4.9768Z" fill="#C9BFBA"/>
<path d="M5.90433 15.3008C6.60261 16.2747 7.3137 17.2459 7.9629 18.2505C8.44354 18.9921 8.91144 19.7529 9.31868 20.5368C9.24825 20.5512 9.14717 20.5332 9.13794 20.5337C9.21697 20.4929 9.19066 20.4556 9.16475 20.3942C8.73665 19.4171 8.12201 19.266 7.35546 18.6203C6.15404 17.61 5.09449 16.4486 3.94973 15.3793C3.92039 15.3533 3.85447 15.2887 3.81545 15.3327C3.72521 15.2178 3.63677 15.1018 3.54577 14.9896C3.10238 14.4366 2.40302 13.7378 2.04012 13.1837C2.04454 13.026 2.50674 13.1982 2.60329 13.2332C3.86366 13.6677 4.8489 14.5475 5.9046 15.3055L5.90433 15.3008Z" fill="url(#paint4_linear_6413_76515)"/>
<path d="M11.3866 16.9514C12.2137 16.8629 12.5155 16.8605 13.3125 16.5173C13.7369 17.1863 14.1706 17.8547 14.5824 18.5309C13.7533 18.9715 13.0087 19.2773 12.1412 19.6182C12.0663 19.6209 12.0659 19.645 12.0141 19.5842C11.5712 19.0691 10.9439 17.7058 10.5467 17.0426C10.8066 17.0214 11.0745 17.0433 11.3331 17.0158C11.3718 17.0125 11.3607 16.9521 11.3838 16.9507L11.3866 16.9514Z" fill="url(#paint5_linear_6413_76515)"/>
<path d="M17.654 12.975C18.114 13.8215 18.6711 14.6335 19.079 15.5053C19.0982 15.5467 19.098 15.5588 19.0987 15.6013C18.3811 16.1731 17.6913 16.6979 16.9113 17.1864C16.5197 16.508 16.1835 15.7976 15.818 15.1066C16.3884 14.7223 16.7089 14.2151 17.1032 13.6868C17.1177 13.6665 17.1627 13.7073 17.1849 13.6754C17.3492 13.4517 17.4637 13.1828 17.655 12.9768L17.654 12.975Z" fill="url(#paint6_linear_6413_76515)"/>
<path d="M15.7853 15.0541C15.7956 15.072 15.806 15.0899 15.8163 15.1078C16.1818 15.7988 16.518 16.5092 16.9097 17.1876C16.1859 17.6412 15.3365 18.1292 14.5828 18.531C14.1709 17.8547 13.7373 17.1863 13.3129 16.5173C14.1795 16.1459 15.0656 15.6677 15.7853 15.0541Z" fill="#991C13"/>
<path d="M9.13729 20.5317C8.62402 20.6348 8.25761 20.7318 7.72392 20.7416C6.56877 18.8359 5.19429 17.0711 3.81376 15.3289C3.85279 15.2849 3.9187 15.3495 3.94804 15.3755C5.09281 16.4448 6.15236 17.6062 7.35377 18.6165C8.12032 19.2622 8.73496 19.4133 9.16307 20.3904C9.19001 20.4536 9.21632 20.4909 9.13626 20.5299L9.13729 20.5317Z" fill="#C9BFBA"/>
<path d="M21.2777 13.6301C20.6121 14.3581 19.8684 14.9879 19.0988 15.6017C19.0981 15.5591 19.0983 15.5471 19.0791 15.5057C20.2855 14.3008 19.9079 12.6216 19.8527 11.0999C20.126 11.689 20.5398 12.4596 20.8613 13.0329C20.9797 13.2462 21.1098 13.455 21.2777 13.6301Z" fill="#770A03"/>
<path d="M12.0149 19.5841C12.0667 19.6449 12.0671 19.6208 12.1419 19.6181C11.213 19.985 10.297 20.3205 9.31816 20.5349C8.91091 19.7509 8.44301 18.9901 7.96238 18.2486C8.03617 18.1821 8.08535 18.2301 8.15036 18.2642C8.51011 18.4574 8.87762 18.7798 9.24564 18.9873C10.0986 19.4685 11.0263 19.8064 12.0138 19.5823L12.0149 19.5841Z" fill="#770A03"/>
<path d="M3.54572 14.9849C3.63774 15.0989 3.72619 15.2148 3.81539 15.328C5.19592 17.0702 6.5704 18.835 7.72555 20.7407C7.59789 20.7428 7.55789 20.7396 7.43326 20.7304C6.00396 18.2838 4.13741 16.142 2.34912 13.9623L2.65695 14.1234C2.83231 14.299 3.2915 14.9456 3.43185 15.0316C3.5231 15.0863 3.47611 15.0132 3.54647 14.9821L3.54572 14.9849Z" fill="#EFE9E9"/>
<path d="M1.80843 12.7782C1.85449 12.7587 2.1134 12.8145 2.19795 12.8038C2.59866 12.7539 3.1264 12.6759 3.5123 12.5796C3.59176 12.5767 3.62172 12.6286 3.54627 12.6674C3.32604 12.7778 2.87028 12.7283 2.67528 12.9196C2.57208 12.9434 1.9487 13.017 1.94383 13.0747C1.95128 13.1372 2.02469 13.1568 2.03991 13.1791C2.4046 13.7322 3.10397 14.431 3.54557 14.9851C3.47418 15.0143 3.52219 15.0892 3.43094 15.0345C3.29059 14.9485 2.8314 14.302 2.65604 14.1264L2.34822 13.9652C2.23043 13.8232 1.65102 13.1793 1.6229 13.081C1.6036 13.0062 1.72527 12.8118 1.80485 12.7802L1.80843 12.7782Z" fill="#F3E1E0"/>
<path d="M3.51198 12.5795C6.35233 11.8775 9.69957 9.871 12.228 8.36828C12.6598 8.1118 13.0628 7.75983 13.5215 7.54988C13.5683 7.52763 13.8361 7.3921 13.8419 7.48898C13.764 7.61032 13.3587 7.66058 13.5102 7.84038C13.1225 8.10717 12.723 8.37838 12.3253 8.63189C11.385 9.22723 10.3955 9.8033 9.40956 10.3153C8.64816 10.7119 7.66495 11.208 6.96288 11.5131C6.94394 11.5216 6.92811 11.5355 6.90918 11.5441C6.90381 11.5472 6.86351 11.4774 6.76961 11.5173C5.83621 11.9178 4.90572 12.3356 3.93029 12.622C3.52808 12.7396 3.08599 12.8254 2.67497 12.9196C2.86997 12.7282 3.3247 12.7759 3.54596 12.6673C3.62244 12.6303 3.59247 12.5784 3.51198 12.5795Z" fill="#F3E1E0"/>
<path d="M17.1471 4.99138C17.5315 5.99611 17.9653 6.99139 18.4068 7.9751C18.8086 8.86953 19.2233 9.76133 19.6594 10.6407C19.7019 10.7928 19.7856 10.9545 19.8527 11.0995C19.9079 12.6212 20.2855 14.3005 19.0791 15.5053C18.6702 14.6317 18.1142 13.8215 17.6541 12.975C17.6386 12.9482 17.6231 12.9213 17.6076 12.8945C18.0326 12.2004 18.6697 10.3196 18.4246 9.55185C18.332 9.25925 18.0928 8.96064 17.9843 8.66529C17.831 8.25504 17.7591 7.76675 17.5615 7.3749C17.382 7.0227 17.0985 6.74249 16.9208 6.38925L15.9424 7.04244L15.686 6.22633C16.1808 5.83088 16.6889 5.42537 17.1489 4.99035L17.1471 4.99138Z" fill="#991C13"/>
<path d="M18.5417 3.57981C18.7233 3.99763 18.8628 4.53278 19.0266 4.9776C18.9356 5.45251 18.9704 6.0171 19.0134 6.50065C19.1104 7.56152 19.3771 9.66038 19.6573 10.6417C19.2194 9.76336 18.8047 8.87156 18.4047 7.97611C18.5329 7.53692 18.3125 7.02699 18.2723 6.57291C18.2038 5.80108 18.2046 4.38062 18.4426 3.65613C18.4557 3.61275 18.4894 3.57184 18.5428 3.5816L18.5417 3.57981Z" fill="#B2B2B3"/>
<path d="M18.5416 3.57997C18.4883 3.57021 18.4575 3.61188 18.4415 3.6545C18.2017 4.38003 18.2026 5.79945 18.2712 6.57128C18.3114 7.02536 18.5318 7.53529 18.4036 7.97448C17.9631 6.99256 17.5293 5.99728 17.1439 4.99075C17.6309 4.52818 18.0975 4.00109 18.4911 3.46356C18.527 3.45955 18.5246 3.54211 18.5406 3.57818L18.5416 3.57997Z" fill="#7F899B"/>
<path d="M14.6261 7.05303C14.6577 7.11596 14.7049 7.17701 14.7346 7.24097C14.8115 7.41136 14.8802 7.58409 14.9589 7.75345L12.6672 9.21974C12.5646 9.02126 12.4938 8.78291 12.3273 8.63087C12.7243 8.38018 13.1245 8.10615 13.5122 7.83936C13.8999 7.57256 14.2653 7.32099 14.6279 7.052L14.6261 7.05303Z" fill="#AFAABF"/>
<path d="M15.6855 6.22914L15.9418 7.04525L15.9305 7.0876L15.1071 7.67037C14.9913 7.68472 14.8896 7.07044 14.7361 7.24263C14.7063 7.17867 14.6602 7.1194 14.6276 7.05469C14.9786 6.79472 15.3426 6.50342 15.6855 6.22914Z" fill="#BE1E17"/>
<path d="M6.90961 11.544L7.16787 12.1443C6.95163 12.46 5.22282 12.8138 5.12619 12.9316C4.99053 13.0935 5.46741 13.5102 5.54793 13.6332C6.1498 14.5434 7.10861 16.109 8.11774 16.5383C8.34864 16.6365 10.3394 17.129 10.4259 17.0433L10.334 16.6692C10.3443 16.6871 10.3546 16.7049 10.365 16.7228C10.4288 16.8292 10.489 16.9376 10.55 17.0432C10.9472 17.7064 11.5744 19.0698 12.0174 19.5849C11.0299 19.8089 10.1011 19.4693 9.24917 18.9899C8.88115 18.7823 8.51364 18.4599 8.15389 18.2667C8.08785 18.2309 8.04149 18.1836 7.96591 18.2511C7.31671 17.2466 6.60562 16.2753 5.90734 15.3015C5.26065 14.4005 4.62979 13.4855 3.93457 12.6245C4.91 12.3381 5.84229 11.9192 6.77389 11.5197C6.86958 11.4788 6.90706 11.5479 6.91347 11.5466L6.90961 11.544Z" fill="#991C13"/>
<path d="M2.67362 12.9205C3.08465 12.8264 3.52674 12.7406 3.92894 12.623C4.62698 13.4848 5.25605 14.4008 5.90171 15.3C4.846 14.542 3.86077 13.6623 2.60039 13.2277C2.50206 13.1938 2.04165 13.0205 2.03722 13.1782C2.02275 13.1531 1.94859 13.1363 1.94114 13.0738C1.94601 13.0161 2.5676 12.9436 2.67259 12.9187L2.67362 12.9205Z" fill="#7F899B"/>
<path d="M9.77686 10.8886L9.81921 10.9C10.2335 11.6011 10.689 12.2784 11.1202 12.9673C11.5738 13.691 12.0045 14.4328 12.4563 15.1575C12.7401 15.6118 13.0266 16.0669 13.3129 16.5173C12.5159 16.8605 12.2142 16.8629 11.3871 16.9514L10.3622 16.7222C10.3519 16.7043 10.3415 16.6864 10.3312 16.6685C9.40848 15.1488 8.39637 13.5901 7.38623 12.1257L9.77507 10.8897L9.77686 10.8886Z" fill="url(#paint7_linear_6413_76515)"/>
<path d="M11.3868 16.9514C11.3638 16.9528 11.3748 17.0133 11.3361 17.0165C11.0765 17.0423 10.8085 17.0204 10.5497 17.0433C10.4877 16.936 10.4275 16.8275 10.3647 16.723L11.3896 16.9522L11.3868 16.9514Z" fill="#BAC7D1"/>
<path d="M14.9591 7.75342C15.7127 9.35638 16.5892 10.9695 17.4321 12.5329C17.4683 12.5955 17.5045 12.6582 17.5406 12.7208C17.4599 12.7794 17.4838 12.6678 17.4321 12.7477C17.3254 12.9143 17.2474 13.482 17.1015 13.6879C16.7072 14.2163 16.3867 14.7235 15.8163 15.1077C15.8059 15.0898 15.7956 15.0719 15.7853 15.054C15.5399 14.5919 15.27 14.1368 15.0247 13.6746C14.6883 13.0383 14.3624 12.3912 14.0243 11.7559C13.5745 10.9107 13.1065 10.0712 12.6685 9.2215L14.9601 7.75521L14.9591 7.75342Z" fill="url(#paint8_linear_6413_76515)"/>
<path d="M17.5424 12.7198C17.5703 12.7681 17.57 12.8256 17.6085 12.8964C17.624 12.9233 17.6395 12.9501 17.655 12.977C17.4637 13.1829 17.3492 13.4518 17.1849 13.6756C17.1609 13.7085 17.1169 13.6695 17.1032 13.6869C17.2491 13.481 17.3271 12.9133 17.4338 12.7467C17.4855 12.6668 17.4616 12.7784 17.5424 12.7198Z" fill="#BAC7D1"/>
<path d="M15.024 13.6728C15.2694 14.1349 15.5393 14.59 15.7846 15.0522C15.0649 15.6658 14.1788 16.144 13.3122 16.5154C13.0249 16.0632 12.7393 15.61 12.4556 15.1557C13.4024 14.8405 14.2846 14.3431 15.024 13.6728Z" fill="#DE2F20"/>
<path d="M6.96323 11.5129C7.10231 11.7165 7.24601 11.92 7.38791 12.1244C8.39806 13.5888 9.40733 15.1468 10.3329 16.6672L10.4248 17.0413C10.3383 17.1271 8.34932 16.6335 8.11663 16.5363C7.10854 16.1089 6.14973 14.5432 5.54683 13.6313C5.4663 13.5083 4.98942 13.0915 5.12508 12.9297C5.22171 12.8119 6.95052 12.4581 7.16676 12.1423L6.9085 11.5421C6.92743 11.5335 6.94327 11.5196 6.9622 11.5111L6.96323 11.5129Z" fill="#BE1E17"/>
<path d="M12.3272 8.63091C12.4938 8.78296 12.5645 9.02131 12.6672 9.21978C13.1063 10.0712 13.5732 10.909 14.0231 11.7542C13.4545 11.4763 13.294 10.8387 12.9888 10.3348C12.808 10.0382 12.5335 9.76948 12.4007 9.40708C11.6028 9.84387 10.8336 10.3428 10.0327 10.7742C9.96182 10.8128 9.89441 10.8159 9.81787 10.8983L9.77552 10.8869L9.40869 10.3135C10.3964 9.80053 11.3842 9.22549 12.3244 8.63016L12.3272 8.63091Z" fill="#BE1E17"/>
<path d="M9.41006 10.3153L9.7769 10.8886L7.38806 12.1246C7.24719 11.922 7.10349 11.7185 6.96338 11.5131C7.66442 11.2062 8.64942 10.7091 9.41006 10.3153Z" fill="#95A3C3"/>
<path d="M17.6072 12.8945C17.5669 12.8247 17.5672 12.7673 17.541 12.7179C17.5049 12.6553 17.4687 12.5926 17.4325 12.53C17.7196 11.9896 17.4365 11.1149 17.2793 10.5326C16.9579 9.34357 16.4829 8.18595 15.9307 7.08481L15.942 7.04246L16.9204 6.38927C17.0981 6.7425 17.3816 7.02272 17.5611 7.37492C17.7605 7.76574 17.8324 8.25403 17.9839 8.66531C18.0942 8.95963 18.3326 9.26106 18.4242 9.55187C18.6693 10.3196 18.0322 12.2005 17.6072 12.8945Z" fill="#BE1E17"/>
<path d="M15.929 7.08586C16.4812 8.187 16.9562 9.34463 17.2776 10.5337C17.4348 11.116 17.7196 11.9896 17.4308 12.531C16.5879 10.9677 15.7114 9.35453 14.9578 7.75158C14.8781 7.58043 14.8104 7.40949 14.7335 7.2391C14.8871 7.06692 14.9887 7.6812 15.1046 7.66684L15.9279 7.08407L15.929 7.08586Z" fill="#DE2F20"/>
<path d="M14.0233 11.754C14.3625 12.391 14.6873 13.0364 15.0237 13.6727C14.2843 14.343 13.4021 14.8404 12.4552 15.1556C12.0034 14.4308 11.5727 13.6891 11.1191 12.9654C11.2371 12.9879 11.2222 12.8629 11.1996 12.7948C11.1152 12.5452 10.4984 11.4479 10.3264 11.1583C10.2582 11.0401 10.107 10.8983 10.0329 10.774C10.8339 10.3426 11.603 9.84364 12.4009 9.40685C12.5356 9.76822 12.809 10.0351 12.989 10.3345C13.2943 10.8384 13.4548 11.4761 14.0233 11.754Z" fill="#DE2F20"/>
<path d="M10.0339 10.7758C10.1062 10.9011 10.2573 11.0429 10.3273 11.16C10.4994 11.4497 11.1162 12.547 11.2006 12.7966C11.2232 12.8646 11.2391 12.9915 11.1201 12.9671C10.6889 12.2782 10.2334 11.6009 9.81911 10.8998C9.89386 10.8185 9.96305 10.8143 10.0339 10.7758Z" fill="#C73730"/>
</g>
<defs>
<linearGradient id="paint0_linear_6413_76515" x1="24.2872" y1="17.7058" x2="11.485" y2="25.6651" gradientUnits="userSpaceOnUse">
<stop stop-color="#AF2619"/>
<stop offset="0.33" stop-color="#78140F"/>
<stop offset="0.38" stop-color="#74130F"/>
<stop offset="0.59" stop-color="#72130F"/>
<stop offset="1" stop-color="#B02619"/>
</linearGradient>
<linearGradient id="paint1_linear_6413_76515" x1="7.03914" y1="23.8958" x2="7.87561" y2="27.6346" gradientUnits="userSpaceOnUse">
<stop stop-color="#D7311C"/>
<stop offset="1" stop-color="#AD251A"/>
</linearGradient>
<linearGradient id="paint2_linear_6413_76515" x1="25.4047" y1="13.2136" x2="28.074" y2="15.7868" gradientUnits="userSpaceOnUse">
<stop stop-color="#D52F1B"/>
<stop offset="1" stop-color="#AC261A"/>
</linearGradient>
<linearGradient id="paint3_linear_6413_76515" x1="9.23604" y1="6.52551" x2="10.0066" y2="7.7941" gradientUnits="userSpaceOnUse">
<stop stop-color="#FCA18B"/>
<stop offset="1" stop-color="#F97665"/>
</linearGradient>
<linearGradient id="paint4_linear_6413_76515" x1="5.72318" y1="13.8256" x2="5.65498" y2="18.4279" gradientUnits="userSpaceOnUse">
<stop stop-color="#ABACB0"/>
<stop offset="1" stop-color="#C4B0A8"/>
</linearGradient>
<linearGradient id="paint5_linear_6413_76515" x1="12.4551" y1="17.0123" x2="12.755" y2="19.1231" gradientUnits="userSpaceOnUse">
<stop stop-color="#A3B9CD"/>
<stop offset="1" stop-color="#B6B8BD"/>
</linearGradient>
<linearGradient id="paint6_linear_6413_76515" x1="16.7026" y1="14.5266" x2="18.1735" y2="15.9374" gradientUnits="userSpaceOnUse">
<stop stop-color="#A1B6CA"/>
<stop offset="1" stop-color="#B5B8BC"/>
</linearGradient>
<linearGradient id="paint7_linear_6413_76515" x1="10.9392" y1="11.5874" x2="9.93026" y2="16.2675" gradientUnits="userSpaceOnUse">
<stop stop-color="#B4E7FD"/>
<stop offset="1" stop-color="#D6DBDC"/>
</linearGradient>
<linearGradient id="paint8_linear_6413_76515" x1="12.8339" y1="11.145" x2="17.163" y2="11.6286" gradientUnits="userSpaceOnUse">
<stop stop-color="#C9E1F0"/>
<stop offset="1" stop-color="#D6D9D8"/>
</linearGradient>
<clipPath id="clip0_6413_76515">
<rect width="32" height="32" fill="white"/>
</clipPath>
</defs>
</svg>
