<svg width="23" height="31" viewBox="0 0 23 31" fill="none" xmlns="http://www.w3.org/2000/svg">
<path d="M13.1367 28.7012C12.7927 28.7394 12.3505 29.1208 11.9082 29.0445C12.2522 28.5868 12.5962 28.0528 12.891 27.557L13.1367 28.6631V28.7012Z" fill="#FCFEFE"/>
<path d="M19.5245 5.66441C19.5245 5.66441 19.4753 5.66441 19.377 5.70255C19.1805 5.77883 18.7874 5.89325 18.5908 5.85511C18.8857 5.54999 19.721 5.47371 20.065 5.24487C20.1633 5.20673 20.1141 4.93974 20.5073 4.86346L20.1633 4.67276C20.6055 4.55834 20.9986 4.67276 20.7529 5.05417C20.7038 5.13045 19.6719 5.58813 19.5245 5.62627V5.66441Z" fill="#E29C22"/>
<path d="M14.1205 23.2471C14.1205 23.2471 14.1205 23.4378 14.1205 23.5522C14.1205 24.5439 13.8257 25.6881 13.3834 26.6035C13.2851 26.8323 13.1869 27.0993 13.0394 27.3281C13.0394 27.3281 12.892 27.4807 12.8429 27.5951C12.548 28.0909 12.2041 28.6249 11.8601 29.0826C11.8601 29.0826 11.8601 29.1589 11.811 29.197C11.7127 29.3114 11.0247 30.1124 10.9265 30.1124C10.2385 29.2351 9.45227 28.3579 8.91174 27.4426C8.76432 27.1756 8.66604 26.8704 8.51863 26.5653C8.07637 25.5355 7.7324 24.582 7.78154 23.476C7.78154 23.476 7.78154 23.3997 7.78154 23.3615C7.78154 23.2852 7.78154 23.0945 7.83068 23.0183C7.92895 22.408 8.51863 20.9587 9.30485 20.7298C9.45227 20.6917 12.3515 20.7298 12.4989 20.7298C13.3343 20.8824 13.9731 22.7131 14.0222 23.3234L14.1205 23.2471Z" fill="#291511"/>
<path d="M12.5465 24.7346C12.4482 25.6881 12.4482 26.6797 12.3008 27.6714C12.3008 27.7477 12.1534 27.9002 12.3991 27.8621C12.006 28.5105 11.5637 29.1207 11.0723 29.6928C10.8266 29.731 10.1387 28.663 9.99126 28.4723C8.81192 26.4509 7.43602 23.7811 8.6645 21.5689C8.86106 21.1875 9.45073 20.5391 10.0404 20.7298C7.92741 22.5606 9.49987 25.4974 10.8266 27.3663C11.2197 27.5188 12.4482 25.0016 12.5465 24.6964V24.7346Z" fill="#FBB924"/>
<path d="M10.5811 20.768C9.79483 22.1029 10.0405 23.9337 11.0724 25.1923C11.8587 23.8192 12.2027 22.2173 11.5638 20.768C11.6621 20.768 11.8095 20.768 11.8587 20.768C11.8587 20.768 11.9078 20.8824 11.957 20.9206C12.4975 21.7978 12.8415 22.9039 12.5466 23.8955C12.5466 23.9337 12.3501 23.8955 12.3501 23.9337C12.0061 24.9634 11.7113 26.1839 10.7776 26.9849C9.49999 25.8407 8.51721 22.2173 9.94225 20.9968C10.2862 20.6917 10.2371 20.8061 10.5811 20.768Z" fill="#FBB924"/>
<path d="M11.5648 20.768C12.2036 22.2173 11.8597 23.8192 11.0734 25.1923C10.0415 23.9336 9.79581 22.141 10.582 20.768C10.9752 20.7298 11.1717 20.6917 11.5648 20.768Z" fill="#FDEEB3"/>
<path d="M12.4472 27.8621C12.4472 27.8621 12.3489 27.7477 12.3489 27.6714C12.4472 26.6797 12.4963 25.6881 12.5946 24.7346C12.5946 24.2769 12.9386 23.7811 12.9877 23.2852C13.0369 22.408 12.742 21.5308 12.1523 20.768C12.742 20.7298 13.3808 21.5689 13.5774 21.9503C14.4619 23.7811 13.4791 26.1458 12.4472 27.8621Z" fill="#F89122"/>
<path d="M10.7773 27.023C11.6619 26.2221 12.0058 25.0016 12.3498 23.9718C12.3498 23.9336 12.5464 23.9718 12.5464 23.9336C12.8412 22.9801 12.5464 21.8359 11.9567 20.9587C12.2024 21.1494 12.5464 21.7215 12.5955 21.9885C13.0869 23.7811 12.0058 25.6118 11.023 27.1756C10.8756 27.2518 10.8265 27.0993 10.7773 27.0611V27.023Z" fill="#F89122"/>
<path d="M9.992 28.4724C8.56696 26.4891 7.28934 23.743 8.66524 21.569C7.43676 23.7811 8.76352 26.4509 9.992 28.4724Z" fill="#F7F2D2"/>
<path d="M5.42263 1.35454C5.86488 1.27826 7.68303 3.41412 6.40541 3.18527C6.258 3.18527 4.73468 1.46896 5.42263 1.35454Z" fill="#FBB924"/>
<path d="M1.4907 4.67273C1.4907 4.67273 3.70197 5.35926 3.75111 5.47368C4.19336 6.46533 1.14673 5.32112 1.24501 4.86343C1.29414 4.78715 1.39242 4.71087 1.4907 4.67273Z" fill="#FBB924"/>
<path d="M0.555652 8.90631C0.555652 8.90631 2.52122 8.90631 2.66864 8.90631C3.20917 9.02073 3.16003 9.63098 2.71778 9.70726C2.6195 9.70726 0.555652 9.70726 0.408234 9.70726C-0.181437 9.59284 -0.132298 8.98259 0.555652 8.90631Z" fill="#513E2B"/>
<path d="M2.71896 9.17331C2.5224 9.66914 1.04822 9.36401 0.45855 9.36401C0.311132 9.36401 0.45855 9.51657 0.360271 9.51657C-0.671654 8.94447 2.37498 8.83005 2.71896 9.17331Z" fill="#FCD238"/>
<path d="M0.360352 9.5166C0.360352 9.5166 0.360351 9.36404 0.45863 9.36404C1.0483 9.36404 2.52248 9.66916 2.71904 9.17334C2.81732 9.28776 2.91559 9.24962 2.86645 9.44032C2.71904 9.7073 0.655187 9.66916 0.360352 9.5166Z" fill="#E29C22"/>
<path d="M16.6752 1.43083C16.6752 1.81224 16.1838 2.38434 15.8398 2.68947C15.8398 2.68947 15.1519 2.80389 15.4959 3.18529C15.1519 3.18529 15.1027 2.99459 15.1519 2.76575C15.1519 2.65133 16.2821 1.39269 16.4295 1.35455C16.5769 1.35455 16.6261 1.35455 16.6752 1.39269V1.43083Z" fill="#FCD238"/>
<path d="M15.4952 3.1853C15.1513 2.8039 15.8392 2.68948 15.8392 2.68948C16.1341 2.38436 16.6254 1.81225 16.6746 1.43085C16.7729 1.43085 16.9203 1.54527 16.9203 1.62155C16.9203 1.77411 15.8392 3.26159 15.4952 3.22345V3.1853Z" fill="#E29C22"/>
<path d="M19.3766 8.90631C19.7206 8.83003 21.7845 8.86817 21.9319 9.09701C22.5215 9.9361 19.9172 9.82168 19.4258 9.7454C18.9344 9.66912 18.8852 9.02073 19.3766 8.94445V8.90631Z" fill="#413626"/>
<path d="M21.6366 9.05894C21.4892 9.70732 19.8185 9.17336 19.1305 9.4022C18.8848 8.79196 21.3418 8.94452 21.6366 9.05894Z" fill="#FCD238"/>
<path d="M19.1304 9.44031C19.8183 9.21147 21.4891 9.70729 21.6365 9.09705C21.833 9.17333 21.833 9.32589 21.833 9.47845C21.7348 9.70729 19.8675 9.70729 19.5235 9.66915L19.1795 9.47845L19.1304 9.44031Z" fill="#E29C22"/>
<path d="M18.6399 5.85508C17.1657 5.66438 19.9666 4.74901 20.2123 4.67273L20.5563 4.86343C20.2123 4.93971 20.2123 5.20669 20.1141 5.24484C19.7701 5.47368 18.9347 5.51182 18.6399 5.85508Z" fill="#FBB924"/>
<path d="M10.8753 0.0196361C11.2193 -0.0566447 11.5633 0.0959169 11.6124 0.3629C11.6124 0.43918 11.6124 1.9648 11.5633 2.04108C11.4158 2.42248 10.6788 2.38434 10.5805 2.1555C10.4822 1.92666 10.4822 0.134057 10.8753 0.0577765V0.0196361Z" fill="#513E2B"/>
<path d="M11.0721 0.0958862C11.5635 0.0958862 11.5144 1.69778 11.4161 1.96476C11.3178 2.30803 10.7282 2.34617 10.6299 2.07919C10.6299 2.00291 10.6299 0.43915 10.679 0.362869C10.679 0.286588 10.9739 0.134027 11.023 0.134027L11.0721 0.0958862Z" fill="#FBB924"/>
<path d="M15.9373 12.8729L15.5934 12.4153C15.5934 12.4153 15.2494 12.7585 15.2494 12.8348C16.0848 11.1185 17.5098 10.8134 17.6081 8.79193C17.7555 5.89326 14.8071 3.37599 11.0234 3.37599C6.65001 3.37599 3.5051 6.84677 4.73358 10.0506C5.12669 11.0803 6.20776 11.5762 6.69915 12.4915C7.04312 13.1781 7.09226 13.9409 7.28882 14.6274C7.28882 14.6274 7.09226 14.8944 6.94485 14.78C6.94485 14.513 6.89571 14.1316 6.79743 13.8646C6.79743 13.7883 6.79743 13.6739 6.74829 13.5976C6.74829 13.5595 6.74829 13.5213 6.69915 13.4832C6.60087 13.2544 6.79743 13.0636 6.30604 13.2925C6.30604 13.2162 6.45345 12.7585 6.45345 12.7204C6.45345 12.6822 6.40431 12.7204 6.30604 12.7204C6.2569 12.7204 6.15862 12.7204 6.15862 12.6822C6.15862 12.606 6.35518 12.5678 6.35518 12.4534C6.35518 12.1483 5.47067 11.538 5.22497 11.2711C1.53952 6.92305 7.68194 1.43083 13.8735 3.60483C17.215 4.74905 18.9348 8.21982 17.215 10.7752C16.9693 11.1566 15.7408 12.1101 15.6916 12.339C15.6916 12.5297 15.8391 12.6822 15.8882 12.8729H15.9373Z" fill="#413626"/>
<path d="M15.9365 12.873C15.9365 12.873 15.8382 13.0637 15.8874 13.1781L15.6908 13.3306C15.6908 13.3306 15.5434 13.2925 15.5434 13.2162C15.4942 13.2162 15.396 13.4832 15.396 13.5213C15.3468 13.6358 15.396 13.5976 15.396 13.6358C15.2485 13.979 15.1011 14.3604 15.052 14.7037C14.9046 14.78 14.9046 14.6274 14.708 14.5511C14.8063 14.5511 14.708 14.4749 14.7571 14.4367C14.9537 14.1316 14.9046 13.2925 15.1994 12.7967C15.1994 12.7204 15.4942 12.3771 15.5434 12.3771L15.8874 12.8348L15.9365 12.873Z" fill="#172931"/>
<path d="M6.30397 12.7204C6.30397 12.7204 6.01025 13.2925 6.30397 13.3306C6.25502 13.4451 6.20606 13.4451 6.15711 13.4832H6.01025C6.10816 13.2544 6.01025 12.9492 6.15711 12.6823C6.15711 12.7585 6.20606 12.7204 6.30397 12.7204Z" fill="#111F37"/>
<path d="M17.4128 8.75381C17.3636 11.2329 14.5136 11.5762 13.8256 13.4832C13.7273 13.7502 13.7273 14.0935 13.6291 14.3604C13.3834 14.3604 13.0885 14.3986 12.8428 14.513C12.6954 14.513 12.6463 14.513 12.4989 14.4749C12.7937 13.9409 12.7937 13.3688 13.0394 12.8348C14.0222 10.5464 15.5946 9.93616 14.6118 7.03749C14.0713 5.51188 12.7937 4.63465 11.3687 3.60486C14.7101 3.75742 17.5111 6.12212 17.4619 8.71567L17.4128 8.75381Z" fill="#F0A21B"/>
<path d="M12.5467 11.004C12.5467 11.004 12.3501 11.1185 12.3501 11.1947C12.301 11.6143 12.3501 12.2627 12.301 12.6822C12.301 12.8729 12.301 13.0636 12.301 13.2543C12.1044 13.2543 12.1536 13.1399 12.1044 13.3306C12.0553 13.712 12.1044 14.1697 11.957 14.5892C11.7113 14.6274 9.9423 14.6655 9.84402 14.513L9.45091 11.6906C9.45091 11.6906 9.35263 10.7371 9.45091 10.7371H12.4484C12.4484 10.7371 12.5467 10.9659 12.5467 11.0422V11.004Z" fill="#FCD238"/>
<path d="M10.9738 3.33783V3.64295C6.79695 3.64295 3.89773 7.11373 5.37191 10.165C5.86331 11.1947 7.19007 11.7287 7.87802 12.6441C8.27113 13.2162 8.51683 13.9027 8.46769 14.5511C8.22199 14.5511 7.43576 14.5511 7.28835 14.5892C7.09179 13.9027 7.04265 13.1018 6.69867 12.4534C6.20728 11.538 5.12622 11.0422 4.7331 10.0124C3.50462 6.8086 6.64953 3.33783 11.0229 3.33783H10.9738Z" fill="#FFE478"/>
<path d="M11.9581 14.5511H12.2038C12.2038 14.1316 12.2038 13.6739 12.2529 13.2544C12.2529 13.0637 12.2529 12.873 12.2529 12.6823H12.4004C12.4004 13.2925 12.3021 13.8646 12.3512 14.4749H12.4986C12.4986 14.4749 12.6952 14.5511 12.8426 14.5511C13.4323 14.5893 14.1202 14.5511 14.7591 14.5511C14.9065 14.6274 14.9556 14.78 15.103 14.7037C15.103 14.7037 15.2996 14.9707 15.2504 15.1233C15.2504 15.2758 14.8082 15.4284 14.8573 15.5428C14.8573 15.5428 15.2013 15.6954 15.2504 15.8479C15.3487 16.2675 14.8082 16.3819 14.8573 16.4963C14.8573 16.5726 15.3979 16.687 15.2504 17.1447C15.2013 17.2973 14.8082 17.4117 14.8573 17.488C14.8573 17.488 15.3979 17.7168 15.2996 18.0601C15.2996 18.2126 14.7099 18.4796 14.5625 18.6322C14.5134 18.7084 14.4642 18.861 14.3659 18.9754C14.2677 19.0517 14.2677 19.1661 14.2185 19.1661C13.0883 20.2341 12.4495 20.5392 10.5822 20.4248C9.15717 20.3485 8.66578 19.8908 7.73213 19.0899C7.83041 18.9373 7.73213 18.9754 7.68299 18.8992C7.4373 18.4415 6.01226 17.9838 7.33902 17.5642C6.15967 16.954 7.1916 16.7251 7.28988 16.5344C7.28988 16.42 6.74935 16.3056 6.84763 15.8861C6.89676 15.6572 7.33902 15.5428 7.38816 15.5428C7.38816 15.5428 6.99504 15.2758 6.9459 15.1995C6.89676 15.0851 6.99504 14.78 6.99504 14.78C7.14246 14.8944 7.28988 14.6274 7.33902 14.6274C7.48644 14.6274 8.22352 14.6274 8.51836 14.5893C8.8132 14.5893 9.35373 14.7418 9.64856 14.5893C9.64856 14.5893 9.74684 14.5893 9.79598 14.5893C9.79598 13.6358 9.64856 12.6823 9.59943 11.7288L9.99254 14.5511C9.99254 14.5511 11.8107 14.6656 12.1055 14.6274L11.9581 14.5511Z" fill="#1C334C"/>
<path d="M7.18976 17.221C7.7303 17.0303 11.17 17.2972 11.3175 17.221C11.3666 17.221 11.3175 16.9158 11.4649 16.8396L7.2389 16.7633C7.2389 16.7633 7.38632 16.687 7.38632 16.6488C9.00792 16.3437 11.8089 16.4963 13.4796 16.6107C13.8236 16.6107 14.8064 16.4581 14.9538 16.8396C15.1012 17.221 14.5115 17.3354 14.1184 17.3735C12.0546 17.5642 9.49931 17.221 7.38632 17.3735C7.28804 17.3354 7.2389 17.2591 7.14062 17.221H7.18976Z" fill="#C0D7DF"/>
<path d="M10.9748 18.6321C10.8765 19.0135 11.024 19.5094 10.9748 19.8526C10.9748 19.9289 10.8765 20.0433 10.9257 20.1578C9.2058 20.1578 8.51785 19.8526 7.78076 18.594C8.86183 18.594 9.89375 18.6321 10.9748 18.594V18.6321Z" fill="#1D94DF"/>
<path d="M7.33691 16.2674C8.41798 15.8097 9.89216 16.2674 11.1206 16.0004L7.87745 15.7716L14.6587 15.6572C15.1501 15.8097 15.0518 16.153 14.6587 16.3056C13.1354 16.0767 8.5654 16.6488 7.38605 16.2674H7.33691Z" fill="#C0D7DF"/>
<path d="M14.5615 18.327C14.5615 18.327 14.7089 18.1745 14.4632 18.1745C13.4804 18.0982 11.9079 18.1363 10.9743 18.1363C11.22 18.1363 11.4657 17.9075 11.1217 17.8312H7.09229C7.09229 17.8312 7.4854 17.6405 7.82938 17.6405C8.51733 17.5642 14.0209 17.4879 14.5123 17.6024C15.102 17.7168 15.102 18.2126 14.5123 18.3652L14.5615 18.327Z" fill="#C0D7DF"/>
<path d="M14.7584 15.2377C14.7584 15.2377 12.6454 15.3902 12.2031 15.3902C11.2203 15.3902 8.27198 15.5428 7.48575 15.3902C7.48575 15.3902 7.33834 15.3139 7.33834 15.2758L7.19092 15.047L9.94272 14.9325C9.94272 14.9325 9.94272 15.0088 9.7953 15.047C9.20563 15.1232 8.51768 14.9325 7.97715 15.1614C8.6651 15.0851 10.7781 15.3902 11.3186 15.1995C11.466 15.1614 11.3186 14.9707 11.3186 14.9707C11.5152 14.8181 13.6773 14.78 14.0704 14.78C14.611 14.78 14.9058 14.7418 14.7092 15.2377H14.7584Z" fill="#C0D7DF"/>
<path d="M10.9256 20.1577C10.9256 20.1577 10.9747 19.9289 10.9747 19.8526C11.6627 19.6619 12.3015 19.2042 12.2032 18.594C12.4981 18.594 13.9231 18.5177 14.0705 18.5558C14.0705 18.5558 14.1688 18.6703 14.2179 18.6703C13.6774 19.3568 12.9895 20.0815 11.9084 20.234C11.5644 20.234 11.2204 20.1959 10.8765 20.1959L10.9256 20.1577Z" fill="#1D94DF"/>
<path d="M14.6611 15.6572L7.87993 15.7716L11.1231 16.0005C9.89464 16.2674 8.42046 15.8479 7.33939 16.2674C7.04456 16.1912 7.04456 16.153 7.0937 15.886C7.24111 15.7335 7.48681 15.6572 7.73251 15.619C8.86271 15.4665 12.3025 15.5046 13.5309 15.5809C13.8749 15.5809 14.3663 15.5809 14.6611 15.6953V15.6572Z" fill="#FCFEFE"/>
<path d="M14.7586 15.2376C14.9552 14.7418 14.6603 14.78 14.1198 14.78C13.6775 14.78 11.5154 14.78 11.368 14.9707C11.368 14.9707 11.4663 15.1614 11.368 15.1995C10.8275 15.3521 8.71446 15.0851 8.02651 15.1614C8.61619 14.9707 9.30413 15.1614 9.84467 15.0469C9.94295 15.0469 10.0904 15.0469 9.99209 14.9325L7.24028 15.0469L7.3877 15.2758C7.09287 15.1232 6.99459 14.9325 7.3877 14.78C9.59897 14.8181 11.8594 14.6274 14.0706 14.6655C14.4638 14.6655 15.6431 14.78 14.906 15.2376H14.7586Z" fill="#FCFEFE"/>
<path d="M7.1893 17.2209C6.89446 17.0302 6.9436 16.9158 7.23844 16.7632L11.4644 16.8395C11.4644 16.8395 11.3661 17.1828 11.317 17.2209C11.1696 17.2972 7.68069 17.0302 7.1893 17.2209Z" fill="#FCFEFE"/>
<path d="M10.9746 18.1363C11.9083 18.1363 13.4807 18.1363 14.4635 18.1744C14.7092 18.1744 14.5618 18.1744 14.5618 18.327H7.33834C7.33834 18.327 7.19092 18.2507 7.19092 18.2126C8.46854 18.1744 9.74616 18.0981 10.9746 18.0981V18.1363Z" fill="#C0D7DF"/>
<path d="M10.9744 18.1363C9.6968 18.1363 8.41918 18.2126 7.1907 18.2507C7.09242 18.1744 7.04328 18.1744 6.99414 18.06C6.99414 17.9837 7.09242 17.9075 7.14156 17.8693H11.171C11.515 17.8693 11.2693 18.1363 11.0236 18.1363H10.9744Z" fill="#FCFEFE"/>
<path d="M12.2523 18.594C12.3506 19.2042 11.7118 19.6619 11.0239 19.8526C11.073 19.5094 10.9256 19.0135 11.0239 18.6321C11.417 18.6321 11.8592 18.594 12.2523 18.594Z" fill="#1D94DF"/>
<path d="M12.3001 13.2162C12.3001 13.6358 12.2022 14.0935 12.2511 14.513C12.2511 14.5511 12.0553 14.513 12.0063 14.513C12.1532 14.1316 12.0553 13.6739 12.1532 13.2544C12.1532 13.0637 12.1532 13.1781 12.349 13.1781L12.3001 13.2162Z" fill="#D1A327"/>
<path d="M13.627 14.3986C14.0202 14.3986 14.4133 14.3986 14.8064 14.4367C14.8064 14.4367 14.8064 14.5511 14.7573 14.5511C14.1184 14.5511 13.4796 14.5893 12.8408 14.5511C13.0865 14.4367 13.3814 14.3986 13.627 14.3986Z" fill="#AA7C07"/>
<path d="M12.546 11.004C12.546 11.004 12.4971 11.538 12.4971 11.7668C12.4971 12.072 12.4481 12.3771 12.4481 12.6822H12.3013C12.3013 12.2245 12.3013 11.6143 12.3502 11.1947C12.3502 11.1184 12.3992 11.004 12.546 11.004Z" fill="#515C56"/>
<path d="M17.6087 8.75378C17.5104 10.7752 16.0854 11.1185 15.25 12.7967C14.9552 13.2543 15.0043 14.0934 14.8078 14.4367C14.4146 14.3986 14.0215 14.3604 13.6284 14.3986C13.7267 14.1316 13.7267 13.7883 13.825 13.5213C14.5621 11.5762 17.363 11.271 17.4121 8.79192H17.6087V8.75378Z" fill="#F3C95E"/>
<path d="M17.6093 8.75376H17.4127C17.4618 6.16022 14.71 3.75737 11.3194 3.64295C11.2211 3.64295 11.1229 3.64295 11.0737 3.64295V3.33783C14.8083 3.33783 17.7567 5.85509 17.6093 8.75376Z" fill="#FBE287"/>
<path d="M6.3054 13.2912C6.3054 13.2912 6.3054 13.2912 6.3054 13.3293C6.01229 13.3293 6.25654 12.9106 6.3054 12.7203C6.35425 12.7203 6.4031 12.6442 6.45195 12.7203C6.45195 12.7584 6.35425 13.2151 6.3054 13.2912Z" fill="#7AB9E1"/>
<path d="M12.6941 10.2794V10.5464C12.9398 10.5464 13.2346 10.5464 13.4803 10.5464V10.6608C13.4803 10.6608 12.8907 10.6608 12.645 10.699C12.645 10.699 12.4976 10.6227 12.4976 10.5464C12.4976 10.5464 12.4976 10.4701 12.4976 10.432C12.4976 10.3176 12.6941 10.2794 12.6941 10.2794Z" fill="#D1DEF1"/>
<path d="M11.0723 3.64294C11.0723 3.64294 11.2688 3.64294 11.318 3.64294C12.743 4.67273 14.0698 5.51182 14.5612 7.07558C15.5439 9.93611 13.9715 10.5845 12.9887 12.8729C12.743 13.4069 12.7921 14.0171 12.4482 14.513H12.3008C12.3008 13.9027 12.3008 13.2925 12.3499 12.6822C12.3499 12.3771 12.399 12.072 12.399 11.7668C12.4973 11.4236 12.5464 11.0422 12.5464 10.6989C12.7921 10.6226 13.1853 10.6989 13.3818 10.6608C13.5784 10.6226 14.0698 10.4319 14.168 10.2412C14.3155 9.93611 14.2172 9.24958 13.7258 9.1733C12.8413 9.02074 12.399 9.89797 12.399 10.4319C12.399 10.4319 12.399 10.5082 12.399 10.5464H9.3524C9.15584 10.2031 9.05756 9.47842 8.61531 9.28772C7.68166 8.83004 7.19027 9.78355 7.58338 10.3938C7.92736 10.8515 8.95928 10.6226 9.15584 10.8133C9.40153 11.0803 9.3524 14.0553 9.40153 14.5892C9.1067 14.7418 8.61531 14.5892 8.27133 14.5892C8.27133 13.9408 8.07477 13.2543 7.68166 12.6822C7.04285 11.7287 5.71609 11.2329 5.17556 10.2031C3.70138 7.19 6.60059 3.68108 10.8757 3.68108L11.0723 3.64294Z" fill="#FACE2A"/>
<path d="M8.86131 4.44391C11.4657 4.17692 8.81217 6.80861 7.82939 7.19001C6.01123 7.91468 5.96209 6.65605 6.69918 5.70254C7.0923 5.20671 8.12422 4.52019 8.91045 4.44391H8.86131Z" fill="#FCFEFE"/>
<path d="M6.05967 7.80027C7.48471 7.53328 7.43557 8.63936 6.79676 9.28774C5.71569 10.432 5.17516 7.95283 6.05967 7.80027Z" fill="#FCFEFE"/>
<path d="M14.2658 10.2413C14.2658 9.85987 14.2658 10.1269 14.0201 10.2794C14.5115 9.55475 13.627 8.86822 12.9882 9.70731C12.8407 9.89801 12.8407 10.1269 12.7425 10.2794C12.7425 10.2794 12.595 10.2794 12.5459 10.432C12.5459 9.85987 12.9882 8.98264 13.8727 9.17334C14.3641 9.24962 14.4623 9.93615 14.3149 10.2413H14.2658Z" fill="#FCFEFE"/>
<path d="M14.2641 10.2408C14.2641 10.2408 13.7247 10.6215 13.4795 10.6595V10.5453C13.8228 10.5073 13.8228 10.4312 14.0189 10.2789C14.2641 10.1267 14.2641 9.86023 14.2641 10.2408Z" fill="#567279"/>
<path d="M15.8878 13.178C15.8878 13.178 15.8878 13.3687 15.8878 13.4069C15.937 13.5594 17.5586 14.513 17.8043 14.8944C18.1483 15.4665 17.9517 18.3651 17.8534 19.1661C17.7551 20.234 17.6077 21.3401 17.4603 22.408L17.2146 22.4843C17.2146 22.4843 16.7232 21.3401 16.5758 21.1494C16.0844 20.2722 15.1999 19.6619 14.168 19.2042C14.168 19.2042 14.2171 19.0898 14.3154 19.0135C14.9051 19.5093 15.6913 19.7763 16.2318 20.3484C16.6249 20.768 16.7724 21.3019 17.1655 21.7215C16.9689 21.7215 17.1655 22.0647 17.2637 22.2173C17.5586 22.2173 17.6077 19.5093 17.6077 19.2424C17.7551 18.9372 17.8043 18.4414 17.8043 18.0981C17.8043 17.4498 17.9026 16.0004 17.7551 15.4283C17.8534 15.4283 17.8043 15.2376 17.7551 15.1613C17.706 15.0469 15.937 13.5594 15.6913 13.3687L15.8878 13.2162V13.178Z" fill="#291511"/>
<path d="M6.15826 13.4832C5.71601 14.0934 4.29097 14.6274 4.14355 15.3521C4.04527 15.7716 4.14355 16.4582 4.19269 16.9158C4.19269 18.4796 4.34011 20.1959 4.63494 21.7215C4.63494 21.9122 4.63494 22.1029 4.68408 22.2936C5.02806 22.2174 4.88064 21.7978 4.92978 21.569C5.42117 20.3103 6.40396 19.7382 7.5833 18.8991C7.5833 18.9754 7.73072 18.9373 7.63244 19.0898C7.53416 19.2805 6.35482 19.8526 6.05998 20.1196C5.81429 20.3485 5.47031 20.768 5.32289 21.035C5.17548 21.302 4.97892 22.5988 4.48753 22.4462C4.19269 21.1494 3.99613 19.7001 3.94699 18.3652C3.94699 17.7168 3.75044 15.4284 3.99613 14.9707C4.24183 14.5893 5.76515 13.712 5.91257 13.4069H6.05998L6.15826 13.4832Z" fill="#3E1C1F"/>
<path d="M15.9378 14.0171C15.5939 14.0934 16.0361 14.2841 16.0852 14.3985C16.3801 15.9623 15.6921 18.327 16.1344 19.8908C16.2818 20.3484 17.068 21.0731 17.2154 21.6071L17.3137 15.1232C17.3137 15.1232 17.4611 15.2376 17.5594 15.2758C17.756 16.5725 17.6086 17.8693 17.5594 19.1661C17.5594 19.4331 17.5103 22.1792 17.2154 22.141C17.1172 22.0266 16.9206 21.6834 17.1172 21.6452C16.7241 21.2257 16.5766 20.6917 16.1835 20.2722C15.643 19.7001 14.8568 19.4331 14.2671 18.9372C14.3654 18.861 14.4145 18.6703 14.4636 18.594C14.6111 18.4414 15.1516 18.2126 15.2007 18.0219C15.299 17.6786 14.7585 17.4879 14.7585 17.4498C14.7585 17.3354 15.1025 17.2591 15.1516 17.1065C15.299 16.6488 14.7585 16.4963 14.7585 16.4581C14.7585 16.3437 15.2499 16.2293 15.1516 15.8097C15.1516 15.6572 14.7585 15.5428 14.7585 15.5046C14.7585 15.3902 15.1025 15.2376 15.1516 15.0851C15.1516 14.9325 15.0042 14.6655 15.0042 14.6655C15.0533 14.3223 15.2007 13.9409 15.3482 13.5976C15.5939 13.712 15.7413 13.8646 15.9378 14.0171Z" fill="#C90510"/>
<path d="M6.944 14.7418C6.944 14.7418 6.84572 15.0469 6.89486 15.1613C6.89486 15.2758 7.38625 15.4665 7.33712 15.5046C7.33712 15.5046 6.84572 15.6572 6.79658 15.8479C6.6983 16.2674 7.28798 16.3818 7.23884 16.4962C7.1897 16.6488 6.10863 16.9158 7.28798 17.526C5.96122 17.9837 7.38626 18.4033 7.63195 18.861C6.45261 19.6619 5.46982 20.2721 4.97843 21.5308C4.88015 21.7596 5.02757 22.141 4.73273 22.2554C4.73273 22.0647 4.73273 21.874 4.68359 21.6833C4.78187 21.6833 4.78187 21.6833 4.83101 21.6452C5.02757 21.4545 5.96122 19.2424 6.01035 18.9372C6.25605 17.526 6.01035 15.8479 6.01035 14.4367L6.84572 13.8646C6.89486 14.1315 6.944 14.5129 6.99314 14.7799L6.944 14.7418Z" fill="#E23C3F"/>
<path d="M6.79636 13.8264L5.96099 14.3985C5.96099 15.8479 6.20669 17.4879 5.96099 18.8991C5.91186 19.2042 4.97821 21.4164 4.78165 21.6071C4.73251 21.1112 4.68337 20.6154 4.63423 20.1196C4.63423 19.2042 4.43768 15.9241 4.63423 15.2376C4.68337 15.0088 6.40325 13.8264 6.74722 13.5213C6.74722 13.5976 6.74722 13.712 6.79636 13.7883V13.8264Z" fill="#F43D40"/>
<path d="M6.69933 13.4832C6.69933 13.4832 6.74847 13.5595 6.74847 13.5976C6.45363 13.8646 4.73376 15.0851 4.63548 15.314C4.43892 16.0005 4.63548 19.2424 4.63548 20.1959C4.63548 20.6917 4.68462 21.1876 4.7829 21.6834C4.7829 21.7215 4.78289 21.7597 4.63548 21.7215C4.34064 20.1959 4.19322 18.4415 4.19322 16.9158C4.19322 16.5344 4.09495 15.5047 4.24236 15.1995C4.38978 14.9326 6.20793 13.6739 6.65019 13.4832H6.69933Z" fill="#FBDEE1"/>
<path d="M6.69903 13.4832C6.25678 13.6739 4.38949 14.9325 4.29121 15.1995C4.14379 15.4665 4.24207 16.5344 4.24207 16.9158C4.19293 16.4963 4.09465 15.7716 4.19293 15.3521C4.34035 14.6274 5.76539 14.0934 6.20764 13.4832C6.20764 13.4451 6.25678 13.4832 6.35506 13.3306C6.35506 13.3306 6.35506 13.3306 6.35506 13.2925C6.84645 13.1018 6.64989 13.2925 6.74817 13.4832H6.69903Z" fill="#C90510"/>
<path d="M15.6913 13.3306C15.6913 13.3306 17.706 15.0088 17.7552 15.1232C17.7552 15.1995 17.8534 15.3521 17.7552 15.3902C17.6569 15.1614 17.6569 15.2376 17.6078 15.2376C17.2638 14.6655 16.0353 13.979 15.3965 13.5595C15.3965 13.5213 15.4948 13.2543 15.5439 13.2543C15.5439 13.2925 15.6913 13.3306 15.6913 13.3688V13.3306Z" fill="#C90510"/>
<path d="M17.7054 15.3521C17.9013 15.9242 17.8034 17.3735 17.7544 18.0219C17.7544 18.3652 17.7544 18.861 17.5586 19.1661C17.6075 17.8693 17.7544 16.5344 17.5586 15.2758C17.5586 15.2758 17.6075 15.1614 17.7054 15.3902V15.3521Z" fill="#CF3439"/>
<path d="M17.6086 15.1995C17.6086 15.1995 17.412 15.1614 17.3629 15.0851C16.8715 14.78 16.4293 14.3604 15.987 14.0172C15.7904 13.8646 15.643 13.7121 15.3973 13.5976C15.3973 13.5595 15.3482 13.5976 15.3973 13.4832C16.0361 13.8646 17.2646 14.5893 17.6086 15.1614V15.1995Z" fill="#E5C0BD"/>
<path d="M15.9357 14.0171C16.3779 14.3604 16.8202 14.78 17.3116 15.0851L17.2133 21.5689C17.0659 21.035 16.2797 20.3484 16.1322 19.8526C15.69 18.327 16.3779 15.9623 16.0831 14.3604C16.0831 14.246 15.5917 14.0553 15.9357 13.979V14.0171Z" fill="#CF3439"/>
<path d="M12.4968 10.5464L12.6442 10.6989C12.6442 11.0422 12.6442 11.4236 12.4968 11.7669C12.4968 11.538 12.546 11.1566 12.546 11.004C12.546 10.9278 12.4477 10.8133 12.4477 10.6989H9.45019C9.45019 10.6989 9.45019 11.538 9.45019 11.6524C9.49933 12.6059 9.69589 13.5595 9.64675 14.513C9.64675 14.5511 9.54847 14.513 9.49933 14.513C9.40106 13.979 9.49933 11.004 9.25364 10.7371C9.05708 10.5464 8.02516 10.8133 7.68118 10.3175C7.23893 9.70728 7.77946 8.79191 8.71311 9.21145C9.10622 9.40215 9.25364 10.165 9.45019 10.4701H12.4968V10.5464Z" fill="#F7EEDE"/>
<path d="M8.17354 9.28777C8.95977 9.17335 9.40202 10.5083 9.15632 10.5464C8.86149 10.432 8.46837 10.5464 8.17354 10.432C7.63301 10.2413 7.58387 9.36405 8.17354 9.24963V9.28777Z" fill="#FCD238"/>
<path d="M13.9729 10.2794C13.9729 10.2794 13.8255 10.4701 13.4324 10.5464C13.1867 10.5464 12.8919 10.5464 12.6953 10.5464V10.2794C12.6953 10.2794 12.7936 9.85985 12.941 9.70729C13.5798 8.8682 14.4643 9.55473 13.9729 10.2794Z" fill="#FCD238"/>
</svg>
