<svg width="130" height="100" viewBox="0 0 72 36" fill="none" xmlns="http://www.w3.org/2000/svg">
<path d="M49.0374 33.7536C49.0374 34.3736 48.7861 34.9349 48.3799 35.3411C48.2913 35.4297 48.195 35.5115 48.092 35.5837C47.7262 35.8446 47.2766 35.9987 46.7923 35.9987H26.4594C25.9762 35.9987 25.5266 35.8456 25.1607 35.5837C24.5869 35.1775 24.2144 34.5093 24.2144 33.7526H49.0384L49.0374 33.7536Z" fill="#E5E5E5"/>
<path d="M49.0374 33.7536C49.0374 34.3736 48.7861 34.9349 48.3799 35.3411C48.2913 35.4297 48.195 35.5115 48.092 35.5837C47.7262 35.8446 47.2766 35.9987 46.7923 35.9987H26.4594C25.9762 35.9987 25.5266 35.8456 25.1607 35.5837C24.5869 35.1775 24.2144 34.5093 24.2144 33.7526H49.0384L49.0374 33.7536Z" fill="#E5E5E5"/>
<path d="M48.0909 35.5836C47.7251 35.8445 47.2755 35.9986 46.7913 35.9986H26.4584C25.9751 35.9986 25.5255 35.8455 25.1597 35.5836H48.0909Z" fill="#B7C6D4"/>
<path d="M39.2619 34.0789H33.989C33.8089 34.0789 33.6636 33.9325 33.6636 33.7535H39.5882C39.5882 33.9335 39.4419 34.0789 39.2628 34.0789H39.2619Z" fill="#C2C2C2"/>
<path d="M26.751 20.5352H46.4995C46.8923 20.5352 47.21 20.8539 47.21 21.2457V33.7525H26.0396V21.2457C26.0396 20.8529 26.3582 20.5352 26.75 20.5352H26.751Z" fill="#3C4073"/>
<path d="M46.4634 21.3853H26.7881V32.9034H46.4634V21.3853Z" fill="#F2FFFF"/>
<path d="M25.88 34.2811C25.7154 34.2811 25.5825 34.4139 25.5825 34.5786C25.5825 34.7432 25.7154 34.876 25.88 34.876C26.0446 34.876 26.1775 34.7432 26.1775 34.5786C26.1775 34.4139 26.0446 34.2811 25.88 34.2811Z" fill="white"/>
<path d="M26.7877 34.2811C26.6231 34.2811 26.4902 34.4139 26.4902 34.5786C26.4902 34.7432 26.6231 34.876 26.7877 34.876C26.9523 34.876 27.0852 34.7432 27.0852 34.5786C27.0852 34.4139 26.9523 34.2811 26.7877 34.2811Z" fill="white"/>
<path d="M29.3146 34.876H27.9552C27.7906 34.876 27.6577 34.7432 27.6577 34.5786C27.6577 34.4139 27.7906 34.2811 27.9552 34.2811H29.3146C29.4792 34.2811 29.6121 34.4139 29.6121 34.5786C29.6121 34.7432 29.4792 34.876 29.3146 34.876Z" fill="white"/>
<path d="M44.865 26.3376V27.1348L42.4851 27.5815L42.0114 27.6701L40.1168 28.0253H39.0684V26.3376H44.865Z" fill="#C5D9E8"/>
<path d="M28.3867 26.3376V27.1348L30.7666 27.5815L31.2393 27.6701L33.1349 28.0253H34.1833V26.3376H28.3867Z" fill="#C5D9E8"/>
<path d="M39.2632 15.8197L39.165 14.1792C39.138 13.7287 38.8348 13.3792 38.4709 13.3792H34.7817C34.4168 13.3792 34.1145 13.7277 34.0875 14.1792L33.9894 15.8197C33.3241 21.934 28.3882 21.1484 28.3882 26.3385H44.8653C44.8653 21.1484 39.9294 21.935 39.2642 15.8197H39.2632Z" fill="#FE5E54"/>
<path d="M39.2631 15.8197L39.1649 14.1792C39.1379 13.7287 38.8347 13.3792 38.4707 13.3792H38.0317C38.3966 13.3792 38.6989 13.7277 38.7259 14.1792L38.8241 15.8197C39.4893 21.934 44.4252 21.1484 44.4252 26.3385H44.8642C44.8642 21.1484 39.9283 21.935 39.2631 15.8197Z" fill="#DB3B31"/>
<path d="M34.4269 15.8197L34.5251 14.1792C34.552 13.7287 34.8553 13.3792 35.2192 13.3792H34.7802C34.4153 13.3792 34.113 13.7277 34.0861 14.1792L33.9879 15.8197C33.3226 21.934 28.3867 21.1484 28.3867 26.3385H28.8257C28.8257 21.1484 33.7616 21.935 34.4269 15.8197Z" fill="#FFA99F"/>
<path d="M39.4097 26.6139H33.8403L34.5768 12.6765L34.7164 10.08L34.8926 6.82692C34.9196 6.56313 35.0091 6.11546 35.14 5.61676C35.1785 5.46754 35.2218 5.31447 35.2681 5.16139C35.4057 4.71083 35.5742 4.24968 35.7639 3.87037C36.018 3.36205 36.3117 3.00006 36.6245 3.00006C36.9374 3.00006 37.2311 3.36205 37.4852 3.87037C37.6749 4.25065 37.8434 4.71083 37.981 5.16139C38.0272 5.31447 38.0715 5.46754 38.1091 5.61676C38.2419 6.11546 38.3286 6.56409 38.3575 6.82692L38.5336 10.08L38.6732 12.6765L39.4088 26.6139H39.4097Z" fill="#E5E5E5"/>
<path d="M39.4097 26.6139H33.8403L34.5768 12.6765L34.7164 10.08L34.8926 6.82692C34.9196 6.56313 35.0091 6.11546 35.14 5.61676C35.1785 5.46754 35.2218 5.31447 35.2681 5.16139C35.4057 4.71083 35.5742 4.24968 35.7639 3.87037C36.018 3.36205 36.3117 3.00006 36.6245 3.00006C36.9374 3.00006 37.2311 3.36205 37.4852 3.87037C37.6749 4.25065 37.8434 4.71083 37.981 5.16139C38.0272 5.31447 38.0715 5.46754 38.1091 5.61676C38.2419 6.11546 38.3286 6.56409 38.3575 6.82692L38.5336 10.08L38.6732 12.6765L39.4088 26.6139H39.4097Z" fill="#E5E5E5"/>
<path d="M38.6759 12.6765L38.5363 10.08L38.3601 6.82692C38.3313 6.56313 38.2436 6.11546 38.1117 5.61676C38.0732 5.46754 38.0299 5.31447 37.9837 5.16139C37.846 4.71083 37.6776 4.24968 37.4879 3.87037C37.2337 3.36205 36.9401 3.00006 36.6272 3.00006C36.5531 3.00006 36.4799 3.02124 36.4077 3.05879C36.6388 3.18105 36.8554 3.48239 37.0489 3.87037C37.2386 4.25065 37.407 4.71083 37.5447 5.16139C37.5909 5.31447 37.6352 5.46754 37.6727 5.61676C37.8056 6.11546 37.8922 6.56409 37.9211 6.82692L38.0973 10.08L38.2369 12.6765L38.9724 26.6139H39.4105L38.6749 12.6765H38.6759Z" fill="#C2C2C2"/>
<path d="M35.1554 10.0809L35.3316 6.82783C35.3586 6.56404 35.4481 6.11637 35.579 5.61768C35.6175 5.46846 35.6609 5.31538 35.7071 5.16231C35.8447 4.71175 36.0132 4.2506 36.2029 3.87129C36.3964 3.48427 36.613 3.18197 36.8441 3.0597C36.7718 3.02216 36.6987 3.00098 36.6245 3.00098C36.3117 3.00098 36.018 3.36296 35.7639 3.87129C35.5742 4.25156 35.4057 4.71175 35.2681 5.16231C35.2218 5.31538 35.1776 5.46846 35.14 5.61768C35.0091 6.11637 34.9205 6.56501 34.8926 6.82783L34.7164 10.0809L34.5768 12.6774L33.8403 26.6148H34.2793L35.0158 12.6774L35.1554 10.0809Z" fill="white"/>
<path d="M39.1597 26.6139H44.8648L44.8783 26.0219H39.1597V26.6139Z" fill="#0B6F91"/>
<path d="M34.0921 26.6139H28.387L28.3726 26.0219H34.0921V26.6139Z" fill="#0B6F91"/>
<path d="M33.8418 28.7088H36.187V25.1486H35.3571C34.5205 25.1486 33.8418 25.8273 33.8418 26.664V28.7088Z" fill="#9FB8CE"/>
<path d="M35.6854 25.1486H35.3571C34.5205 25.1486 33.8418 25.8273 33.8418 26.664V28.7088H34.1701V26.664C34.1701 25.8273 34.8488 25.1486 35.6854 25.1486Z" fill="#C5D9E8"/>
<path d="M39.0693 28.7088H37.0649V29.1189H39.0693V28.7088Z" fill="#1A55A9"/>
<path d="M34.1821 29.1188H36.1865V28.7087H34.1821V29.1188Z" fill="#1A55A9"/>
<path d="M36.8676 25.1486H36.3833V29.118H36.8676V25.1486Z" fill="#1A55A9"/>
<path d="M39.4102 28.7088H37.0649V25.1486H37.8948C38.7314 25.1486 39.4102 25.8273 39.4102 26.664V28.7088Z" fill="#9FB8CE"/>
<path d="M37.8947 25.1486H37.5654C38.402 25.1486 39.0808 25.8273 39.0808 26.664V28.7088H39.41V26.664C39.41 25.8273 38.7313 25.1486 37.8947 25.1486Z" fill="#4E6D84"/>
<path d="M42.4849 26.614V27.5815L42.0112 27.6701V26.614H42.4849Z" fill="#1A55A9"/>
<path d="M30.7671 26.614V27.5815L31.2398 27.6701V26.614H30.7671Z" fill="#1A55A9"/>
<path d="M37.4865 3.87037H35.7651C36.0193 3.36205 36.3129 3.00006 36.6258 3.00006C36.9387 3.00006 37.2323 3.36205 37.4865 3.87037Z" fill="#022A44"/>
<path d="M38.1107 5.61669H35.1406C35.1791 5.46746 35.2225 5.31439 35.2687 5.16132H37.9826C38.0288 5.31439 38.0731 5.46746 38.1107 5.61669Z" fill="#0B6F91"/>
<path d="M37.7025 7.23409C37.6178 7.23409 37.5379 7.18114 37.509 7.09642C37.3761 6.71325 37.0151 6.4562 36.6098 6.4562C36.2045 6.4562 35.8435 6.71325 35.7106 7.09642C35.6731 7.20328 35.5566 7.26009 35.4497 7.22254C35.3428 7.18499 35.286 7.0685 35.3236 6.96164C35.5133 6.41384 36.0302 6.04608 36.6108 6.04608C37.1913 6.04608 37.7073 6.41384 37.8979 6.96164C37.9355 7.0685 37.8787 7.18499 37.7718 7.22254C37.7497 7.23024 37.7266 7.23409 37.7044 7.23409H37.7025Z" fill="#0B6F91"/>
<path d="M38.675 12.6765H34.5767L34.7163 10.0809H38.5354L38.675 12.6765Z" fill="#FE5E54"/>
<path d="M38.5362 10.0809H38.0972L38.2358 12.6765H38.6758L38.5362 10.0809Z" fill="#DB3B31"/>
<path d="M34.7163 10.0809L34.5767 12.6765H35.0157L35.1543 10.0809H34.7163Z" fill="#FFA99F"/>
<path d="M34.712 31.0367C34.8208 31.0367 34.9258 31.0521 35.0259 31.0771C35.1385 30.2742 35.8259 29.6552 36.6606 29.6552C37.3268 29.6552 37.8996 30.0499 38.1605 30.6179C38.3213 30.5158 38.5052 30.4456 38.7035 30.4138C38.7035 30.408 38.7035 30.4032 38.7035 30.3974C38.7035 29.4116 39.5411 28.6125 40.5751 28.6125C40.8157 28.6125 41.0458 28.6578 41.2576 28.7367C41.5811 28.4826 41.9951 28.3304 42.4466 28.3304C43.0348 28.3304 43.5595 28.5904 43.9023 28.9957C44.0159 28.9707 44.1333 28.9572 44.2537 28.9572C45.1596 28.9572 45.8951 29.6869 45.9057 30.5909C46.3909 30.7642 46.7375 31.209 46.7375 31.7327C46.7375 32.4066 46.1656 32.9525 45.459 32.9525C44.9516 32.9525 44.5136 32.6695 44.3076 32.2603C44.2893 32.2603 44.2719 32.2632 44.2527 32.2632C44.1911 32.2632 44.1295 32.2593 44.0698 32.2526H40.2304C40.0176 32.734 39.5189 33.0709 38.9375 33.0709C38.4657 33.0709 38.0498 32.8485 37.7957 32.5077C37.4991 32.7879 37.1006 32.9612 36.6606 32.9612C36.3891 32.9612 36.134 32.8947 35.9077 32.7783C35.7229 33.2596 35.2579 33.6014 34.7111 33.6014C34.0025 33.6014 33.4287 33.0276 33.4287 32.319C33.4287 31.6105 34.0025 31.0367 34.7111 31.0367H34.712Z" fill="#34ABD1"/>
<path d="M28.1919 29.7284C28.3045 29.7284 28.4143 29.7399 28.5211 29.7611C28.8311 29.3385 29.3289 29.0622 29.893 29.0622C30.1684 29.0622 30.4273 29.1296 30.6574 29.2451C30.978 28.6983 31.5701 28.3295 32.2498 28.3295C33.2568 28.3295 34.0732 29.1363 34.0934 30.1385C34.2369 30.0904 34.389 30.0634 34.5488 30.0634C34.6017 30.0634 34.6547 30.0673 34.7057 30.0721C34.931 29.4819 35.5009 29.0622 36.17 29.0622C36.7034 29.0622 37.1742 29.3288 37.4572 29.7351C37.6238 29.6571 37.8086 29.6119 38.005 29.6119C38.7193 29.6119 39.2989 30.1915 39.2989 30.9058V32.5973H35.4566C35.2102 32.8005 34.8935 32.9227 34.5488 32.9227C34.2041 32.9227 33.8874 32.8005 33.64 32.5973H29.4251C29.1151 32.9246 28.679 33.1297 28.1928 33.1297C27.2532 33.1297 26.4917 32.3682 26.4917 31.4286C26.4917 30.4889 27.2532 29.7274 28.1928 29.7274L28.1919 29.7284Z" fill="#40D0FF"/>
<path d="M37.0649 29.1188V32.8119H40.0831L39.0684 29.1188H37.0649Z" fill="#FFDE31"/>
<path d="M38.6477 29.1188H38.1865L38.8383 32.8119H39.2994L38.6477 29.1188Z" fill="#FFFFA6"/>
<path d="M37.7305 32.8119H38.0867L37.8469 29.1188H37.4917L37.7305 32.8119Z" fill="#FFFFA6"/>
<path d="M36.1866 29.1188V32.8119H33.1675L34.1822 29.1188H36.1866Z" fill="#FFDE31"/>
<path d="M34.6044 29.1188H35.0655L34.4128 32.8119H33.9517L34.6044 29.1188Z" fill="#FFFFA6"/>
<path d="M35.5208 32.8119H35.1655L35.4043 29.1188H35.7605L35.5208 32.8119Z" fill="#FFFFA6"/>
<path d="M46.4391 30.8836C46.3264 30.8836 46.2167 30.8952 46.1098 30.9164C45.7998 30.4937 45.3021 30.2174 44.7379 30.2174C44.4626 30.2174 44.2036 30.2848 43.9735 30.4004C43.6529 29.8535 43.0608 29.4848 42.3811 29.4848C41.3741 29.4848 40.5577 30.2916 40.5375 31.2938C40.3941 31.2456 40.242 31.2187 40.0821 31.2187C40.0292 31.2187 39.9762 31.2225 39.9252 31.2273C39.6999 30.6372 39.13 30.2174 38.4609 30.2174C37.9276 30.2174 37.4568 30.4841 37.1737 30.8904C37.0072 30.8124 36.8223 30.7672 36.6259 30.7672C35.9116 30.7672 35.332 31.3467 35.332 32.0611V33.7526H39.1743C39.4207 33.9557 39.7375 34.078 40.0821 34.078C40.4268 34.078 40.7435 33.9557 40.991 33.7526H45.2058C45.5158 34.0799 45.9519 34.285 46.4381 34.285C47.3777 34.285 48.1392 33.5235 48.1392 32.5838C48.1392 31.6442 47.3777 30.8827 46.4381 30.8827L46.4391 30.8836Z" fill="#75DDFF"/>
<path d="M36.6261 32.528C36.5173 32.528 36.4123 32.5434 36.3122 32.5684C36.1996 31.7655 35.5122 31.1464 34.6775 31.1464C34.0113 31.1464 33.4385 31.5412 33.1776 32.1092C33.0168 32.0071 32.8329 31.9368 32.6346 31.9051C32.6346 31.8993 32.6346 31.8945 32.6346 31.8887C32.6346 30.9029 31.797 30.1038 30.763 30.1038C30.5223 30.1038 30.2923 30.149 30.0805 30.228C29.757 29.9738 29.343 29.8217 28.8915 29.8217C28.3032 29.8217 27.7786 30.0817 27.4358 30.487C27.3222 30.4619 27.2048 30.4485 27.0844 30.4485C26.1785 30.4485 25.443 31.1782 25.4324 32.0822C24.9472 32.2555 24.6006 32.7003 24.6006 33.224C24.6006 33.8979 25.1724 34.4438 25.8791 34.4438C26.3855 34.4438 26.8216 34.1617 27.0286 33.7545H31.1125C31.3272 34.2301 31.823 34.5622 32.3997 34.5622C32.8714 34.5622 33.2873 34.3398 33.5415 33.999C33.838 34.2792 34.2366 34.4525 34.6765 34.4525C34.948 34.4525 35.2031 34.386 35.4294 34.2695C35.6142 34.7509 36.0792 35.0927 36.6261 35.0927C37.3346 35.0927 37.9084 34.5189 37.9084 33.8103C37.9084 33.1017 37.3346 32.528 36.6261 32.528Z" fill="#96F1FF"/>
<path d="M53.469 18.3229H50.8687V20.5275H53.469V18.3229Z" fill="#F89000"/>
<path d="M53.6251 18.3229H50.7119V18.76H53.6251V18.3229Z" fill="#FEAE02"/>
<path d="M56.361 10.7018C56.361 8.23241 54.4836 6.2309 52.1683 6.2309C49.8529 6.2309 47.9756 8.23241 47.9756 10.7018C47.9756 11.963 48.4666 13.1019 49.2541 13.9154H49.2531C50.4931 15.2372 50.8522 16.4926 50.8522 16.4926H53.4843C53.4843 16.4926 53.8434 15.2372 55.0834 13.9154H55.0825C55.8709 13.1029 56.361 11.964 56.361 10.7018Z" fill="#02D8FA"/>
<path d="M56.361 10.7018C56.361 8.23241 54.4836 6.2309 52.1683 6.2309C49.8529 6.2309 47.9756 8.23241 47.9756 10.7018C47.9756 11.963 48.4666 13.1019 49.2541 13.9154H49.2531C50.4931 15.2372 50.8522 16.4926 50.8522 16.4926H53.4843C53.4843 16.4926 53.8434 15.2372 55.0834 13.9154H55.0825C55.8709 13.1029 56.361 11.964 56.361 10.7018Z" fill="#FE5E54"/>
<path d="M55.2703 10.7018C55.2703 8.23241 53.882 6.2309 52.1693 6.2309C50.4566 6.2309 49.0684 8.23241 49.0684 10.7018C49.0684 11.963 49.4313 13.1019 50.0147 13.9154C50.9322 15.2372 51.1979 16.4926 51.1979 16.4926H53.1455C53.1455 16.4926 53.4112 15.2372 54.3287 13.9154C54.9121 13.1029 55.2751 11.964 55.2751 10.7018H55.2703Z" fill="#F84E45"/>
<path d="M53.6251 10.7018C53.6251 8.23241 52.9734 6.2309 52.1685 6.2309C51.3637 6.2309 50.7119 8.23241 50.7119 10.7018C50.7119 11.963 50.8823 13.1019 51.1557 13.9154C51.5861 15.2372 51.7112 16.4926 51.7112 16.4926H52.6258C52.6258 16.4926 52.751 15.2372 53.1813 13.9154C53.4547 13.1029 53.6251 11.964 53.6251 10.7018Z" fill="#FE5E54"/>
<path d="M53.4869 16.4927H53.3906V18.3219H53.4869V16.4927Z" fill="#F84E45"/>
<path d="M50.9478 16.4927H50.8516V18.3219H50.9478V16.4927Z" fill="#F84E45"/>
<path d="M52.6803 16.4927H52.584V18.3219H52.6803V16.4927Z" fill="#F84E45"/>
<path d="M51.7525 16.4927H51.6562V18.3219H51.7525V16.4927Z" fill="#F84E45"/>
<path d="M26.8587 11.0811C26.7479 11.0811 26.6401 11.0927 26.5342 11.111C26.1087 10.3629 25.3058 9.85846 24.3844 9.85846C23.3909 9.85846 22.536 10.4457 22.1422 11.291C21.9478 11.2198 21.7379 11.1784 21.5194 11.1784C20.5171 11.1784 19.7056 11.9909 19.7056 12.9921C19.7056 13.9934 20.5181 14.8059 21.5194 14.8059H26.8587C27.8878 14.8059 28.7215 13.9722 28.7215 12.943C28.7215 11.9139 27.8878 11.0802 26.8587 11.0802V11.0811Z" fill="#02D8FA"/>
<path d="M22.3508 12.7246C22.2401 12.7246 22.1323 12.7361 22.0264 12.7544C21.6009 12.0064 20.798 11.5019 19.8766 11.5019C18.8831 11.5019 18.0282 12.0892 17.6344 12.9344C17.44 12.8632 17.2301 12.8218 17.0115 12.8218C16.0093 12.8218 15.1978 13.6343 15.1978 14.6356C15.1978 15.6368 16.0103 16.4494 17.0115 16.4494H22.3508C23.38 16.4494 24.2137 15.6156 24.2137 14.5865C24.2137 13.5573 23.38 12.7236 22.3508 12.7236V12.7246Z" fill="white"/>
<path d="M60.9918 23.8008C60.8724 23.8008 60.7559 23.8134 60.6423 23.8336C60.1841 23.0278 59.3196 22.4838 58.326 22.4838C57.2555 22.4838 56.3341 23.1163 55.9105 24.028C55.7006 23.951 55.4754 23.9067 55.2395 23.9067C54.1603 23.9067 53.2852 24.7819 53.2852 25.8611C53.2852 26.9403 54.1603 27.8154 55.2395 27.8154H60.9928C62.1009 27.8154 63.0001 26.9172 63.0001 25.8081C63.0001 24.6991 62.1018 23.8008 60.9928 23.8008H60.9918Z" fill="white"/>
<path d="M54.6327 34.104C54.5528 34.104 54.4883 34.0395 54.4883 33.9596V32.3027C54.4883 32.2228 54.5528 32.1583 54.6327 32.1583C54.7126 32.1583 54.7771 32.2228 54.7771 32.3027V33.9596C54.7771 34.0395 54.7126 34.104 54.6327 34.104Z" fill="#FF8D1F"/>
<path d="M55.4619 33.2751H53.8051C53.7251 33.2751 53.6606 33.2106 53.6606 33.1307C53.6606 33.0508 53.7251 32.9863 53.8051 32.9863H55.4619C55.5418 32.9863 55.6063 33.0508 55.6063 33.1307C55.6063 33.2106 55.5418 33.2751 55.4619 33.2751Z" fill="#FF8D1F"/>
<path d="M27.6569 17.7655C27.6203 17.7655 27.5827 17.751 27.5548 17.7231C27.498 17.6663 27.498 17.5748 27.5548 17.519L28.7265 16.3473C28.7833 16.2905 28.8747 16.2905 28.9306 16.3473C28.9874 16.4042 28.9874 16.4956 28.9306 16.5514L27.7589 17.7231C27.731 17.751 27.6934 17.7655 27.6569 17.7655Z" fill="#02D8FA"/>
<path d="M28.8285 17.7655C28.7919 17.7655 28.7544 17.751 28.7265 17.7231L27.5548 16.5514C27.498 16.4946 27.498 16.4032 27.5548 16.3473C27.6116 16.2905 27.7031 16.2905 27.7589 16.3473L28.9306 17.519C28.9874 17.5758 28.9874 17.6673 28.9306 17.7231C28.9026 17.751 28.8651 17.7655 28.8285 17.7655Z" fill="#02D8FA"/>
<path d="M13.2682 25.8793C13.2316 25.8793 13.1941 25.8649 13.1661 25.837C13.1093 25.7802 13.1093 25.6887 13.1661 25.6329L14.3378 24.4612C14.3946 24.4044 14.486 24.4044 14.5419 24.4612C14.5987 24.518 14.5987 24.6095 14.5419 24.6653L13.3702 25.837C13.3423 25.8649 13.3048 25.8793 13.2682 25.8793Z" fill="#02D8FA"/>
<path d="M14.4398 25.8793C14.4032 25.8793 14.3657 25.8649 14.3378 25.837L13.1661 24.6653C13.1093 24.6085 13.1093 24.5171 13.1661 24.4612C13.2229 24.4044 13.3144 24.4044 13.3702 24.4612L14.5419 25.6329C14.5987 25.6897 14.5987 25.7811 14.5419 25.837C14.514 25.8649 14.4764 25.8793 14.4398 25.8793Z" fill="#02D8FA"/>
<path d="M55.7755 21.1746C55.7389 21.1746 55.7014 21.1601 55.6735 21.1322C55.6167 21.0754 55.6167 20.9839 55.6735 20.9281L56.8451 19.7565C56.9019 19.6997 56.9934 19.6997 57.0492 19.7565C57.106 19.8133 57.106 19.9047 57.0492 19.9606L55.8776 21.1322C55.8496 21.1601 55.8121 21.1746 55.7755 21.1746Z" fill="#02D8FA"/>
<path d="M56.9472 21.1746C56.9106 21.1746 56.873 21.1601 56.8451 21.1322L55.6735 19.9606C55.6167 19.9038 55.6167 19.8123 55.6735 19.7565C55.7303 19.6997 55.8217 19.6997 55.8776 19.7565L57.0492 20.9281C57.106 20.9849 57.106 21.0764 57.0492 21.1322C57.0213 21.1601 56.9837 21.1746 56.9472 21.1746Z" fill="#02D8FA"/>
<path d="M39.4977 9.52247C39.4611 9.52247 39.4235 9.50803 39.3956 9.48011C39.3388 9.42331 39.3388 9.33185 39.3956 9.27601L40.5673 8.10437C40.6241 8.04757 40.7155 8.04757 40.7714 8.10437C40.8282 8.16117 40.8282 8.25263 40.7714 8.30847L39.5997 9.48011C39.5718 9.50803 39.5343 9.52247 39.4977 9.52247Z" fill="#02D8FA"/>
<path d="M40.6683 9.52247C40.6318 9.52247 40.5942 9.50803 40.5663 9.48011L39.3947 8.30847C39.3379 8.25167 39.3379 8.16021 39.3947 8.10437C39.4515 8.04757 39.5429 8.04757 39.5988 8.10437L40.7704 9.27601C40.8272 9.33281 40.8272 9.42427 40.7704 9.48011C40.7425 9.50803 40.7049 9.52247 40.6683 9.52247Z" fill="#02D8FA"/>
<path d="M49.4047 26.4547C49.9238 26.3707 50.2765 25.8818 50.1925 25.3627C50.1086 24.8436 49.6197 24.4909 49.1006 24.5749C48.5815 24.6588 48.2287 25.1477 48.3127 25.6668C48.3967 26.186 48.8856 26.5387 49.4047 26.4547Z" fill="#FFDE31"/>
<path d="M19.4265 33.5482C19.7984 33.1764 19.7984 32.5735 19.4265 32.2017C19.0547 31.8298 18.4518 31.8298 18.08 32.2017C17.7082 32.5735 17.7082 33.1764 18.08 33.5482C18.4518 33.92 19.0547 33.92 19.4265 33.5482Z" fill="#FFDE31"/>
<path d="M31.9043 13.339C32.078 12.8427 31.8163 12.2995 31.32 12.1259C30.8236 11.9523 30.2805 12.2139 30.1069 12.7103C29.9332 13.2066 30.1949 13.7498 30.6912 13.9234C31.1876 14.097 31.7307 13.8354 31.9043 13.339Z" fill="#FFDE31"/>
<path d="M60.1684 33.7968C60.6802 33.6764 60.9977 33.1639 60.8773 32.652C60.757 32.1401 60.2444 31.8227 59.7325 31.943C59.2206 32.0634 58.9032 32.5759 59.0236 33.0878C59.1439 33.5997 59.6565 33.9171 60.1684 33.7968Z" fill="#FFDE31"/>
<path d="M45.0462 11.1741C45.2462 10.6878 45.0142 10.1314 44.5278 9.93132C44.0415 9.73127 43.4851 9.96333 43.2851 10.4496C43.085 10.936 43.3171 11.4924 43.8034 11.6924C44.2897 11.8925 44.8461 11.6604 45.0462 11.1741Z" fill="#FFDE31"/>
<path d="M15.0434 23.436C15.5693 23.436 15.9956 23.0097 15.9956 22.4838C15.9956 21.958 15.5693 21.5317 15.0434 21.5317C14.5176 21.5317 14.0913 21.958 14.0913 22.4838C14.0913 23.0097 14.5176 23.436 15.0434 23.436Z" fill="#FFDE31"/>
<path d="M14.416 29.2787L15.0437 31.8627L16.457 30.7662L20.7383 23.8875L14.416 29.2787Z" fill="#E5E5E5"/>
<path d="M11 28.0166L21.2165 23.279L19.1409 32.8745L15.8483 30.2886L20.738 23.8874L14.4158 29.2787L11 28.0166Z" fill="white"/>
<path d="M15.8483 30.2887L15.0435 31.8628L16.4567 30.7662L15.8483 30.2887Z" fill="#C2C2C2"/>
</svg>
