<svg width="120" height="100" viewBox="0 0 64 35" fill="none" xmlns="http://www.w3.org/2000/svg">
<path opacity="0.08" d="M30.1106 30.5151C31.0223 30.4315 31.9329 30.3412 32.8435 30.251C35.8543 29.9524 38.8656 29.7653 41.8819 29.5824C44.0239 29.4529 46.179 29.3839 48.3193 29.5744C50.1597 29.7378 52.3818 30.0667 53.8027 31.2938C54.5996 31.9818 54.2607 32.8512 53.0887 33.4371C51.8502 34.056 50.2783 34.0745 48.9091 34.1609C36.0366 34.975 23.2327 33.9067 10.3558 33.9511C8.53404 33.9573 6.68264 34.0603 4.86253 34.1297C3.75641 34.1718 2.31911 34.3509 1.23276 34.0919C0.54624 33.9285 0.597317 33.3577 1.12017 33.0624C2.07416 32.5228 3.51091 32.4613 4.59671 32.4004C7.43561 32.2407 10.2734 32.064 13.1096 31.8712C18.7824 31.4852 24.4503 31.033 30.1111 30.5151H30.1106Z" fill="black"/>
<path d="M33.9004 5.50281L34.0228 4.53796L34.4348 4.57907L34.4962 5.26042L34.6989 5.1886L34.4939 5.99988L34.061 6.01547L33.9004 5.50281Z" fill="#EBCEB1"/>
<path d="M36.4183 11.5183C37.0397 11.5736 37.7517 11.5447 38.1642 11.0765C38.4992 10.6957 38.5276 10.1282 38.417 9.63301C38.4042 9.57584 38.3863 9.51347 38.3376 9.48087C38.2927 9.45063 38.2341 9.45346 38.1803 9.45771C37.627 9.50024 37.0742 9.54324 36.5209 9.58576C36.2109 9.60986 35.5896 9.78232 35.4204 9.5404C35.23 9.2673 35.2286 8.59209 35.1634 8.2689C34.9937 7.42927 34.8241 6.58963 34.6545 5.75L33.7974 5.8256C33.8059 6.59861 33.8139 7.37162 33.8224 8.14463C33.8285 8.69746 33.8342 9.25029 33.8404 9.80264C33.8564 11.2735 35.2144 11.4106 36.4188 11.5183H36.4183Z" fill="#D1D9DB"/>
<path d="M40.0373 9.85406C40.5443 10.2396 40.7602 10.9314 40.8859 11.5716C41.4028 14.2077 41.1392 16.9269 40.867 19.5994C40.8363 19.8985 40.7645 20.0279 40.4762 19.8994C38.667 19.0933 36.8876 18.0519 34.9111 17.9253C35.4068 16.2479 35.4592 14.4737 35.7952 12.7571C35.8925 12.2591 36.0154 11.762 36.2285 11.3013C36.5063 10.7008 36.9504 10.0516 37.4423 9.6041C37.9054 9.18263 38.6415 9.36927 39.1972 9.51008C39.4278 9.56819 39.6607 9.62773 39.8686 9.74349C39.9281 9.77657 39.9844 9.8139 40.0373 9.85406Z" fill="#D1D9DB"/>
<path d="M15.9447 11.0595L16.4479 11.2017L16.8509 10.9735L16.9426 11.033L16.8722 11.1479L17.2606 11.0524L17.5517 11.1909L17.6221 11.61L17.4094 11.9979L16.9795 12.0262L16.5216 11.8037L15.8237 11.6383L15.9447 11.0595Z" fill="#EBCEB1"/>
<path d="M16.1722 10.7962C16.1722 10.7962 11.1278 9.56015 11.1278 9.55967C10.9539 9.51715 10.7455 9.32531 10.5948 9.2327C10.2362 9.01252 9.87802 8.79281 9.51939 8.57262C9.27417 8.42236 8.84419 8.0368 8.54651 8.0368C8.0622 8.0368 7.80563 8.7602 7.80233 9.14813C7.79146 10.3393 8.9042 10.8496 9.73344 11.488L10.5334 11.9019L16.1344 12.0138L16.1722 10.7957V10.7962Z" fill="#D1D9DB"/>
<path d="M10.068 4.66652C9.42492 4.88103 8.73885 4.41184 8.11846 4.7218C7.71494 4.92356 7.44089 5.43102 7.37474 5.94369C7.34403 6.18277 7.35395 6.43225 7.43995 6.64157C7.4957 6.77718 7.5817 6.89058 7.67809 6.98697C7.80661 7.11549 7.95639 7.21141 8.11704 7.27425C8.05514 7.44624 7.98002 7.61209 7.89308 7.7699C8.20965 7.82944 8.52623 7.88897 8.8428 7.94851C8.88391 7.73257 8.92502 7.51711 8.96565 7.30118C9.05496 7.2733 9.14284 7.23645 9.22789 7.18825C9.74008 6.89814 10.1129 6.25034 10.1512 5.58459C10.1691 5.27273 10.1195 4.96703 10.068 4.66652Z" fill="#EBCEB1"/>
<path d="M6.81289 6.04055C6.78549 5.99425 6.7595 5.94747 6.73588 5.8988C6.45096 5.31054 6.29787 4.61974 6.71934 4.05274C7.14884 3.47535 8.02817 3.22256 8.70054 3.39408C9.07098 3.48858 9.46221 3.61521 9.82556 3.49614C9.93423 3.4607 10.0396 3.39975 10.101 3.30336C10.1582 3.21405 10.1728 3.10254 10.2319 3.01418C10.3699 2.80817 10.7465 2.85684 10.8273 3.0912C10.8509 3.15972 10.8528 3.23673 10.8882 3.30005C10.9676 3.44038 11.1613 3.44652 11.321 3.46731C11.3721 3.47393 11.4273 3.48669 11.4599 3.52685C11.5195 3.60009 11.4628 3.71538 11.381 3.76215C11.2681 3.82689 11.0715 3.80846 11.0002 3.93509C10.9487 4.02675 11.0276 4.20205 11.0144 4.30789C10.9681 4.67786 10.6487 5.01381 10.3113 5.13997C9.9881 5.26045 9.69893 5.12957 9.37621 5.04688C9.28502 5.02373 9.18768 4.96656 9.09791 4.9538C8.98498 4.93821 8.87394 4.99349 8.76621 5.01759C8.63155 5.04736 8.49169 5.03082 8.35419 5.01948C8.21669 5.00814 8.07353 5.00341 7.94595 5.05539C7.81838 5.10736 7.71017 5.23116 7.71773 5.36866C7.72718 5.53545 7.89492 5.66491 7.89209 5.83218C7.88925 5.97676 7.76073 6.08497 7.70545 6.21869C7.66292 6.32216 7.66151 6.44785 7.58402 6.52865C7.54952 6.56456 7.50275 6.58771 7.47156 6.62645C7.43045 6.67701 7.41817 6.75119 7.36336 6.78663C7.30288 6.82585 7.21783 6.79466 7.17105 6.73985C7.12427 6.68504 7.10537 6.61275 7.08222 6.54424C7.02032 6.36043 6.90929 6.20498 6.81289 6.04102V6.04055Z" fill="#333333"/>
<path d="M8.02701 7.69906C7.88384 7.68441 7.7298 7.67166 7.60459 7.74064C7.49166 7.80254 7.4241 7.91878 7.36314 8.03029C5.75759 10.9603 5.06159 14.3552 5.38998 17.6608C7.30266 17.3163 9.2522 17.1642 11.197 17.2072C11.0198 15.9225 10.8426 14.6377 10.6655 13.3525C10.5346 12.4047 10.4037 11.4554 10.1863 10.5232C9.99592 9.70577 9.73935 8.90347 9.41994 8.12479C9.21818 7.63291 8.48344 7.74584 8.02748 7.69953L8.02701 7.69906Z" fill="#D1D9DB"/>
<path d="M12.1876 32.2327L12.5609 32.5814C12.8014 32.8059 12.7465 33.2137 12.4446 33.3455C12.267 33.423 12.0165 33.4112 11.6697 33.174L10.874 32.2696L11.003 31.9771L12.1517 31.8037L12.1866 32.2332L12.1876 32.2327Z" fill="#1A1A1A"/>
<path d="M11.4071 16.901L13.2565 24.4577L12.7117 31.8509L10.8865 32.0087L10.4655 25.3398C10.4655 25.3398 6.46195 18.0331 6.69112 17.8748C6.92028 17.7165 11.4071 16.9005 11.4071 16.9005V16.901Z" fill="#2A68A8"/>
<path d="M6.52745 32.2327L6.90167 32.5809C7.14265 32.8049 7.08831 33.2126 6.78685 33.3449C6.60919 33.4229 6.35877 33.4116 6.01195 33.1748L5.21484 32.2719V31.8514L5.5163 31.5858L6.39421 31.7484L6.52792 32.2327H6.52745Z" fill="#1A1A1A"/>
<path d="M10.1431 17.3796L9.56951 25.1381L6.8772 31.9681L4.98389 31.5886L6.64189 25.1159C6.64189 25.1159 5.08973 16.9298 5.35622 16.8499C5.62271 16.7701 10.1426 17.3791 10.1426 17.3791L10.1431 17.3796Z" fill="#2A68A8"/>
<path d="M5.21484 17.0795L5.93163 15.345L8.42832 14.5167L7.95204 11.3542L10.4431 10.9512L10.8745 15.4012L11.4854 17.2222L5.46527 18.3222L5.21484 17.0795Z" fill="#2A68A8"/>
<path d="M8.08722 9.97458C8.09148 9.48554 8.06596 8.92893 7.69269 8.61283C7.60858 8.54195 7.5051 8.4862 7.39501 8.48667C7.1701 8.48809 7.01748 8.7078 6.9055 8.90247C6.86864 8.61189 6.84738 8.29106 7.01748 8.05244C7.23436 7.7491 7.70497 7.71224 8.02344 7.90597C8.3419 8.10017 8.52051 8.46636 8.58807 8.83254C8.65564 9.1992 8.62871 9.57531 8.62824 9.94812C8.62776 10.4915 8.68494 11.0335 8.74164 11.574C8.52429 11.5593 8.31166 11.6038 8.09951 11.6132C7.97004 11.1355 8.0825 10.4773 8.08675 9.9741L8.08722 9.97458Z" fill="#2A68A8"/>
<path d="M9.77017 9.46851C9.71584 8.99743 9.60196 8.47768 9.21073 8.20977C9.11387 8.14315 8.98866 8.07038 8.99433 7.9532C8.99763 7.88469 9.05008 7.82704 9.10914 7.79208C9.30759 7.67632 9.57598 7.77554 9.72151 7.9532C9.86704 8.13086 9.91948 8.36522 9.96295 8.59108C10.1359 9.48883 10.2403 10.4003 10.2748 11.3141C10.28 11.4511 9.94547 11.3746 9.88924 11.3127C9.7971 11.2111 9.84861 10.973 9.84814 10.851C9.84625 10.3885 9.82309 9.92778 9.77017 9.46804V9.46851Z" fill="#2A68A8"/>
<path d="M38.87 30.5724L38.7944 31.0779L38.966 32.039L39.5306 31.9856L39.6369 30.562L39.5537 30.3337L38.87 30.5724Z" fill="#514943"/>
<path d="M36.2146 31.9623L35.3301 32.6106L35.4406 33.0954L37.0599 32.7094L36.9285 32.0091L36.2146 31.9623Z" fill="#514943"/>
<path d="M34.4717 19.2177L34.5005 25.8691L35.9827 32.1113H37.19L37.1144 24.8707L37.8406 19.3977L37.3086 18.3152L34.6267 18.6195L34.4717 19.2177Z" fill="#2A68A8"/>
<path d="M37.5303 24.1123L38.7942 30.4617L39.8933 30.3337L40.1942 25.3753L40.7593 19.9519L40.1895 18.3652H37.1211L37.5303 24.1123Z" fill="#2A68A8"/>
<path d="M40.4546 7.59264C40.3402 6.50778 38.961 5.8425 38.3722 6.94815C38.1955 7.28032 38.0542 7.64273 38.0462 8.01978C38.0382 8.39684 38.1818 8.7909 38.4823 9.01061C38.4842 9.01203 38.4856 9.01298 38.4875 9.01392C38.4545 9.10511 38.4214 9.19631 38.3888 9.2875C38.3817 9.30687 38.3746 9.32908 38.3822 9.34798C38.3907 9.37019 38.4148 9.38058 38.437 9.38861C38.5438 9.42925 38.6505 9.46941 38.7569 9.51005C38.8098 9.52989 38.8651 9.55068 38.9213 9.54454C39.0446 9.53178 39.1221 9.40137 39.1533 9.27994C39.1608 9.25064 39.167 9.22088 39.1727 9.19111C39.8738 9.1037 40.5292 8.30139 40.4546 7.59264Z" fill="#EACDB0"/>
<path d="M53.0428 17.6109C53.6758 18.3542 54.7911 18.4437 55.5348 17.8109C56.2781 17.1779 56.3677 16.0626 55.7349 15.3189C55.1019 14.5756 53.9866 14.4861 53.2429 15.1188C52.4996 15.7519 52.41 16.8672 53.0428 17.6109ZM53.9138 16.8697C53.6905 16.6074 53.722 16.2138 53.9845 15.9901C54.2467 15.7668 54.6404 15.7983 54.8641 16.0608C55.0874 16.323 55.0558 16.7167 54.7934 16.9404C54.5311 17.1637 54.1375 17.1321 53.9138 16.8697Z" fill="#D1B337"/>
<path d="M50.7868 20.7164C51.0718 20.9581 51.3757 21.1672 51.6947 21.3435L51.4969 22.2915L52.949 22.8082L53.3951 21.9475C53.7577 22.0128 54.1261 22.0425 54.4942 22.0357L54.7972 22.9564L56.3131 22.678L56.2689 21.7106C56.6117 21.5876 56.9453 21.4299 57.2651 21.2365L57.9875 21.8824L59.161 20.8835L58.6386 20.067C58.8804 19.7821 59.0895 19.4781 59.2657 19.1591L60.2137 19.3569L60.7305 17.9048L59.8698 17.4588C59.9351 17.0962 59.9647 16.7278 59.958 16.3597L60.8786 16.0567L60.6002 14.5407L59.6329 14.5849C59.5098 14.2422 59.3522 13.9085 59.1588 13.5887L59.8046 12.8663L58.8058 11.6929L57.9893 12.2152C57.7043 11.9734 57.4 11.7641 57.0814 11.5881L57.2792 10.6401L55.8271 10.1234L55.381 10.984C55.0184 10.9188 54.65 10.8891 54.2819 10.8959L53.9789 9.97519L52.463 10.2536L52.5072 11.2209C52.1644 11.344 51.8308 11.5016 51.511 11.6951L50.7886 11.0492L49.6151 12.0481L50.1375 12.8646C49.8957 13.1495 49.6864 13.4538 49.5104 13.7725L48.5624 13.5747L48.0456 15.0268L48.9063 15.4728C48.841 15.8354 48.8114 16.2038 48.8181 16.5719L47.8975 16.8749L48.1759 18.3909L49.1432 18.3466C49.2663 18.6894 49.4239 19.0231 49.6173 19.3429L48.9715 20.0653L49.9703 21.2387L50.7868 20.7164ZM57.4149 13.4003L55.099 15.3719C54.7304 15.132 54.2621 15.0945 53.8602 15.2726L51.8887 12.9567C53.5899 11.742 55.9288 11.9295 57.4145 13.4001L57.4149 13.4003ZM55.4812 17.1762C55.721 16.8076 55.7585 16.3394 55.5804 15.9375L57.8964 13.9659C59.111 15.6671 58.9235 18.0061 57.4529 19.4917L55.4814 17.1758L55.4812 17.1762ZM54.7923 16.9403C54.5301 17.1636 54.1364 17.1321 53.9127 16.8696C53.6894 16.6074 53.721 16.2137 53.9834 15.99C54.2457 15.7667 54.6393 15.7982 54.863 16.0607C55.0863 16.3229 55.0548 16.7166 54.7923 16.9403ZM51.3615 19.5298L53.6775 17.5582C54.046 17.7981 54.5143 17.8356 54.9162 17.6575L56.8878 19.9735C55.1865 21.1881 52.8476 21.0006 51.3619 19.53L51.3615 19.5298ZM50.88 18.9642C49.6654 17.263 49.8529 14.9241 51.3235 13.4384L53.295 15.7543C53.0551 16.1229 53.0177 16.5911 53.1957 16.9931L50.8798 18.9646L50.88 18.9642Z" fill="#EFD154"/>
<path d="M50.5594 19.725C48.7616 17.6132 49.0168 14.433 51.1286 12.6352C53.2404 10.8374 56.4206 11.0926 58.2184 13.2044C60.0162 15.3162 59.761 18.4964 57.6492 20.2942C55.5374 22.092 52.3572 21.8368 50.5594 19.725ZM50.7208 19.588C52.4425 21.6105 55.4894 21.855 57.5119 20.1333C59.5346 18.4111 59.7789 15.3647 58.0572 13.3422C56.335 11.3194 53.2886 11.0751 51.2661 12.7969C49.2435 14.5186 48.999 17.5654 50.7208 19.588Z" fill="#C1B23F"/>
<path d="M51.7141 19.8397C53.1992 21.0195 55.3159 21.0961 56.889 19.9729L56.1926 19.155C56.4491 19.0707 56.6979 18.9808 56.9398 18.8867L57.4546 19.4914C57.8106 19.132 58.0903 18.7223 58.294 18.2843C58.8936 17.9831 59.4267 17.6687 59.8851 17.3709C59.8804 17.4 59.877 17.4288 59.8715 17.4574L60.7322 17.9034L60.2155 19.3555L59.2675 19.1577C59.0914 19.4764 58.8826 19.7809 58.6404 20.0657L59.1627 20.8822L57.9893 21.881L57.2669 21.2352C56.9471 21.4286 56.6134 21.5862 56.2706 21.7093L56.3149 22.6766L54.7989 22.955L54.4959 22.0343C54.1278 22.0411 53.7594 22.0114 53.3968 21.9462L52.9508 22.8068L51.4987 22.2901L51.6965 21.3421C51.3778 21.1661 51.0733 20.9572 50.7885 20.715L49.972 21.2373L48.9732 20.0639L49.412 19.5729C50.2036 19.7386 50.9727 19.8222 51.7143 19.8393L51.7141 19.8397Z" fill="#D1B337"/>
<path d="M50.9089 19.7954C52.6576 21.625 55.5608 21.7939 57.5119 20.133C58.2255 19.5258 58.7177 18.753 58.9802 17.9189C59.0704 17.8681 59.1584 17.8172 59.2452 17.7666C58.9911 18.7196 58.4559 19.608 57.6494 20.2946C55.5509 22.0811 52.3966 21.8397 50.5932 19.7641C50.6989 19.7759 50.804 19.7869 50.9091 19.7961L50.9089 19.7954Z" fill="#ADA03B"/>
<path d="M51.3137 11.7994C51.3317 11.8041 50.7559 11.2538 50.7559 11.2538L49.8223 12.0578C49.8223 12.0578 50.5654 11.6078 51.3137 11.7994Z" fill="#FAEB7D"/>
<path d="M20.6606 8.62229L20 8.95352C20.0312 9.20347 20.0747 9.45295 20.1299 9.70196C20.1857 9.95097 20.2528 10.1952 20.3303 10.4348L21.0688 10.4537C21.9089 10.4754 22.3984 11.4119 21.9358 12.1141L21.5276 12.734C21.8319 13.1366 22.1759 13.5098 22.5558 13.8496L23.2059 13.4961C23.9444 13.0945 24.8365 13.661 24.7869 14.5002L24.7434 15.2387C25.2122 15.4386 25.6965 15.5907 26.1902 15.6952L26.5777 15.062C27.0166 14.3452 28.0722 14.3896 28.4493 15.1409L28.7805 15.8015C29.0304 15.7703 29.2804 15.7268 29.5289 15.6715C29.7779 15.6158 30.0222 15.5487 30.2618 15.4712L30.2807 14.7327C30.3024 13.8926 31.2389 13.4031 31.941 13.8656L32.561 14.2739C32.9635 13.9696 33.3368 13.6256 33.6765 13.2457L33.3231 12.5956C32.9215 11.857 33.488 10.965 34.3272 11.0146L35.0657 11.058C35.2656 10.5893 35.4177 10.105 35.5221 9.61124L34.889 9.22379C34.1722 8.78483 34.2166 7.72927 34.9679 7.35221L35.6284 7.02099C35.5972 6.77104 35.5538 6.52156 35.4985 6.27255C35.4427 6.02354 35.3756 5.77926 35.2982 5.5397L34.5596 5.5208C33.7195 5.49906 33.23 4.56257 33.6926 3.86043L34.1008 3.24051C33.7965 2.83794 33.4526 2.46466 33.0727 2.12494L32.4225 2.47837C31.684 2.87999 30.7919 2.31346 30.8415 1.4743L30.885 0.735783C30.4163 0.535915 29.932 0.38377 29.4382 0.279347L29.0508 0.912498C28.6118 1.62928 27.5562 1.58487 27.1792 0.833591L26.848 0.173035C26.598 0.20422 26.3485 0.24769 26.0995 0.302972C25.8505 0.358255 25.6062 0.425822 25.3667 0.503312L25.3478 1.24183C25.326 2.08194 24.3895 2.57145 23.6874 2.10887L23.0675 1.70063C22.6649 2.00492 22.2916 2.3489 21.9519 2.72879L22.3053 3.37895C22.707 4.11747 22.1404 5.00955 21.3013 4.95994L20.5627 4.91647C20.3629 5.38519 20.2107 5.8695 20.1063 6.36327L20.7395 6.75072C21.4562 7.18967 21.4118 8.24524 20.6606 8.62229ZM27.1882 7.16227C27.1626 7.18164 27.1376 7.20243 27.1135 7.22464C27.0795 7.25629 27.0478 7.28937 27.019 7.32433L23.8948 6.8542C24.2081 5.77453 24.9608 4.85079 25.9913 4.33718C26.2502 4.20819 26.5616 4.35703 26.6249 4.63958L27.1882 7.16274V7.16227ZM30.4697 5.63656L28.3103 7.07769C28.222 7.02949 28.1275 6.995 28.0311 6.97421L27.4679 4.45106C27.4046 4.1685 27.6243 3.90154 27.9139 3.90815C28.8896 3.93131 29.8101 4.30553 30.5202 4.93348C30.7385 5.12626 30.7125 5.47497 30.4701 5.63656H30.4697ZM27.8615 7.36591C28.2045 7.3919 28.4615 7.69052 28.436 8.03356C28.41 8.37659 28.1114 8.63363 27.7684 8.60812C27.4253 8.58213 27.1683 8.28351 27.1938 7.94048C27.2198 7.59744 27.5184 7.3404 27.8615 7.36591ZM28.8443 8.09687C28.8556 7.9882 28.8504 7.87811 28.8273 7.77038L30.97 6.34011C31.2072 6.18183 31.5328 6.28294 31.633 6.54991C31.6991 6.72615 31.7539 6.90901 31.796 7.09801C31.9892 7.9641 31.8914 8.82736 31.5678 9.58525C31.4506 9.85977 31.1047 9.94766 30.8741 9.75819L28.8443 8.09593V8.09687ZM26.5668 11.3236L27.7079 9.0173C27.9446 9.04187 28.1889 8.98518 28.3954 8.84484L30.3799 10.4702C30.5987 10.6493 30.5977 10.9843 30.378 11.162C29.9046 11.5447 29.3376 11.8273 28.703 11.969C28.0741 12.1094 27.4466 12.0961 26.8602 11.9544C26.5829 11.8873 26.4402 11.5792 26.5668 11.3236ZM24.2544 7.78077L26.7941 8.16302C26.8191 8.30855 26.8749 8.44936 26.9628 8.57599L25.8085 10.9083C25.6795 11.1691 25.3369 11.2404 25.1181 11.0481C24.4921 10.4976 24.0285 9.7511 23.8329 8.87508C23.7861 8.66576 23.7564 8.45645 23.7432 8.24855C23.7247 7.96552 23.9737 7.73777 24.2544 7.7803V7.78077Z" fill="#659993"/>
<g style="mix-blend-mode:multiply" opacity="0.11">
<path d="M22.6198 7.59694C22.8348 4.73264 25.3405 2.57709 28.2048 2.79255C31.0691 3.00754 33.2246 5.51321 33.0092 8.37751C32.7942 11.2418 30.2885 13.3974 27.4242 13.1819C24.5599 12.9669 22.4044 10.4612 22.6198 7.59694ZM23.6452 7.67396C23.4722 9.97315 25.2025 11.9841 27.5017 12.1566C29.8009 12.3295 31.8119 10.5992 31.9843 8.30002C32.1573 6.00083 30.427 3.98987 28.1278 3.81741C25.8286 3.64447 23.8176 5.37477 23.6452 7.67396Z" fill="black"/>
</g>
<path d="M51.1398 22.6606C50.984 22.5353 50.8209 22.4223 50.6547 22.3189L49.858 22.9927L48.8901 22.628L48.7351 21.5963C48.3366 21.5305 47.9336 21.5127 47.5343 21.5405L47.2871 22.5548L46.2897 22.8297L45.5567 22.0852C45.213 22.2588 44.8843 22.4717 44.5807 22.7248L44.9725 23.694L44.3209 24.4982L43.2907 24.3202C43.1021 24.682 42.9589 25.0592 42.8614 25.4444L43.7479 25.9976L43.6946 27.0317L42.7588 27.494C42.818 27.8895 42.922 28.2791 43.0725 28.6543L44.1129 28.5815L44.6784 29.4474L44.1938 30.3719C44.3385 30.5186 44.4931 30.6607 44.6594 30.7933C44.8122 30.9135 44.9687 31.0237 45.1293 31.1254L45.9284 30.4531L46.8951 30.8209L47.0458 31.855C47.4446 31.9203 47.8497 31.9411 48.2498 31.9138L48.5006 30.8999L49.4987 30.6277L50.229 31.3756C50.5842 31.1966 50.9232 30.9784 51.2357 30.7168L50.8407 29.7484L51.4889 28.9417L52.5192 29.1176C52.7061 28.7548 52.8475 28.3771 52.9442 27.9914L52.0567 27.4408L52.1055 26.4068L53.04 25.9421C52.9794 25.5452 52.8742 25.1559 52.7231 24.7816L51.6823 24.8596L51.1125 23.9945L51.5964 23.0684C51.4534 22.9254 51.3023 22.7876 51.1411 22.6603L51.1398 22.6606ZM50.229 26.6894C50.2501 27.9745 49.2276 29.0374 47.9366 29.0583C46.6496 29.076 45.5898 28.0521 45.5714 26.7652C45.5464 25.4783 46.5728 24.4172 47.8594 24.3965C49.1501 24.3733 50.2096 25.4025 50.2297 26.6892L50.229 26.6894Z" fill="#8C314C"/>
<path d="M47.8448 23.3169C45.9617 23.3475 44.4572 24.9004 44.4872 26.7837C44.5195 28.6668 46.07 30.1688 47.9566 30.1369C49.8391 30.1065 51.3415 28.5535 51.3108 26.6714C51.2808 24.7881 49.7272 23.2859 47.8448 23.3169ZM50.9761 26.6766C51.0038 28.3743 49.6489 29.7749 47.9507 29.8024C46.2487 29.8308 44.8503 28.4761 44.8213 26.7776C44.7941 25.0791 46.1514 23.6783 47.8501 23.6506C49.5481 23.6225 50.9491 24.9777 50.9763 26.6762L50.9761 26.6766Z" fill="white"/>
<path d="M49.4597 30.639L49.4997 30.6282L50.2349 31.3569L50.2301 31.3761C50.5852 31.1971 50.9242 30.9789 51.2367 30.7173L51.2175 30.7136L50.8413 29.7487L51.4895 28.9419L52.513 29.0989L52.52 29.1185C52.7069 28.7557 52.8483 28.378 52.9449 27.9923L52.9284 28.0006L52.0574 27.4417L52.1063 26.4077L53.0267 25.9324L53.0408 25.943C52.9802 25.5461 52.8749 25.1568 52.7239 24.7825L52.7161 24.7993L51.6831 24.8605L51.1133 23.9954L51.5791 23.0712L51.5972 23.0693C51.4541 22.9264 51.303 22.7885 51.1418 22.6612C50.986 22.5359 50.8229 22.4228 50.6568 22.3195L50.661 22.3374L50.4341 22.5235C51.3061 25.8019 50.4634 28.6591 49.4599 30.6396L49.4597 30.639Z" fill="#782441"/>
<path d="M51.3103 26.6718C51.3003 26.0257 51.1104 25.4248 50.7895 24.9147C50.7982 25.1707 50.798 25.423 50.7891 25.6707C50.9043 25.9851 50.9701 26.3235 50.9756 26.6771C50.9884 27.4497 50.7136 28.1604 50.2514 28.7084C50.1749 28.9494 50.0922 29.1834 50.0048 29.4096C50.8144 28.7732 51.3281 27.7796 51.3095 26.6714L51.3103 26.6718Z" fill="#BB899A"/>
<path d="M43.5993 25.824L42.8971 25.3574C42.8971 25.3574 43.0189 24.8112 43.2157 24.4818C43.2157 24.4818 42.9907 25.0941 43.5993 25.824Z" fill="#A63F65"/>
<path opacity="0.14" d="M26.2016 32.6357C26.2947 32.5913 26.3793 32.537 26.3939 32.4803C26.41 32.4179 26.3589 32.3555 26.2956 32.3205C26.1161 32.2213 25.7031 32.2695 25.4952 32.2681C25.1205 32.2648 24.7458 32.2681 24.3716 32.2799C24.2001 32.2851 22.3238 32.3338 22.5005 32.6556C22.655 32.9376 23.6572 33.0005 23.9345 32.9948C24.39 32.9858 24.8484 32.9726 25.2968 32.8984C25.5269 32.8601 25.7537 32.8063 25.9696 32.7288C26.0225 32.7099 26.1156 32.6773 26.2016 32.6362V32.6357Z" fill="black"/>
<path d="M23.3054 32.9485C24.1412 32.9485 24.8188 32.271 24.8188 31.4351C24.8188 30.5993 24.1412 29.9217 23.3054 29.9217C22.4696 29.9217 21.792 30.5993 21.792 31.4351C21.792 32.271 22.4696 32.9485 23.3054 32.9485Z" fill="#3F6888"/>
<path d="M22.722 32.3361L22.2329 31.3807L22.816 30.4797L23.8881 30.534L24.3766 31.4894L23.7936 32.3905L22.722 32.3361Z" fill="#25475B"/>
<path d="M23.3052 31.9893C23.6113 31.9893 23.8595 31.7411 23.8595 31.435C23.8595 31.1289 23.6113 30.8808 23.3052 30.8808C22.9991 30.8808 22.751 31.1289 22.751 31.435C22.751 31.7411 22.9991 31.9893 23.3052 31.9893Z" fill="#1F3D4C"/>
<path d="M25.6313 26.6883L27.2289 23.6412L28.558 24.4543L26.5863 27.2723L26.0608 27.1901C26.0079 27.1821 25.9612 27.1528 25.93 27.1093L25.6313 26.6883Z" fill="#25475B"/>
<path d="M25.8556 26.2276C26.2941 26.3859 26.7444 26.5395 27.2079 26.6888C27.4059 26.7526 27.5287 26.4455 27.3232 26.3812C26.8427 26.2309 26.3763 26.076 25.9227 25.9153C25.7351 25.8492 25.6742 26.162 25.8551 26.2272L25.8556 26.2276Z" fill="#3F6888"/>
<path d="M25.595 26.7313C26.0037 26.8849 26.4229 27.0342 26.8542 27.1793C27.038 27.2412 27.1415 26.9699 26.9506 26.9071C26.5051 26.7606 26.0723 26.6094 25.6503 26.454C25.4755 26.3897 25.4259 26.6675 25.595 26.7309V26.7313Z" fill="#3F6888"/>
<path d="M26.4356 25.0989C26.9417 25.2539 27.4657 25.4013 28.0095 25.5416C28.243 25.6017 28.4433 25.1717 28.1985 25.1117C27.6287 24.9723 27.0811 24.8244 26.5524 24.6689C26.3345 24.6047 26.2268 25.0351 26.4352 25.0989H26.4356Z" fill="#3F6888"/>
<path d="M26.1523 25.6536C26.6248 25.8171 27.111 25.9749 27.6128 26.127C27.8273 26.1922 27.9747 25.8421 27.7512 25.7764C27.2296 25.6233 26.7245 25.4641 26.2345 25.2992C26.0323 25.2312 25.9571 25.586 26.1518 25.6536H26.1523Z" fill="#3F6888"/>
<path opacity="0.15" d="M26.5024 27.2595L27.9762 24.6721L28.2091 24.9079L26.5747 27.2614L26.5024 27.2595Z" fill="white"/>
<path d="M29.6691 24.0825C29.6894 23.5618 29.2844 22.9985 28.7708 22.6838C28.2568 22.3692 27.5716 22.2652 27.1166 22.5199C26.4272 22.9064 26.4471 23.9615 27.5683 24.648C28.6896 25.3346 29.6383 24.872 29.6691 24.0825Z" fill="#5C7789"/>
<path d="M27.7702 24.3188C26.6489 23.6323 26.5653 22.6811 27.2055 22.3749C27.628 22.1732 28.2942 22.3088 28.8078 22.623C29.3219 22.9377 29.7457 23.4692 29.758 23.937C29.7764 24.6462 28.8914 25.0049 27.7702 24.3188Z" fill="#3F6888"/>
<path d="M27.9674 22.5024L28.7688 22.768L29.3301 23.3851L29.1671 24.0272L27.9892 23.8202L27.4014 22.8634L27.9674 22.5024Z" fill="#25475B"/>
<path d="M28.2923 23.4654C27.9937 23.2826 27.8789 23.0061 28.0145 22.8696C28.1312 22.7519 28.3991 22.7808 28.6264 22.9202C28.8536 23.0591 29.0011 23.2845 28.9496 23.4418C28.8896 23.6251 28.5914 23.6483 28.2923 23.4654Z" fill="#1F3D4C"/>
<path d="M31.5119 15.3337L29.6309 12.1132L30.8126 11.4356L32.6936 14.6562L32.4068 15.2284C32.3591 15.3238 32.2584 15.3815 32.1517 15.3748L31.5119 15.3337Z" fill="#25475B"/>
<path d="M30.2839 13.3213C30.6732 12.9537 31.0555 12.5776 31.4307 12.1925C31.588 12.0309 31.3121 11.7347 31.1547 11.8967C30.7795 12.2813 30.3978 12.6575 30.008 13.0255C29.8445 13.18 30.1209 13.4754 30.2839 13.3213Z" fill="#3F6888"/>
<path d="M30.6887 14.0272C31.078 13.6596 31.4603 13.2835 31.8354 12.8984C31.9928 12.7368 31.7168 12.4405 31.5595 12.6026C31.1843 12.9872 30.8026 13.3633 30.4127 13.7314C30.2493 13.8859 30.5257 14.1812 30.6887 14.0272Z" fill="#3F6888"/>
<path d="M31.093 14.7331C31.4823 14.3655 31.8646 13.9894 32.2397 13.6043C32.3971 13.4427 32.1211 13.1465 31.9638 13.3085C31.5886 13.6932 31.2068 14.0693 30.817 14.4373C30.6535 14.5918 30.93 14.8872 31.093 14.7331Z" fill="#3F6888"/>
<path d="M31.4982 15.4395C31.8876 15.0719 32.2698 14.6958 32.645 14.3107C32.8024 14.1491 32.5264 13.8529 32.3691 14.015C31.9939 14.3996 31.6121 14.7757 31.2223 15.1438C31.0588 15.2983 31.3352 15.5936 31.4982 15.4395Z" fill="#3F6888"/>
<path opacity="0.08" d="M32.4711 15.1026L32.3794 15.293L30.4219 12.1438L30.909 11.7899L32.4711 15.1026Z" fill="white"/>
<path d="M31.1202 10.0884C30.6595 9.87768 29.9436 10.0336 29.3965 10.379C28.8493 10.7249 28.4042 11.3023 28.4023 11.8055C28.3995 12.5681 29.3634 12.94 30.5574 12.1858C31.7514 11.4317 31.8185 10.4078 31.1202 10.0884Z" fill="#5C7789"/>
<path d="M30.3629 11.8825C29.1689 12.6366 28.2659 12.3602 28.3165 11.6713C28.35 11.2172 28.8131 10.6682 29.3602 10.3228C29.9074 9.97692 30.6048 9.79265 31.0343 9.95424C31.6854 10.1999 31.5569 11.1279 30.3629 11.882V11.8825Z" fill="#3F6888"/>
<path d="M28.8848 11.1389L29.5349 10.5166L30.3798 10.2402L30.8768 10.6238L30.0873 11.6062L28.9221 11.781L28.8848 11.1389Z" fill="#25475B"/>
<path d="M29.9217 11.203C29.6037 11.4038 29.2946 11.4053 29.2408 11.2323C29.1945 11.084 29.3575 10.8538 29.5994 10.7012C29.8413 10.5481 30.1206 10.499 30.2363 10.6034C30.3715 10.7249 30.2401 11.0017 29.9217 11.203Z" fill="#1F3D4C"/>
<path d="M23.5287 8.27687L24.1392 10.0805C24.2088 10.2859 24.4317 10.3961 24.6371 10.3266L24.8644 10.2496C25.0698 10.1801 25.18 9.95721 25.1104 9.7518L24.4999 7.94814C24.4304 7.74274 24.2075 7.63258 24.0021 7.70211L23.7748 7.77907C23.5694 7.84859 23.4592 8.07147 23.5287 8.27687Z" fill="#25475B"/>
<path d="M23.8753 9.48933C24.3086 9.48177 24.7424 9.47846 25.1757 9.47941C25.2985 9.47941 25.3108 9.67124 25.1865 9.67077C24.7532 9.66982 24.3195 9.67313 23.8862 9.68069C23.7634 9.68305 23.7515 9.49122 23.8753 9.48933Z" fill="#3F6888"/>
<path d="M23.6825 8.91853C24.1158 8.91097 24.5495 8.90766 24.9828 8.9086C25.1056 8.9086 25.1175 9.10044 24.9937 9.09997C24.5604 9.09902 24.1266 9.10233 23.6933 9.10989C23.5705 9.11225 23.5587 8.92042 23.6825 8.91853Z" fill="#3F6888"/>
<path d="M23.5702 8.39979C24.0034 8.39223 24.4372 8.38892 24.8705 8.38987C24.9933 8.38987 25.0051 8.5817 24.8814 8.58123C24.4481 8.58029 24.0143 8.58359 23.581 8.59115C23.4582 8.59352 23.4464 8.40168 23.5702 8.39979Z" fill="#3F6888"/>
<path d="M23.6772 7.90972C23.9192 7.8757 24.162 7.84451 24.4054 7.81758C24.5849 7.79773 24.8552 7.71646 25.0324 7.81191C25.2015 7.9031 25.2885 8.16061 25.3664 8.32457C25.4746 8.55232 25.5677 8.78621 25.6457 9.02482C25.7156 9.23934 25.7714 9.45668 25.8172 9.6764C25.8531 9.84839 25.881 10.0194 25.7378 10.1371C25.4269 10.3922 24.8741 10.3582 24.489 10.353C24.2598 10.3497 24.2244 9.98305 24.4554 9.98636C24.7758 9.99061 25.0919 9.99108 25.3948 9.89375C25.5086 9.85736 25.494 9.85359 25.4694 9.72979C25.451 9.63671 25.4288 9.5441 25.4042 9.45196C25.3617 9.29036 25.3126 9.13066 25.2559 8.97284C25.1992 8.81503 25.1363 8.65958 25.0664 8.50696C25.0286 8.42427 24.9894 8.32646 24.9402 8.25039C24.8722 8.14455 24.8708 8.15636 24.764 8.15069C24.6066 8.14219 24.4318 8.18424 24.2768 8.20267C24.0878 8.22488 23.8993 8.24945 23.7108 8.27638C23.4854 8.30804 23.4528 7.94137 23.6772 7.90972Z" fill="#AFBDC6"/>
<path d="M22.831 8.13609C23.0025 8.08743 23.1769 8.06475 23.3474 8.01419C23.3739 8.00521 23.4004 7.99671 23.4264 7.98867C23.6527 7.91969 23.7907 8.25942 23.5629 8.34022C23.5038 8.36101 23.4448 8.38038 23.3852 8.39786C23.2463 8.45173 23.1249 8.53347 23.1325 8.70451C23.1424 8.92895 23.2331 9.16993 23.3158 9.37735C23.4032 9.59707 23.5152 9.80591 23.6503 10.0001C23.7306 10.1149 23.7221 10.14 23.8568 10.1234C23.9768 10.1083 24.0968 10.0918 24.2168 10.0762C24.3392 10.0601 24.4092 10.1508 24.4167 10.2472C24.4588 10.3209 24.4564 10.4164 24.3662 10.4769C24.0987 10.6564 23.7349 10.8327 23.4353 10.5936C23.2818 10.4707 23.2218 10.2515 23.1466 10.0781C23.0569 9.87065 22.9671 9.66275 22.8778 9.45532C22.7512 9.16189 22.4625 8.73759 22.5484 8.40447C22.5858 8.25989 22.6916 8.17484 22.8301 8.13562L22.831 8.13609Z" fill="#25475B"/>
<path d="M26.2649 9.26859C26.7634 9.21615 27.2487 9.12637 27.7396 9.02525C28.068 8.95769 28.3912 8.90052 28.7106 8.79751C29.0248 8.6964 29.3367 8.5863 29.6542 8.49558C29.8918 8.42802 30.6346 8.1431 30.7872 8.45117C30.8794 8.63781 30.6899 8.86461 30.5793 8.99738C30.4154 9.19347 30.2434 9.39334 30.0676 9.57667C29.5408 10.1267 28.9431 10.6086 28.2934 11.006C27.7793 11.3202 27.2251 11.5838 26.6377 11.7095C26.5702 11.7242 26.5021 11.7365 26.4331 11.7473C26.4043 11.7516 26.3736 11.7558 26.3471 11.7436C26.3084 11.7261 26.2914 11.6807 26.2786 11.6401C26.0693 10.9809 25.9006 10.3086 25.7735 9.62864C25.7575 9.5417 25.7428 9.4472 25.7844 9.36971C25.852 9.24355 26.143 9.28135 26.2649 9.26859Z" fill="#AFBDC6"/>
<path d="M22.9097 8.18421C22.811 8.1965 22.7529 8.29714 22.7874 8.39637L23.4177 10.2183C23.4456 10.2996 23.5268 10.3516 23.6072 10.3398L24.408 10.2235L24.9996 11.9552C24.9807 11.9293 24.735 11.9274 24.6495 11.8933C24.4973 11.8324 24.365 11.813 24.2011 11.797C23.1573 11.6925 22.0488 11.6609 21.1591 12.3073C19.7279 13.3477 18.3218 14.4255 16.9151 15.4985C15.4882 16.5872 14.073 17.6909 12.6829 18.8259C12.6551 18.8486 12.6272 18.8712 12.5993 18.8939C11.9118 19.4562 11.2305 20.026 10.5477 20.594C10.1924 20.8893 9.83706 21.1837 9.47985 21.4766C9.09571 21.7913 8.85804 22.1201 8.31608 21.951C7.83224 21.8003 7.34935 21.4568 7.03182 21.0665C6.771 20.7456 6.59854 20.3705 6.51302 19.967C6.42041 19.5313 6.2522 18.9894 6.70013 18.704C6.89669 18.5788 7.09089 18.4545 7.27847 18.3165C10.1688 16.3523 13.1101 14.3967 15.9583 12.3498C16.1601 12.2047 16.3623 12.0597 16.5645 11.9151C17.3125 11.3807 18.5552 10.4229 19.2857 9.86395C20.7088 8.77531 20.8742 7.97111 21.694 6.64906C22.0247 6.11513 22.3342 5.56845 22.6286 5.01373L23.679 8.08829L22.9102 8.18374L22.9097 8.18421Z" fill="#3F6888"/>
<path d="M25.1264 3.53583C26.2032 3.33219 28.8516 4.65235 29.5486 4.94294C30.2455 5.234 29.7919 5.78257 29.7919 5.78257C29.6672 5.80147 29.5424 5.82179 29.4177 5.84211C29.0808 5.89786 28.7444 5.9574 28.4089 6.02213C28.1637 6.06938 27.9189 6.11899 27.6746 6.16955C27.5522 6.19507 27.4299 6.21964 27.308 6.2461C27.2106 6.26736 27.1208 6.31744 27.0245 6.34768C26.9167 6.38076 26.8095 6.41431 26.705 6.45683C26.5061 6.53763 26.2907 6.65103 26.1295 6.79467C26.0728 6.84523 25.9854 6.97658 26.0161 7.06258C26.0199 7.07297 27.7129 11.7819 27.7129 11.7819C27.7332 11.8377 27.6921 11.8972 27.633 11.8982L24.9993 11.9539C24.9993 11.9539 25.1207 11.8599 25.091 11.5282C25.0707 11.3009 25.0248 11.0765 24.9724 10.8549C24.9171 10.6233 24.8505 10.3956 24.7815 10.1679L25.4477 10.071C25.6523 10.0412 25.7676 9.82718 25.6892 9.62259L25.0863 8.05105C25.0565 7.97403 24.9795 7.92536 24.902 7.93481L24.1252 8.03121C23.7425 6.88964 23.303 5.76698 22.8083 4.66889C22.7488 4.78371 22.6888 4.89758 22.6283 5.01193L22.5811 4.87348C23.0002 4.35042 24.0501 3.73759 25.1269 3.53394L25.1264 3.53583Z" fill="#C1D0DB"/>
<path d="M24.7819 10.1693C24.8509 10.397 24.918 10.6247 24.9728 10.8563C25.0258 11.0779 25.0711 11.3023 25.0914 11.5296C25.1212 11.8613 25.0002 11.9553 24.9998 11.9553L24.4082 10.2236L24.7819 10.1693Z" fill="#C1D0DB"/>
<path d="M24.1253 8.03309L23.6788 8.08837L22.6284 5.01381C22.6889 4.89994 22.7494 4.78559 22.8084 4.67078C23.3031 5.76887 23.7426 6.89106 24.1253 8.03309Z" fill="#C1D0DB"/>
<path d="M17.1568 15.4858C17.1308 15.5057 17.1053 15.525 17.0793 15.5449C15.5593 16.7044 14.052 17.88 12.5712 19.0891C12.5414 19.1132 12.5121 19.1373 12.4824 19.1619C11.75 19.761 11.0247 20.3682 10.297 20.9725C9.91857 21.2867 9.5401 21.6009 9.15973 21.9128C8.75055 22.2478 8.49729 22.5984 7.91989 22.4184C7.40486 22.2577 6.88984 21.892 6.552 21.4762C6.27417 21.1346 6.09037 20.7348 5.99917 20.3053C5.90042 19.8413 5.72134 19.2639 6.19857 18.9601C6.40789 18.8269 6.61484 18.6946 6.81471 18.5472C9.55852 16.6827 12.4639 14.736 15.1855 12.8101L17.1573 15.4863L17.1568 15.4858Z" fill="#E29530"/>
<path d="M8.57845 20.7619C8.86045 20.4445 8.83175 19.9586 8.51435 19.6766C8.19696 19.3946 7.71105 19.4233 7.42906 19.7407C7.14706 20.0581 7.17576 20.544 7.49315 20.826C7.81055 21.108 8.29646 21.0793 8.57845 20.7619Z" fill="white"/>
<path opacity="0.08" d="M16.9591 14.2771L16.3586 13.4621C16.2461 13.3095 16.2782 13.0945 16.4313 12.982C17.408 12.2629 20.6479 9.86398 20.8473 9.55827C21.0236 9.28753 21.2107 9.02387 21.3964 8.75974C21.5022 8.60854 21.8504 7.91775 22.0163 7.87097C22.3891 7.76513 22.5649 8.80038 22.648 9.0423C22.8129 9.52236 22.9717 10.0048 23.1276 10.4877C23.1763 10.6384 23.069 10.7939 22.9107 10.8019C22.5611 10.8198 21.9912 10.894 21.5684 11.1671C21.0231 11.5196 18.3284 13.6459 17.4486 14.3423C17.2965 14.4628 17.0744 14.4331 16.9591 14.2767V14.2771Z" fill="white"/>
<path d="M7.537 19.6117C7.89988 19.3442 8.41302 19.4217 8.68045 19.7851C8.94789 20.1479 8.86993 20.6611 8.50705 20.9285C8.14416 21.196 7.63103 21.1185 7.36359 20.7551C7.09616 20.3922 7.17412 19.8791 7.537 19.6117ZM7.58803 19.6811C7.26342 19.9202 7.19397 20.379 7.43305 20.7036C7.67214 21.0282 8.13093 21.0977 8.45554 20.8586C8.78015 20.6195 8.84961 20.1607 8.61052 19.8361C8.37144 19.5115 7.91264 19.442 7.58803 19.6811Z" fill="#3F6888"/>
<path d="M12.8691 15.8577L13.2943 16.2007L13.7748 16.1473L13.8386 16.2418L13.7238 16.3231L14.1358 16.3911L14.3588 16.6434L14.2549 17.0748L13.8911 17.3597L13.4663 17.2109L13.1181 16.8093L12.5156 16.3647L12.8691 15.8577Z" fill="#EBCEB1"/>
<path d="M13.3215 15.7661L9.47535 11.9412C9.34258 11.8093 9.25989 11.5254 9.17484 11.3614C8.97261 10.9716 8.77038 10.5813 8.56863 10.1915C8.43018 9.92454 8.25347 9.34809 7.98745 9.18791C7.55369 8.92709 6.93472 9.4355 6.72257 9.7809C6.07099 10.8402 6.79108 11.8968 7.18892 12.915L7.68127 13.7164L12.6312 16.8353L13.3215 15.7661Z" fill="#D1D9DB"/>
<path d="M6.13617 4.94334C6.15271 5.41726 6.34927 5.86944 6.61671 6.25358C6.75515 6.21956 6.88225 6.15011 7.00746 6.08018C7.57021 5.76502 8.12493 5.42198 8.59507 4.97122C9.0652 4.52045 9.44888 3.90809 9.63457 3.40346C9.23436 3.09539 8.60971 2.94277 8.09374 2.97396C7.15158 3.03066 6.09979 3.90384 6.13617 4.94381V4.94334Z" fill="#2A68A8"/>
<path d="M10.2366 2.20857C10.4129 2.14053 10.6288 2.08997 10.7767 2.20715C10.9515 2.34607 10.9123 2.62106 10.8329 2.82991C10.5664 3.53441 10.0297 4.13259 9.35871 4.47374C9.06765 4.62163 8.51813 4.7459 8.38583 4.31545C8.31543 4.08534 8.48411 3.65159 8.58712 3.43518C8.86967 2.84361 9.6578 2.43159 10.2361 2.2081L10.2366 2.20857Z" fill="#2A68A8"/>
<path d="M39.7404 13.2669L39.2702 13.2693C39.2868 13.0174 39.3033 12.7651 39.3198 12.5133C39.3449 12.1357 39.3699 11.7568 39.445 11.3859C39.5646 10.7967 39.8127 10.2344 40.1661 9.74818C39.9879 9.5469 39.6501 9.51429 39.4365 9.67778C39.2797 9.79779 39.2012 9.99246 39.1365 10.1791C38.896 10.8708 38.7387 11.5909 38.6673 12.3195C38.6399 12.5988 38.5723 12.9683 38.5997 13.273L36.9994 13.2815C37.0197 12.9697 37.0405 12.6583 37.0608 12.3465C37.0858 11.9689 37.1109 11.59 37.186 11.2191C37.2611 10.8501 37.3864 10.4914 37.5565 10.155C37.7166 9.8389 37.8806 9.44436 38.1844 9.26198C37.9203 9.25111 37.6543 9.29175 37.4057 9.38152C37.1142 9.48689 36.9753 9.73164 36.8779 10.0118C36.6374 10.7036 36.4801 11.4237 36.4088 12.1523C36.3762 12.4835 36.2873 12.9413 36.3662 13.2674C36.3676 13.2735 36.3686 13.2787 36.37 13.2844L35.9599 13.2867L34.627 18.6199H40.2809L39.7404 13.2674V13.2669Z" fill="#2A68A8"/>
<path d="M31.2529 13.6998L30.3594 13.3156L30.5125 12.931L31.1844 13.06L31.1711 12.8459L31.8945 13.2665L31.7901 13.687L31.2529 13.6998Z" fill="#EBCEB1"/>
<path d="M40.1068 11.015C40.0388 10.9782 39.9608 10.9489 39.8724 10.93C39.5063 10.8515 39.1179 10.9512 38.7871 11.1289C38.2636 11.4105 37.8251 11.8589 37.3365 12.1977C36.778 12.5851 36.2195 12.9731 35.661 13.3605L31.6996 13.0421L31.5356 13.8869L36.2432 15.1839C36.9595 14.6334 37.6574 14.0924 38.403 13.5906C39.0716 13.1408 39.8838 12.7935 40.3081 12.0758C40.5477 11.6704 40.4806 11.2187 40.1068 11.0146V11.015Z" fill="#D1D9DB"/>
<path d="M37.9616 6.66899C37.8298 6.46062 37.7301 6.21397 37.5826 6.04198C37.4036 5.83361 37.0974 5.72493 37.0081 5.46506C36.8994 5.14801 37.0936 4.78607 37.3866 4.65614C37.5628 4.5777 37.7608 4.56305 37.9536 4.57345C38.049 4.57865 38.1459 4.58999 38.2342 4.62684C38.4001 4.69583 38.5248 4.85648 38.5494 5.03414C38.5673 5.16171 38.538 5.29732 38.5881 5.41592C38.754 5.8114 39.2251 5.86574 39.5823 5.95788C39.9475 6.05238 40.2863 6.06797 40.6015 6.308C41.0895 6.67986 41.2639 7.38766 41.0654 7.96837C40.867 8.54907 40.3378 8.98708 39.7439 9.143C39.4103 9.23042 39.6895 8.9781 39.7736 8.89683C39.9404 8.73571 40.0845 8.53631 40.1606 8.31613C40.2594 8.03026 40.2291 7.68534 40.0245 7.46279C39.844 7.26576 39.5671 7.19536 39.3059 7.1396C39.1414 7.10464 38.96 7.04605 38.7908 7.04841C38.6727 7.04983 38.5754 7.08007 38.4549 7.05691C38.2252 7.01344 38.0807 6.85657 37.9621 6.66899H37.9616Z" fill="#534741"/>
<path d="M41.2678 9.44302C41.3803 9.55453 41.5277 9.66652 41.6813 9.62966C41.7857 9.60462 41.8641 9.51201 41.8996 9.41042C41.935 9.30883 41.9331 9.19827 41.9251 9.09101C41.875 8.42998 41.5891 7.78974 41.1298 7.31157C41.042 7.22038 40.9305 7.12824 40.8048 7.14336C40.6295 7.16462 40.5123 7.40088 40.4405 7.54168C40.3842 7.65177 40.5988 7.79636 40.6498 7.91212C40.7117 8.05293 40.7287 8.215 40.6881 8.36431C40.6536 8.49046 40.6432 8.60055 40.7055 8.72435C40.8393 8.98895 41.059 9.2356 41.2678 9.44302Z" fill="#2A68A8"/>
<path d="M39.5085 6.38776C39.7079 6.58337 39.9021 6.7856 40.0694 7.0091C40.3926 7.44144 40.5513 7.93095 40.7956 8.40298C40.926 8.65529 41.0857 8.47054 41.2436 8.30753C41.4037 8.14263 41.5275 7.94181 41.5998 7.72352C41.7241 7.3493 41.6967 6.92641 41.5242 6.57156C41.3829 6.2805 41.1542 6.04283 40.9293 5.80989C40.6321 5.50229 40.1384 5.3596 39.7108 5.36763C39.5118 5.37141 38.9755 5.44748 38.8914 5.67476C38.8149 5.88171 39.3739 6.25546 39.5081 6.38681L39.5085 6.38776Z" fill="#2A68A8"/>
</svg>
