<svg width="32" height="32" viewBox="0 0 32 32" fill="none" xmlns="http://www.w3.org/2000/svg">
<g clip-path="url(#clip0_6413_76082)">
<path d="M11.4254 22.813C11.4854 22.7783 11.3688 22.7666 11.4064 22.7449C11.5921 22.6377 12.4741 22.169 12.6175 22.2037C12.7906 22.4951 13.7493 23.1558 13.8469 23.3732C13.9724 23.6525 13.1487 25.06 13.2689 25.2498L15.1966 26.2936L16.3971 24.8093L18.0765 25.2843C18.2033 25.5908 18.234 25.921 18.3105 26.2372C18.3871 26.5534 18.4292 26.8867 18.5143 27.2076L20.7227 27.2971L21.0646 25.3188C21.5336 25.0712 22.2473 25.1188 22.7562 24.8568C22.7922 24.8591 23.033 25.0642 23.0785 25.1063C23.2381 25.2542 24.0384 26.3282 24.119 26.326C24.3463 26.1572 26.0697 25.3848 26.0714 25.2191L25.4308 23.4919C25.4321 23.3841 26.6588 22.3473 26.7829 22.0983L28.6224 22.8172C28.6997 22.7909 29.3336 21.7224 29.4225 21.5641C29.5465 21.3431 29.6839 21.1289 29.7893 20.8974L28.2545 19.7463C28.4789 19.1252 28.6364 18.6835 28.7652 18.027C28.7892 17.9033 28.8203 17.8054 28.8358 17.6702L30.7189 17.3347L30.7617 15.1137L28.8092 14.8166L28.3687 12.7166L29.7978 11.5947L28.7479 9.70773L26.8633 10.2811L25.3949 8.83436L26.1138 6.99492C25.8531 6.86885 24.2701 5.86793 24.109 5.95612L23.0145 7.41876L20.8551 6.86523L20.5873 4.96238C20.5393 4.91777 20.4349 4.95881 20.4257 4.95637C20.2245 4.91834 18.4411 4.92069 18.3711 4.99481L18.0565 6.91692L16.2609 7.439L14.9452 5.98305C14.322 6.37082 13.6165 6.67789 13.0743 7.1625C13.1283 7.44643 13.7432 8.75674 13.7023 8.93642C13.6746 9.06035 12.9588 9.58156 12.8857 9.78374C12.8686 9.79749 12.8436 9.80422 12.8264 9.81796C12.7352 9.89187 12.5392 10.2035 12.4523 10.2315C12.3372 10.2691 10.8432 9.63114 10.5882 9.60681C10.464 9.64867 9.60175 11.3184 9.48517 11.5688L10.8889 12.8351C10.8307 13.4152 10.5676 13.9593 10.5309 14.5452L8.58326 14.8389L8.54046 17.0599C8.93659 17.237 10.3077 17.2298 10.506 17.5866C10.5571 17.6785 10.6061 18.159 10.6499 18.315C10.6966 18.4827 10.9676 19.578 10.9648 18.9639C11.0758 19.1561 11.0815 19.0458 11.2183 19.0941C10.9638 19.2459 10.7036 19.3912 10.4471 19.5394L9.80233 19.7931C9.83871 19.7576 10.2851 19.1019 10.2877 19.058C10.2916 19.0046 10.0434 18.0724 10.0106 18.0306C9.90724 17.8966 8.53197 17.5477 8.28679 17.4435L8.30574 14.5636C8.39704 14.4463 9.89244 14.2488 10.0296 14.1225C10.072 14.0825 10.3233 13.0489 10.3072 12.9926C10.2269 12.72 9.10656 11.8394 9.10103 11.6913L10.4839 9.15241C10.7514 9.18496 12.2201 9.68909 12.3685 9.60727C12.4159 9.58087 13.0414 8.81493 13.0468 8.76077C13.0716 8.51325 12.5564 7.13862 12.6289 7.04378L15.0579 5.56236C15.2678 5.69559 16.3015 6.81998 16.4237 6.83134C16.485 6.83738 17.5543 6.51108 17.5992 6.46875C17.7171 6.35736 17.9514 4.75527 18.0758 4.69023L20.8975 4.6435L21.3843 6.47974L22.7946 6.83258L23.945 5.53521L24.0921 5.54957L26.5374 6.90742L26.053 8.80907L26.9029 9.66367C27.131 9.77487 28.7309 9.2193 28.8137 9.27266C28.9633 9.60357 30.2528 11.6066 30.1698 11.7933C30.0003 11.9789 28.8958 12.9519 28.8901 13.1056C28.8882 13.1674 29.18 14.2537 29.2223 14.2986C29.3193 14.3997 31.0052 14.7042 31.0647 14.8173L31.0054 17.6608L29.2463 18.1425L28.8467 19.5402L30.1954 20.7796L28.708 23.241C28.4765 23.2272 26.9709 22.7193 26.8827 22.7519C26.8279 22.772 26.0819 23.5313 26.0578 23.5848C25.9888 23.7374 26.5241 25.3239 26.4738 25.4021L23.9764 26.765C23.8869 26.7636 22.9466 25.6123 22.7109 25.4978C22.6535 25.4702 21.6649 25.644 21.609 25.6791C21.414 25.8004 21.1857 27.4731 21.031 27.5557L18.1465 27.4604C18.0424 27.1649 17.8144 25.8953 17.6587 25.724C17.6171 25.6787 16.6247 25.5173 16.4821 25.4338L15.2975 26.6719L12.7814 25.2951C12.8212 25.062 13.2313 23.6341 13.1816 23.5212C13.1582 23.4691 12.4197 22.7458 12.3658 22.7259C12.2438 22.6797 11.6094 22.8629 11.4273 22.8128L11.4254 22.813Z" fill="#51676F"/>
<path d="M28.8333 17.6689C28.8182 17.8048 28.7871 17.9027 28.7627 18.0257C28.4802 17.6048 26.9553 18.2337 26.8328 17.9729C26.8242 17.9547 26.9079 17.8226 26.8319 17.8346C26.9707 17.2254 27.0276 16.4977 27.0059 15.8742C27.1121 15.8428 27.0876 15.5283 27.0802 15.4555C27.022 14.827 26.7873 14.1636 26.6767 13.5914C26.5899 13.3842 26.4576 13.1802 26.3637 12.9809C25.8405 11.8692 25.2557 11.1034 24.3749 10.2907C24.2191 10.2611 23.502 9.64497 23.4452 9.64015C23.4005 9.6361 23.3014 9.69141 23.2415 9.69799C21.2547 8.51677 18.9897 8.51961 16.8876 9.21189C16.7362 9.26174 16.1691 9.61996 16.0993 9.62751C16.0785 9.62988 15.7452 9.53509 15.7014 9.5209C14.4796 9.11899 14.6099 7.57027 13.8972 6.7048C13.8058 6.87033 13.2678 7.02003 13.2427 7.18194C13.202 7.44351 13.9132 8.74056 13.7887 8.98397C13.7663 9.02682 13.1976 9.61921 13.1241 9.68383C13.0505 9.74844 12.8939 9.77429 12.8843 9.78272C12.9574 9.58053 13.6732 9.05933 13.701 8.9354C13.7406 8.75541 13.1262 7.44582 13.0729 7.16148C13.6158 6.67645 14.3206 6.36979 14.9438 5.98203L16.2595 7.43797L18.0551 6.9159L18.3698 4.99379C18.4404 4.91925 20.2227 4.91659 20.4244 4.95534L20.7523 6.96227L23.0815 7.53627L24.1931 6.10326C24.4364 6.29918 25.7739 6.90503 25.8867 7.08372C25.9933 7.25157 25.2574 8.58425 25.2574 8.87141C25.2748 8.92982 25.9476 9.39909 26.064 9.51399C26.2429 9.69022 26.8147 10.477 26.9886 10.4643L28.5797 9.8618C28.7314 9.87251 29.452 11.3444 29.6097 11.5424L28.2085 12.7475L28.7071 14.9132L30.6121 15.1982L30.6019 17.2019C30.3441 17.3112 28.8856 17.4074 28.78 17.5416C28.7449 17.5859 28.8344 17.6625 28.8333 17.6689Z" fill="#D4DFE6"/>
<path d="M23.077 25.1071C23.0314 25.065 22.7907 24.86 22.7546 24.8577C22.2458 25.1196 21.5321 25.072 21.0631 25.3196C21.0595 25.3217 21.0332 25.2328 20.9841 25.2862L20.6352 27.1491L18.6144 27.1092C18.5601 27.0635 18.4814 26.4064 18.4488 26.2749C18.361 25.9141 18.279 25.5518 18.1463 25.2034L16.3735 24.7034L15.1558 26.1581L13.3859 25.1822C13.2943 25.0153 14.0999 23.6848 13.9513 23.3523C13.8252 23.0705 12.8744 22.4302 12.6707 22.094C12.9712 21.8183 13.8334 21.3137 14.2217 21.0799C15.9355 22.9449 18.564 23.9456 21.0681 23.3787C21.0858 23.3743 21.2511 23.2432 21.35 23.216C21.3908 23.2049 21.4446 23.198 21.456 23.1943C22.3593 22.931 22.8715 22.775 23.7173 22.2453C23.9818 22.0791 24.2259 21.8909 24.4676 21.6936L25.8163 22.9329C25.6985 23.0511 25.3053 23.3715 25.3046 23.4856L25.8924 25.2231L24.1372 26.1574C24.0719 26.1595 23.3888 25.3001 23.272 25.1728C23.2304 25.1275 23.125 24.9667 23.0762 25.1076L23.077 25.1071Z" fill="#757C87"/>
<path d="M13.1789 12.8976C13.1036 13.0509 13.009 13.2309 12.9474 13.3879C12.8845 13.2256 12.8206 13.382 12.7965 13.4354C12.4847 14.1339 12.357 14.8958 12.3156 15.6521C12.2808 16.2928 12.3094 16.6261 12.412 17.2579C12.4636 17.576 12.5505 17.8901 12.6225 18.2051C12.5265 18.2692 12.422 18.3083 12.3255 18.3766C12.0232 18.5925 11.5982 18.8678 11.217 19.0956C11.0802 19.0473 11.0741 19.1569 10.9635 18.9654C10.9663 19.5795 10.6946 18.4846 10.6486 18.3164C10.7449 18.3129 10.7685 18.3773 10.7584 18.2328C10.7498 18.1028 10.6039 17.5096 10.5251 17.4182C10.3176 17.1757 8.76052 17.0676 8.68734 16.9759L8.7272 14.9551L10.5958 14.6279C10.6288 14.5482 10.6108 14.4902 10.5293 14.5478C10.566 13.9619 10.8291 13.4178 10.8873 12.8377C10.8882 12.8276 10.976 12.8627 10.9675 12.7712L10.9162 12.6823L9.64843 11.5148C9.63379 11.4577 10.1212 10.5894 10.1921 10.4684C10.6232 10.7862 10.9145 11.3842 11.2733 11.7235C11.4208 11.8638 11.7505 11.9809 11.8787 12.0861C12.0133 12.1973 12.2217 12.5366 12.357 12.6407C12.5416 12.7818 12.9562 12.8306 13.1786 12.8987L13.1789 12.8976Z" fill="url(#paint0_linear_6413_76082)"/>
<path d="M26.426 13.6379C26.4196 13.6319 26.3262 13.657 26.2686 13.5707C24.7194 9.74391 20.2838 7.8534 16.5524 9.76298C16.5483 9.76435 16.5379 9.70963 16.503 9.71248C16.3979 9.71916 15.9408 10.0775 15.791 10.1235L15.7864 10.0471C15.3952 10.1506 14.9232 10.5484 14.6213 10.8384C14.0783 11.36 13.5093 12.2205 13.1794 12.8977C12.9573 12.8302 12.5423 12.7807 12.3577 12.6396C12.2217 12.536 12.014 12.1962 11.8795 12.085C11.7512 11.9798 11.4223 11.8623 11.274 11.7224C10.916 11.3827 10.624 10.7851 10.1929 10.4674C10.3354 10.2251 10.4732 9.9798 10.6253 9.74258C10.865 9.79214 12.3869 10.3966 12.4894 10.3673C12.5218 10.3583 12.9532 9.87694 12.8243 9.81737C12.8415 9.80363 12.8665 9.79689 12.8836 9.78315C12.8932 9.77472 13.0485 9.75157 13.1233 9.68426C13.1982 9.61694 13.7655 9.02725 13.788 8.9844C13.9125 8.74099 13.2024 7.44425 13.242 7.18237C13.2668 7.0216 13.8051 6.87075 13.8965 6.70523C14.6092 7.5707 14.4789 9.11942 15.7007 9.52133C15.7445 9.53552 16.0778 9.63031 16.0986 9.62794C16.1695 9.62069 16.7362 9.26175 16.8869 9.21232C18.9886 8.51932 21.254 8.5172 23.2408 9.69842C23.6224 9.92529 23.8175 10.0613 24.1409 10.366C24.2634 10.4813 24.3836 10.6095 24.529 10.6961C24.5342 10.7018 24.5768 10.7321 24.61 10.7679C25.28 11.4893 25.8184 12.1865 26.2604 13.0791C26.329 13.2178 26.451 13.476 26.4244 13.6368L26.426 13.6379Z" fill="#B7B7BB"/>
<path d="M28.7617 18.0261C28.6321 18.683 28.4754 19.1243 28.251 19.7454C28.2458 19.7599 28.1681 19.772 28.1708 19.8119L29.5742 20.9406C29.6544 21.0996 29.1637 21.4899 29.4194 21.5639C29.3313 21.7217 28.6966 22.7907 28.6193 22.817L26.7799 22.0981C26.6557 22.3471 25.4298 23.3835 25.4277 23.4917L26.0683 25.2189C26.0666 25.3846 24.3433 26.157 24.116 26.3258C24.036 26.3276 23.235 25.254 23.0754 25.1061C23.1238 24.9645 23.2291 25.1253 23.2712 25.1714C23.3876 25.2979 24.0711 26.158 24.1364 26.156L25.8916 25.2216L25.3038 23.4842C25.3045 23.3701 25.6984 23.0492 25.8154 22.9315C25.9015 22.8452 26.4469 22.3877 26.4456 22.3104L24.9621 21.2481C25.8483 20.3645 26.5522 19.0531 26.8302 17.8354C26.9062 17.8234 26.8221 17.9548 26.8311 17.9737C26.9536 18.2345 28.4785 17.6056 28.761 18.0265L28.7617 18.0261Z" fill="#B7B7BB"/>
<path d="M28.8331 17.669C28.8338 17.6619 28.7448 17.5861 28.7799 17.5417C28.8855 17.4075 30.344 17.3113 30.6018 17.202L30.612 15.1983L28.707 14.9133L28.2083 12.7477L29.6096 11.5425C29.4519 11.3445 28.732 9.87223 28.5795 9.86193L26.9884 10.4645C26.815 10.4779 26.2427 9.69035 26.0639 9.51412C25.9474 9.39922 25.2754 8.92954 25.2573 8.87154C25.2573 8.58438 25.9932 7.2517 25.8866 7.08385C25.7738 6.90516 24.4355 6.29973 24.193 6.1034L23.0814 7.5364L20.7522 6.96241L20.4242 4.95547C20.4336 4.95678 20.5385 4.91646 20.5857 4.96148L20.8536 6.86433L23.0129 7.41787L24.1075 5.95523C24.2678 5.86745 25.8509 6.86838 26.1123 6.99403L25.3934 8.83346L26.8618 10.2802L28.7463 9.70684L29.7962 11.5938L28.3672 12.7157L28.8077 14.8157L30.7602 15.1128L30.7174 17.3338L28.8343 17.6693L28.8331 17.669Z" fill="#D4DFE6"/>
<path d="M18.45 26.2751L18.3098 26.2375C18.234 25.9209 18.2033 25.5907 18.0757 25.2847L16.3964 24.8096L15.1959 26.294L13.2681 25.2502C13.1479 25.0603 13.9712 23.6521 13.8461 23.3736C13.7485 23.1562 12.7898 22.4954 12.6168 22.2041C12.5543 22.1226 12.6318 22.1299 12.6714 22.0935C12.8756 22.4305 13.826 23.07 13.9521 23.3519C14.1007 23.6843 13.2951 25.0148 13.3866 25.1817L15.1566 26.1576L16.3743 24.7029L18.1471 25.203C18.2791 25.5518 18.3622 25.9143 18.4496 26.2744L18.45 26.2751Z" fill="#A6A7A8"/>
<path d="M10.6493 18.3153C10.6063 18.159 10.5565 17.6789 10.5054 17.587C10.3071 17.2302 8.936 17.2373 8.53986 17.0603L8.58267 14.8393L10.5303 14.5456C10.6118 14.488 10.6295 14.5471 10.5968 14.6257L8.7282 14.9529L8.68834 16.9736C8.76152 17.0654 10.3194 17.173 10.5261 17.416C10.6042 17.5078 10.7501 18.101 10.7594 18.2306C10.7691 18.3743 10.7454 18.3099 10.6496 18.3142L10.6493 18.3153Z" fill="#D4DFE6"/>
<path d="M10.1933 10.4669C10.1224 10.5878 9.63567 11.4557 9.64959 11.5132L10.9173 12.6807L10.9686 12.7696C10.976 12.8608 10.889 12.8253 10.8885 12.8361L9.48473 11.5698C9.6009 11.3187 10.4636 9.64972 10.5878 9.60786C10.8428 9.63219 12.3371 10.2709 12.4519 10.2326C12.5395 10.2041 12.735 9.89178 12.826 9.81902C12.9537 9.87828 12.523 10.3592 12.4911 10.369C12.3881 10.3976 10.8667 9.79379 10.627 9.74423C10.4749 9.98145 10.337 10.2268 10.1945 10.469L10.1933 10.4669Z" fill="#D4DFE6"/>
<path d="M21.0633 25.3197L20.7214 27.298L18.5129 27.2085C18.4271 26.888 18.3865 26.5606 18.3092 26.2381L18.4494 26.2756C18.4813 26.4076 18.5603 27.0636 18.6151 27.11L20.6359 27.1499L20.9847 25.287C21.0338 25.2336 21.0594 25.3229 21.0637 25.3204L21.0633 25.3197Z" fill="#C5C8C9"/>
<path d="M29.4197 21.564C29.164 21.49 29.6547 21.0997 29.5745 20.9407L28.1712 19.812C28.1684 19.7722 28.2462 19.76 28.2513 19.7455L29.7861 20.8966C29.6807 21.1281 29.5433 21.3423 29.4193 21.5633L29.4197 21.564Z" fill="#D4DFE6"/>
<path d="M14.2231 21.0791C14.2938 21.0364 14.3468 21.0482 14.418 21.0061C14.6711 21.336 15.0033 21.576 15.3272 21.8265C16.6412 22.8421 18.2519 23.3818 19.9181 23.37L21.3521 23.2148C21.2531 23.242 21.0879 23.3731 21.0702 23.3775C18.5661 23.9444 15.9369 22.9442 14.2238 21.0787L14.2231 21.0791Z" fill="#54545B"/>
<path d="M15.394 21.6685C15.3407 21.758 15.2285 21.6889 15.3268 21.8258C15.0029 21.5753 14.6707 21.3353 14.4176 21.0054C14.4667 20.977 14.5166 20.9482 14.5657 20.9199C14.8258 21.1851 15.0967 21.444 15.394 21.6685Z" fill="#A6A7A8"/>
<path d="M27.0056 15.8753C26.9929 15.5261 26.9631 15.0171 26.8729 14.6857C26.8676 14.6665 26.8439 14.6455 26.8387 14.6264C26.529 13.1919 25.7347 11.7144 24.6115 10.7689C24.5784 10.7331 24.5354 10.7021 24.5306 10.6971C24.4234 10.5816 24.3245 10.3786 24.1425 10.3671C23.8195 10.063 23.6239 9.9263 23.2424 9.69942C23.3018 9.69212 23.4009 9.63681 23.4461 9.64158C23.5028 9.6464 24.2188 10.2623 24.3758 10.2921C25.2561 11.1041 25.8401 11.8704 26.3646 12.9823C26.4584 13.1816 26.5911 13.3864 26.6775 13.5928C26.7882 14.165 27.0228 14.8285 27.0811 15.4569C27.0877 15.5301 27.1129 15.8442 27.0067 15.8756L27.0056 15.8753Z" fill="#FEFEFF"/>
<path d="M27.0054 15.8752C27.0272 16.4987 26.9703 17.2264 26.8315 17.8356C26.5534 19.0533 25.8495 20.3647 24.9633 21.2483C24.8074 21.4039 24.6391 21.5531 24.468 21.6924C24.227 21.8893 23.9834 22.0782 23.7177 22.244L23.6835 22.1848C25.9266 20.7452 27.2409 17.9606 26.9167 15.3126C26.9037 15.2083 26.6968 14.7698 26.8713 14.6864C26.9615 15.0179 26.992 15.5264 27.004 15.8761L27.0054 15.8752Z" fill="#919096"/>
<path d="M26.8384 14.6264C26.8436 14.6455 26.8673 14.6666 26.8726 14.6857C26.6978 14.7702 26.905 15.2076 26.918 15.3119C27.2422 17.9599 25.9268 20.7442 23.6849 22.1841C22.9684 22.644 22.2628 22.9309 21.4582 23.1931C21.4468 23.1967 21.393 23.2037 21.3522 23.2147L19.9182 23.37C18.252 23.3818 16.6413 22.842 15.3273 21.8265C15.2286 21.6888 15.3412 21.7587 15.3945 21.6691C18.5773 24.0738 23.1144 23.4627 25.4525 20.1747C26.0714 19.3038 26.4366 18.4607 26.6217 17.4027C26.8392 16.1602 26.7463 14.749 26.2691 13.5703C26.3266 13.6565 26.4205 13.6322 26.4264 13.6375C26.486 13.6889 26.8051 14.5088 26.8391 14.626L26.8384 14.6264Z" fill="#D4DFE6"/>
<path d="M25.8174 22.9313L24.4687 21.692C24.6398 21.5527 24.8088 21.4031 24.964 21.248L26.4475 22.3102C26.4481 22.388 25.9034 22.845 25.8174 22.9313Z" fill="#919096"/>
<path d="M23.7184 22.2438C22.873 22.7743 22.3603 22.9296 21.4571 23.1928C22.2617 22.9306 22.9672 22.6437 23.6837 22.1838L23.7179 22.2431L23.7184 22.2438Z" fill="#54545B"/>
<path d="M16.5524 9.76305C13.4609 11.3456 11.9845 14.8058 12.9855 18.1135C12.929 18.1394 12.8784 18.1802 12.8221 18.2079C12.7585 18.2079 12.5705 17.3431 12.5477 17.2185C12.4696 16.7827 12.4362 16.1322 12.4559 15.6891C12.4879 14.995 12.6931 14.0334 12.9474 13.3873C13.0091 13.2303 13.1041 13.0511 13.179 12.897C13.51 12.2202 14.078 11.3594 14.621 10.8377C14.9229 10.5477 15.3956 10.1496 15.7861 10.0465L15.7907 10.1229C15.9405 10.0769 16.3983 9.71809 16.5026 9.71183C16.5369 9.7094 16.548 9.7637 16.552 9.76233L16.5524 9.76305Z" fill="#D4DFE6"/>
<path d="M12.9471 13.3872C12.6927 14.0332 12.4871 14.9942 12.4555 15.689L12.3153 15.6514C12.3571 14.8958 12.4844 14.1332 12.7962 13.4348C12.8196 13.3818 12.8842 13.2249 12.9471 13.3872Z" fill="#757C87"/>
<path d="M12.5489 17.2188L12.4132 17.2576C12.3102 16.6251 12.2816 16.2918 12.3169 15.6518L12.4571 15.6894C12.4373 16.1325 12.4712 16.7837 12.5489 17.2188Z" fill="#64646C"/>
<path d="M26.2685 13.5706C26.7457 14.7493 26.8394 16.1601 26.6212 17.403L26.5277 17.3779C27.359 12.1142 22.282 7.99099 17.289 9.49656C17.1487 9.539 16.6755 9.80933 16.6021 9.81411C16.5674 9.81582 16.5567 9.76224 16.5527 9.7636C20.2834 7.85444 24.7197 9.74453 26.269 13.5713L26.2685 13.5706Z" fill="#171A1F"/>
<path d="M26.8386 14.6264C26.8047 14.5091 26.4855 13.6892 26.426 13.6378C26.4522 13.4762 26.3305 13.2188 26.262 13.0801C25.8199 12.1875 25.2808 11.4907 24.6115 10.7689C25.7351 11.7151 26.5289 13.1919 26.8386 14.6264Z" fill="#A6A7A8"/>
<path d="M24.53 10.6964C24.3846 10.6097 24.2643 10.4816 24.1419 10.3663C24.3239 10.3778 24.4228 10.5809 24.53 10.6964Z" fill="#A6A7A8"/>
<path d="M25.4524 20.1747C25.8981 19.2909 26.3715 18.3681 26.5281 17.3775L26.6216 17.4026C26.4365 18.4607 26.0713 19.3037 25.4524 20.1747Z" fill="#2B373E"/>
<path d="M26.5273 17.3773C26.3707 18.3679 25.8974 19.2907 25.4516 20.1745C23.1134 23.4624 18.5771 24.0731 15.3936 21.6689C15.0968 21.4451 14.8266 21.1858 14.5653 20.9203C14.8696 20.7446 15.1388 20.5699 15.4558 20.4062C18.5292 23.456 23.8991 22.3478 25.3938 18.1899C26.6514 14.6912 24.5259 10.8444 20.8569 10.1265C16.4937 9.27262 12.707 13.3198 13.858 17.5702C13.5924 17.7312 13.2469 17.9924 12.9846 18.1139C11.9837 14.8062 13.4601 11.346 16.5516 9.76346C16.5556 9.76209 16.566 9.81681 16.601 9.81396C16.6748 9.80991 17.1476 9.53886 17.2879 9.49641C22.2816 7.99042 27.3578 12.114 26.5266 17.3778L26.5273 17.3773Z" fill="#435961"/>
<path d="M19.917 14.1509C19.6644 14.3141 19.3862 14.4449 19.1307 14.6049C19.0448 14.6949 19.0531 16.447 19.1158 16.5322C19.17 16.606 20.6204 17.4223 20.7114 17.4112C21.0204 17.2955 21.2712 17.0822 21.557 16.923C21.7451 17.0168 22.1939 16.5505 22.3184 16.5624C22.418 16.5714 22.3926 16.9263 22.6829 16.7481C22.0707 17.1015 21.4672 17.4818 20.8255 17.7809C20.695 17.7435 19.0003 16.7261 18.9373 16.6353C18.8972 16.5775 18.854 15.6715 18.8476 15.52C18.8396 15.3377 18.8053 14.6656 18.835 14.5385C18.8662 14.4039 18.8913 14.3355 19.0017 14.2447C19.4835 13.849 20.6996 13.2529 21.3016 12.9169L20.3249 13.5203L20.7872 13.2929L20.9241 13.5299C20.5695 13.7086 20.2486 13.9373 19.9178 14.1505L19.917 14.1509Z" fill="#4F3624"/>
<path d="M22.2981 12.381C22.2086 12.5415 22.0296 12.4984 22.0136 12.5058C19.5685 10.9665 16.2568 12.6434 16.2896 15.6129C16.1644 15.5146 16.1561 15.5252 16.0433 15.597C15.9713 15.3553 16.0595 14.9256 16.1262 14.679C16.6618 12.7006 18.4468 11.4841 20.4906 11.6841C20.8555 11.7201 22.1613 12.0456 22.2981 12.381Z" fill="#7F664C"/>
<path d="M18.4323 19.5981C18.516 19.491 18.3883 19.3768 18.5713 19.3598C20.5672 20.4115 22.8923 19.4112 23.6684 17.3267C23.8204 16.919 23.8277 16.3558 23.9577 16.0119C24.0145 15.8615 24.0208 15.8473 24.1738 15.7686C24.3015 15.9146 24.2212 16.4149 24.186 16.6125C23.7875 18.8384 21.7093 20.3766 19.4512 19.9591C19.0542 19.8857 18.7621 19.692 18.4316 19.5985L18.4323 19.5981Z" fill="#7F664C"/>
<path d="M24.1741 15.7686C24.0218 15.8469 24.0155 15.8611 23.958 16.0119L22.6823 16.7484C22.392 16.9267 22.4178 16.5725 22.3178 16.5628C22.1933 16.5508 21.7446 17.0171 21.5565 16.9233C21.8705 16.7478 23.7453 15.5951 23.886 15.5784C23.9031 15.5762 24.1488 15.7398 24.1741 15.7686Z" fill="#3D2B1E"/>
<path d="M19.9169 14.1508C20.2485 13.9372 20.5694 13.7085 20.9233 13.5303L20.7864 13.2932L20.3241 13.5206L21.3008 12.9172C21.5305 12.7894 21.7813 12.6128 22.0127 12.5061C22.0287 12.4988 22.2078 12.5419 22.2973 12.3814C22.3223 12.4431 22.3605 12.7564 22.3225 12.8024L19.9166 14.1519L19.9169 14.1508Z" fill="#3D2B1E"/>
<path d="M22.0137 12.5057C21.7823 12.6124 21.5308 12.7894 21.3017 12.9168C20.6997 13.2528 19.4836 13.8489 19.0019 14.2446C18.8914 14.3354 18.8663 14.4038 18.8352 14.5384C18.6915 14.5067 18.8215 14.3179 18.8491 14.2538L21.7108 12.5621C19.8106 11.7211 17.1687 12.3781 16.5404 14.5382C16.7038 14.5007 16.6523 14.6018 16.6598 14.608C16.5243 14.5369 16.4509 15.1026 16.4411 15.1891C16.2703 16.7343 17.0277 18.2081 18.3153 19.0529C20.6705 20.5967 23.3806 18.7709 23.7639 16.2232L20.9507 17.8272C20.8937 17.862 20.8318 17.7831 20.825 17.7812C21.4659 17.4825 22.0701 17.1019 22.6823 16.7484L23.958 16.0119C23.8275 16.3551 23.8206 16.919 23.6686 17.3267C22.8914 19.4109 20.5674 20.4115 18.5715 19.3598C17.1993 18.6371 16.3064 17.1674 16.2897 15.6129C16.2574 12.6441 19.5686 10.9665 22.0137 12.5057Z" fill="#FEFEFF"/>
<path d="M16.6595 14.6072C17.1614 15.0325 18.2436 15.2394 18.8479 15.5199C18.8543 15.6713 18.8982 16.5769 18.9376 16.6351C18.9999 16.7263 20.6949 17.7426 20.8259 17.7807C20.8327 17.7826 20.8946 17.8615 20.9516 17.8266L23.7648 16.2227C23.3811 18.7697 20.6707 20.5966 18.3162 19.0524C17.0279 18.208 16.2712 16.7338 16.442 15.1886C16.4518 15.1021 16.5252 14.5364 16.6607 14.6075L16.6595 14.6072Z" fill="#B7B7BB"/>
<path d="M18.8354 14.5385C18.8056 14.6655 18.84 15.3376 18.8479 15.52C18.2437 15.2396 17.1608 15.0331 16.6596 14.6074C16.6525 14.6018 16.7036 14.5 16.5403 14.5375C17.1685 12.3775 19.8104 11.7205 21.7107 12.5614L18.8489 14.2531C18.8214 14.3172 18.6914 14.506 18.835 14.5377L18.8354 14.5385Z" fill="#FEFEFF"/>
<path d="M15.266 16.7177C15.2248 16.755 15.1623 16.847 15.1224 16.8796C13.8267 17.9505 11.3327 19.1091 9.78102 19.9635C9.96944 19.7824 10.2222 19.6693 10.4462 19.5399C10.7028 19.3918 10.9629 19.2464 11.2174 19.0947C11.5986 18.8669 12.0237 18.5916 12.3259 18.3756C12.4217 18.3078 12.527 18.2682 12.623 18.2041C12.5514 17.8899 12.4641 17.575 12.4125 17.2569L12.5481 17.2181C12.5705 17.342 12.7585 18.2068 12.8225 18.2075C12.8788 18.1798 12.9294 18.139 12.9858 18.1132C13.2474 17.992 13.5937 17.7305 13.8592 17.5694C14.5768 17.1349 15.0837 16.8326 15.6484 16.1799C15.7777 16.03 15.8662 15.7409 16.0129 15.6128C16.064 16.122 15.6102 16.4043 15.2655 16.717L15.266 16.7177Z" fill="#54432E"/>
<path d="M18.4327 19.5982C18.3357 19.5703 18.2216 19.563 18.1226 19.5401C17.651 19.4327 17.6307 19.5109 17.2004 19.5185C16.878 19.5243 17.0992 19.4834 16.9658 19.3175C16.6446 18.918 16.2127 18.2085 15.9347 17.7368C15.9184 17.7086 15.9943 17.6349 15.9893 17.6262C15.9464 17.5518 15.816 17.4613 15.7586 17.3634C15.754 17.3554 15.7553 17.2159 15.7323 17.181C15.6399 17.0377 15.4249 16.8005 15.267 16.7172C15.6116 16.4045 16.0655 16.1223 16.0143 15.6131C16.0229 15.6062 16.0346 15.6014 16.044 15.596C16.1567 15.5241 16.1657 15.5131 16.2902 15.6118C16.3069 17.1663 17.1997 18.6361 18.572 19.3587C18.3891 19.3757 18.5167 19.4899 18.433 19.597L18.4327 19.5982Z" fill="#54432E"/>
<path d="M5.67669 22.1751C7.1037 21.5671 8.42163 20.7117 9.78114 19.9634C11.3328 19.109 13.8269 17.9505 15.1225 16.8796C15.1603 16.9368 15.0466 17.1037 15.0151 17.1392C14.5982 17.6189 13.2472 18.2852 12.6328 18.6331C11.2814 19.3989 6.95076 22.0216 5.74206 22.2549C5.6408 22.2748 5.63435 22.267 5.67555 22.1748L5.67669 22.1751Z" fill="#FEFEFF"/>
<path d="M16.928 19.5964C15.2791 20.0906 13.1317 21.6726 11.5965 22.5955C10.2229 23.4213 8.81112 24.1391 7.50845 25.0743L7.60336 24.8615C10.4448 23.5101 13.7957 20.4122 16.7429 19.5847C16.7904 19.5718 16.9111 19.5271 16.928 19.5964Z" fill="#FEFEFF"/>
<path d="M16.9279 19.5964C16.9113 19.526 16.7899 19.571 16.7429 19.5847C13.7956 20.4122 10.444 23.5105 7.60327 24.8614L7.50836 25.0743C7.16175 25.3235 6.83563 25.5966 6.48766 25.8419C6.79825 24.5254 5.91875 22.992 4.62025 22.6074C4.5836 22.5389 5.57834 22.2171 5.67681 22.1757C5.63489 22.2683 5.64206 22.2757 5.74332 22.2558C6.95088 22.0222 11.2823 19.3991 12.634 18.634C13.2484 18.2861 14.599 17.6191 15.0163 17.1401C15.0471 17.105 15.1609 16.9381 15.1238 16.8805C15.1644 16.8474 15.2269 16.7554 15.2674 16.7186C15.4253 16.8018 15.6399 17.0383 15.7327 17.1823C15.755 17.2176 15.7544 17.3568 15.7589 17.3647C15.8164 17.4626 15.946 17.5535 15.9897 17.6276C15.9951 17.637 15.918 17.7104 15.935 17.7382C16.2131 18.2098 16.645 18.9194 16.9662 19.3189C17.0996 19.4847 16.8784 19.5257 17.2007 19.5198C17.1207 19.5699 17.0151 19.5721 16.9295 19.5974L16.9279 19.5964Z" fill="#B7B7BB"/>
<path d="M16.0204 18.1613C16.1994 18.4329 16.1704 18.8168 16.0227 19.09C13.3282 20.9762 10.3141 22.4659 7.48566 24.1769C6.5647 24.538 5.79145 23.1303 6.57304 22.5277L14.7682 17.8753C15.1605 17.6902 15.771 17.7811 16.0211 18.1609L16.0204 18.1613Z" fill="#FEFEFF"/>
<path d="M15.689 19.1641C15.5417 19.1528 14.987 19.0066 14.8826 19.0361C14.7142 19.0832 13.9958 19.5182 13.7676 19.6403C11.8821 20.6527 9.49039 21.9767 7.71355 23.1356C7.32204 23.3905 7.02256 23.4844 6.99725 23.9847C6.91441 23.9564 6.84509 23.9415 6.77606 23.8754L6.9223 23.7514L7.04785 23.2829C8.81606 22.2793 10.6024 21.3155 12.3642 20.2925C12.8953 19.9839 13.531 19.5543 14.0509 19.2397C14.1609 19.1732 14.8625 18.7508 14.9117 18.7427C15.032 18.7223 15.6628 19.1388 15.8287 18.9254C15.7942 19.0176 15.7526 19.0908 15.6897 19.1637L15.689 19.1641Z" fill="#C5C8C9"/>
<path d="M15.7008 18.0883L15.7198 18.1564L15.5815 18.1572C15.5119 18.1001 15.4904 18.0913 15.4071 18.0604C15.0309 17.9229 14.5774 18.2107 14.2292 18.3838C13.5794 18.7089 12.6994 19.2796 11.9589 19.6946C10.6657 20.4191 9.39406 21.1677 8.1159 21.9133C7.60326 22.2122 6.64433 22.4642 6.51207 23.0764C6.43458 23.4362 6.49057 23.5032 6.72361 23.785C6.74422 23.8106 6.75508 23.8545 6.77494 23.8739C6.84397 23.94 6.91329 23.9549 6.99613 23.9832C7.09576 24.0173 7.15368 24.0291 7.25948 24.0287L7.24696 24.0755C6.51367 24.1558 6.04905 23.0122 6.71093 22.5645C9.3751 21.3502 12.1224 19.128 14.7572 17.998C15.1071 17.848 15.4071 17.83 15.6992 18.0873L15.7008 18.0883Z" fill="#2B211F"/>
<path d="M15.27 19.4655L11.5292 21.7245L7.58854 23.9794C10.0975 22.3911 12.7294 21.0007 15.27 19.4655Z" fill="#C5C8C9"/>
<path d="M15.689 19.1641C15.7526 19.0907 15.7942 19.0175 15.828 18.9258C15.8811 18.7824 15.8898 18.5904 15.8297 18.4497C15.7608 18.2852 15.7045 18.2579 15.5818 18.1572L15.7201 18.1564L15.7011 18.0883C16.1488 18.4833 16.0718 18.9826 15.5895 19.3005C15.4829 19.231 15.6589 19.1988 15.689 19.1641Z" fill="#705F53"/>
<path d="M7.2486 24.0767L7.26112 24.0299C7.3516 24.0297 7.42981 23.9499 7.50543 24.0074C7.42502 24.0818 7.34296 24.0665 7.2486 24.0767Z" fill="#A2968C"/>
<path d="M15.8286 18.9255C15.6627 19.1388 15.0315 18.7217 14.9117 18.7427C14.8624 18.7509 14.1616 19.1728 14.0508 19.2397C13.5302 19.5547 12.8952 19.984 12.3641 20.2926C10.6023 21.3155 8.816 22.2794 7.04779 23.2829L6.92224 23.7515L6.776 23.8754C6.75614 23.856 6.74486 23.8115 6.72467 23.7865C6.85546 23.7043 6.73873 23.4787 6.76325 23.4077C6.87204 23.102 9.28338 21.8804 9.72641 21.6179C10.6742 21.0562 14.5456 18.5242 15.3227 18.4264C15.4054 18.4162 15.7155 18.5793 15.8303 18.4494C15.8897 18.5905 15.881 18.7825 15.8286 18.9255Z" fill="#B7B7BB"/>
<path d="M15.8301 18.4493C15.7148 18.5785 15.4048 18.4154 15.3224 18.4263C14.5453 18.5242 10.674 21.0561 9.72618 21.6178C9.28314 21.8804 6.8718 23.102 6.76302 23.4076C6.73807 23.4779 6.85523 23.7042 6.72443 23.7865C6.49212 23.5043 6.43613 23.4373 6.51289 23.0779C6.92863 22.7531 7.41646 22.5765 7.86305 22.2984C8.30964 22.0203 8.75808 21.7171 9.20862 21.4425C9.4406 21.5321 9.64442 21.2526 9.85142 21.1504C9.98798 21.0831 10.2754 21.0184 10.3776 20.9651C12.0994 20.0732 13.7211 19.0078 15.4075 18.0612C15.4915 18.0916 15.5123 18.1008 15.5819 18.158C15.7046 18.2587 15.7608 18.286 15.8298 18.4505L15.8301 18.4493Z" fill="#919096"/>
<path d="M9.20904 21.4412C9.78729 21.0891 10.4057 20.7898 10.9748 20.4218C11.0014 20.4045 10.9265 20.3331 10.9531 20.3158C11.2855 20.0969 11.6803 19.9913 11.9595 19.6952C12.6992 19.2807 13.5799 18.7096 14.2297 18.3845C14.5782 18.2103 15.031 17.9229 15.4076 18.061C13.7212 19.0077 12.0995 20.0731 10.3777 20.965C10.2755 21.0183 9.98809 21.083 9.85154 21.1503C9.64412 21.2517 9.44144 21.5316 9.20874 21.4424L9.20904 21.4412Z" fill="#64646C"/>
<path d="M9.20918 21.4414C8.75864 21.716 8.31237 22.018 7.86361 22.2973C7.41485 22.5766 6.92919 22.752 6.51345 23.0768C6.645 22.465 7.60464 22.2126 8.11729 21.9138C9.39544 21.1681 10.6671 20.4195 11.9603 19.695C11.6812 19.9911 11.2863 20.0967 10.954 20.3155C10.9273 20.3328 11.0023 20.4042 10.9757 20.4215C10.4066 20.7896 9.78815 21.0888 9.20991 21.441L9.20918 21.4414Z" fill="#54545B"/>
<path d="M18.1223 19.5401C17.1278 19.5303 16.3122 19.9636 15.4567 20.4064C15.1404 20.5697 14.8705 20.7449 14.5662 20.9205C14.5171 20.9489 14.4672 20.9777 14.418 21.0061C14.3458 21.0478 14.2938 21.0364 14.2231 21.0791C13.8348 21.3129 12.9726 21.8175 12.672 22.0932C12.6324 22.1296 12.5542 22.1227 12.6174 22.2038C12.4739 22.169 11.592 22.6377 11.4062 22.745C11.3693 22.7663 11.4852 22.7784 11.4253 22.813C10.0557 23.6056 8.3085 24.5171 7.10399 25.5054C5.98716 26.422 6.08184 27.6693 4.30105 27.9149C0.831843 28.3942 -0.0588105 22.6819 3.74139 22.4221C4.66679 22.359 5.00466 22.3567 5.9242 21.953C6.61168 21.6515 9.35658 20.2248 9.80145 19.7935L10.4462 19.5398C10.2221 19.6692 9.96869 19.7827 9.78098 19.9634C8.42147 20.7117 7.10354 21.567 5.67653 22.175C5.57848 22.2172 4.58374 22.539 4.61996 22.6068C5.91889 22.9921 6.79797 24.5247 6.48737 25.8412C6.83535 25.596 7.16146 25.3229 7.50808 25.0736C8.81075 24.1384 10.2233 23.4202 11.5961 22.5949C13.1314 21.6719 15.2788 20.0899 16.9276 19.5957C17.0139 19.57 17.1189 19.5682 17.1989 19.5181C17.6295 19.5095 17.6496 19.4324 18.1212 19.5398L18.1223 19.5401Z" fill="#6C553A"/>
<path d="M5.92546 23.634C8.01308 26.5254 3.74598 29.4536 1.85474 26.6569C-0.0816149 23.7938 3.9622 20.9146 5.92546 23.634Z" fill="#FEFEFF"/>
<path d="M2.81733 23.3902C2.41941 23.6007 2.54359 23.8692 2.42242 23.9748C2.3126 24.07 2.16357 24.0105 2.09114 24.087C2.07393 24.1056 2.01055 24.495 1.9827 24.5852C1.97014 24.6253 1.83485 24.7448 1.8498 24.8007C1.8537 24.8158 2.00711 24.9547 2.03384 25.0511C2.07192 25.1871 1.92124 25.5237 1.92539 25.5493C1.94587 25.6598 2.19305 25.8409 2.22461 25.9307C2.24704 25.9929 2.17314 26.182 2.17909 26.194C2.19456 26.2275 2.3763 26.2652 2.38317 26.2737C2.46459 26.378 2.57205 26.7044 2.6106 26.7361C2.63065 26.7525 2.99972 26.734 3.1088 26.8445C3.14187 26.8784 3.2516 27.0869 3.28866 27.156C3.34544 27.2611 3.41101 27.363 3.46852 27.4676C3.4703 27.4974 3.3039 27.5096 3.29447 27.5083C1.40786 27.3553 0.785314 24.0353 2.76447 23.0266C2.87863 23.1843 2.88159 23.2211 2.81745 23.3921L2.81733 23.3902Z" fill="#B7B7BB"/>
<path d="M6.16183 25.1399C6.2712 26.8249 4.93316 27.9559 3.29503 27.5072C3.30404 27.5078 3.47087 27.4963 3.46908 27.4664C3.41115 27.3611 3.346 27.26 3.28922 27.1549C3.42722 26.9933 3.90475 27.2245 3.93753 27.2162C4.05602 27.1844 4.10717 26.9776 4.30638 26.9638C4.3928 26.9582 4.57152 27.1075 4.62106 27.0982C4.6462 27.0933 5.04053 26.8666 5.0663 26.8411C5.10196 26.8061 5.15593 26.559 5.17108 26.5435C5.23765 26.4752 5.43121 26.4232 5.49778 26.3549C5.66677 26.1803 5.54595 25.8992 5.572 25.7975C5.59469 25.7082 5.7639 25.5807 5.82303 25.3759C5.82394 25.3725 5.88313 25.4366 5.89106 25.3569C5.89402 25.3253 5.61931 24.8912 6.16225 25.1406L6.16183 25.1399Z" fill="#827E81"/>
<path d="M6.16182 25.1398C5.61961 24.8901 5.89359 25.3246 5.89063 25.3562C5.88312 25.4366 5.82393 25.3725 5.8226 25.3752C5.48363 25.2037 5.79192 24.833 5.76005 24.7194C5.7309 24.6138 5.6099 24.5478 5.5589 24.4394C5.55378 24.4289 5.55745 24.2282 5.54515 24.2103C5.49753 24.1395 5.27065 24.1471 5.21295 24.0455C5.1612 23.9559 5.27079 23.7384 5.04938 23.6253C4.99615 23.5982 4.7089 23.6716 4.63255 23.5894C4.59375 23.5472 4.58579 23.3649 4.50778 23.3049C4.40547 23.2261 4.17277 23.3923 4.0598 23.3852C3.86916 23.3739 3.83344 23.1401 3.64663 23.1487C3.43974 23.1592 3.38597 23.3348 3.26066 23.3715C3.15852 23.4016 3.11615 23.2313 2.81686 23.3907C2.88142 23.2204 2.87846 23.1835 2.76388 23.0252C4.22424 22.2813 6.05849 23.5554 6.16068 25.1395L6.16182 25.1398Z" fill="#A6A7A8"/>
<path d="M5.82241 25.3753C5.76328 25.58 5.59408 25.7076 5.57139 25.7968C5.54565 25.8974 5.66616 26.1796 5.49717 26.3543C5.4306 26.4226 5.23704 26.4746 5.17047 26.5429C5.15532 26.5584 5.10176 26.8061 5.06568 26.8405C5.03992 26.8659 4.64558 27.0927 4.62045 27.0975C4.57091 27.1069 4.39177 26.9568 4.30577 26.9631C4.10656 26.9769 4.05613 27.1834 3.93692 27.2156C3.90341 27.2243 3.42588 26.9931 3.28861 27.1543C3.25155 27.0851 3.14182 26.8767 3.10875 26.8428C2.99967 26.7323 2.6306 26.7507 2.61054 26.7343C2.57242 26.7033 2.46454 26.3763 2.38312 26.272C2.37625 26.2634 2.19409 26.225 2.17904 26.1922C2.17309 26.1803 2.24699 25.9911 2.22456 25.9289C2.19341 25.8399 1.94581 25.6581 1.92534 25.5475C1.92047 25.5224 2.07114 25.1858 2.03379 25.0493C2.00748 24.9537 1.85365 24.8141 1.84975 24.799C1.8345 24.7442 1.97009 24.6235 1.98264 24.5835C2.01092 24.4939 2.07316 24.1043 2.09109 24.0853C2.1628 24.0092 2.31254 24.0682 2.42237 23.973C2.54281 23.8678 2.41905 23.6001 2.81728 23.3885C3.11699 23.2299 3.15895 23.3994 3.26109 23.3693C3.3864 23.3326 3.44017 23.157 3.64706 23.1465C3.8346 23.1375 3.86959 23.3717 4.06022 23.383C4.17392 23.3897 4.40548 23.2232 4.50821 23.3027C4.58622 23.3627 4.59376 23.5443 4.63298 23.5872C4.70902 23.6705 4.99586 23.5965 5.04981 23.6231C5.27122 23.7362 5.16121 23.953 5.21338 24.0433C5.27138 24.1438 5.49754 24.1366 5.54558 24.2081C5.55829 24.2268 5.55463 24.4274 5.55933 24.4372C5.60992 24.5449 5.73092 24.6109 5.76048 24.7172C5.79235 24.8308 5.48376 25.2027 5.82303 25.373L5.82241 25.3753Z" fill="#171A1F"/>
<path d="M3.30794 26.7085C3.30677 26.7015 3.39362 26.6783 3.38808 26.642C3.38114 26.595 2.96963 25.8939 2.90818 25.8108C2.90203 25.8018 2.78488 25.8309 2.7041 25.7311C2.54057 25.5296 2.51882 25.2483 2.24672 25.1442C2.25111 24.8747 2.20973 24.9266 2.01554 24.7438C2.14636 24.6683 2.1968 24.2315 2.23611 24.2011C2.24859 24.191 2.49235 24.1842 2.55486 24.1356C2.65813 24.0557 2.69909 23.6292 2.72258 23.6032C2.94496 23.3524 3.14245 23.6026 3.25794 23.5706C3.39225 23.5345 3.56063 23.2687 3.59258 23.2589C3.69214 23.2294 3.89999 23.5276 4.02285 23.5251C4.09417 23.5234 4.29616 23.3876 4.33703 23.3832C4.51314 23.3644 4.54988 23.6651 4.64266 23.7407C4.69492 23.7828 4.94363 23.7028 5.01274 23.7641C5.10753 23.8481 5.11832 24.1339 5.19342 24.2139C5.21255 24.2337 5.3597 24.2432 5.38039 24.264C5.47148 24.355 5.42742 24.4807 5.44089 24.5057C5.48015 24.5803 5.60137 24.6501 5.62492 24.756C5.64467 24.8419 5.46331 25.0536 5.49437 25.1474C5.51429 25.2053 5.65785 25.2921 5.6784 25.3978C5.70372 25.5267 5.45192 25.7049 5.43156 25.7581C5.39369 25.8561 5.52805 26.1322 5.42985 26.2342C5.3503 26.3167 5.13585 26.3259 5.02677 26.4274C4.89285 26.551 5.02115 26.8383 4.7013 26.8919C4.61617 26.9063 4.31639 26.746 4.2031 26.7834C4.06965 26.8277 3.95046 27.0285 3.88099 27.0484C3.85638 27.0559 3.48987 26.9051 3.37709 26.9635C3.32408 26.9151 3.32067 26.7773 3.30782 26.7067L3.30794 26.7085Z" fill="#D4DFE6"/>
<path d="M3.30765 26.7084C3.20568 26.5919 2.73336 26.5784 2.70761 26.5605C2.63377 26.5077 2.61523 26.2736 2.56115 26.1699C2.55656 26.162 2.43887 26.095 2.41633 26.056C2.40673 26.0394 2.43657 25.8824 2.38547 25.7972C2.36586 25.7632 2.11527 25.6313 2.10795 25.5218C2.10672 25.5014 2.24483 25.2732 2.24685 25.1448C2.51895 25.2489 2.5407 25.5303 2.70423 25.7317C2.785 25.8316 2.90216 25.8025 2.90831 25.8114C2.96975 25.8945 3.38085 26.5949 3.3882 26.6426C3.39333 26.6782 3.30689 26.7021 3.30806 26.7092L3.30765 26.7084Z" fill="#B7B7BB"/>
</g>
<defs>
<linearGradient id="paint0_linear_6413_76082" x1="9.17083" y1="11.6623" x2="12.55" y2="17.9376" gradientUnits="userSpaceOnUse">
<stop stop-color="#9B9FA9"/>
<stop offset="1" stop-color="#565861"/>
</linearGradient>
<clipPath id="clip0_6413_76082">
<rect width="32" height="32" fill="white"/>
</clipPath>
</defs>
</svg>
