<svg width="31" height="26" viewBox="0 0 31 26" fill="none" xmlns="http://www.w3.org/2000/svg">
<path d="M10.4752 15.3399C10.4752 15.3399 9.15115 13.6316 8.12297 13.5411C6.15153 13.3685 4.89502 11.2968 4.6639 10.5665C3.83411 7.93794 2.81428 7.30307 2.00051 7.62677C0.824744 8.09388 1.75825 10.6703 1.75825 10.6703C1.75825 10.6703 0.651408 9.87458 0.0979843 10.6013C-0.455439 11.3274 1.516 13.9567 1.516 13.9567C1.516 13.9567 0.374348 13.2647 0.0283713 14.4064C-0.317605 15.548 3.62527 17.5369 3.62527 17.5369C3.62527 17.5369 1.41158 16.6723 1.86128 18.1592C2.31098 19.6468 7.82781 21.635 9.5396 20.7015C10.5413 20.375 10.4738 15.3406 10.4738 15.3406L10.4752 15.3399Z" fill="#5E0B0B"/>
<path d="M9.59299 18.9374C9.59299 18.9374 4.92335 19.7157 4.04135 18.6778C3.15936 17.6398 4.92335 17.6398 4.92335 17.6398C4.92335 17.6398 1.03198 15.8759 1.08419 14.8379C1.1364 13.8 3.73018 14.8901 3.57425 14.5268C1.15798 12.7419 0.712459 11.0907 0.65468 10.2985C0.450018 10.3145 0.253013 10.3987 0.0984726 10.6013C-0.454951 11.3273 1.51649 13.9566 1.51649 13.9566C1.51649 13.9566 0.374836 13.2647 0.0288596 14.4063C-0.317117 15.548 3.62576 17.5368 3.62576 17.5368C3.62576 17.5368 1.41207 16.6722 1.86177 18.1592C2.29546 19.5939 7.44543 21.4957 9.34517 20.7891L9.59229 18.9374H9.59299Z" fill="#440303"/>
<path d="M15.5991 12.0186C15.5991 12.0186 13.5183 3.02669 15.1097 2.43846C16.701 1.85023 16.9405 9.69631 16.9405 9.69631C16.9405 9.69631 17.393 2.6111 18.8458 2.33474C20.2986 2.05838 19.0184 10.1516 19.0184 10.1516C19.0184 10.1516 21.1284 2.64591 22.8576 2.88816C24.5868 3.13042 21.0247 10.8087 21.0247 10.8087C21.0247 10.8087 24.9335 3.23414 26.8353 4.13284C28.7378 5.03224 22.7915 11.9253 22.7915 11.9253C22.7915 11.9253 27.4924 5.30861 29.5328 7.00368C31.5738 8.69876 24.206 13.541 24.206 13.541C24.206 13.541 29.3594 9.73599 30.6048 11.0851C31.8502 12.4342 26.0389 15.0454 26.0389 15.0454C26.0389 15.0454 29.7395 13.5926 30.0855 14.9417C30.4315 16.2908 22.5109 18.1411 22.5109 18.1411L15.5991 12.0186Z" fill="#BF394C"/>
<path d="M16.234 12.2441C16.234 12.2441 14.6259 5.23968 15.196 4.98072C15.7669 4.72107 17.0122 11.8292 17.0122 11.8292C17.0122 11.8292 17.7383 3.94279 18.7762 3.58011C19.8142 3.21673 18.5166 12.6597 18.5166 12.6597C18.5166 12.6597 21.4737 4.04721 22.5117 3.9957C23.5496 3.94349 19.3986 13.0231 19.3986 13.0231C19.3986 13.0231 24.9502 4.56653 26.1434 4.92921C27.3365 5.29259 20.3328 13.8529 20.3328 13.8529C20.3328 13.8529 27.5962 7.1081 28.7379 7.62671C29.8795 8.14533 21.6297 15.1498 21.6297 15.1498C21.6297 15.1498 29.308 10.4801 30.0347 11.4144C30.7608 12.3486 22.7191 16.1355 22.7191 16.1355C22.7191 16.1355 28.7894 14.4752 29.2043 15.0976C29.6192 15.7199 22.7191 17.6398 22.7191 17.6398L16.234 12.2441Z" fill="#DD4E6A"/>
<path d="M16.2341 12.2441C16.2341 12.2441 14.9372 7.10806 15.2998 7.05585C15.6632 7.00364 16.9079 12.9187 16.9079 12.9187C16.9079 12.9187 18.1011 5.9142 18.516 5.86269C18.9309 5.81117 17.6862 13.4373 17.6862 13.4373C17.6862 13.4373 21.2142 6.32909 21.4738 6.3813C21.7335 6.43351 18.6204 14.1118 18.6204 14.1118C18.6204 14.1118 24.0161 7.2633 24.431 7.15958C24.8459 7.05585 19.7098 14.6304 19.7098 14.6304C19.7098 14.6304 26.5584 8.71612 26.9217 9.13102C27.2851 9.54591 20.2291 15.9795 20.2291 15.9795C20.2291 15.9795 27.7 11.777 27.9597 12.2956C28.2193 12.8142 21.1634 16.5497 21.1634 16.5497C21.1634 16.5497 27.7522 15.0453 27.9082 15.3565C28.0641 15.6677 21.682 17.6913 21.682 17.6913L16.2341 12.2434V12.2441Z" fill="#F46789"/>
<path d="M9.95675 4.20247L13.7179 -6.10352e-05C13.7179 -6.10352e-05 16.2345 0.622279 16.7531 2.33476C16.3639 3.4242 14.3145 8.31869 14.3145 8.31869C14.3145 8.31869 13.9685 5.55157 9.95605 4.20247H9.95675Z" fill="#511A3B"/>
<path d="M11.357 2.69812L9.81787 4.27207C13.8304 5.62117 14.3142 8.31867 14.3142 8.31867C14.3142 8.31867 14.9261 6.8575 15.5449 5.35386C14.5745 4.20176 13.2797 3.09283 11.357 2.69812Z" fill="#872D46"/>
<path d="M16.2295 9.52478C16.9113 8.48134 15.3639 6.2633 12.7733 4.57066C10.1827 2.87801 7.52999 2.35173 6.84822 3.39517C6.16645 4.43861 7.71385 6.65664 10.3044 8.34929C12.895 10.0419 15.5478 10.5682 16.2295 9.52478Z" fill="#281310"/>
<path d="M20.6793 13.1262C20.6793 13.1262 18.3716 11.5501 15.2147 11.743C11.237 11.9852 8.85065 14.7175 8.05498 19.4561C7.8169 20.8748 10.0264 24.3332 14.5923 25.5438C19.1582 26.7543 24.0346 21.4623 24.5191 20.1829C25.0036 18.9034 24.0346 19.0071 24.0346 19.0071C24.0346 19.0071 24.934 18.7996 24.8303 18.2114C24.7266 17.6232 22.8477 17.0398 22.8477 17.0398C22.8477 17.0398 21.9943 14.3375 20.68 13.1269L20.6793 13.1262Z" fill="#771515"/>
<path d="M21.3601 22.6729C20.6041 22.9012 19.8405 23.108 19.0671 23.2674C16.0667 23.8842 12.5339 23.6384 10.4135 21.1699C10.5339 20.833 10.561 20.4947 10.4942 20.1501C10.9627 20.0631 11.3727 19.7457 11.615 19.3259C11.9248 18.7871 11.9136 18.1501 11.773 17.5612C11.805 17.5348 11.837 17.5076 11.8684 17.4791C12.1663 17.2076 11.7229 16.7655 11.4263 17.037C10.5812 17.8097 9.3101 17.8181 8.42044 18.5302C8.33761 18.5963 8.26242 18.6667 8.19211 18.7404C8.14269 18.9743 8.09605 19.2117 8.05498 19.4568C7.8169 20.8755 10.0264 24.3339 14.5923 25.5444C17.5766 26.3359 20.6932 24.3492 22.6298 22.5204C22.2442 22.377 21.7799 22.5469 21.3608 22.6736L21.3601 22.6729Z" fill="#5E0B0B"/>
<path d="M11.2797 17.1296C11.2797 17.1296 11.6166 18.1418 12.4123 17.5884C13.208 17.0349 10.9226 15.738 11.3389 13.706C11.7551 11.674 12.0663 10.1175 12.0663 10.1175C12.0663 10.1175 14.2111 10.4287 14.8334 7.78268C14.2626 4.65218 9.81781 4.27209 9.81781 4.27209C9.81781 4.27209 8.28632 5.6748 8.26126 7.03921C8.22646 8.94173 10.0775 9.82582 10.0775 9.82582C10.0775 9.82582 7.91528 13.0579 7.39597 15.7903C6.87736 18.5226 7.36117 20.2866 8.19165 20.4251C9.02144 20.5636 9.22958 18.5574 9.22958 18.5574C9.22958 18.5574 9.50664 19.2834 10.475 19.0071C11.4433 18.7307 11.279 17.1303 11.279 17.1303L11.2797 17.1296Z" fill="#FCA930"/>
<path d="M20.751 10.9793C19.885 12.4913 18.1697 14.123 16.7684 14.0882C15.4514 14.0555 13.5969 13.9831 12.7121 15.9747C11.8273 17.9657 12.3062 20.7606 16.6946 21.6336C21.083 22.5065 23.9964 20.2712 24.1432 19.4331C24.2908 18.595 22.5575 18.5247 22.5575 18.5247C22.5575 18.5247 25.729 17.477 25.9866 16.2539C26.2449 15.0315 23.1777 15.6148 23.1777 15.6148C23.1777 15.6148 26.7238 13.0398 26.3186 11.6775C26.0277 10.7002 23.8481 11.5028 23.8481 11.5028C23.8481 11.5028 24.9911 9.09279 24.5122 8.32426C24.0326 7.55574 22.6312 7.69566 20.751 10.9793Z" fill="#5E0B0B"/>
<path d="M24.1439 19.4323C24.2915 18.5942 22.5581 18.5239 22.5581 18.5239C22.5581 18.5239 25.7297 17.4762 25.9873 16.2531C26.2455 15.0307 23.1784 15.6141 23.1784 15.6141C23.1784 15.6141 26.7245 13.0391 26.3193 11.6768C26.0283 10.6994 23.8488 11.502 23.8488 11.502C23.8488 11.502 24.8714 9.34542 24.5755 8.46204C24.2017 10.6068 21.475 13.2291 21.475 13.2291C21.475 13.2291 25.1589 11.5689 25.1067 12.6583C25.0545 13.7477 21.7346 16.446 21.7346 16.446C21.7346 16.446 25.3148 15.8236 24.7955 16.7056C24.2769 17.5876 20.4892 18.3137 20.4892 18.3137C20.4892 18.3137 22.9278 18.9882 22.7203 19.6628C22.5129 20.3373 19.6072 21.323 14.9383 19.559C13.5091 19.0195 12.7323 18.3673 12.3452 17.722C12.3779 19.3432 13.5008 20.9965 16.6953 21.6328C21.0837 22.5058 23.997 20.2705 24.1439 19.4323Z" fill="#440303"/>
<path d="M8.36568 6.80181C8.36568 6.80181 6.73952 6.48507 6.2209 5.37823C5.70228 4.27138 5.21778 5.62048 5.70228 6.5888C6.18679 7.55711 7.63892 7.83417 7.63892 7.83417C7.63892 7.83417 6.15129 9.87523 6.39354 10.2553C7.29294 10.2553 9.12237 9.07816 9.12237 9.07816C9.12237 9.07816 9.29988 7.87942 8.36568 6.80181Z" fill="#F45705"/>
<path d="M12.8593 6.96955C12.8593 6.96955 12.8865 5.40117 10.9429 5.70329C11.4859 4.88186 13.1044 5.38795 12.8593 6.96955Z" fill="black"/>
<path d="M13.1734 3.16107C12.457 3.16107 11.8765 3.7312 11.8765 4.43429C11.8765 5.13738 12.457 5.70751 13.1734 5.70751C13.8897 5.70751 14.4702 5.13738 14.4702 4.43429C14.4702 3.7312 13.8897 3.16107 13.1734 3.16107ZM13.1734 5.32255C12.6735 5.32255 12.2677 4.92437 12.2677 4.4336C12.2677 3.94283 12.6728 3.54464 13.1734 3.54464C13.6739 3.54464 14.079 3.94283 14.079 4.4336C14.079 4.92437 13.6739 5.32255 13.1734 5.32255Z" fill="#E8861A"/>
<path d="M12.9658 7.88639L12.1137 7.48263C12.1687 7.29259 12.1325 7.07401 11.859 6.87074C11.1719 6.35978 10.2446 6.76353 9.94043 7.30373C9.94043 7.30373 10.5656 6.77328 11.2123 7.09002C11.859 7.40606 11.7378 7.99011 11.7378 7.99011L12.9658 7.88639Z" fill="#592400"/>
<path d="M9.81808 4.27136C9.81808 4.27136 9.62317 4.44957 9.37256 4.74055C9.58905 4.86586 9.80694 4.99882 10.0234 5.14013C12.3402 6.65352 13.8215 8.58667 13.621 9.72554C14.1118 9.40045 14.5894 8.81848 14.833 7.78195C14.2622 4.65145 9.81739 4.27136 9.81739 4.27136H9.81808Z" fill="#EA8D13"/>
<path d="M8.36579 6.80176C8.36579 6.80176 9.02224 7.83412 8.76328 8.87205C8.50363 9.90998 7.36267 12.0889 9.23039 11.9851C11.0981 11.8814 10.3038 7.37815 8.36649 6.80245L8.36579 6.80176Z" fill="#AD1B29"/>
<path d="M8.87507 9.69626C8.65579 10.091 8.42258 10.6952 8.58617 11.1463C8.63351 11.2765 8.85001 11.3071 8.88203 11.1463C8.92449 10.9375 8.89525 10.721 8.92658 10.5079C8.96069 10.2754 9.01917 10.0506 9.11175 9.83409C9.17928 9.67677 8.96347 9.53684 8.87507 9.69556V9.69626Z" fill="#D6213B"/>
<path d="M9.38586 11.1303C9.08722 11.1303 9.08653 11.5946 9.38586 11.5946C9.6852 11.5946 9.6852 11.1303 9.38586 11.1303Z" fill="#D6213B"/>
<g style="mix-blend-mode:multiply" opacity="0.5">
<path d="M8.29598 7.93795L7.63883 7.83423C7.63883 7.83423 6.04748 10.4976 6.39346 10.2554C6.73943 10.0131 8.29598 7.93795 8.29598 7.93795Z" fill="#D34100"/>
</g>
<path d="M8.36573 6.80178C8.36573 6.80178 6.73957 6.48504 6.22096 5.37819C5.93902 4.77743 5.66823 4.90065 5.55615 5.29326C5.60558 5.25428 5.6731 5.23897 5.7643 5.25707C5.97105 5.29814 6.13603 5.59051 6.26481 5.73879C6.43258 5.93162 6.61636 6.10843 6.81545 6.26924C7.26863 6.6368 7.93622 7.08023 8.55299 7.03985C8.49591 6.9598 8.43395 6.88044 8.36573 6.80108V6.80178Z" fill="#FFA20A"/>
<path d="M12.7733 4.57C10.1823 2.87771 7.53003 2.35144 6.84782 3.39494C6.81093 3.45202 6.78169 3.51258 6.75732 3.57593C7.86974 3.23413 9.97762 3.84116 12.0465 5.19304C14.4962 6.79344 16.0124 8.86304 15.5933 9.9664C15.8738 9.88008 16.0917 9.73459 16.2296 9.52506C16.9111 8.48156 15.3636 6.26369 12.7733 4.5707V4.57Z" fill="#511A3B"/>
<path d="M16.166 15.1261C15.6265 14.769 14.7125 15.1428 14.2565 15.4916C13.7017 15.9148 13.417 16.542 13.3488 17.2249C13.3251 17.4658 13.6926 17.4581 13.7219 17.2249C13.795 16.6437 14.1416 16.1014 14.6408 15.793C14.8698 15.6517 15.1253 15.5619 15.3905 15.5208C15.6348 15.4832 15.8841 15.5313 16.1221 15.463C16.2809 15.4178 16.2969 15.2117 16.166 15.1254V15.1261Z" fill="#962929"/>
<path d="M17.8959 14.8428C17.7978 14.8393 17.7149 14.84 17.6196 14.8616C17.527 14.8825 17.4344 14.9027 17.3418 14.9236C17.1726 14.9612 17.2457 15.2111 17.4128 15.1811C17.5061 15.1644 17.6001 15.147 17.6934 15.1303C17.7859 15.1136 17.8632 15.0767 17.9481 15.0377C18.0477 14.9918 17.9906 14.847 17.8952 14.8435L17.8959 14.8428Z" fill="#962929"/>
<path d="M20.922 12.0082C20.4583 12.8491 19.8423 13.5424 19.0139 14.0374C18.8565 14.1314 18.9979 14.375 19.158 14.2838C20.0233 13.7903 20.757 13.0677 21.1969 12.169C21.286 11.9866 21.0222 11.8272 20.922 12.0082Z" fill="#962929"/>
<path d="M22.5028 10.1781C22.4492 10.1294 22.3671 10.1252 22.3142 10.1781C22.2453 10.2471 22.1757 10.3167 22.1067 10.3856C22.0573 10.435 22.0538 10.5255 22.1067 10.5742C22.1603 10.623 22.2425 10.6271 22.2954 10.5742C22.3643 10.5053 22.4339 10.4357 22.5028 10.3668C22.5523 10.3174 22.5557 10.2269 22.5028 10.1781Z" fill="#962929"/>
<path d="M21.1368 16.0875C19.8176 16.5685 18.4887 16.7272 17.1027 16.4634C16.9315 16.4307 16.8563 16.6841 17.0296 16.7279C18.4121 17.0781 19.9485 16.9479 21.2224 16.2914C21.3331 16.2344 21.2565 16.0436 21.1368 16.0875Z" fill="#962929"/>
<path d="M18.7491 18.137C18.3335 18.0562 17.911 18.0361 17.4975 17.9379C17.0478 17.8314 16.6064 17.6803 16.1839 17.4938C16.0892 17.452 16.005 17.5864 16.101 17.6358C16.8758 18.0361 17.8379 18.3925 18.7247 18.3236C18.8243 18.3159 18.8626 18.1586 18.7498 18.137H18.7491Z" fill="#962929"/>
<path d="M23.4354 13.6413C23.2182 13.7631 23.0135 13.9072 22.8054 14.0436C22.6522 14.1439 22.7949 14.391 22.9495 14.2901C23.1576 14.1536 23.372 14.0221 23.5704 13.8717C23.7034 13.7707 23.5899 13.5543 23.4354 13.6413Z" fill="#962929"/>
<path d="M8.99578 13.0433C8.56905 14.0736 8.09986 15.0955 7.76641 16.1613C7.47891 17.0809 7.30836 18.1292 7.71838 19.0342C7.81375 19.2444 8.12144 19.0899 8.07619 18.8831C7.85134 17.8598 8.04834 16.9382 8.37552 15.9622C8.69157 15.0189 9.02849 14.0826 9.34523 13.1394C9.42111 12.9131 9.08279 12.8338 8.99647 13.0433H8.99578Z" fill="#FFD49C"/>
<path d="M9.19652 5.25854C8.89649 5.51541 8.67095 5.92195 8.75587 6.32292C8.79138 6.49138 9.04059 6.47815 9.08375 6.32292C9.16798 6.01941 9.22854 5.75348 9.4701 5.53281C9.65597 5.36295 9.38378 5.09843 9.19583 5.25854H9.19652Z" fill="#FFD49C"/>
<path d="M9.60058 13.6107C9.44882 13.8661 9.33466 14.139 9.25948 14.4265C9.20239 14.643 9.53584 14.7349 9.59431 14.5191C9.66462 14.2601 9.76765 14.02 9.90688 13.7903C10.0252 13.5946 9.71683 13.415 9.60058 13.6114V13.6107Z" fill="#FFD49C"/>
<path d="M8.64071 16.0875C8.56622 16.4411 8.50844 16.8128 8.5523 17.1734C8.57666 17.376 8.84955 17.3795 8.87043 17.1734C8.90384 16.8407 8.91916 16.5121 8.98947 16.1842C9.0382 15.9566 8.68804 15.8598 8.64071 16.0881V16.0875Z" fill="#FFD49C"/>
<path d="M10.2231 18.0471C9.98089 18.0875 9.75186 17.8807 9.76718 17.6406C9.7818 17.4143 9.44417 17.4227 9.41981 17.6406C9.3676 18.1118 9.86394 18.5497 10.322 18.407C10.5552 18.3346 10.4563 18.0081 10.2231 18.0471Z" fill="#FFD49C"/>
<path d="M10.834 16.4815C10.7352 16.4593 10.6454 16.5115 10.6134 16.6069C10.596 16.6591 10.5786 16.7106 10.5612 16.7628C10.5312 16.8519 10.5953 16.9626 10.6865 16.9835C10.7853 17.0057 10.8751 16.9535 10.9071 16.8582C10.9245 16.8059 10.9419 16.7544 10.9593 16.7022C10.9893 16.6131 10.9252 16.5024 10.834 16.4815Z" fill="#FFD49C"/>
<path d="M10.0521 16.7245C9.99848 16.6208 9.94766 16.5177 9.88223 16.4217C9.83976 16.3583 9.76319 16.327 9.6901 16.359C9.62396 16.3883 9.57593 16.4669 9.60099 16.54C9.64345 16.6639 9.70123 16.7788 9.75762 16.8964C9.7973 16.9793 9.91564 17.0008 9.99013 16.9577C10.073 16.9097 10.0939 16.8066 10.0514 16.7252L10.0521 16.7245Z" fill="#FFD49C"/>
<path d="M12.0347 8.27972C12.0257 8.2108 11.97 8.12935 11.8948 8.11752C11.8614 8.11264 11.8287 8.10708 11.7953 8.10499C11.7897 8.10499 11.7848 8.10499 11.7792 8.10499C11.7758 8.10499 11.7744 8.10499 11.7723 8.10499C11.7591 8.10151 11.741 8.09524 11.7389 8.09454C11.7848 8.10847 11.7284 8.08619 11.7166 8.07784C11.6282 8.01867 11.4883 8.05765 11.4388 8.15093C11.3838 8.25465 11.4187 8.36325 11.5119 8.42869C11.5627 8.46419 11.624 8.49134 11.6853 8.50317C11.7792 8.52127 11.8537 8.5164 11.9421 8.47533C12.0118 8.44331 12.0445 8.35072 12.0354 8.28111L12.0347 8.27972Z" fill="#FFD49C"/>
<path d="M12.1876 8.48438C11.889 8.48438 11.8883 8.94869 12.1876 8.94869C12.487 8.94869 12.487 8.48438 12.1876 8.48438Z" fill="#FFD49C"/>
<path d="M3.84864 10.6388C3.71638 10.4021 3.58342 10.194 3.48735 9.93711C3.41008 9.73036 3.34186 9.51665 3.23883 9.32034C3.05436 8.9667 2.77591 8.67015 2.37006 8.59915C2.15774 8.56156 2.06307 8.87969 2.27956 8.92703C3.17548 9.12403 2.92975 10.4237 3.60569 10.8818C3.75884 10.9855 3.93009 10.7857 3.84864 10.6388Z" fill="#962929"/>
<path d="M4.35317 11.9977C4.16939 11.9977 4.16939 12.2831 4.35317 12.2831C4.53694 12.2831 4.53694 11.9977 4.35317 11.9977Z" fill="#962929"/>
<path d="M5.49524 12.7906C5.1966 12.7906 5.1959 13.2549 5.49524 13.2549C5.79457 13.2549 5.79457 12.7906 5.49524 12.7906Z" fill="#962929"/>
<path d="M6.07136 15.1582C4.6972 14.2275 3.19704 13.5167 2.42852 11.9497C2.38048 11.8516 2.23986 11.9372 2.28302 12.0347C2.9701 13.5668 4.48767 14.641 5.96764 15.335C6.08668 15.3907 6.18135 15.2327 6.07067 15.1582H6.07136Z" fill="#962929"/>
<path d="M4.23719 15.6295C4.11607 15.6121 3.99494 15.5947 3.87381 15.5773C3.79445 15.5661 3.7144 15.5968 3.69143 15.681C3.67263 15.7506 3.7151 15.8515 3.79515 15.8634C3.91628 15.8808 4.0374 15.8982 4.15853 15.9156C4.23789 15.9267 4.31794 15.8961 4.34092 15.8119C4.35971 15.7423 4.31725 15.6413 4.23719 15.6295Z" fill="#962929"/>
<path d="M16.0179 12.5101C14.6994 12.1397 13.177 12.6033 12.105 13.3969C11.9226 13.532 12.0966 13.8411 12.286 13.7067C13.4109 12.9055 14.6291 12.7544 15.9713 12.8546C16.1724 12.87 16.2045 12.5623 16.0179 12.5101Z" fill="#962929"/>
<path d="M16.0789 13.2307H15.923C15.8415 13.2307 15.7636 13.3024 15.7677 13.3859C15.7712 13.4701 15.836 13.5411 15.923 13.5411H16.0789C16.1604 13.5411 16.2383 13.4694 16.2341 13.3859C16.2307 13.3017 16.1659 13.2307 16.0789 13.2307Z" fill="#962929"/>
<path d="M17.7709 12.7753C17.6421 12.7134 17.5091 12.6793 17.372 12.641C17.1471 12.5783 17.0525 12.9243 17.2759 12.9897C17.4137 13.0301 17.5439 13.0691 17.6873 13.0851C17.8502 13.1032 17.9157 12.8442 17.7716 12.7753H17.7709Z" fill="#962929"/>
<path d="M13.429 21.1498C13.0189 21.0272 12.6625 20.8351 12.3778 20.5114C12.2149 20.3269 11.9525 20.5956 12.1091 20.7801C12.4217 21.1484 12.8498 21.4303 13.3315 21.5055C13.5612 21.5417 13.6629 21.2194 13.4297 21.1491L13.429 21.1498Z" fill="#962929"/>
<path d="M6.18871 18.2448C5.88172 18.3068 5.60048 18.3311 5.31646 18.1759C5.14313 18.0812 4.98998 18.3416 5.16123 18.4411C5.49955 18.6374 5.94785 18.707 6.29313 18.4926C6.42679 18.4098 6.33769 18.2156 6.18871 18.2455V18.2448Z" fill="#962929"/>
<path d="M5.39999 16.8093C5.20438 16.723 5.00389 16.6527 4.80271 16.5817C4.6426 16.5253 4.57508 16.778 4.7324 16.8358C4.92314 16.9047 5.11179 16.975 5.30671 17.03C5.4341 17.0655 5.52808 16.8657 5.39999 16.8093Z" fill="#962929"/>
<path d="M17.3231 19.1129C16.4884 19.0022 15.6767 18.7934 14.9103 18.4411C14.737 18.3611 14.5838 18.6173 14.7593 18.7001C15.5716 19.083 16.4251 19.3336 17.3231 19.3948C17.5076 19.4074 17.4971 19.1366 17.3231 19.1136V19.1129Z" fill="#962929"/>
<path d="M22.6804 16.8727C22.4765 16.9472 22.2613 17.0203 22.0455 17.0488C21.9509 17.0613 21.8708 17.1205 21.8701 17.2242C21.8694 17.3099 21.9516 17.4122 22.0455 17.3997C22.317 17.3642 22.5649 17.298 22.7974 17.1497C22.9352 17.062 22.8496 16.8107 22.6804 16.8727Z" fill="#962929"/>
<path d="M8.57154 18.2462C8.5423 18.2169 8.49357 18.1947 8.45111 18.196C8.35922 18.2002 8.28125 18.2705 8.28125 18.3659V18.4696C8.28125 18.5135 8.30005 18.5587 8.33137 18.5901C8.36061 18.6193 8.40934 18.6416 8.4518 18.6402C8.54369 18.636 8.62166 18.5657 8.62166 18.4703V18.3666C8.62166 18.3227 8.60286 18.2775 8.57154 18.2462Z" fill="#FFD49C"/>
</svg>
