<svg width="110" height="100" viewBox="0 0 52 36" fill="none" xmlns="http://www.w3.org/2000/svg">
<path d="M10.1464 5.53696C10.1692 5.69265 10.0065 5.63842 9.91201 5.64192C8.32709 5.6874 6.72993 5.63142 5.14502 5.64192C5.27447 4.65703 5.96722 3.75087 7.02033 3.71413C7.53289 3.69664 7.46816 3.87682 7.77605 4.02727C7.80229 4.03951 7.9125 3.9328 8.08918 4.02727C8.4338 4.2127 8.40057 4.76375 8.45305 4.80923C8.52477 4.86871 8.81691 4.63954 9.07757 4.75675C9.36971 4.88795 9.09856 5.38826 9.28574 5.48623C9.35921 5.52471 9.9435 5.45999 10.1447 5.53871L10.1464 5.53696Z" fill="#EAE6C1"/>
<path d="M5.76941 6.10894C4.15126 6.11069 2.51911 5.99874 0.897461 6.05646L2.66956 5.58764C3.4935 5.52991 4.32619 5.64537 5.14489 5.64012C6.72981 5.62962 8.32697 5.6856 9.91188 5.64012C10.0063 5.63662 10.169 5.6926 10.1463 5.53516C10.5347 5.68385 10.4419 6.14043 10.1725 6.15968C10.0623 6.16667 9.92763 6.00398 9.91188 6.00398C8.54214 5.93401 7.12516 6.10545 5.76941 6.10894Z" fill="#EFDDB8"/>
<path d="M13.22 15.3315C13.1955 15.4452 13.1396 15.5852 13.1151 15.6954L7.25298 15.8003C7.15502 15.0061 7.78129 15.4015 8.03494 15.279C8.21688 15.1916 7.92998 14.532 8.76442 14.4446C8.77842 14.4446 8.98309 14.5653 9.02508 14.5495C9.07056 14.532 9.19651 13.9075 9.59887 13.8201C10.6677 13.5856 10.6397 15.0761 10.7972 15.0708C10.8811 14.2836 11.7506 13.6504 12.3349 14.4201C12.6952 14.8942 12.3209 15.4994 13.22 15.3315Z" fill="#FBF9F5"/>
<path d="M7.51566 16.3216C8.15943 16.1729 8.43232 17.0231 8.5058 17.0511C8.65799 17.1088 9.30175 16.2394 9.78283 17.2855C9.91753 17.5777 9.64987 17.7946 10.1467 17.8593L10.068 18.1462L3.06006 18.12C3.29447 17.9118 3.92074 18.0622 4.12891 17.9905C4.1709 17.9765 4.34583 17.6529 4.44205 17.6267C4.72719 17.5462 5.02283 17.8331 5.22401 17.7824C5.62461 17.6844 5.54414 16.4721 6.21414 16.3759C6.91913 16.2744 6.70221 17.3258 6.94362 17.261C7.05908 17.0074 7.20428 16.3951 7.51741 16.3234L7.51566 16.3216Z" fill="#FBF9F5"/>
<path d="M14.1572 7.82859C12.3536 7.85833 10.2264 7.6519 8.45256 7.82859C8.26363 7.84783 7.90676 7.86008 7.90501 8.08924C7.84903 8.14172 7.75982 8.13473 7.74932 8.063C7.6531 7.46297 9.23802 7.85308 9.54766 7.72363C9.64212 7.68339 9.7051 6.98715 10.1722 6.78597C10.9664 6.44485 10.9926 7.22331 11.1098 7.2548C11.6854 6.56905 12.6772 5.93054 12.6738 7.35976C12.6947 6.87869 13.2528 6.74224 13.6114 6.9959C13.7566 7.09911 13.8003 7.40175 13.8721 7.46472C13.977 7.55744 14.3024 7.29329 14.159 7.82859H14.1572Z" fill="#FBF9F5"/>
<path d="M14.1573 7.82861C14.1363 7.90733 14.152 8.01579 14.0785 8.08926H7.90332C7.90332 7.8601 8.26019 7.84785 8.45087 7.82861C10.2265 7.65192 12.3519 7.85835 14.1555 7.82861H14.1573Z" fill="#EAE6C1"/>
<path d="M3.81574 10.9022C4.0554 10.8182 4.44026 11.0019 4.65018 11.0072C5.06478 11.0177 7.36168 10.9302 7.51562 11.0072C7.54011 11.0194 7.52087 11.2293 7.75003 11.2941L3.71253 11.1646C3.61806 11.1104 3.75801 10.9249 3.81749 10.9039L3.81574 10.9022Z" fill="#FBF9F5"/>
<path d="M7.09701 22.6264C7.23871 22.6176 8.10464 22.7016 8.11338 22.8083C8.13788 23.1127 7.64806 22.8363 7.61832 22.8345C7.30868 22.8083 6.9903 22.8398 6.68066 22.7821C6.7279 22.6508 7.00604 22.6316 7.09701 22.6264Z" fill="#FBF9F5"/>
<path d="M4.85849 13.1956C4.99494 13.1956 5.38505 13.367 5.22236 13.4562C5.08766 13.5297 5.02643 13.3005 5.01419 13.3005C4.7098 13.2795 4.32494 13.6976 4.05029 13.3792L4.85849 13.1973V13.1956Z" fill="#FBF9F5"/>
<path d="M6.26446 23.0428C6.37642 23.027 6.78402 23.048 6.81201 23.2247L6.05629 23.2509C5.96007 23.1372 6.22947 23.048 6.26446 23.0428Z" fill="#FBF9F5"/>
<path d="M4.70068 21.3248L5.50889 21.3511C5.50889 21.3931 4.71818 21.5365 4.70068 21.3248Z" fill="#FBF9F5"/>
<path d="M4.492 11.2153C4.75615 11.1803 4.68443 11.4427 4.38704 11.371C4.29432 11.3045 4.47626 11.2171 4.492 11.2153Z" fill="#FBF9F5"/>
<path d="M48.7557 22.3133C47.1218 22.4952 45.4425 22.2836 43.8051 22.3658C43.7578 22.2381 43.6651 22.1611 43.5969 22.0526C43.4132 21.7587 42.8604 21.1815 42.528 21.115C42.2219 21.0538 38.9349 21.0118 38.5938 21.0625C38.7984 20.8823 39.0206 20.9121 39.2707 20.9068C39.8988 20.8946 40.5373 20.9838 41.1723 20.9068C41.251 20.7739 41.1426 20.8158 41.0673 20.8018C40.7857 20.7511 40.2661 20.8088 39.9477 20.8018C40.5355 20.7511 41.2125 20.6899 41.7968 20.7494C41.9228 20.7616 41.9927 20.9033 42.005 20.9051C42.3444 20.9593 42.4231 20.8053 42.8394 21.0608C42.9689 21.1395 43.4727 21.701 43.5164 21.6853C43.6704 21.3389 43.5514 20.9156 43.6984 20.5657C44.1287 19.5458 46.2874 20.3365 46.7457 21.0608C46.6985 20.3803 47.3388 19.5948 47.8146 20.4607C48.028 20.8491 47.9266 21.5348 48.0752 21.8672C48.1435 22.0229 48.8572 21.8305 48.7522 22.3098L48.7557 22.3133Z" fill="#FBF9F5"/>
<path d="M39.9505 18.0938C40.0817 17.611 40.5225 17.4396 40.1587 16.7398C40.3038 16.6296 41.21 16.187 41.3307 16.2185C41.6281 16.2972 41.5197 17.681 41.5127 17.9644C41.4444 18.1166 40.1604 18.0938 39.9487 18.0938H39.9505Z" fill="#EAE6C1"/>
<path d="M49.799 13.1431C49.8217 12.9524 49.7675 12.9857 49.617 12.9874C47.0822 13.0206 44.5456 13.0714 42.0091 13.0399C41.9618 12.9752 41.8429 12.9087 41.8271 12.8317C41.9146 12.8002 42.0896 12.6865 42.1665 12.676C43.3491 12.4941 47.9516 12.5343 49.2007 12.676C49.4473 12.704 49.5628 12.858 49.7745 12.9367C49.7727 12.5203 49.3109 12.5081 49.0187 12.4678C48.9908 12.3611 49.0695 12.3699 49.0712 12.3629C49.3861 12.09 50.5862 12.9104 50.2433 13.0924C50.224 13.1029 49.8689 13.1361 49.8007 13.1448L49.799 13.1431Z" fill="#EAE6C1"/>
<path d="M49.0167 12.4661C49.3089 12.5064 49.7707 12.5186 49.7724 12.9349C49.5625 12.8562 49.4453 12.7023 49.1986 12.6743C47.9496 12.5326 43.3471 12.4924 42.1645 12.6743C42.0893 12.6865 41.9126 12.8002 41.8251 12.83C41.7586 12.5029 42.3359 12.4906 42.5808 12.4661C43.9348 12.3209 47.675 12.2807 49.015 12.4661H49.0167Z" fill="#FBF9F5"/>
<path d="M35.26 12.3104C35.5189 13.7816 36.726 14.749 37.6041 15.8528C37.6076 15.935 37.6024 16.0102 37.6041 16.061C37.1003 15.9997 36.2484 16.2342 36.3533 16.8692C36.3691 16.9654 36.6 17.2103 36.614 17.2855C36.7172 17.8471 36.6822 20.4309 36.614 21.0624C36.614 21.0676 36.5755 21.0361 36.5615 21.1673C36.2431 21.1778 35.7883 21.4595 35.6239 21.7149C35.1953 22.3726 35.2757 25.7331 35.26 26.7163C35.2355 28.0493 35.0536 31.7282 35.365 32.7865C35.4664 33.1312 35.5259 33.0717 35.5731 33.4111L34.5305 33.4635C34.5235 33.3463 34.5305 33.1242 34.478 33.021C34.4605 32.9877 33.8903 32.5819 33.8535 32.5784L33.906 32.0046C34.004 32.0046 34.8594 31.9084 34.8961 31.8751C34.9958 30.4424 35.1743 28.9327 35.1043 27.4982C35.0571 26.5186 34.8367 25.6649 34.8437 24.6328C34.8611 22.3097 35.2635 19.8273 35.1568 17.4937C35.1113 16.4966 34.8646 15.3787 34.688 14.3938C34.7859 14.2836 34.7562 14.1822 34.7929 14.0807C34.9311 13.6853 35.0326 12.6672 35.0011 12.2579C35.1078 12.2159 35.2023 12.3034 35.2617 12.3104H35.26Z" fill="#F4F6E8"/>
<path d="M11.9689 33.2047C11.9812 33.4286 11.9514 33.6595 11.9689 33.8817L10.0936 33.9866C10.0936 33.9866 10.0586 34.0059 10.0411 33.9341C10.0027 33.7802 10.0324 33.3708 10.0936 33.2047C10.2633 33.2536 11.7065 33.2256 11.9689 33.2047Z" fill="#EFDDB8"/>
<path d="M42.4518 33.2555C42.3486 33.4724 42.3906 33.8537 42.5568 34.0374C42.5533 34.0374 42.576 34.0637 42.5043 34.0899L40.8896 33.9342C40.8949 33.7033 40.9001 33.4829 40.9421 33.2572C41.4389 33.259 41.955 33.126 42.4536 33.2572L42.4518 33.2555Z" fill="#F1C995"/>
<path d="M35.5734 33.4129C35.6031 33.6228 35.5034 33.8205 35.6784 33.9867C35.6609 33.9867 35.3477 34.0462 35.3652 34.1162C35.3775 34.2981 38.1117 34.2911 38.3881 34.2981C38.6208 34.3033 38.8377 34.2963 39.0651 34.2981C39.359 34.2998 39.6704 34.2421 39.9503 34.2456C40.05 34.2456 40.5888 34.662 40.8355 34.1407C40.8407 34.1844 40.8477 34.2526 40.8617 34.2963C40.9929 34.3401 42.1895 34.2876 42.3731 34.2439C42.5113 34.2106 42.4939 34.0917 42.5026 34.0882C42.5743 34.0637 42.5516 34.0374 42.5551 34.0357C42.7912 33.9342 43.1464 34.0549 43.2321 33.5669C43.337 33.7016 43.6117 33.8503 43.7796 33.88C44.9377 34.0794 46.6976 33.8328 47.8696 33.88C48.104 33.8887 50.4499 34.0759 50.3712 34.3751C49.542 34.7372 48.5851 34.7827 47.6877 34.8701C35.9548 36.0037 23.2002 35.8445 11.4218 35.234C9.51678 35.136 7.47354 35.0643 5.58598 34.8701C5.33582 34.8439 2.85699 34.6042 2.90247 34.3226C3.91185 33.8992 5.05418 34.0864 6.10729 33.9832C6.13003 33.9815 6.37844 33.88 6.39418 33.8783C6.70207 33.8503 7.05369 33.9115 7.35808 33.8783C8.00184 33.8083 8.69633 33.5564 9.36459 33.5651C9.46255 33.9255 9.68822 34.0269 10.0416 33.929C10.0591 34.0007 10.0923 33.978 10.0941 33.9815C10.2585 34.2561 11.6912 34.2754 12.0743 34.2946C12.1478 34.2981 12.2948 34.4538 12.5694 34.3996C12.7181 34.3698 12.9595 34.1284 13.012 33.9832C16.0734 34.5885 19.196 34.5902 22.3133 34.6602C26.2703 34.7494 30.2344 34.6865 34.1932 34.7127C34.3838 34.6287 34.3838 34.543 34.4013 34.3488C33.1943 34.3943 31.9837 34.3121 30.7802 34.2963L34.4538 34.2439C34.5745 34.1896 34.5395 33.5914 34.5325 33.4619L35.5752 33.4094L35.5734 33.4129Z" fill="#E6A774"/>
<path d="M19.7854 33.621C19.7644 33.7802 19.7959 33.7715 19.9149 33.8292C20.4169 34.0741 21.7517 34.1178 22.3639 34.1931C22.5179 34.2123 23.0042 34.4065 23.0934 34.4012C23.3943 34.3872 23.515 33.9709 23.3278 33.7767L24.4212 33.7242C24.5839 34.1563 24.7098 34.1738 25.2294 34.0881C25.6335 34.0216 25.5775 33.9657 25.5688 33.6718L26.5064 33.6193C26.4977 33.7242 26.4382 33.817 26.4539 33.9831C26.4697 34.1493 26.4102 34.2788 26.6359 34.347C26.984 34.452 30.0768 34.2858 30.7783 34.2945C31.9819 34.3103 33.1924 34.3907 34.3995 34.347C34.382 34.5429 34.382 34.6269 34.1913 34.7109C30.2325 34.6846 26.2685 34.7494 22.3115 34.6584C19.1959 34.5867 16.0733 34.5867 13.0102 33.9814C13.0189 33.9569 13.0032 33.9062 13.0102 33.8764C13.5332 34.1196 14.1332 33.8922 14.6773 33.9289C15.0849 33.9552 16.6768 34.3068 16.9444 34.1896C17.1334 34.0234 16.9392 33.803 16.9182 33.6158C17.8716 33.5616 18.8303 33.6053 19.7836 33.6158L19.7854 33.621Z" fill="#D08B64"/>
<path d="M38.2825 34.0373C38.2843 34.0531 38.3735 34.2473 38.3875 34.298C38.1129 34.291 35.3769 34.298 35.3646 34.1161C35.3454 34.0443 35.6603 33.9866 35.6778 33.9866C35.8982 33.9709 36.2498 34.2158 36.3548 33.7784C36.8428 34.172 37.6825 33.8659 38.2825 34.0391V34.0373Z" fill="#D08B64"/>
<path d="M12.0745 34.298C11.6914 34.2805 10.2587 34.2613 10.0942 33.9849L11.9695 33.8799C11.98 34.0216 12.0168 34.1668 12.0745 34.2963V34.298Z" fill="#DC7E40"/>
<path d="M42.5045 34.0899C42.4958 34.0934 42.5133 34.2141 42.3751 34.2456C42.1914 34.2893 40.9966 34.3401 40.8636 34.2981C40.8496 34.2543 40.8426 34.1861 40.8374 34.1424C40.8234 33.9937 40.8899 33.9447 40.8899 33.9342L42.5045 34.0899Z" fill="#AA6F4D"/>
<path d="M39.8471 33.8817C39.8646 34.0077 39.9363 34.1196 39.9521 34.2456C39.6722 34.2421 39.3608 34.2998 39.0669 34.2981C39.1351 34.1704 39.1439 34.0199 39.1719 33.8817H39.8489H39.8471Z" fill="#985A40"/>
<path d="M4.41553 25.5443C5.59984 25.6108 5.11002 26.2598 5.61384 27.0033C5.62783 27.0243 5.64533 27.1905 5.69256 27.2114C5.77128 27.2499 6.55324 27.3269 6.70893 27.3164C6.74392 27.3881 6.89611 27.7188 7.02207 27.6558L6.50076 26.5362C6.49026 26.4872 6.46228 26.4295 6.44828 26.328C6.42029 26.1059 6.43778 26.0219 6.44828 25.8067L7.72531 26.7968L7.85476 25.7035C8.16265 25.9117 8.24137 25.9991 8.42855 26.328C8.42855 26.363 8.42855 26.398 8.42855 26.433C8.42505 26.8668 8.4373 27.3024 8.42855 27.7363C8.4163 28.3923 8.37957 29.0623 8.32359 29.7165C7.08505 29.2582 6.00045 28.3275 5.32694 27.2149L3.16474 26.251L5.45815 28.2051C5.173 28.1788 4.49075 28.5217 4.25984 28.7264C3.79976 28.338 3.38166 27.9707 3.06153 27.4494C2.77464 26.9805 2.48949 26.3315 2.43701 25.7822C2.49824 25.6825 4.18637 25.5338 4.41728 25.5478L4.41553 25.5443Z" fill="#879449"/>
<path d="M8.21846 31.5882C8.63305 31.7894 8.50185 32.155 8.68728 32.6308C8.82023 32.972 8.9147 33.3026 9.36428 33.2554C9.35904 33.2711 9.36079 33.5528 9.36428 33.5685C8.69603 33.5598 8.00154 33.8099 7.35778 33.8816C7.05339 33.9149 6.70177 33.8536 6.39388 33.8816C5.98103 33.7277 5.5402 33.5772 5.24805 33.2309C5.84633 33.1452 6.61605 33.0122 7.04639 32.5801C6.2137 32.7376 5.35477 32.769 4.62354 32.3195C4.87019 31.8996 5.47547 31.7807 5.90056 31.59C6.05101 31.5218 6.2172 31.2856 6.23994 31.2768C6.52858 31.1561 7.91407 31.4413 8.22021 31.59L8.21846 31.5882Z" fill="#5A6A32"/>
<path d="M5.45661 28.2015C6.05314 28.2575 7.76401 29.6955 8.47949 29.8687C8.49349 30.7976 8.49524 31.7212 8.68766 32.6309C8.50223 32.1551 8.63344 31.7895 8.21884 31.5883C7.73077 31.0915 6.49747 30.7538 6.05664 30.285C5.96567 30.1888 5.96567 30.1573 5.97792 30.0244C6.1511 30.0349 7.17972 29.9614 7.2287 29.8424C7.45612 29.2861 5.86946 29.4051 5.50909 29.5555C4.99653 29.4156 4.64491 29.0482 4.2583 28.7211C4.48922 28.5164 5.17146 28.1735 5.45661 28.1998V28.2015Z" fill="#707F3D"/>
<path d="M5.09206 29.713C5.36321 29.7689 5.59063 30.0016 5.97723 30.0261C5.96499 30.1591 5.96499 30.1905 6.05596 30.2868C6.49679 30.7538 7.73009 31.0915 8.21816 31.59C7.91202 31.4431 6.52653 31.1579 6.23789 31.2769C6.13293 31.3259 6.04021 31.2262 6.02972 31.2244C5.48217 31.0267 4.70895 31.4186 4.10193 31.3801C3.93574 31.3696 3.89026 31.4221 3.73806 31.3014C3.66109 31.2402 3.08205 30.1136 3.11354 30.0506C3.68033 29.9439 4.53402 29.5958 5.09381 29.7112L5.09206 29.713Z" fill="#879449"/>
<path d="M6.02946 31.2244C6.03996 31.2244 6.13268 31.3259 6.23764 31.2769C6.21665 31.2857 6.04871 31.5218 5.89826 31.59C5.47317 31.7807 4.86789 31.8997 4.62124 32.3195C4.3046 32.1253 4.15591 31.9049 3.94424 31.6163C3.93024 31.5358 4.08768 31.5078 4.15241 31.4868C4.37458 31.4099 5.8038 31.2069 6.02772 31.2262L6.02946 31.2244Z" fill="#707F3D"/>
<path d="M5.97697 30.0261C5.59036 30.0016 5.36295 29.7689 5.0918 29.7129C5.27373 29.7829 5.42068 29.5922 5.50814 29.5572C5.86851 29.4068 7.45517 29.2878 7.22776 29.8441C7.17878 29.9648 6.15016 30.0383 5.97697 30.0261Z" fill="#879449"/>
<path d="M6.02984 31.2244C5.80592 31.2052 4.3767 31.4081 4.15453 31.4851L4.10205 31.3801C4.70908 31.4169 5.48229 31.0267 6.02984 31.2244Z" fill="#D5D2A6"/>
<path d="M7.85326 25.7018L7.72381 26.7951L6.44678 25.805C6.45028 25.7245 6.29984 25.3047 6.5255 25.2312C6.73018 25.1647 7.64509 25.5583 7.85501 25.7L7.85326 25.7018Z" fill="#9AA556"/>
<path d="M6.44626 26.3262C6.4585 26.4277 6.48824 26.4854 6.49874 26.5344C6.55472 26.8108 6.57746 27.0557 6.70691 27.3163C6.55122 27.3268 5.77101 27.2499 5.69054 27.2114C5.64505 27.1886 5.62581 27.0242 5.61182 27.0032C5.86897 26.858 5.58383 26.1005 5.69054 26.0131L6.44626 26.3262Z" fill="#9AA556"/>
<path d="M8.32173 29.7129C8.37771 29.7339 8.4057 29.7829 8.47742 29.7654C8.47742 29.8004 8.47742 29.8354 8.47742 29.8704C7.76368 29.6972 6.05107 28.2575 5.45454 28.2032L3.16113 26.2492L5.32333 27.2131C5.99684 28.3239 7.08144 29.2563 8.31998 29.7147L8.32173 29.7129Z" fill="#AFB675"/>
<path d="M8.53142 28.2016C8.54191 28.6914 8.47369 29.2459 8.47893 29.7655C8.40721 29.783 8.37922 29.734 8.32324 29.713C8.37747 29.0605 8.41421 28.3887 8.4282 27.7327C8.46669 27.8132 8.53142 28.1351 8.53316 28.2016H8.53142Z" fill="#625D2F"/>
<path d="M6.7072 27.3164C6.57774 27.0575 6.555 26.8108 6.49902 26.5344L7.02033 27.654C6.89613 27.717 6.74218 27.3864 6.7072 27.3146V27.3164Z" fill="#5A6A32"/>
<path d="M47.0888 27.0557C46.8527 27.752 46.7565 28.212 46.9839 28.8278C47.0416 28.9835 47.0294 29.1375 47.192 29.2442C47.1781 29.2529 47.1308 29.2372 47.1396 29.2966C46.7582 29.5171 46.6043 29.6185 46.2544 29.8704C45.999 30.0524 45.7313 30.3253 45.4199 30.418C45.6928 30.2553 45.4199 29.9019 45.4199 29.6885C45.4182 29.3841 45.5092 28.9975 45.5249 28.6721C45.4654 28.373 45.7576 27.8832 45.7856 27.682C46.1827 27.4196 46.6025 27.1082 47.0888 27.0575V27.0557Z" fill="#707F3D"/>
<path d="M48.8593 29.5048C48.6949 29.5048 48.5689 29.4331 48.4168 29.4524C48.1683 29.4856 47.9234 29.762 47.7922 29.7655C47.7153 29.7655 47.1397 29.4733 47.2972 29.2967C47.6085 29.12 47.8395 28.9923 48.1316 28.7754C48.2173 28.8978 48.3678 28.8856 48.4955 28.8803C48.8558 28.8646 50.432 28.1386 50.5282 28.3852C50.4198 28.5759 49.9247 29.5731 49.7725 29.6098C49.7288 29.6203 49.0448 29.5066 48.8611 29.5048H48.8593Z" fill="#879449"/>
<path d="M50.5288 26.7426C49.8833 27.4213 49.0979 28.0109 48.3404 28.5654C48.2634 28.5882 48.0867 28.6809 48.0272 28.7211C47.8943 28.7211 47.9678 28.1561 47.9748 28.1211C48.085 27.6453 48.6675 26.97 49.0681 26.6884C49.5194 26.6656 50.0792 26.6744 50.5271 26.7408L50.5288 26.7426Z" fill="#879449"/>
<path d="M48.4952 28.8786C48.3675 28.8838 48.2153 28.8978 48.1313 28.7736C48.2258 28.7036 48.2923 28.6004 48.3395 28.5654C49.097 28.0091 49.8824 27.4196 50.528 26.7426C50.6434 26.7601 51.0685 26.7933 51.1017 26.8721C50.7746 28.2366 49.6043 28.4115 48.497 28.8786H48.4952Z" fill="#9AA556"/>
<path d="M49.0693 26.6901C48.6687 26.9718 48.0844 27.647 47.976 28.1228C47.969 28.1561 47.8955 28.7229 48.0285 28.7229C47.7206 28.9345 47.5089 29.057 47.194 29.2442C47.0313 29.1375 47.0436 28.9818 46.9858 28.8278C47.5299 27.5211 47.4739 26.7706 49.0693 26.6919V26.6901Z" fill="#879449"/>
<path d="M47.1418 29.2966C47.1418 29.2966 47.1453 29.3823 47.2975 29.2966C47.1401 29.4733 47.7156 29.7672 47.7926 29.7655C47.9255 29.7637 48.1687 29.4856 48.4171 29.4523C48.5693 29.4331 48.6952 29.5031 48.8597 29.5048L48.704 29.7655C48.4118 29.7777 48.1022 29.9177 47.7926 29.8704C47.5564 29.8337 47.1068 29.4051 47.0631 29.4016C47.0124 29.3981 46.4018 29.8652 46.2549 29.8704C46.6065 29.6203 46.7587 29.517 47.1401 29.2966H47.1418Z" fill="#AFB675"/>
<path d="M45.7857 27.6802C45.7577 27.8814 45.4655 28.3712 45.525 28.6704C45.525 28.6406 45.4131 28.3747 45.4201 28.2803C45.4236 28.24 45.7052 27.7047 45.602 27.5245C45.455 28.0248 44.2252 28.7928 44.0643 29.0885C43.9926 29.0885 44.0136 29.0342 44.0118 28.9835L44.4807 28.5934C44.4649 27.8727 44.7605 27.2464 45.002 26.5869C45.1856 26.5204 45.5478 26.2195 45.7314 26.4574C45.8119 26.5624 45.8119 27.4843 45.7839 27.682L45.7857 27.6802Z" fill="#879449"/>
<path d="M45.5253 28.6704C45.5095 28.9957 45.4186 29.3824 45.4203 29.6867C45.4203 29.9002 45.6932 30.2535 45.4203 30.4162C45.73 30.3235 45.9994 30.0506 46.2548 29.8687C46.4017 29.8634 47.0105 29.3963 47.063 29.3998C47.1067 29.4033 47.5563 29.8319 47.7925 29.8687C48.1021 29.9159 48.4117 29.776 48.7039 29.7637C48.8298 29.7585 49.6065 29.7445 49.6415 29.79C49.1552 30.6086 48.2175 30.6874 47.4006 30.9883C47.9429 31.0827 48.6321 30.6471 49.1727 30.5982C49.4211 31.3364 48.4992 31.1859 48.0531 31.4833C48.7703 31.4536 49.3791 31.0477 50.0071 30.7538C50.0719 30.9428 49.5471 32.1621 49.3039 32.2128C48.3977 32.1078 47.4636 32.1376 46.5679 32.2915L49.1727 32.3965C49.0555 33.0927 48.5027 33.6123 47.8694 33.8817C46.6974 33.8345 44.9358 34.0811 43.7794 33.8817C43.6115 33.852 43.3368 33.7033 43.2319 33.5686C43.1462 33.4583 43.1934 33.3761 43.1794 33.3604C43.3596 33.3131 43.4261 33.2064 43.5433 33.0997C44.5579 32.1743 43.629 29.8862 44.0646 29.0885C44.2255 28.7928 45.4536 28.0266 45.6023 27.5245C45.7037 27.703 45.4221 28.2383 45.4203 28.2803C45.4133 28.3747 45.5253 28.6406 45.5253 28.6704Z" fill="url(#paint0_linear_6413_63870)"/>
<path d="M50.0073 30.7556C49.3792 31.0495 48.7705 31.4554 48.0532 31.4851C48.5011 31.1877 49.423 31.3382 49.1728 30.5999C49.346 30.5842 49.9425 30.5719 50.0073 30.7556Z" fill="#9AA556"/>
<path d="M48.3646 32.4227C48.3804 32.4122 48.5063 32.5732 48.6778 32.4227C48.9367 32.6134 47.8416 32.8443 47.7139 32.8128C47.5792 32.5889 48.2842 32.6467 48.3139 32.6309C48.3734 32.5977 48.3051 32.463 48.3664 32.4227H48.3646Z" fill="#D5D2A6"/>
<path d="M45.0831 30.7031C45.2371 30.7014 45.0481 30.8466 45.0306 30.8588C44.8977 30.9533 44.5461 31.158 44.3799 31.1982L45.0831 30.7031Z" fill="#707F3D"/>
<path d="M45.1879 32.7358C45.1879 32.7358 45.2736 32.8058 45.3174 32.8146C45.2946 32.8653 44.6876 32.937 44.5879 32.867C44.6246 32.7901 45.1564 32.7341 45.1879 32.7376V32.7358Z" fill="#D5D2A6"/>
<path d="M45.0038 26.5869C44.7641 27.2464 44.4667 27.8727 44.4824 28.5934L44.0136 28.9835C43.9909 28.3608 44.0766 27.7362 44.0661 27.1082C44.2935 26.8196 44.6696 26.7059 45.0038 26.5869Z" fill="#879449"/>
<path d="M48.34 28.5671C48.2928 28.6021 48.2263 28.7053 48.1318 28.7753C47.8397 28.9905 47.6105 29.1199 47.2974 29.2966C47.1452 29.3823 47.1487 29.2931 47.1417 29.2966C47.133 29.2371 47.1802 29.2529 47.1942 29.2441C47.5091 29.057 47.7207 28.9345 48.0286 28.7228C48.0881 28.6826 48.2648 28.5899 48.3418 28.5671H48.34Z" fill="#AFB675"/>
<path d="M14.6264 33.2554L14.6789 33.9324C14.1348 33.8974 13.5348 34.1231 13.0117 33.8799C13.0537 33.719 13.1097 33.4671 13.0642 33.3061C13.5575 33.2729 14.1453 33.3079 14.6281 33.2537L14.6264 33.2554Z" fill="#F1C995"/>
<path d="M20.4618 11.8923C20.4705 11.9587 20.453 12.034 20.4618 12.1004C20.7329 14.0912 21.3154 15.9088 21.8158 17.8313C21.9155 18.2144 22.0327 18.5905 22.1289 18.9771C22.2076 19.2903 22.1429 19.5334 22.2846 19.9673C22.3581 20.1929 22.7149 20.751 22.7009 20.8787C22.6537 21.3335 21.765 22.4899 21.7108 23.0409C21.6006 23.1179 21.3014 23.0566 21.242 23.431C21.7283 23.6409 22.2776 22.9167 22.596 22.5721C22.9144 22.2274 23.1575 21.8233 23.4811 21.4787H23.5336C23.4916 21.7849 23.5214 22.3656 23.5861 22.677C23.315 22.5616 23.4357 22.9937 23.4304 23.0164C23.266 23.6392 22.8829 24.2357 22.7534 24.8655C22.7377 24.9442 22.61 25.0457 22.6747 25.1261L23.8992 25.5425C23.9132 25.5967 23.9377 25.6142 23.9517 25.6982C23.9972 25.9693 23.985 26.1687 24.0042 26.4276C24.0549 27.1221 24.0969 27.8184 24.1599 28.5111C24.2089 29.0412 24.445 32.2215 24.8106 32.3667C24.8859 32.3964 25.101 32.3457 25.2008 32.3667C25.1973 32.4192 25.3477 32.4892 25.2532 32.6274C25.1255 32.4804 25.0958 32.5556 24.9401 32.5224C24.8351 32.4997 24.5832 32.3912 24.5238 32.4437C24.4293 32.6483 24.4538 32.8828 24.4188 33.0944C24.41 33.1504 24.3138 33.3149 24.3138 33.3551C23.9115 33.2519 23.1383 33.3376 22.6467 33.2501C22.6292 33.2466 22.6117 33.2536 22.5942 33.2501C22.4175 33.2169 21.074 32.7446 20.9796 32.6763C20.7714 32.5259 20.6472 32.0396 20.6157 31.7912C20.6209 31.7912 20.5912 31.7544 20.7207 31.7387C20.8851 31.7194 21.0443 31.66 21.2157 31.6862L21.2944 31.3993C20.6769 26.9892 20.7486 22.3534 20.2011 17.9555C20.0769 16.9619 19.3649 15.1548 19.3667 14.4376C19.3667 14.2766 19.9335 12.4661 19.706 12.4573C18.1334 13.6399 16.4155 12.6462 15.8242 10.9983C16.2948 11.0613 16.7251 11.5774 17.2045 11.7278C18.3153 12.0777 19.7375 11.8713 20.4093 10.8427C20.4425 11.182 20.418 11.5441 20.4618 11.8853V11.8923Z" fill="url(#paint1_linear_6413_63870)"/>
<path d="M29.5816 16.1135C29.6113 16.8412 29.6375 17.5742 29.6865 18.3019C29.5763 20.3749 29.809 22.768 29.8947 24.8673C29.9367 25.8889 30.0014 26.9192 30.0504 27.9409L29.8947 27.9671V25.7262C29.8527 25.6947 29.69 25.4568 29.6865 25.4393C29.4084 23.9593 28.9518 23.7617 28.5932 22.6771C28.4707 22.308 28.4882 21.6187 28.3325 21.2181C28.392 21.2024 28.469 21.1236 28.4882 21.0624C28.5337 21.0904 28.7104 21.1639 28.7489 21.1411C28.8311 20.8367 28.9255 20.5306 29.0095 20.2297C29.0393 20.123 29.2072 19.8571 29.2177 19.7871C29.2702 19.474 29.3297 18.5818 28.9046 18.6675C29.2439 17.6757 29.3961 16.731 29.5291 15.6971C29.5343 15.8511 29.5763 16.0103 29.5816 16.1135Z" fill="#EAE6C1"/>
<path d="M15.6692 11.7892C15.7129 11.8207 15.8004 11.8819 15.8249 11.9186C15.8896 12.0166 16.6296 13.9741 16.6593 14.1071C16.7048 14.31 16.6908 14.3572 16.6593 14.5496C16.6541 14.5846 16.6243 14.6424 16.6068 14.7053C16.4931 15.1427 16.0645 15.7532 16.0855 16.2168C15.9578 16.3305 15.2318 18.4874 15.2004 18.7446C15.0639 19.8344 15.3018 21.1954 15.2004 22.3133C15.1164 22.2678 14.8505 22.2853 14.784 22.2608C14.5199 22.1681 14.3992 22.1103 14.107 22.0526C13.9951 22.0299 13.8953 22.1261 13.7431 22.1051C13.6872 22.0964 13.4458 22.0596 13.43 22.0526C13.381 22.0334 13.1309 21.7535 13.0906 21.7395C12.8842 21.6678 11.8136 21.6818 11.7611 21.61C11.8678 21.0432 11.5984 19.2729 11.8136 18.8478C11.9273 18.6221 12.4311 18.5907 12.6481 18.6134C12.9227 19.3779 13.3023 19.6718 13.4825 18.6659C14.9589 18.449 14.058 21.0905 14.3169 21.9232C14.3344 21.9774 14.5304 22.0999 14.5776 21.9756C14.6371 21.0835 14.4971 20.0933 14.5776 19.2134C14.5828 19.1609 14.833 18.9248 14.7858 18.6396C14.7035 18.1446 13.9006 18.253 13.535 18.2495C13.6294 17.4291 13.5595 17.4028 13.8481 16.5824C14.1368 15.7619 14.4446 14.8908 14.7333 14.0301C14.9852 13.2779 15.2808 12.5309 15.5677 11.7892C15.5887 11.7997 15.6569 11.7787 15.6727 11.7892H15.6692Z" fill="#D0D9CB"/>
<path d="M37.6585 16.5298C37.732 16.8447 37.8527 17.1631 38.2585 17.0511C38.3407 17.0284 38.6364 16.598 38.6486 16.5298C38.9163 16.5665 39.3974 16.4983 39.4831 16.8167C39.7175 17.6966 39.3081 19.6996 39.4831 20.6985C39.4691 20.6985 39.5705 20.7947 39.2749 20.8035C38.8393 20.814 38.4002 20.8245 37.9716 20.9084L36.8783 20.8559C37.0567 19.8256 36.6404 17.7578 36.8783 16.8692C36.9605 16.5613 37.3856 16.4948 37.6602 16.5298H37.6585Z" fill="#EAE6C1"/>
<path d="M45.0307 10.3826C45.8774 10.2304 46.3129 10.7937 46.3339 11.5809C46.7398 11.1051 46.9882 10.771 47.6372 11.1121C47.7824 11.1873 47.9853 11.469 48.106 11.5285C48.4506 11.6999 48.7935 11.3343 48.7061 12.3367L43.3128 12.3104C42.9104 11.2538 43.9338 11.7226 44.198 11.5809C44.2644 11.5442 44.3694 10.5016 45.0324 10.3826H45.0307Z" fill="#FBF9F5"/>
<path d="M42.8158 7.51549C41.3341 7.74991 39.5497 7.37905 38.0995 7.56798C38.0138 7.57847 37.6604 7.68518 37.6569 7.82863C37.2056 7.83213 36.686 7.7674 36.2767 7.98432C36.1192 7.9126 36.3677 7.72717 36.3816 7.72367C36.6371 7.65894 37.7479 7.79364 37.8669 7.48926C37.9333 7.31957 37.7584 6.88573 37.9963 6.73353C38.2342 6.58134 38.8028 6.76327 38.934 6.73353C39.0582 6.70554 39.1719 5.95507 39.7684 5.84836C41.0244 5.62269 40.9037 6.92071 41.0192 6.94171C41.2501 6.50612 42.088 6.30669 42.2962 6.81226C42.5254 7.3668 42.0461 7.23735 42.8175 7.51549H42.8158Z" fill="#FBF9F5"/>
<path d="M43.1809 7.98596C43.1039 7.96672 43.0672 7.94922 42.9727 7.93348C41.6222 7.70781 39.1154 7.81627 37.6582 7.82852C37.6617 7.68507 38.0151 7.57836 38.1008 7.56787C39.551 7.38069 41.3336 7.75155 42.817 7.51539C42.8503 7.52763 43.4118 7.59586 43.4416 7.7498C43.4451 7.76729 43.2824 8.03144 43.1809 7.98421V7.98596Z" fill="#EAE6C1"/>
<path d="M33.385 5.22375C33.385 5.22375 33.3343 5.21675 33.3325 5.06806C33.6299 5.02433 33.9815 4.90362 33.8801 4.54675L33.5407 4.62547L33.6457 4.07793C34.3279 4.03944 33.9763 5.33921 33.385 5.22375Z" fill="#C8674A"/>
<path d="M46.8548 8.97441C46.9843 8.97441 47.1522 9.00764 47.2449 9.10386L46.4892 9.23331C47.056 9.61117 46.295 9.48697 46.0991 9.25955C46.0991 9.17208 46.7656 8.97441 46.8548 8.97266V8.97441Z" fill="#FBF9F5"/>
<path d="M44.7188 9.13183C44.822 9.10559 45.1771 9.10209 45.2663 9.21055L44.5106 9.34C44.4739 9.26478 44.6855 9.14058 44.7188 9.13183Z" fill="#FBF9F5"/>
<path d="M43.181 7.98603C43.181 7.98603 43.1618 8.07525 43.2073 8.091C43.3332 8.13123 43.6481 8.0665 43.8073 8.16972C43.8073 8.22045 42.7454 8.27643 42.9728 7.9353C43.0673 7.95105 43.1058 7.96679 43.181 7.98778V7.98603Z" fill="#FBF9F5"/>
<path d="M42.6859 18.2494C42.8433 18.2494 43.0795 18.2267 43.1285 18.4314L42.2695 18.3526C42.3168 18.3159 42.6579 18.2477 42.6859 18.2477V18.2494Z" fill="#FBF9F5"/>
<path d="M33.6452 3.86762C33.598 3.76631 33.6906 3.6423 33.6976 3.60736L34.2705 3.68596C34.0504 3.80474 33.9072 3.7471 33.6469 3.86762H33.6452Z" fill="#F4F6E8"/>
<path d="M19.7855 31.7965L19.8905 33.3849L19.9954 33.4636C20.8106 33.4601 21.9512 33.8537 22.6002 33.2554C22.6177 33.2589 22.6352 33.2519 22.6527 33.2554L22.7577 33.5686C22.5862 33.5616 22.0334 33.726 21.7938 33.7242C21.1063 33.7207 20.4433 33.6263 19.7873 33.6193C18.8321 33.6088 17.8752 33.5651 16.9218 33.6193C16.4285 33.6473 15.9282 33.761 15.4366 33.8275C15.3212 33.747 15.4366 33.6438 15.4104 33.5143C15.6361 33.5178 16.5265 33.572 16.6087 33.3849C16.7276 33.112 16.1346 33.0612 16.0349 32.8636C15.9247 32.6449 16.0192 32.1061 15.9824 31.8472C15.9807 31.8297 15.9842 31.8122 15.9824 31.7947H16.0349L16.5562 31.7685C16.8011 29.2179 16.9586 26.6551 17.2332 24.1098C17.4081 22.4811 17.5516 19.9078 17.9627 18.4052C18.61 22.81 18.9213 27.2534 19.4741 31.6653C19.5056 31.7195 19.74 31.7895 19.7873 31.7947L19.7855 31.7965Z" fill="url(#paint2_linear_6413_63870)"/>
<path d="M24.3195 33.3604C24.3195 33.4059 24.3982 33.656 24.4244 33.7243L23.3311 33.7767C23.3101 33.754 22.8203 33.5703 22.7573 33.5686L22.6523 33.2554C23.1439 33.3412 23.9189 33.2554 24.3195 33.3604Z" fill="#E6A774"/>
<path d="M26.508 33.3079C26.4922 33.4006 26.5167 33.5213 26.508 33.6211L25.5703 33.6735C25.5668 33.5423 25.5196 33.5756 25.5178 33.5686C25.5091 33.5021 25.5301 33.4251 25.5178 33.3604L26.508 33.3079Z" fill="#E6A774"/>
<path d="M28.3832 23.4083C28.733 23.8737 29.0986 25.1052 29.4258 25.4673C29.4905 25.539 29.6392 25.5478 29.6864 25.4411C29.6899 25.4586 29.8544 25.6965 29.8946 25.728V27.9689L30.0503 27.9427C30.1133 29.2529 30.129 30.5667 30.206 31.877C30.2637 31.9714 30.3022 32.0274 30.4142 32.0589C30.3862 32.3458 30.3862 32.6572 30.206 32.8933C30.0118 32.8723 28.3342 33.4146 28.0175 33.5178C27.9441 33.2817 27.8181 33.0578 27.7044 32.8408C27.6519 32.7411 27.6082 32.6169 27.5487 32.5277C27.5435 32.5207 27.6799 32.4385 27.5225 32.372C27.47 32.3493 27.1849 32.4053 27.1831 32.3458L27.4962 32.2933L27.2881 32.1638C27.5872 32.0501 27.5155 31.7877 27.5487 31.4081C27.6677 30.0751 27.6274 28.5007 27.5487 27.1607C27.519 26.6656 27.442 26.1898 27.393 25.7017C27.3808 25.5828 27.4018 25.4568 27.393 25.3379C27.6834 25.2766 28.0385 25.1367 28.3307 25.051C27.9003 24.4842 27.8496 23.4486 27.5487 22.8888C27.5732 22.8818 27.6519 22.7926 27.6537 22.7838C27.7866 22.8923 28.3132 23.3156 28.3832 23.4083Z" fill="#E3DFD2"/>
<path d="M32.9682 30.5981C32.9874 30.8203 32.9962 31.8017 33.0731 31.9014L33.1256 31.9539C33.1921 32.1708 33.0574 32.6291 33.0731 32.7883C32.7967 32.7428 32.2159 33.0157 32.0043 32.9965C31.7751 32.9755 31.392 32.5381 31.3535 32.5276L31.406 32.0588C31.4795 32.0518 31.7944 31.9923 31.8223 31.9294C32.041 28.0948 32.2299 24.2305 32.083 20.3889C32.2404 20.3661 32.1845 20.5288 32.188 20.6233C32.2982 23.8998 32.6953 27.3216 32.9699 30.6016L32.9682 30.5981Z" fill="#F6EDD4"/>
<path d="M39.7944 33.2554C39.8889 33.4531 39.8224 33.698 39.8469 33.8799H39.1699C39.2154 33.656 39.2749 33.4321 39.2749 33.2029C39.4568 33.2029 39.6737 33.2554 39.7962 33.2554H39.7944Z" fill="#EFDDB8"/>
<path d="M37.6063 33.2047C37.7008 33.2152 37.776 33.2309 37.867 33.2572C38.4408 33.4199 38.2169 33.5196 38.2833 34.0391C37.6833 33.8659 36.8436 34.1721 36.3555 33.7785C36.3835 33.6648 36.3538 33.4006 36.3555 33.2572C36.7212 33.1942 37.2425 33.1644 37.6063 33.2047Z" fill="#EFDDB8"/>
<path d="M25.829 25.8574C25.8657 26.3158 26.0126 26.7636 26.0896 27.2114C26.366 28.8278 26.5375 30.467 26.8191 32.0834C26.9153 32.2531 27.127 32.2233 27.2879 32.1621L27.4961 32.2915L27.183 32.344C27.183 32.4035 27.4699 32.3475 27.5223 32.3703C27.6798 32.4367 27.5433 32.5207 27.5486 32.526C27.4909 32.4227 26.8261 32.3493 26.7929 32.3703C26.7579 32.393 26.5829 33.0525 26.5584 33.1522C26.541 33.2222 26.5077 33.3009 26.506 33.3079L25.5158 33.3604C25.5036 33.2939 25.4406 33.1277 25.4109 33.0473C25.3636 32.9161 25.3496 32.7394 25.2552 32.6309C25.3496 32.4927 25.1992 32.4227 25.2027 32.3703C25.2919 30.9428 25.3601 29.5363 25.4109 28.0983C25.4284 27.6138 25.4861 27.124 25.5158 26.6394C25.5298 26.4067 25.5421 26.1408 25.5158 25.9099C25.5351 25.9099 25.619 25.8662 25.829 25.8574Z" fill="#F6EDD4"/>
<path d="M37.1898 10.9022C36.6405 11.4567 35.6172 11.5809 34.8457 11.5792C34.8422 11.5634 34.7023 11.3658 34.69 11.3185C34.5938 10.9494 34.5063 10.5873 34.5343 10.1989C34.3244 10.2112 34.5186 10.596 34.3524 10.6415C33.9693 10.7465 33.9238 9.39423 33.936 9.18256C33.8626 9.66188 33.8048 10.1622 33.7541 10.6415C33.5599 12.4434 33.5214 14.0563 31.982 15.2791C31.3208 15.314 30.7697 15.1951 30.1592 15.1741C30.1994 14.8295 29.8618 14.5478 29.7953 14.3397L29.2215 10.6398C29.2443 10.3546 29.2688 10.066 29.274 9.78084C28.9731 10.2532 28.9591 10.7552 28.9609 11.3185C28.7982 11.3045 28.5253 11.28 28.4396 11.1103C28.2209 10.6783 28.4623 9.0706 28.7527 8.63501C29.3265 7.77258 30.1924 7.94926 30.9412 7.67112C31.382 8.77496 33.1173 8.17668 33.5459 7.30725C33.9273 7.38772 35.8656 8.04898 36.1245 8.2449C36.5531 8.56679 37.0971 10.3371 37.1933 10.9022H37.1898Z" fill="#F2AA3C"/>
<path d="M33.5425 7.30725C33.1121 8.17668 31.3785 8.77671 30.9377 7.67112C30.9692 7.65887 30.8537 7.59764 30.9114 7.56616C31.0234 7.50843 31.1651 7.54866 31.2508 7.35798C31.473 8.03673 32.2147 7.93702 32.736 7.67112C32.834 7.62038 33.0859 7.32824 33.1261 7.30725C33.4025 7.1638 33.35 7.26702 33.5425 7.30725Z" fill="#FBF9F5"/>
<path d="M29.7894 14.3414C29.5235 13.5105 29.527 12.3717 29.3206 11.5022C29.2314 11.3693 28.9427 11.4323 28.7993 11.4235C27.4768 11.3413 26.1333 11.4778 24.8125 11.5285L28.4337 11.1121C28.5194 11.2836 28.7923 11.3063 28.955 11.3203C29.0109 11.3256 29.1194 11.4358 29.2156 11.3466C29.2279 11.1139 29.1981 10.8742 29.2156 10.6433L29.7894 14.3432V14.3414Z" fill="#FBF9F5"/>
<path d="M31.4047 0.950132C31.7528 0.993866 32.0572 1.10233 32.3423 1.314C32.3511 1.321 32.4753 1.4452 32.498 1.46969C32.5435 1.51867 32.8024 1.81256 32.8112 1.83356C32.8584 1.95601 32.7464 2.17293 32.8637 2.30238C32.8462 2.30238 32.8287 2.30063 32.8112 2.30238C32.7779 2.30763 32.736 2.29539 32.7062 2.30238C32.7307 2.17118 32.694 2.09946 32.6537 1.98925C32.6537 1.984 32.7464 1.977 32.7062 1.91053C32.6695 1.85105 32.0712 1.73734 31.9505 1.72859C31.2385 1.67087 30.6052 1.75309 29.9965 1.93677C29.9772 1.64987 29.874 1.62363 30.0489 1.31225C30.2764 0.908148 30.9971 0.895902 31.4029 0.948383L31.4047 0.950132Z" fill="#251823"/>
<path d="M33.6977 3.60916C33.6907 3.64415 33.598 3.76835 33.6452 3.86981C33.6347 3.87506 33.5752 3.97478 33.4895 4.02551C33.4143 4.07099 33.3041 4.22843 33.2288 4.15496L32.8125 2.30589C32.8282 2.30414 32.8475 2.30589 32.865 2.30589C33.6714 2.29715 33.8236 2.94966 33.6994 3.60916H33.6977Z" fill="#120D19"/>
<path d="M37.0847 11.4759C36.3604 11.6579 35.6624 11.9378 34.8962 11.8398C34.8787 11.7523 34.8612 11.6666 34.8438 11.5792C35.6152 11.5792 36.6386 11.4567 37.1879 10.9022C37.1896 10.9144 37.3068 10.9966 37.2928 11.1366C37.2893 11.1786 37.0917 11.4077 37.0847 11.4759Z" fill="#EFDDB8"/>
<path d="M31.3536 32.526C31.392 32.5365 31.7752 32.9756 32.0043 32.9948C32.216 33.014 32.7968 32.7411 33.0732 32.7866C33.0767 32.8269 33.1606 33.0368 33.2026 33.0473C33.3776 32.9616 33.6627 32.5575 33.8534 32.5785C33.8919 32.582 34.4604 32.9878 34.4779 33.021C34.5304 33.1243 34.5234 33.3464 34.5304 33.4636C34.5391 33.5931 34.5724 34.1914 34.4517 34.2456L30.778 34.2981C30.0765 34.2893 26.9837 34.4555 26.6355 34.3506C26.4081 34.2823 26.4694 34.1599 26.4536 33.9867C27.0204 34.0339 27.5277 33.6788 28.0175 33.5179C28.3342 33.4129 30.0118 32.8706 30.206 32.8933C30.2742 32.9003 30.269 33.035 30.3354 33.049C30.6993 33.126 31.0807 32.4578 31.3518 32.5277L31.3536 32.526Z" fill="#251823"/>
<path d="M34.0108 11.7367C34.156 12.5974 34.3659 13.3146 34.7927 14.0808C34.7578 14.1823 34.7875 14.2837 34.6878 14.3939C34.6161 14.4727 33.528 15.0272 33.3845 15.071C32.9419 15.2074 32.4381 15.2564 31.978 15.2791C33.5157 14.0563 33.5542 12.4434 33.7501 10.6416C33.96 10.6171 33.8901 10.6836 33.9058 10.8235C33.9408 11.1332 33.9583 11.427 34.0108 11.7349V11.7367Z" fill="#ED9A44"/>
<path d="M34.6877 11.3202C34.7 11.3674 34.8417 11.5651 34.8434 11.5808C34.8609 11.6683 34.8784 11.754 34.8959 11.8415C34.9169 11.9517 34.9939 12.1774 35.0009 12.2578C35.0324 12.6689 34.9309 13.6871 34.7927 14.0807C34.3676 13.3145 34.1559 12.5955 34.0107 11.7365L34.6877 11.3202Z" fill="#D5682B"/>
<path d="M33.3849 15.0709L33.593 15.279C32.5382 15.398 31.7842 15.5817 30.6489 15.5397C30.3375 15.5274 29.7795 15.3403 29.5293 15.5397C29.5293 15.4365 29.5293 15.3298 29.5293 15.2266C29.7095 15.2843 30.0226 15.1706 30.1538 15.1741C30.7643 15.1951 31.3171 15.3123 31.9766 15.279C32.4367 15.2545 32.9405 15.2073 33.3831 15.0709H33.3849Z" fill="#0B1C29"/>
<path d="M34.6881 11.3203L34.0111 11.7367C33.9587 11.4288 33.9412 11.1332 33.9062 10.8253C33.8904 10.6853 33.9604 10.6189 33.7505 10.6433C33.803 10.164 33.8589 9.66371 33.9324 9.18439C33.9219 9.39606 33.9674 10.7483 34.3488 10.6433C34.515 10.5979 34.3208 10.213 34.5307 10.2008C34.5045 10.5891 34.5902 10.9512 34.6864 11.3203H34.6881Z" fill="#DC7E40"/>
<path d="M29.7894 14.3414C29.8559 14.5496 30.1935 14.8312 30.1533 15.1759C30.0203 15.1706 29.7089 15.2861 29.5287 15.2283C29.5322 14.9799 29.3118 14.2854 29.7894 14.3432V14.3414Z" fill="#246C7C"/>
<path d="M29.2161 10.6433C29.1986 10.8742 29.2283 11.1139 29.2161 11.3465C29.1199 11.4357 29.0114 11.3255 28.9554 11.3203C28.9519 10.757 28.9677 10.2549 29.2686 9.78259C29.2633 10.0695 29.2388 10.3581 29.2161 10.6415V10.6433Z" fill="#993625"/>
<path d="M32.6553 1.99266C32.6938 2.10287 32.7323 2.17459 32.7078 2.3058C32.6833 2.31104 32.5224 2.52796 32.2652 2.56645C31.6372 2.65917 30.7503 2.52447 30.103 2.51397C30.0925 2.38802 30.061 2.28131 30.0505 2.1501C30.047 2.09937 30.0015 2.09587 29.998 2.04514C30.8867 1.97867 31.7754 1.70927 32.6553 1.99266Z" fill="#251823"/>
<path d="M32.6553 1.99273C31.7754 1.70759 30.8867 1.97874 29.9981 2.04521C29.9963 2.01023 29.9998 1.97524 29.9981 1.94025C30.6068 1.75657 31.2401 1.67435 31.9521 1.73208C32.0728 1.74258 32.6711 1.85453 32.7078 1.91401C32.7498 1.98049 32.6536 1.98749 32.6553 1.99273Z" fill="#4F2F34"/>
<path d="M33.8008 30.7556C33.4807 30.7258 33.1938 30.8623 32.9664 30.5999C32.6917 27.3198 32.2964 23.8981 32.1844 20.6216C32.1809 20.5253 32.2369 20.3644 32.0794 20.3871C32.055 19.7364 32.0987 19.0821 32.027 18.4331C31.1978 17.6721 30.2566 17.0301 29.5779 16.1152C29.5744 16.012 29.5306 15.8528 29.5254 15.6989C29.5254 15.6464 29.5254 15.5939 29.5254 15.5432C29.7755 15.3438 30.3336 15.5309 30.645 15.5432C31.7803 15.5852 32.5343 15.4015 33.5891 15.2825C33.6906 15.2703 33.7746 15.2423 33.876 15.23C34.7017 16.9007 34.5565 18.8075 34.4761 20.6233C34.3326 23.8509 34.1157 27.5525 33.7991 30.7573L33.8008 30.7556Z" fill="#175364"/>
<path d="M33.9062 32.0063C33.705 32.0098 33.3622 31.8979 33.1243 31.9538L33.0718 31.9014L33.6456 31.7719C33.7593 31.6529 33.7803 30.9689 33.8013 30.7555C34.1179 27.5507 34.3348 23.8491 34.4783 20.6215C34.5587 18.8074 34.7057 16.8989 33.8782 15.2283C33.7785 15.2405 33.6928 15.2685 33.5913 15.2807L33.3832 15.0726C33.5249 15.0288 34.6147 14.4743 34.6864 14.3956C34.8631 15.3805 35.1098 16.4983 35.1553 17.4954C35.262 19.8273 34.8596 22.3114 34.8421 24.6345C34.8351 25.6667 35.0555 26.5221 35.1028 27.5C35.1728 28.9344 34.9943 30.4441 34.8946 31.8769C34.8579 31.9101 34.0024 32.0063 33.9045 32.0063H33.9062Z" fill="#0B1C29"/>
<path d="M33.9063 32.0064L33.8538 32.5801C33.6613 32.5592 33.3762 32.9633 33.203 33.049C33.1593 33.0385 33.0771 32.8286 33.0736 32.7883C33.0578 32.6291 33.1925 32.1708 33.126 31.9539C33.364 31.8961 33.7068 32.0099 33.908 32.0064H33.9063Z" fill="#C8674A"/>
<path d="M31.4044 32.0571L31.3519 32.5259C31.0807 32.4559 30.6994 33.1242 30.3355 33.0472C30.269 33.0332 30.2725 32.8985 30.2061 32.8915C30.3862 32.6571 30.3862 32.344 30.4142 32.0571C30.4615 32.0711 31.3396 32.0641 31.4044 32.0571Z" fill="#E28464"/>
<path d="M29.7895 14.3414C29.3137 14.2854 29.5324 14.9782 29.5289 15.2266C29.5289 15.3298 29.5289 15.4365 29.5289 15.5397C29.5289 15.5922 29.5289 15.6447 29.5289 15.6954C29.3942 16.7293 29.2437 17.6739 28.9044 18.6658C28.8834 18.7288 28.8029 18.8127 28.7994 18.8215L28.4355 18.769C29.1738 16.3829 28.5563 13.8708 28.7994 11.4217C28.9429 11.4305 29.2315 11.3675 29.3207 11.5004C29.5271 12.3716 29.5236 13.5087 29.7895 14.3396V14.3414Z" fill="#A34D3C"/>
<path d="M33.3325 5.06809C33.3325 5.21678 33.3849 5.21678 33.3849 5.22378C33.3657 5.47744 33.2572 6.04073 33.0718 6.21391C33.0578 6.22791 32.7657 6.34686 32.7079 6.36961C32.2339 6.55854 31.6496 6.58653 31.144 6.63026C31.053 6.3941 30.7137 6.31188 30.5702 6.08271C30.4268 5.85355 30.3586 5.39347 30.3096 5.11882C30.5247 5.23602 30.6157 5.50717 30.7784 5.69261C30.9778 5.91827 31.0216 6.1177 31.3784 6.16143C31.6776 6.19817 32.4298 5.99175 32.7079 5.8483C32.7394 5.83255 32.8409 5.87629 32.8636 5.82206C32.8741 5.79582 32.8111 5.4337 32.8636 5.24827C32.9458 4.96313 33.0928 4.69897 33.1768 4.41383C33.3954 4.12519 33.3325 4.97887 33.3325 5.06459V5.06809Z" fill="#120D19"/>
<path d="M33.0714 6.21397L33.1239 7.30732C33.0819 7.32831 32.83 7.6222 32.7338 7.67118C32.2125 7.93708 31.4708 8.0368 31.2486 7.35805C31.2433 7.3423 31.2538 7.32131 31.2486 7.30557C31.7821 7.18836 32.5099 6.9522 32.7075 6.36791C32.7653 6.34517 33.0574 6.22446 33.0714 6.21222V6.21397Z" fill="#C8674A"/>
<path d="M32.708 6.36957C32.5103 6.95385 31.7826 7.19002 31.249 7.30722C31.1755 7.06056 31.2298 6.84889 31.144 6.63022C31.6496 6.58649 32.2339 6.56025 32.708 6.36957Z" fill="#A34D3C"/>
<path d="M28.7996 18.8233C28.6159 19.3166 28.5931 19.4303 28.3307 19.9166L28.1226 19.7085C28.1995 19.3673 28.336 19.0909 28.4357 18.7708L28.7996 18.8233Z" fill="#BC543F"/>
<path d="M28.331 19.9166C28.2943 19.9848 28.1806 19.9988 28.1753 20.046C28.1701 20.0933 28.4989 20.7563 28.6704 20.7493L29.0097 20.228C28.9258 20.5288 28.8313 20.8367 28.7491 21.1394C28.7106 21.1621 28.5339 21.0886 28.4884 21.0606C28.4814 21.0571 28.4185 20.9872 28.3835 20.9557C28.38 20.9539 28.3905 20.8945 28.331 20.9032C28.2505 20.6758 28.1526 20.4536 28.0703 20.2262C28.0668 20.0898 28.0826 19.9446 28.0703 19.8099C28.0703 19.7661 28.1106 19.7574 28.1228 19.7049L28.331 19.9131V19.9166Z" fill="#C8674A"/>
<path d="M37.2928 12.3611C37.5972 13.2778 38.6398 13.4055 38.6468 14.6283C38.6468 14.84 38.4911 15.3158 38.4911 15.4627C38.4911 15.5187 38.6066 15.7304 38.5961 16.0628C38.5926 16.1975 38.6521 16.5089 38.6486 16.5316C38.6363 16.5998 38.3389 17.0302 38.2585 17.0529C37.8526 17.1649 37.7337 16.8465 37.6584 16.5316C37.6357 16.4319 37.6112 16.1695 37.606 16.0628C37.6042 16.0103 37.6095 15.9368 37.606 15.8546C37.6007 15.6779 37.7861 15.3508 37.7109 15.0989C37.6812 15.0009 36.5354 13.8341 36.3569 13.5874C36.0718 13.1956 35.9108 12.7512 35.6274 12.3629C36.1592 12.4329 36.7645 12.4574 37.2946 12.3629L37.2928 12.3611Z" fill="#E28464"/>
<path d="M37.0844 11.476C37.0792 11.5214 37.2629 12.2719 37.2926 12.3611C36.7626 12.4556 36.1573 12.4311 35.6255 12.3611C35.5048 12.3454 35.3858 12.3226 35.2616 12.3086C35.2021 12.3016 35.1077 12.2142 35.001 12.2562C34.9957 12.1757 34.9187 11.9483 34.896 11.8398C35.6622 11.9378 36.3602 11.6561 37.0844 11.476Z" fill="#A34D3C"/>
<path d="M32.8122 2.30583L33.2286 4.1549C33.3038 4.22837 33.414 4.06918 33.4892 4.02545C33.4927 4.10242 33.5872 4.08143 33.6449 4.07793L33.54 4.62547L33.8793 4.54675C33.9808 4.90362 33.6292 5.02433 33.3318 5.06806C33.3318 4.98234 33.393 4.12866 33.1761 4.4173C33.0939 4.70245 32.9452 4.9666 32.863 5.25174C32.8105 5.43718 32.8735 5.79929 32.863 5.82553C32.8402 5.87976 32.7388 5.83603 32.7073 5.85177L32.3679 4.9666C31.8553 5.22025 31.2658 5.236 30.7008 5.22725L30.7795 5.69608C30.6168 5.5124 30.5241 5.24125 30.3107 5.12229C30.2232 4.62897 30.2057 4.10941 30.155 3.61085C30.3211 3.56187 31.0559 3.63009 31.0401 3.42892C30.8722 3.21375 30.4139 3.28022 30.155 3.3502C30.1445 3.23299 30.1077 3.10878 30.1025 3.03706C30.0902 2.86562 30.1165 2.68719 30.1025 2.51575C30.7497 2.52625 31.6384 2.66095 32.2647 2.56823C32.5218 2.52975 32.6828 2.31458 32.7073 2.30758C32.737 2.30058 32.779 2.31283 32.8122 2.30758V2.30583Z" fill="#E28464"/>
<path d="M30.1531 3.6091C30.1444 3.52338 30.1601 3.43416 30.1531 3.34844C30.4138 3.27847 30.8721 3.21199 31.0383 3.42716C31.054 3.62834 30.3176 3.56011 30.1531 3.6091Z" fill="#251823"/>
<path d="M31.7434 3.24349C31.9114 3.2015 32.3732 3.29422 32.4991 3.42542C32.4939 3.53563 31.3551 3.59861 31.614 3.32046C31.6542 3.31521 31.7242 3.24699 31.7434 3.24174V3.24349Z" fill="#251823"/>
<path d="M30.7015 3.86799C31.229 3.77541 30.719 5.14834 30.5723 3.99724C30.6107 3.97279 30.6788 3.87148 30.7015 3.86799Z" fill="#120D19"/>
<path d="M31.8486 3.86801C32.0477 3.7964 32.1281 4.28199 31.901 4.38854C31.8311 4.37631 31.6949 3.92391 31.8486 3.86801Z" fill="#120D19"/>
<path d="M29.0078 20.2298L28.6685 20.7511C28.497 20.7581 28.1682 20.0951 28.1734 20.0478C28.1786 20.0006 28.2941 19.9849 28.3291 19.9184C28.5915 19.4303 28.6142 19.3183 28.7979 18.825C28.8014 18.8163 28.8801 18.7323 28.9029 18.6693C29.328 18.5836 29.2667 19.4775 29.216 19.7889C29.2038 19.8589 29.0376 20.1248 29.0078 20.2315V20.2298Z" fill="#EB915F"/>
<path d="M35.6259 12.3612C35.9093 12.7495 36.0702 13.1938 36.3554 13.5857C36.5338 13.8324 37.6814 14.9992 37.7093 15.0971C37.7846 15.3491 37.5991 15.6744 37.6044 15.8529C36.7262 14.7473 35.5174 13.7799 35.2603 12.3104C35.3862 12.3244 35.5052 12.3472 35.6241 12.3629L35.6259 12.3612Z" fill="#BC543F"/>
<path d="M32.7075 5.84837C32.4311 5.99007 31.6789 6.19824 31.378 6.1615C31.0229 6.11777 30.9774 5.91834 30.7779 5.69268L30.6992 5.22385C31.2643 5.2326 31.8538 5.21685 32.3664 4.9632L32.7057 5.84837H32.7075Z" fill="#4F2F34"/>
<path d="M31.849 5.32699C31.9119 5.33048 32.0432 5.30249 32.0834 5.35323C32.1499 5.8273 31.1562 5.93751 31.0933 5.61388C30.9358 5.43195 31.7563 5.32174 31.849 5.32699Z" fill="#FBF9F5"/>
<path d="M32.0836 20.3854C32.2306 24.2288 32.0416 28.0931 31.823 31.9259C31.795 31.9889 31.4801 32.0484 31.4066 32.0554C31.3419 32.0624 30.4637 32.0694 30.4165 32.0554C30.3045 32.0239 30.266 31.9661 30.2083 31.8734C30.1313 30.5632 30.1156 29.2494 30.0526 27.9391C30.0036 26.9158 29.9372 25.8871 29.8969 24.8655L30.5477 31.7947C30.7611 31.7755 31.2387 31.8682 31.3559 31.6653C31.4049 31.5795 31.5466 29.9317 31.564 29.685C31.7705 26.8685 31.7075 23.3313 31.4591 20.5149C31.3471 19.2431 31.3209 17.4518 29.7395 17.2838C29.7815 17.6249 29.7045 17.9661 29.687 18.3002C29.6398 17.5725 29.6118 16.8395 29.582 16.1118C30.259 17.0267 31.2019 17.6687 32.0311 18.4296C32.1029 19.0787 32.0591 19.7329 32.0836 20.3837V20.3854Z" fill="#0B1C29"/>
<path d="M33.8007 30.7556C33.7798 30.969 33.7588 31.653 33.6451 31.772L33.0713 31.9014C32.9943 31.8017 32.9856 30.8221 32.9663 30.5981C33.1937 30.8605 33.4789 30.7258 33.8007 30.7538V30.7556Z" fill="#163242"/>
<path d="M29.8949 24.8673C29.8092 22.7681 29.5766 20.3749 29.6868 18.302C29.7043 17.9678 29.7812 17.6267 29.7393 17.2856C31.3207 17.4518 31.3469 19.2449 31.4589 20.5166C31.7055 23.3331 31.7685 26.872 31.5638 29.6868C31.5463 29.9334 31.4046 31.5796 31.3557 31.667C31.2385 31.8699 30.7609 31.7772 30.5475 31.7965L29.8967 24.8673H29.8949Z" fill="#163242"/>
<path d="M28.1751 22.6264C28.2696 22.8346 28.3693 23.174 28.3833 23.4084C28.3133 23.3157 27.7868 22.8906 27.6538 22.7839C27.6958 22.42 27.8515 22.7699 28.1751 22.6282V22.6264Z" fill="#F6EDD4"/>
<path d="M24.2144 17.7806C24.2984 18.3387 24.0902 19.299 24.5013 19.6559C25.0646 20.1475 25.9323 20.2979 26.3504 19.551C26.3241 19.8186 26.8489 20.4484 26.8717 20.5673C26.8874 20.6531 26.7002 22.1645 26.6635 22.2869C26.5673 22.6088 26.2506 22.7943 26.0897 23.0689C26.5638 23.2491 26.9241 22.8957 27.288 22.782C27.4507 23.2736 26.4903 23.1091 26.1422 23.1459C26.0914 23.1511 26.0372 23.1424 25.9865 23.1459C25.9305 23.1511 25.8378 23.1896 25.7258 23.1984C25.4144 23.1896 25.0996 23.2106 24.7882 23.1984C24.4068 23.1844 24.036 23.1564 23.6686 23.0427C23.5304 22.9482 23.6144 22.7978 23.5899 22.6788C23.5269 22.3674 23.4954 21.7866 23.5374 21.4805C23.5444 21.4263 23.7246 21.1429 23.7456 21.0117C23.9292 20.6618 24.4068 20.0268 24.3194 19.6314C24.2774 19.4477 23.945 19.3883 23.903 19.2151C23.8505 18.9982 24.2809 17.9853 23.9817 17.9381C23.8558 17.9188 23.2592 18.9859 23.226 19.1888C23.1823 19.1818 23.1508 19.2693 23.0703 19.2413C23.1315 18.8705 23.156 18.4489 23.4342 18.148C23.4989 18.078 24.0674 17.7544 24.1637 17.7316C24.1549 17.7911 24.2144 17.7806 24.2161 17.7841L24.2144 17.7806Z" fill="#F2AA3C"/>
<path d="M27.2376 15.6447C27.2989 16.0103 27.2534 16.5789 27.2901 16.7643C27.3198 16.9165 27.9356 17.2856 28.0721 17.4938C28.3467 17.9119 28.3047 18.4682 28.0196 18.874C27.7397 18.6449 27.4126 18.4699 27.1344 18.2495C27.0137 18.1533 26.8912 18.0361 26.7705 17.9364C26.6096 17.8052 26.4906 17.5463 26.1968 17.5725C26.2073 17.3591 26.1635 17.1457 26.0918 16.948C26.4452 16.7118 26.4732 16.3077 26.6656 16.089C26.7146 16.0331 26.8178 16.138 26.9 16.0628C27.0627 15.9141 27.0854 15.7514 27.2394 15.6465L27.2376 15.6447Z" fill="#120D19"/>
<path d="M27.8619 18.979C28.0508 19.2361 28.0438 19.5195 28.07 19.8134C28.0823 19.9498 28.0665 20.0933 28.07 20.2297C28.077 20.5131 28.0421 20.8438 28.07 21.1149H27.3406C27.2898 20.8578 27.2828 20.5954 27.2881 20.333C27.2933 20.1405 27.477 18.8652 27.5487 18.7953C27.6659 18.6816 27.8059 18.902 27.8619 18.9772V18.979Z" fill="#4E7C65"/>
<path d="M22.8077 19.7609C22.8112 19.7732 22.9459 19.8834 22.9634 19.9691C22.9477 20.2525 23.0246 20.5201 23.0159 20.8035C23.0106 20.961 23.0736 21.2986 23.0684 21.3248C23.0614 21.3581 22.757 21.8182 22.7045 21.8986C22.5978 22.0596 21.8491 22.95 21.7144 23.0445C21.7686 22.4934 22.6573 21.3371 22.7045 20.8823C22.7185 20.7528 22.3616 20.1965 22.2881 19.9708L22.8095 19.7627L22.8077 19.7609Z" fill="#EB915F"/>
<path d="M24.7881 16.9987C24.7933 17.1894 24.7811 17.3818 24.7881 17.5725C24.7898 17.6407 24.7846 17.7125 24.7881 17.7807C24.4942 17.709 24.4732 17.6512 24.1636 17.7282C24.0673 17.7527 23.4988 18.0763 23.4341 18.1446C23.5758 17.4238 24.3018 16.7941 23.9029 15.9561C24.1828 16.2518 24.4435 16.8011 24.7881 16.9987Z" fill="#0B111D"/>
<path d="M23.7985 19.4477C23.5623 19.9096 23.4591 20.4939 23.0165 20.8017C23.0253 20.5183 22.9483 20.2507 22.964 19.9673C22.978 19.7276 23.0288 19.474 23.069 19.2378C23.1512 19.2658 23.1827 19.1783 23.2247 19.1853C23.2807 19.1941 23.6988 19.4005 23.7985 19.446V19.4477Z" fill="#C8674A"/>
<path d="M28.0182 18.8758C27.9762 18.9353 27.922 18.951 27.8625 18.9808C27.8083 18.9055 27.6684 18.6834 27.5494 18.7988C27.4777 18.8688 27.294 20.1441 27.2887 20.3365L27.0806 19.3201L27.133 18.2513C27.4129 18.4734 27.7383 18.6484 28.0182 18.8758Z" fill="#F2AA3C"/>
<path d="M27.1325 18.2495L27.08 19.3183L27.2882 20.3347C27.2812 20.5971 27.2899 20.8595 27.3406 21.1166C27.3581 21.2024 27.4141 21.3406 27.4456 21.4298L27.3931 22.733C27.2689 22.7226 27.2951 22.7838 27.2882 22.7855C26.9243 22.8992 26.5639 23.2526 26.0898 23.0724C26.249 22.7978 26.5657 22.6123 26.6636 22.2905C26.7004 22.168 26.8875 20.6566 26.8718 20.5708C26.8491 20.4536 26.3243 19.8221 26.3505 19.5545C26.5884 19.1311 26.6654 18.4174 26.7668 17.9398C26.8893 18.0395 27.0118 18.1567 27.1307 18.253L27.1325 18.2495Z" fill="#ED9A44"/>
<path d="M26.7672 17.938C26.6657 18.4174 26.587 19.1311 26.3508 19.5527C25.9327 20.2997 25.065 20.1492 24.5017 19.6577C24.0924 19.299 24.2988 18.3404 24.2148 17.7823C24.339 17.966 24.542 18.0605 24.7886 18.0955C24.7991 18.2354 24.9163 19.1661 24.9443 19.2151C25.0318 19.3655 25.4376 19.4372 25.5951 19.397C25.9799 19.3008 26.1129 18.0203 26.1426 17.6774C26.1426 17.6721 26.1881 17.7036 26.1951 17.5724C26.4873 17.5479 26.608 17.8068 26.7689 17.9363L26.7672 17.938Z" fill="#2B7274"/>
<path d="M23.7454 21.0117C23.7909 20.7318 24.0271 19.586 23.9536 19.4233C23.9151 19.3375 23.8242 19.4617 23.7979 19.4495C23.6999 19.404 23.2801 19.1976 23.2241 19.1888C23.2574 18.9859 23.8521 17.9188 23.9798 17.9381C24.2807 17.9835 23.8486 18.9982 23.9011 19.2151C23.9431 19.3883 24.2772 19.4478 24.3175 19.6314C24.4067 20.0285 23.9274 20.6636 23.7437 21.0117H23.7454Z" fill="#D98330"/>
<path d="M23.7459 21.0117C23.7249 21.1429 23.5447 21.4263 23.5377 21.4805H23.4852L23.0689 21.3248C23.0742 21.2986 23.0112 20.9609 23.0164 20.8035C23.459 20.4939 23.5622 19.9113 23.7984 19.4495C23.8246 19.4617 23.9173 19.3375 23.9541 19.4233C24.0276 19.5877 23.7914 20.7318 23.7459 21.0117Z" fill="#487B76"/>
<path d="M24.7873 17.7805C24.7926 17.8731 24.7838 18.0407 24.7873 18.0931C24.5411 18.0582 24.3384 17.9656 24.2144 17.7805C24.2127 17.777 24.1533 17.7892 24.162 17.7281C24.4712 17.6512 24.4921 17.7089 24.7856 17.7805H24.7873Z" fill="#2F8087"/>
<path d="M26.1943 17.5725C26.1873 17.7037 26.1419 17.6705 26.1419 17.6775C25.6573 17.7457 25.2514 17.7632 24.7879 17.5725C24.7809 17.3818 24.7931 17.1894 24.7879 16.9987C25.185 17.2261 25.708 17.2016 26.0911 16.9462C26.1611 17.1457 26.2066 17.3591 26.1961 17.5707L26.1943 17.5725Z" fill="#A34D3C"/>
<path d="M27.1852 15.384C27.201 15.4715 27.2237 15.5624 27.2377 15.6447C27.0838 15.7496 27.061 15.9123 26.8983 16.061C26.8161 16.1362 26.7129 16.0313 26.6639 16.0872C26.4732 16.3059 26.4435 16.7118 26.0901 16.9462C25.707 17.2016 25.1857 17.2261 24.7869 16.9986C24.4422 16.801 24.1816 16.2517 23.9017 15.956C23.8649 15.9175 23.6043 15.9315 23.5378 15.6691C23.4976 15.5152 23.592 15.3473 23.5903 15.279L23.8772 15.5922V15.1758C24.2218 15.3053 24.507 15.2685 24.8411 15.0971L24.2935 15.0184V14.6545C24.9443 15.0621 25.6475 14.672 26.2213 14.2906C26.4208 14.644 26.7636 14.9834 26.6114 15.4102C26.8441 15.0726 26.8703 15.1863 27.1852 15.384Z" fill="#E28464"/>
<path d="M25.0224 16.2692C25.1204 16.2377 25.6417 16.3602 25.8306 16.2954C25.7099 16.7503 24.7285 16.3637 25.0224 16.2692Z" fill="#FBF9F5"/>
<path d="M25.6468 14.9151C26.384 14.7929 26.0783 15.3099 25.439 15.0706C25.3359 14.9815 25.6276 14.9169 25.6468 14.9151Z" fill="#461D24"/>
<path d="M25.9069 15.3315C26.0834 15.3682 25.9733 15.7682 25.8021 15.7473C25.5524 15.7158 25.7532 15.2983 25.9069 15.3315Z" fill="#120D19"/>
<path d="M24.8129 15.384C24.9928 15.3106 25.0749 15.632 24.9177 15.6967C24.7378 15.77 24.6557 15.4486 24.8129 15.384Z" fill="#120D19"/>
<path d="M27.1845 15.384C26.8696 15.1864 26.8434 15.0727 26.6107 15.4103C26.7629 14.9817 26.4201 14.6441 26.2206 14.2907C25.6468 14.6721 24.9436 15.0639 24.2928 14.6546V15.0184L24.8404 15.0972C24.5063 15.2686 24.2211 15.3053 23.8765 15.1759V15.5922L23.5896 15.2791C23.5581 13.8656 24.1319 12.7145 25.7518 12.9349C26.9851 13.1029 27.0183 14.4376 27.1845 15.384Z" fill="#120D19"/>
<path d="M25.6213 13.5612V13.6662C25.079 13.6854 24.9373 13.9251 24.6574 14.3432C24.5017 13.9093 25.2032 13.5752 25.6213 13.5612Z" fill="#6E403B"/>
<path d="M25.6211 13.6644V13.5595C25.6981 13.5577 26.4328 13.6207 26.3506 13.7939C26.0742 13.7362 25.9272 13.6522 25.6211 13.6644Z" fill="#BC7F56"/>
<path d="M28.0696 21.1149C28.0749 21.1673 28.1238 21.1726 28.1221 21.2198C28.0399 21.2443 27.9314 21.1743 27.8614 21.2986L28.5909 22.6788C28.9495 23.7616 29.4061 23.9611 29.6843 25.441C29.6388 25.5477 29.4883 25.539 29.4236 25.4673C29.0982 25.1051 28.7326 23.8736 28.381 23.4083C28.367 23.1739 28.2673 22.8362 28.1728 22.6263C27.9664 22.1697 27.6183 21.9301 27.4433 21.428C27.4119 21.3388 27.3559 21.2006 27.3384 21.1149H28.0679H28.0696Z" fill="#A34D3C"/>
<path d="M28.331 20.9067C28.3415 20.9382 28.324 20.9959 28.331 21.0362L28.3834 20.9574C28.4167 20.9872 28.4814 21.0572 28.4884 21.0624C28.4692 21.1236 28.3922 21.2041 28.3327 21.2181C28.2732 21.2321 28.1805 21.2024 28.1245 21.2181C28.128 21.1726 28.0773 21.1656 28.0721 21.1131C28.0441 20.842 28.0791 20.5096 28.0721 20.228C28.1543 20.4554 28.2522 20.6775 28.3327 20.905L28.331 20.9067Z" fill="#6BABA9"/>
<path d="M22.5996 22.5739C22.2795 22.9185 21.7319 23.6427 21.2456 23.4328C21.3068 23.0567 21.606 23.1196 21.7144 23.0427C21.8491 22.9482 22.5979 22.0578 22.7046 21.8969L22.5996 22.5739Z" fill="#C8674A"/>
<path d="M23.4853 21.4805C23.1599 21.8251 22.922 22.2257 22.6001 22.5738L22.7051 21.8968C22.7575 21.8164 23.0619 21.3563 23.0689 21.3231L23.4853 21.4788V21.4805Z" fill="#A34D3C"/>
<path d="M26.1423 17.6774C26.1126 18.0203 25.9796 19.3008 25.5948 19.397C25.4373 19.4355 25.0298 19.3638 24.944 19.2151C24.916 19.1661 24.7988 18.2355 24.7883 18.0955C24.7848 18.043 24.7936 17.8751 24.7883 17.7824C24.7848 17.7142 24.7901 17.6424 24.7883 17.5742C25.2519 17.7631 25.6578 17.7457 26.1423 17.6792V17.6774Z" fill="#E28464"/>
<path d="M28.3831 20.959L28.3308 21.0374C28.3238 20.9973 28.3413 20.9381 28.3308 20.9085C28.39 20.8998 28.3796 20.9573 28.3831 20.9608V20.959Z" fill="#AAD1CD"/>
<path d="M28.0172 33.5161C27.5292 33.6771 27.0201 34.0322 26.4533 33.9849C26.4376 33.817 26.4971 33.7243 26.5058 33.6211C26.5146 33.5179 26.4901 33.4007 26.5058 33.3079C26.5058 33.2992 26.5408 33.2222 26.5583 33.1522C26.7857 33.2782 27.7566 33.3884 27.8091 33.1785C27.7531 33.1785 27.6166 32.9126 27.7041 32.8391C27.8178 33.056 27.942 33.2799 28.0172 33.5161Z" fill="#19595F"/>
<path d="M25.5179 33.5685C25.5179 33.5685 25.5652 33.5423 25.5704 33.6735C25.5792 33.9674 25.6351 34.0234 25.231 34.0899C24.7115 34.1756 24.5855 34.1581 24.4228 33.726C24.3966 33.6578 24.3196 33.4059 24.3179 33.3621C24.4876 33.4059 24.4316 33.5755 24.6572 33.6228C24.8829 33.67 25.252 33.5056 25.5162 33.5703L25.5179 33.5685Z" fill="#0B1C29"/>
<path d="M25.4131 28.0983C25.3624 29.538 25.2941 30.9428 25.2049 32.3703C25.1035 32.3493 24.89 32.4 24.8148 32.3703C24.4475 32.2251 24.213 29.0447 24.1641 28.5147L25.4148 28.0983H25.4131Z" fill="#E28464"/>
<path d="M25.5173 26.6394C25.4893 27.124 25.4298 27.6138 25.4123 28.0983L24.1616 28.5147C24.0968 27.8202 24.0566 27.1257 24.0059 26.4312L25.5173 26.6394Z" fill="#A34D3C"/>
<path d="M27.3932 25.3361C27.4019 25.4551 27.3809 25.5828 27.3932 25.7C26.8788 25.7175 26.3383 25.8364 25.8292 25.8557C25.6193 25.8644 25.5353 25.9082 25.5161 25.9082C24.9983 25.9082 24.4665 25.7245 23.9522 25.7C23.9382 25.616 23.9137 25.5968 23.8997 25.5443C23.8892 25.5058 23.8332 25.3834 23.8997 25.3886C24.3458 25.5093 24.7604 25.4306 25.203 25.4411C25.9517 25.4586 26.6462 25.4953 27.3914 25.3361H27.3932Z" fill="#C8674A"/>
<path d="M25.518 25.9098C25.5443 26.1407 25.532 26.4066 25.518 26.6393L24.0066 26.4311C23.9873 26.1722 23.9996 25.9728 23.9541 25.7017C24.4684 25.7279 24.9985 25.9098 25.518 25.9098Z" fill="#993625"/>
<path d="M25.4132 33.0473C25.4412 33.1278 25.5059 33.294 25.5181 33.3604C25.5304 33.4269 25.5094 33.5021 25.5181 33.5686C25.254 33.5039 24.8936 33.6701 24.6592 33.6211C24.4248 33.5721 24.4895 33.4042 24.3198 33.3604C24.3198 33.3202 24.4143 33.1558 24.4248 33.0998C24.5245 33.1453 24.6452 33.0473 24.6854 33.0473C24.9006 33.0508 25.1648 33.1785 25.4149 33.0473H25.4132Z" fill="#2B7274"/>
<path d="M27.3935 22.7313C27.5492 22.705 27.5195 22.831 27.5492 22.887C27.8501 23.4468 27.9008 24.4824 28.3312 25.0492C28.039 25.1349 27.6839 25.2731 27.3935 25.3361C26.6483 25.4953 25.9538 25.4568 25.2051 25.441L25.4657 23.3313L25.2051 23.2526C25.3923 23.2526 25.5514 23.2141 25.7264 23.2001C25.8383 23.1914 25.9311 23.1529 25.987 23.1476H26.1427C26.4926 23.1091 27.4512 23.2736 27.2886 22.7838C27.2938 22.7838 27.2676 22.7208 27.3935 22.7313Z" fill="#2F8087"/>
<path d="M23.5898 22.6788C23.6143 22.7995 23.5303 22.9499 23.6685 23.0427C24.0359 23.1564 24.4068 23.1844 24.7881 23.1983C24.8721 23.2911 25.0855 23.2508 25.2045 23.2508L25.4651 23.3295L25.2045 25.4393C24.7619 25.4288 24.3473 25.5075 23.9012 25.3868C23.6108 25.3081 23.1175 24.8935 22.7554 24.8655C22.8848 24.234 23.2679 23.6392 23.4324 23.0164C23.4376 22.9954 23.3187 22.5616 23.5881 22.677L23.5898 22.6788Z" fill="#3C8D99"/>
<path d="M25.7257 23.2001C25.5508 23.2141 25.3916 23.2526 25.2044 23.2526C25.0855 23.2526 24.8703 23.2946 24.7881 23.2001C25.0995 23.2124 25.4144 23.1914 25.7257 23.2001Z" fill="#8E885A"/>
<path d="M26.1413 23.1477H25.9863C26.0368 23.1442 26.0908 23.1529 26.1413 23.1477Z" fill="#6BABA9"/>
<path d="M23.9016 25.3886C23.8351 25.3851 23.8911 25.5058 23.9016 25.5442L22.677 25.1279C22.6123 25.0474 22.7383 24.946 22.7558 24.8672C23.1179 24.8952 23.6112 25.3098 23.9016 25.3886Z" fill="#246C7C"/>
<path d="M25.2574 32.631C25.3518 32.7394 25.3676 32.9161 25.4131 33.0473C25.1629 33.1785 24.8988 33.0508 24.6836 33.0473C24.7483 32.8269 25.002 32.7709 24.9442 32.526C25.0999 32.5592 25.1279 32.484 25.2574 32.631Z" fill="#478E8A"/>
<path d="M24.9442 32.526C25.0019 32.7709 24.7482 32.8269 24.6835 33.0473C24.6433 33.0473 24.5226 33.1435 24.4229 33.0998C24.4561 32.8881 24.4333 32.6537 24.5278 32.449C24.5873 32.3965 24.8392 32.505 24.9442 32.5277V32.526Z" fill="#478E8A"/>
<path d="M28.175 22.6263C27.8514 22.7698 27.6957 22.4199 27.6537 22.782C27.6537 22.789 27.575 22.8783 27.5488 22.887C27.5173 22.8293 27.5488 22.7033 27.3931 22.7313L27.4455 21.428C27.6205 21.9301 27.9686 22.1698 28.175 22.6263Z" fill="#EAE6C1"/>
<path d="M28.123 21.2199C28.1789 21.2041 28.2717 21.2356 28.3311 21.2199C28.4868 21.6205 28.4693 22.3097 28.5918 22.6788L27.8623 21.2986C27.9323 21.1761 28.0407 21.2444 28.123 21.2199Z" fill="#C8674A"/>
<path d="M27.5487 32.5259C27.6082 32.6151 27.6537 32.7393 27.7044 32.8391C27.617 32.9125 27.7517 33.1784 27.8094 33.1784C27.7569 33.3884 26.786 33.2781 26.5586 33.1522C26.5831 33.0525 26.758 32.393 26.793 32.3702C26.8245 32.3492 27.491 32.4227 27.5487 32.5259Z" fill="#2B7274"/>
<path d="M27.5488 27.1607C27.6275 28.5007 27.6678 30.0751 27.5488 31.4081C27.5156 31.7877 27.5873 32.0502 27.2882 32.1639C27.1272 32.2251 26.9155 32.2548 26.8193 32.0851C26.5377 30.4687 26.3662 28.8296 26.0898 27.2132L27.5488 27.1607Z" fill="#E28464"/>
<path d="M27.5492 27.1606L26.0902 27.2131C26.0133 26.7635 25.8663 26.3175 25.8296 25.8591C26.3387 25.8399 26.8792 25.7209 27.3935 25.7034C27.4425 26.1915 27.5212 26.6673 27.5492 27.1624V27.1606Z" fill="#A34D3C"/>
<path d="M40.158 16.7381C40.5219 17.4378 40.081 17.6092 39.9498 18.0921C39.8449 18.4769 40.0076 18.8758 39.7942 19.1854C39.7942 18.6151 39.656 17.0862 40.0548 16.7363C40.067 16.7258 40.1458 16.7468 40.1598 16.7363L40.158 16.7381Z" fill="#FBF9F5"/>
<path d="M40.0546 16.738C39.6558 17.0879 39.794 18.6168 39.794 19.1871V20.7511C39.668 20.7511 39.5228 20.6986 39.4808 20.6986C39.3059 19.6997 39.7152 17.6967 39.4808 16.8168C39.3969 16.4984 38.9158 16.5666 38.6464 16.5299C38.6499 16.5071 38.5904 16.1957 38.5939 16.061C39.2307 16.0505 39.8499 15.9998 40.0529 16.738H40.0546Z" fill="#163242"/>
<path d="M39.7938 20.751C39.7938 20.751 39.8043 20.8 39.9495 20.8035C40.2678 20.8105 40.7874 20.7528 41.069 20.8035C41.1443 20.8175 41.251 20.7755 41.174 20.9085C40.539 20.9854 39.9005 20.8962 39.2725 20.9085V20.8035C39.5681 20.7965 39.4666 20.7003 39.4806 20.6985C39.5209 20.6985 39.6678 20.751 39.7938 20.751Z" fill="#6BABA9"/>
<path d="M40.9401 33.2554C40.8981 33.4828 40.8928 33.7033 40.8876 33.9324C40.8876 33.9429 40.8211 33.9919 40.8351 34.1406C40.5884 34.6602 40.0496 34.2456 39.9499 34.2456C39.9342 34.1196 39.8625 34.0077 39.845 33.8817C39.8205 33.698 39.8887 33.4549 39.7925 33.2572C40.1738 33.2572 40.5552 33.2554 40.9383 33.2572L40.9401 33.2554Z" fill="#0B111D"/>
<path d="M39.273 33.2047C39.273 33.4357 39.2135 33.6596 39.168 33.8817C39.14 34.0199 39.133 34.1704 39.0631 34.2981C38.8356 34.2963 38.6187 34.3033 38.3861 34.2981C38.3738 34.2474 38.2846 34.0532 38.2811 34.0374C38.2146 33.5179 38.4385 33.4182 37.8647 33.2555C38.3248 33.1767 38.8059 33.203 39.2712 33.203L39.273 33.2047Z" fill="#0B111D"/>
<path d="M43.5973 22.0543C43.6656 22.1628 43.7583 22.2397 43.8055 22.3674C44.0732 23.1004 44.0487 26.1216 44.0662 27.1082C44.0767 27.7362 43.9927 28.3625 44.0137 28.9835C44.0154 29.0342 43.9944 29.0902 44.0662 29.0885C43.6323 29.8862 44.5595 32.1743 43.5449 33.0997C44.0207 31.0215 43.711 28.854 43.5973 26.7426C43.6183 26.0201 43.6831 25.2731 43.5973 24.5541C43.6096 24.4667 43.7005 24.4579 43.7023 24.4492C43.8248 23.7162 43.823 22.7278 43.3892 22.105C43.5484 22.1855 43.5956 22.252 43.5973 22.0526V22.0543Z" fill="#3C8D99"/>
<path d="M39.273 20.8035V20.9085C39.0229 20.9137 38.8007 20.884 38.596 21.0642C37.7511 21.1936 37.5727 21.8951 37.5027 22.6526C37.2176 25.6877 37.7774 29.1112 37.5552 32.1883L37.9191 32.8128C37.8053 32.9808 37.7126 32.8251 37.6059 32.8391C37.4415 32.6187 37.2351 32.3668 37.1896 32.0834C36.9971 30.9095 37.1983 28.6214 37.1896 27.3164C37.1843 26.6114 37.1283 25.8819 37.1371 25.1804C37.1388 25.0247 37.1336 24.8673 37.1371 24.7116C37.1528 23.8264 37.0881 22.0386 37.5534 21.3248C37.6217 21.2199 37.9138 21.0642 37.9698 20.9085C38.3984 20.8245 38.8375 20.814 39.273 20.8035Z" fill="#163242"/>
<path d="M37.6058 16.061C37.6093 16.1677 37.6338 16.4301 37.6583 16.5298C37.3837 16.4948 36.9586 16.5613 36.8764 16.8692C36.6384 17.7579 37.0548 19.8256 36.8764 20.856C36.8554 20.9767 36.7347 21.1429 36.6157 21.0642C36.6839 20.4326 36.7189 17.8488 36.6157 17.2873C36.6017 17.2121 36.3708 16.9672 36.3551 16.871C36.2501 16.2377 37.102 16.0015 37.6058 16.0628V16.061Z" fill="#163242"/>
<path d="M36.5632 21.1673C36.558 21.2181 36.5667 21.2723 36.5632 21.323C36.4933 21.3458 36.2291 21.6974 36.1994 21.7656C35.4436 23.4258 36.446 30.2325 35.9912 32.4472L36.2518 32.8898C36.2186 32.8915 35.8075 33.0594 35.6273 33.0455C35.5451 33.0175 35.4419 32.8285 35.3667 32.7848C35.057 31.7264 35.239 28.0475 35.2617 26.7145C35.2792 25.7314 35.1987 22.3709 35.6256 21.7131C35.7918 21.4595 36.2448 21.1761 36.5632 21.1656V21.1673Z" fill="#246C7C"/>
<path d="M37.9702 20.9067C37.9142 21.0642 37.6221 21.2181 37.5539 21.3231C37.3195 21.3423 37.0536 21.2968 36.8244 21.3231C36.7457 21.3318 36.6197 21.3038 36.5637 21.3231C36.5672 21.2723 36.5585 21.2181 36.5637 21.1674C36.576 21.0379 36.6145 21.0694 36.6162 21.0624C36.7352 21.1411 36.8559 20.975 36.8769 20.8542L37.9702 20.9067Z" fill="#6BABA9"/>
<path d="M37.3446 32.9947C37.4321 33.014 37.6892 32.9982 37.6053 33.2029C37.2414 33.1609 36.7201 33.1924 36.3545 33.2554C36.3562 33.0979 36.4664 33.1837 36.4332 33.0997C36.183 33.1189 35.8629 33.1277 35.625 33.0472C35.8052 33.0612 36.2163 32.8933 36.2495 32.8915C36.4245 32.8775 37.1487 32.951 37.3429 32.9965L37.3446 32.9947Z" fill="#476C72"/>
<path d="M35.6259 33.0472C35.8638 33.1277 36.1822 33.1172 36.4341 33.0997C36.4691 33.1854 36.3589 33.0997 36.3554 33.2554C36.3536 33.3971 36.3834 33.663 36.3554 33.7767C36.2504 34.2158 35.8988 33.9691 35.6784 33.9849C35.5034 33.8187 35.6031 33.621 35.5734 33.4111C35.5262 33.0717 35.4667 33.1312 35.3652 32.7866C35.4405 32.8303 35.5437 33.0192 35.6259 33.0472Z" fill="#0B1C29"/>
<path d="M35.9649 33.3079C36.1762 33.2608 36.2461 33.6992 36.0697 33.776C35.7727 33.9053 35.7675 33.3533 35.9649 33.3079Z" fill="#C1B7A2"/>
<path d="M43.1805 33.3604C43.1928 33.3762 43.1473 33.4584 43.233 33.5686C43.1473 34.0567 42.7922 33.936 42.556 34.0375C42.3898 33.8538 42.3478 33.4724 42.451 33.2555C42.6662 32.8042 42.9881 33.1155 43.1805 33.3604Z" fill="#163242"/>
<path d="M42.7384 33.3603C43.0424 33.2119 43.0563 33.7499 42.8432 33.7761C42.6703 33.7988 42.5987 33.4285 42.7384 33.3603Z" fill="#A4B4AD"/>
<path d="M37.1897 27.3164C37.1984 28.6231 36.9973 30.9113 37.1897 32.0834C37.2352 32.365 37.4416 32.6187 37.606 32.8391C37.5431 32.8478 37.3874 32.8916 37.3454 32.8916C37.0305 32.8828 36.7733 32.7184 36.4865 32.8391C36.448 32.8286 36.3203 32.6484 36.3045 32.6047C36.1016 32.0309 36.2031 28.3537 36.1996 27.4721L36.3552 27.3671C36.4217 28.0161 37.0532 27.4458 36.9798 26.9507L37.1879 27.3146L37.1897 27.3164Z" fill="#175364"/>
<path d="M36.8236 21.3248C36.0382 21.9388 36.1396 23.529 36.2498 24.4509C36.2848 24.7395 36.2411 24.9425 36.5105 25.2329C36.2096 25.1769 36.402 24.9949 36.1466 24.946C36.2341 25.7857 36.1956 26.6323 36.1991 27.4738C36.2026 28.3152 36.0994 32.0326 36.3041 32.6064C36.3198 32.6501 36.4493 32.8303 36.486 32.8408C36.7746 32.7201 37.03 32.8845 37.3449 32.8933V32.9982C37.149 32.9528 36.4248 32.881 36.2516 32.8933L35.9909 32.4507C36.4458 30.236 35.4434 23.4293 36.1991 21.7691C36.2306 21.7009 36.4947 21.3493 36.563 21.3266C36.6189 21.3073 36.7449 21.3353 36.8236 21.3266V21.3248Z" fill="#0B1C29"/>
<path d="M43.5977 22.0543C43.5977 22.252 43.5487 22.1873 43.3895 22.1068C42.9924 21.9074 42.1947 21.0327 42.0862 21.8199C43.7271 21.8007 43.6974 23.1861 43.7009 24.4509C43.7009 24.4579 43.6099 24.4684 43.5959 24.5559C43.505 25.1647 43.463 25.8102 43.4402 26.4574C43.393 27.7397 43.4752 29.0307 43.4402 30.313C43.5645 29.1322 43.561 27.9304 43.5959 26.7443C43.7096 28.8558 44.021 31.0232 43.5435 33.1015C43.4263 33.2082 43.358 33.3149 43.1796 33.3621C42.9872 33.119 42.6653 32.8058 42.4501 33.2572C41.9515 33.126 41.4355 33.2589 40.9387 33.2572C40.5556 33.2554 40.1742 33.2572 39.7928 33.2572C39.6704 33.2572 39.4535 33.2047 39.2715 33.2047C38.8062 33.2047 38.3251 33.1785 37.8651 33.2572C37.7741 33.2309 37.6989 33.2152 37.6044 33.2047C37.6884 33 37.4312 33.0158 37.3438 32.9965V32.8916C37.3857 32.8916 37.5414 32.8478 37.6044 32.8391C37.7111 32.8251 37.8038 32.9808 37.9175 32.8128L37.5537 32.1883C37.7758 29.1112 37.216 25.6877 37.5012 22.6526C37.5729 21.8934 37.7514 21.1919 38.5945 21.0642C38.9339 21.0117 42.2209 21.0537 42.5288 21.1167C42.8595 21.1831 43.414 21.7604 43.5977 22.0543Z" fill="url(#paint3_linear_6413_63870)"/>
<path d="M42.217 22.6788C42.3657 24.1378 42.2887 25.6177 42.2957 27.082C42.3027 28.5462 42.4584 30.0174 42.217 31.4326C42.2065 28.5164 42.1243 25.5915 42.217 22.6788Z" fill="#163242"/>
<path d="M40.5495 23.564C40.6685 23.4661 40.6667 23.6323 40.679 23.6935C40.8172 24.3093 40.7542 29.4926 40.6265 30.2063C40.5513 30.6314 40.2014 31.4991 39.6626 31.4834C40.2451 31.193 40.5093 30.5755 40.574 29.9457C40.6632 29.085 40.3011 23.7652 40.5478 23.5623L40.5495 23.564Z" fill="#163242"/>
<path d="M41.3827 22.6263C41.5471 24.981 41.4439 27.3548 41.4352 29.713L41.3564 26.2475L41.3827 22.6263Z" fill="#0B1C29"/>
<path d="M39.2993 21.8444C39.4305 24.0608 39.4078 26.293 39.4043 28.5146C39.3011 26.3 39.1349 24.0625 39.2993 21.8444Z" fill="#163242"/>
<path d="M38.5172 23.8246C38.6746 25.6405 38.5714 27.4755 38.6221 29.2949L38.4927 26.6638L38.5189 23.8246H38.5172Z" fill="#163242"/>
<path d="M43.5975 26.7425C43.5625 27.9286 43.566 29.1304 43.4418 30.3112C43.4768 29.0289 43.3946 27.7379 43.4418 26.4556C43.4663 25.8084 43.5065 25.1629 43.5975 24.5541C43.6832 25.2731 43.6185 26.02 43.5975 26.7425Z" fill="#175364"/>
<path d="M40.4971 21.6362C40.637 21.6135 42.019 21.6013 42.0347 21.715C41.8336 22.0683 40.2644 21.61 40.1594 21.8707L40.1332 23.669C40.1035 23.2946 39.9478 22.1068 40.0545 21.8199C40.0982 21.7027 40.3904 21.6555 40.4971 21.638V21.6362Z" fill="#175364"/>
<path d="M43.3889 22.105C43.821 22.7278 43.8245 23.7162 43.7021 24.4491C43.6986 23.1826 43.7283 21.7989 42.0874 21.8181C42.1959 21.0309 42.9936 21.9056 43.3907 22.105H43.3889Z" fill="#3C8D99"/>
<path d="M42.8944 22.3133C43.0151 22.3133 43.0378 24.6329 42.9469 24.7099C42.9049 24.7449 42.7894 24.6837 42.7649 24.6312C42.7142 24.5262 42.8524 22.5949 42.8944 22.3133Z" fill="#163242"/>
<path d="M37.5534 21.3248C37.0881 22.0385 37.1528 23.8264 37.1371 24.7115L36.8502 24.1378C36.5371 24.0643 36.4741 24.3039 36.2502 24.4509C36.14 23.529 36.0385 21.9388 36.824 21.3248C37.0531 21.2986 37.319 21.344 37.5534 21.3248Z" fill="#246C7C"/>
<path d="M36.5113 25.2312C36.7212 25.2697 36.9242 25.1437 37.1358 25.1787C37.1271 25.8802 37.1831 26.6114 37.1883 27.3147L36.9802 26.9508C36.7177 25.9449 36.2927 26.7584 36.3556 27.3671L36.1999 27.4721C36.1964 26.6307 36.2349 25.784 36.1475 24.9443C36.4029 24.9933 36.2104 25.1752 36.5113 25.2312Z" fill="#246C7C"/>
<path d="M37.1371 24.7116C37.1336 24.8673 37.1389 25.0247 37.1371 25.1804C36.9255 25.1437 36.7225 25.2714 36.5126 25.2329C36.2432 24.9425 36.2869 24.7396 36.252 24.4509C36.4759 24.304 36.5371 24.0661 36.852 24.1378L37.1389 24.7116H37.1371Z" fill="#DC7E40"/>
<path d="M36.9804 26.9507C37.0539 27.4458 36.4224 28.0161 36.3559 27.3671C36.2929 26.7583 36.718 25.9449 36.9804 26.9507Z" fill="#0B1C29"/>
<path d="M12.8036 21.9493C12.8701 21.9633 12.9908 22.0333 13.0642 22.0543C13.694 22.6875 13.673 23.6689 14.0544 24.4509C14.0701 26.1635 14.0351 27.8954 14.0019 29.6097C13.9809 30.6733 14.2083 31.9889 13.6888 32.9178C13.7325 32.9685 14.3378 32.874 14.4182 32.839V32.944L13.5593 33.1522C14.0211 33.1802 14.511 32.9947 14.9396 32.944C15.0358 32.9318 15.2597 33.0717 15.4609 32.8915C15.4101 32.965 15.3454 33.021 15.3052 33.0997C14.985 32.9423 14.6649 33.2519 14.6282 33.2554C14.1453 33.3096 13.5576 33.2746 13.0642 33.3079C13.0468 33.2449 12.8561 33.0682 12.8036 33.0472C12.8876 33.0175 12.8036 32.8495 12.8036 32.839C12.9086 31.8087 12.9593 30.885 12.9593 29.8424C12.9593 28.6249 13.0712 23.7232 12.7511 22.9377C12.6304 22.6403 12.2718 22.259 11.9692 22.1557C11.9971 22.035 11.7837 22.0123 11.7085 22L12.8018 21.9476L12.8036 21.9493Z" fill="url(#paint4_linear_6413_63870)"/>
<path d="M12.6983 18.1463C12.6913 18.2705 12.6773 18.4 12.7508 18.5102L12.6458 18.6151C12.4289 18.5924 11.9269 18.6239 11.8114 18.8495C11.5962 19.2746 11.8656 21.045 11.7589 21.6118C11.8097 21.6835 12.882 21.6713 13.0884 21.7412C13.1287 21.7552 13.3788 22.0334 13.4278 22.0544V22.1068C13.2161 22.0089 13.1392 22.0771 13.0639 22.0544C12.9887 22.0316 12.8715 21.9634 12.8033 21.9494C11.9076 21.7745 11.1571 21.8707 10.251 21.8199L11.4493 21.6118C11.4195 20.8788 11.5263 20.1563 11.5018 19.4233C11.493 19.1784 11.2778 18.9702 11.3461 18.6414C11.4528 18.1218 12.3275 18.2215 12.7001 18.1463H12.6983Z" fill="#163242"/>
<path d="M11.7087 22.0019C11.7839 22.0141 11.9973 22.0368 11.9693 22.1575L12.7513 22.9395C13.0714 23.7232 12.9595 28.6267 12.9595 29.8442C12.9595 30.8868 12.907 31.8087 12.8038 32.8408C12.6253 32.9231 12.2562 32.8461 12.23 33.049C12.0428 33.077 11.9851 33.2047 11.9693 33.2047C11.7052 33.2257 10.262 33.2537 10.094 33.2047C10.0188 33.1837 9.5797 32.5802 9.36453 33.2572C8.9132 33.3044 8.82048 32.9721 8.68753 32.6327C8.4951 31.723 8.49335 30.7994 8.47936 29.8704C8.47936 29.8355 8.47936 29.8005 8.47936 29.7655C8.47411 29.2477 8.54234 28.6931 8.53184 28.2016L8.42688 26.4295C8.42688 26.3945 8.42688 26.3595 8.42688 26.3245C8.43563 25.3956 8.20646 23.4451 8.68753 22.7033C9.12662 22.0263 10.9687 21.8759 11.7104 22.0001L11.7087 22.0019Z" fill="url(#paint5_linear_6413_63870)"/>
<path d="M8.53139 28.2015C8.53139 28.1351 8.46666 27.8132 8.42643 27.7327C8.43518 27.2989 8.42293 26.8633 8.42643 26.4294L8.53139 28.2015Z" fill="#A45C2C"/>
<path d="M10.2755 23.7214C10.4067 26.0428 10.4259 28.3782 10.3804 30.7031L10.251 27.2376L10.2772 23.7197L10.2755 23.7214Z" fill="#D5682B"/>
<path d="M11.8922 23.4083C12.0567 23.4083 11.9482 26.174 11.8922 26.4311C11.7995 26.2002 11.7418 23.4083 11.8922 23.4083Z" fill="#C73F1D"/>
<path d="M9.39006 24.2935L9.49502 27.9934C9.25886 26.7846 9.38131 25.5233 9.39006 24.2935Z" fill="#D15721"/>
<path d="M12.7512 22.9395L11.9692 22.1575C12.2719 22.2607 12.6305 22.6421 12.7512 22.9395Z" fill="#DC7E40"/>
<path d="M12.8029 32.8391C12.8029 32.8496 12.8868 33.0173 12.8029 33.047C12.5846 32.9614 12.4378 33.0155 12.23 33.047C12.2562 32.8444 12.6247 32.9212 12.8029 32.8391Z" fill="#DC7E40"/>
<path d="M15.2521 28.149C15.2224 28.84 15.2713 29.5415 15.2521 30.2325C15.2346 30.8728 15.4253 32.4734 14.8882 32.8373C14.799 32.8985 14.5314 32.9842 14.4194 32.9422V32.8373C14.9635 32.6081 14.4631 32.5066 14.3669 32.2635L14.3145 28.5374L15.0702 28.5111L15.0964 28.4062C15.1874 28.3799 15.1454 28.2225 15.1489 28.1455H15.2539L15.2521 28.149Z" fill="#D5682B"/>
<path d="M13.7411 22.1051C13.8145 22.2625 14.0192 22.357 14.1049 22.4952C14.5178 23.1547 14.4548 26.335 14.4181 27.2621C14.4146 27.3426 14.3166 27.2989 14.3131 27.3409C14.2781 28.1071 14.1067 28.5934 15.0951 28.4097L15.0688 28.5147L14.3131 28.5409L14.3656 32.267C14.0542 31.4816 14.3691 29.713 14.2099 28.8016C13.916 28.8716 14.3044 29.5223 14.0017 29.6098C14.035 27.8972 14.07 26.1636 14.0542 24.4509C14.0472 23.6812 14.3166 22.5179 13.4297 22.1068V22.0543C13.4437 22.0596 13.6868 22.0981 13.7428 22.1068L13.7411 22.1051Z" fill="#0B1C29"/>
<path d="M15.9821 31.7965C15.9838 31.814 15.9803 31.8315 15.9821 31.849C15.7564 32.1779 15.6969 32.5417 15.4608 32.8916C15.2613 33.07 15.0357 32.9318 14.9395 32.9441V32.8916C15.6619 32.435 15.4013 31.0478 15.4083 30.2343C15.4153 29.3282 15.3645 28.429 15.3558 27.5246C15.3558 27.4564 15.3558 27.3846 15.3558 27.3164C15.466 27.5141 15.7931 27.4529 15.8246 27.4983C15.9488 27.6733 15.7651 31.172 15.8246 31.7703C15.8299 31.8175 15.9803 31.7878 15.9803 31.7965H15.9821Z" fill="#D5682B"/>
<path d="M14.3674 32.2671C14.4636 32.5102 14.964 32.6117 14.4199 32.8409C14.3394 32.8741 13.7342 32.9703 13.6904 32.9196C14.2082 31.9907 13.9826 30.6752 14.0036 29.6115C14.3062 29.5241 13.9178 28.8751 14.2117 28.8033C14.3727 29.7148 14.0578 31.4834 14.3674 32.2688V32.2671Z" fill="#0B111D"/>
<path d="M15.9822 31.8489C16.0172 32.1078 15.9244 32.6466 16.0347 32.8653C16.1344 33.0629 16.7274 33.1137 16.6084 33.3866C16.5262 33.5737 15.6358 33.5213 15.4101 33.516C15.3944 33.4355 15.3786 33.1347 15.3052 33.0997C15.3472 33.0209 15.4119 32.965 15.4609 32.8915C15.697 32.5416 15.7565 32.1778 15.9822 31.8489Z" fill="#E28464"/>
<path d="M13.4281 22.105C14.315 22.5179 14.0456 23.6794 14.0526 24.4492C13.6713 23.6672 13.6923 22.6858 13.0625 22.0525C13.1395 22.0753 13.2147 22.0071 13.4264 22.105H13.4281Z" fill="#D5682B"/>
<path d="M14.9398 32.8916V32.9441C14.5112 32.9948 14.0214 33.1802 13.5596 33.1522L14.4185 32.9441C14.5305 32.9861 14.7981 32.9003 14.8873 32.8391L14.9398 32.8916Z" fill="#A34D3C"/>
<path d="M13.4804 18.6675C13.4891 18.6185 13.4734 18.5608 13.4804 18.5118C13.4926 18.4191 13.5276 18.2966 13.5328 18.2511C13.8985 18.2564 14.7014 18.1462 14.7836 18.6412C14.8309 18.9264 14.5807 19.1608 14.5755 19.215C14.495 20.0932 14.6349 21.0851 14.5755 21.9773C14.5282 22.1032 14.3323 21.9808 14.3148 21.9248C14.0559 21.0921 14.9568 18.4506 13.4804 18.6675Z" fill="#163242"/>
<path d="M12.8035 33.0472C12.856 33.0682 13.0449 33.2449 13.0641 33.3079C13.1096 33.4671 13.0536 33.7207 13.0117 33.8817C13.0047 33.9114 13.0204 33.9621 13.0117 33.9866C12.9574 34.1318 12.7178 34.3732 12.5691 34.403C12.2944 34.4589 12.1475 34.3015 12.074 34.298C12.018 34.1686 11.9813 34.0234 11.969 33.8817C11.9516 33.6595 11.9813 33.4268 11.969 33.2047C11.9848 33.2047 12.0425 33.077 12.2297 33.049C12.4361 33.0175 12.5848 32.9632 12.8035 33.049V33.0472Z" fill="#163242"/>
<path d="M12.4135 33.4128C12.8135 33.1962 12.92 33.7989 12.6737 33.881C12.3716 33.9805 12.2353 33.5089 12.4135 33.4128Z" fill="#D7CDB7"/>
<path d="M10.0941 33.2046C10.0346 33.3708 10.0032 33.7802 10.0416 33.9341C9.68827 34.0321 9.4626 33.9289 9.36464 33.5703C9.36114 33.5545 9.35939 33.2729 9.36464 33.2571C9.57981 32.5801 10.0189 33.1836 10.0941 33.2046Z" fill="#163242"/>
<path d="M9.54615 33.3078C9.74004 33.1489 9.96537 33.6921 9.70161 33.7235C9.53218 33.7445 9.45357 33.3829 9.54615 33.3078Z" fill="#C0C2B0"/>
<path d="M14.1073 22.0543C14.1056 22.238 14.4904 22.1785 14.5499 22.21C14.7371 22.3079 15.1622 22.8572 15.2007 23.0689L15.2531 27.9409C15.2479 28.0091 15.2566 28.0808 15.2531 28.149H15.1482C15.1534 28.0196 15.0782 26.9752 15.0432 26.9245C14.7493 26.6726 14.7213 27.3303 14.4187 27.2639C14.4572 26.335 14.5202 23.1546 14.1056 22.4969C14.0181 22.3587 13.8134 22.2642 13.7417 22.1068C13.8939 22.1295 13.9936 22.0316 14.1056 22.0543H14.1073Z" fill="#DC7E40"/>
<path d="M15.4085 30.2343C15.4015 31.0477 15.6622 32.4349 14.9397 32.8915L14.8872 32.839C15.4243 32.4752 15.2353 30.8728 15.2511 30.2343H15.4068H15.4085Z" fill="#461D24"/>
<path d="M15.4082 30.2342H15.2525C15.2718 29.5415 15.2228 28.8418 15.2525 28.1508C15.256 28.0825 15.2473 28.0108 15.2525 27.9426C15.2613 27.8341 15.3085 27.633 15.3575 27.5262C15.3645 28.4307 15.417 29.3298 15.41 30.236L15.4082 30.2342Z" fill="#5A2C2D"/>
<path d="M15.1996 22.3132C15.3255 22.3797 15.7191 22.9202 15.7733 23.0951C15.8118 25.7472 15.7296 28.966 15.929 31.562C15.9395 31.7037 15.901 31.702 16.034 31.7964H15.9815C15.9815 31.7964 15.8293 31.8174 15.8258 31.7702C15.7663 31.1719 15.95 27.6715 15.8258 27.4983C15.7926 27.4528 15.4672 27.514 15.357 27.3163C15.3447 26.3804 15.5459 23.6497 15.3045 22.9657C15.2345 22.768 14.9127 22.4444 14.7832 22.2625C14.8514 22.2869 15.1156 22.2694 15.1996 22.3149V22.3132Z" fill="#ED9A44"/>
<path d="M14.7835 22.2625C14.9129 22.4444 15.2348 22.7681 15.3048 22.9657C15.5444 23.6515 15.345 26.3805 15.3573 27.3164C15.3573 27.3846 15.3573 27.4563 15.3573 27.5245C15.31 27.6313 15.261 27.8324 15.2523 27.9409L15.1998 23.0689C15.1596 22.8555 14.7362 22.3062 14.5491 22.21C14.4878 22.1785 14.103 22.238 14.1065 22.0543C14.3986 22.112 14.5193 22.1698 14.7835 22.2625Z" fill="#993625"/>
<path d="M15.3054 33.0997C15.3771 33.1347 15.3929 33.4356 15.4104 33.516C15.4349 33.6455 15.3212 33.7469 15.4366 33.8292C15.9282 33.7627 16.4285 33.649 16.9218 33.621C16.9428 33.8082 17.137 34.0268 16.9481 34.1948C16.6804 34.312 15.0902 33.9604 14.6809 33.9341L14.6284 33.2571C14.6652 33.2536 14.9853 32.944 15.3054 33.1014V33.0997Z" fill="#0B111D"/>
<path d="M14.8609 33.4128C15.1002 33.2328 15.1945 33.7569 15.0163 33.8285C14.805 33.9141 14.7857 33.4686 14.8609 33.4128Z" fill="#C0C2B0"/>
<path d="M15.148 28.1491C15.1445 28.2261 15.1865 28.3835 15.0956 28.4098C14.1072 28.5952 14.2786 28.1089 14.3136 27.3409C14.3154 27.2989 14.4151 27.3444 14.4186 27.2622C14.7212 27.3304 14.7492 26.6709 15.0431 26.9228C15.0763 26.9735 15.1515 28.0179 15.148 28.1474V28.1491Z" fill="#163242"/>
<path d="M14.6019 27.577C14.8503 27.3845 14.8101 28.1613 14.7576 28.2015C14.5092 28.3939 14.5494 27.6172 14.6019 27.577Z" fill="#CD9965"/>
<path d="M16.0853 8.87122C15.8772 10.855 19.1922 10.8567 19.5771 9.41876C19.6715 9.0619 19.4861 9.15986 19.3164 8.9237C19.3899 8.94469 19.4738 8.95868 19.5246 8.97618C19.7747 9.0584 19.9637 9.11438 20.2016 9.23683C20.1981 9.77913 20.3573 10.3127 20.4098 10.8515C19.738 11.8801 18.3175 12.0865 17.2049 11.7367C16.7256 11.5862 16.2953 11.0702 15.8247 11.0072C15.725 10.9932 15.704 10.9425 15.6165 11.0072C15.4993 10.4544 15.2457 9.93482 15.0952 9.39252C15.4713 8.94819 15.5798 9.0409 16.0853 8.87122Z" fill="#F6EDD4"/>
<path d="M18.2738 3.81729C17.9782 3.917 16.1886 4.8599 15.8247 5.06808C15.7425 4.96661 15.8265 4.81967 15.8247 4.80742L17.1787 4.0517L16.0329 3.40094C16.7519 2.78167 18.0359 2.69945 18.2738 3.81729Z" fill="#F2AA3C"/>
<path d="M19.7855 5.01563C19.8607 5.2483 20.0321 6.34339 20.0461 6.60405C20.0898 7.42624 19.9342 8.25894 19.5248 8.97442C19.4741 8.95868 19.3901 8.94468 19.3166 8.92194C19.1329 8.86771 18.5959 8.87471 18.5347 8.71377L19.056 8.79249C19.2292 7.98429 19.7627 7.49272 19.6805 6.60405C19.6682 6.4606 19.7312 6.39762 19.5248 6.42211C19.5983 5.69438 19.593 5.30603 18.7953 5.19757C19.0315 5.0926 19.2064 5.2448 19.4198 5.30253C19.4548 4.9649 19.0682 4.84595 18.951 4.57305C18.895 4.44534 19.0052 4.39986 19.0035 4.39111C19.4058 4.41735 19.6648 4.64302 19.7855 5.01563Z" fill="#251823"/>
<path d="M19.0034 3.8173C18.9789 3.85753 18.8635 4.01498 18.8477 4.02547C18.1725 4.45931 16.8797 5.23777 16.1642 5.53691C15.7566 5.7066 15.328 5.8413 14.8872 5.90078C14.9729 5.55441 15.5257 5.23777 15.8249 5.06634C16.1887 4.85991 17.9783 3.91526 18.274 3.81555C18.5101 3.73683 18.769 3.79981 19.0034 3.81555V3.8173Z" fill="#561416"/>
<path d="M16.0346 3.39923L17.1804 4.04999L15.8264 4.80571C15.7144 4.11647 15.4031 3.94328 16.0346 3.39923Z" fill="#DC7E40"/>
<path d="M19.7848 5.01559C19.6641 4.64298 19.4052 4.41556 19.0029 4.39107C18.9784 4.27736 18.8961 4.13391 18.8472 4.0272C18.8629 4.01671 18.9784 3.85752 19.0029 3.81903C19.7708 3.86976 20.537 4.30535 19.7848 5.01734V5.01559Z" fill="#ED9A44"/>
<path d="M17.1804 5.48445C17.0387 5.57017 16.82 5.99526 16.7902 6.00576C16.6975 6.0355 16.3459 5.84482 16.3214 5.85007C16.0363 5.90255 16.0923 6.81746 16.4771 6.89268C16.7028 6.93642 16.7745 6.78422 16.7902 6.78772C16.8217 6.79472 17.0124 7.28454 17.0771 7.36151C17.0194 7.53994 17.1331 7.85658 17.1296 7.98603C17.1261 8.12773 17.0247 8.39713 17.0247 8.55982C16.8077 8.61055 16.3319 8.79073 16.087 8.87295C15.5814 9.04264 15.473 8.94992 15.0969 9.39426C14.7015 9.86134 14.4531 10.7832 14.2624 11.3745C14.2239 11.4935 14.2362 11.7087 14.2099 11.7909C14.1872 11.8626 14.1592 11.8399 14.1575 11.8434C13.5399 11.4742 13.1236 11.1279 13.0641 10.3582C12.8979 8.24493 14.866 8.58256 15.4607 6.9714C15.5255 6.79472 15.466 6.52007 15.5132 6.37137C15.557 6.23667 16.1902 5.71012 16.3214 5.64189C16.4666 5.56667 17.0561 5.34625 17.1804 5.4862V5.48445Z" fill="#251823"/>
<path d="M15.5402 8.0368L15.1239 8.55811C14.2544 8.98495 13.7856 9.73718 13.6649 10.6941C13.5354 9.34532 14.676 8.78028 15.5402 8.0368Z" fill="#4F2F34"/>
<path d="M15.8261 11.0072C16.4174 12.6551 18.1353 13.6487 19.7079 12.4662C19.9354 12.4749 19.3703 14.2855 19.3686 14.4464L16.6588 14.5514C16.6903 14.359 16.7043 14.31 16.6588 14.1088C16.6291 13.9758 15.8891 12.0183 15.8244 11.9204C15.7999 11.8819 15.7124 11.8206 15.6687 11.7909C15.7264 11.5757 15.6634 11.2259 15.6162 11.0089C15.7037 10.9442 15.7264 10.9949 15.8244 11.0089L15.8261 11.0072Z" fill="#B0ABA0"/>
<path d="M18.5343 8.71553C18.5203 8.67705 18.4678 7.94582 18.4818 7.90733C18.5116 7.82511 18.7128 7.74989 18.795 7.67292C18.9839 7.49273 19.0276 7.55221 19.2113 7.25657C19.3198 7.08338 19.43 6.88221 19.472 6.68278C19.4842 6.62855 19.521 6.44837 19.5245 6.42213C19.7309 6.39764 19.6679 6.46236 19.6802 6.60406C19.7624 7.49273 19.2271 7.9843 19.0556 8.7925L18.5343 8.71378V8.71553Z" fill="#120D19"/>
<path d="M23.3299 33.7767C23.5171 33.9709 23.3946 34.3872 23.0955 34.4012C23.0063 34.4047 22.52 34.2123 22.366 34.1931C21.7537 34.1161 20.419 34.0723 19.9169 33.8292C19.798 33.7715 19.7647 33.7802 19.7875 33.621C20.4435 33.628 21.1065 33.7207 21.794 33.726C22.0336 33.726 22.5864 33.5615 22.7579 33.5703C22.8191 33.5738 23.3107 33.7575 23.3317 33.7785L23.3299 33.7767Z" fill="#0B111D"/>
<path d="M20.6199 31.7965C20.6531 32.0449 20.7756 32.533 20.9837 32.6817C20.7108 32.7412 20.4257 33.2852 20.2805 33.3587C20.2105 33.3937 19.9709 33.273 19.9936 33.4636L19.8887 33.3849L19.7837 31.7965C19.8257 31.8018 20.5744 31.8 20.6181 31.7965H20.6199Z" fill="#C8674A"/>
<path d="M22.6 33.2554C21.9492 33.8536 20.8104 33.46 19.9952 33.4635C19.9724 33.2729 20.2121 33.3953 20.2821 33.3586C20.4273 33.2851 20.7124 32.7411 20.9853 32.6816C21.0798 32.7498 22.425 33.2204 22.6 33.2554Z" fill="#E28464"/>
<path d="M22.6005 18.979H22.1317C22.0355 18.5924 21.9183 18.2163 21.8186 17.8332C22.1002 17.5078 21.7766 16.955 21.7136 16.5561C21.4775 15.0377 21.4477 13.4825 21.0366 11.9973C21.1783 11.9588 21.3253 11.9151 21.453 11.8416C21.7189 12.9769 22.1615 14.4097 22.3381 15.5153C22.5148 16.6208 22.4081 17.8909 22.5988 18.9807L22.6005 18.979Z" fill="#E28464"/>
<path d="M13.8464 16.5823C13.5577 17.4028 13.6277 17.429 13.5333 18.2495C13.528 18.295 13.493 18.4174 13.4808 18.5101H12.7513C12.6796 18.3999 12.6918 18.2687 12.6988 18.1463C12.7338 17.569 12.991 16.3059 13.1152 15.6972C13.1379 15.5852 13.1939 15.4453 13.2201 15.3333C13.4458 14.2924 13.7467 13.1746 14.0546 12.1547L13.8464 16.5841V16.5823Z" fill="#E28464"/>
<path d="M14.7314 14.03C14.4427 14.8925 14.1453 15.7339 13.8462 16.5823L14.0544 12.153C14.0859 12.0498 14.1261 11.9448 14.1593 11.8398C14.1593 11.8363 14.1891 11.8608 14.2118 11.7874C14.3185 11.8381 14.9745 12.0882 14.9938 12.1267C15.062 12.2597 14.5494 13.7256 14.7331 14.0283L14.7314 14.03Z" fill="#C8674A"/>
<path d="M21.402 11.5284L20.4643 11.8923C20.4206 11.5511 20.4451 11.189 20.4118 10.8496C20.3594 10.3108 20.2002 9.77554 20.2037 9.23499C21.2498 9.77379 21.1623 10.5208 21.402 11.5284Z" fill="#F2AA3C"/>
<path d="M22.6002 18.9789C22.6247 19.1189 22.7594 19.6227 22.8083 19.7609L22.287 19.9691C22.1453 19.5352 22.2083 19.2921 22.1313 18.9789H22.6002Z" fill="#C8674A"/>
<path d="M21.4016 11.5284C21.4313 11.6509 21.4331 11.7506 21.4541 11.8416C21.3264 11.9168 21.1777 11.9588 21.0377 11.9973C20.8558 12.048 20.6581 12.1057 20.464 12.1022C20.4552 12.0358 20.4727 11.9605 20.464 11.8941L21.4016 11.5302V11.5284Z" fill="#A34D3C"/>
<path d="M18.7952 7.67291C18.7147 7.74988 18.5118 7.82511 18.482 7.90733C18.468 7.94581 18.5205 8.67704 18.5345 8.71553C18.594 8.87822 19.1328 8.86947 19.3165 8.9237C19.4862 9.15986 19.6716 9.0619 19.5771 9.41877C19.1923 10.8567 15.879 10.855 16.0854 8.87122C16.3303 8.789 16.8062 8.60882 17.0231 8.55809C17.3659 8.47936 18.3928 8.64206 18.3771 8.19422C18.3613 7.74639 18.3211 7.95981 18.0639 7.88109L18.7934 7.67291H18.7952Z" fill="#E28464"/>
<path d="M15.6165 11.0072C15.662 11.2241 15.7267 11.574 15.669 11.7891C15.655 11.7786 15.585 11.7996 15.564 11.7891C15.1494 11.581 14.6683 11.6054 14.2607 11.3728C14.4514 10.7815 14.6981 9.85959 15.0952 9.39252C15.2456 9.93482 15.4993 10.4561 15.6165 11.0072Z" fill="#ED9A44"/>
<path d="M15.5662 11.7891C15.2811 12.5291 14.9854 13.2761 14.7318 14.0301C14.5481 13.7257 15.0606 12.2615 14.9924 12.1285C14.9732 12.09 14.3172 11.8416 14.2104 11.7891C14.2367 11.7052 14.2244 11.49 14.2629 11.3728C14.6688 11.6055 15.1499 11.5827 15.5662 11.7891Z" fill="#A34D3C"/>
<path d="M18.3789 8.19412C18.3929 8.6437 17.366 8.48101 17.0249 8.55798C17.0249 8.39529 17.1246 8.12589 17.1299 7.98419L18.3807 8.19237L18.3789 8.19412Z" fill="#A34D3C"/>
<path d="M18.0659 7.88107C18.3213 7.95979 18.3633 7.74462 18.379 8.1942L17.1282 7.98603C17.1317 7.85483 17.0198 7.53995 17.0758 7.36151C17.3941 7.73587 17.6356 7.75162 18.0659 7.88282V7.88107Z" fill="#A34D3C"/>
<path d="M21.0364 11.9973C21.4475 13.4825 21.4772 15.0376 21.7134 16.5561C21.7764 16.9549 22.1 17.506 21.8184 17.8331C21.3163 15.9106 20.7338 14.0912 20.4644 12.1022C20.6568 12.1057 20.8545 12.048 21.0381 11.9973H21.0364Z" fill="#C8674A"/>
<path d="M18.8479 4.02555C18.8968 4.13401 18.9791 4.27746 19.0035 4.38942C19.0053 4.39817 18.8968 4.44365 18.9511 4.57135C19.0683 4.84425 19.4549 4.96321 19.4199 5.30083C19.2065 5.2431 19.0298 5.09266 18.7954 5.19587C19.5913 5.30433 19.5983 5.69269 19.5249 6.42042C19.5214 6.44666 19.4846 6.62684 19.4724 6.68107C19.0525 6.92423 19.1365 6.34345 18.7954 6.4729C18.6519 6.30321 18.2531 5.59997 18.1184 5.82214C18.1551 6.17376 18.0327 5.98833 18.0134 6.00407C18.0362 5.88687 18.0974 5.76441 18.0659 5.64021C18.0292 5.50201 17.8892 5.48452 17.8577 5.32707C17.9819 5.30608 18.0991 5.31833 18.2216 5.30083C18.2478 5.15389 17.3277 5.2571 17.2839 5.43028C17.2489 5.44428 17.2105 5.46352 17.179 5.48277C17.0548 5.34282 16.4635 5.56324 16.32 5.63846C16.1888 5.70668 15.5556 6.23324 15.5118 6.36794C15.0885 6.50264 14.7701 6.36969 14.8873 5.89911C15.3264 5.83788 15.7567 5.70493 16.1643 5.53525C16.8798 5.23611 18.1726 4.45764 18.8479 4.0238V4.02555Z" fill="#EB915F"/>
<path d="M18.9782 5.64014C19.5721 5.72922 18.9084 5.95455 19.083 6.16066L18.9014 6.0314L18.98 5.64188L18.9782 5.64014Z" fill="#251823"/>
<path d="M17.8575 5.32699C17.7158 5.35148 17.3922 5.38472 17.2837 5.43195C17.3274 5.25701 18.2476 5.15555 18.2213 5.3025C18.0989 5.31999 17.9817 5.30774 17.8575 5.32874V5.32699Z" fill="#722F30"/>
<path d="M13.4804 18.5101C13.4734 18.5608 13.4892 18.6168 13.4804 18.6658C13.302 19.6717 12.9206 19.3778 12.646 18.6133L12.751 18.5084H13.4804V18.5101Z" fill="#A34D3C"/>
<path d="M17.8575 5.32692C17.8889 5.48437 18.0306 5.50186 18.0656 5.64006C17.756 5.48087 17.8277 5.9462 17.7018 6.08265C17.8924 6.29432 17.9414 6.07215 18.0149 6.00392C18.0324 5.98643 18.1548 6.17361 18.1199 5.82199C18.2563 5.59982 18.6534 6.30306 18.7969 6.47275C19.1275 6.86461 19.4231 6.76139 19.2132 7.25471C19.0295 7.55035 18.9858 7.49087 18.7969 7.67106L18.0674 7.87923C17.637 7.74803 17.3956 7.73404 17.0772 7.35792C17.0125 7.2827 16.8218 6.79288 16.7903 6.78414C16.7746 6.78064 16.7029 6.93108 16.4772 6.8891C16.0924 6.81562 16.0346 5.89896 16.3215 5.84648C16.346 5.84123 16.6976 6.03366 16.7903 6.00218C16.8218 5.99168 17.0388 5.56659 17.1805 5.48087C17.2119 5.46162 17.2504 5.44413 17.2854 5.42839C17.3939 5.38115 17.7158 5.34792 17.8592 5.32343L17.8575 5.32692Z" fill="#E28464"/>
<path d="M18.0648 5.64002C18.098 5.76404 18.0351 5.88631 18.0124 6.00334C17.939 6.07146 17.8901 6.2933 17.6997 6.08194C17.8255 5.9457 17.7556 5.48107 18.063 5.64002H18.0648Z" fill="#120D19"/>
<path d="M19.4719 6.68275C19.4299 6.88218 19.3197 7.08335 19.2113 7.25654C19.4194 6.76322 19.1255 6.86643 18.7949 6.47458C19.136 6.34513 19.0538 6.92591 19.4719 6.68275Z" fill="#EB915F"/>
<path d="M17.8834 6.94342C17.9534 6.90319 18.8298 6.92593 18.8473 7.07287C18.7511 7.43149 17.5878 7.11136 17.8834 6.94342Z" fill="#FBF9F5"/>
<path d="M20.7231 31.7458C20.5936 31.7615 20.6251 31.7965 20.6181 31.7983C20.5761 31.8018 19.8256 31.8035 19.7837 31.7983C19.7382 31.793 19.502 31.723 19.4705 31.6688C18.9195 27.2552 18.6081 22.8136 17.9591 18.4087C17.9766 18.3457 17.9381 18.218 17.9591 18.1743C18.0238 18.0396 18.8827 17.4396 18.9492 17.653C19.0454 22.3343 19.7767 26.9963 20.5131 31.6163L20.7213 31.7458H20.7231Z" fill="#163242"/>
<path d="M17.1807 16.2184C17.242 17.352 17.081 17.6372 15.9037 17.5217C15.7777 17.6057 15.8862 17.6249 15.8775 17.7299C15.713 19.5825 15.7463 21.2461 15.7725 23.0969C15.72 22.922 15.3247 22.3814 15.1987 22.3149C15.3002 21.1954 15.0623 19.8361 15.1987 18.7463C15.2302 18.4891 15.9579 16.3339 16.0839 16.2184C16.0891 16.3392 16.1049 16.6085 16.2658 16.6348C16.3148 16.6435 17.137 16.2464 17.1772 16.2184H17.1807Z" fill="#163242"/>
<path d="M17.6496 15.1759C17.0671 15.2196 17.5062 15.2283 17.389 15.6709C17.2613 16.1572 16.4461 15.8966 16.0857 16.2185C16.0647 15.7549 16.4933 15.1444 16.607 14.707L16.6333 14.9677C16.9639 14.9082 18.8252 14.7315 18.9004 14.9939C18.9809 15.2756 17.926 15.1549 17.6496 15.1759Z" fill="#163242"/>
<path d="M17.6491 15.1758C17.5581 15.426 17.3744 15.8668 17.336 16.1135C17.1173 15.9613 17.1978 16.2045 17.1803 16.2185C17.14 16.2482 16.3178 16.6435 16.2688 16.6348C16.1079 16.6068 16.0922 16.3392 16.0869 16.2185C16.4455 15.8966 17.2625 16.1572 17.3902 15.6709C17.5074 15.2283 17.0683 15.2196 17.6508 15.1758H17.6491Z" fill="#3E5E69"/>
<path d="M19.3694 14.4464C19.3659 15.1636 20.0797 16.9689 20.2039 17.9643C20.7514 22.3622 20.6814 26.9962 21.2972 31.4081L21.2185 31.695C21.047 31.6687 20.8896 31.7282 20.7234 31.7475L20.5152 31.618C19.7805 26.998 19.0493 22.3359 18.9513 17.6547C18.8848 17.4395 18.0259 18.0413 17.9612 18.176C17.9402 18.2197 17.9787 18.3474 17.9612 18.4104C17.5501 19.9148 17.4066 22.4864 17.2317 24.115C16.9571 26.6621 16.7996 29.2249 16.5547 31.7737L16.0334 31.7999C15.9022 31.7055 15.9407 31.7072 15.9284 31.5655C15.7273 28.9695 15.8112 25.7507 15.7727 23.0987C15.7465 21.2478 15.7115 19.5842 15.8777 17.7316C17.6096 17.8086 17.1495 17.3065 17.3367 16.117C17.3751 15.8703 17.5588 15.4295 17.6498 15.1793C17.9262 15.1583 18.9793 15.279 18.9006 14.9974C18.8271 14.7367 16.9641 14.9134 16.6334 14.9712L16.6072 14.7105C16.6229 14.6475 16.6544 14.588 16.6597 14.5548L19.3694 14.4498V14.4464Z" fill="#124151"/>
<path d="M17.3364 16.1135C17.1492 17.3048 17.6093 17.8051 15.8774 17.7282C15.8861 17.6232 15.7777 17.6022 15.9036 17.52C17.0809 17.6354 17.2419 17.3503 17.1807 16.2167C17.1982 16.2045 17.1177 15.9596 17.3364 16.1118V16.1135Z" fill="#6A9195"/>
<path d="M18.7952 15.5397C18.7987 15.4995 18.8022 15.482 18.8477 15.4872C19.0523 15.6779 19.0278 15.8406 19.2378 16.0085C19.4354 16.166 19.9515 16.1502 19.8115 16.5299C19.145 16.5106 18.7392 16.257 18.7952 15.5397Z" fill="#6F858B"/>
<path d="M18.8473 15.4889C18.8035 15.4837 18.7983 15.5012 18.7948 15.5414C18.5376 15.6219 17.5597 15.851 17.7259 15.4364C18.0531 15.5029 18.5761 15.2982 18.8718 15.3839C18.9365 15.4032 18.821 15.4662 18.8455 15.4889H18.8473Z" fill="#163242"/>
<defs>
<linearGradient id="paint0_linear_6413_63870" x1="47.8308" y1="30.0875" x2="44.5539" y2="33.2668" gradientUnits="userSpaceOnUse">
<stop stop-color="#6D803F"/>
<stop offset="1" stop-color="#4D6030"/>
</linearGradient>
<linearGradient id="paint1_linear_6413_63870" x1="20.5424" y1="11.9843" x2="21.1066" y2="32.7593" gradientUnits="userSpaceOnUse">
<stop stop-color="#DDDED7"/>
<stop offset="0.54" stop-color="#EFEBC6"/>
<stop offset="0.61" stop-color="#EDE9C4"/>
<stop offset="1" stop-color="#E5DFD2"/>
</linearGradient>
<linearGradient id="paint2_linear_6413_63870" x1="19.1125" y1="22.8016" x2="19.292" y2="32.7714" gradientUnits="userSpaceOnUse">
<stop stop-color="#EDEBC9"/>
<stop offset="1" stop-color="#E3DDD0"/>
</linearGradient>
<linearGradient id="paint3_linear_6413_63870" x1="40.966" y1="21.7872" x2="40.966" y2="32.5982" gradientUnits="userSpaceOnUse">
<stop stop-color="#64AEB5"/>
<stop offset="1" stop-color="#277282"/>
</linearGradient>
<linearGradient id="paint4_linear_6413_63870" x1="13.7897" y1="24.1803" x2="13.7724" y2="31.9999" gradientUnits="userSpaceOnUse">
<stop stop-color="#F2A649"/>
<stop offset="1" stop-color="#C9693C"/>
</linearGradient>
<linearGradient id="paint5_linear_6413_63870" x1="11.7699" y1="22.2952" x2="10.0543" y2="32.4376" gradientUnits="userSpaceOnUse">
<stop stop-color="#F3A944"/>
<stop offset="0.68" stop-color="#E28443"/>
<stop offset="1" stop-color="#A8482B"/>
</linearGradient>
</defs>
</svg>
