<svg width="110" height="100" viewBox="0 0 64 36" fill="none" xmlns="http://www.w3.org/2000/svg">
<path d="M59.1661 18.733C59.166 22.233 63.7661 23.033 60.1661 26.233C56.5661 29.433 57.9995 34.5664 59.1661 36.733" stroke="#514F43" stroke-width="0.3"/>
<path d="M63.166 12.733C63.166 15.2183 61.6513 19.233 59.166 19.233C56.6807 19.233 54.166 15.2183 54.166 12.733C54.166 10.2478 56.1807 8.23303 58.666 8.23303C61.1513 8.23303 63.166 10.2478 63.166 12.733Z" fill="#F5A524"/>
<path d="M57.166 12.233C57.166 13.233 57.166 13.733 56.166 15.233C54.7853 15.233 55.1657 13.1137 55.1657 11.733C55.1657 10.3523 56.7853 8.73303 58.166 8.73303C59.5467 8.73303 57.666 10.733 57.166 12.233Z" fill="#FFD899"/>
<path d="M56.782 11.0321C56.3678 11.7495 56.5103 12.6073 56.032 12.3311C55.5537 12.055 55.5018 11.2495 55.916 10.5321C56.3302 9.81463 57.0537 9.45689 57.532 9.73303C58.0103 10.0092 57.1963 10.3146 56.782 11.0321Z" fill="#FFF7E9"/>
<g style="mix-blend-mode:soft-light" opacity="0.8">
<path d="M27.7587 2.06359C31.0592 3.25345 31.0954 6.30335 31.1177 6.28157C31.1207 6.31287 33.1959 4.02434 36.3963 5.18095C42.1903 7.27506 39.7162 12.9059 38.093 14.5035C33.8255 18.7053 27.8005 19.8796 26.2137 19.8681C24.9853 18.8632 20.9878 13.9142 20.4986 8.15346C20.306 5.88378 21.9626 -0.0256618 27.7585 2.06359H27.7587Z" fill="white"/>
</g>
<g style="mix-blend-mode:soft-light" opacity="0.8">
<path d="M13.0347 28.2565C13.0347 28.2565 10.1689 27.3334 11.5792 24.0288C11.5792 24.0288 14.718 25.7105 13.0347 28.2565Z" fill="white"/>
<path d="M12.5221 29.1351C12.5221 29.1351 10.6244 30.3146 9.42969 27.9308C9.42969 27.9308 11.8878 26.9606 12.5221 29.1351Z" fill="white"/>
<path d="M12.764 29.8283C12.764 29.8283 13.1772 32.024 10.5225 32.2755C10.5225 32.2755 10.5072 29.6329 12.764 29.8283Z" fill="white"/>
<path d="M14.0555 28.5776C14.0555 28.5776 16.2769 28.3391 15.7509 25.725C15.7509 25.725 13.2165 26.4737 14.0555 28.5776Z" fill="white"/>
<path d="M14.2915 29.2728C14.2915 29.2728 15.3176 31.2579 17.5643 29.8215C17.5643 29.8215 15.9496 27.7295 14.2915 29.2728Z" fill="white"/>
<path d="M13.5533 29.845C13.5533 29.845 12.3326 31.7166 14.6898 32.9626C14.6898 32.9626 15.7133 30.5265 13.5533 29.845Z" fill="white"/>
</g>
<g style="mix-blend-mode:soft-light" opacity="0.8">
<path d="M51.2116 30.9948C51.2116 30.9948 48.1639 30.013 49.6634 26.4985C49.6634 26.4985 53.0014 28.2871 51.2116 30.9948Z" fill="white"/>
<path d="M50.6665 31.9292C50.6665 31.9292 48.6482 33.1837 47.3779 30.6486C47.3779 30.6486 49.992 29.6168 50.6665 31.9292Z" fill="white"/>
<path d="M50.9244 32.6664C50.9244 32.6664 51.3639 35.0018 48.5405 35.2688C48.5405 35.2688 48.5245 32.4586 50.9244 32.6664Z" fill="white"/>
<path d="M52.2972 31.3362C52.2972 31.3362 54.6601 31.0827 54.1002 28.3025C54.1002 28.3025 51.4052 29.0988 52.2972 31.3362Z" fill="white"/>
<path d="M52.5479 32.0757C52.5479 32.0757 53.6394 34.1869 56.0286 32.6594C56.0286 32.6594 54.3113 30.4347 52.5479 32.0757Z" fill="white"/>
<path d="M51.7628 32.6844C51.7628 32.6844 50.4645 34.6748 52.9718 35.9999C52.9718 35.9999 54.0602 33.4091 51.7628 32.6844Z" fill="white"/>
</g>
<g style="mix-blend-mode:soft-light" opacity="0.8">
<path d="M43.693 3.89199C43.693 3.89199 43.1983 0.992023 46.6988 0.720886C46.6988 0.720886 46.6597 4.20013 43.693 3.89199Z" fill="white"/>
<path d="M42.7001 3.84538C42.7001 3.84538 40.821 2.73392 42.3467 0.622009C42.3467 0.622009 44.2977 2.31351 42.7001 3.84538Z" fill="white"/>
<path d="M42.208 4.36826C42.208 4.36826 40.4922 5.71825 39.0752 3.53156C39.0752 3.53156 41.3579 2.3249 42.208 4.36826Z" fill="white"/>
<path d="M43.876 4.92199C43.876 4.92199 45.086 6.73923 47.1133 5.10232C47.1133 5.10232 45.3196 3.24472 43.876 4.92199Z" fill="white"/>
<path d="M43.381 5.44037C43.381 5.44037 42.1247 7.2263 44.3841 8.52377C44.3841 8.52377 45.4671 6.17978 43.381 5.44037Z" fill="white"/>
<path d="M42.551 5.05903C42.551 5.05903 40.378 4.84688 40.3633 7.45217C40.3633 7.45217 42.9365 7.23821 42.551 5.05903Z" fill="white"/>
</g>
<mask id="mask0_6413_63135" style="mask-type:luminance" maskUnits="userSpaceOnUse" x="11" y="-10" width="44" height="44">
<path d="M54.8042 11.7184C54.8042 23.7005 45.0909 33.4138 33.1089 33.4138C21.1269 33.4138 11.4136 23.7005 11.4136 11.7184C11.4136 -0.263558 21.1271 -9.97687 33.1089 -9.97687C45.0906 -9.97687 54.8042 -0.263558 54.8042 11.7184Z" fill="white"/>
</mask>
<g mask="url(#mask0_6413_63135)">
<path d="M23.8147 27.8481V30.5691C23.8147 31.1879 24.1598 31.9763 24.7787 31.9763H30.8073C31.4262 31.9763 31.9278 31.4749 31.9278 30.856C31.9278 30.1758 32.0841 27.8481 32.0841 27.8481H23.8145H23.8147Z" fill="#00001F"/>
<path d="M32.0839 28.8011V18.1851C32.0839 16.1911 30.2498 15.8683 29.1805 15.8683H26.9372C25.8684 15.8683 23.8145 15.7992 23.8145 18.145V28.8008H32.0841L32.0839 28.8011Z" fill="white"/>
<path d="M27.5244 38.5004L27.7723 29.9863H23.8144L23.7456 38.5004H27.5244Z" fill="#00001F"/>
<path d="M32.004 38.5004L32.0853 29.9863H28.0977L28.2187 38.5004H32.004Z" fill="#00001F"/>
<path d="M35.5289 23.635C35.7843 24.1688 35.4932 24.8399 34.879 25.134C34.2643 25.4285 33.5347 25.3128 33.1497 24.3675C32.6571 23.158 31.8939 20.5604 31.2927 19.3874C30.916 18.6519 29.7295 15.897 29.7295 15.897C30.8443 15.8269 32.2574 16.2616 33.0726 17.9091C33.7828 19.3437 35.5287 23.6348 35.5287 23.6348L35.5289 23.635Z" fill="#1F1D40"/>
<path d="M21.4928 10.5547C21.1427 10.0774 20.4137 10.0174 19.8644 10.4202C19.3146 10.823 19.2432 11.3174 19.7989 12.1735C20.565 13.3528 22.932 17.805 23.6823 18.8888C24.1532 19.5682 25.5598 19.3426 25.5598 19.3426C26.0842 18.3383 26.5305 17.4842 25.4628 15.9881C24.5573 14.7193 21.4928 10.555 21.4928 10.555V10.5547Z" fill="#1F1D40"/>
<path d="M30.9405 11.9683C30.9405 13.5556 29.6539 14.8424 28.0667 14.8424C26.4797 14.8424 25.1929 13.5558 25.1929 11.9683V10.5164C25.1929 8.92917 26.4795 7.64282 28.0667 7.64282C29.6539 7.64282 30.9405 8.92943 30.9405 10.5164V11.9683Z" fill="#C88E83"/>
<path d="M25.1931 9.8419C25.1931 9.8419 26.6774 11.1704 29.0276 10.0841C29.462 9.8833 30.1494 9.62225 30.9408 10.098C30.9408 10.098 30.7201 7.40737 28.148 7.47438C27.2018 7.49895 22.8106 7.7525 25.1931 9.84216V9.8419Z" fill="#2D0000"/>
<path d="M26.454 15.8712C25.3478 15.8947 23.6314 16.2282 23.6314 18.2552C23.6314 18.2552 24.2549 26.3632 23.182 30.8538C22.9748 31.7218 26.1609 30.7842 26.6007 29.5995C27.7254 26.5689 26.454 15.8712 26.454 15.8712Z" fill="#1F1D40"/>
<path d="M29.7535 15.9001C29.7535 15.9001 28.0159 26.9495 29.5625 29.8714C30.3545 31.3668 32.5807 31.7267 32.4625 31.0033C31.5686 25.5252 32.2131 18.2051 32.2131 18.2051C32.2131 16.5356 30.7989 16.0179 29.7535 15.9001Z" fill="#1F1D40"/>
<path d="M29.3138 14.2407H26.8208V15.8683H29.3138V14.2407Z" fill="#C88E83"/>
<path d="M28.8887 25.9891L30.8347 18.486L29.7295 15.8973C29.7295 15.8973 28.6827 20.5252 28.8887 25.9891Z" fill="#A6D5EC"/>
<path d="M27.0739 26.1947L25.2026 18.5605L26.474 15.8773C26.474 15.8773 27.3355 21.461 27.0737 26.1947H27.0739Z" fill="#A6D5EC"/>
<path d="M28.1143 15.8711L28.714 16.8097L29.3134 15.8682V15.5332L28.1143 15.8711Z" fill="#A6D5EC"/>
<path d="M28.1135 15.8711L27.5785 16.781L26.8135 15.8682V15.5332L28.1135 15.8711Z" fill="#A6D5EC"/>
<path d="M26.1151 10.006C26.1151 10.006 26.3298 11.1953 25.8015 11.7329C25.2818 12.262 25.8706 13.8156 25.8595 13.8086C25.653 13.6774 25.1053 12.818 25.0099 11.9163C24.7589 9.54287 25.2738 9.40161 25.2738 9.40161L26.1151 10.0062V10.006Z" fill="#2D0000"/>
<path d="M29.7838 9.71672C29.7838 9.71672 29.4868 10.6735 30.3209 11.7236C30.7817 12.3047 30.308 13.7551 30.3209 13.7517C30.4692 13.7131 31.0445 12.9572 31.0445 11.8206C31.0445 9.43368 30.7351 9.48569 30.7351 9.48569L29.7838 9.71646V9.71672Z" fill="#2D0000"/>
<path d="M25.9379 11.8913C25.8456 12.2494 25.9892 12.6018 25.6958 12.5262C25.4024 12.4504 25.2391 12.0988 25.3315 11.7407C25.4233 11.3827 25.7366 11.1537 26.0303 11.2293C26.3237 11.3051 26.0303 11.5332 25.9379 11.8911V11.8913Z" fill="#C88E83"/>
<path d="M30.1527 11.8913C30.2448 12.2494 30.1012 12.6018 30.3948 12.5262C30.6885 12.4504 30.8512 12.0988 30.7594 11.7407C30.6668 11.3827 30.354 11.1537 30.0603 11.2293C29.7669 11.3051 30.0603 11.5332 30.1527 11.8911V11.8913Z" fill="#C88E83"/>
<path d="M43.0226 24.9389C43.8981 24.267 46.6098 24.644 46.5712 25.1855C46.5459 25.5464 44.8792 25.0416 44.8761 25.3813C44.8748 25.5249 45.0585 25.5821 45.4277 25.6657C45.637 25.7133 45.7839 26.0931 44.8611 26.0913C43.8917 26.0892 43.5305 25.9057 42.959 25.6098L43.0226 24.9392V24.9389Z" fill="#C88E83"/>
<path d="M43.4805 24.6036L34.6595 23.0218C33.8991 22.9538 33.3788 23.4366 33.3022 24.0813C33.2251 24.7263 33.7646 25.275 34.5459 25.3769L43.3053 25.9943L43.4805 24.6034V24.6036Z" fill="#1F1D40"/>
<path d="M16.3303 4.5289C16.5225 3.44228 14.9376 1.21032 14.4748 1.49414C14.1661 1.683 15.3829 2.92899 15.083 3.08836C14.9563 3.15588 14.8207 3.01928 14.5762 2.73029C14.4375 2.56626 14.0329 2.61128 14.4603 3.42909C14.9094 4.28829 15.2385 4.52424 15.765 4.89473L16.3303 4.5289Z" fill="#C88E83"/>
<path d="M16.4168 3.96777L21.8894 11.0647C22.3005 11.7081 22.1122 12.3924 21.5754 12.758C21.0383 13.1238 20.3032 12.8979 19.8523 12.2519L15.2637 4.76488L16.4168 3.96777Z" fill="#1F1D40"/>
<path d="M39.0771 30.6204H35.4302V38.5005H39.0771V30.6204Z" fill="#E5A393"/>
<path d="M44.1122 30.6204H40.4653V38.5005H44.1122V30.6204Z" fill="#E5A393"/>
<path d="M45.9743 21.2101C44.1462 16.7337 44.4784 11.9123 44.4784 11.9123C44.4784 9.77139 42.9701 7.60876 39.9043 7.60876C36.6434 7.60876 35.1702 9.77165 35.1702 11.9123C35.1702 11.9123 34.6717 19.4102 33.3421 21.2101C31.6869 23.4503 46.9913 23.7002 45.9743 21.2101Z" fill="#FBCDCC"/>
<path d="M39.6879 8.13284C38.8448 8.16724 36.2692 7.94734 36.1205 11.6938C36.1044 12.0943 35.0465 13.2169 36.3492 14.8546C37.1463 15.8569 36.2703 16.521 35.6695 16.8356C35.069 17.1502 34.112 17.5709 34.8044 20.2033C35.4967 22.8358 33.5457 25.3234 36.7779 25.6951C40.01 26.0669 45.6925 27.1825 44.8108 20.5179C44.8108 20.5179 46.4443 19.2665 44.2507 17.1626C43.7361 16.669 42.8401 15.4851 43.6367 14.8629C44.5081 14.1824 44.1531 11.8421 43.4569 11.2437C42.5669 10.4789 43.371 7.98278 39.6879 8.13309V8.13284Z" fill="#732A12"/>
<path d="M35.6754 29.3873C35.4179 30.6212 35.1551 32.1168 35.9033 32.6958C36.8779 33.4508 41.979 33.6112 43.468 32.6612C44.2542 32.1595 44.2125 30.5112 43.765 29.3066C43.0651 27.4232 36.0748 27.4713 35.6754 29.3873Z" fill="#B8BABC"/>
<path d="M44.0839 30.0145C43.6888 28.8867 42.7279 25.7692 42.7189 24.5426C42.7142 23.8966 43.2925 22.6659 43.36 21.5392C43.4368 20.2562 43.2578 19.0883 43.114 18.8161C42.2555 17.1929 41.6838 16.9153 41.0659 16.9153H38.6345C38.0221 16.9153 36.9355 17.0998 36.1058 18.9592C35.8678 19.4935 35.9997 20.1788 36.0049 21.3932C36.0098 22.5425 36.6046 23.8505 36.6072 24.4593C36.6124 25.8163 35.541 28.8552 35.2906 30.1004C35.1786 30.6566 44.2389 30.4564 44.0834 30.0145H44.0839Z" fill="#E5A393"/>
<path d="M47.771 13.5531C48.2626 13.2504 49.1187 13.6842 49.3528 14.1642C49.6247 14.7214 49.2229 15.4678 48.4778 16.0453C47.3302 16.9343 44.6077 19.2741 43.5311 19.9776C42.8562 20.4187 42.1519 19.9434 41.7757 19.5106C41.0614 18.6878 41.183 17.8235 41.9923 17.299C43.3027 16.4502 47.7713 13.5531 47.7713 13.5531H47.771Z" fill="#E5A393"/>
<path d="M50.4621 6.54765C50.0445 5.63903 50.8248 3.15844 51.3629 3.2953C51.7218 3.38637 50.9117 4.97335 51.253 5.03802C51.3973 5.06545 51.4882 4.89081 51.6387 4.5343C51.7249 4.33198 52.0558 4.26368 51.914 5.19714C51.8061 5.90732 51.5616 6.36292 51.223 6.75695L50.4621 6.5479V6.54765Z" fill="#E5A393"/>
<path d="M50.4947 6.32593C50.4947 6.32593 47.8721 11.728 47.1544 14.0124C46.92 14.7575 47.2507 15.6372 48.1502 15.7275C48.8115 15.7937 49.1683 15.5523 49.4128 14.7842L51.2701 6.53678L50.495 6.32593H50.4947Z" fill="#E5A393"/>
<path d="M24.9465 25.7448C24.1087 25.1987 21.5412 25.6072 21.5971 26.1598C21.6349 26.5282 23.323 25.9593 23.337 26.3062C23.3429 26.4527 23.1569 26.5168 22.782 26.6144C22.5696 26.6695 22.4537 26.9869 23.3978 26.9833C24.116 26.9805 24.6026 26.8053 25.0419 26.5285L24.9467 25.7448H24.9465Z" fill="#E5A393"/>
<path d="M32.346 25.0991C32.0971 25.6197 32.5377 26.1169 33.0399 26.2993C33.6228 26.5112 34.3405 25.9894 34.7162 25.0676C35.1966 23.8881 35.9182 21.7529 36.5047 20.6088C36.8723 19.8911 38.3258 16.9368 38.3258 16.9368C37.2381 16.8683 35.6711 17.2993 34.876 18.9062C34.1832 20.3056 32.3463 25.0991 32.3463 25.0991H32.346Z" fill="#E5A393"/>
<path d="M24.8812 26.55C24.8812 26.55 30.8847 26.6858 33.2605 26.3873C34.0354 26.29 34.698 25.6235 34.4054 24.768C34.1904 24.139 33.9177 23.969 33.1175 24.0666L24.75 25.7578L24.8812 26.55Z" fill="#E5A393"/>
<path d="M42.5254 13.1114C42.5254 14.6596 41.3272 15.9143 39.8502 15.9143C38.3727 15.9143 37.1748 14.6593 37.1748 13.1114V11.6952C37.1748 10.1473 38.3727 8.89221 39.8502 8.89221C41.3272 8.89221 42.5254 10.1473 42.5254 11.6952V13.1114Z" fill="#E5A393"/>
<path d="M40.7488 16.9153C40.7488 16.9153 40.6702 17.427 39.8376 17.427C39.005 17.427 38.9502 16.9153 38.9502 16.9153V15.3281H40.7488V16.9153Z" fill="#E5A393"/>
<path d="M37.1191 12.1467C37.1191 12.1467 39.8819 12.1948 41.1406 10.7643C41.1406 10.7643 41.6319 11.9793 42.7216 12.0856C42.7216 12.0856 43.0807 8.74762 39.8511 8.74762C39.8511 8.74762 36.7297 8.83714 37.1191 12.1464V12.1467Z" fill="#732A12"/>
<path d="M37.4555 12.764C37.4412 13.1526 37.6342 13.5846 37.3194 13.5733C37.0045 13.5616 36.7921 13.135 36.8063 12.7464C36.8206 12.3578 37.0407 12.0471 37.3556 12.0585C37.6702 12.0699 37.4692 12.3754 37.4555 12.764Z" fill="#E5A393"/>
<path d="M42.2743 12.6271C42.2885 13.0159 42.0955 13.448 42.4101 13.4366C42.7247 13.425 42.9374 12.9983 42.9229 12.6097C42.9089 12.2211 42.6882 11.9104 42.3736 11.9218C42.0588 11.9335 42.2598 12.2385 42.274 12.6273L42.2743 12.6271Z" fill="#E5A393"/>
<path d="M33.7251 38.5004H45.7467C45.3803 35.5122 44.9159 32.4839 44.3455 29.8429C43.865 27.6198 42.9882 26.8765 42.9217 25.6517C42.8242 23.8508 43.7013 22.7892 43.7688 21.6623C43.8053 21.0556 43.6927 20.4476 43.5491 19.9462C43.5491 19.9462 42.6418 19.0236 41.0002 19.8784C40.4256 20.1777 40.0055 20.9746 39.9066 20.9746C39.7988 20.9746 39.1046 19.8885 38.0796 19.6031C36.8212 19.2526 35.8104 19.9464 35.8104 19.9464C35.7405 20.3389 35.7001 20.8142 35.7027 21.4142C35.7079 22.5636 36.3513 24.0702 36.3273 25.5547C36.3048 26.9114 35.613 27.2633 34.9649 30.1901C34.449 32.5168 34.0366 35.475 33.7254 38.5007L33.7251 38.5004Z" fill="#45C1C5"/>
<path d="M40.092 17.7434C40.092 17.8645 39.994 17.9626 39.8732 17.9626C39.7523 17.9626 39.6543 17.8645 39.6543 17.7434C39.6543 17.6223 39.7521 17.5243 39.8732 17.5243C39.9943 17.5243 40.092 17.6223 40.092 17.7434Z" fill="#F26B68"/>
<path d="M39.6856 17.7192C39.6856 17.84 39.5875 17.9381 39.4667 17.9381C39.3459 17.9381 39.2476 17.84 39.2476 17.7192C39.2476 17.5984 39.3459 17.5001 39.4667 17.5001C39.5875 17.5001 39.6856 17.5981 39.6856 17.7192Z" fill="#F26B68"/>
<path d="M39.3018 17.5913C39.3018 17.7123 39.2042 17.8101 39.0831 17.8101C38.9621 17.8101 38.8643 17.7121 38.8643 17.5913C38.8643 17.4704 38.9618 17.3721 39.0831 17.3721C39.2045 17.3721 39.3018 17.4702 39.3018 17.5913Z" fill="#F26B68"/>
<path d="M39.0286 17.3663C39.0286 17.4874 38.9305 17.5852 38.8094 17.5852C38.6884 17.5852 38.5908 17.4871 38.5908 17.3663C38.5908 17.2455 38.6884 17.1474 38.8094 17.1474C38.9305 17.1474 39.0286 17.2455 39.0286 17.3663Z" fill="#F26B68"/>
<path d="M38.8515 17.0376C38.8519 16.9165 38.7542 16.8181 38.6333 16.8177C38.5125 16.8174 38.4142 16.9152 38.4138 17.0362C38.4134 17.1572 38.5111 17.2556 38.632 17.256C38.7528 17.2564 38.8511 17.1586 38.8515 17.0376Z" fill="#F26B68"/>
<path d="M40.0386 17.7192C40.0386 17.84 40.1364 17.9381 40.2575 17.9381C40.3785 17.9381 40.4766 17.84 40.4766 17.7192C40.4766 17.5984 40.3783 17.5001 40.2575 17.5001C40.1366 17.5001 40.0386 17.5981 40.0386 17.7192Z" fill="#F26B68"/>
<path d="M40.4209 17.5913C40.4209 17.7123 40.5192 17.8101 40.6398 17.8101C40.7603 17.8101 40.8587 17.7121 40.8587 17.5913C40.8587 17.4704 40.7609 17.3721 40.6398 17.3721C40.5187 17.3721 40.4209 17.4702 40.4209 17.5913Z" fill="#F26B68"/>
<path d="M40.6465 17.3541C40.6465 17.4749 40.7445 17.573 40.8654 17.573C40.9862 17.573 41.084 17.4749 41.084 17.3541C41.084 17.2333 40.9862 17.1349 40.8654 17.1349C40.7445 17.1349 40.6465 17.233 40.6465 17.3541Z" fill="#F26B68"/>
<path d="M40.7983 17.0071C40.7983 17.1282 40.8961 17.2262 41.0172 17.2262C41.1383 17.2262 41.2361 17.1282 41.2361 17.0071C41.2361 16.886 41.1383 16.7882 41.0172 16.7882C40.8961 16.7882 40.7983 16.886 40.7983 17.0071Z" fill="#F26B68"/>
<path d="M36.9966 13.5336C36.9966 13.6547 37.0941 13.7528 37.2152 13.7528C37.3363 13.7528 37.4343 13.6547 37.4343 13.5336C37.4343 13.4126 37.3365 13.3148 37.2152 13.3148C37.0939 13.3148 36.9966 13.4128 36.9966 13.5336Z" fill="#F26B68"/>
<path d="M42.2402 13.5336C42.2402 13.6547 42.3383 13.7528 42.4594 13.7528C42.5804 13.7528 42.6782 13.6547 42.6782 13.5336C42.6782 13.4126 42.5802 13.3148 42.4594 13.3148C42.3385 13.3148 42.2402 13.4128 42.2402 13.5336Z" fill="#F26B68"/>
<path d="M36.1911 26.3573C36.6436 26.8682 42.6296 26.7466 43.0808 26.3573C43.1615 26.2874 42.9615 25.9014 42.9481 25.6517C42.9416 25.5306 43.019 25.3829 42.9416 25.2988C42.7895 25.1348 36.3839 25.2078 36.2982 25.2988C36.24 25.3612 36.3021 25.4693 36.3008 25.5545C36.2962 25.8592 36.0892 26.2416 36.1914 26.3575L36.1911 26.3573Z" fill="#F26B68"/>
</g>
<path d="M14.4447 8.70771C14.4178 8.69297 13.7418 8.94496 13.0171 8.53981C12.3279 8.12301 11.59 7.04933 12.2516 4.11573C12.3789 4.06088 15.3769 4.56538 14.4447 8.70771Z" fill="#67BD45"/>
<path d="M14.4147 8.76595C14.4054 8.76388 14.3966 8.75793 14.3904 8.7481C13.6406 7.61518 12.9892 6.3503 12.4691 4.96176C12.4562 4.92761 12.4704 4.87121 12.501 4.83654C12.531 4.80162 12.5664 4.80136 12.5791 4.83551C13.0901 6.22741 13.7335 7.49539 14.4758 8.63194C14.4941 8.65988 14.4897 8.70826 14.4664 8.74034C14.4514 8.76104 14.4318 8.76983 14.415 8.76595H14.4147Z" fill="#1F1D40"/>
<path d="M14.7212 7.70368C14.7877 7.82502 16.6988 9.54006 19.1494 6.06393C19.2239 6.1374 16.4543 3.63146 14.7212 7.70368Z" fill="#67BD45"/>
<path d="M14.7183 7.76932C14.7014 7.76466 14.6893 7.74707 14.6862 7.72146C14.6815 7.68161 14.7033 7.6366 14.733 7.62159C15.956 7.0017 17.2066 6.51894 18.4572 6.17562C18.4883 6.16734 18.5131 6.18959 18.5137 6.22581C18.5137 6.26203 18.4893 6.29799 18.4588 6.30653C17.2123 6.6545 15.9661 7.14141 14.7485 7.76544C14.7377 7.77087 14.7273 7.77191 14.7185 7.76932H14.7183Z" fill="#1F1D40"/>
<path d="M13.9035 12.6186C13.8763 12.6072 13.2601 12.9774 12.4707 12.7262C11.7119 12.4597 10.7797 11.5718 10.818 8.69665C10.9249 8.63016 13.9796 8.529 13.9035 12.6188V12.6186Z" fill="#67BD45"/>
<path d="M13.886 12.6794C13.8767 12.6791 13.8669 12.675 13.8586 12.667C12.8982 11.7317 12.0039 10.658 11.207 9.45007C11.1876 9.42032 11.1899 9.36495 11.2122 9.32666C11.2344 9.28837 11.2681 9.28164 11.288 9.31139C12.0771 10.5232 12.9647 11.6013 13.9191 12.5407C13.9424 12.5637 13.9481 12.6108 13.9316 12.6452C13.921 12.6677 13.9034 12.6799 13.8863 12.6791L13.886 12.6794Z" fill="#1F1D40"/>
<path d="M13.9736 11.6155C14.0569 11.7262 16.2956 12.9668 17.9638 9.26193C18.0453 9.32505 14.8328 7.4628 13.9736 11.6155Z" fill="#67BD45"/>
<path d="M13.9841 11.6786C13.9665 11.6773 13.9507 11.6631 13.9427 11.6393C13.9306 11.6026 13.9427 11.5562 13.9686 11.5361C15.0407 10.7229 16.1638 10.0396 17.312 9.49168C17.3402 9.47822 17.3697 9.49478 17.3775 9.52867C17.385 9.56231 17.3687 9.60034 17.3405 9.61379C16.1967 10.1659 15.079 10.8528 14.0123 11.6696C14.0033 11.6765 13.9932 11.6797 13.9841 11.6786Z" fill="#1F1D40"/>
<path d="M14.1333 16.4596C14.1057 16.4519 13.5686 16.9287 12.7474 16.834C11.9518 16.7209 10.8717 16.0361 10.3457 13.2867C10.4334 13.2096 13.4226 12.5199 14.1333 16.4596Z" fill="#67BD45"/>
<path d="M14.1271 16.5218C14.1178 16.5233 14.108 16.5213 14.0982 16.5151C12.9779 15.7958 11.8939 14.9343 10.8753 13.9318C10.8502 13.9072 10.8417 13.8539 10.8562 13.8133C10.8707 13.7726 10.9027 13.7597 10.9273 13.7845C11.9392 14.7915 13.0178 15.6577 14.1331 16.3818C14.1608 16.3997 14.175 16.4436 14.1652 16.4801C14.1592 16.5037 14.144 16.5187 14.1269 16.5215L14.1271 16.5218Z" fill="#1F1D40"/>
<path d="M14.0098 15.4825C14.1083 15.5795 16.5574 16.3269 17.4629 12.4865C17.5506 12.5383 14.0457 11.35 14.0098 15.4825Z" fill="#67BD45"/>
<path d="M14.033 15.541C14.016 15.5428 13.9976 15.5324 13.9854 15.511C13.9663 15.4781 13.9691 15.4313 13.9909 15.4072C14.8865 14.4249 15.8549 13.5618 16.8714 12.8265C16.896 12.8084 16.9286 12.8185 16.9426 12.849C16.9571 12.8795 16.9488 12.9189 16.9237 12.937C15.9118 13.6756 14.9494 14.5415 14.0597 15.527C14.0517 15.5355 14.0426 15.5399 14.033 15.541Z" fill="#1F1D40"/>
<path d="M15.0768 20.1371C15.1536 19.9964 12.9648 22.7613 10.7681 17.7766C10.8366 17.6904 13.6492 16.4439 15.0768 20.1371Z" fill="#67BD45"/>
<path d="M15.0822 20.1984C15.0731 20.2018 15.0633 20.2015 15.0522 20.1974C13.8201 19.7079 12.5972 19.0759 11.4091 18.2989C11.3796 18.2798 11.3615 18.2301 11.368 18.1879C11.3745 18.1458 11.4037 18.1274 11.4327 18.1466C12.615 18.9287 13.8341 19.5661 15.0625 20.0611C15.0925 20.0735 15.1148 20.1136 15.1122 20.1508C15.1104 20.1752 15.0987 20.1925 15.0822 20.1982V20.1984Z" fill="#1F1D40"/>
<path d="M14.7748 19.2102C14.8869 19.2909 17.4378 19.5395 17.6024 15.6603C17.6955 15.6989 14.0383 15.2003 14.7748 19.2102Z" fill="#67BD45"/>
<path d="M14.8077 19.2628C14.7914 19.2677 14.771 19.2612 14.7549 19.2423C14.7303 19.2139 14.7239 19.1683 14.7412 19.1407C15.4385 18.0176 16.227 16.9998 17.0849 16.0997C17.1067 16.0774 17.1395 16.0813 17.1594 16.108C17.1796 16.1346 17.1786 16.1739 17.1574 16.1962C16.3046 17.0991 15.5218 18.1187 14.8307 19.2439C14.8243 19.2537 14.8165 19.2602 14.8074 19.2628H14.8077Z" fill="#1F1D40"/>
<path d="M16.6754 23.5565C16.7248 23.4088 15.0842 26.516 12.0161 22.0537C12.0671 21.9603 14.5999 20.2043 16.6754 23.5565Z" fill="#67BD45"/>
<path d="M16.6924 23.6159C16.6841 23.6208 16.674 23.6224 16.6627 23.6203C15.3647 23.3693 14.0488 22.9789 12.7413 22.4434C12.7092 22.4302 12.6823 22.3849 12.6807 22.3427C12.6792 22.3003 12.7045 22.2768 12.7364 22.2902C14.04 22.8317 15.3523 23.2281 16.6477 23.485C16.6795 23.4912 16.7087 23.5264 16.7129 23.5636C16.7157 23.588 16.7074 23.6068 16.6924 23.6159Z" fill="#1F1D40"/>
<path d="M16.2103 22.7036C16.3342 22.7654 18.8844 22.5209 18.3336 18.7056C18.4309 18.7292 14.754 18.9209 16.2103 22.7036Z" fill="#67BD45"/>
<path d="M16.2517 22.7492C16.2365 22.7575 16.2158 22.7546 16.1966 22.7394C16.1671 22.7161 16.1524 22.6723 16.1643 22.6421C16.6429 21.4116 17.2302 20.2694 17.9065 19.2306C17.9233 19.205 17.9567 19.2027 17.981 19.2247C18.0053 19.2469 18.0121 19.2852 17.9952 19.3111C17.3246 20.3514 16.743 21.4949 16.2709 22.7264C16.267 22.737 16.26 22.7448 16.2517 22.7492Z" fill="#1F1D40"/>
<path d="M18.8736 26.6235C18.8966 26.4716 17.8545 29.8282 14.0244 26.0083C14.0583 25.9089 16.2178 23.7062 18.8736 26.6235Z" fill="#67BD45"/>
<path d="M18.9007 26.6791C18.8937 26.6853 18.8844 26.6889 18.8728 26.6889C17.551 26.6814 16.1878 26.5402 14.8068 26.2569C14.7729 26.2499 14.738 26.2106 14.7286 26.1692C14.7198 26.1278 14.7398 26.1004 14.7739 26.1073C16.1521 26.3974 17.513 26.5448 18.8327 26.5586C18.8653 26.5586 18.9002 26.588 18.9111 26.6243C18.9186 26.6476 18.9134 26.668 18.9005 26.6794L18.9007 26.6791Z" fill="#1F1D40"/>
<path d="M18.2583 25.8696C18.3921 25.9094 20.8473 25.1905 19.6086 21.5446C19.7085 21.5521 16.1343 22.4183 18.2583 25.8696Z" fill="#67BD45"/>
<path d="M18.3087 25.9065C18.2953 25.9171 18.2746 25.9184 18.2529 25.907C18.2195 25.8894 18.197 25.8493 18.2032 25.8173C18.4461 24.5169 18.813 23.2847 19.2869 22.1393C19.2989 22.1111 19.3309 22.1023 19.3586 22.1197C19.3868 22.137 19.4 22.1737 19.3886 22.2019C18.9206 23.3483 18.5597 24.5808 18.3232 25.8806C18.3212 25.8923 18.316 25.9008 18.3085 25.9068L18.3087 25.9065Z" fill="#1F1D40"/>
<path d="M21.6133 29.244C21.6118 29.0903 21.2095 32.5926 16.7246 29.5296C16.743 29.4261 18.4443 26.8542 21.6133 29.244Z" fill="#67BD45"/>
<path d="M21.6504 29.2937C21.6447 29.3012 21.6362 29.3066 21.6243 29.3084C20.3196 29.5438 18.9507 29.6551 17.5399 29.63C17.5047 29.6292 17.4633 29.5971 17.4468 29.5578C17.4302 29.5185 17.4447 29.4874 17.4796 29.4882C18.8886 29.5203 20.2557 29.4155 21.5604 29.1865C21.5922 29.1809 21.6328 29.2034 21.6504 29.2367C21.6621 29.2587 21.6613 29.2797 21.6504 29.2931V29.2937Z" fill="#1F1D40"/>
<path d="M20.8636 28.613C21.0061 28.6287 23.2787 27.4655 21.3818 24.0991C21.4845 24.089 18.1256 25.5997 20.8636 28.613Z" fill="#67BD45"/>
<path d="M20.9192 28.6403C20.9078 28.6535 20.8873 28.6584 20.8638 28.6512C20.8278 28.6401 20.7986 28.6041 20.7986 28.5715C20.7916 27.244 20.9225 25.961 21.1753 24.7448C21.1812 24.7148 21.2115 24.7001 21.2423 24.7122C21.2728 24.7239 21.293 24.7575 21.2871 24.7875C21.04 26.0037 20.9153 27.2859 20.9287 28.6119C20.929 28.6235 20.9254 28.6331 20.9192 28.6403Z" fill="#1F1D40"/>
<path d="M25.0503 31.316C25.0249 31.1639 25.3248 34.6879 20.2847 32.5506C20.2873 32.4443 21.4329 29.5877 25.0503 31.316Z" fill="#67BD45"/>
<path d="M25.0979 31.3574C25.0937 31.366 25.0862 31.373 25.0753 31.3771C23.8309 31.8643 22.5024 32.2407 21.1076 32.4906C21.073 32.4968 21.0256 32.473 21.0016 32.4378C20.9775 32.4027 20.9858 32.3693 21.0199 32.3631C22.4134 32.1204 23.7422 31.7507 24.9866 31.27C25.0174 31.2584 25.0616 31.2726 25.0862 31.3018C25.102 31.321 25.1059 31.3417 25.0979 31.3572V31.3574Z" fill="#1F1D40"/>
<path d="M24.1808 30.8426C24.3299 30.8301 26.321 29.2424 23.7884 26.3065C23.8924 26.2765 20.8755 28.4153 24.1808 30.8426Z" fill="#67BD45"/>
<path d="M24.2406 30.8586C24.2321 30.8736 24.213 30.8824 24.1881 30.8801C24.1504 30.876 24.1144 30.8467 24.1071 30.8149C23.8308 29.5115 23.7033 28.2251 23.7118 26.9812C23.7118 26.9507 23.7387 26.9303 23.7713 26.9359C23.8037 26.9414 23.8298 26.9709 23.8298 27.0014C23.8275 28.2443 23.9612 29.5286 24.2445 30.8291C24.2469 30.8405 24.2456 30.8506 24.2409 30.8589L24.2406 30.8586Z" fill="#1F1D40"/>
<path d="M28.7786 32.7774C28.732 32.6289 29.7519 36.0437 24.2536 34.9025C24.242 34.7946 24.771 31.773 28.7786 32.7774Z" fill="#67BD45"/>
<path d="M28.8364 32.8091C28.8341 32.8182 28.8276 32.8265 28.8175 32.8327C27.6639 33.5519 26.4071 34.1765 25.0646 34.6874C25.0315 34.6999 24.9789 34.6859 24.9474 34.6556C24.9161 34.6256 24.9174 34.5909 24.951 34.5785C26.2935 34.0751 27.5506 33.4572 28.7055 32.7447C28.734 32.7274 28.7818 32.7326 28.8129 32.7566C28.8328 32.7724 28.8411 32.7921 28.8364 32.8089V32.8091Z" fill="#1F1D40"/>
<path d="M27.915 32.6265C28.0699 32.5814 29.7084 30.6385 26.5257 28.2399C26.6304 28.1874 24.0544 30.8892 27.915 32.6265Z" fill="#67BD45"/>
<path d="M27.9803 32.6301C27.9754 32.6467 27.958 32.6591 27.9327 32.6614C27.8931 32.665 27.8499 32.6436 27.8359 32.6136C27.267 31.388 26.8575 30.1469 26.5964 28.9193C26.5897 28.8891 26.6122 28.864 26.6461 28.8632C26.68 28.8624 26.7126 28.8862 26.7193 28.9162C26.9866 30.1412 27.4021 31.379 27.9772 32.6001C27.9824 32.611 27.9831 32.6208 27.98 32.6299L27.9803 32.6301Z" fill="#1F1D40"/>
<path d="M33.7004 33.5074C33.6994 33.5651 33.6236 33.6103 33.5322 33.6078C19.3659 33.2225 10.1317 18.8427 15.2435 5.9596C15.2771 5.87603 15.3475 5.82636 15.401 5.84783C15.4548 5.86931 15.4709 5.95365 15.4383 6.03592C10.3785 18.7863 19.518 33.0179 33.5379 33.399C33.6287 33.4013 33.7014 33.4494 33.7007 33.5071L33.7004 33.5074Z" fill="#1F1D40"/>
<path d="M12.4981 15.6075C13.2641 16.0243 13.7348 14.7268 13.7873 13.8777C14.0607 14.6823 14.8716 15.8279 15.5023 15.2153C16.3054 14.434 14.8309 13.5742 14.217 13.2653C15.0325 13.3334 16.6412 12.9303 16.2293 12.0724C15.7124 10.9956 14.2879 12.3445 13.8866 12.7575C14.134 12.1883 14.7963 10.4404 13.63 10.3648C12.6474 10.3012 12.9255 12.0623 13.3143 12.7497C12.6569 12.3117 10.9199 11.9068 10.9121 12.8917C10.9033 14.0598 12.6934 13.5266 13.2797 13.321C12.8236 13.7246 11.4655 15.0458 12.4981 15.6075Z" fill="#F06395"/>
<path d="M12.9458 14.74C13.435 15.0062 13.7351 14.1778 13.7685 13.6355C13.9434 14.1496 14.4611 14.881 14.8631 14.4898C15.3764 13.9908 14.4305 13.4544 14.0375 13.2299C14.5762 13.2482 15.5909 13.0312 15.3278 12.4832C14.9979 11.7958 14.0549 12.6584 13.799 12.922C13.9566 12.5587 14.4124 11.4411 13.6678 11.393C13.0407 11.3526 13.2182 12.4767 13.4668 12.9158C13.0474 12.6358 11.9378 12.3776 11.9331 13.0063C11.9274 13.7522 13.0249 13.352 13.4101 13.2555C13.1649 13.5558 12.2863 14.3814 12.9455 14.7403L12.9458 14.74Z" fill="#6C297B"/>
<path d="M16.4301 26.3042C17.041 26.6364 17.4156 25.6021 17.4575 24.9253C17.6761 25.5666 18.3219 26.4799 18.8246 25.9917C19.4649 25.3687 18.2895 24.6836 17.8001 24.4373C18.4505 24.4917 19.7329 24.1703 19.4044 23.4865C18.9922 22.6281 17.8567 23.7036 17.5367 24.0327C17.7341 23.5789 18.2619 22.1857 17.3323 22.1254C16.5491 22.0747 16.7706 23.4783 17.0808 24.0267C16.5567 23.6775 15.172 23.3546 15.166 24.1398C15.1588 25.0707 16.5859 24.6456 17.0529 24.4818C16.6896 24.8034 15.6069 25.8567 16.4301 26.3045V26.3042Z" fill="#F06395"/>
<path d="M16.7865 25.6124C17.1766 25.8248 17.4159 25.1645 17.4426 24.7322C17.582 25.142 17.9947 25.7249 18.3155 25.4129C18.7243 25.0152 17.9704 24.5876 17.6571 24.4085C18.0863 24.4233 18.8953 24.2502 18.6855 23.8135C18.4224 23.2655 17.6708 23.9532 17.4664 24.1633C17.5924 23.8735 17.9556 22.9827 17.3621 22.9445C16.8623 22.9121 17.0038 23.8083 17.2017 24.1581C16.8672 23.9351 15.9829 23.7291 15.979 24.2305C15.9744 24.8251 16.8496 24.5061 17.1562 24.4292C16.9611 24.6683 16.2602 25.3267 16.786 25.6124H16.7865Z" fill="#6C297B"/>
<path d="M24.6356 34.0484C25.3895 34.4582 25.852 33.1816 25.9038 32.3462C26.1731 33.1379 26.9705 34.2649 27.5909 33.6623C28.3813 32.8937 26.9306 32.0477 26.3265 31.7437C27.1291 31.8104 28.7119 31.4138 28.307 30.5699C27.7979 29.5104 26.3964 30.8377 26.0013 31.2439C26.2448 30.684 26.8965 28.964 25.7491 28.8895C24.7822 28.8272 25.0557 30.5595 25.4386 31.2361C24.7921 30.8051 23.0825 30.4066 23.0752 31.3758C23.0664 32.5253 24.8275 32.0003 25.4045 31.7983C24.9558 32.1954 23.6198 33.4955 24.6358 34.0481L24.6356 34.0484Z" fill="#F06395"/>
<path d="M25.0762 33.1944C25.5571 33.4567 25.8528 32.6415 25.886 32.1077C26.0577 32.6135 26.5669 33.333 26.9633 32.9481C27.468 32.457 26.5371 31.9295 26.1506 31.7083C26.6805 31.7264 27.6789 31.5127 27.4202 30.9738C27.0955 30.2972 26.1674 31.1463 25.9154 31.4056C26.0709 31.048 26.5196 29.9485 25.7869 29.9011C25.1701 29.8613 25.3442 30.9673 25.5887 31.3994C25.176 31.1241 24.0848 30.8698 24.0801 31.4886C24.0742 32.2226 25.1543 31.8286 25.5331 31.7339C25.2919 32.0291 24.4276 32.8417 25.0762 33.1944Z" fill="#6C297B"/>
<path d="M52.322 8.58246C52.3487 8.56771 53.026 8.81556 53.7484 8.40601C54.4352 7.98534 55.1666 6.907 54.4878 3.97754C54.3602 3.92346 51.3653 4.44582 52.322 8.58246Z" fill="#67BD45"/>
<path d="M52.3521 8.64077C52.3614 8.63844 52.3697 8.63249 52.3762 8.62266C53.119 7.48534 53.7632 6.21684 54.2752 4.8252C54.2876 4.79105 54.2731 4.7349 54.2426 4.70024C54.212 4.66557 54.1769 4.66531 54.1647 4.69972C53.662 6.09473 53.0258 7.36633 52.2903 8.50727C52.2722 8.53521 52.2771 8.58385 52.3004 8.61568C52.3156 8.63637 52.3356 8.64517 52.3521 8.64103V8.64077Z" fill="#1F1D40"/>
<path d="M52.0389 7.57996C51.9731 7.70156 50.0721 9.42798 47.6011 5.96633C47.5271 6.04007 50.2816 3.51783 52.0389 7.57996Z" fill="#67BD45"/>
<path d="M52.042 7.64604C52.0588 7.64113 52.0712 7.62379 52.0738 7.59792C52.0779 7.55834 52.0565 7.51332 52.0262 7.49832C50.7996 6.88567 49.5461 6.41041 48.2934 6.07433C48.2624 6.06605 48.2378 6.08882 48.2378 6.12504C48.2378 6.16126 48.2626 6.19696 48.2932 6.20524C49.542 6.54597 50.7906 7.02538 52.012 7.64242C52.0228 7.64786 52.0329 7.64889 52.042 7.64604Z" fill="#1F1D40"/>
<path d="M52.8852 12.49C52.9126 12.4784 53.531 12.845 54.3188 12.5891C55.0763 12.3182 56.003 11.4246 55.9476 8.55C55.8405 8.48402 52.7856 8.40072 52.8852 12.49Z" fill="#67BD45"/>
<path d="M52.9031 12.5507C52.9129 12.5502 52.9225 12.5461 52.9305 12.5381C53.8857 11.5971 54.7734 10.5183 55.563 9.30539C55.5824 9.27538 55.5798 9.22027 55.557 9.18198C55.5345 9.14369 55.5004 9.13722 55.481 9.16723C54.6994 10.3837 53.8182 11.467 52.8695 12.4121C52.8459 12.4354 52.8408 12.4822 52.8573 12.5169C52.8682 12.5394 52.886 12.5515 52.9028 12.5505L52.9031 12.5507Z" fill="#1F1D40"/>
<path d="M52.8096 11.4876C52.7271 11.5986 50.4959 12.8524 48.8057 9.15735C48.7245 9.221 51.9259 7.33986 52.8096 11.4876Z" fill="#67BD45"/>
<path d="M52.8 11.5508C52.8173 11.5495 52.8331 11.535 52.8409 11.5112C52.8528 11.4742 52.8409 11.4282 52.8145 11.4083C51.7375 10.6016 50.6105 9.92503 49.4592 9.38379C49.431 9.37034 49.4017 9.38716 49.394 9.42079C49.3862 9.45468 49.403 9.49246 49.4312 9.50591C50.5784 10.051 51.7002 10.7315 52.7715 11.542C52.7809 11.549 52.7909 11.5521 52.8003 11.5511L52.8 11.5508Z" fill="#1F1D40"/>
<path d="M52.6777 16.3326C52.7052 16.3246 53.2454 16.7983 54.0655 16.6987C54.8608 16.581 55.9365 15.8899 56.4462 13.1377C56.3585 13.0609 53.3649 12.3887 52.6777 16.3329V16.3326Z" fill="#67BD45"/>
<path d="M52.6841 16.3947C52.6934 16.396 52.7035 16.394 52.7131 16.3878C53.8292 15.6618 54.9081 14.7941 55.9204 13.7856C55.9453 13.7607 55.9538 13.7074 55.9391 13.6668C55.9243 13.6262 55.892 13.6135 55.8671 13.6386C54.8612 14.6518 53.7886 15.5244 52.6769 16.255C52.65 16.2731 52.6357 16.3171 52.6458 16.3536C52.6518 16.3772 52.667 16.3919 52.6841 16.3947Z" fill="#1F1D40"/>
<path d="M52.7958 15.3548C52.6978 15.4523 50.2526 16.2142 49.3248 12.3792C49.2377 12.4315 52.7353 11.2225 52.7958 15.3548Z" fill="#67BD45"/>
<path d="M52.7734 15.4131C52.7908 15.4152 52.8092 15.4043 52.8213 15.3829C52.8399 15.3498 52.8374 15.3032 52.8148 15.2791C51.9135 14.3019 50.9404 13.4446 49.9193 12.7152C49.8942 12.6974 49.8621 12.7077 49.8481 12.7383C49.8339 12.7688 49.8427 12.8081 49.8675 12.8262C50.8835 13.5587 51.8511 14.4191 52.7471 15.3992C52.7551 15.4077 52.7639 15.4121 52.7734 15.4131Z" fill="#1F1D40"/>
<path d="M51.7569 20.0155C51.679 19.8752 53.8841 22.627 56.0513 17.6293C55.9823 17.5437 53.1622 16.3137 51.7569 20.0155Z" fill="#67BD45"/>
<path d="M51.7522 20.0771C51.7613 20.0802 51.7711 20.0799 51.782 20.0758C53.0112 19.579 54.231 18.9397 55.4139 18.1558C55.4431 18.1367 55.4612 18.0865 55.4542 18.0446C55.4475 18.0027 55.4183 17.9843 55.3893 18.0037C54.2116 18.7928 52.9967 19.4373 51.7711 19.9394C51.7409 19.9519 51.7189 19.9925 51.722 20.0297C51.7238 20.054 51.7357 20.0711 51.7522 20.0768V20.0771Z" fill="#1F1D40"/>
<path d="M52.0531 19.0865C51.9418 19.168 49.3922 19.4317 49.2049 15.5537C49.112 15.5928 52.7661 15.0728 52.0531 19.0865Z" fill="#67BD45"/>
<path d="M52.0204 19.1395C52.0367 19.1441 52.0569 19.1377 52.0727 19.1188C52.0973 19.0901 52.1035 19.0443 52.0859 19.0168C51.3822 17.8979 50.5877 16.8848 49.7241 15.9896C49.7028 15.9676 49.6692 15.9715 49.6495 15.9984C49.6296 16.025 49.6307 16.0644 49.6519 16.0866C50.5103 16.9846 51.2991 17.9998 51.9966 19.1206C52.0028 19.1304 52.0109 19.1366 52.0202 19.1395H52.0204Z" fill="#1F1D40"/>
<path d="M50.1784 23.4441C50.1282 23.2967 51.7871 26.3943 54.8285 21.9141C54.7773 21.8207 52.2341 20.08 50.1784 23.4441Z" fill="#67BD45"/>
<path d="M50.1624 23.5036C50.1704 23.5085 50.1805 23.51 50.1919 23.508C51.4883 23.2492 52.8018 22.8513 54.106 22.308C54.1378 22.2946 54.1653 22.2493 54.166 22.2071C54.1673 22.1647 54.142 22.1414 54.1099 22.1549C52.8093 22.7041 51.4997 23.108 50.2058 23.3724C50.174 23.3789 50.1453 23.4143 50.1412 23.4518C50.1383 23.4759 50.1471 23.4948 50.1624 23.5036Z" fill="#1F1D40"/>
<path d="M50.6384 22.5887C50.515 22.6511 47.9635 22.4216 48.4918 18.6031C48.3946 18.6275 52.0725 18.7972 50.6384 22.5887Z" fill="#67BD45"/>
<path d="M50.5969 22.6343C50.6119 22.6423 50.6329 22.6395 50.6518 22.6242C50.6813 22.6007 50.6955 22.5569 50.6836 22.5267C50.1977 21.299 49.604 20.1602 48.9212 19.1256C48.9041 19.0999 48.8707 19.0976 48.8467 19.1201C48.8218 19.1426 48.8162 19.1812 48.8325 19.2065C49.5098 20.243 50.0976 21.3831 50.577 22.6118C50.5811 22.6224 50.5879 22.6299 50.5964 22.6343H50.5969Z" fill="#1F1D40"/>
<path d="M47.9984 26.5241C47.9744 26.3722 49.0364 29.7229 52.844 25.8807C52.8093 25.7813 50.6371 23.5915 47.9984 26.5241Z" fill="#67BD45"/>
<path d="M47.9713 26.58C47.9785 26.5859 47.9879 26.5896 47.9998 26.5896C49.321 26.5743 50.6832 26.425 52.0629 26.1337C52.0966 26.1262 52.1317 26.0869 52.1405 26.0455C52.1493 26.0038 52.1286 25.9767 52.0947 25.9839C50.7184 26.2819 49.3585 26.4372 48.0388 26.4589C48.0062 26.4594 47.9716 26.4889 47.9607 26.5249C47.9537 26.5484 47.9586 26.5689 47.9718 26.58H47.9713Z" fill="#1F1D40"/>
<path d="M48.6082 25.7666C48.4747 25.8072 46.0153 25.1029 47.2329 21.4496C47.1327 21.4579 50.7124 22.3028 48.6082 25.7666Z" fill="#67BD45"/>
<path d="M48.5596 25.8038C48.5736 25.8147 48.5943 25.8157 48.6155 25.8038C48.6489 25.786 48.6711 25.7459 48.6647 25.7138C48.414 24.415 48.0399 23.1851 47.5594 22.0423C47.5475 22.0141 47.5152 22.0059 47.4872 22.0232C47.4593 22.0405 47.4464 22.0773 47.4577 22.1055C47.9322 23.249 48.3006 24.4795 48.5446 25.778C48.5469 25.7893 48.5521 25.7979 48.5594 25.8038H48.5596Z" fill="#1F1D40"/>
<path d="M45.2754 29.161C45.2759 29.0073 45.6987 32.507 50.1659 29.4176C50.1468 29.3142 48.4302 26.7523 45.2754 29.161Z" fill="#67BD45"/>
<path d="M45.2374 29.2109C45.243 29.2184 45.2521 29.2236 45.2632 29.2256C46.5698 29.4533 47.9389 29.5565 49.3499 29.5229C49.3846 29.5221 49.426 29.4895 49.4428 29.4505C49.4589 29.4109 49.4441 29.3801 49.4092 29.3811C48.0005 29.4215 46.6324 29.3247 45.3266 29.1035C45.2943 29.0981 45.2544 29.1209 45.2371 29.1542C45.2257 29.1762 45.2268 29.1972 45.2376 29.2106L45.2374 29.2109Z" fill="#1F1D40"/>
<path d="M46.0201 28.5253C45.8778 28.5419 43.598 27.3921 45.4752 24.0148C45.3722 24.0052 48.7402 25.496 46.0201 28.5253Z" fill="#67BD45"/>
<path d="M45.9648 28.5532C45.9764 28.5662 45.9971 28.5711 46.0202 28.5636C46.0564 28.5522 46.0854 28.5162 46.0856 28.4836C46.0843 27.1559 45.9462 25.874 45.6859 24.659C45.6794 24.629 45.6492 24.6145 45.6186 24.6267C45.5878 24.6386 45.5682 24.6725 45.5744 24.7025C45.8284 25.9172 45.9604 27.1986 45.955 28.5248C45.955 28.5364 45.9583 28.546 45.9645 28.553L45.9648 28.5532Z" fill="#1F1D40"/>
<path d="M41.8496 31.2533C41.8742 31.1009 41.595 34.6267 46.6222 32.4594C46.6193 32.3534 45.4567 29.5033 41.8496 31.2533Z" fill="#67BD45"/>
<path d="M41.8022 31.2949C41.8063 31.3032 41.8138 31.3102 41.825 31.3143C43.072 31.7943 44.4031 32.1627 45.7989 32.4043C45.8335 32.4103 45.8809 32.3865 45.9044 32.3508C45.9285 32.3156 45.9202 32.2822 45.8858 32.2765C44.4908 32.0421 43.1602 31.6802 41.9132 31.207C41.8824 31.1953 41.8382 31.2098 41.8138 31.2396C41.7981 31.2584 41.7944 31.2794 41.8025 31.2949H41.8022Z" fill="#1F1D40"/>
<path d="M42.7162 30.7745C42.5671 30.7629 40.5665 29.1873 43.082 26.2361C42.9777 26.2071 46.0073 28.3278 42.7162 30.7745Z" fill="#67BD45"/>
<path d="M42.656 30.7908C42.6648 30.8058 42.6837 30.8146 42.7085 30.812C42.7463 30.8079 42.7825 30.7784 42.7892 30.7463C43.058 29.4414 43.1778 28.1542 43.1621 26.9101C43.1618 26.8795 43.1349 26.8593 43.1023 26.8653C43.0697 26.871 43.0436 26.9005 43.0441 26.931C43.0539 28.1739 42.9277 29.4589 42.6524 30.7613C42.6503 30.7727 42.6513 30.7828 42.6563 30.7908H42.656Z" fill="#1F1D40"/>
<path d="M38.1295 32.7365C38.1753 32.5877 37.1751 36.0085 42.6666 34.8347C42.6777 34.727 42.1311 31.7083 38.1295 32.7365Z" fill="#67BD45"/>
<path d="M38.0731 32.7682C38.0759 32.7776 38.0816 32.7856 38.0917 32.7918C39.25 33.5043 40.51 34.1213 41.8558 34.6243C41.8889 34.6364 41.9414 34.622 41.9727 34.5917C42.004 34.5614 42.0028 34.527 41.9691 34.5146C40.6235 34.0189 39.3625 33.4088 38.2037 32.703C38.175 32.6855 38.1274 32.6911 38.0964 32.7155C38.0762 32.7312 38.0684 32.7509 38.0731 32.7677V32.7682Z" fill="#1F1D40"/>
<path d="M38.9925 32.5803C38.8375 32.5363 37.1877 30.6029 40.3562 28.1857C40.2509 28.1339 42.8427 30.8205 38.9925 32.5803Z" fill="#67BD45"/>
<path d="M38.9275 32.5845C38.9332 32.6011 38.95 32.6132 38.9757 32.6156C39.015 32.6192 39.0582 32.5972 39.0722 32.5669C39.6336 31.338 40.0356 30.0949 40.2897 28.8654C40.2959 28.8352 40.2737 28.8103 40.2398 28.8098C40.2059 28.8093 40.1733 28.8331 40.1671 28.8634C39.907 30.09 39.4985 31.33 38.9304 32.5548C38.9255 32.5656 38.9244 32.5757 38.9275 32.5848V32.5845Z" fill="#1F1D40"/>
<path d="M33.2129 33.4955C33.2142 33.5532 33.29 33.598 33.3819 33.5951C47.5454 33.1263 56.6949 18.6922 51.5069 5.83962C51.473 5.75631 51.4021 5.7069 51.3485 5.72863C51.2955 5.75036 51.2797 5.83496 51.3128 5.91724C56.4473 18.6374 47.3925 32.9227 33.3746 33.3866C33.2841 33.3897 33.2114 33.4381 33.2129 33.4958V33.4955Z" fill="#1F1D40"/>
<path d="M53.5141 13.189C54.1016 13.3911 55.8948 13.9139 55.879 12.7461C55.8656 11.7611 54.1309 12.1761 53.4761 12.6183C53.8613 11.9283 54.1285 10.1656 53.1465 10.2352C51.9809 10.3175 52.6533 12.0615 52.9038 12.6294C52.5004 12.2191 51.0682 10.8784 50.5575 11.958C50.1505 12.8183 51.7618 13.2118 52.5768 13.1393C51.9649 13.4519 50.4954 14.3201 51.3033 15.0965C51.9375 15.7056 52.741 14.555 53.0104 13.7489C53.0678 14.5977 53.5459 15.8921 54.3094 15.4712C55.3386 14.9033 53.9728 13.59 53.5143 13.1893L53.5141 13.189Z" fill="#F06395"/>
<path d="M53.3829 13.1243C53.7686 13.2182 54.8685 13.6123 54.8581 12.8664C54.8496 12.2374 53.742 12.5024 53.3242 12.7846C53.5702 12.3443 53.741 11.2189 53.1141 11.2631C52.3703 11.3156 52.8323 12.4304 52.9925 12.7929C52.7345 12.5308 51.7869 11.6737 51.4606 12.3632C51.2011 12.9124 52.2169 13.1238 52.7555 13.1021C52.3643 13.329 51.4213 13.8712 51.9372 14.3669C52.3418 14.7558 52.8551 14.0213 53.0269 13.5065C53.0636 14.0487 53.3684 14.8753 53.8561 14.606C54.5132 14.2435 53.6297 13.4229 53.3829 13.1243Z" fill="#6C297B"/>
<path d="M49.8064 24.3713C50.2744 24.5325 51.7041 24.9491 51.6914 24.0179C51.6808 23.233 50.2979 23.5639 49.7761 23.916C50.0832 23.366 50.2964 21.9611 49.5132 22.0165C48.5842 22.0822 49.1197 23.4723 49.3197 23.9248C48.9981 23.5978 47.8561 22.5293 47.4492 23.39C47.1245 24.0756 48.4093 24.3894 49.0589 24.3315C48.571 24.5806 47.3995 25.2727 48.044 25.8918C48.5492 26.3772 49.1901 25.4603 49.4043 24.8174C49.4504 25.4939 49.8317 26.5259 50.44 26.1901C51.2606 25.7374 50.1719 24.6908 49.8066 24.3713H49.8064Z" fill="#F06395"/>
<path d="M49.7016 24.3195C50.009 24.3945 50.886 24.7086 50.8778 24.1138C50.871 23.6127 49.9878 23.8238 49.6548 24.0489C49.8509 23.6978 49.987 22.8008 49.4874 22.836C48.8942 22.8779 49.2626 23.7666 49.3904 24.0556C49.1847 23.8466 48.429 23.1636 48.169 23.7128C47.962 24.1508 48.7721 24.3193 49.2013 24.3019C48.8893 24.4828 48.1377 24.9148 48.549 25.3101C48.8714 25.6201 49.281 25.0346 49.4176 24.624C49.4471 25.0561 49.6902 25.7153 50.0788 25.5003C50.6027 25.2116 49.8988 24.5573 49.7014 24.3193L49.7016 24.3195Z" fill="#6C297B"/>
<path d="M41.499 31.7374C42.0767 31.9364 43.8412 32.451 43.8257 31.3015C43.8127 30.3323 42.106 30.7409 41.4615 31.1758C41.8408 30.4969 42.1039 28.7627 41.1373 28.831C39.9902 28.9122 40.652 30.6281 40.8985 31.1866C40.5014 30.7828 39.0921 29.4638 38.5897 30.5264C38.189 31.3726 39.7744 31.7599 40.5767 31.6883C39.9744 31.9956 38.5284 32.8502 39.3234 33.6142C39.9475 34.2134 40.7381 33.0815 41.0028 32.2883C41.0594 33.1234 41.5298 34.3971 42.2811 33.9829C43.294 33.4238 41.9502 32.132 41.4993 31.7374H41.499Z" fill="#F06395"/>
<path d="M41.3698 31.6739C41.7493 31.7665 42.8315 32.1541 42.8217 31.4201C42.8132 30.8015 41.7232 31.062 41.3118 31.3399C41.5542 30.9065 41.7219 29.7992 41.1054 29.8429C40.3732 29.8944 40.828 30.9914 40.9856 31.3482C40.7315 31.0902 39.7991 30.2468 39.478 30.9252C39.2227 31.4656 40.2223 31.6736 40.7522 31.6524C40.367 31.8757 39.4392 32.4092 39.9468 32.8968C40.345 33.2795 40.85 32.5569 41.0192 32.0501C41.0552 32.5833 41.355 33.3969 41.8352 33.1318C42.482 32.7752 41.6124 31.9678 41.3695 31.6739H41.3698Z" fill="#6C297B"/>
<path d="M7.86376 26.9077C7.86367 29.6299 11.6266 30.2522 8.68176 32.741C5.73696 35.2299 6.90943 39.2225 7.86376 40.9077" stroke="#3E575C" stroke-width="0.3"/>
<path d="M2.47059 24.4148C3.3889 26.7242 6.87092 29.4605 8.58927 28.9768C10.3076 28.493 11.752 23.3986 10.8337 21.0893C9.91534 18.7799 7.29876 17.6522 4.98936 18.5705C2.67996 19.4888 1.55227 22.1054 2.47059 24.4148Z" fill="#238CA2"/>
<path d="M5.18525 22.6556C5.18525 23.4248 5.18525 23.8094 4.62115 24.9633C3.84229 24.9633 4.05686 23.333 4.05686 22.2709C4.05686 21.2089 4.97049 19.9633 5.74935 19.9633C6.52821 19.9633 5.4673 21.5017 5.18525 22.6556Z" fill="#3BADBC"/>
<path d="M5.06436 21.307C4.7422 21.865 4.85304 22.5321 4.48103 22.3173C4.10902 22.1026 4.06862 21.4761 4.39079 20.9181C4.71295 20.3601 5.27569 20.0818 5.6477 20.2966C6.0197 20.5114 5.38653 20.749 5.06436 21.307Z" fill="#A0E4F2"/>
</svg>
