<svg width="30" height="30" viewBox="0 0 30 30" fill="none" xmlns="http://www.w3.org/2000/svg">
<g clip-path="url(#clip0_6413_75514)">
<ellipse opacity="0.1" cx="16" cy="24.4963" rx="15.4722" ry="3.68164" fill="black"/>
<path d="M19.4572 17.3234C14.827 17.6005 10.901 18.4738 9.35413 20.2463L9.41678 16.3211L13.0633 14.323L17.4414 13.2024L23.6216 13.3691L28.3183 14.5911L29.8418 15.9119L29.6896 18.891C27.8689 17.3936 23.9594 17.0539 19.4572 17.3234Z" fill="#C04A50"/>
<path d="M19.9373 25.6423C25.9699 25.2812 30.7261 22.7466 30.5606 19.9812L30.481 15.8613L27.7566 18.6909L24.6133 19.8263L16.6668 20.6944L12.1938 19.7628L8.67379 17.1273L8.71465 21.2887C8.88018 24.0542 13.9047 26.0034 19.9373 25.6423Z" fill="#FA8F16"/>
<path d="M19.3585 12.978C22.3283 12.8002 25.0227 13.1132 26.9727 13.7461C27.9492 14.0631 28.7143 14.4527 29.2328 14.8787C29.7504 15.304 29.9843 15.7314 30.0086 16.1373C30.0329 16.5433 29.852 16.9963 29.3886 17.4805C28.9245 17.9653 28.2113 18.4424 27.2796 18.8736C25.419 19.7345 22.7812 20.3667 19.8114 20.5445C16.8415 20.7222 14.1471 20.4093 12.1972 19.7764C11.2209 19.4595 10.4566 19.0705 9.93803 18.6447C9.42011 18.2192 9.18549 17.7911 9.16119 17.3851C9.13692 16.9792 9.31886 16.5271 9.7823 16.0429C10.2464 15.5581 10.9585 15.08 11.8903 14.6488C13.7508 13.7879 16.3886 13.1557 19.3585 12.978Z" stroke="#FDC059"/>
<path d="M9.32751 13.6474C6.06337 16.863 4.17385 20.5367 4.29826 22.9855L1.50646 19.7335L2.78997 15.7447L5.25541 12.0016L10.0004 8.14859L14.3985 6.11672L16.4937 6.214L18.5343 8.74981C16.089 8.69993 12.5015 10.5206 9.32751 13.6474Z" fill="#C04A50"/>
<path d="M16.2904 21.023C20.5956 16.7818 22.5096 11.7437 20.5653 9.77007L17.4016 6.37203L17.6048 10.6434L15.9849 13.5666L10.5721 19.4489L6.59069 21.6905L1.93496 21.7621L4.97475 25.1288C6.91901 27.1024 11.9852 25.2641 16.2904 21.023Z" fill="#F6A22E"/>
<path d="M6.503 10.8324C8.61636 8.75046 10.9001 7.27604 12.866 6.56272C14.877 5.83303 16.3602 5.95874 17.1117 6.72158C17.863 7.48447 17.9659 8.96888 17.2063 10.9685C16.4636 12.9235 14.9551 15.1849 12.8417 17.2668C10.7284 19.3487 8.44465 20.8232 6.47876 21.5365C4.46809 22.2659 2.98524 22.1409 2.23373 21.3783C1.48226 20.6155 1.37884 19.1305 2.13848 17.1307C2.88117 15.1757 4.3897 12.9143 6.503 10.8324Z" stroke="#FDC059"/>
<path d="M22.0137 13.4626H22.5L23.0117 13.5117L23.4961 13.5586L23.9727 13.6172L23.8477 17.2812L23.0039 17.2539L22.0137 17.2344V13.4626Z" fill="#E98276"/>
<path d="M16.519 20.7718L18.2656 20.9766L15.9755 25.316C14.5794 25.0348 13.8713 24.9343 12.1938 24.2263L16.519 20.7718Z" fill="#C8441A"/>
<path d="M16.519 20.7718L18.2656 20.9766L19.0078 20.0312C18.5339 20.0026 17.5469 19.932 17.3906 19.8789C17.1551 20.1326 16.651 20.6664 16.519 20.7718Z" fill="#C8441A"/>
<path d="M17.4217 25.3902C17.4696 25.8015 17.6014 26.1221 17.6433 26.4288C17.7091 26.9028 17.6553 27.3141 17.308 27.6208C17.0745 27.8299 16.5116 27.9623 16.2182 27.9833C15.6913 28.0181 15.3201 27.7253 15.2842 27.0492C15.2842 26.9446 15.3141 26.7007 15.3261 26.5822C15.3441 26.4497 15.4099 26.1221 15.4578 26.0106C15.6674 25.5436 16.3739 25.2647 16.793 25.1811C16.9547 25.3972 16.356 25.6481 16.5476 25.9618C16.6254 26.0873 17.2601 25.3763 17.4158 25.3902H17.4217Z" fill="#ECEF89"/>
<path d="M17.0991 25.1392C17.1859 25.1392 17.2994 25.2166 17.3801 25.2526C17.3801 25.2958 17.4173 25.3246 17.4235 25.411C17.2622 25.3966 16.6027 26.131 16.5221 26.0014C16.3235 25.6774 16.944 25.4128 16.7764 25.1896C16.8819 25.168 16.9874 25.132 17.0991 25.1392Z" fill="#DDAF7B"/>
<path d="M18.6251 25.3528C18.8287 25.4708 19.17 25.9774 19.3376 25.7623C19.5472 25.8942 19.7687 25.9774 19.9184 26.2551C20.3136 26.9838 20.0681 27.3586 19.5173 27.775C18.8287 28.2956 18.6072 28.3789 18.1341 27.6224C17.8647 27.1851 17.8048 26.9699 17.733 26.4355C17.715 26.2828 17.6372 25.7276 17.7749 25.7623C18.0204 26.0746 18.224 25.8178 18.3736 26.2273C18.661 26.4008 18.2539 25.5194 18.218 25.2973C18.3677 25.3111 18.4635 25.2626 18.6191 25.3459L18.6251 25.3528Z" fill="#ECEF89"/>
<path d="M18.2239 25.3042C18.2598 25.5263 18.667 26.4078 18.3796 26.2343C18.2299 25.8248 18.0222 26.0858 17.7767 25.7735C17.7468 25.711 17.6305 25.309 17.6365 25.2812C17.6365 25.2673 17.8942 25.094 17.9122 25.094C18.2415 25.0246 18.1999 25.1238 18.2299 25.3042H18.2239Z" fill="#DDAF7B"/>
<path d="M18.0998 20.8623C18.0998 20.8623 18.3602 21.008 18.3723 21.0149C18.3723 21.0149 18.3602 21.0427 18.4146 21.1191C19.0867 21.9727 18.5599 23.2915 17.9666 24.0063L17.9908 23.8536L17.7426 23.93C17.7244 23.6732 17.8092 23.4233 17.6276 23.2359L17.5125 23.7773L17.3039 23.7986L17.2073 23.5757L17.1522 23.8553C16.8616 23.1057 16.1835 22.6962 16.3893 21.6898C16.4014 21.6412 16.3804 21.5702 16.3925 21.5355C16.3985 21.5147 16.6044 21.237 16.6165 21.2232C16.6589 21.1885 17.4096 20.9386 17.5186 20.9108C17.785 20.8484 17.7729 20.7581 18.1059 20.8623H18.0998Z" fill="#ECEF89"/>
<path d="M17.9823 24.0067C17.8551 24.1615 17.7278 24.39 17.5115 24.39C17.3334 24.2131 17.4161 24.5228 17.1362 24.2279C17.2571 24.0067 17.2189 24.0657 17.1362 23.8445L17.2062 23.5717L17.3016 23.7929L17.5115 23.7634L17.6324 23.1884C17.8232 23.3948 17.7342 23.6528 17.7533 23.9256L18.0141 23.8445L17.9886 24.0067H17.9823Z" fill="#DDAF7B"/>
<path d="M18.7573 25.2486L18.6256 25.3528C18.4699 25.2625 18.3741 25.3111 18.2244 25.3042C18.1945 25.1237 18.2361 25.0335 17.9068 25.096C17.8768 24.978 17.9547 24.8808 17.9487 24.7836C18.2181 24.7836 18.6076 25.1792 18.7573 25.2486Z" fill="#F0C946"/>
<path d="M20.1396 23.0277C20.7025 23.1735 21.1336 23.3054 20.942 24.1105C20.924 24.1938 20.6426 24.7837 20.5887 24.8878C20.2055 25.568 20.0977 25.5957 19.3433 25.4569C19.1816 25.4292 18.9117 25.3268 18.75 25.2505C18.5883 25.1741 18.2171 24.7854 17.9477 24.7854C17.9477 24.7021 17.865 24.7629 17.9129 24.5755C17.9847 24.277 18.9667 23.0624 19.2481 22.9722C19.5654 22.875 19.8343 22.9445 20.1456 23.0208L20.1396 23.0277Z" fill="#ECEF89"/>
<path d="M16.8403 23.8979C16.8403 23.8979 16.8646 23.8769 16.8828 23.9469C16.5794 23.8419 16.8585 24.1777 16.725 24.1567C16.5794 24.1357 16.355 24.0588 16.2033 24.0238C16.3974 24.2616 16.8342 24.6603 16.4763 24.8072L16.7493 24.9401C16.088 25.2618 16.082 25.5766 15.1902 25.1499C14.814 24.9681 14.1831 24.2546 14.268 23.772C14.2802 23.6881 15.081 22.429 15.1477 22.394C15.536 22.1842 16.2336 22.5892 16.4824 22.9389C16.6826 23.2187 16.7311 23.5755 16.8403 23.9042V23.8979Z" fill="#ECEF89"/>
<path d="M16.8795 23.9389C16.9542 24.1723 17.0725 24.3704 17.1098 24.625C17.1098 24.6392 17.004 24.5967 17.0165 24.8372C16.9791 24.9362 16.7924 24.915 16.7364 24.9433L16.4563 24.8089C16.8298 24.6604 16.3754 24.2643 16.1763 24.0167C16.3319 24.0521 16.5559 24.1228 16.7115 24.1511C16.8484 24.1723 16.5621 23.8399 16.8733 23.9389H16.8795Z" fill="#DDAF7B"/>
<path d="M17.1572 24.2076C17.4369 24.4922 17.3561 24.1938 17.524 24.3603C17.5302 24.3673 17.5426 24.4853 17.6607 24.5686C17.524 24.6033 17.5206 24.7902 17.3342 24.7832C17.3093 24.7832 17.0607 24.7277 17.1042 24.6305C17.0669 24.3876 16.9521 24.1799 16.8775 23.9508C16.8526 23.8814 16.834 23.9023 16.834 23.9023C16.921 23.7704 17.0453 24.0966 17.1572 24.2146V24.2076Z" fill="#DB7C55"/>
<path d="M17.1054 24.6305C17.0635 24.7276 17.309 24.7832 17.327 24.7832C17.3449 24.8526 17.4217 24.9844 17.4277 25.04C17.4277 25.0608 17.3798 25.2346 17.3858 25.2554C17.3079 25.2207 17.1893 25.151 17.1054 25.1441C17.1174 25.0747 17.0156 24.8595 17.0156 24.8318C17.0037 24.5958 17.1054 24.6374 17.1054 24.6235V24.6305Z" fill="#EB9356"/>
<path d="M17.6515 24.5641C17.6515 24.5641 17.7804 24.6151 17.7865 24.6151C17.9092 24.7753 17.9031 24.9354 17.8295 25.132L17.4182 25.0519C17.4182 24.9937 17.3446 24.8481 17.3262 24.7825C17.5103 24.7898 17.5103 24.6078 17.6453 24.5641H17.6515Z" fill="#CE7360"/>
<path d="M22.134 9.38965C22.134 9.38965 22.2328 9.48779 22.3457 9.4469C22.4092 10.0276 22.5432 10.641 22.6067 11.2135C22.7055 12.064 22.6985 12.293 22.0282 12.8574C21.9435 12.931 21.7177 13.0373 21.6119 13.1027C21.4567 13.2008 21.2732 13.2663 21.1392 13.4053C20.9981 13.4135 20.8781 13.4544 20.7229 13.4626C20.5253 13.3726 20.4477 13.4298 20.2502 13.2826C20.222 13.2581 20.1796 13.0864 20.1443 13.0373C19.9045 12.293 19.5799 11.3116 20.0385 10.6083C20.0597 10.5837 20.1302 10.4365 20.1443 10.4283C20.4125 10.1993 20.6947 10.1012 20.984 9.94579C21.3508 9.74133 21.753 9.54504 22.1411 9.39783L22.134 9.38965Z" fill="#ECEF89"/>
<path d="M22.4517 3.9755C22.9809 4.51529 23.3196 5.61939 23.1855 6.40453C23.1432 6.65806 22.3247 8.37556 22.1131 8.40827C21.6545 8.13838 20.9489 7.50863 20.6737 7.00974C20.5115 6.71531 20.3845 6.38817 20.3562 6.03649C20.3351 5.79114 20.3845 5.64392 20.4056 5.43128C20.4621 4.8915 20.6596 4.04093 21.09 3.73015C21.725 3.26397 21.9226 3.73832 22.4517 3.9755Z" fill="#ECEF89"/>
<path d="M23.2414 6.46997L22.9803 7.77854L23.3966 7.47593C23.3049 7.6395 23.0579 7.80307 22.9803 7.93393C22.9098 8.05661 22.7969 8.30196 22.7686 8.44918C22.7969 8.53914 23.3331 8.69453 23.453 8.71907C23.7917 8.80903 24.1021 8.8581 24.4479 8.84175C24.4126 9.10346 24.099 8.79678 24.1837 9.27932C23.3575 9.12744 23.1779 9.06257 22.9803 9.0871C22.945 9.0871 22.9027 9.12799 22.8251 9.14435C22.9591 8.63728 22.6628 8.59639 22.3524 8.53914C21.922 8.44918 21.922 8.40828 21.668 8.84175C21.5339 8.58821 21.5974 8.5555 21.3505 8.17111C21.1459 7.85214 20.8284 7.27147 20.6167 7.01793H20.6661C20.9483 7.51682 21.6468 8.14657 22.1054 8.41646C22.3171 8.38375 23.1355 6.66625 23.1779 6.41272L23.2273 6.46997H23.2414Z" fill="#FFBA6B"/>
<path d="M21.6682 8.89899C21.774 9.09527 21.9433 9.06256 22.035 9.14434C22.1197 9.21795 22.162 9.25066 22.1409 9.3897C21.7528 9.52873 21.3577 9.7332 20.9838 9.93766L20.8779 9.69231C21.019 9.60234 21.1813 9.33245 21.2942 9.20977C21.3859 9.10345 21.5341 8.9317 21.6611 8.90717L21.6682 8.89899Z" fill="#FFBA6B"/>
<path d="M22.6063 9.32422C22.5569 9.45508 22.6486 9.62683 22.6557 9.69225C22.7121 10.2157 22.7262 10.4447 22.8673 10.9681L22.6063 11.2135C22.5428 10.641 22.4017 10.0276 22.3452 9.44689C22.3593 9.44689 22.4228 9.37329 22.6063 9.32422Z" fill="#FFBA6B"/>
<path d="M24.1793 9.26705C24.5109 9.34066 24.6308 9.28341 24.9695 9.51241C25.2658 9.70869 25.5198 10.1013 25.5974 10.4857C25.6751 10.87 25.668 11.4425 25.5974 11.8269C25.5692 11.9742 25.5692 12.0478 25.4916 12.195C25.0189 13.0619 23.6572 12.5712 23.1844 11.8596C22.9446 11.4998 22.9657 11.3526 22.8669 10.9764C22.7258 10.4529 22.7188 10.2239 22.6553 9.70052C22.8528 9.70052 23.5372 10.3548 23.5443 10.0358L22.979 9.08508C23.1515 9.04452 23.9323 9.22616 24.1722 9.27523L24.1793 9.26705Z" fill="#ECEF89"/>
<path d="M22.6628 9.69225C22.6628 9.635 22.564 9.45507 22.6134 9.32421C22.6981 9.29968 22.7404 9.16064 22.8251 9.14429C22.9027 9.12793 22.9451 9.08704 22.9803 9.08704L23.5589 10.0276C23.5518 10.3465 22.8674 9.69225 22.6699 9.69225H22.6628Z" fill="#DDA87B"/>
<path d="M26.1275 7.01793C26.0005 7.67221 25.5137 8.60457 24.921 8.78449C24.7376 8.84174 24.6317 8.83357 24.4483 8.84174C24.1026 8.8581 23.7851 8.80903 23.4535 8.71907L23.9262 8.38375C23.397 8.44917 23.771 7.99935 24.032 7.77853L23.8486 7.8685V7.62314C23.6863 7.754 23.0725 8.30196 23.3265 7.80307L22.9878 7.92575C23.0654 7.79489 23.3194 7.63132 23.4041 7.46775L22.9878 7.77036L23.2489 6.46179C23.3759 6.05286 23.644 5.7339 23.9826 5.54579C24.4836 5.2759 25.8312 5.12051 26.1346 5.75843C26.2686 6.04468 26.1981 6.68261 26.1346 7.00157L26.1275 7.01793Z" fill="#ECEF89"/>
<path d="M20.6172 7.01791C20.8289 7.27963 21.1464 7.85213 21.351 8.17109L20.9841 8.2038C21.5133 8.71087 20.2503 8.35102 20.1445 8.50641C19.9399 8.80901 20.6172 8.68634 20.6948 8.71905C20.7936 8.75994 20.7301 9.07891 21.0617 8.96441L20.9065 9.20976H21.3016C21.1887 9.34062 21.0264 9.60233 20.8853 9.6923C20.1163 10.1912 19.192 10.1176 18.5005 9.51237C17.6045 8.73541 17.5057 7.68038 18.6064 7.08334C18.8815 6.93613 19.3331 6.90341 19.58 6.78074C19.6506 6.74802 19.6294 6.72349 19.6294 6.72349C20.2292 6.63352 20.2292 6.54356 20.6243 7.02609L20.6172 7.01791Z" fill="#ECEF89"/>
<path d="M21.3508 8.17108C21.5977 8.55547 21.5272 8.58819 21.6683 8.84172C21.6754 8.85808 21.6612 8.89079 21.6683 8.89897C21.5413 8.92351 21.3931 9.10343 21.3014 9.20158H20.9063L21.0615 8.95622C20.7229 9.07072 20.7934 8.75176 20.6946 8.71087C20.617 8.67815 19.9397 8.80083 20.1443 8.49822C20.2501 8.34283 21.5131 8.70269 20.9839 8.19562L21.3508 8.1629V8.17108Z" fill="#DDA87B"/>
<path d="M22.3461 8.53914C22.1415 8.57185 22.2614 9.11981 22.3955 9.05439L22.0286 9.14435C21.9298 9.07074 21.7675 9.09528 21.6617 8.89899C21.6546 8.88264 21.6688 8.84992 21.6617 8.84174C21.9157 8.40828 21.9157 8.44917 22.3461 8.53914Z" fill="#CE7360"/>
</g>
<defs>
<clipPath id="clip0_6413_75514">
<rect width="32" height="32" fill="white"/>
</clipPath>
</defs>
</svg>
