<svg width="32" height="24" viewBox="0 0 32 30" fill="none" xmlns="http://www.w3.org/2000/svg">
<path d="M27.1311 14.3496C27.027 14.5318 26.5925 14.7793 26.4068 14.88C25.8904 14.2828 25.9436 13.3747 26.2562 12.8279C26.8 13.16 26.4526 13.4059 26.6231 13.763C26.6955 13.9162 27.024 14.1162 27.1705 14.1573C27.2202 14.2528 27.1631 14.2852 27.1311 14.3496Z" fill="#F1515C"/>
<path d="M17.22 4.55975L17.2133 6.68676L16.7124 6.76709L16.4419 5.28574C16.4433 5.17188 17.1962 4.78611 17.22 4.55975Z" fill="#F1515C"/>
<path d="M26.1829 4.49514L26.0596 4.90263C25.9751 5.57219 26.3749 5.83732 26.4017 6.02654C26.4135 6.09942 25.8336 6.76602 25.7596 6.8781C25.2815 6.00073 25.7387 5.06663 26.181 4.48926L26.1829 4.49514Z" fill="#2AAFB9"/>
<path d="M31.0123 2.43432L30.481 3.15885C30.4524 3.01423 30.4904 2.88542 30.4127 2.71456C30.3128 2.50477 29.8987 2.41326 29.8653 2.32025C29.8473 2.2614 30.0784 1.58249 30.0745 1.45098C30.1238 1.42674 30.9332 2.32684 31.0123 2.43432Z" fill="#F1515C"/>
<path d="M26.5926 2.19071C26.8006 2.45094 26.9729 2.81425 26.9796 3.14089L26.0527 3.0566C26.3538 2.87826 26.5188 2.57423 26.5908 2.18481L26.5926 2.19071Z" fill="#FAB624"/>
<path d="M31.0138 2.43433C31.0138 2.43433 31.1409 2.53057 31.1445 2.54235C31.3719 3.01891 30.8048 3.25371 30.4974 3.27575C30.4397 3.23884 30.4854 3.20281 30.4778 3.16045L31.009 2.43545L31.0138 2.43433Z" fill="#CB284E"/>
<path d="M31.1769 6.00308C31.2007 6.14884 31.4182 7.04985 31.3563 7.08338C30.4918 6.71341 29.4646 6.02866 28.5867 5.8511C28.4762 5.82669 28.3993 5.89531 28.3897 5.89758C28.3849 5.8987 28.3658 5.80229 28.3076 5.7971C28.133 5.78156 27.9216 5.83144 27.751 5.84645C27.823 5.55828 27.8908 5.23954 28.0532 5.012C29.104 4.92807 30.1748 5.40071 31.1721 6.00421L31.1769 6.00308Z" fill="url(#paint0_linear_6413_75963)"/>
<path d="M31.1784 6.00305C30.1763 5.40067 29.1121 4.93278 28.0596 5.01083C28.0596 5.01083 28.1887 4.96144 28.0987 4.9196C29.0467 4.26077 29.8769 4.24776 31.0291 4.85256C31.0825 5.231 31.1232 5.61873 31.1832 6.00191L31.1784 6.00305Z" fill="#4BC0C1"/>
<path d="M26.8004 7.88106C26.743 8.11535 26.61 8.3044 26.4465 8.4439C26.1146 8.35191 25.7815 8.3233 25.4515 8.23718C24.8532 8.08192 23.9151 7.62213 23.3564 7.76653C24.1088 6.71869 25.7218 7.78868 26.7987 7.87517L26.8004 7.88106Z" fill="#AE98CD"/>
<path d="M23.3577 7.77238C23.9162 7.62798 24.8543 8.08778 25.4526 8.24304C25.7827 8.32915 26.1206 8.35663 26.4477 8.44976C26.3707 8.51837 26.2542 8.508 26.2991 8.60463C25.2637 8.82371 24.4061 8.30706 23.4545 8.31083C23.4402 8.31424 23.3016 8.26494 23.2775 8.27061C23.0624 8.03755 23.2886 8.05354 23.2435 7.83717C23.2879 7.81407 23.3096 7.78373 23.3528 7.77352L23.3577 7.77238Z" fill="#4D5DA5"/>
<path d="M28.0995 4.92554C28.1895 4.96738 28.0634 5.00975 28.0603 5.01677C27.8978 5.24432 27.8283 5.55716 27.758 5.85122C27.6177 6.43933 27.6311 7.04164 27.4722 7.6026C27.2541 8.01984 27.2029 7.81751 26.8997 7.81966C26.8997 7.81966 26.8918 7.87829 26.8335 7.87311C27.189 6.50265 26.9713 5.70259 28.0995 4.92554Z" fill="#206096"/>
<path d="M28.397 5.90228C28.2119 6.66492 28.1472 7.2478 27.6353 7.76589C27.6071 7.79148 27.4408 7.83704 27.4155 7.85561C27.3934 7.76621 27.4458 7.68448 27.4676 7.60366C27.6265 7.0427 27.6113 6.43451 27.7534 5.85228C27.9221 5.83139 28.1353 5.78739 28.3101 5.80294C28.3683 5.80812 28.3873 5.90454 28.3921 5.90342L28.397 5.90228Z" fill="#7377B7"/>
<path d="M23.2323 8.32538C23.3081 8.86248 23.5575 9.42802 23.9627 9.76132C23.9708 9.92329 23.9598 10.0899 23.8911 10.2196C23.5377 9.78592 23.0541 9.31347 22.9248 8.71958C23.0305 8.69463 22.8988 8.44819 22.9728 8.3866C23.0011 8.361 23.1698 8.34012 23.2323 8.32538Z" fill="#127EA4"/>
<path d="M23.4588 8.30968C23.6892 8.77882 23.935 9.23164 23.9654 9.75427C23.5619 9.4269 23.306 8.85661 23.2349 8.31837C23.2637 8.31157 23.256 8.26925 23.2866 8.26833C23.3107 8.26266 23.4474 8.30606 23.4636 8.30855L23.4588 8.30968Z" fill="#7A8CC6"/>
<path d="M27.4725 7.60254C27.4507 7.68342 27.3983 7.7652 27.4205 7.85468C26.9828 8.26093 26.9663 8.4605 26.3026 8.59814C26.2559 8.49554 26.3742 8.51182 26.4511 8.44317C26.6099 8.30472 26.7477 8.11442 26.805 7.87995C26.8146 7.87769 26.8243 7.87542 26.8339 7.87315C26.8921 7.87835 26.8934 7.81492 26.9 7.81968C27.2032 7.81758 27.2563 8.02597 27.4725 7.60254Z" fill="#2A3C81"/>
<path d="M23.2478 7.836C23.2931 8.05255 23.0668 8.03652 23.282 8.26979C23.2532 8.27659 23.2639 8.31193 23.2303 8.31986C23.1678 8.3346 22.9991 8.35547 22.9708 8.38108C22.8969 8.44271 23.0315 8.68235 22.9228 8.71431C22.8383 8.31768 22.96 7.97334 23.2478 7.836Z" fill="#2D5699"/>
<path d="M6.65418 25.6832C7.03994 26.1724 7.56605 26.3952 8.03921 26.6809C8.19694 26.7761 8.36419 26.9196 8.52973 27.0067C8.36571 27.0769 8.20885 27.1707 8.04483 27.2409C6.91167 27.7479 5.7755 28.2619 4.64234 28.769C3.99285 29.0546 2.42258 29.9359 1.81792 29.9966C1.43362 30.0369 0.891485 29.7107 0.721191 29.2527C1.01572 29.3913 1.43231 29.0849 1.69251 28.9415C3.33853 28.0045 4.99357 26.7247 6.62055 25.6911C6.63015 25.6889 6.63977 25.6866 6.64938 25.6844L6.65418 25.6832Z" fill="#CD2235"/>
<path d="M15.3236 23.1521C15.5803 23.3186 15.8027 23.5248 16.104 23.5672C13.5769 24.7058 11.057 25.868 8.5281 27.0007C8.36256 26.9136 8.19531 26.7703 8.0376 26.6749L15.2487 23.1257C15.2487 23.1257 15.3105 23.1426 15.3219 23.1462L15.3236 23.1521Z" fill="#F1883E"/>
<path d="M20.7229 21.5187C19.2081 22.2608 17.6394 22.8769 16.1056 23.5731C15.8024 23.5248 15.58 23.3186 15.3252 23.1581L19.3608 21.1212C19.8058 21.3315 20.2738 21.4985 20.7295 21.5235L20.7229 21.5187Z" fill="#963580"/>
<path d="M8.96839 14.0179C8.97669 14.079 8.96463 14.107 8.97359 14.1365C7.50003 16.6726 6.17573 19.3438 4.70877 21.8847C4.67806 21.9361 4.65149 22.018 4.58904 22.0328C4.53174 21.8445 4.50506 21.6553 4.44775 21.467C5.92827 18.7337 7.43996 16.0183 8.90068 13.2708C8.88101 13.5276 8.92503 13.7569 8.96359 14.019L8.96839 14.0179Z" fill="#FDD252"/>
<path d="M6.62039 25.6912C4.99341 26.7247 3.34318 28.0033 1.69235 28.9415C1.43395 29.0907 1.01556 29.3913 0.721034 29.2527C0.706715 29.2056 0.690599 29.1527 0.67627 29.1056C0.695497 29.1011 0.733929 29.092 0.738738 29.0908C0.755511 29.1121 0.754766 29.1942 0.787173 29.1993C0.80159 29.1958 0.899171 29.0088 0.926867 28.9645L6.19449 25.1547C6.32745 25.3378 6.5157 25.4825 6.62217 25.6971L6.62039 25.6912Z" fill="#E13144"/>
<path d="M4.58956 22.0328C4.58956 22.0328 4.60567 22.0857 4.61283 22.1093L0.955835 28.3518C0.867763 28.587 0.711296 28.8005 0.736012 29.0848C0.736012 29.0848 0.69277 29.095 0.673543 29.0996C0.566858 28.6644 0.684411 28.3906 0.830876 28.0596C1.7634 25.9286 3.32675 23.5353 4.44827 21.467C4.50557 21.6553 4.53226 21.8445 4.58956 22.0328Z" fill="#F1515C"/>
<path d="M11.0098 10.4839L8.96949 14.0179C8.93273 13.7617 8.88691 13.5265 8.90658 13.2696C9.55051 12.0517 10.3014 10.7961 10.8895 9.54736C10.9664 9.85091 10.9394 10.1852 11.0098 10.4839Z" fill="#B95390"/>
<path d="M9.62482 16.0706C10.5205 18.1171 11.8998 19.9423 13.3692 21.4877C13.3992 21.5184 13.4291 21.5492 13.4321 21.5927C13.3781 21.5676 13.2779 21.5093 13.2299 21.5205C11.0822 22.9923 8.8358 24.2917 6.64866 25.6844C6.63905 25.6866 6.62944 25.689 6.61982 25.6912C6.51334 25.4766 6.32509 25.3318 6.19214 25.1488C5.71244 24.4863 5.32656 23.7258 4.94482 22.996C4.94482 22.996 4.95216 22.9187 4.95038 22.9128C6.49254 20.619 8.03951 18.3241 9.62002 16.0717L9.62482 16.0706Z" fill="url(#paint1_linear_6413_75963)"/>
<path d="M13.4372 21.5915C13.7845 21.7682 14.733 22.7869 15.2499 23.1316L8.03884 26.6809C7.56567 26.3952 7.03957 26.1724 6.65381 25.6832C8.84575 24.2894 11.0873 22.9911 13.235 21.5194C13.283 21.5081 13.3833 21.5665 13.4372 21.5915Z" fill="#DE6D2E"/>
<path d="M19.355 21.1222L15.3194 23.1591C15.3194 23.1591 15.2528 23.1433 15.2462 23.1386C14.7293 22.7938 13.7807 21.7751 13.4334 21.5985C13.4238 21.5503 13.3957 21.5254 13.3706 21.4935C14.3987 20.6581 15.7383 20.1528 16.5064 18.9877C17.3305 19.7834 18.385 20.6762 19.3519 21.1292L19.355 21.1222Z" fill="#81206B"/>
<path d="M9.60049 15.994C9.60049 15.994 9.61661 16.047 9.62377 16.0705C8.03846 18.324 6.49808 20.6237 4.95413 22.9116C4.79065 22.6789 4.69273 22.3741 4.61215 22.1093C4.60498 22.0857 4.59603 22.0563 4.58887 22.0328C4.65134 22.018 4.67789 21.9361 4.7086 21.8847C4.73228 22.0809 4.8341 21.874 4.84794 21.8518C6.25217 19.4771 7.71632 17.1639 9.14873 14.814C9.27529 15.213 9.4403 15.6029 9.6053 15.9929L9.60049 15.994Z" fill="#FDE479"/>
<path d="M8.97542 14.1365C9.00813 14.3117 9.05686 14.5903 9.15807 14.7367C9.15807 14.7367 9.15073 14.8142 9.15252 14.8201C7.71833 17.1639 6.25596 19.4831 4.85174 21.8578C4.83789 21.88 4.73607 22.0869 4.7124 21.8906C6.17935 19.3497 7.50366 16.6785 8.97722 14.1424L8.97542 14.1365Z" fill="#FDE479"/>
<path d="M11.0105 10.4839C11.0712 10.7346 11.1793 11.0559 11.2612 11.3078C10.5933 12.4808 9.85409 13.5886 9.15805 14.7367C9.05685 14.5903 9.00811 14.3116 8.97541 14.1364C8.96646 14.107 8.98332 14.0779 8.97021 14.0179L11.0105 10.4839Z" fill="#DC83AF"/>
<path d="M4.94951 22.9948C5.32822 23.7317 5.71711 24.485 6.19682 25.1476L0.929199 28.9574C2.22775 26.9292 3.6078 24.9827 4.94772 22.989L4.94951 22.9948Z" fill="#E13144"/>
<path d="M4.95588 22.9116C4.95588 22.9116 4.94854 22.989 4.95033 22.9949C3.60862 24.9828 2.22857 26.9292 0.931815 28.9633C0.90412 29.0077 0.803515 29.2017 0.79211 29.1981C0.759703 29.1931 0.760448 29.1109 0.743675 29.0897C0.717174 28.7995 0.875438 28.5919 0.963499 28.3566L4.6205 22.114C4.70286 22.3847 4.79899 22.6837 4.96248 22.9163L4.95588 22.9116Z" fill="#F37785"/>
<path d="M14.3739 16.5963C15.0215 17.4211 15.7207 18.1959 16.4555 18.918C16.4705 18.9335 16.4974 18.9713 16.5075 18.9878C15.7394 20.1528 14.3997 20.6581 13.3717 21.4935C11.9023 19.9482 10.5211 18.117 9.62728 16.0764C9.62012 16.0529 9.61117 16.0235 9.604 15.9999L11.8556 12.7379C12.4873 14.0519 13.4934 15.4796 14.3758 16.6022L14.3739 16.5963Z" fill="url(#paint2_linear_6413_75963)"/>
<path d="M11.8542 12.732L9.60257 15.9941C9.43757 15.6041 9.27435 15.2201 9.146 14.8152C9.146 14.8152 9.15334 14.7378 9.15155 14.732C9.84938 13.5897 10.5868 12.476 11.2546 11.303C11.4111 11.7833 11.6324 12.2735 11.8525 12.7261L11.8542 12.732Z" fill="#EBABCF"/>
<path d="M15.4804 6.66052C15.854 7.6004 16.1813 8.87914 16.1183 9.84005C16.0555 10.8009 15.6745 11.326 15.7258 12.5437C15.5909 12.7269 15.5785 13.0073 15.4682 13.2036C15.2881 13.5425 14.9852 13.7654 14.7672 14.1321C14.6058 14.3972 14.4992 14.6053 14.4206 14.9392C14.2469 15.0117 14.2986 14.64 14.1804 14.5733L13.6396 12.7962C13.6692 12.7577 13.7011 12.6934 13.7258 12.6561C14.4701 11.7173 16.0784 10.3856 15.8416 8.84578C15.7857 8.49315 15.62 8.18538 15.5515 7.89251C15.5372 7.84544 15.521 7.79247 15.5067 7.7454L15.4726 6.66867L15.4804 6.66052Z" fill="#DE6D2E"/>
<path d="M14.8755 8.00769C15.179 8.17575 15.1594 8.70384 15.3036 8.99147C15.0114 9.94334 14.6283 10.6644 14.1129 11.442C14.053 11.4309 13.7388 11.1771 13.7317 11.1535C13.6832 11.0451 14.227 10.1411 14.1715 9.90813C14.2323 9.83703 14.311 9.77433 14.3718 9.70323C14.4061 9.66358 14.5901 9.45621 14.583 9.43268C13.7824 8.93413 11.735 7.6891 11.3785 9.022C11.2237 9.61351 11.532 10.4742 11.7921 11.075C11.6478 10.5163 11.4429 9.92762 11.5897 9.39471C11.4108 10.4145 12.4182 12.422 13.0146 13.3157C13.0451 13.4157 13.0756 13.4148 13.0775 13.4206C13.3715 14.1334 13.918 14.7612 14.3588 15.3636C14.4379 15.4711 14.5037 15.569 14.5809 15.6707C14.9019 16.0995 15.205 16.5199 15.5561 16.929C15.7634 17.1702 15.9797 17.3903 16.1948 17.6234C16.2116 17.6447 16.2302 17.6718 16.2469 17.6931C16.1065 17.6884 16.0596 17.6869 16.0359 17.8627C15.9892 17.8106 15.859 17.7215 15.8141 17.6754C15.586 17.3319 15.2719 17.0781 15.016 16.7789C14.9387 16.6773 14.8372 16.4112 14.7081 16.4101C14.6746 16.3676 14.6184 16.2168 14.5597 16.1424C14.5327 16.1046 14.4828 16.1605 14.4577 16.1286C14.4577 16.1286 14.4961 16.0691 14.4524 16.01C14.4255 15.9722 14.3756 16.0281 14.3504 15.9963C13.3077 14.5836 11.3717 11.4706 11.062 9.70844C11.0216 9.4909 11.1362 9.22422 11.0459 9.01217C11.7962 7.36563 13.4709 8.55353 14.6973 9.31742C14.8526 9.06635 14.9811 8.35487 14.8778 8.03237L14.8755 8.00769Z" fill="#FDD252"/>
<path d="M19.914 13.681C20.3524 13.6154 20.6279 13.6071 21.0823 13.6449C22.0848 13.7238 22.8646 14.0696 23.8183 14.5635L23.3227 15.4058C22.7127 15.0767 22.0852 14.8084 21.4583 14.5591C21.3815 14.5267 21.1225 14.3355 21.0163 14.3417C20.8764 14.3558 20.9429 14.4221 20.9001 14.4511C20.4149 14.2439 19.7167 14.2005 19.2309 14.2457C19.1811 14.2512 19.13 14.2695 19.0772 14.282C18.9679 14.2952 18.8677 14.2873 18.759 14.3192C18.6053 14.3555 18.4868 14.3897 18.3421 14.4554C18.2877 14.3106 18.0293 14.4599 17.9326 14.5143C17.868 14.3529 18.1454 14.3505 18.158 14.3412C18.8358 13.9795 19.1081 13.808 19.911 13.6879L19.914 13.681Z" fill="#2AAFB9"/>
<path d="M19.2302 14.2459C19.4146 14.5302 19.6326 14.8067 19.817 15.0912C19.9272 15.2671 20.3789 16.1254 20.4437 16.1858C20.4802 16.2213 21.2165 16.4071 21.3652 16.4729C22.8511 17.1251 24.1781 18.3888 25.175 19.8879C25.0955 20.0328 24.9525 20.1044 24.8497 20.2232C24.697 19.9251 24.4849 19.6849 24.2807 19.4367C23.2234 18.1284 21.932 17.1338 20.4731 16.841C20.194 16.7871 19.9029 16.7612 19.6286 16.7565L19.5996 16.12C19.6802 16.1137 19.775 16.1039 19.8554 16.0976C19.8699 16.0942 20.12 16.2054 20.1778 16.1414C20.2482 16.0175 19.1793 14.5354 19.0698 14.2773C19.1178 14.266 19.1737 14.2465 19.2235 14.241L19.2302 14.2459Z" fill="#FDD252"/>
<path d="M24.2864 19.4357L23.4652 20.0709C22.8521 19.1055 22.2411 18.3667 21.2945 17.8963C21.2027 17.8486 21.132 17.8526 21.0779 17.8275C21.0305 17.8072 20.9712 17.7645 20.9238 17.7441C20.8339 17.7022 20.5452 17.6505 20.5248 17.6175C20.4602 17.5066 20.5109 16.9964 20.4854 16.8447C21.9376 17.1328 23.2308 18.1332 24.293 19.4404L24.2864 19.4357Z" fill="#F3942C"/>
<path d="M24.6846 15.0462C24.4166 14.8256 24.11 14.7151 23.8185 14.5694C22.8648 14.0755 22.085 13.7297 21.0825 13.6508C21.2706 13.5244 21.0616 13.2774 21.1789 13.1046C22.4456 13.1716 23.7903 13.5292 25.0099 14.0676C24.8905 14.3859 24.7842 14.7137 24.6846 15.0462Z" fill="#4BC0C1"/>
<path d="M14.7087 16.3972C14.6167 16.4 14.4874 16.6007 14.3775 16.5952C13.4951 15.4726 12.4891 14.045 11.8575 12.7308C11.6373 12.2782 11.419 11.781 11.2596 11.3077C11.1778 11.0558 11.0698 10.7345 11.009 10.484C10.9386 10.1852 10.9656 9.85084 10.8887 9.54735C10.9568 9.39884 10.9566 9.17815 11.0476 8.98639C11.1379 9.19845 11.0233 9.46513 11.0637 9.6826C11.3735 11.4449 13.3094 14.5577 14.3522 15.9704C14.3791 16.0082 14.4291 15.9523 14.4542 15.9842C14.4979 16.0433 14.4527 16.0981 14.4594 16.1029C14.4864 16.1406 14.5362 16.0846 14.5614 16.1166C14.6153 16.1922 14.6763 16.3417 14.7099 16.3843L14.7087 16.3972Z" fill="#FDE479"/>
<path d="M15.5135 7.73721C15.5278 7.78428 15.544 7.83724 15.5582 7.88432C15.5053 8.26891 15.4146 8.63088 15.3012 8.98561C15.1522 8.69911 15.1717 8.17103 14.8731 8.00184C14.7232 7.52633 13.4243 6.71018 13.0158 6.53538C12.9811 6.45526 13.3847 5.71675 13.4557 5.61169C14.2977 6.09417 14.9947 6.79376 15.5135 7.73721Z" fill="#FDD252"/>
<path d="M15.4798 6.66043L15.5139 7.73715C14.9951 6.79371 14.3029 6.09298 13.4561 5.61164C13.7023 5.21929 14.0001 4.87783 14.3433 4.60132C14.4953 4.60963 15.3734 6.39541 15.4798 6.66043Z" fill="#FAB624"/>
<path d="M16.8407 18.7828C17.9037 19.6357 20.4964 22.1143 21.5893 20.9167C21.4295 21.3392 21.0272 21.371 20.7238 21.5246C20.2682 21.4997 19.8002 21.3326 19.3552 21.1222C18.3881 20.6692 17.3337 19.7765 16.5097 18.9807C16.4947 18.9654 16.4677 18.9276 16.4575 18.9111L16.6489 18.6262C16.6922 18.6161 16.7977 18.7425 16.8456 18.7816L16.8407 18.7828Z" fill="#F1883E"/>
<path d="M19.9362 13.1143C19.9088 13.3288 19.5903 13.1454 19.5893 13.379C19.5874 13.7452 19.7691 13.5636 19.9129 13.681C19.1101 13.8011 18.8379 13.9725 18.1599 14.3343C18.1456 14.3377 17.8699 14.346 17.9346 14.5073C17.6965 14.6391 17.6621 14.7797 17.5302 15.0063C17.3243 15.345 17.294 15.5161 17.1762 15.8908C17.1334 16.0208 17.0449 16.1867 17.0169 16.3321C16.9664 16.3692 16.9617 16.3198 16.9438 16.3115C17.1702 15.9049 16.8712 15.8871 16.6875 15.5709C16.7875 15.3581 16.9525 15.1048 17.07 14.8816C17.4107 14.6814 17.667 14.356 17.9821 14.1051C18.0561 14.0434 18.2249 13.9216 18.3025 13.8718C18.3626 13.8324 18.3843 13.8021 18.4618 13.7522C18.5393 13.7024 18.6223 13.6198 18.7017 13.5758C19.0586 13.378 19.5386 13.1954 19.9398 13.126L19.9362 13.1143Z" fill="#1A95AB"/>
<path d="M21.0763 17.8216C21.1303 17.8467 21.2029 17.8485 21.2929 17.8903C21.6001 18.663 22.1338 20.3156 21.5889 20.9109C20.496 22.1084 17.9032 19.6298 16.8403 18.7769L16.8459 18.6935C17.7546 19.5135 20.5355 21.8153 21.4193 20.7427C21.897 20.1633 21.3529 18.5447 21.0697 17.8168L21.0763 17.8216Z" fill="#FCB857"/>
<path d="M24.8544 20.2222C24.5463 20.5975 24.3314 20.9068 24.2698 21.4827C24.0053 21.0027 23.7522 20.5263 23.4624 20.0649L24.2836 19.4297C24.488 19.6779 24.7001 19.918 24.8526 20.2163L24.8544 20.2222Z" fill="#DE6D2E"/>
<path d="M24.6857 15.0462C24.5831 15.3858 24.5002 15.7397 24.3928 16.0803C24.0317 15.8754 23.6815 15.6048 23.3193 15.4128L23.8149 14.5706C24.1082 14.7221 24.413 14.8268 24.6809 15.0474L24.6857 15.0462Z" fill="#1A95AB"/>
<path d="M20.3534 12.0131C20.5504 11.9667 20.9849 12.0408 21.1979 12.0979C21.5508 12.1913 21.9665 12.491 22.3381 12.5105C22.1602 12.6031 22.0177 12.6934 21.8088 12.7175C21.2059 12.784 20.2834 12.2064 19.6597 12.5429C19.8665 12.3426 20.0026 12.0958 20.3503 12.0201L20.3534 12.0131Z" fill="#2D5699"/>
<path d="M21.1798 13.1048C21.0625 13.2777 21.2764 13.5239 21.0835 13.6515C20.6291 13.6135 20.3534 13.6217 19.9151 13.6873C19.776 13.5686 19.5877 13.7455 19.5914 13.3849C19.5923 13.1511 19.9079 13.3418 19.9382 13.12C20.3424 13.0436 20.7614 13.0836 21.1816 13.1107L21.1798 13.1048Z" fill="#2AAFB9"/>
<path d="M20.6955 11.2901C20.6195 11.1249 20.9656 10.9928 20.9351 10.8927C20.9279 10.8692 20.7116 10.5983 20.6949 10.5264C21.0801 10.303 21.5559 10.1402 22.0223 10.1501C21.9574 10.2412 21.8496 10.8347 21.7973 10.866C21.7401 10.8984 21.246 10.8824 21.0725 10.9549C20.9673 10.9987 20.7779 11.1886 20.6985 11.283L20.6955 11.2901Z" fill="#F3942C"/>
<path d="M20.3296 10.8519C20.2639 11.0252 20.5284 11.1837 20.661 11.2976C20.6098 11.3665 20.5417 11.5656 20.5073 11.6557C20.4609 11.774 20.4587 11.9702 20.3429 11.9786C19.943 11.6121 19.7014 11.7828 19.4092 12.0411C19.5936 11.6315 19.8648 11.2708 20.1673 10.9785C20.2268 10.9204 20.2875 10.8997 20.3266 10.8589L20.3296 10.8519Z" fill="#DD603A"/>
<path d="M19.1042 12.4276L19.4513 12.7054C19.1898 12.9628 18.9683 13.3181 18.6984 13.5648C18.619 13.6088 18.5361 13.6914 18.4585 13.7413C18.4251 13.5977 18.625 13.6452 18.612 13.4842C18.6068 13.416 18.3725 13.0357 18.2754 13.0208C18.2754 13.0208 18.2604 13.0054 18.2934 12.9786C18.526 12.7786 18.8571 12.6311 19.109 12.4265L19.1042 12.4276Z" fill="#4BC0C1"/>
<path d="M21.499 14.9152C21.576 15.1684 21.6904 15.3749 21.7927 15.6096L20.7497 15.7358C20.6574 15.5682 20.6295 15.3917 20.6045 15.2082L21.499 14.9152Z" fill="#4BC0C1"/>
<path d="M20.3426 11.978L20.3533 12.0134C20.0025 12.0962 19.8695 12.3358 19.6627 12.5361C19.5983 12.5955 19.516 12.6464 19.4517 12.7058L19.1045 12.4279C19.2193 12.3314 19.294 12.1371 19.4119 12.0334C19.7058 11.7811 19.9457 11.6045 20.3455 11.971L20.3426 11.978Z" fill="#83C0D1"/>
<path d="M21.4571 14.5593C21.3765 14.6162 21.4628 14.7978 21.4967 14.9097L20.6023 15.2028C20.5543 14.8417 20.6573 14.6218 20.8989 14.4511C20.9416 14.4221 20.8702 14.3569 21.0149 14.3417C21.1194 14.3297 21.3803 14.5269 21.4571 14.5593Z" fill="#2AAFB9"/>
<path d="M24.5664 3.87348C23.9885 5.46043 22.7233 5.92291 21.5134 6.71923C21.4021 6.87795 21.533 7.52819 21.5277 7.78171C21.5068 8.42364 21.3911 8.9744 21.1344 9.50167C21.0175 9.42204 20.9758 9.91121 20.8894 9.55948C21.2295 8.69718 20.8016 7.61246 20.8957 6.66945C21.0347 6.14472 21.1386 5.79225 21.409 5.34375L21.4287 6.10224C21.9007 5.33495 22.8823 5.31147 23.57 4.79603C23.8177 4.61146 24.1697 4.19415 24.2711 3.86749C24.4277 3.92515 24.4642 4.01114 24.5682 3.87937L24.5664 3.87348Z" fill="#CB284E"/>
<path d="M20.8549 9.56737C20.8549 9.56737 20.7153 9.80218 20.6346 9.859C19.9469 10.3744 18.9636 10.392 18.1658 10.6812C17.9152 10.7718 16.8054 11.3049 16.6971 11.5071C16.6757 11.3355 16.6862 11.15 16.7021 10.9824C17.1579 10.6352 17.5495 10.1454 18.0508 9.86315C18.7503 9.4711 19.7818 9.3917 20.3763 8.99286C20.5565 8.87464 20.6518 8.66295 20.7554 8.46191C20.7848 8.79554 20.9415 9.17485 20.8579 9.56035L20.8549 9.56737Z" fill="#F37785"/>
<path d="M21.1335 9.50162C20.9358 9.90146 20.6222 10.3602 20.2946 10.6203C19.4836 11.2721 18.2191 11.3307 17.2391 11.7827C17.1946 11.8058 17.1299 11.7959 17.0854 11.819C16.9994 11.8582 16.9189 11.9151 16.8347 11.9601C16.7855 11.9843 16.7439 12.0509 16.663 12.0385C16.6759 11.8778 16.6222 11.6508 16.6969 11.507C16.8101 11.3037 17.9151 10.7718 18.1656 10.6812C18.9634 10.392 19.9468 10.3744 20.6346 9.85902C20.7151 9.8022 20.8403 9.57078 20.8548 9.56737C20.8644 9.56511 20.8739 9.56284 20.8836 9.56057C20.97 9.91227 21.0117 9.42312 21.1287 9.50276L21.1335 9.50162Z" fill="#B12455"/>
<path d="M23.5677 4.79006C22.8818 5.31139 21.8984 5.32898 21.4263 6.09626L21.4067 5.33778C22.0533 4.2644 23.127 4.13722 23.5908 2.93671C23.6659 3.23432 23.7447 3.54371 23.7393 3.8477C23.7309 4.20918 23.4932 4.46076 23.5677 4.79006Z" fill="#F37785"/>
<path d="M24.3162 2.728C24.3648 3.05709 24.3609 3.56887 24.2697 3.86158C24.1683 4.18824 23.8163 4.60554 23.5687 4.79012C23.4942 4.4608 23.73 4.20335 23.7403 3.84776C23.7474 3.54965 23.6687 3.24025 23.5918 2.93675C23.4576 2.39448 23.2724 1.87055 23.0152 1.36362C23.0081 1.28961 23.503 0.851205 23.586 0.768555C23.9312 1.41238 24.2106 2.0087 24.3095 2.72325L24.3162 2.728Z" fill="#F98E94"/>
<path d="M24.8289 2.6889L24.7412 2.67173L24.7361 2.55312C24.5738 2.62925 24.5208 2.74266 24.3174 2.73391C24.2118 2.01463 23.9324 1.41831 23.5938 0.779225C23.7189 0.648798 24.2457 0.0956171 24.3377 0.0423889C24.39 0.011132 24.3822 -0.0311923 24.4488 0.0351017C24.7558 0.908689 24.8947 1.82196 24.8307 2.69479L24.8289 2.6889Z" fill="#F1515C"/>
<path d="M20.8897 9.55944C20.8897 9.55944 20.8705 9.56397 20.8609 9.56624C20.9443 9.18073 20.7878 8.80143 20.7583 8.46781C20.6812 7.62197 20.7086 7.40738 20.9008 6.66827C20.8085 7.61717 21.2347 8.696 20.8945 9.55831L20.8897 9.55944Z" fill="#F37785"/>
<path d="M24.8283 2.6889C24.7976 3.11241 24.6997 3.50132 24.5657 3.87349C24.4616 4.00527 24.4251 3.91927 24.2686 3.86161C24.3597 3.5689 24.3636 3.05713 24.315 2.72803C24.5184 2.73678 24.5715 2.62335 24.7337 2.54724L24.7389 2.66585L24.8265 2.68301L24.8283 2.6889Z" fill="#E13144"/>
<path d="M21.3787 11.8091C21.8131 11.9339 22.2266 12.1078 22.6441 12.3122C22.5335 12.3888 22.4722 12.4412 22.3418 12.5035C21.9702 12.4838 21.5545 12.1842 21.2017 12.0907L21.3787 11.8091Z" fill="#7377B7"/>
<path d="M21.378 11.8095L21.2011 12.0911C20.988 12.0341 20.5553 11.9658 20.3564 12.0063L20.3457 11.971C20.4634 11.9685 20.4656 11.7723 20.5101 11.6481C20.8031 11.6295 21.0833 11.7212 21.3762 11.8036L21.378 11.8095Z" fill="#9694CB"/>
<path d="M20.6959 11.29C20.6959 11.29 20.6718 11.2956 20.667 11.2967C20.5297 11.1839 20.2699 11.0243 20.3357 10.851C20.4505 10.7545 20.5509 10.6108 20.6952 10.5263C20.7167 10.597 20.9331 10.8679 20.9354 10.8926C20.9677 10.9985 20.6199 11.1248 20.6959 11.29Z" fill="#DE6D2E"/>
<path d="M25.364 10.9129C26.0157 10.7024 26.7416 10.7014 27.4534 10.8235C28.3062 10.9692 29.137 11.3976 29.9764 11.6347C29.8616 12.0528 29.766 12.4664 29.6938 12.906C28.9601 12.2718 28.0916 11.8208 27.2462 11.5978C27.0736 11.3861 26.6882 11.3888 26.4444 11.3833C26.4348 11.3856 26.2711 11.3043 26.2566 11.3077C26.1533 11.3069 26.0823 11.4119 25.9599 11.4156C25.2862 11.4358 24.8837 11.2974 24.2478 11.6619C24.2219 11.4409 24.3904 11.521 24.4108 11.5036C24.7451 11.2481 24.9442 11.0561 25.3658 10.9188L25.364 10.9129Z" fill="#6FAB53"/>
<path d="M29.9744 11.6288C29.1302 11.3928 28.3043 10.9633 27.4515 10.8176C26.7397 10.6955 26.0186 10.6953 25.362 10.907C25.3987 10.5704 25.3593 10.4409 25.0723 10.496C26.6129 10.0253 28.5532 10.4442 30.1857 11.0365C30.0977 11.2213 30.0294 11.4203 29.9744 11.6288Z" fill="#AFCF78"/>
<path d="M25.0718 10.496C25.3607 10.4467 25.3982 10.5703 25.3615 10.907C24.9399 11.0443 24.7408 11.2363 24.4066 11.4918C24.3813 11.5103 24.2176 11.4292 24.2436 11.6501C23.9755 11.8015 23.7084 12.1421 23.4476 12.3172C23.2216 12.4714 22.8936 12.5614 22.6929 12.6971C22.6754 12.7075 22.6556 12.6932 22.6358 12.7295C22.6189 12.7587 22.6891 12.7863 22.6932 12.8168C22.4111 12.8203 22.0947 12.813 21.8091 12.7038C22.0181 12.6797 22.1605 12.5893 22.3385 12.4969C22.4688 12.4346 22.5302 12.3823 22.6407 12.3058C23.5291 11.7051 23.9959 10.8192 25.07 10.4901L25.0718 10.496Z" fill="#6FAB53"/>
<path d="M27.245 11.5925C27.0319 11.5354 26.648 11.4241 26.4558 11.4188C25.7504 11.4023 24.5707 12.5011 23.6884 12.7157L22.7026 12.7083C22.9033 12.5726 23.2265 12.4838 23.4573 12.3283C23.7164 12.1473 23.9852 11.8124 24.2532 11.6608C24.8889 11.2962 25.2917 11.4348 25.9653 11.4147C26.0878 11.411 26.1588 11.3059 26.262 11.3067C26.2716 11.3045 26.4354 11.3858 26.4499 11.3824C26.6936 11.388 27.0791 11.3855 27.2516 11.5972L27.245 11.5925Z" fill="#50985C"/>
<path d="M22.696 12.703L23.6819 12.7102C23.3407 12.7907 23.0561 12.82 22.7012 12.8217C22.6971 12.7911 22.6269 12.7635 22.6437 12.7343C22.6637 12.698 22.6834 12.7123 22.7008 12.7018L22.696 12.703Z" fill="#206449"/>
<path d="M17.9815 13.254C17.884 13.34 17.807 13.4591 17.7132 13.5569C17.2988 13.989 16.9649 14.4147 16.6241 14.9365C16.593 14.8682 16.5449 14.93 16.5328 14.9581C16.4742 14.8836 16.4165 14.8468 16.3343 14.8473C16.2649 14.7375 16.2237 14.6021 16.1572 14.4854C16.1537 14.4736 16.1501 14.4619 16.1465 14.4501C16.5799 13.7928 16.5864 12.8831 16.6593 12.0396C16.7403 12.0521 16.7818 11.9855 16.8311 11.9613L17.9767 13.2551L17.9815 13.254Z" fill="#F1883E"/>
<path d="M15.793 13.9342C15.8649 14.0685 15.9637 14.1903 16.0385 14.3177C16.0672 14.3613 16.117 14.4064 16.1458 14.4501C16.1493 14.4618 16.1529 14.4736 16.1565 14.4854L15.3213 15.5653L14.7715 14.7743C14.7893 14.6124 14.7063 14.3229 14.7715 14.131C14.9894 13.7642 15.2924 13.5413 15.4726 13.2024C15.61 13.1637 15.5446 13.1855 15.5637 13.2818C15.6208 13.5712 15.6542 13.6641 15.7912 13.9283L15.793 13.9342Z" fill="#6FAB53"/>
<path d="M13.7336 12.6479L13.585 12.1595C13.7631 11.9156 13.9514 11.6883 14.1164 11.4349C14.6268 10.6586 15.01 9.93753 15.3071 8.98447C15.4187 8.62385 15.5065 8.2689 15.5642 7.88318C15.6327 8.17605 15.8002 8.48971 15.8542 8.83645C16.0862 10.3773 14.4779 11.7092 13.7384 12.6468L13.7336 12.6479Z" fill="#FAB624"/>
<path d="M13.645 12.795L14.1858 14.5721C14.304 14.6388 14.2504 15.0047 14.4259 14.938C14.3963 15.0775 14.3876 15.2182 14.3579 15.3577C13.922 14.7542 13.3738 14.1204 13.0767 13.4148L13.1768 13.4731C13.298 13.2112 13.476 13.0178 13.6421 12.8021L13.645 12.795Z" fill="#C8572B"/>
<path d="M13.7335 12.6484C13.704 12.6868 13.6722 12.7512 13.6475 12.7885C13.4814 13.0045 13.2986 13.1991 13.1823 13.46L13.0822 13.4017C13.0822 13.4017 13.0498 13.3967 13.0193 13.2965C12.9906 13.2024 12.9955 13.1507 12.98 13.066C13.1672 12.7504 13.376 12.4549 13.5895 12.1584L13.7383 12.6472L13.7335 12.6484Z" fill="#DB7A26"/>
<path d="M14.7717 14.7742C14.7424 15.0334 14.5882 15.3726 14.584 15.6636C14.505 15.5561 14.4342 15.4593 14.3618 15.3566C14.3933 15.2229 14.4002 15.0763 14.4298 14.9369C14.5054 14.61 14.6169 14.4008 14.7765 14.1298C14.7113 14.3217 14.7942 14.6112 14.7765 14.7731L14.7717 14.7742Z" fill="#CD2235"/>
<path d="M18.7846 2.10297C19.87 4.18043 19.8408 5.77665 18.7752 7.40294C17.8747 8.77588 16.8694 8.97524 16.7025 10.9824C16.6915 11.149 16.6761 11.3355 16.6974 11.507C16.6209 11.6449 16.6764 11.8778 16.6634 12.0385C16.5905 12.8819 16.5841 13.7916 16.1507 14.4489C16.1219 14.4052 16.0722 14.3602 16.0435 14.3165C16.2687 12.9074 15.9963 11.4202 16.1693 9.99185C16.4414 9.65015 16.6516 9.24106 16.9169 8.89464C17.3249 8.3569 17.8175 7.89382 18.217 7.34544C19.1228 6.09111 19.7055 4.87515 18.6509 3.06794C18.6102 3.00187 18.5659 2.92402 18.5204 2.85908C18.5736 2.59422 18.6378 2.3142 18.7834 2.11586L18.7846 2.10297Z" fill="#0D8191"/>
<path d="M18.2112 7.34072C18.2033 7.02724 17.8019 6.87597 17.6865 6.58154C18.187 5.73819 18.7854 5.14921 18.2407 3.88391C18.3565 3.60432 18.4297 3.25277 18.6449 3.06323C19.6948 4.87157 19.1121 6.08753 18.2112 7.34072Z" fill="#4BC0C1"/>
<path d="M18.5186 2.85328C18.5593 2.91936 18.6084 2.99607 18.649 3.06214C18.4338 3.25168 18.3606 3.60323 18.2448 3.88282C17.9082 3.0982 17.2403 2.61249 16.6196 2.19762C16.7793 1.92661 16.9951 1.70538 17.1331 1.41425C17.6211 1.81627 18.1533 2.29615 18.5234 2.85214L18.5186 2.85328Z" fill="#74CDC3"/>
<path d="M18.7842 2.10304C18.6386 2.30138 18.5744 2.5814 18.5211 2.84625C18.151 2.29025 17.6188 1.81038 17.1309 1.40835C17.3146 1.03072 17.3928 0.627565 17.4243 0.172363C17.9124 0.744608 18.4246 1.41214 18.7824 2.09715L18.7842 2.10304Z" fill="#2AAFB9"/>
<path d="M18.2102 7.34073C17.8124 7.895 17.3181 8.35219 16.9101 8.88993L16.5342 8.61914C16.8615 7.8166 17.2666 7.28588 17.6856 6.58154C17.801 6.87597 18.2024 7.02725 18.2102 7.34073Z" fill="#4BC0C1"/>
<path d="M16.1527 9.83202C16.1527 9.83202 16.1729 9.96601 16.1686 9.98598C15.9956 11.4143 16.2679 12.9016 16.0427 14.3107C15.9631 14.1844 15.8643 14.0626 15.7972 13.9271C15.9804 13.5307 15.7515 12.9477 15.7342 12.5355C15.683 11.3178 16.064 10.7927 16.1269 9.83183L16.1557 9.82507L16.1527 9.83202Z" fill="#2AAFB9"/>
<path d="M16.9159 8.88879C16.6505 9.23522 16.4403 9.64426 16.1683 9.98596C16.1708 9.9602 16.1481 9.85196 16.1524 9.83209C16.218 9.38772 16.379 9.00286 16.5352 8.61914L16.9111 8.88993L16.9159 8.88879Z" fill="#51B49E"/>
<path d="M15.7933 13.9342C15.6545 13.6642 15.6228 13.577 15.5657 13.2877C15.5485 13.1972 15.6121 13.1696 15.4746 13.2083C15.583 13.0061 15.5954 12.7257 15.7321 12.5484C15.7494 12.9606 15.9782 13.5436 15.7951 13.9401L15.7933 13.9342Z" fill="#855697"/>
<path d="M14.3733 9.69041C14.3143 9.7674 14.2337 9.82422 14.173 9.89531C13.4943 10.7114 12.7548 11.6995 12.975 13.0665C12.9906 13.1512 12.9808 13.2039 13.0142 13.297C12.4179 12.4033 11.4153 10.3946 11.5893 9.376C11.812 8.09365 13.697 9.14361 14.3715 9.68453L14.3733 9.69041Z" fill="url(#paint3_linear_6413_75963)"/>
<path d="M16.2432 17.6813C16.4183 17.8671 16.5902 18.0599 16.773 18.2375C16.8479 18.3144 16.9366 18.3692 16.9948 18.4249C17.0181 18.4508 17.0481 18.4816 17.0913 18.5219C18.4758 19.8224 22.2414 22.7369 21.0238 18.414C20.9719 18.2433 20.6342 17.6923 20.9163 17.7393C20.9637 17.7596 21.0279 17.8012 21.0705 17.8227C21.3537 18.5506 21.8996 20.1751 21.4201 20.7486C20.5344 21.8152 17.7553 19.5194 16.8467 18.6994C16.5566 18.4399 16.302 18.1279 16.0322 17.851C16.056 17.6751 16.1028 17.6767 16.2432 17.6813Z" fill="#F3942C"/>
<path d="M16.1573 14.4854C16.2219 14.5962 16.2631 14.7315 16.3344 14.8472C16.1729 14.8411 16.2425 14.8499 16.2147 14.9953C16.18 15.1863 16.2043 15.4013 16.2022 15.5973C16.0903 15.6868 15.9199 15.7018 15.823 15.8067C15.7339 15.9033 15.745 16.1088 15.7069 16.2377C15.6393 16.4554 15.601 16.6852 15.5533 16.9172C15.2087 16.5129 14.9057 16.0924 14.5781 15.6589C14.587 15.3667 14.7414 15.0275 14.7658 14.7695L15.3155 15.5606L16.1507 14.4805L16.1573 14.4854Z" fill="#963580"/>
<path d="M14.1165 11.435C13.9466 11.6894 13.7583 11.9168 13.585 12.1595C13.3714 12.4559 13.1674 12.75 12.9752 13.0665C12.755 11.6995 13.4928 10.7055 14.1732 9.89532C14.2304 10.1341 13.6867 11.0381 13.7333 11.1406C13.7405 11.1642 14.0594 11.4169 14.1146 11.4291L14.1165 11.435Z" fill="#FAB624"/>
<path d="M14.3726 9.6904C13.6982 9.14945 11.8131 8.09949 11.5905 9.38185C11.4437 9.91469 11.6438 10.5045 11.7929 11.0622C11.5346 10.4672 11.2246 9.60065 11.3793 9.00913C11.734 7.67036 13.7881 8.92013 14.5838 9.41982C14.591 9.44335 14.4022 9.65191 14.3726 9.6904Z" fill="#FAB624"/>
<path d="M14.7094 16.3972C14.8184 16.5354 14.9053 16.6348 15.0174 16.766C15.3228 17.1606 15.4972 17.3276 15.8154 17.6625C15.8603 17.7087 15.9875 17.8048 16.0372 17.8498C16.3134 18.1315 16.5614 18.4388 16.8515 18.6983L16.846 18.7816C16.7981 18.7425 16.6992 18.6208 16.6494 18.6262L16.4579 18.9111C15.7202 18.1958 15.0258 17.4199 14.3765 16.5893C14.4911 16.5938 14.6206 16.3929 14.7077 16.3913L14.7094 16.3972Z" fill="#FDD252"/>
<path d="M16.9553 16.7882C16.8905 17.1503 16.849 17.5385 16.8069 17.908C16.7941 18.0181 16.7927 18.1321 16.7781 18.2364C16.5952 18.0588 16.4233 17.866 16.2484 17.6802C16.2334 17.6649 16.213 17.6318 16.1962 17.6106C16.1318 17.3987 16.3677 16.7186 16.3499 16.6093L16.9602 16.787L16.9553 16.7882Z" fill="#2D5699"/>
<path d="M16.3208 16.534C16.3208 16.534 16.3369 16.5869 16.3442 16.6105C16.3619 16.7198 16.1242 17.394 16.1905 17.6116C15.9772 17.3845 15.759 17.1584 15.5518 16.9173C15.6014 16.6911 15.6378 16.4555 15.7055 16.2377C15.8339 16.2704 16.2539 16.3984 16.3208 16.534Z" fill="#127EA4"/>
<path d="M15.814 17.6575C15.4957 17.3223 15.326 17.154 15.0156 16.7601C15.2715 17.0596 15.5858 17.3137 15.814 17.6575Z" fill="#FDE479"/>
<path d="M15.0189 16.7661C14.9065 16.6349 14.8193 16.5355 14.71 16.3973C14.8445 16.3971 14.9415 16.6645 15.0189 16.7661Z" fill="#FDE479"/>
<path d="M18.7612 14.3122C18.9325 14.5874 19.3128 14.7375 19.2967 15.1075C19.2931 15.0957 19.1642 14.9936 19.1193 14.9473C19.0593 14.8857 19.0185 14.8701 18.9543 14.8285C18.9099 14.8011 18.8549 14.6878 18.8039 14.7062C18.5951 14.9006 18.4321 15.16 18.443 15.5172C18.3982 15.37 18.1673 15.5254 18.067 15.568C17.9793 15.6013 17.8916 15.6347 17.8039 15.668C17.7337 15.2679 18.3536 15.0712 18.0324 14.6925C18.1225 14.6333 18.2668 14.4983 18.3527 14.4591C18.4975 14.3934 18.6159 14.3592 18.7696 14.3229L18.7612 14.3122Z" fill="#6D579B"/>
<path d="M19.082 14.2809C19.1914 14.5389 20.2622 16.0269 20.1899 16.1449C20.1274 16.2101 19.8821 16.0977 19.8676 16.1011C19.7925 15.854 19.4662 15.3066 19.3038 15.1115C19.3202 14.7419 18.9398 14.592 18.7686 14.317C18.8791 14.291 18.9793 14.2988 19.0868 14.2798L19.082 14.2809Z" fill="#FCB857"/>
<path d="M18.3469 14.4545C18.2562 14.4948 18.1166 14.6287 18.0266 14.6879C17.8636 14.7957 17.6822 14.8765 17.5312 15.0067C17.6697 14.7847 17.6993 14.6451 17.9355 14.5074C18.0322 14.453 18.2924 14.3095 18.345 14.4486L18.3469 14.4545Z" fill="#9C695E"/>
<path d="M19.6333 16.7554C19.9077 16.7601 20.197 16.7801 20.4779 16.84C20.5034 16.9916 20.4527 17.5018 20.5173 17.6127C20.5377 17.6458 20.8264 17.6975 20.9163 17.7393C20.636 17.6983 20.9785 18.2481 21.0238 18.414C22.2414 22.737 18.4758 19.8225 17.0913 18.5219L18.1715 17.7058L17.9638 17.0736C18.5081 16.8317 19.03 16.7527 19.6399 16.7602L19.6333 16.7554Z" fill="#DE6D2E"/>
<path d="M19.6067 16.1249L19.6358 16.7619C19.0258 16.7543 18.504 16.8332 17.9596 17.0753C17.6971 17.194 17.4242 17.3973 17.1957 17.5774C17.0602 17.4201 17.3296 17.205 17.4029 17.1246C17.6687 16.8472 18.0426 16.5697 18.3815 16.414C18.7919 16.2225 19.1479 16.1574 19.6067 16.1249Z" fill="#FAB624"/>
<path d="M19.2987 15.1126C19.461 15.3077 19.7824 15.8563 19.8624 16.1023C19.7802 16.1028 19.6919 16.1172 19.6066 16.1248C19.1479 16.1574 18.7918 16.2224 18.3814 16.4139C18.1956 16.2432 18.2401 15.848 18.4191 15.8437C18.443 15.838 18.4388 15.9084 18.4904 15.9089C18.5 15.9066 18.5002 16.0768 18.5997 15.8452C18.7967 15.8492 18.8826 15.4379 18.9681 15.2789C18.9881 15.2428 19.1994 15.1929 19.1182 14.9597C19.1614 15 19.2873 15.1091 19.2956 15.1197L19.2987 15.1126Z" fill="#DE6D2E"/>
<path d="M18.1589 13.0923C18.0975 13.1445 18.0379 13.2028 17.9767 13.2551L16.8311 11.9613C16.9152 11.9162 17.0005 11.8582 17.0816 11.8201L18.1589 13.0923Z" fill="#FAB624"/>
<path d="M17.2401 11.7828L18.294 12.9783C18.258 13.0121 18.276 13.0205 18.276 13.0205C18.2603 13.0368 18.2075 13.0492 18.1666 13.0842L17.0894 11.812C17.1338 11.7889 17.1987 11.7988 17.2432 11.7758L17.2401 11.7828Z" fill="#FDD252"/>
<path d="M18.2723 13.0275C18.3695 13.0424 18.6036 13.4224 18.6089 13.4905C18.6218 13.6514 18.4268 13.6028 18.4553 13.7475C18.3778 13.7972 18.3513 13.8287 18.296 13.867L17.9756 14.1003C17.6606 14.3512 17.409 14.6754 17.0635 14.8768C17.2809 14.4408 17.4374 13.956 17.7124 13.5569C17.8063 13.4591 17.8833 13.34 17.9807 13.2539C18.042 13.2017 18.1015 13.1435 18.1629 13.0911C18.2086 13.0551 18.2548 13.0379 18.2723 13.0275Z" fill="#4B9694"/>
<path d="M18.0209 14.6887C18.3439 15.0733 17.7222 15.2642 17.7924 15.6642C17.5899 15.7435 17.3809 15.8181 17.1719 15.8926C17.2895 15.5178 17.3198 15.3465 17.5256 15.0075C17.6784 14.8832 17.858 14.7966 18.0209 14.6887Z" fill="#554E94"/>
<path d="M17.713 13.557C17.4408 13.9491 17.2815 14.4408 17.0641 14.8769C16.9532 15.1048 16.7834 15.3593 16.6816 15.5662C16.6785 15.5733 16.6329 15.6092 16.6299 15.6163L16.4292 15.3798C16.5159 15.2585 16.545 15.0497 16.622 14.9307C16.9628 14.4088 17.2968 13.9831 17.7111 13.5511L17.713 13.557Z" fill="#4BC0C1"/>
<path d="M18.0606 15.5626C18.168 15.6445 17.8241 16.0034 17.791 16.0301C17.7231 16.0777 17.3627 16.1627 17.3452 16.1731C17.2809 16.2325 17.2826 16.6613 17.0127 16.5356C17.0151 16.5099 17.0105 16.3594 17.0178 16.3325C17.0504 16.1859 17.1408 16.0257 17.1769 15.8909C17.3861 15.8164 17.5903 15.743 17.7976 15.6625C17.8852 15.6291 17.9729 15.5958 18.0606 15.5626Z" fill="#AD522D"/>
<path d="M16.9442 16.3118C16.9442 16.3118 16.9621 16.3707 17.0174 16.3324C17.015 16.3582 17.0195 16.5086 17.0123 16.5356C16.9971 16.6212 16.9754 16.702 16.9602 16.7877L16.35 16.6098C16.35 16.6098 16.3338 16.5568 16.3267 16.5332C16.3743 16.3516 16.4323 16.1864 16.498 16.0131C16.7087 15.9949 16.7991 16.2072 16.9489 16.3107L16.9442 16.3118Z" fill="#206096"/>
<path d="M16.9447 16.3121C16.7947 16.2086 16.7043 15.9963 16.4937 16.0145C16.5382 15.8903 16.5787 15.7356 16.6365 15.621C16.6395 15.6139 16.6852 15.578 16.6882 15.5709C16.8769 15.8862 17.1728 15.9111 16.9447 16.3121Z" fill="#127EA4"/>
<path d="M18.2948 13.8612C18.2191 13.9169 18.0455 14.0399 17.9746 14.0945L18.2948 13.8612Z" fill="#0D8191"/>
<path d="M16.533 14.9581C16.533 14.9581 16.598 14.867 16.6242 14.9366C16.5472 15.0558 16.5163 15.2588 16.4314 15.386C16.3201 15.5449 16.2908 15.5328 16.2023 15.5979C16.2045 15.4017 16.1785 15.1806 16.2147 14.9953C16.4675 15.0304 16.4143 15.1944 16.533 14.9581Z" fill="#F3942C"/>
<path d="M16.3345 14.8472C16.4185 14.8527 16.4743 14.8837 16.533 14.9582C16.4143 15.1944 16.4675 15.0304 16.2148 14.9954C16.2427 14.85 16.1664 14.8364 16.3345 14.8472Z" fill="#A07CB5"/>
<path d="M17.091 18.5219C17.0479 18.4817 17.0228 18.4497 16.9946 18.4248C16.9446 18.2096 17.157 17.9261 17.0174 17.7383C17.0848 17.6719 17.1208 17.6382 17.1996 17.5754C17.428 17.3954 17.7009 17.1923 17.9635 17.0736L18.1714 17.7057L17.091 18.5219Z" fill="#C4433A"/>
<path d="M17.0179 17.7383C17.1624 17.9251 16.9451 18.2099 16.9953 18.4253C16.9371 18.3697 16.8465 18.309 16.7734 18.2378C16.7927 18.1323 16.7941 18.0183 16.8021 17.9091C16.885 17.877 16.9487 17.7988 17.0131 17.7394L17.0179 17.7383Z" fill="#AD2B41"/>
<path d="M16.6362 15.6212C16.5802 15.7417 16.538 15.8905 16.4934 16.0147C16.4325 16.1869 16.3715 16.359 16.322 16.5348C16.255 16.3991 15.8349 16.271 15.7065 16.2382C15.7463 16.1152 15.7352 15.9095 15.8225 15.8069C15.9174 15.6961 16.0898 15.687 16.2016 15.5975C16.293 15.5254 16.3224 15.5375 16.4307 15.3856L16.6314 15.6223L16.6362 15.6212Z" fill="#42A3B5"/>
<path d="M18.4386 15.5175C18.4433 15.6173 18.5282 15.8117 18.4908 15.9088C18.4409 15.9142 18.4501 15.8428 18.4194 15.8436C18.2405 15.8481 18.1961 16.2433 18.3819 16.4138C18.0382 16.5706 17.6691 16.8469 17.4032 17.124C17.3298 17.2044 17.0605 17.4193 17.1959 17.5766C17.122 17.6382 17.081 17.673 17.0137 17.7394C16.9493 17.7987 16.8856 17.8769 16.8027 17.909C16.8448 17.5396 16.891 17.1503 16.9512 16.7892C16.9663 16.7036 16.9881 16.6229 17.0032 16.5373C17.2732 16.6628 17.2715 16.2343 17.3358 16.175C17.3515 16.1587 17.7137 16.0796 17.7816 16.032C17.8116 16.0123 18.1539 15.6478 18.0513 15.5647C18.1534 15.528 18.3777 15.3679 18.4272 15.5139L18.4386 15.5175Z" fill="#DE6D2E"/>
<path d="M18.9511 14.8352C18.7957 15.137 18.7351 15.5301 18.6025 15.839C18.5031 16.0708 18.5046 15.9064 18.4932 15.9027C18.5257 15.8066 18.4407 15.612 18.4409 15.511C18.4301 15.1538 18.5932 14.8944 18.8018 14.7C18.8546 14.6876 18.908 14.795 18.9523 14.8224L18.9511 14.8352Z" fill="#6FAB53"/>
<path d="M19.1208 14.9529C19.2021 15.1861 18.9907 15.236 18.9709 15.2723C18.8853 15.4314 18.8013 15.8489 18.6025 15.8389C18.7399 15.5288 18.7957 15.1368 18.9511 14.8351C19.0152 14.8768 19.0579 14.8983 19.116 14.954L19.1208 14.9529Z" fill="#CB5239"/>
<defs>
<linearGradient id="paint0_linear_6413_75963" x1="28.3283" y1="5.3066" x2="30.9333" y2="6.02104" gradientUnits="userSpaceOnUse">
<stop stop-color="#28A3B1"/>
<stop offset="1" stop-color="#10889C"/>
</linearGradient>
<linearGradient id="paint1_linear_6413_75963" x1="7.04847" y1="18.2489" x2="9.9595" y2="23.1693" gradientUnits="userSpaceOnUse">
<stop stop-color="#FEDA6D"/>
<stop offset="1" stop-color="#F3972B"/>
</linearGradient>
<linearGradient id="paint2_linear_6413_75963" x1="10.8492" y1="14.2871" x2="15.1352" y2="19.702" gradientUnits="userSpaceOnUse">
<stop stop-color="#D777A7"/>
<stop offset="1" stop-color="#A03181"/>
</linearGradient>
<linearGradient id="paint3_linear_6413_75963" x1="12.0529" y1="11.0515" x2="13.8439" y2="10.7651" gradientUnits="userSpaceOnUse">
<stop stop-color="#B52D2A"/>
<stop offset="1" stop-color="#D25633"/>
</linearGradient>
</defs>
</svg>
