<svg width="110" height="100" viewBox="0 0 56 34" fill="none" xmlns="http://www.w3.org/2000/svg">
<path d="M6.47431 5.48397C7.71473 5.23518 7.35125 7.45488 6.8872 8.01775C6.13553 7.98775 4.74336 7.20433 4.94804 6.33797C5.10155 5.69041 5.95203 6.08036 6.00849 6.05389C6.04378 6.03801 6.14965 5.55102 6.47431 5.48573V5.48397Z" fill="#EB5842"/>
<path d="M4.89647 33.2444C5.76988 33.2355 6.65741 33.2126 7.53259 33.1932C7.80255 33.1879 8.01958 33.2761 8.15368 33.142C8.12369 33.3661 8.46423 33.1914 8.5154 33.1932C9.74171 33.2355 10.9592 33.2444 12.1855 33.2444C12.272 33.2444 12.3584 33.2444 12.4431 33.2444L12.339 33.502C11.8061 33.502 11.2697 33.502 10.7369 33.502C8.04252 33.4967 4.27185 33.7984 1.71513 33.502C1.53516 33.4808 1.32166 33.3996 1.14697 33.3467C1.87923 33.172 2.77205 33.2002 3.55018 33.1914C3.70369 33.1897 3.8819 33.142 4.016 33.1403C4.03365 33.1403 4.05129 33.1403 4.06717 33.1403C4.13246 33.1403 4.61416 33.2461 4.89471 33.2444H4.89647Z" fill="#123955"/>
<path d="M45.3237 33.1933C45.7719 33.1933 46.2148 33.2444 46.6683 33.2444C47.4764 33.2444 48.2951 33.1897 49.0979 33.1933C49.7349 33.195 50.3736 33.1915 51.0106 33.1933C51.1624 33.1933 51.3388 33.2444 51.4235 33.2444C52.8545 33.2533 54.3384 33.1562 55.7394 33.3485C53.008 33.5761 50.2395 33.4879 47.494 33.5038C46.4618 33.5091 45.4261 33.4985 44.3921 33.5038V33.1933H45.322H45.3237Z" fill="#123955"/>
<path d="M51.4772 10.9627C51.3025 10.9292 50.8861 10.444 50.7538 10.2904C50.6179 9.93578 50.3603 9.36586 50.7802 9.10119C51.3078 8.76771 51.6695 9.27234 51.8142 9.25646C51.8583 9.25117 52.1159 8.91239 52.1759 8.89475C52.9046 8.67948 52.9417 9.83874 52.6664 10.264C52.6364 10.3099 51.8654 10.9451 51.8142 10.9627C51.7771 10.9751 51.5284 10.9733 51.479 10.9627H51.4772Z" fill="#EB5842"/>
<path d="M16.1151 7.19027C16.0251 7.63668 15.9545 8.07956 15.9087 8.5348C15.8663 8.94768 15.8204 9.36057 15.8046 9.77522L7.06689 9.64641C7.57506 9.43468 8.86489 8.27365 9.31659 8.22425C9.94298 8.1572 10.7264 9.03943 11.074 8.89651C11.2116 8.84005 11.2769 8.21366 11.3581 8.04427C12.2791 6.10159 14.6612 5.27229 16.1151 7.19203V7.19027Z" fill="#FBFDFE"/>
<path d="M7.53269 33.1932C6.65751 33.2126 5.76998 33.2356 4.89657 33.2444C4.70072 31.8805 3.50441 30.8924 2.98389 29.6766C4.26313 31.0141 5.55648 32.6868 7.40388 33.0362C7.43564 33.0415 7.64209 33.0962 7.53269 33.1915V33.1932Z" fill="#FBFDFE"/>
<path d="M8.51495 33.1421V33.1932C8.46378 33.1932 8.12324 33.3662 8.15323 33.1421C8.27322 33.1385 8.39497 33.1456 8.51495 33.1421Z" fill="#387266"/>
<path d="M16.7367 32.8316C16.5938 33.0416 16.1403 32.918 16.2197 33.2445C14.9634 33.2445 13.7036 33.2445 12.4455 33.2445C12.359 33.2445 12.2726 33.2445 12.1879 33.2445C12.1596 32.7063 13.7477 32.1734 13.79 32.0817C13.8482 31.9564 13.6365 31.6547 13.79 31.4871C14.3935 31.8858 16.0397 32.6287 16.7367 32.8316Z" fill="#F47626"/>
<path d="M19.5788 33.1933V33.2444C18.4601 33.2427 17.3379 33.2444 16.2192 33.2444C16.1398 32.9162 16.5933 33.0398 16.7362 32.8315C17.6502 33.0962 18.6295 33.1509 19.5788 33.1933Z" fill="#F47626"/>
<path d="M40.4138 32.4698L41.4989 33.1933C41.4266 33.1933 41.2307 33.2445 41.086 33.2445C40.3979 33.2445 39.7062 33.2445 39.0181 33.2445L39.0692 32.8827C39.4398 32.8033 40.0062 32.5881 40.4138 32.4698Z" fill="#F0C544"/>
<path d="M2.62197 23.1129C2.7049 23.1446 2.79842 23.1817 2.87958 23.217C3.14955 23.3316 3.38951 23.5169 3.65418 23.6298C3.49009 23.7304 3.5589 24.3021 3.3701 24.3533C3.1019 24.4256 1.91971 23.7498 1.66386 23.8875C1.40801 24.0251 1.59681 24.8897 0.913962 24.9726C0.749867 24.5385 0.529308 24.1345 0.396973 23.681C0.77104 23.3334 0.756925 23.6757 0.785156 23.681C0.823974 23.6898 1.54388 23.6651 1.55976 23.6298C1.66033 23.411 1.49094 23.0317 1.66386 22.8023C1.97088 22.9152 2.32024 22.9964 2.6202 23.1129H2.62197Z" fill="#BAC637"/>
<path d="M2.62238 23.1128C2.32242 22.9964 1.97305 22.9152 1.66603 22.8023C1.49488 23.0317 1.66251 23.411 1.56193 23.6298C1.54605 23.6651 0.824382 23.6898 0.787329 23.681C0.760862 23.6757 0.773213 23.3334 0.399145 23.681C0.0656604 22.5394 0.300335 22.7599 1.43312 22.7247C1.38019 22.6153 0.686754 22.0118 0.838498 21.9236C1.5584 21.9553 2.15656 22.6011 2.62238 23.1128Z" fill="#85AC3D"/>
<path d="M12.0836 27.921C12.1559 28.3939 11.7254 28.1186 11.6954 28.1275C11.5966 28.1592 11.3707 28.3763 11.1784 28.3339L10.635 28.955C10.6508 28.8015 10.7249 28.6392 10.6861 28.4645C10.3385 28.4998 10.5573 29.8196 10.3509 29.8866C10.1356 29.8231 9.84447 29.502 9.70508 29.4208L9.80918 28.3357C10.455 28.3639 10.8202 28.0992 11.4113 27.974C11.5895 27.9369 11.8683 27.9792 12.0836 27.9228V27.921Z" fill="#85AC3D"/>
<path d="M9.80897 28.3339L9.70487 29.4191C9.67311 29.4014 9.55313 29.4367 9.52313 29.4191C8.86851 29.0044 8.81205 29.0291 8.97967 28.1275C9.22141 28.2316 9.5443 28.3234 9.80721 28.3339H9.80897Z" fill="#85AC3D"/>
<path d="M5.67273 24.3532C6.39792 24.6514 8.01594 25.2478 8.15357 26.0594C8.25238 26.6452 8.02477 27.1834 8.46412 27.7657C8.28061 28.1327 8.20827 29.0626 8.82584 28.8773L8.77467 28.0251C8.83642 28.0639 8.91406 28.0992 8.98111 28.1292C8.81348 29.0308 8.86818 29.0079 9.52456 29.4208C9.55456 29.4384 9.67455 29.4031 9.70631 29.4208C9.8457 29.5019 10.1368 29.8231 10.3521 29.8866C10.5585 29.8195 10.3415 28.4997 10.6874 28.4644C10.7262 28.6391 10.6503 28.8032 10.6362 28.9549C10.5427 29.8866 10.338 30.0913 11.4373 30.4018C11.6049 30.3365 11.5625 28.7061 11.8254 28.5668C11.8907 28.8579 11.5131 30.2783 11.619 30.4283C11.679 30.5147 12.0019 30.363 12.0319 30.5324C11.776 30.6224 11.3631 30.4988 11.1267 30.5588C11.1091 30.5624 11.1161 30.6647 10.8938 30.7653C10.6238 30.3683 9.44164 29.9942 9.05875 29.6272C8.98817 29.606 8.93876 29.7913 8.92994 29.8336C8.84524 29.8283 8.88583 29.7366 8.87877 29.6784C8.83995 29.3766 7.58718 28.7097 7.27663 28.4891C7.26957 28.4838 7.23252 28.4274 7.17253 28.385C6.82493 28.1345 6.4438 27.9015 6.08738 27.6616C5.61979 27.3457 5.44864 27.1022 4.84696 26.7829C4.01765 26.3435 3.14954 26.0453 2.26201 25.7489C1.88617 25.6236 1.51211 25.4807 1.12392 25.3872C1.07099 25.2531 0.973944 25.1243 0.91748 24.9743C1.60033 24.8914 1.40977 24.0285 1.66738 23.8891C1.92499 23.7497 3.10542 24.4273 3.37362 24.355C3.56242 24.3038 3.49361 23.7321 3.6577 23.6315C4.3582 23.9315 5.10457 24.1221 5.67449 24.355L5.67273 24.3532Z" fill="#BAC637"/>
<path d="M8.77484 28.0234L8.82601 28.8756C8.20844 29.0609 8.28078 28.131 8.46429 27.764C8.55604 27.8857 8.64779 27.944 8.77484 28.0216V28.0234Z" fill="#85AC3D"/>
<path d="M2.85499 24.5597C2.98909 24.602 3.03144 25.5178 3.01026 25.6978C2.61502 25.6572 2.56738 24.4697 2.85499 24.5597Z" fill="#BAC637"/>
<path d="M9.34294 32.1081C9.23707 32.1822 8.93711 32.5351 8.87712 32.6763C8.71655 32.8139 8.60009 32.9145 8.56657 33.1421C8.54892 33.1421 8.53128 33.1421 8.5154 33.1421C8.39542 33.1456 8.27367 33.1386 8.15368 33.1421C8.01958 33.2762 7.80432 33.188 7.53259 33.1933C7.64199 33.098 7.43554 33.0451 7.40378 33.038C5.55638 32.6886 4.26303 31.0159 2.98379 29.6785C2.84086 29.5302 2.73676 29.3379 2.5709 29.2126C2.5409 29.0909 2.50209 28.9709 2.4668 28.8509C2.60972 28.895 2.75264 29.2903 2.93262 29.2638C3.01555 29.2514 3.02966 29.1632 3.03672 29.1597C3.44078 28.9585 4.57887 28.1539 4.97587 28.2298C5.01998 28.2386 5.39935 28.4874 5.33759 28.5915C5.28466 28.6833 3.54136 29.0997 3.37373 29.3661C3.82367 29.5126 5.93927 28.2651 6.06279 29.0044C5.85281 29.1244 5.46287 29.1332 5.13291 29.2109L4.09893 29.8831C4.91765 29.6679 5.84576 28.8068 6.65741 29.4438L5.39052 29.779C5.0041 30.0649 4.43595 30.1196 4.1501 30.4513C5.09409 30.3472 6.5639 29.0997 7.30321 30.0384L5.95868 30.296C5.62167 30.6136 5.10821 30.6207 4.8206 30.9683C5.65519 30.8977 7.38614 29.4385 7.81843 30.6577L5.98339 31.3035C6.45273 31.3494 7.6614 30.6701 8.02488 30.7601C8.11663 30.783 9.1806 31.9334 9.34294 32.1046V32.1081Z" fill="#1C5F3B"/>
<path d="M6.08581 27.6616C5.2371 28.5315 6.444 28.7926 6.93805 29.3679L7.17096 28.385C7.22919 28.4274 7.26801 28.4839 7.27507 28.4892C6.86395 29.7913 8.01262 30.4777 8.7484 31.2805C8.78192 30.82 8.81368 30.3718 8.77487 29.9113C8.76781 29.8249 8.73075 29.6519 8.87897 29.6784C8.88603 29.7366 8.84545 29.8284 8.93014 29.8337C8.78722 30.5254 8.78545 31.5346 9.44713 31.9528C9.41537 32.0181 9.41184 32.0428 9.39596 32.1081C9.38361 32.1151 9.35538 32.0993 9.34479 32.1081C9.18246 31.9369 8.11848 30.7865 8.02673 30.7636C7.66149 30.6736 6.45282 31.3511 5.98524 31.307L7.82029 30.6612C7.38799 29.4402 5.65528 30.9012 4.82245 30.9718C5.1083 30.6242 5.62352 30.6171 5.96054 30.2995L7.30506 30.0419C6.56399 29.105 5.09418 30.3524 4.15196 30.4548C4.4378 30.1231 5.00596 30.0684 5.39238 29.7825L6.65927 29.4473C5.84585 28.8103 4.91773 29.6713 4.10079 29.8866L5.13476 29.2144C5.46472 29.1367 5.85467 29.1279 6.06464 29.0079C5.94289 28.2686 3.82553 29.5161 3.37559 29.3696C3.54321 29.1032 5.28651 28.685 5.33944 28.595C5.4012 28.4892 5.02184 28.2421 4.97773 28.2333C4.58249 28.1574 3.44264 28.962 3.03857 29.1632C3.10739 28.9285 3.53792 28.6585 3.7373 28.5421C4.07432 28.3445 4.43603 28.1962 4.79775 28.0516C4.66365 28.0392 4.49603 27.801 4.43603 27.7675C4.5966 27.3599 4.76952 27.7675 4.90185 27.6387C4.73247 27.4252 4.64777 27.0229 4.85069 26.7864C5.45413 27.1058 5.62352 27.3511 6.09111 27.6651L6.08581 27.6616Z" fill="#5C9443"/>
<path d="M10.8946 30.7636C10.4164 30.9824 9.97177 31.3282 9.65417 31.7464C9.60829 31.8064 9.45302 31.9405 9.44772 31.9529C8.78605 31.5347 8.78781 30.5254 8.93073 29.8337C8.93956 29.7914 8.98896 29.6061 9.05954 29.6273C9.44419 29.9943 10.6246 30.3666 10.8946 30.7654V30.7636Z" fill="#1C5F3B"/>
<path d="M8.87738 29.6785C8.73093 29.652 8.76622 29.825 8.77328 29.9114C8.81386 30.3719 8.78034 30.8219 8.74681 31.2806C8.01103 30.4778 6.86236 29.7914 7.27348 28.4893C7.58403 28.7098 8.83856 29.375 8.87562 29.6785H8.87738Z" fill="#256D42"/>
<path d="M4.84529 26.7829C4.64238 27.0211 4.72707 27.4234 4.89646 27.6352C4.76413 27.7657 4.59298 27.3582 4.43064 27.764C3.72838 27.3776 2.96613 27.9881 2.49149 27.9193C2.48267 27.9193 2.38739 27.8416 2.44032 27.8152C2.95378 27.5328 3.53606 27.4676 4.1201 27.4799C4.1201 27.0776 2.218 27.3352 2.49149 27.1958C2.69088 27.0953 3.40549 27.1358 3.65428 27.067C3.70898 26.9947 2.35033 26.0895 2.28505 26.0066C2.16683 25.8601 2.23564 25.9078 2.25858 25.749C3.14611 26.0454 4.01423 26.3436 4.84353 26.7829H4.84529Z" fill="#5C9443"/>
<path d="M7.17129 28.3851L6.93838 29.3679C6.44433 28.7926 5.23567 28.5315 6.08614 27.6616C6.44256 27.9016 6.82369 28.1363 7.17129 28.3851Z" fill="#3B7F47"/>
<path d="M2.26064 25.7489C2.23594 25.9077 2.16889 25.8601 2.28711 26.0065C2.35416 26.0895 3.7128 26.9946 3.65634 27.067C3.40755 27.1358 2.69117 27.0952 2.49355 27.1958C2.22006 27.3352 4.12392 27.0776 4.12216 27.4799C3.53635 27.4675 2.95408 27.5328 2.44238 27.8151C2.38945 27.8416 2.48473 27.9175 2.49355 27.9192C2.96643 27.988 3.73045 27.3775 4.4327 27.7639C4.4927 27.7975 4.66209 28.0357 4.79442 28.048C4.4327 28.1945 4.07099 28.3409 3.73397 28.5386C3.53635 28.655 3.10406 28.9232 3.03524 29.1596C3.02819 29.1632 3.01407 29.2514 2.93114 29.2637L2.36298 28.5403C2.05067 27.5663 1.50721 26.3788 1.12256 25.3872C1.50898 25.4807 1.88305 25.6236 2.26064 25.7489Z" fill="#5C9443"/>
<path d="M2.93321 29.2638C2.75323 29.2902 2.61031 28.895 2.46739 28.8509C2.44798 28.7821 2.39328 28.6339 2.36328 28.5403L2.93144 29.2638H2.93321Z" fill="#85AC3D"/>
<path d="M3.68242 27.9722C3.7777 27.9634 4.13941 27.914 4.14824 28.0763L2.72607 28.3093C2.96781 28.1557 3.40716 27.9969 3.68242 27.974V27.9722Z" fill="#5C9443"/>
<path d="M8.56689 33.1421C8.60042 32.9162 8.71687 32.8139 8.87744 32.6763C9.51618 32.1275 9.63969 32.7645 10.222 33.0644C10.2167 33.195 8.73628 33.1368 8.56689 33.1421Z" fill="#5C9443"/>
<path d="M11.307 31.9528C11.3494 32.7574 10.7353 33.6643 10.1689 32.8315C10.1637 32.8227 10.2378 32.7468 10.1689 32.6498C9.99956 32.4133 9.78429 32.1981 9.62549 31.951C9.56197 31.9369 9.46492 32.0622 9.39258 32.1063C9.41022 32.041 9.41199 32.0163 9.44375 31.951C9.45081 31.9387 9.60431 31.8046 9.65019 31.7446C9.83017 31.7393 10.4142 31.2117 10.5554 31.2788C10.6701 31.3335 10.6224 31.6017 10.633 31.614C10.6912 31.6917 10.8712 31.5558 10.8147 31.7428L11.2276 31.4852C11.2841 31.6387 11.2964 31.7887 11.3053 31.951L11.307 31.9528Z" fill="#5C9443"/>
<path d="M10.8937 30.7636C10.9149 30.7936 10.8585 30.9065 10.9978 30.97C10.4032 31.1253 11.1937 31.5541 11.4637 31.0212C11.5889 31.1447 11.4548 31.8135 11.3084 31.9511C11.2996 31.7888 11.2872 31.6388 11.2308 31.4853L10.8179 31.7429C10.8743 31.5559 10.6961 31.6917 10.6361 31.6141C10.6255 31.6 10.6732 31.3335 10.5585 31.2788C10.4191 31.2118 9.83506 31.7376 9.65332 31.7447C9.97092 31.3265 10.4156 30.9806 10.8937 30.7618V30.7636Z" fill="#85AC3D"/>
<path d="M10.1708 32.8316C10.0049 32.8898 9.35208 32.2899 9.34326 32.237C9.41208 32.1981 9.38384 32.1523 9.39443 32.1082C9.46677 32.064 9.56382 31.9388 9.62734 31.9529C9.78614 32.1999 9.99964 32.4134 10.1708 32.6516C10.2396 32.7487 10.1655 32.8245 10.1708 32.8334V32.8316Z" fill="#5C9443"/>
<path d="M12.3936 27.868C11.6596 29.3043 12.5965 30.7 13.7893 31.487C13.6358 31.6546 13.8476 31.9563 13.7893 32.0816C13.747 32.1734 12.1572 32.708 12.1872 33.2444C10.9609 33.2444 9.7434 33.2338 8.51709 33.1932V33.142C8.53473 33.142 8.55238 33.142 8.56826 33.142C8.73588 33.1367 10.2163 33.195 10.2233 33.0644C9.64282 32.7662 9.51754 32.1292 8.87881 32.6762C8.9388 32.5351 9.23876 32.1822 9.34463 32.1081C9.35698 32.0992 9.38344 32.1151 9.3958 32.1081C9.38521 32.1522 9.41344 32.1998 9.34463 32.2369C9.35345 32.2898 10.0063 32.8897 10.1722 32.8315C10.7386 33.6643 11.3526 32.7574 11.3102 31.9528C11.4567 31.8152 11.5908 31.1464 11.4655 31.0229C11.4002 30.9576 11.0826 30.9488 10.9997 30.9717C10.8603 30.9065 10.9168 30.7953 10.8956 30.7653C11.1179 30.663 11.1109 30.5624 11.1285 30.5589C11.3649 30.4989 11.7778 30.6241 12.0337 30.5324C12.0037 30.363 11.6808 30.5147 11.6208 30.4283C11.5149 30.2783 11.8925 28.8579 11.8272 28.5668C11.5661 28.7062 11.6067 30.3365 11.4391 30.4018C10.3398 30.0913 10.5445 29.8866 10.638 28.955L11.1814 28.3339C11.3738 28.3744 11.5996 28.1592 11.6984 28.1274C11.7284 28.1186 12.159 28.3939 12.0866 27.921C12.1766 27.898 12.3072 27.8927 12.3972 27.8698L12.3936 27.868Z" fill="#85AC3D"/>
<path d="M12.1076 30.9189C12.3917 30.8766 12.4235 31.39 12.4429 31.5647C12.1094 32.0288 11.6806 30.9807 12.1076 30.9189Z" fill="#3B7F47"/>
<path d="M10.9969 30.97C11.0798 30.9488 11.3974 30.9576 11.4627 31.0211C11.1945 31.5522 10.4023 31.1252 10.9969 30.97Z" fill="#3B7F47"/>
<path d="M50.3391 29.0062C50.3427 29.0733 50.1662 29.5373 50.1839 29.6785C50.1539 29.7014 50.1539 29.7049 50.1327 29.7296C50.0092 29.7226 49.7639 29.5338 49.6933 29.5232C49.3052 29.4614 48.0665 29.5938 47.6519 29.6785C48.3171 29.2779 48.9893 28.9003 49.6157 28.438C49.9351 28.4733 50.3162 28.618 50.3391 29.0062Z" fill="#F0C544"/>
<path d="M50.9599 29.4703C50.9123 29.472 50.2171 29.652 50.1853 29.6767C50.1677 29.5355 50.3441 29.0715 50.3406 29.0044C50.6864 28.6992 51.0199 28.3498 51.5034 28.281C51.6198 28.3533 50.8135 29.2409 50.9599 29.4703Z" fill="#5C9443"/>
<path d="M41.4987 32.0551C42.3033 31.9987 43.1873 32.648 43.722 33.1932C42.9826 33.1932 42.238 33.1932 41.4987 33.1932L40.4136 32.4698C40.6571 32.3974 41.2217 32.0816 41.4476 32.0569C41.4652 32.0551 41.4828 32.0569 41.4987 32.0569V32.0551Z" fill="#F47626"/>
<path d="M49.6152 28.438C48.9871 28.9002 48.3166 29.2778 47.6514 29.6784C47.1591 29.7772 45.2305 30.5677 44.9111 30.453L44.9623 30.3489C45.5181 29.9589 46.0722 29.5654 46.6174 29.1596C46.9262 28.9302 47.2455 28.7309 47.5473 28.4874C49.1935 27.1658 49.4917 26.55 50.598 24.8173C50.7939 24.7996 51.6249 24.4361 51.7361 24.6885C52.1225 26.4 50.838 27.5345 49.617 28.4362L49.6152 28.438Z" fill="#F48525"/>
<path d="M47.288 28.2298C47.3127 28.2898 47.4609 28.4909 47.5456 28.4874C47.2439 28.7309 46.9227 28.9303 46.6157 29.1597L47.288 28.2298Z" fill="#85AC3D"/>
<path d="M53.5962 17.9941C52.5304 18.1123 51.8423 19.2204 51.0624 19.9067C49.9613 20.8754 48.848 21.8247 47.754 22.8022C47.1082 23.3792 46.4218 23.9121 45.8413 24.5597C45.6825 24.4944 45.5325 24.4679 45.3755 24.5597C45.589 24.355 45.9207 24.025 46.1254 23.8362C46.7782 23.2345 46.8612 22.8799 46.8241 21.95C46.8153 21.7153 46.7977 21.4013 46.6177 21.2513C46.9741 20.7484 47.3958 19.9914 47.7028 19.4427C49.3491 18.9363 51.0024 18.3981 52.6663 17.9429C53.0315 17.8423 53.6403 17.5035 53.5962 17.9941Z" fill="#BAC637"/>
<path d="M53.5958 17.9941C53.5534 18.4723 53.19 19.6139 53.0276 20.1132C52.8088 20.7802 52.5018 21.493 52.2001 22.13C52.0731 22.1688 52.2442 21.7595 52.2513 21.7418C52.3377 21.5601 52.763 20.9125 52.5865 20.7855C51.9125 20.669 51.0161 20.2438 50.4409 20.6814C50.5997 20.3743 51.2614 20.2279 51.062 19.9068C51.8419 19.2204 52.5301 18.1123 53.5958 17.9941Z" fill="#85AC3D"/>
<path d="M45.3752 24.5597C45.0646 24.8579 44.807 25.1384 44.4453 25.3872L44.5494 23.5257C45.2817 22.8622 46.0457 22.0559 46.6174 21.2513C46.7991 21.4013 46.815 21.7153 46.8238 21.95C46.8609 22.8799 46.7797 23.2345 46.1251 23.8362C45.9204 24.025 45.5887 24.355 45.3752 24.5597Z" fill="#85AC3D"/>
<path d="M44.4459 25.3872C43.4031 26.1001 43.2531 25.9201 42.3779 25.2319C43.089 24.6514 43.8671 24.145 44.55 23.5257L44.4459 25.3872Z" fill="#5C9443"/>
<path d="M47.2882 28.1275C47.2935 28.1592 47.2793 28.2104 47.2882 28.2316L46.6159 29.1614C46.0707 29.5673 45.5166 29.9608 44.9608 30.3507L44.9097 28.0763C45.8872 28.3851 46.2595 28.685 47.2882 28.1275Z" fill="#1C5F3B"/>
<path d="M52.2005 22.1301C51.7258 23.134 51.1877 23.8945 50.5983 24.8191C49.492 26.5518 49.1938 27.1676 47.5475 28.4892C47.4611 28.491 47.3129 28.2898 47.2899 28.2316C47.2811 28.2104 47.2952 28.161 47.2899 28.1275C47.4452 28.0428 47.5564 27.8716 47.7028 27.7658C48.0116 27.5435 48.818 26.94 49.0473 26.603C49.1109 26.5112 49.275 26.3613 49.125 26.2677C48.728 26.7247 48.278 27.1253 47.8581 27.5593C48.1422 27.2082 48.0063 25.6255 47.4699 25.6978C47.1452 25.7419 47.5352 26.5677 47.237 27.0423C46.9688 26.7547 47.0394 25.966 46.5647 25.9043C46.4342 25.4914 46.3089 24.7503 45.8413 24.5597C46.4218 23.9122 47.11 23.3793 47.754 22.8023L49.2785 23.1129C49.4832 22.7617 48.211 22.8341 48.1669 22.6735C48.3363 22.5835 48.5709 22.2924 48.7615 22.2853C49.1867 22.2695 50.3442 22.9858 50.8806 22.9576C50.8577 22.6753 50.2278 22.6612 50.0531 22.5959C49.8202 22.5094 49.3226 22.2889 49.1232 22.183C49.0826 22.1618 48.9979 22.183 48.9679 22.2342L48.9415 22.0524C49.0809 22.0365 49.312 21.6784 49.3808 21.6642C49.6702 21.606 51.2176 22.3947 51.6552 22.3877V22.1812L49.5608 21.5866C50.1325 20.4503 51.2053 21.5001 52.0946 21.4825C51.567 21.2319 50.9918 20.9532 50.4148 20.939L50.3372 20.8102C50.3831 20.7714 50.413 20.7344 50.4413 20.6814C51.0165 20.2421 51.9128 20.6691 52.5869 20.7855C52.7616 20.9126 52.3381 21.5601 52.2516 21.7419C52.2428 21.7595 52.0716 22.1671 52.2005 22.1301Z" fill="url(#paint0_linear_6413_63687)"/>
<path d="M50.4427 20.6832C50.4144 20.7379 50.3862 20.775 50.3386 20.812L50.4162 20.9408C50.9932 20.955 51.5684 21.232 52.096 21.4843C51.2067 21.5019 50.1339 20.4521 49.5622 21.5884L51.6566 22.183V22.3895C51.219 22.3965 49.6716 21.6078 49.3822 21.666C49.3134 21.6802 49.0823 22.0383 48.9429 22.0542L48.9693 22.236C48.9976 22.1848 49.084 22.1619 49.1246 22.1848C49.3258 22.2907 49.8233 22.5112 50.0545 22.5977C50.2292 22.663 50.8591 22.6771 50.882 22.9594C50.3438 22.9894 49.1864 22.2713 48.7629 22.2871C48.5723 22.2942 48.3376 22.5853 48.1683 22.6753C48.2124 22.8359 49.4846 22.7635 49.2799 23.1147L47.7554 22.8041C48.8493 21.8266 49.9627 20.8773 51.0638 19.9086C51.2631 20.2315 50.6015 20.3762 50.4427 20.6832Z" fill="#85AC3D"/>
<path d="M46.7979 23.7322C47.9342 24.0268 49.0264 24.4609 50.1327 24.8438L48.3753 24.378L46.7979 23.7322Z" fill="#85AC3D"/>
<path d="M47.7026 27.7657C47.722 27.6634 47.7962 27.6228 47.8579 27.5593C48.2779 27.1252 48.7278 26.7229 49.1248 26.2677C49.2748 26.3612 49.1107 26.5112 49.0472 26.603C48.8178 26.94 48.0114 27.5434 47.7026 27.7657Z" fill="#5C9443"/>
<path d="M46.1782 24.3021L48.375 25.2585C47.6163 25.0979 46.764 24.8138 46.1782 24.3021Z" fill="#5C9443"/>
<path d="M44.9112 28.0746L44.9624 30.349L44.9112 30.4531C44.8883 30.4442 44.8407 30.4566 44.8071 30.4531C44.8883 30.236 44.8742 29.4508 44.8583 29.1862C44.8565 29.1491 44.7101 28.6215 44.703 28.5651C44.6819 28.4045 44.7224 28.1434 44.6519 27.9705C44.7418 27.9987 44.8301 28.0481 44.9095 28.0746H44.9112Z" fill="#3B7F47"/>
<path d="M44.6523 27.9722C44.7229 28.1451 44.6823 28.4063 44.7035 28.5668C44.7106 28.6233 44.857 29.1491 44.8588 29.1879C44.8729 29.4526 44.887 30.2378 44.8076 30.4548C44.79 30.5007 44.1583 31.1218 44.1089 31.1271C44.0083 31.1359 43.756 30.663 43.5654 30.6613C43.6466 30.5501 43.9501 29.7755 43.9783 29.6273C44.1124 28.9233 43.8654 28.3904 43.9783 27.7146C44.1989 27.794 44.4318 27.9034 44.6506 27.9722H44.6523Z" fill="#1C5F3B"/>
<path d="M51.9941 29.7296C51.7153 30.3207 51.4136 31.0688 51.0113 31.5647C50.5067 32.1893 49.6862 32.6498 49.0986 33.1933C48.2958 33.1915 47.4771 33.2462 46.6689 33.2444C46.6689 33.2109 46.6725 33.1756 46.6689 33.1403L48.5816 33.0627C48.5922 32.9815 48.0805 32.6357 47.987 32.5722C47.7717 32.4222 47.3571 32.3728 47.3924 32.1064C48.0258 31.7252 48.8604 31.1483 49.4092 30.6595L51.193 30.4019C51.276 30.2501 51.6871 30.1125 51.71 30.0913C51.7277 30.0737 51.7559 29.6996 51.9941 29.7296Z" fill="#85AC3D"/>
<path d="M51.9936 29.6784C51.9866 29.6925 52.0007 29.7155 51.9936 29.7296C51.7554 29.7014 51.7272 30.0754 51.7096 30.0913C51.6866 30.1125 51.2755 30.2501 51.1926 30.4019L49.4087 30.6595C49.594 30.4954 49.8145 30.356 49.9768 30.1689C50.0439 30.0913 50.0968 29.7702 50.1321 29.7296C50.1533 29.7031 50.1533 29.7014 50.1833 29.6784C50.2133 29.6555 50.912 29.4737 50.9579 29.472C51.2067 29.4614 51.7572 29.5514 51.9919 29.6784H51.9936Z" fill="#BAC637"/>
<path d="M50.1326 29.7296C50.0991 29.7702 50.0444 30.0913 49.9773 30.169C49.8132 30.356 49.5927 30.4954 49.4092 30.6595C48.8604 31.1482 48.0258 31.727 47.3924 32.1063C47.0659 32.3022 46.6407 32.5616 46.3072 32.7274C46.1237 32.8174 45.7779 32.8951 45.5838 32.985C45.912 32.4592 44.9997 30.7512 44.4722 30.8659C43.6199 31.0494 45.0103 32.4116 44.7298 32.8827C44.4598 32.858 44.5939 32.5651 44.548 32.4434C44.451 32.184 44.1757 31.5682 44.0311 31.3317C43.897 31.1112 43.7452 30.7918 43.4629 30.7636C43.5035 30.7177 43.5299 30.7089 43.567 30.6595C43.7576 30.6612 44.0099 31.1341 44.1104 31.1253C44.1581 31.12 44.7915 30.4989 44.8092 30.453C44.8427 30.4566 44.8886 30.4442 44.9133 30.453C45.2327 30.566 47.1612 29.7772 47.6535 29.6784C48.0699 29.5937 49.3086 29.4614 49.695 29.5232C49.7656 29.5337 50.0108 29.7225 50.1344 29.7296H50.1326Z" fill="#BAC637"/>
<path d="M47.3923 32.1081C47.357 32.3745 47.7716 32.4239 47.9869 32.5739C48.0804 32.6392 48.5921 32.9833 48.5815 33.0644L46.6688 33.1421C46.6547 32.985 46.4236 32.8209 46.3071 32.7292C46.6406 32.5651 47.0658 32.3057 47.3923 32.1081Z" fill="#5C9443"/>
<path d="M46.3065 32.7274C46.423 32.8209 46.6541 32.9833 46.6683 33.1403C46.6718 33.1738 46.6683 33.2091 46.6683 33.2444C46.2166 33.2444 45.7719 33.1932 45.3237 33.1932C45.3555 33.1227 45.5214 33.015 45.5813 32.9868C45.7754 32.8968 46.1213 32.8192 46.3048 32.7292L46.3065 32.7274Z" fill="#5C9443"/>
<path d="M45.5835 32.9868C45.5235 33.0151 45.3559 33.1227 45.3259 33.1933H44.396C44.1719 33.1933 43.9478 33.1933 43.7237 33.1933C43.1891 32.6498 42.3069 31.9987 41.5005 32.0552C41.6399 31.8752 41.901 31.8399 42.0686 31.7446C42.2592 31.9299 42.5874 31.4853 42.7674 31.4341C43.1679 31.3212 43.6373 31.4553 44.0343 31.33C44.179 31.5664 44.4542 32.1822 44.5513 32.4416C44.5971 32.5634 44.4613 32.8563 44.733 32.881C45.0135 32.4099 43.6231 31.0494 44.4754 30.8642C45.003 30.7513 45.9152 32.4575 45.587 32.9833L45.5835 32.9868Z" fill="#85AC3D"/>
<path d="M44.0325 31.3317C43.6373 31.4552 43.1662 31.3229 42.7656 31.4358C42.5874 31.4852 42.2592 31.9316 42.0669 31.7464C42.3474 31.5876 43.2773 30.9753 43.4626 30.7635C43.7467 30.7935 43.8967 31.1112 44.0308 31.3317H44.0325Z" fill="#5C9443"/>
<path d="M25.6785 1.60574C26.416 3.09495 30.1461 3.68781 31.106 2.48445C31.3813 2.13861 31.3971 1.92334 31.3636 1.47693C31.2436 1.61986 31.2172 1.5034 31.2083 1.5034L31.4148 1.27049C31.4183 1.64985 31.4095 2.02921 31.4148 2.40857C31.4148 2.42975 31.2595 2.54091 31.2595 2.56385C31.2595 2.68207 31.4942 3.06143 31.4659 3.44255C31.4254 4.01777 30.8996 4.92294 30.8449 5.2776C30.8131 5.48228 31.1025 6.43686 30.6896 6.46686C30.6702 5.95339 30.5855 3.97366 30.432 3.62429C30.3967 3.54489 30.4002 3.42491 30.3032 3.36668C28.6128 3.78663 26.5854 3.52372 25.495 2.02216C25.6273 2.18096 25.6114 2.51444 25.6238 2.53915C24.9639 3.36315 25.0821 5.13115 25.1068 6.20924C24.6763 6.22865 24.9268 5.35877 24.9004 5.22643C24.7574 4.54358 24.0128 3.32963 24.2793 2.56385C24.3234 2.43681 24.6198 2.1739 24.6921 1.99569C24.7768 1.78748 24.7186 1.52105 24.8474 1.24579C25.1544 1.46811 25.3079 1.36754 25.675 1.6075L25.6785 1.60574Z" fill="#391A1C"/>
<path d="M30.7464 1.55457C30.9369 1.57221 31.0816 1.5034 31.2122 1.5034C31.2192 1.5034 31.2475 1.62161 31.3674 1.47693C31.401 1.92334 31.3851 2.14037 31.1098 2.48444C29.9594 3.27845 27.9232 3.14965 26.741 2.48444C26.3369 2.25682 26.0476 1.8457 25.6806 1.60573C25.3136 1.36577 25.16 1.46634 24.853 1.24402C24.9518 1.03228 25.123 0.892889 25.3188 0.778198L25.5765 0.959939L25.0859 1.08874C25.8094 0.892889 26.5434 1.43105 27.2051 1.60573C28.1314 1.851 29.0807 2.06626 30.0476 1.91628C30.2629 1.88276 30.8399 1.77512 30.7464 1.55457Z" fill="#391A1C"/>
<path d="M30.7459 1.55457C30.8412 1.77513 30.2642 1.88276 30.0471 1.91629C29.0784 2.06803 28.1292 1.851 27.2046 1.60574C26.5411 1.43106 25.8089 0.892895 25.0854 1.08875L25.576 0.959945L25.3184 0.778205C27.3881 -0.426929 28.8844 1.38695 30.7459 1.55281V1.55457Z" fill="#522627"/>
<path d="M24.9037 5.22462C24.9319 5.35696 24.6796 6.22684 25.1101 6.20743C25.1154 6.44917 25.096 6.85323 25.1101 7.03497C24.3867 6.825 23.7409 5.09582 24.9037 5.22639V5.22462Z" fill="#EE7556"/>
<path d="M30.7975 7.0862C30.7975 7.0862 30.6952 7.10208 30.6934 7.05973C30.6864 6.86211 30.7005 6.66273 30.6934 6.46511C31.1063 6.43511 30.817 5.48053 30.8487 5.27586C31.948 5.09764 31.5051 6.80918 30.7975 7.08444V7.0862Z" fill="#EE7556"/>
<path d="M31.1077 2.48442C30.146 3.68779 26.4177 3.09493 25.6802 1.60571C26.0472 1.84568 26.3366 2.2568 26.7406 2.48442C27.9228 3.14962 29.9572 3.27843 31.1094 2.48442H31.1077Z" fill="#804F47"/>
<path d="M29.8673 9.51581C29.899 9.80871 30.0561 10.8198 30.0225 11.0156C29.9625 11.3685 28.7839 11.9278 28.498 12.2049L27.4376 13.1347C26.4442 12.9706 25.5355 12.2366 25.2144 11.2732C26.0384 11.0085 26.1266 11.1268 26.2483 10.2392C27.0159 11.2732 28.3234 11.5608 29.195 10.4722C29.405 10.211 29.5161 9.6305 29.8673 9.51581Z" fill="#EE7556"/>
<path d="M29.8675 9.51585C29.5163 9.63054 29.4052 10.2111 29.1952 10.4722C28.3236 11.5609 27.0161 11.2733 26.2485 10.2393C26.2838 9.98344 26.3121 9.7223 26.2997 9.46468C27.5489 10.2746 28.6482 10.1175 29.8145 9.25824C29.7739 9.36411 29.8604 9.45939 29.8657 9.51585H29.8675Z" fill="#BB5742"/>
<path d="M30.7464 11.2732C30.5135 12.8366 28.8231 13.3624 27.438 13.1348L28.4984 12.2049C28.7843 11.9279 29.9629 11.3685 30.0229 11.0156C30.2611 11.0897 30.5964 11.0456 30.7464 11.2732Z" fill="#F2B195"/>
<path d="M32.9695 26.7318C32.9695 26.94 32.9995 27.1447 32.9695 27.3529C32.966 27.3546 32.9748 27.3687 32.9183 27.404C32.1014 27.9157 29.8287 28.5192 28.86 28.5933C26.9967 28.7344 25.0505 28.2933 23.3549 27.5593L23.3037 27.4552C23.2702 27.1747 23.3584 26.9047 23.3549 26.6277C23.339 24.5474 23.0038 22.9523 22.7867 20.9408C22.7073 20.2068 22.6456 19.5098 22.6315 18.7687C22.6279 18.6152 22.6315 18.4582 22.6315 18.3029C22.8873 18.2905 22.7903 18.6134 22.8379 18.7422C23.7572 21.2566 24.7594 24.1098 26.9473 25.7984C28.6201 27.09 31.0586 27.6793 32.8407 26.2642L32.8671 26.8076L32.9712 26.73L32.9695 26.7318Z" fill="#E8E3DD"/>
<path d="M31.1591 11.2732C32.0378 11.4391 34.187 12.1555 34.9333 12.6178C34.9651 12.6372 35.1186 12.7713 35.1909 12.8242C35.2439 12.863 35.3303 12.916 35.3462 12.9283C35.3621 12.9407 35.4062 12.9936 35.4503 13.0324C35.6179 13.1789 36.052 13.6323 36.1738 13.807C36.179 13.8141 36.1861 13.8511 36.2249 13.9111C36.9836 15.0686 37.2995 16.8578 37.6206 18.2023C37.6312 18.2482 37.6612 18.2588 37.6718 18.3064C37.5871 18.3223 37.4565 18.4882 37.4142 18.5129C37.2377 18.6152 36.9872 18.6946 36.7931 18.7705L36.3537 18.8746C36.0114 18.407 35.1274 18.1423 34.8292 17.7118C34.3811 17.066 34.2611 15.6474 33.5623 14.998C33.4547 15.3756 33.5253 15.8909 33.5359 16.2896C33.5623 17.186 33.5923 18.0276 33.5359 18.9257C33.3718 21.5724 32.8195 23.5787 32.9677 26.3189C32.9748 26.4547 32.9677 26.5959 32.9677 26.7318L32.8636 26.8094L32.8371 26.2659C31.055 27.681 28.6165 27.0917 26.9438 25.8001C24.7559 24.1098 23.7536 21.2566 22.8344 18.744C22.7867 18.6152 22.8838 18.2923 22.6279 18.3047C22.6279 18.0629 22.6756 17.8441 22.6791 17.6324C22.6844 17.3236 22.672 17.0113 22.6791 16.7025C22.6879 16.2949 22.7197 15.8944 22.7303 15.4868C22.1568 16.1044 21.9768 17.1348 21.541 17.8653C21.2499 18.3523 20.8335 18.6487 20.5582 19.1322C19.9071 18.8975 19.249 18.7034 18.6455 18.3576C18.8131 17.7435 18.9331 17.1066 19.1113 16.4961C19.3689 15.6121 19.6283 14.7369 20.0412 13.9111C20.1012 13.9199 20.0906 13.8617 20.0924 13.86C20.1894 13.8 20.4559 13.3341 20.6094 13.1877C20.6817 13.1189 20.7999 12.9848 20.867 12.9301C21.5922 12.3372 22.9685 11.8873 23.8648 11.5855C24.2583 11.4532 24.8388 11.3932 25.2093 11.275C25.5305 12.2366 26.4374 12.9724 27.4326 13.1365C28.8177 13.3659 30.5098 12.8383 30.7409 11.275L30.8186 11.1709C30.9139 11.2538 31.0409 11.2521 31.1538 11.275L31.1591 11.2732Z" fill="#E8E3DD"/>
<path d="M23.5862 16.856C23.9109 16.7643 23.9603 17.0466 24.1544 17.1666C26.4447 18.5658 29.1778 17.7789 31.6763 18.6399C31.701 18.8005 30.8576 18.8658 30.72 18.8728C29.4831 18.9381 26.3053 18.8693 25.2395 18.407C24.6008 18.13 23.8509 17.5089 23.5845 16.856H23.5862Z" fill="#E8E3DD"/>
<path d="M36.7951 18.7705C36.2252 18.9999 35.6659 19.1128 35.0889 19.2875C35.0377 19.3034 34.9883 19.3228 34.9336 19.3386C34.4272 18.8799 34.1961 16.7113 33.9508 16.4184C33.9332 16.3973 33.605 16.2791 33.5379 16.2896C33.5256 15.8891 33.4567 15.3739 33.5644 14.998C34.2631 15.6474 34.3813 17.066 34.8313 17.7118C35.1312 18.1423 36.0135 18.4088 36.3558 18.8746L36.7951 18.7705Z" fill="#E8E3DD"/>
<path d="M34.9328 19.3386C34.587 19.4445 34.2394 19.5768 33.8988 19.7003C33.7859 19.4533 33.7083 19.1251 33.5371 18.9257C33.5936 18.0258 33.5636 17.1859 33.5371 16.2896C33.6042 16.2808 33.9341 16.399 33.95 16.4184C34.1953 16.7113 34.4246 18.8816 34.9328 19.3386Z" fill="#E8E3DD"/>
<path d="M22.6811 16.7025C22.547 16.6672 22.3 17.1189 22.2683 17.193C21.9507 17.9111 21.7742 18.7422 21.3895 19.4427C21.1019 19.3527 20.8426 19.2327 20.562 19.1321C20.8373 18.6487 21.2537 18.3523 21.5448 17.8653C21.9806 17.1348 22.1606 16.1043 22.7341 15.4868C22.7235 15.8943 22.69 16.2949 22.6829 16.7025H22.6811Z" fill="#E8E3DD"/>
<path d="M22.6806 16.7025C22.6735 17.0113 22.6859 17.3236 22.6806 17.6324C22.4547 17.9465 22.1477 18.6964 22.2924 19.0793C22.4794 18.8852 22.3118 18.9681 22.5253 18.8217C22.4882 19.1181 22.3153 19.3845 22.2147 19.6492C21.9254 19.6245 21.6607 19.5274 21.3872 19.4428C21.7719 18.7423 21.9483 17.913 22.2659 17.1931C22.2994 17.1172 22.5465 16.6672 22.6788 16.7025H22.6806Z" fill="#E8E3DD"/>
<path d="M22.6809 17.6323C22.6774 17.8441 22.628 18.0629 22.6297 18.3046C22.6297 18.4599 22.6262 18.6151 22.6297 18.7704C22.4797 18.6628 22.5415 18.811 22.5256 18.8216C22.3121 18.968 22.4797 18.8869 22.2927 19.0792C22.148 18.6963 22.455 17.9464 22.6809 17.6323Z" fill="#CEC9C2"/>
<path d="M30.436 3.62252C29.2538 4.12011 27.5264 4.15187 26.4289 3.41608C26.2348 3.28551 25.7213 2.72617 25.6278 2.53738C25.6155 2.51267 25.6314 2.17919 25.499 2.02039C26.5895 3.52195 28.6168 3.78486 30.3072 3.36491C30.406 3.4249 30.4025 3.54489 30.436 3.62252Z" fill="#D0684F"/>
<path d="M30.4361 3.62256C30.5896 3.97193 30.6743 5.95343 30.6937 6.46512C30.7007 6.66275 30.6866 6.86213 30.6937 7.05975C30.6937 7.1021 30.7978 7.08092 30.7978 7.08622C30.8225 8.05315 30.5878 8.69012 29.815 9.25828C28.6469 10.1176 27.5494 10.2746 26.3001 9.46472C25.3579 8.85422 25.1903 8.10079 25.1109 7.03505C25.0968 6.85331 25.1162 6.44924 25.1109 6.20751C25.0862 5.12942 24.968 3.36142 25.6279 2.53741C25.7214 2.72621 26.2366 3.28731 26.4289 3.41612C27.5247 4.1519 29.2539 4.12191 30.4361 3.62256Z" fill="#F2B195"/>
<path d="M26.7388 7.65436L27.5663 7.91197L29.1949 7.78316C28.4256 8.57365 27.3193 8.73951 26.7388 7.65436Z" fill="#FBFDFE"/>
<path d="M26.2217 4.50119C26.5217 4.44826 27.3245 4.48708 27.2293 4.94054C27.2116 5.02347 26.4176 4.86114 26.2729 4.86291C26.1441 4.86467 25.8124 5.00406 25.6518 5.01818C25.5583 4.77645 26.0771 4.52589 26.22 4.50119H26.2217Z" fill="#2C1E21"/>
<path d="M28.8583 4.60531C29.1865 4.54003 29.8888 4.58061 30.0741 4.94056L28.4966 5.06937C28.2849 4.86292 28.6978 4.63531 28.8583 4.60355V4.60531Z" fill="#391A1C"/>
<path d="M25.8088 5.69049L27.178 5.81929C27.2698 5.96927 25.8335 6.0522 25.7559 5.79282L25.807 5.68872L25.8088 5.69049Z" fill="#121217"/>
<path d="M29.013 5.74161C29.3271 5.70985 29.6623 5.7469 29.9693 5.81925C29.7999 6.06274 28.5295 6.0451 28.5225 5.87042C28.6495 5.78219 28.8701 5.75572 29.013 5.74161Z" fill="#121217"/>
<path d="M27.8774 6.93091C27.941 6.93444 28.0362 7.07559 28.1103 7.11265C27.9639 7.34556 27.6692 7.2044 27.4893 7.06148C27.6357 7.10912 27.8563 6.93091 27.8774 6.93267V6.93091Z" fill="#BB5742"/>
<path d="M20.5617 19.1321C20.8405 19.2327 21.1016 19.3527 21.3892 19.4427C21.6627 19.5274 21.9274 19.6244 22.2168 19.6491C21.8092 20.7325 21.0875 22.1812 20.4082 23.1128C20.3888 23.1393 20.3076 23.1975 20.2529 23.2681C19.2295 24.6038 17.862 25.4366 16.3764 26.1636C16.1787 26.2606 15.9617 26.3259 15.7553 26.4212C14.9083 26.8217 13.2321 27.651 12.3957 27.868C12.3057 27.891 12.1752 27.8963 12.0852 27.9192C11.8699 27.9757 11.5911 27.9333 11.4129 27.9704C11.3847 27.7939 11.6282 27.6245 11.7482 27.5575C13.9749 26.2906 16.5563 25.7718 18.5202 24.0427C19.7518 22.9575 21.0822 21.126 20.8722 19.4162C20.7858 19.2451 20.3076 19.3351 20.1223 19.2874C19.5506 19.1374 19.0407 18.8657 18.649 18.4087C18.6525 18.3928 18.6455 18.3734 18.649 18.3575C19.2524 18.7051 19.9106 18.8992 20.5617 19.1321Z" fill="#EF9375"/>
<path d="M11.411 27.9722C10.8199 28.0974 10.4547 28.3621 9.80888 28.3339C9.54597 28.3233 9.22484 28.2315 8.98134 28.1274C8.91429 28.0992 8.83666 28.0622 8.7749 28.0233C8.64962 27.9439 8.55787 27.8875 8.46436 27.7657C8.025 27.1852 8.25438 26.6453 8.15381 26.0595C8.20674 25.8301 8.5314 25.0167 8.82607 25.516C8.94076 25.7084 8.62316 27.3917 9.21425 27.1958C9.65714 27.0494 9.36424 23.9104 10.9205 24.6109C11.2205 24.7467 11.404 25.1543 11.6439 25.3343C12.168 25.726 12.8367 26.123 13.479 25.8513C14.0189 25.6219 14.5641 24.7167 14.9788 24.3003C15.7499 23.5239 16.6533 22.7511 17.3573 21.9218C17.4667 21.793 17.6167 21.7136 17.719 21.5601C17.809 21.4242 17.9696 21.096 18.0295 20.939C18.0895 20.782 18.1354 20.5896 18.1848 20.422C18.3666 19.7921 18.4707 19.0704 18.6506 18.4052C19.0424 18.8622 19.5523 19.1339 20.124 19.2839C20.3092 19.3316 20.7856 19.2416 20.8739 19.4127C21.0838 21.1225 19.7534 22.9558 18.5218 24.0392C16.558 25.7683 13.9766 26.2889 11.7498 27.554C11.6298 27.6228 11.3846 27.7904 11.4145 27.9669L11.411 27.9722Z" fill="#F2B195"/>
<path d="M10.5061 24.9726C10.6084 24.962 10.7231 25.0291 10.7902 25.1014C10.7161 25.3943 10.8113 26.8359 10.2996 26.6788C9.92735 26.3842 10.0332 25.0255 10.5061 24.9726Z" fill="#1C5F3B"/>
<path d="M12.057 26.9894C12.1047 26.9894 12.1576 26.9735 12.1858 27.0158C12.3217 27.2717 9.42266 27.674 9.18799 27.4817C9.79497 27.3617 10.409 27.3987 11.023 27.2999C11.2489 27.2646 11.9582 26.9911 12.057 26.9894Z" fill="#EF9375"/>
<path d="M37.4141 18.511C37.1388 19.1763 36.2742 19.3527 35.7078 19.7268C35.6408 19.9456 36.673 21.0501 36.7418 21.433C36.8106 21.8159 36.6695 22.7564 36.7418 23.0881C36.7559 23.1551 37.6205 23.9368 37.7493 24.0444C39.5649 25.5425 41.9293 26.3753 44.1085 27.1975C43.9497 27.8786 43.9373 27.5222 43.4097 27.5592C42.6881 27.2928 41.8464 26.9364 41.1353 26.6294C41.0153 26.5782 40.8918 26.527 40.7736 26.4741C40.5707 26.3841 40.3537 26.31 40.1525 26.2165C38.9033 25.6342 37.22 24.6885 36.276 23.6827C36.2425 23.6474 36.1331 23.4974 36.0695 23.4251C36.0254 23.3739 35.9707 23.2892 35.9143 23.2187C35.8631 23.1534 35.8225 23.0263 35.8102 23.0122C35.7643 22.8005 36.313 22.6558 36.3271 22.624C36.3607 22.5482 35.6161 21.4824 35.4996 21.1772C35.4079 20.9354 35.2385 20.4361 35.1891 20.1944C35.1326 19.9138 35.2385 19.4991 35.085 19.2892C35.6619 19.1145 36.2213 19.0016 36.7912 18.7722C36.9835 18.6946 37.2341 18.6152 37.4123 18.5146L37.4141 18.511Z" fill="#EF9375"/>
<path d="M47.2372 27.0405C46.7873 27.7569 46.6849 26.2836 46.5649 25.9025C47.0396 25.9642 46.969 26.7529 47.2372 27.0405Z" fill="#1C5F3B"/>
<path d="M38.5524 21.7683C39.9393 22.7917 41.0297 24.1715 42.3778 25.2319C43.253 25.9201 43.403 26.1001 44.4458 25.3872C44.8092 25.1384 45.0651 24.8596 45.3756 24.5597C45.5327 24.4679 45.6827 24.4944 45.8415 24.5597C46.309 24.7502 46.4361 25.4913 46.5649 25.9042C46.6849 26.2836 46.7854 27.7587 47.2372 27.0423C47.5353 26.5676 47.1454 25.7419 47.4701 25.6978C48.0065 25.6254 48.1423 27.2081 47.8582 27.5593C47.7965 27.6228 47.7224 27.6634 47.703 27.7657C47.5548 27.8716 47.4454 28.0427 47.2901 28.1274C46.2614 28.685 45.8891 28.385 44.9116 28.0763C44.8304 28.0516 44.7422 28.0022 44.654 27.9722C44.4352 27.9016 44.2023 27.7922 43.9817 27.7145C43.8176 27.6563 43.59 27.6246 43.4135 27.5593C43.9411 27.5222 43.9535 27.8786 44.1123 27.1976C41.9332 26.3735 39.5688 25.5425 37.7531 24.0444C37.6226 23.9368 36.7597 23.1552 36.7456 23.0881C36.6733 22.7564 36.818 21.8336 36.7456 21.433C36.6733 21.0325 35.6446 19.9456 35.7116 19.7268C36.278 19.3527 37.1426 19.178 37.4179 18.5111C37.4602 18.4864 37.5908 18.3187 37.6755 18.3046C37.8943 19.2292 37.979 21.0695 38.5542 21.7683H38.5524Z" fill="#F2B195"/>
<path d="M45.4532 25.1278C46.1749 24.9037 46.2243 26.5976 45.8149 26.6788C45.4056 26.76 45.5661 26.0418 45.5308 25.8266C45.5026 25.6589 45.1903 25.2108 45.4532 25.1278Z" fill="#1C5F3B"/>
<path d="M44.6272 27.2487L45.8429 27.3264C45.8429 27.3916 44.5813 27.5204 44.6272 27.2487Z" fill="#EF9375"/>
<path d="M35.8121 23.0087C35.0498 21.9923 34.4252 20.8596 33.8994 19.7003C34.24 19.5768 34.5876 19.4427 34.9334 19.3386C34.9881 19.3227 35.0375 19.3033 35.0887 19.2874C35.2422 19.4974 35.1345 19.912 35.1928 20.1926C35.2422 20.4343 35.4116 20.9337 35.5033 21.1754C35.6198 21.4807 36.3626 22.5464 36.3309 22.6223C36.3167 22.6523 35.768 22.7987 35.8139 23.0104L35.8121 23.0087Z" fill="#EF9375"/>
<path d="M30.3314 31.4358C31.1713 32.0551 31.563 31.554 32.5034 31.7463C32.4805 31.8063 32.4329 31.8469 32.3993 31.9016C32.26 32.1345 32.4205 31.9492 32.3993 32.0304C32.3305 32.2933 32.0359 32.0251 31.9865 32.2633C31.75 32.288 31.1836 32.3074 31.0813 32.5209C31.54 32.4927 31.997 32.4274 32.4505 32.3657C32.724 32.3286 33.001 32.2774 33.278 32.2616C33.2851 32.2686 33.3574 32.3074 33.3822 32.3127C33.391 32.3674 33.4633 32.4062 33.4333 32.4945C33.278 32.7344 33.0169 32.6762 32.7611 32.7274C32.3605 32.8085 32.0094 32.7891 31.623 32.8315C31.1519 32.8827 30.6684 32.865 30.2008 32.9356C30.0861 32.9532 29.6203 33.0097 29.5797 33.142L32.2935 33.2461C31.7853 33.2461 31.2577 33.2973 30.7425 33.2973C29.1404 33.2973 27.5382 33.2461 25.9343 33.2461C25.8902 33.0203 25.862 32.5315 25.8832 32.3163C25.8832 32.3074 25.9837 32.2192 25.9873 32.1875C26.0155 31.9263 25.9837 31.6475 26.0384 31.3864C26.1831 31.4234 27.3388 31.6563 27.4077 31.644C27.6017 31.6122 28.147 30.9576 28.3905 30.8165C29.518 30.1601 29.5638 30.8729 30.3296 31.4376L30.3314 31.4358Z" fill="#F2B195"/>
<path d="M31.625 32.8315C31.8667 33.0538 32.4543 32.8103 32.7631 32.8315C32.7984 32.962 32.8707 33.0485 32.7631 33.1932C32.6607 33.1932 32.4631 33.2444 32.2973 33.2444L29.5835 33.1403C29.6223 33.0079 30.0881 32.9515 30.2046 32.9338C30.6722 32.8632 31.1539 32.8809 31.6268 32.8297L31.625 32.8315Z" fill="#EF9375"/>
<path d="M32.3995 31.9017C32.8795 31.9775 32.9341 31.9228 33.2782 32.2634C33.0012 32.2793 32.7259 32.3304 32.4507 32.3675C32.3977 32.1046 32.1243 32.2493 31.9849 32.2634C32.036 32.0252 32.3289 32.2934 32.3977 32.0305C32.4189 31.9493 32.2584 32.1346 32.3977 31.9017H32.3995Z" fill="#F2B195"/>
<path d="M32.4522 32.3657C31.997 32.4275 31.5418 32.491 31.083 32.521C31.1853 32.3057 31.7517 32.2863 31.9882 32.2634C32.1258 32.2492 32.4011 32.1046 32.454 32.3675L32.4522 32.3657Z" fill="#EF9375"/>
<path d="M33.2265 32.0552C33.297 32.1152 33.3641 32.2122 33.3817 32.3128C33.3588 32.3075 33.2847 32.2669 33.2776 32.2616C32.9336 31.9211 32.8789 31.974 32.3989 31.8999C32.4325 31.8452 32.4783 31.8046 32.503 31.7446C32.6989 31.7852 33.0835 31.9317 33.2265 32.0552Z" fill="#123955"/>
<path d="M32.7611 32.7274C32.7647 32.7609 32.7541 32.8033 32.7611 32.8315C32.4541 32.8103 31.8648 33.0538 31.623 32.8315C32.0095 32.7892 32.3606 32.8086 32.7611 32.7274Z" fill="#EE7556"/>
<path d="M15.7528 26.4213H15.804L15.1829 27.1959C15.0735 27.2135 14.9006 27.3741 14.8212 27.4023C14.56 27.4958 13.1749 28.0852 13.1661 28.3587C13.1485 29.038 16.4074 30.3896 17.0179 30.6084C19.8605 31.6265 22.9007 31.9423 25.8844 32.3146C25.865 32.5299 25.8915 33.0204 25.9356 33.2445C25.8844 33.2445 25.8315 33.2445 25.7803 33.2445C23.7194 33.0804 21.6373 33.2851 19.5764 33.1933C18.6254 33.151 17.6479 33.0963 16.7339 32.8316C16.0369 32.6304 14.3906 31.8858 13.7872 31.4871C12.5926 30.7001 11.6575 29.3044 12.3915 27.8681C13.2279 27.6511 14.9041 26.8218 15.751 26.4213H15.7528Z" fill="url(#paint1_linear_6413_63687)"/>
<path d="M25.7825 33.2444C23.7181 33.2444 21.6466 33.2479 19.5786 33.2444V33.1932C21.6395 33.285 23.7216 33.0821 25.7825 33.2444Z" fill="#3A3E51"/>
<path d="M38.3967 32.9868C38.1567 33.0204 37.3415 32.9004 37.3115 33.2444C36.7434 33.2444 36.1735 33.2444 35.6053 33.2444C34.6578 33.2444 33.705 33.1933 32.7627 33.1933C32.8704 33.0486 32.798 32.9621 32.7627 32.8316C32.7557 32.8033 32.7663 32.761 32.7627 32.7275C33.0186 32.6763 33.2797 32.7345 33.435 32.4945C33.465 32.4081 33.3927 32.3675 33.3838 32.3128C33.3662 32.2122 33.2991 32.1152 33.2286 32.0552C35.383 31.824 37.5886 31.5735 39.6124 30.7636C40.8864 30.2537 42.4479 29.3697 42.9473 28.0234C43.6636 28.528 44.1418 28.6886 43.5154 29.6008C42.7779 30.6771 40.4717 31.4923 39.2507 31.9017C37.7491 32.4028 36.1664 32.761 34.6243 33.1174L38.3985 32.9886L38.3967 32.9868Z" fill="url(#paint2_linear_6413_63687)"/>
<path d="M41.1368 26.6276C41.8479 26.9346 42.6895 27.2928 43.4112 27.5575C43.5876 27.6228 43.8153 27.6545 43.9794 27.7128C43.8664 28.3886 44.1135 28.9214 43.9794 29.6254C43.8347 29.3625 43.7641 29.8337 43.6688 29.9607C43.4553 30.2465 43.0371 30.6841 42.7636 30.917C42.529 31.1182 41.5303 31.6758 41.472 31.7446C41.3662 31.8699 41.472 31.9069 41.4456 32.0551C41.2197 32.0816 40.6569 32.3974 40.4116 32.468C40.004 32.588 39.4394 32.8015 39.0671 32.8809C38.8465 32.9285 38.6189 32.9532 38.3948 32.985L34.6206 33.1138C36.1628 32.7574 37.7455 32.401 39.247 31.8981C40.4698 31.4905 42.7742 30.6753 43.5118 29.5972C44.1364 28.685 43.6582 28.5262 42.9436 28.0198C42.7283 27.868 42.5096 27.7216 42.2713 27.6069C41.9061 27.4287 41.7102 27.3105 41.2885 27.2452L41.1333 26.6241L41.1368 26.6276Z" fill="#0D4159"/>
<path d="M43.9794 29.6255C43.9512 29.7737 43.6477 30.5483 43.5665 30.6594C43.5313 30.7088 43.503 30.7177 43.4624 30.7635C43.2772 30.9753 42.3473 31.5875 42.0667 31.7463C41.8974 31.8416 41.638 31.8769 41.4986 32.0569C41.4809 32.0569 41.4633 32.0551 41.4474 32.0569C41.4739 31.9104 41.368 31.8716 41.4739 31.7463C41.5321 31.6775 42.5308 31.12 42.7655 30.9188C43.0372 30.6859 43.4571 30.2483 43.6706 29.9625C43.7659 29.8354 43.8365 29.3643 43.9812 29.6272L43.9794 29.6255Z" fill="#0D414E"/>
<path d="M41.1375 26.6276L41.2928 27.2487C39.6183 26.9911 37.6033 28.0321 36.1229 28.7485C34.4202 29.5708 32.938 30.5853 31.1083 31.1782C30.8507 31.2611 30.5895 31.3511 30.3337 31.4358C29.5679 30.8712 29.522 30.1583 28.3945 30.8147C28.151 30.9559 27.6058 31.6105 27.4117 31.6423C27.3429 31.6528 26.1872 31.4217 26.0425 31.3846C26.0266 31.3811 26.0072 31.3882 25.9913 31.3846C26.0954 31.0988 27.0341 31.6334 27.0253 31.3582C25.829 30.4442 24.1157 29.2161 23.3552 27.8945C23.2987 27.7957 23.1152 27.5399 23.3552 27.5593C25.0526 28.2933 26.9971 28.7344 28.8604 28.5932C29.829 28.5209 32.1017 27.9157 32.9186 27.404L40.7758 26.4741C40.894 26.5271 41.0193 26.5782 41.1375 26.6294V26.6276Z" fill="url(#paint3_linear_6413_63687)"/>
<path d="M22.1127 27.3511C22.5026 27.4023 22.9084 27.4799 23.3019 27.4552L23.3531 27.5593C23.1131 27.5399 23.2966 27.7975 23.3531 27.8946C24.1136 29.2162 25.8269 30.4443 27.0232 31.3583C27.032 31.6317 26.0933 31.0971 25.9892 31.3847C25.8816 31.3565 25.8092 31.3036 25.7316 31.2806C25.3593 31.1783 25.0311 30.9418 24.6712 30.8148C24.657 30.8095 24.5865 30.9436 24.5159 30.9189C22.2644 30.0949 17.3962 26.8447 15.1836 27.1959L15.8047 26.4213C17.9097 26.6948 20.0077 27.0741 22.1127 27.3511Z" fill="url(#paint4_linear_6413_63687)"/>
<path d="M40.7752 26.4724L32.918 27.4023C32.9762 27.367 32.9674 27.3529 32.9691 27.3511C33.0909 27.2699 33.0185 27.127 33.202 27.0405C33.3609 26.9664 34.0666 26.9753 34.3137 26.9364C36.2528 26.633 38.2043 26.423 40.1558 26.213C40.357 26.3065 40.574 26.3806 40.7769 26.4706L40.7752 26.4724Z" fill="#3E7B8B"/>
<path d="M23.3527 26.6277C23.3545 26.9047 23.2663 27.1747 23.3016 27.4552C22.9081 27.4817 22.5023 27.4041 22.1123 27.3511L22.2164 26.9382C22.7158 27.0406 22.9345 26.783 23.3545 26.6277H23.3527Z" fill="#387266"/>
<path d="M16.3745 26.1618L22.2167 26.9364L22.1126 27.3493C20.0093 27.0723 17.9114 26.6929 15.8046 26.4194H15.7534C15.9581 26.3224 16.1769 26.2571 16.3745 26.1618Z" fill="#3E7B8B"/>
<path d="M14.8234 27.404C16.5667 27.561 18.2235 28.2033 19.8116 28.9038C21.5531 29.6713 23.4693 30.9435 25.3432 31.3335C25.4508 31.3564 25.6873 31.4411 25.7314 31.2823C25.8108 31.3035 25.8831 31.3564 25.989 31.3864C26.0049 31.3899 26.0243 31.3829 26.0401 31.3864C25.9854 31.6475 26.0172 31.9263 25.989 32.1875C25.9854 32.2192 25.8866 32.3092 25.8849 32.3163C22.9012 31.944 19.861 31.6281 17.0184 30.61C16.4079 30.3912 13.1489 29.0414 13.1666 28.3603C13.1736 28.0868 14.5587 27.4975 14.8216 27.404H14.8234Z" fill="#3E7B8B"/>
<path d="M25.7317 31.2806C25.6876 31.4394 25.4511 31.3547 25.3435 31.3318C23.4696 30.9418 21.5534 29.6696 19.8119 28.9021C18.2239 28.2034 16.567 27.5593 14.8237 27.4023C14.9031 27.3741 15.0761 27.2135 15.1854 27.1959C17.3963 26.8447 22.2663 30.0949 24.5177 30.9189C24.5883 30.9454 24.6589 30.8113 24.673 30.8148C25.0312 30.9401 25.3611 31.1783 25.7334 31.2806H25.7317Z" fill="#76AFC4"/>
<path d="M42.2735 27.6105C42.5117 27.7269 42.7305 27.8716 42.9457 28.0234C42.4464 29.3679 40.8848 30.2537 39.6109 30.7636C37.587 31.5752 35.3797 31.824 33.227 32.0552C33.0841 31.9317 32.6977 31.7852 32.5036 31.7446C31.5631 31.5541 31.1714 32.0534 30.3315 31.4341C30.5892 31.3476 30.8485 31.2594 31.1061 31.1765C31.392 31.4588 32.2566 31.0635 32.6306 30.9189C33.9434 30.4089 35.1574 29.5514 36.4296 28.955C37.6065 28.4045 39.2456 27.6511 40.539 27.5593C41.1283 27.517 41.6912 27.6458 42.2717 27.6105H42.2735Z" fill="url(#paint5_linear_6413_63687)"/>
<path d="M41.292 27.2488C41.712 27.3141 41.9096 27.4323 42.2748 27.6105C41.6961 27.6458 41.1315 27.517 40.5421 27.5593C39.2488 27.6511 37.6096 28.4045 36.4327 28.955C36.3727 28.6603 35.958 29.2144 36.1221 28.7486C37.6025 28.034 39.6176 26.9912 41.292 27.2488Z" fill="#76AFC4"/>
<path d="M36.4333 28.955C35.1611 29.5514 33.9454 30.4089 32.6344 30.9188C32.2585 31.0653 31.3957 31.4588 31.1099 31.1764C32.9396 30.5836 34.4218 29.569 36.1245 28.7468C35.9604 29.2126 36.375 28.6585 36.435 28.9532L36.4333 28.955Z" fill="#4B89A1"/>
<path d="M4.37907 14.0646C6.5282 15.0351 8.58204 16.1661 10.6341 17.3218C10.7682 17.8741 10.9182 18.4387 11.0999 18.9769C10.8 19.0139 10.7876 19.8732 10.7382 20.1661C10.68 20.1556 10.6835 19.8185 10.5318 19.9844C10.4665 20.0567 10.0024 21.9535 10.5318 21.7171C10.5741 22.2253 11.0594 22.2059 10.8935 22.5958C9.68131 21.2707 8.36325 20.0285 7.17047 18.6928C6.23706 17.6465 4.95253 15.6297 4.01736 14.8163C3.74034 14.5745 3.75975 14.8216 3.62918 14.7898C3.53213 14.7669 2.50521 13.6111 2.18231 13.3941C2.08879 13.3306 1.98998 13.23 1.89823 13.3941C1.8453 13.1771 1.52769 13.0483 1.87176 12.9283C2.68518 13.357 3.54272 13.6888 4.37907 14.0664V14.0646Z" fill="#BAC637"/>
<path d="M14.9775 24.3021C14.5629 24.7185 14.0194 25.6237 13.4777 25.853C13.4424 25.7013 13.6365 25.7295 13.633 25.6201C13.6295 25.5407 12.6608 24.7467 12.4949 24.535C12.4896 24.5279 12.6043 24.3868 12.599 24.3797C12.4261 24.1592 12.1261 23.8504 11.9268 23.6298L12.1332 21.3554C12.8231 22.4123 14.0688 23.4198 14.9758 24.3021H14.9775Z" fill="#5C9443"/>
<path d="M11.1002 18.9769C11.3154 19.6157 11.5572 20.2438 11.8748 20.8384L11.693 20.632C11.4178 21.3819 10.9114 22.7935 11.8219 23.2946L12.0283 21.2002C12.0548 21.2443 12.1006 21.306 12.1324 21.3554L11.926 23.6298C11.6242 23.2981 11.2149 22.9505 10.892 22.5959C11.0578 22.2059 10.5708 22.2253 10.5303 21.7172C10.4967 21.306 10.6644 20.5967 10.7367 20.1662C10.7861 19.8733 10.7985 19.014 11.0984 18.9769H11.1002Z" fill="#85AC3D"/>
<path d="M10.8942 22.5958C11.2171 22.9505 11.6264 23.2981 11.9282 23.6298C12.1276 23.8504 12.4275 24.1592 12.6004 24.3797C12.6057 24.3868 12.491 24.5279 12.4963 24.535C12.6622 24.7467 13.6309 25.5425 13.6344 25.6201C13.6397 25.7278 13.4439 25.7013 13.4791 25.853C12.8369 26.1248 12.1664 25.7278 11.6441 25.3361C11.4041 25.1561 11.2206 24.7485 10.9207 24.6126C9.3644 23.9121 9.6573 27.0511 9.21442 27.1976C8.62332 27.3934 8.94093 25.7101 8.82624 25.5178C8.53157 25.0167 8.20691 25.8319 8.15397 26.0613C8.01634 25.2514 6.39832 24.655 5.67313 24.355C4.64091 22.7829 3.72868 21.0837 3.13935 19.2892C2.4812 17.2848 2.37357 15.3597 1.89893 13.3959C1.99068 13.2318 2.08949 13.3324 2.18301 13.3959C2.5059 13.6129 3.53283 14.7686 3.62987 14.7916C3.76044 14.8216 3.74103 14.5763 4.01805 14.818C4.95322 15.6315 6.23776 17.6483 7.17116 18.6946C8.36394 20.0303 9.682 21.2725 10.8942 22.5976V22.5958Z" fill="url(#paint6_linear_6413_63687)"/>
<path d="M9.7826 22.3365C9.98552 22.3277 10.2061 22.3047 10.3772 22.4141L10.2996 22.4918L6.91357 23.0352C7.7764 22.7847 8.88978 22.3788 9.7826 22.3365Z" fill="#5C9443"/>
<path d="M3.83779 15.0474C3.9666 15.0033 4.85589 16.1361 4.92294 16.339L4.61239 16.0285C4.05835 15.8732 3.4002 16.1573 2.93262 15.7956L4.45712 15.8732C4.24891 15.3738 3.84838 15.3403 3.39667 15.2786C3.86073 15.3474 3.80779 15.0562 3.83603 15.0457L3.83779 15.0474Z" fill="#BAC637"/>
<path d="M10.61 23.4745C10.8146 23.4657 11.3299 23.404 11.4375 23.5786L8.30908 23.9668C8.87901 23.6051 9.93063 23.5028 10.61 23.4763V23.4745Z" fill="#5C9443"/>
<path d="M3.52761 18.0453C3.88404 17.9694 4.97095 18.1882 5.41383 18.1229L3.37234 18.2517C3.31764 18.2058 3.51526 18.047 3.52761 18.0453Z" fill="#85AC3D"/>
<path d="M10.7386 20.1662C10.6663 20.5967 10.4987 21.306 10.5322 21.7171C10.0029 21.9536 10.4669 20.0568 10.5322 19.9844C10.6839 19.8186 10.6804 20.1556 10.7386 20.1662Z" fill="#9CB93E"/>
<path d="M11.8769 20.8384C11.9334 20.9443 11.9881 21.1278 12.0322 21.2001L11.8258 23.2945C10.9153 22.7934 11.4217 21.3819 11.697 20.632L11.8787 20.8384H11.8769Z" fill="#85AC3D"/>
<path d="M23.87 11.5838C22.9719 11.8856 21.5973 12.3337 20.8721 12.9284L18.3384 8.81892C17.8884 8.72187 18.2113 8.89303 18.1831 8.97419C18.176 8.9936 17.9908 9.06947 18.0278 9.30944C17.5761 8.94949 16.4821 8.53307 15.9087 8.53484C15.9546 8.07961 16.0251 7.63849 16.1151 7.19031C16.1557 6.99269 16.2316 6.15986 16.3992 6.10516C19.3194 7.19208 21.4879 9.67469 23.87 11.5856V11.5838Z" fill="#BAC637"/>
<path d="M19.5275 11.5837C19.8715 12.1431 20.1697 12.7183 20.6126 13.1859C20.4591 13.3323 20.1927 13.7982 20.0956 13.8581C19.8698 13.597 17.5054 13.3306 17.5618 13.6764C18.3329 13.9323 19.2275 13.7364 20.0427 13.9093C19.6298 14.7351 19.3704 15.6103 19.1128 16.4943C18.0806 15.7197 17.0907 14.8798 16.0109 14.1687C15.8962 12.743 15.7603 11.3103 15.8044 9.8775C16.7431 10.0945 17.6059 10.5109 18.467 10.9115C18.4935 10.9238 18.4917 10.795 18.5182 10.8074C18.9558 11.0068 19.0828 11.4743 19.5257 11.582L19.5275 11.5837Z" fill="url(#paint7_linear_6413_63687)"/>
<path d="M18.0281 9.30939C18.5416 9.71698 19.1521 10.9751 19.5279 11.5838C19.0833 11.4744 18.9562 11.0086 18.5204 10.8092C18.4939 10.7968 18.4957 10.9256 18.4692 10.9133C17.6082 10.5128 16.7453 10.0963 15.8066 9.87932C15.8066 9.84579 15.8066 9.8105 15.8066 9.77521C15.8225 9.36056 15.8684 8.94768 15.9107 8.53479C16.486 8.53479 17.5782 8.94944 18.0299 9.30939H18.0281Z" fill="#BAC637"/>
<path d="M20.8724 12.9283C20.8053 12.983 20.6871 13.1171 20.6147 13.186C20.1701 12.7184 19.8737 12.1414 19.5296 11.5838C19.1538 10.9751 18.5433 9.71701 18.0298 9.30941C17.9927 9.06768 18.178 8.99357 18.1851 8.97416C18.2133 8.893 17.8904 8.72184 18.3403 8.81889L20.8741 12.9283H20.8724Z" fill="#85AC3D"/>
<path d="M20.0956 13.8581C20.0956 13.8581 20.1026 13.9181 20.0444 13.9093C19.2275 13.7364 18.3346 13.934 17.5636 13.6764C17.5053 13.3288 19.8715 13.597 20.0973 13.8581H20.0956Z" fill="#BAC637"/>
<path d="M40.0515 7.24149H40.0003L39.0175 3.90664C38.9928 3.88546 38.7864 4.10779 38.7599 4.13955C38.7052 4.06191 38.7317 3.94898 38.6046 4.01074C38.3276 4.14131 37.2425 6.84801 37.0272 7.29442L36.8984 7.32089C36.8666 7.05445 36.4114 5.9146 36.2261 5.82109C36.1626 5.78933 36.1591 5.84579 36.122 5.87226L36.7943 7.37206C36.7784 7.65084 36.8525 7.8714 36.6126 8.17313L35.8115 6.64862C35.5768 6.75802 35.9368 7.13562 36.0179 7.32089C36.0585 7.41087 36.0779 7.43381 36.122 7.52733C36.3408 7.99315 36.6849 8.4325 36.3038 8.89656L35.9932 8.48367C35.665 8.32663 36.1679 8.9742 36.175 9.02713C36.1873 9.14182 35.9526 9.82114 35.8909 9.8282L34.8304 8.61248C34.9204 8.98125 35.748 9.6694 35.8133 9.957C35.8221 9.99582 35.5821 10.6275 35.5292 10.7069C34.9645 10.0593 34.5111 9.29886 33.927 8.69012L33.7982 8.71658C34.3558 9.77879 35.9703 10.571 35.0651 11.845L33.1789 9.54412C33.186 10.2146 34.9504 11.5556 35.0404 12.025C35.0651 12.1538 34.9116 12.4467 34.9363 12.6196C34.1899 12.1573 32.0408 11.4409 31.1621 11.2751C33.1207 8.24194 35.7286 5.39585 38.8905 3.57139C38.9487 3.55904 38.9875 3.60844 39.0193 3.64902C39.0952 3.74254 39.7268 5.67111 39.7939 5.92343C39.9104 6.35396 39.9739 6.80213 40.0515 7.24149Z" fill="#72A042"/>
<path d="M38.7583 4.13955C37.9413 5.05531 36.8562 8.58425 36.2774 9.90407C36.0057 10.5216 35.5011 11.0422 35.3475 11.7127C35.2805 12.002 35.3564 12.5102 35.1923 12.8243C35.1199 12.7713 34.9647 12.6372 34.9347 12.6178C34.9082 12.4449 35.0635 12.1538 35.0388 12.0232C34.9488 11.5539 33.1843 10.2129 33.1772 9.54236L35.0635 11.8432C35.9686 10.571 34.3541 9.77703 33.7966 8.71482L33.9254 8.68835C34.5094 9.29709 34.9629 10.0558 35.5275 10.7051C35.5805 10.6257 35.8204 9.99406 35.8116 9.95524C35.7463 9.66763 34.9188 8.97949 34.8288 8.61071L35.8892 9.82643C35.951 9.81938 36.1857 9.14006 36.1733 9.02537C36.168 8.9742 35.6634 8.32487 35.9916 8.48191L36.3021 8.89479C36.685 8.43074 36.3392 7.99139 36.1204 7.52557C36.0763 7.43205 36.0569 7.40911 36.0163 7.31912C35.9351 7.13562 35.5752 6.75626 35.8098 6.64686L36.6109 8.17136C36.8509 7.86964 36.775 7.64908 36.7926 7.37029L36.1204 5.87049C36.1574 5.84226 36.161 5.78756 36.2245 5.81932C36.4098 5.91284 36.865 7.05092 36.8967 7.31912L37.0256 7.29266C37.2391 6.84801 38.326 4.14131 38.603 4.00898C38.73 3.94898 38.7036 4.06015 38.7583 4.13778V4.13955Z" fill="#9CB93E"/>
<path d="M39.9993 7.24142H40.0505C40.3963 9.19645 40.4775 13.8352 39.9464 15.7197C39.8087 16.2067 37.9243 17.5442 37.6208 18.2005C37.2996 16.856 36.9838 15.0668 36.2251 13.9094L39.4311 12.953L36.1739 13.8052C36.0522 13.6288 35.6181 13.1753 35.4505 13.0306L39.1735 11.8679L35.3481 12.9283C35.3323 12.916 35.2458 12.863 35.1929 12.8242C35.357 12.5101 35.2811 12.002 35.3481 11.7126C35.5017 11.0421 36.0081 10.5216 36.278 9.904C36.8568 8.58418 37.9437 5.05524 38.7589 4.13948C38.7871 4.10772 38.9918 3.8854 39.0165 3.90657L39.9993 7.24142Z" fill="url(#paint8_linear_6413_63687)"/>
<path d="M35.4503 13.0307C35.4079 12.9936 35.3638 12.9407 35.3462 12.9266L39.1716 11.8661L35.4485 13.0289L35.4503 13.0307Z" fill="#5C9443"/>
<path d="M36.225 13.9094C36.1862 13.8494 36.1774 13.8124 36.1738 13.8053L39.431 12.9531L36.225 13.9094Z" fill="#5C9443"/>
<path d="M39.1462 10.7562C39.2468 10.7527 39.3139 10.7386 39.3791 10.8339C38.114 11.2326 36.7854 11.6049 35.5026 12.0231C35.4832 11.9843 35.6438 11.8714 35.6843 11.8414C35.9631 11.6438 38.8022 10.7668 39.148 10.7562H39.1462Z" fill="#85AC3D"/>
<path d="M39.1982 9.77346C39.3005 9.76993 39.4046 9.77522 39.5087 9.77346L39.4576 9.92873L36.0715 10.8851C36.0486 10.8339 36.2109 10.6839 36.2533 10.6522C36.6326 10.3716 38.7165 9.78934 39.1999 9.77346H39.1982Z" fill="#85AC3D"/>
<path d="M39.1471 7.1903C39.2177 7.18501 39.2583 7.2697 39.3801 7.21677C39.4859 7.41968 37.6844 8.11489 37.4674 8.25075C37.3897 8.07783 37.4515 8.16253 37.545 8.06901C37.7038 7.91197 38.9795 7.20442 39.1471 7.1903Z" fill="#85AC3D"/>
<path d="M39.0956 6.41384C39.1432 6.41031 39.1962 6.39796 39.2244 6.4403C39.2773 6.525 37.7722 7.51487 37.5693 7.52545C37.7758 7.38959 38.9527 6.42266 39.0938 6.41384H39.0956Z" fill="#85AC3D"/>
<path d="M39.1465 5.27588L39.1977 5.37998C39.1677 5.46468 38.1919 6.22693 37.9819 6.23222C38.3013 5.84051 38.7389 5.57937 39.1447 5.27588H39.1465Z" fill="#85AC3D"/>
<path d="M50.494 11.5327C50.4587 11.6827 50.5205 11.935 50.494 12.1009C50.3546 12.9619 49.8994 14.5905 49.5112 15.3581C49.4336 15.5116 49.3595 15.7657 49.2007 15.771L47.7785 15.4092C47.3003 15.4463 46.7533 15.2822 46.3563 15.6157C46.2805 15.621 46.3352 15.4904 46.2275 15.5116C46.104 15.5363 46.0087 15.8274 45.8658 15.8221C45.8005 15.8204 46.0299 15.6792 45.8394 15.6157C47.2703 14.3117 48.6343 12.9266 50.0264 11.5839C50.1747 11.5451 50.3299 11.4304 50.4923 11.5327H50.494Z" fill="#5C9443"/>
<path d="M49.2024 15.7708C48.2231 15.6226 47.348 15.545 46.3599 15.6156C46.7569 15.2821 47.3021 15.4462 47.782 15.4091L49.2042 15.7708H49.2024Z" fill="#85AC3D"/>
<path d="M49.3316 13.8582C49.434 13.8546 49.5381 13.8599 49.6422 13.8582C49.7128 13.8935 49.6298 13.9993 49.591 14.0135C49.0017 14.2305 48.0189 14.054 47.4966 14.6081C47.7383 14.1105 48.8005 13.8758 49.3316 13.8582Z" fill="#85AC3D"/>
<path d="M47.676 14.7368C48.0553 14.6574 48.7982 14.7545 49.2005 14.8145L47.5207 14.9433C47.4183 14.8127 47.6054 14.751 47.676 14.7368Z" fill="#85AC3D"/>
<path d="M49.176 12.9794C49.2324 12.9724 50.1111 12.9653 49.7971 13.1347C49.7353 13.1682 48.6943 13.2229 48.479 13.3676C48.7207 13.0959 48.8266 13.1382 49.1248 13.0835C49.1671 13.0765 49.1354 12.9847 49.176 12.9794Z" fill="#85AC3D"/>
<path d="M33.8992 19.7004C34.425 20.8596 35.0496 21.9924 35.8119 23.0088C35.8225 23.0246 35.8631 23.1499 35.916 23.2152L35.1926 24.1204C35.2296 23.4622 35.3373 22.6294 34.9861 22.0524C35.129 23.2346 35.3902 24.4397 34.1851 25.1279L33.5904 21.6907C33.6328 22.1777 33.7933 22.6559 33.848 23.1376C33.8851 23.4658 34.0598 25.1208 34.0033 25.3096C33.9469 25.4984 33.1123 26.0613 33.0205 26.3171H32.9693C32.8211 23.5769 33.3734 21.5707 33.5375 18.924C33.7086 19.1252 33.7863 19.4516 33.8992 19.6986V19.7004Z" fill="#1C5F3B"/>
<path d="M36.2779 23.681C36.0485 23.9827 35.7468 24.2315 35.5545 24.5597C35.5086 24.6391 35.4274 24.5932 35.4504 24.7149C35.1363 24.7679 34.7022 25.3237 34.5717 25.5936C34.5681 25.6007 34.4588 25.6342 34.4676 25.6977C34.1464 25.6766 33.7353 26.273 33.4848 26.55L34.3123 26.9382C34.0653 26.977 33.3595 26.9664 33.2007 27.0423C33.0172 27.1287 33.0913 27.2717 32.9678 27.3528C32.9978 27.1446 32.9678 26.9417 32.9678 26.7317C32.9678 26.5959 32.9748 26.4547 32.9678 26.3188H33.0189C33.2483 26.3418 33.6206 25.9342 33.82 25.7507C34.6087 25.0237 35.3463 24.2174 36.0697 23.4251C36.1332 23.4992 36.2426 23.6474 36.2762 23.6827L36.2779 23.681Z" fill="#1C5F3B"/>
<path d="M38.5519 21.7683C37.9767 21.0696 37.892 19.2293 37.6732 18.3047C37.6627 18.2588 37.6327 18.2482 37.6221 18.2006C37.9256 17.5442 39.8118 16.2067 39.9476 15.7197C40.9657 15.118 41.9874 14.4864 43.076 14.0135C44.964 13.193 47.4784 12.3672 49.4599 11.7391C49.227 12.0037 47.5649 13.9288 47.4184 13.9623C47.4113 13.9623 47.3496 13.9111 47.2896 13.9358L47.3937 12.7978C46.9755 13.2406 47.4555 14.1493 46.7991 14.5305C46.6103 14.5075 46.9738 13.1701 46.7479 12.9795L46.6191 13.0571C46.6173 13.7823 46.762 14.6134 46.1798 15.0986C46.1021 15.0386 46.2045 13.6182 46.1021 13.3659C46.0562 13.2548 45.9151 13.2618 45.8445 13.3659C45.6857 13.5935 46.1198 15.6862 45.6116 15.6156C45.5057 15.6015 45.2887 13.8317 45.1458 13.5988C44.9411 14.5852 46.0209 15.7779 44.7064 16.3655C44.7311 15.8115 44.7664 15.0898 44.5247 14.5816C44.4047 15.4568 45.0328 16.4414 44.0589 16.9601L43.5419 14.5305C43.5119 15.6033 44.4153 16.9019 43.2843 17.6324C43.2137 16.7219 43.1731 15.7603 42.7161 14.9434C42.7884 15.9509 43.7377 17.6818 42.4832 18.227L42.2503 15.9773C42.1673 16.6143 42.5273 17.7489 42.3791 18.3294C42.3279 18.5305 41.7086 18.9152 41.578 19.1304L41.1122 16.1838C41.1263 16.826 41.361 17.4895 41.3963 18.1229C41.4527 19.1004 41.4527 19.4516 40.5687 19.9844C40.7011 19.2134 40.6446 18.0471 40.4135 17.2954C40.3905 17.223 40.3517 16.9954 40.2317 17.0625C40.3623 17.8565 40.7346 19.2681 40.4646 20.0356C40.4117 20.1874 38.9984 21.4525 38.9401 21.3537L38.7849 19.1304L38.7584 21.3801L38.5519 21.7683Z" fill="url(#paint9_linear_6413_63687)"/>
<path d="M50.0284 11.5837C48.6362 12.9283 47.2723 14.3134 45.8413 15.6156C43.5281 17.7223 41.0613 19.6685 38.7852 21.8194L38.5522 21.7683L38.7587 21.3801L38.7852 19.1304L38.9404 21.3536C38.9987 21.4524 40.412 20.1873 40.4649 20.0356C40.7349 19.268 40.3644 17.8564 40.232 17.0624C40.3502 16.9954 40.3908 17.223 40.4138 17.2953C40.6449 18.047 40.7014 19.2115 40.569 19.9844C41.453 19.4515 41.453 19.1004 41.3966 18.1229C41.3595 17.4894 41.1266 16.826 41.1125 16.1837L41.5783 19.1304C41.7089 18.9151 42.3282 18.5305 42.3794 18.3293C42.5276 17.747 42.1676 16.6142 42.2506 15.9773L42.4835 18.227C43.7363 17.6835 42.7887 15.9508 42.7164 14.9433C43.1734 15.7585 43.214 16.7219 43.2846 17.6323C44.4156 16.9019 43.5122 15.6032 43.5422 14.5304L44.0592 16.9601C45.0331 16.4431 44.405 15.4568 44.525 14.5816C44.7667 15.0897 44.7314 15.8114 44.7067 16.3655C46.0212 15.7779 44.9414 14.5869 45.1461 13.5988C45.289 13.8317 45.506 15.5997 45.6119 15.6156C46.1201 15.6879 45.686 13.5935 45.8448 13.3659C45.9171 13.2618 46.0583 13.2547 46.1024 13.3659C46.2048 13.6182 46.1024 15.0386 46.18 15.0986C46.7623 14.6133 46.6176 13.7823 46.6194 13.0571L46.7482 12.9794C46.9741 13.17 46.6123 14.5075 46.7994 14.5304C47.4558 14.1493 46.9758 13.2406 47.394 12.7977L47.2899 13.9358C47.3499 13.9093 47.4134 13.9622 47.4187 13.9622C47.5652 13.9287 49.2273 12.0037 49.4602 11.739C49.649 11.679 49.8378 11.6331 50.0284 11.5837Z" fill="#85AC3D"/>
<path d="M39.6635 17.2707C39.6988 17.9606 39.9881 17.6765 39.9987 17.71C40.184 18.3011 40.1169 19.4851 40.0252 20.1132C39.9193 19.7039 40.0781 18.1635 39.8964 17.8635C39.877 17.83 39.4041 17.6695 39.6635 17.2689V17.2707Z" fill="#5C9443"/>
<path d="M47.7028 19.4409C47.3958 19.9915 46.9741 20.7467 46.6176 21.2495C46.046 22.0541 45.2819 22.8605 44.5497 23.5239C43.8686 24.1415 43.0905 24.6497 42.3776 25.2302C41.0296 24.1697 39.9391 22.7899 38.5522 21.7665L38.7852 21.8177C41.0631 19.6668 43.5281 17.7206 45.8413 15.6138C46.0318 15.6773 45.8025 15.8185 45.8677 15.8203C46.0107 15.8256 46.1059 15.5344 46.2295 15.5097C46.3371 15.4885 46.2824 15.6191 46.3583 15.6138C47.3464 15.5432 48.2215 15.6209 49.2008 15.7691C49.3579 15.7638 49.4337 15.5079 49.5114 15.3562C49.1002 16.7325 48.405 18.1846 47.7028 19.4409Z" fill="url(#paint10_linear_6413_63687)"/>
<path d="M41.7834 19.3898L45.7376 20.3462C45.6635 20.4273 45.45 20.3832 45.3494 20.3726C44.199 20.2385 42.8509 19.6174 41.6528 19.5204L41.7816 19.3916L41.7834 19.3898Z" fill="#5C9443"/>
<path d="M43.7467 17.7365C44.4401 17.6465 46.0617 18.257 46.771 18.4864L43.5403 17.943C43.4432 17.8318 43.7167 17.74 43.7467 17.7365Z" fill="#5C9443"/>
<path d="M44.5741 16.909C45.3329 16.7855 47.0109 17.5883 47.7537 17.8653C46.6227 17.6695 45.6064 16.999 44.4189 17.1154C44.3412 17.059 44.5618 16.9108 44.5741 16.909Z" fill="#85AC3D"/>
<path d="M45.6611 16.2367C46.224 16.2085 46.8663 16.2755 47.3409 16.6249L45.6611 16.2367Z" fill="#5C9443"/>
<path d="M46.6421 16.7537L47.2879 16.8825C47.1803 16.9143 46.6703 16.9337 46.6421 16.7537Z" fill="#5C9443"/>
<path d="M43.593 21.613L44.1347 21.6907L43.54 21.7683L43.593 21.613Z" fill="#3B7F47"/>
<path d="M35.9165 23.2152C35.973 23.2876 36.0277 23.3705 36.0718 23.4217C35.3483 24.2139 34.6125 25.0203 33.8221 25.7472C33.6227 25.9308 33.2486 26.3401 33.021 26.3154C33.1127 26.0596 33.9491 25.4879 34.0038 25.3079C34.0585 25.1279 33.8856 23.464 33.8485 23.1358C33.7938 22.6541 33.6315 22.1742 33.5909 21.689L34.1855 25.1262C35.3907 24.4362 35.1295 23.2311 34.9866 22.0507C35.3377 22.6277 35.2301 23.4605 35.1931 24.1186L35.9165 23.2135V23.2152Z" fill="#3B7F47"/>
<path d="M40.1541 26.2147C38.2026 26.4247 36.2511 26.6347 34.3119 26.9382L33.4844 26.55C33.7349 26.2712 34.1461 25.6766 34.4672 25.6978C35.0918 25.7383 35.9882 26.1953 36.6128 26.3189C36.7098 26.3383 36.8845 26.3983 36.948 26.2924L34.5695 25.5937C34.7001 25.3237 35.1342 24.7679 35.4482 24.7149C36.0482 24.6144 37.0786 24.9814 37.7226 24.9479L35.5506 24.5597C35.7429 24.2315 36.0446 23.9827 36.274 23.681C37.2198 24.6867 38.9031 25.6307 40.1505 26.2147H40.1541Z" fill="#0E4834"/>
<path d="M34.4673 25.6977C34.4585 25.6342 34.5679 25.6007 34.5714 25.5936L36.9499 26.2924C36.8864 26.3965 36.7117 26.3382 36.6147 26.3188C35.9918 26.1953 35.0937 25.7401 34.4691 25.6977H34.4673Z" fill="#256D42"/>
<path d="M35.4504 24.715C35.4257 24.5933 35.5068 24.6392 35.5545 24.5598L37.7265 24.9479C37.0825 24.9815 36.0521 24.6145 35.4521 24.715H35.4504Z" fill="#3B7F47"/>
<path d="M15.7536 14.0646C15.6336 14.1722 15.6495 14.1987 15.5983 14.3222C15.5454 14.1863 15.4677 14.3522 15.443 14.3998C15.1131 15.0315 14.8625 15.7902 14.7443 16.4942C13.8744 15.8096 14.6984 14.8656 14.8731 14.0381C14.4743 14.4704 14.3296 15.2326 14.1744 15.822C13.4368 15.3015 14.0703 14.3328 14.2008 13.6252C13.8638 13.6958 13.7456 15.1674 13.6838 15.2273C13.5392 15.3226 13.5374 15.1038 13.5286 15.0985C13.6433 15.0244 13.5056 14.8145 13.4774 14.7368C13.3751 14.1704 13.645 13.6711 13.735 13.1347C13.7474 13.0659 13.6733 12.9776 13.735 12.8771C14.4196 13.2741 15.0848 13.634 15.7518 14.0663L15.7536 14.0646Z" fill="#5C9443"/>
<path d="M10.9455 11.2732C10.8908 11.2556 10.6561 11.2697 10.5573 11.1691C11.526 12.5189 12.3941 13.9958 13.4775 15.2786L10.7373 15.3827C11.9636 15.7056 13.1811 14.848 13.9945 16.1573C13.3381 16.242 12.6041 16.1749 11.953 16.2861C11.8383 16.3055 11.4113 16.3443 11.4096 16.519C12.1012 16.6407 13.4687 16.1855 14.0722 16.3372C14.2733 16.3884 14.6086 16.9619 14.8221 17.0871L11.5137 17.5C12.4753 17.6182 13.7122 17.1542 14.6421 17.2671C15.1503 17.3289 15.362 17.7788 15.7025 18.1193L12.1877 18.5852C13.0417 18.684 13.901 18.2976 14.7462 18.2499C15.856 18.1882 15.8208 18.3205 16.5301 19.1022L12.2389 19.8768L12.4718 19.9544L16.6077 19.231L18.0299 20.9372C17.9716 21.0925 17.8111 21.4224 17.7193 21.5583C17.4052 21.77 17.1088 21.6712 16.8141 21.7136C16.7842 21.7171 16.3783 21.8636 16.3483 21.8688C16.1401 21.9006 15.392 21.8089 15.3655 22.0753L17.3558 21.92C16.6518 22.7493 15.7502 23.5222 14.9773 24.2985C14.0686 23.4163 12.8247 22.4088 12.1348 21.3519C12.103 21.3042 12.0589 21.2407 12.0307 21.1966C11.9866 21.1242 11.9319 20.9407 11.8754 20.8349C11.556 20.242 11.3143 19.6121 11.1008 18.9734C10.9191 18.4352 10.7691 17.8706 10.635 17.3183C10.1339 15.2521 9.71568 12.8471 10.0403 10.7527L10.9455 11.2697V11.2732Z" fill="url(#paint11_linear_6413_63687)"/>
<path d="M15.6249 20.2685C15.8631 20.2491 16.7242 20.2332 16.9165 20.2685C16.9906 20.2826 17.0982 20.2403 17.0206 20.3726L13.0664 20.7608C13.2164 20.6179 13.5799 20.6973 13.661 20.6831C13.7034 20.6761 13.6716 20.5879 13.7122 20.579C13.8075 20.5614 14.2327 20.5967 14.3333 20.579C14.6333 20.5279 15.3743 20.2897 15.6249 20.2685Z" fill="#5C9443"/>
<path d="M13.6083 17.7876C13.9294 17.7665 14.8134 17.7206 14.9775 17.9694L12.3149 18.2023C12.449 17.8123 13.2095 17.9217 13.5554 17.8917C13.5959 17.8882 13.5677 17.7912 13.6065 17.7876H13.6083Z" fill="#5C9443"/>
<path d="M17.7173 21.5618C17.6149 21.7153 17.465 21.7947 17.3556 21.9235L15.3652 22.0788C15.3917 21.8106 16.1381 21.9041 16.348 21.8724C16.378 21.8671 16.7839 21.7224 16.8139 21.7171C17.1068 21.6748 17.4032 21.7736 17.719 21.5618H17.7173Z" fill="#3B7F47"/>
<path d="M10.6614 14.3752C10.7849 14.3064 12.6641 14.437 12.807 14.8146C12.2318 14.5323 11.3072 14.7423 10.7655 14.5817C10.6932 14.5605 10.5573 14.4335 10.6614 14.3752Z" fill="#85AC3D"/>
<path d="M10.7123 12.4114C10.7423 12.4114 11.2046 12.6019 11.2293 12.6178C11.3899 12.7272 11.6969 13.0907 11.824 13.2636C11.427 12.9566 11.007 12.6778 10.5059 12.5649C10.4018 12.4767 10.7 12.4096 10.7123 12.4096V12.4114Z" fill="#85AC3D"/>
<path d="M16.0111 14.1688C17.091 14.8799 18.0808 15.7198 19.1131 16.4944C18.9348 17.1031 18.8149 17.7419 18.6472 18.3559C18.6437 18.3718 18.6508 18.3912 18.6472 18.4071C18.4673 19.0705 18.3649 19.7939 18.1814 20.4239C18.0226 20.4468 18.0703 20.5174 17.9238 20.3974C17.8391 20.3286 16.8069 19.0405 16.7857 18.9505C16.6446 18.3206 17.2409 16.6338 17.5091 16.0039L17.3027 16.1591C16.9939 17.0131 16.7187 17.8724 16.6816 18.7952C15.4994 18.0171 16.6093 16.2756 16.8881 15.2275C16.7822 15.1693 16.6551 15.4798 16.6304 15.538C16.4769 15.8927 16.2811 16.5455 16.1646 16.9337C16.1046 17.1349 15.9917 18.1565 15.8294 18.1495C15.4271 17.636 15.4447 17.1296 15.5965 16.4697C15.7094 15.9844 16.0094 15.4039 16.1646 14.9187C15.6741 15.0405 15.4253 17.059 15.3371 17.1419C14.4654 16.6214 15.2859 15.0846 15.5947 14.3241C15.6459 14.1988 15.63 14.1723 15.75 14.0665C15.7817 14.0876 15.9776 14.1494 16.0076 14.1706L16.0111 14.1688Z" fill="#3B7F47"/>
<path d="M18.3118 16.6496L17.5884 19.8556C17.3431 19.5345 18.153 16.5984 18.3118 16.6496Z" fill="#5C9443"/>
<path d="M10.9453 11.2732C11.0935 11.3208 11.2188 11.4143 11.3582 11.4796C11.1024 11.7849 11.6864 12.0795 11.8752 12.3848C12.2598 13.0077 12.431 13.7805 12.8827 14.3751C13.1509 14.3663 12.6745 12.7112 13.1668 12.8506C13.1509 13.7152 12.7115 14.5057 13.5285 15.1003C13.5373 15.1056 13.5391 15.3244 13.6838 15.2291C13.7455 15.1691 13.8637 13.6976 14.2008 13.627C14.0702 14.3345 13.4367 15.3032 14.1743 15.8238C14.3278 15.2344 14.4725 14.4722 14.873 14.0399C14.6983 14.8674 13.8743 15.8114 14.7442 16.496C14.8624 15.792 15.1112 15.0333 15.4429 14.4016C15.4676 14.3539 15.5435 14.1881 15.5982 14.324C15.2894 15.0844 14.469 16.6213 15.3406 17.1418C15.4288 17.0589 15.6776 15.0403 16.1681 14.9186C16.0129 15.4038 15.7111 15.9843 15.6 16.4695C15.4465 17.1295 15.4306 17.6359 15.8329 18.1493C15.9952 18.1581 16.1099 17.1348 16.1681 16.9336C16.2846 16.5454 16.4805 15.8926 16.634 15.5379C16.6587 15.4797 16.7875 15.1709 16.8916 15.2274C16.6128 16.2737 15.5029 18.017 16.6851 18.7951C16.7204 17.8705 16.9974 17.013 17.3062 16.159L17.5127 16.0037C17.2445 16.6336 16.6481 18.3205 16.7892 18.9504C16.8086 19.0404 17.8426 20.3284 17.9273 20.3973C18.0738 20.5172 18.0279 20.4467 18.1849 20.4237C18.1355 20.5913 18.0914 20.7784 18.0297 20.9407L16.6075 19.2345L12.4716 19.9579L12.2387 19.8803L16.5299 19.1057C15.8205 18.324 15.8576 18.1899 14.746 18.2534C13.9008 18.3011 13.0415 18.6893 12.1875 18.5887L15.7023 18.1229C15.3635 17.7805 15.1518 17.3324 14.6419 17.2706C13.7138 17.1559 12.4751 17.6217 11.5135 17.5035L14.8219 17.0906C14.6084 16.9654 14.2731 16.3919 14.072 16.3407C13.4685 16.189 12.1028 16.6442 11.4094 16.5225C11.4111 16.3496 11.8364 16.309 11.9528 16.2896C12.6039 16.1784 13.3397 16.2455 13.9943 16.1608C13.1809 14.8515 11.9634 15.7091 10.7371 15.3862L13.4773 15.2821C12.3922 13.9993 11.5258 12.5224 10.5571 11.1726C10.6559 11.2714 10.8906 11.2591 10.9453 11.2767V11.2732Z" fill="#85AC3D"/>
<path d="M14.9526 17.0113C15.1167 17.186 15.4043 17.3801 15.4185 17.6324L14.9526 17.0113Z" fill="#5C9443"/>
<path d="M13.7369 12.8754C13.6751 12.9777 13.7493 13.0659 13.7369 13.133C13.5146 13.0465 13.5887 13.3976 13.5816 13.4171C13.5605 13.477 13.3258 13.9058 13.324 13.934C13.3187 13.9799 13.3152 14.6222 13.324 14.6575C13.347 14.7439 13.4758 14.7263 13.4793 14.7351C13.5093 14.8127 13.6469 15.0227 13.5305 15.0968C12.7135 14.504 13.1529 13.7135 13.1687 12.8471C12.6765 12.7077 13.1529 14.3628 12.8847 14.3716C12.433 13.777 12.26 13.0042 11.8772 12.3813C11.6884 12.0761 11.1043 11.7814 11.3602 11.4761C12.1895 11.8626 12.95 12.4148 13.7387 12.8718L13.7369 12.8754Z" fill="#5C9443"/>
<path d="M13.7371 13.1348C13.6454 13.6712 13.3754 14.1705 13.4795 14.7369C13.476 14.7281 13.3472 14.7457 13.3242 14.6593C13.3154 14.624 13.3189 13.9799 13.3242 13.9358C13.3278 13.9076 13.5624 13.4788 13.5818 13.4188C13.5889 13.3994 13.5148 13.0483 13.7371 13.1348Z" fill="#85AC3D"/>
<path d="M12.5228 12.2049L12.574 13.1348C12.4434 13.2371 12.4116 12.2067 12.5228 12.2049Z" fill="#85AC3D"/>
<path d="M23.3533 26.6276C22.9333 26.7829 22.7163 27.0405 22.2152 26.9382L16.373 26.1636C17.8605 25.4366 19.2262 24.6038 20.2496 23.2681C20.8707 24.0339 21.7194 24.4979 22.524 25.0255C22.554 25.0449 22.6034 24.9408 22.6528 24.9743C22.7798 25.0573 23.108 25.5389 23.2474 25.673L23.1433 23.8115C23.0745 23.5592 22.9298 23.0369 22.8857 22.7264C22.8681 22.5958 22.9034 22.2253 22.8857 22.1053C22.8804 22.0647 22.7887 22.0947 22.7816 22.0541C22.7604 21.9183 22.7975 21.5124 22.7816 21.3819C22.7781 21.3554 22.5434 21.1684 22.7816 20.9425C22.9986 22.954 23.3339 24.5491 23.3498 26.6294L23.3533 26.6276Z" fill="#0E4834"/>
<path d="M21.8797 25.6449C22.1373 25.6996 22.6437 25.5231 22.8096 25.749L19.8364 26.0331C20.4822 25.7631 21.2004 25.7684 21.8779 25.6449H21.8797Z" fill="#3B7F47"/>
<path d="M22.6295 18.7705C22.6436 19.5098 22.7054 20.2086 22.7848 20.9426C22.5466 21.1684 22.7812 21.3555 22.7848 21.3819C22.8006 21.5125 22.7636 21.9183 22.7848 22.0542C22.7918 22.0965 22.8818 22.0648 22.8889 22.1054C22.9065 22.2253 22.8712 22.5959 22.8889 22.7265C22.933 23.037 23.0777 23.5593 23.1465 23.8116L23.2506 25.6731C23.1112 25.5408 22.783 25.0591 22.6559 24.9744C22.6048 24.9409 22.5571 25.045 22.5271 25.0256C22.2784 24.8156 22.4125 24.5297 22.3719 24.3268C22.2166 23.554 21.9731 22.9947 22.0613 22.1548C22.1248 21.5566 22.5218 21.0132 22.6048 20.4221C21.7719 21.7736 21.8602 23.1552 22.2695 24.6356L22.1654 24.6868C21.8884 24.4362 21.5779 24.221 21.2867 23.988C21.3114 23.8822 21.4243 23.8839 21.4932 23.8328C21.5055 23.824 21.5655 24.0004 21.6484 23.651C21.6873 22.8606 21.742 21.9942 21.7261 21.2478C21.4438 21.2725 21.6079 23.4587 21.4932 23.7816C21.2303 23.6352 20.6674 23.1111 20.4592 23.1605C20.4239 23.1693 20.401 23.1464 20.408 23.1093C21.0873 22.1777 21.809 20.7291 22.2166 19.6457C22.3154 19.381 22.4901 19.1146 22.5271 18.8182C22.543 18.8076 22.4795 18.6576 22.6312 18.767L22.6295 18.7705Z" fill="#1C5F3B"/>
<path d="M22.5254 25.0255C21.7208 24.4979 20.8721 24.0321 20.251 23.2681C20.3057 23.1975 20.3868 23.1393 20.4062 23.1128C20.3992 23.1499 20.4221 23.1728 20.4574 23.164C20.5633 23.5786 21.0044 23.7674 21.285 23.9915C21.5655 24.2156 21.8866 24.4379 22.1637 24.6903L22.2678 24.6391C21.8602 23.1587 21.7702 21.7771 22.603 20.4255C22.5201 21.0149 22.1231 21.5601 22.0596 22.1582C21.9713 22.9964 22.2148 23.5575 22.3701 24.3303C22.4107 24.5315 22.2766 24.8191 22.5254 25.029V25.0255Z" fill="#3B7F47"/>
<path d="M21.4917 23.8362V23.7851C21.6064 23.4622 21.4423 21.2777 21.7246 21.2513C21.7405 21.9977 21.6858 22.864 21.647 23.6545C21.564 24.0039 21.5041 23.8256 21.4917 23.8362Z" fill="#3B7F47"/>
<path d="M21.4915 23.7851V23.8363C21.4227 23.8857 21.3098 23.8857 21.2851 23.9915C21.0045 23.7674 20.5652 23.5804 20.4575 23.164C20.6657 23.1146 21.2286 23.6369 21.4915 23.7851Z" fill="#1C5F3B"/>
<path d="M22.7073 23.1641C22.8344 23.1835 22.635 23.4923 22.6032 23.5258C22.5079 23.5011 22.6844 23.2117 22.7073 23.1641Z" fill="#1C5F3B"/>
<defs>
<linearGradient id="paint0_linear_6413_63687" x1="49.0191" y1="23.6334" x2="48.4333" y2="26.0454" gradientUnits="userSpaceOnUse">
<stop stop-color="#5C9544"/>
<stop offset="1" stop-color="#3E8247"/>
</linearGradient>
<linearGradient id="paint1_linear_6413_63687" x1="14.7471" y1="26.6101" x2="20.0052" y2="32.1681" gradientUnits="userSpaceOnUse">
<stop stop-color="#155064"/>
<stop offset="1" stop-color="#08334F"/>
</linearGradient>
<linearGradient id="paint2_linear_6413_63687" x1="41.6239" y1="27.4905" x2="35.33" y2="33.989" gradientUnits="userSpaceOnUse">
<stop stop-color="#24647A"/>
<stop offset="1" stop-color="#0F4A65"/>
</linearGradient>
<linearGradient id="paint3_linear_6413_63687" x1="36.0223" y1="24.9143" x2="26.4713" y2="31.2788" gradientUnits="userSpaceOnUse">
<stop stop-color="#24667B"/>
<stop offset="1" stop-color="#0C3852"/>
</linearGradient>
<linearGradient id="paint4_linear_6413_63687" x1="19.5665" y1="26.873" x2="22.4091" y2="31.3159" gradientUnits="userSpaceOnUse">
<stop stop-color="#24657B"/>
<stop offset="1" stop-color="#11475F"/>
</linearGradient>
<linearGradient id="paint5_linear_6413_63687" x1="37.7406" y1="26.5871" x2="35.7573" y2="32.2475" gradientUnits="userSpaceOnUse">
<stop stop-color="#4189A4"/>
<stop offset="1" stop-color="#307590"/>
</linearGradient>
<linearGradient id="paint6_linear_6413_63687" x1="4.98851" y1="18.564" x2="9.42615" y2="24.6691" gradientUnits="userSpaceOnUse">
<stop stop-color="#699C43"/>
<stop offset="1" stop-color="#2D7746"/>
</linearGradient>
<linearGradient id="paint7_linear_6413_63687" x1="18.2094" y1="11.1973" x2="18.1723" y2="15.3844" gradientUnits="userSpaceOnUse">
<stop stop-color="#ACBF3B"/>
<stop offset="1" stop-color="#86AC41"/>
</linearGradient>
<linearGradient id="paint8_linear_6413_63687" x1="37.7831" y1="7.81664" x2="37.7355" y2="16.8119" gradientUnits="userSpaceOnUse">
<stop stop-color="#639845"/>
<stop offset="1" stop-color="#1F6542"/>
</linearGradient>
<linearGradient id="paint9_linear_6413_63687" x1="44.3941" y1="13.9694" x2="39.0919" y2="19.9756" gradientUnits="userSpaceOnUse">
<stop stop-color="#5B9344"/>
<stop offset="1" stop-color="#2E7646"/>
</linearGradient>
<linearGradient id="paint10_linear_6413_63687" x1="46.5682" y1="15.0086" x2="41.2854" y2="23.6545" gradientUnits="userSpaceOnUse">
<stop stop-color="#538E45"/>
<stop offset="1" stop-color="#1B6040"/>
</linearGradient>
<linearGradient id="paint11_linear_6413_63687" x1="10.5203" y1="13.0624" x2="16.0007" y2="22.7934" gradientUnits="userSpaceOnUse">
<stop stop-color="#609644"/>
<stop offset="1" stop-color="#1E6542"/>
</linearGradient>
</defs>
</svg>
