<svg width="30" height="30" viewBox="0 0 32 32" fill="none" xmlns="http://www.w3.org/2000/svg">
<path d="M7.88839 30.3449C7.91551 30.6376 8.23251 30.5806 8.42889 30.5815C8.34847 31.0088 8.65706 30.934 8.96939 30.9527V30.9864C6.13879 30.9443 3.30444 30.892 0.478516 30.7162L1.05268 30.5815C3.07534 30.1785 5.97982 30.6974 7.88933 30.3449H7.88839Z" fill="#278296"/>
<path d="M30.4415 30.5478C30.3929 30.9415 30.6435 30.6049 30.7791 30.7844C28.2674 30.9546 25.7332 30.9181 23.2168 30.9873C23.4637 30.9761 23.8228 31.0145 23.7236 30.7171C23.8976 30.7105 24.1033 30.6619 24.281 30.6498C24.3389 30.6011 24.2595 30.5338 24.2641 30.5151C24.2763 30.4581 24.3071 30.4375 24.2978 30.3458C26.341 30.3318 28.4039 30.3917 30.4425 30.5488L30.4415 30.5478Z" fill="#278296"/>
<path d="M13.0875 30.5478L13.2389 30.9864L18.067 30.919L18.1511 30.5815C19.2424 30.6553 20.4515 30.5618 21.5615 30.5815L21.5447 30.9527C21.9973 30.9125 22.4639 30.991 22.9118 30.9864C18.2661 31.0322 13.6139 31.0556 8.96826 30.9864V30.9527C9.17773 30.9658 10.7328 31.006 10.8086 30.9527C10.8497 30.9237 10.8132 30.6516 10.8254 30.5815C11.5791 30.5815 12.3356 30.603 13.0875 30.5478Z" fill="#25536B"/>
<path d="M23.7233 30.7161C23.8234 31.0135 23.4643 30.9752 23.2165 30.9864C23.1164 30.9911 23.0135 30.9855 22.9126 30.9864C22.4646 30.9911 21.998 30.9125 21.5454 30.9527L21.5622 30.5815C22.258 30.5936 23.0921 30.7414 23.7233 30.7161Z" fill="#106B84"/>
<path d="M30.7793 30.7835C30.6437 30.6039 30.3931 30.9415 30.4417 30.5469C30.8242 30.5759 31.3348 30.5861 31.6405 30.7161C31.3525 30.7208 31.0664 30.7638 30.7793 30.7835Z" fill="#106B84"/>
<path d="M18.1525 30.5815L18.0684 30.919L13.2404 30.9864L13.0889 30.5478C13.7977 30.4954 14.6094 30.4449 15.0807 29.839C16.0747 30.127 17.1117 30.5113 18.1535 30.5815H18.1525Z" fill="#1B4059"/>
<path d="M10.8259 30.5815C10.8137 30.6516 10.8502 30.9237 10.809 30.9527C10.7342 31.006 9.17912 30.9658 8.96871 30.9527C8.65638 30.934 8.34873 31.0079 8.42822 30.5815C9.21746 30.5834 10.0254 30.5815 10.8249 30.5815H10.8259Z" fill="#106B84"/>
<path d="M18.2876 3.06469C19.0581 4.07275 18.7168 4.6759 18.4569 5.83358C18.4166 6.01218 18.3643 6.19547 18.3222 6.37407L18.1875 6.35724C18.2399 6.04865 18.1006 3.7305 17.749 3.74078C17.201 4.05124 16.5099 4.22704 15.875 4.14569C15.6253 4.11389 15.4018 3.93248 15.2672 3.9091C14.9633 3.85674 14.1123 4.15036 14.0347 4.5001C13.9571 4.84983 13.9758 5.76438 13.9674 6.17115C13.9655 6.24596 14.0197 6.55829 13.9505 6.57606L13.7644 6.30581C13.727 6.15993 13.7382 5.95795 13.6971 5.79898C13.4699 4.92651 12.9481 4.1672 13.5961 3.31717C13.6419 3.25733 14.0524 2.85897 14.0861 2.86177C14.1057 2.86271 14.3648 3.11425 14.3732 3.13202C14.4218 3.24143 14.4012 3.43406 14.4069 3.55376C14.4704 3.7305 14.6659 3.22366 14.7949 3.13202C15.0437 2.95528 15.7132 2.82343 15.9601 3.04786L15.3354 3.43593C16.1097 3.79315 16.6839 3.33962 17.0233 2.65978C17.2253 2.59807 17.0747 3.19748 17.2262 3.26761C17.6087 3.26481 17.9294 3.1208 18.138 2.79538C18.1024 3.0357 18.267 3.03477 18.2895 3.06563L18.2876 3.06469Z" fill="#071D33"/>
<path d="M11.2991 29.3995C12.0593 29.6791 13.9922 30.6264 14.4056 29.6024C14.4158 29.6052 14.4289 29.5996 14.4392 29.6024C14.6562 29.6697 14.8703 29.7773 15.0807 29.839C14.6094 30.4449 13.7977 30.4954 13.0889 30.5478C12.3371 30.603 11.5806 30.5805 10.8269 30.5815C10.0273 30.5815 9.21939 30.5833 8.43015 30.5815C8.23377 30.5815 7.9177 30.6376 7.88965 30.3449C8.13652 30.2991 7.97194 30.2102 8.09257 30.0241C8.40116 29.5463 9.4513 29.7277 9.96655 29.6697C10.4182 29.6183 10.8465 29.4397 11.3 29.3995H11.2991Z" fill="#FDBD9B"/>
<path d="M18.2879 3.0647C18.2645 3.03477 18.0999 3.03477 18.1364 2.79445C17.9288 3.11987 17.6071 3.26388 17.2246 3.26668C17.0741 3.19655 17.2237 2.59714 17.0217 2.65886C16.6813 3.33962 16.1081 3.79315 15.3338 3.435L15.9585 3.04693C15.7125 2.8225 15.0421 2.95435 14.7933 3.13109C14.6643 3.22367 14.4688 3.72957 14.4052 3.55283C14.3996 3.4322 14.4202 3.23956 14.3716 3.13109C14.6456 1.83876 16.34 2.04448 16.9207 0.970032C17.2733 1.23467 17.3135 1.68633 17.4444 2.06693C17.767 1.74712 17.7268 2.40824 17.7483 2.64109L17.8156 2.67475L18.2542 2.4045C18.2841 2.63174 18.1569 2.85804 18.2879 3.06283V3.0647Z" fill="#2B2E49"/>
<path d="M13.6954 5.79994C13.7366 5.95891 13.7253 6.15996 13.7628 6.30677C13.8357 6.58918 13.9535 6.61069 13.9993 6.76218C14.0265 6.85195 14.0723 7.34943 13.9993 7.45416C13.9227 7.4018 13.7786 7.39806 13.7123 7.35317C13.2709 7.05113 12.8604 5.77656 13.6954 5.79994Z" fill="#F4675D"/>
<path d="M9.7117 13.0929C9.46108 13.6895 9.19925 14.3132 8.96921 14.9164C8.94583 14.7499 9.2058 14.4208 8.93555 14.4095C8.94583 14.3843 8.95892 14.3675 8.96921 14.3422C9.03186 14.1842 9.26938 13.7522 9.30679 13.5829C9.3124 13.5567 9.34419 13.3416 9.34045 13.3295H9.37412C9.40404 13.5025 9.28809 13.6025 9.42461 13.7007L9.7117 13.0929Z" fill="#FDFCFB"/>
<path d="M19.064 27.576C19.7354 27.8986 19.9177 28.3896 20.3469 28.9263C20.5648 29.1994 20.476 29.2134 20.9043 29.2639C21.9684 29.3892 24.1323 28.7674 24.2978 30.344C24.3072 30.4356 24.2763 30.4552 24.2641 30.5132C23.9182 30.5684 23.8022 30.1831 23.5722 30.0064C23.4609 30.0681 23.6862 30.2168 23.5048 30.2766C22.983 30.4468 22.6342 29.8362 22.2218 29.7698C20.576 29.507 18.515 30.0241 16.9553 29.9045C16.5279 29.8717 15.2618 28.715 14.811 28.4868C14.8765 28.2456 14.8877 27.9538 14.9457 27.7443C14.9578 27.7022 14.9625 27.6041 15.0299 27.6097C15.3889 27.8883 15.8266 28.0052 16.2287 28.1838C16.2885 28.21 16.4409 28.412 16.4821 28.4204C16.772 28.4803 17.175 27.9444 17.4275 27.8126C17.8801 27.576 18.7011 27.4694 19.149 27.7453C19.0172 27.5508 18.646 27.5358 18.4571 27.374C18.6712 27.4124 18.8694 27.4825 19.0649 27.5769L19.064 27.576Z" fill="#FDBD9B"/>
<path d="M24.2637 30.5132C24.26 30.5319 24.3385 30.6002 24.2806 30.6479C24.1029 30.66 23.8972 30.7086 23.7232 30.7152C23.092 30.7395 22.2579 30.5927 21.5622 30.5805C20.4531 30.5609 19.244 30.6544 18.1518 30.5805C17.0596 30.5067 16.074 30.1251 15.079 29.838C14.8686 29.7773 14.6544 29.6688 14.4375 29.6015C14.5843 29.2321 14.704 28.8721 14.8087 28.4877C15.2595 28.7159 16.5256 29.8726 16.953 29.9054C18.5127 30.0251 20.5737 29.5079 22.2196 29.7707C22.6319 29.8362 22.9807 30.4477 23.5025 30.2775C23.6839 30.2186 23.4595 30.07 23.5699 30.0073C23.7999 30.184 23.9159 30.5693 24.2619 30.5141L24.2637 30.5132Z" fill="#F9A183"/>
<path d="M18.4559 27.374C18.6448 27.5358 19.0161 27.5507 19.1479 27.7452C18.6991 27.4694 17.878 27.5769 17.4264 27.8126C17.1739 27.9444 16.7708 28.4802 16.481 28.4204C16.4407 28.412 16.2874 28.2109 16.2275 28.1838C16.4407 28.0856 16.5399 27.8228 16.7175 27.677C17.2103 27.2721 17.8537 27.2646 18.4559 27.3731V27.374Z" fill="#FDBD9B"/>
<path d="M16.0251 15.253C16.0261 15.6495 16.0962 16.0376 16.0251 16.435C16.0055 16.5425 15.9718 16.6931 15.9241 16.7894C15.6623 17.3112 12.452 19.2796 11.7713 19.6424C11.0905 20.0053 10.4817 20.3148 9.76264 20.5205C8.33097 20.9301 7.47066 21.2331 7.55108 19.3722C7.58475 18.6017 8.00555 17.616 8.2599 16.8736C8.37118 16.5481 8.50864 16.1647 8.63114 15.8272C8.77515 15.9768 8.99584 15.9796 9.17164 16.0637C9.47836 16.2096 9.75516 16.4378 10.0497 16.6042C9.9188 17.5712 9.05195 17.6245 8.49649 18.1911C8.22811 18.337 8.0308 18.4539 7.88866 18.7316C7.76897 18.9654 7.67826 19.1235 7.82133 19.39C7.88305 19.5059 8.42635 19.8575 8.54698 19.88C9.15014 19.9894 12.2716 18.553 12.9701 18.1921C14.3036 17.502 15.5884 16.8511 15.9241 15.238L16.0251 15.2549V15.253Z" fill="#FDBD9B"/>
<path d="M18.2532 10.5606C17.2395 12.1372 14.87 12.1671 13.8638 10.5606C13.9461 10.5241 14.4146 10.3502 14.4379 10.324C14.5595 10.5129 14.6923 10.6363 14.8765 10.7626C15.7789 11.3826 16.9085 10.9272 17.6454 10.2557C17.7473 10.3997 18.0774 10.4848 18.2532 10.5597V10.5606Z" fill="#FDBD9B"/>
<path d="M17.4098 8.70343C17.378 8.88858 17.4192 9.2486 17.4435 9.44591L16.2783 10.2567L14.8775 10.7635C14.6933 10.6373 14.5605 10.5138 14.439 10.3249C14.6157 10.1332 14.7803 9.06345 14.8439 8.77169C14.8934 8.81471 14.9598 8.86708 15.0131 8.90635C14.8981 9.37578 15.2254 9.67595 15.6715 9.7171C16.4513 9.78817 16.9582 9.25234 17.4098 8.70437V8.70343Z" fill="#F4675D"/>
<path d="M17.6463 10.2567C16.9104 10.9271 15.7808 11.3826 14.8774 10.7635L16.2782 10.2567L17.4434 9.44592C17.4649 9.61892 17.5556 10.1286 17.6463 10.2567Z" fill="#F9A183"/>
<path d="M17.4097 8.6698C17.4068 8.68009 17.4115 8.69224 17.4097 8.70346C16.958 9.25144 16.4512 9.78727 15.6713 9.7162C15.2252 9.67599 14.8979 9.37581 15.0129 8.90545C15.6638 9.39826 16.0977 9.48055 16.8196 9.07471C17.0169 8.96343 17.1946 8.72684 17.4106 8.6698H17.4097Z" fill="#BF454B"/>
<path d="M18.1182 7.42047C18.149 7.26244 18.0939 6.88091 18.1518 6.72848C18.2098 6.57606 18.3463 6.57419 18.3547 6.55923C18.3669 6.53866 18.3155 6.39652 18.3211 6.37314C18.3641 6.19453 18.4155 6.01218 18.4557 5.83264C19.3235 5.85134 18.7971 7.39803 18.1182 7.41954V7.42047Z" fill="#F9A183"/>
<path d="M17.1395 15.456C17.2172 15.7935 17.0937 16.1825 17.393 16.435C17.7202 16.7118 19.4811 17.2112 19.9758 17.3468C20.0926 17.3786 20.3966 17.5263 20.4826 17.4141C20.5097 17.5403 21.2784 17.8405 21.2933 17.4814C21.342 17.5628 21.3607 17.718 21.4112 17.7517C21.4719 17.7909 22.4454 17.8826 22.6268 17.9209C22.9831 17.9957 23.3281 18.1612 23.69 18.208C22.8999 17.7816 22.2668 17.516 21.8666 16.6379C22.278 16.3995 22.6567 16.0825 23.0822 15.8618C23.1926 15.8309 23.2851 15.7767 23.3861 15.7271C23.6554 16.4397 23.8958 17.17 24.2305 17.8545C24.2745 18.0331 24.44 18.3913 24.5345 18.5633C24.5326 18.684 24.5653 18.7663 24.5681 18.8673L24.2642 19.4583C23.6751 20.1493 23.0878 19.8903 22.3566 19.6443C21.0072 19.1899 17.8203 17.6918 16.9039 16.6566C16.6103 16.3247 16.4345 15.9207 16.2456 15.5252C16.2446 15.6224 16.2035 15.7374 16.1951 15.8291C16.1006 15.0791 16.0913 14.3217 16.0604 13.567C16.0511 13.3482 16.1371 13.2145 16.0267 13.0602C15.9931 13.0134 15.9239 13.0246 15.8921 12.9592C15.9379 12.8732 15.9445 12.8357 16.0436 12.7899C16.3868 12.7394 16.4728 13.8999 16.5672 14.1571C16.7384 14.6265 17.0058 14.8687 17.1414 15.4569L17.1395 15.456Z" fill="#FDCFB0"/>
<path d="M16.025 13.0583C15.9633 13.2051 15.9914 13.4062 15.9914 13.5651C15.9914 14.129 16.0232 14.6891 16.025 15.253L15.924 15.2362C15.5883 16.8493 14.3025 17.5001 12.97 18.1902C12.2724 18.5512 9.15004 19.9884 8.54689 19.8781C8.42532 19.8557 7.88295 19.5041 7.82123 19.3881C7.67816 19.1216 7.76887 18.9636 7.88856 18.7298C8.17471 18.6484 8.37015 18.409 8.64788 18.2912C9.54466 17.9087 10.6079 17.9667 11.5514 17.7507C11.5907 17.7414 11.5159 17.6787 11.6356 17.6497C12.5389 17.4281 13.7826 17.0774 14.6233 16.6706C14.7794 16.5949 14.8159 16.5846 14.9104 16.4341C15.1021 16.1283 15.0665 15.5607 15.147 15.1847C15.2526 14.6873 15.4873 14.3852 15.6538 13.9186C15.7426 13.6689 15.7632 13.1929 15.8904 12.9564C15.9222 13.0228 15.9914 13.0106 16.025 13.0574V13.0583Z" fill="#FDCFB0"/>
<path d="M24.5671 18.8654C24.627 21.0526 24.3839 21.1106 22.2714 20.4523C22.0732 20.3906 21.7908 20.2905 21.5963 20.2157C21.4018 20.1409 21.1652 20.0614 20.9884 19.9791C20.9828 19.9763 20.9492 19.9417 20.8874 19.9118C20.6873 19.8136 20.4732 19.7163 20.2796 19.6079C19.6045 19.2273 16.8552 17.473 16.397 16.9746C16.2053 16.6781 16.1623 16.1741 16.1941 15.8263C16.2025 15.7346 16.2436 15.6196 16.2446 15.5223C16.4335 15.9179 16.6093 16.3209 16.9029 16.6538C17.8193 17.689 21.0062 19.1871 22.3556 19.6415C23.0868 19.8884 23.6741 20.1465 24.2632 19.4554L24.5671 18.8645V18.8654Z" fill="#FDBD9B"/>
<path d="M17.7475 3.74078C17.6072 4.24107 16.6356 4.41781 16.1774 4.4496C15.2713 4.51226 14.2941 4.09145 14.2361 5.46234C14.2249 5.4773 14.2118 5.51096 14.2024 5.52966C14.1155 5.71575 14.0912 6.07764 14.0678 6.28898L13.9668 6.17116C13.9761 5.76438 13.9565 4.85544 14.0341 4.5001C14.1117 4.14475 14.9627 3.85674 15.2666 3.9091C15.4013 3.93248 15.6248 4.1139 15.8744 4.14569C16.5094 4.22611 17.2004 4.05124 17.7484 3.74078H17.7475Z" fill="#F68673"/>
<path d="M14.2026 5.52963C14.212 5.51 14.2251 5.47727 14.2363 5.46231C14.3289 5.33513 14.6421 5.20889 14.7936 5.19206C14.9704 5.17242 15.9008 5.17897 15.638 5.52963H14.2036H14.2026Z" fill="#050B17"/>
<path d="M18.3213 6.37407C18.3157 6.39745 18.3671 6.53959 18.355 6.56016C18.3466 6.57419 18.2082 6.58167 18.1521 6.72942C18.096 6.87716 18.1493 7.26337 18.1184 7.4214C18.0838 7.59814 17.9968 7.96097 17.9155 8.11339C17.8089 8.31257 17.4507 8.4996 17.4086 8.67072C17.1926 8.72776 17.015 8.96528 16.8176 9.07563C16.0957 9.4824 15.6618 9.40011 15.011 8.90637C14.9586 8.86616 14.8922 8.81473 14.8417 8.77171C14.7267 8.67072 14.2938 8.2041 14.2339 8.07973C14.132 7.86652 14.1647 7.56915 13.9973 7.45507C14.0703 7.35033 14.0244 6.85285 13.9973 6.76308C13.9515 6.61159 13.8337 6.58915 13.7607 6.30768L13.9468 6.57793C14.016 6.56016 13.9618 6.24783 13.9637 6.17302L14.0647 6.29085C14.088 6.07857 14.1123 5.71762 14.1993 5.53153H15.6338C15.8966 5.18086 14.9661 5.17431 14.7894 5.19395C14.6379 5.21078 14.3246 5.33703 14.232 5.4642C14.29 4.09332 15.2672 4.51412 16.1733 4.45147C16.6316 4.41967 17.6031 4.242 17.7434 3.74265C18.095 3.73236 18.2343 6.05052 18.182 6.35911L18.3166 6.37594L18.3213 6.37407Z" fill="#FDCFB0"/>
<path d="M16.8188 5.22573C17.1517 5.17056 17.8315 5.18646 18.0176 5.51281L16.5832 5.52964C16.4148 5.32018 16.6514 5.25378 16.8197 5.22573H16.8188Z" fill="#050B17"/>
<path d="M15.3325 7.69073C15.8085 8.00213 16.363 7.8974 16.8689 7.74123C16.4752 8.09097 15.6636 8.15642 15.3325 7.69073Z" fill="#BF454B"/>
<path d="M14.624 5.86725C14.9551 5.9271 15.1804 5.99817 15.5189 5.91774C15.6012 6.04025 14.667 6.13376 14.624 5.86725Z" fill="#0B070B"/>
<path d="M17.5946 5.83356C17.4824 6.0982 16.9083 6.13934 16.7334 5.91772C17.0457 5.9785 17.301 5.97944 17.5946 5.83356Z" fill="#0B070B"/>
<path d="M15.9406 7.25122C16.0593 7.23251 16.0855 7.31948 16.194 7.33538C16.0771 7.41112 15.9312 7.40738 15.8228 7.33538C15.8218 7.32509 15.9312 7.25215 15.9406 7.25122Z" fill="#BF454B"/>
<path d="M16.0595 13.5651C16.0904 14.3198 16.0997 15.0772 16.1942 15.8272C16.1624 16.1741 16.2054 16.6791 16.3971 16.9755C16.3934 16.9718 16.3401 16.9867 16.2961 16.925C16.1717 16.7501 16.2428 16.4079 16.0259 16.435C16.0969 16.0376 16.0268 15.6495 16.0259 15.253C16.024 14.6891 15.9913 14.1281 15.9922 13.5651H16.0595Z" fill="#071D33"/>
<path d="M10.4884 16.8062C10.6754 16.9054 10.8475 17.0522 11.0625 17.1101C10.9812 17.2233 10.7596 17.6441 10.6745 17.6843C10.3734 17.8255 9.40365 17.8293 8.98658 17.9546C8.8192 18.0051 8.64994 18.1079 8.49658 18.1911C9.05204 17.6245 9.9189 17.5712 10.0498 16.6042C10.1882 16.6828 10.35 16.7333 10.4884 16.8072V16.8062Z" fill="#F4675D"/>
<path d="M11.603 17.4141C11.6142 17.4973 11.6367 17.4777 11.6367 17.4814C11.6385 17.5151 11.4768 17.5431 11.6367 17.6507C11.517 17.6796 11.5908 17.7432 11.5525 17.7517C10.609 17.9677 9.54574 17.9097 8.64896 18.2921C8.37123 18.4109 8.17579 18.6494 7.88965 18.7307C8.03179 18.4539 8.2291 18.337 8.49748 18.1902C8.6499 18.107 8.82009 18.0041 8.98748 17.9536C9.40454 17.8293 10.3743 17.8246 10.6754 17.6834C10.7605 17.6432 10.983 17.2224 11.0634 17.1092C11.1691 16.9624 11.2748 16.8147 11.3842 16.6707C11.4487 16.6707 11.5908 17.3252 11.6039 17.4131L11.603 17.4141Z" fill="#F5E9D3"/>
<path d="M21.867 16.637C22.2663 17.5151 22.9003 17.7807 23.6905 18.2071C23.3276 18.1603 22.9835 17.9948 22.6272 17.92C22.4458 17.8817 21.4724 17.791 21.4116 17.7507C21.3602 17.718 21.3424 17.5619 21.2938 17.4805C21.2236 17.3645 21.089 17.1448 21.0908 17.0083C21.2751 17.027 21.5743 16.7913 21.7323 16.7044C21.7744 16.681 21.8361 16.6548 21.867 16.637Z" fill="#F4675D"/>
<path d="M16.0595 13.5651H15.9922C15.9922 13.4062 15.9641 13.2051 16.0259 13.0583C16.1362 13.2126 16.0502 13.3463 16.0595 13.5651Z" fill="#F9A183"/>
<path d="M11.6366 17.6507C11.4767 17.5431 11.6384 17.5151 11.6366 17.4814C11.7656 17.43 11.9106 17.4178 12.0415 17.3804C13.0056 17.1027 13.9903 16.8268 14.9114 16.435C14.8169 16.5856 14.7804 16.5958 14.6243 16.6716C13.7836 17.0784 12.5399 17.429 11.6366 17.6507Z" fill="#FDFCFB"/>
<path d="M13.6615 10.6616C14.4367 12.7769 17.748 12.6422 18.5905 10.6616C19.0581 10.8477 19.4602 10.9852 19.9408 11.1339C21.0602 11.4798 21.8157 11.2713 22.3039 12.5683C22.5592 13.2463 22.7481 13.9972 23.0127 14.7126C23.0791 14.893 23.1492 15.0726 23.2156 15.2531C23.0566 15.2512 22.9164 15.3269 22.777 15.3877C22.5994 15.4653 21.5146 16.0301 21.4604 16.1302C21.3818 16.1414 21.3566 16.0666 21.3257 16.0124C21.019 15.4765 20.7235 14.7733 20.6506 14.1552C20.5608 14.374 20.6197 14.663 20.5496 14.8809C20.2214 15.902 17.9574 15.3419 17.1392 15.455C17.0046 14.8668 16.7371 14.6247 16.5651 14.1552C16.4706 13.8971 16.3855 12.7366 16.0414 12.7881C15.9413 12.8339 15.9357 12.8704 15.8899 12.9573C15.7637 13.1939 15.7421 13.6699 15.6533 13.9196C15.4869 14.3862 15.2531 14.6882 15.1465 15.1857C13.9449 15.2587 12.7404 14.9875 11.5678 14.7472C11.5416 14.5096 11.4883 14.2609 11.4668 14.0215C11.3162 14.7771 11.1217 15.5261 10.7411 16.1994C10.2399 15.9535 9.7097 15.7599 9.20474 15.5242C9.07943 15.4653 8.956 15.3868 8.8335 15.3213C8.88306 15.1895 8.91766 15.0483 8.96815 14.9164C9.19819 14.3142 9.46096 13.6895 9.71064 13.0929C10.6018 10.9693 11.7417 11.4378 13.6606 10.6616H13.6615Z" fill="#B88048"/>
<path d="M19.6714 20.7225L19.6378 24.2339C17.2065 25.2588 15.1707 25.386 12.6655 24.4705C12.4916 24.4069 12.0007 24.1124 11.8726 24.0993L11.9736 23.5924C12.0297 23.3427 12.0231 23.0379 12.0409 22.7817L12.1082 22.8322L12.125 21.9373C12.4327 23.1398 13.3201 24.2255 14.5732 24.4696C15.4223 24.7595 16.5594 24.8062 17.4262 24.5706C17.2785 24.5098 17.1681 24.6295 17.0213 24.6379C16.3658 24.6781 15.4241 24.6669 14.7929 24.5032C14.663 24.4696 14.4254 24.2723 14.3375 24.3686C12.962 23.7692 12.3214 22.2795 12.2101 20.8572C12.2148 20.8572 12.1877 20.7749 12.2606 20.7899C12.3569 20.8086 13.0938 22.2103 13.2902 22.4609C14.0551 23.4381 15.1819 24.0721 16.4303 24.1152C16.3761 24.0132 16.2068 24.0366 16.1937 24.031C16.2732 23.944 16.0993 23.944 16.0245 23.93C15.5579 23.7168 15.0819 23.5111 14.6068 23.3222C13.581 22.5872 12.9143 21.3107 12.7834 20.0642C13.6727 19.5808 15.123 17.8985 16.1423 17.9883C16.6538 18.0331 19.4498 19.7407 19.6032 20.1998C19.6453 20.3251 19.6574 20.5776 19.6705 20.7235L19.6714 20.7225Z" fill="#B88048"/>
<path d="M16.3971 16.9755C16.8553 17.4739 19.6046 19.2282 20.2797 19.6088C20.1769 20.4298 20.0422 21.2424 20.0431 22.0738C19.7084 22.0775 19.7243 22.7134 19.7392 22.9855C19.6476 22.243 19.7392 21.465 19.6719 20.7234C19.6588 20.5776 19.6466 20.3251 19.6046 20.1998C19.4512 19.7416 16.6552 18.0331 16.1437 17.9882C15.1244 17.8985 13.674 19.5817 12.7847 20.0642C12.9157 21.3107 13.5824 22.5871 14.6082 23.3221C15.1001 23.6747 15.4508 23.8234 16.0259 23.93C16.0502 23.9412 16.1315 24.0029 16.1951 24.031C16.2082 24.0366 16.3765 24.0132 16.4317 24.1151C15.1843 24.0721 14.0565 23.4372 13.2916 22.4609C13.0952 22.2103 12.3583 20.8085 12.262 20.7898C12.1891 20.7758 12.2153 20.8572 12.2115 20.8572C12.1704 20.8553 12.1526 20.8534 12.1274 20.8908L12.0432 20.7898C11.9955 20.4167 11.8216 20.0221 11.7729 19.6415C12.4537 19.2787 15.664 17.3103 15.9258 16.7885C15.9735 16.6922 16.0081 16.5416 16.0268 16.4341C16.2437 16.406 16.1717 16.7483 16.297 16.9241C16.341 16.9858 16.3943 16.9708 16.398 16.9746L16.3971 16.9755Z" fill="#875A2E"/>
<path d="M18.2535 10.5606C18.334 10.5952 18.4901 10.6214 18.5911 10.6616C17.7486 12.6422 14.4373 12.7768 13.6621 10.6616C13.7285 10.6345 13.7977 10.5896 13.865 10.5606C14.8703 12.1671 17.2399 12.1372 18.2545 10.5606H18.2535Z" fill="#94510F"/>
<path d="M12.2108 20.8581C12.3221 22.2804 12.9626 23.7701 14.3382 24.3695C14.4167 24.4031 14.4934 24.4433 14.5748 24.4705C13.3217 24.2264 12.4343 23.1407 12.1266 21.9382L12.1098 22.8331L12.0425 22.7826C12.0836 22.1897 12.1173 21.3734 12.0425 20.7908L12.1266 20.8918C12.1519 20.8544 12.1706 20.8562 12.2108 20.8581Z" fill="#875A2E"/>
<path d="M9.20502 15.5233L9.17136 16.0638C8.99556 15.9806 8.77487 15.9778 8.63086 15.8272C8.69258 15.6561 8.77019 15.4887 8.83378 15.3204C8.95628 15.3858 9.07972 15.4644 9.20502 15.5233Z" fill="#94510F"/>
<path d="M15.148 15.1857C15.0676 15.5616 15.1031 16.1292 14.9114 16.435C13.9904 16.8268 13.0057 17.1027 12.0416 17.3804C11.7592 16.5257 11.6675 15.6355 11.5693 14.7471C12.742 14.9875 13.9464 15.2596 15.148 15.1857Z" fill="#B88048"/>
<path d="M19.9759 17.3467C19.4812 17.2112 17.7204 16.7118 17.3931 16.435C17.0948 16.1825 17.2173 15.7935 17.1396 15.4559C17.9569 15.3428 20.2209 15.9039 20.55 14.8818C20.5612 15.7168 20.2583 16.5697 19.9759 17.3467Z" fill="#B88048"/>
<path d="M11.5686 14.7471C11.6677 15.6355 11.7593 16.5257 12.0408 17.3804C11.9099 17.4178 11.765 17.4299 11.6359 17.4814C11.6359 17.4776 11.6135 17.4963 11.6022 17.4141C11.664 17.3121 11.505 16.6921 11.4676 16.6547C11.3872 16.5753 10.8682 16.3957 10.7419 16.2667C10.7111 16.2732 10.3791 16.7193 10.4885 16.8072C10.3501 16.7342 10.1883 16.6828 10.05 16.6042C9.75539 16.4387 9.47859 16.2096 9.17188 16.0637L9.20554 15.5232C9.7105 15.7589 10.2398 15.9525 10.7419 16.1984C11.1225 15.526 11.318 14.7761 11.4676 14.0205C11.4891 14.2608 11.5424 14.5096 11.5686 14.7462V14.7471Z" fill="#875A2E"/>
<path d="M21.4605 16.1311C21.4605 16.1311 21.4605 16.2274 21.4605 16.2321C21.3193 16.2087 20.9359 16.6127 20.8695 16.6034C20.8293 16.5977 20.6965 16.3069 20.6497 16.4341C20.7208 16.6651 20.4449 17.2458 20.4805 17.4132C20.3944 17.5244 20.0905 17.3776 19.9736 17.3458C20.256 16.5688 20.559 15.7169 20.5478 14.8809C20.6179 14.663 20.559 14.374 20.6488 14.1552C20.7217 14.7733 21.0172 15.4756 21.3239 16.0124C21.3557 16.0675 21.3801 16.1414 21.4586 16.1302L21.4605 16.1311Z" fill="#875A2E"/>
<path d="M23.0813 15.8608C22.6558 16.0825 22.278 16.3995 21.8656 16.637C21.8348 16.6548 21.773 16.6809 21.731 16.7043C21.658 16.5949 21.4794 16.3527 21.4607 16.2321C21.4607 16.2274 21.4579 16.1348 21.4607 16.1311C21.5159 16.031 22.5997 15.4662 22.7774 15.3886L22.8447 15.9123C22.8625 15.9282 23.0439 15.8721 23.0813 15.8618V15.8608Z" fill="#94510F"/>
<path d="M23.2169 15.253C23.2739 15.4083 23.3282 15.5729 23.3861 15.7253C23.2861 15.7758 23.1926 15.83 23.0822 15.8599C23.0448 15.8702 22.8644 15.9263 22.8456 15.9104L22.7783 15.3868C22.9177 15.326 23.0579 15.2502 23.2169 15.2521V15.253Z" fill="#94510F"/>
<path d="M19.6718 20.7225C19.7401 21.4641 19.6475 22.2421 19.7392 22.9846C19.7429 23.0463 19.684 23.0921 19.7055 23.1707C19.7167 23.2099 19.9084 23.3474 19.9421 23.4073C20.0122 23.5335 20.0487 23.6794 20.1114 23.7953C20.1226 23.8159 20.2264 23.9169 20.246 23.9646C20.0309 24.0665 19.857 24.1423 19.6382 24.2348L19.6718 20.7235V20.7225Z" fill="#875A2E"/>
<path d="M14.574 24.4705C14.4926 24.4424 14.416 24.4032 14.3374 24.3695C14.4262 24.2732 14.6628 24.4705 14.7928 24.5042C15.424 24.6687 16.3657 24.679 17.0212 24.6388C17.1689 24.6295 17.2793 24.5107 17.4261 24.5715C16.5592 24.8071 15.4231 24.7594 14.5731 24.4705H14.574Z" fill="#875A2E"/>
<path d="M16.0251 23.93C15.449 23.8234 15.0993 23.6747 14.6074 23.3221C15.0834 23.511 15.5594 23.7158 16.0251 23.93Z" fill="#875A2E"/>
<path d="M16.195 24.0315C16.1311 24.0033 16.0493 23.9413 16.0249 23.93C16.1001 23.9441 16.2748 23.9441 16.195 24.0315Z" fill="#875A2E"/>
<path d="M20.043 22.0728C20.043 22.3403 20.1337 22.6563 20.144 22.9341C20.1542 23.2118 20.0607 23.4923 20.1103 23.7953C20.0486 23.6793 20.0121 23.5335 19.941 23.4072C19.9083 23.3474 19.7157 23.2109 19.7044 23.1706C19.6829 23.0921 19.7418 23.0463 19.7381 22.9846C19.7231 22.7124 19.7073 22.0766 20.042 22.0728H20.043Z" fill="#875A2E"/>
<path d="M11.6028 17.4141C11.5907 17.3252 11.4485 16.6716 11.3831 16.6716C11.2736 16.8156 11.168 16.9633 11.0623 17.1102C10.8472 17.0531 10.6761 16.9054 10.4881 16.8062C10.3778 16.7183 10.7107 16.2723 10.7416 16.2657C10.8678 16.3948 11.3868 16.5743 11.4672 16.6538C11.5056 16.6912 11.6636 17.3112 11.6019 17.4131L11.6028 17.4141Z" fill="#94510F"/>
<path d="M21.4607 16.2321C21.4794 16.3527 21.658 16.5949 21.7309 16.7044C21.5729 16.7913 21.2737 17.027 21.0894 17.0083C20.8744 16.9868 20.8155 16.5697 20.6509 16.4341C20.6976 16.3069 20.8304 16.5977 20.8706 16.6034C20.937 16.6127 21.3204 16.2087 21.4616 16.2321H21.4607Z" fill="#94510F"/>
<path d="M28.0783 21.668C27.577 21.3725 27.0562 21.1275 26.4577 21.2799C27.952 21.3715 28.4486 22.1523 28.6524 23.5251C28.6674 23.6233 28.6459 23.8954 28.6524 23.9132C28.7123 24.0787 28.9358 23.7785 28.99 24.1329C28.9741 24.1675 28.9068 24.2386 28.99 24.2676C28.9115 25.1344 27.2731 26.164 26.5765 26.597C25.5722 27.2207 21.6652 29.2649 20.6347 29.0956C20.5375 29.0797 20.4262 28.9843 20.3476 28.9263C19.9184 28.3896 19.7361 27.8986 19.0647 27.576C19.0375 27.3843 18.7813 27.4068 18.6429 27.3731C18.6149 27.3666 18.6373 27.3123 18.6093 27.3058C18.4325 27.2637 18.1641 27.3095 17.9678 27.2385C17.9696 27.1777 18.0594 27.1094 18.1024 27.0692C19.2087 26.0415 22.2974 24.1526 23.6898 23.3558C24.4528 22.9191 25.2757 22.5544 26.0528 22.157L25.9686 22.1065C24.0741 22.863 22.0421 23.311 20.2962 24.4359C20.1728 24.1937 20.2223 24.0675 20.3804 23.8954C20.9573 23.6195 21.5259 23.3025 22.1019 23.0173C22.7135 22.8312 23.2867 22.5077 23.8571 22.2412C25.1635 21.6296 26.5718 20.7104 27.9932 21.5324C28.0016 21.537 28.168 21.6418 28.0773 21.667L28.0783 21.668Z" fill="#1B4059"/>
<path d="M4.84999 22.647C5.4307 22.6517 5.93192 22.792 6.47055 22.9846L5.84589 22.8836C5.23619 22.5666 4.7172 22.7751 4.2085 23.3736C4.14772 23.4456 3.72878 24.0731 3.73627 24.1161C4.93509 24.9287 6.15074 25.7282 7.39912 26.4623C8.56615 27.1487 9.83885 27.8613 11.062 28.4205C12.2449 28.961 13.1828 29.2209 14.4041 29.6024C13.9908 30.6273 12.0579 29.6791 11.2976 29.3995C9.43862 28.716 7.4571 27.8136 5.77763 26.7662C4.3815 25.8956 2.2195 24.6323 3.02558 22.6807C2.87035 23.3119 2.87315 23.9768 3.17706 24.5715C3.29863 24.6052 3.63621 22.9781 4.05514 22.85C4.07665 22.8434 4.17764 22.9107 4.25806 22.8836C4.46285 22.8144 4.65175 22.6975 4.84906 22.647H4.84999Z" fill="#071D33"/>
<path d="M6.03239 21.3977C6.09223 21.408 6.12496 21.422 6.16704 21.4313C5.76588 21.8849 6.09223 21.9242 6.50462 22.0728C5.99779 21.9176 5.42737 21.8559 4.90089 21.9382C6.08382 21.9821 7.21438 22.5067 8.25984 23.0182C8.64043 23.2043 9.00045 23.4278 9.37356 23.6261L9.3399 23.7953C8.38421 23.2876 6.00153 22.214 4.96729 22.546C4.93362 22.5572 4.82515 22.5881 4.84946 22.647C4.65215 22.6975 4.46326 22.8135 4.25847 22.8836C4.17805 22.9107 4.07799 22.8434 4.05555 22.8499C3.63661 22.979 3.29904 24.6061 3.17747 24.5715C2.87262 23.9767 2.87075 23.3119 3.02598 22.6807C3.22236 22.2056 3.57957 21.8942 4.00505 21.6343C4.28652 21.4622 4.40715 21.4155 4.71387 21.2967C4.95139 21.4744 5.31983 21.3107 5.64244 21.3304C5.75279 21.3369 5.91456 21.378 6.03052 21.3977H6.03239Z" fill="#25536B"/>
<path d="M8.25978 22.2421C8.37292 22.2917 8.48233 22.359 8.59735 22.4114C8.83394 22.5189 9.07146 22.6367 9.30617 22.749L9.10325 23.2212C8.99571 23.1885 8.87508 23.1137 8.76567 23.1202C8.67029 23.0716 8.55995 23.0332 8.46176 22.9855C7.91098 22.7144 7.06376 22.2459 6.50362 22.0738C6.09124 21.9251 5.76488 21.8858 6.16605 21.4323C6.88328 21.5857 7.59023 21.9476 8.25884 22.2431L8.25978 22.2421Z" fill="#106B84"/>
<path d="M11.9734 23.5924L11.8724 24.0993C11.5676 24.0675 11.6938 24.261 11.6022 24.319C11.4666 24.405 9.82734 23.396 9.52623 23.2894C9.41963 23.2511 9.32612 23.2904 9.10449 23.2221L9.30741 22.7499C9.64593 22.9117 10.0022 23.0557 10.337 23.2221C10.538 23.3222 11.6733 24.0357 11.7546 24.0329C11.8855 24.0272 11.951 23.6981 11.9744 23.5943L11.9734 23.5924Z" fill="#25536B"/>
<path d="M29.0239 22.9846C29.1015 23.353 29.1539 23.785 28.9902 24.1329C28.936 23.7794 28.7125 24.0786 28.6526 23.9131C28.6461 23.8944 28.6676 23.6232 28.6526 23.5251C28.9556 23.4521 28.9827 23.4362 29.0239 23.7448C29.0753 23.338 28.9435 22.9724 28.8892 22.5797C28.9472 22.7115 28.994 22.8424 29.0239 22.9846Z" fill="#1B4059"/>
<path d="M23.6897 23.3558C23.7093 23.2361 23.4288 23.3128 23.4026 23.3221C22.8481 23.5204 21.8812 24.0899 21.3435 24.4022C20.3354 24.9876 19.3807 25.6768 18.44 26.3603L19.419 24.7398C18.6915 25.0278 18.0294 25.5384 17.3262 25.8535C16.2172 26.351 15.946 26.4492 14.8276 25.9545C14.5536 25.8329 12.8255 24.7968 12.7002 24.8744L13.4595 26.1742L13.3754 26.2247C12.0222 25.4374 10.7234 24.5294 9.34125 23.7934L9.37492 23.6242C9.81349 23.857 10.2549 24.0945 10.6916 24.333C10.9123 24.4536 12.0381 25.2139 12.228 25.1091L12.2111 25.025C11.5266 24.492 10.7982 24.0403 10.0164 23.6578C9.99022 23.6448 9.89391 23.5138 9.81349 23.54C9.79011 23.6971 10.0052 23.6504 10.0164 23.6578C10.1455 23.7514 10.642 24.1235 10.6916 24.232C10.0763 23.8159 9.42822 23.454 8.76709 23.1183C8.8765 23.1117 8.99713 23.1865 9.10467 23.2193C9.32723 23.2875 9.4198 23.2492 9.52641 23.2866C9.82751 23.3932 11.4668 24.4022 11.6024 24.3162C11.694 24.2582 11.5678 24.0656 11.8726 24.0964C12.0007 24.1095 12.4926 24.4041 12.6656 24.4677C15.1708 25.3831 17.2065 25.2569 19.6378 24.2311C19.8567 24.1385 20.0306 24.0628 20.2457 23.9608C20.255 23.9561 20.27 23.9655 20.2793 23.9608C20.3195 23.9421 20.341 23.9122 20.3803 23.8935C20.2223 24.0656 20.1727 24.1918 20.2962 24.434C22.0411 23.309 24.074 22.8602 25.9686 22.1046L26.0527 22.1551C25.2757 22.5525 24.4518 22.9172 23.6897 23.3539V23.3558Z" fill="#071D33"/>
<path d="M28.0791 21.6679C28.4606 21.8923 28.7009 22.1486 28.8898 22.5797C28.944 22.9715 29.0759 23.338 29.0245 23.7448C28.9833 23.4362 28.9562 23.4521 28.6532 23.5251C28.4503 22.1523 27.9528 21.3715 26.4585 21.2798C27.057 21.1274 27.5778 21.3734 28.0791 21.6679Z" fill="#1B4059"/>
<path d="M6.47069 22.9846C7.04579 23.1903 7.70505 23.5325 8.24274 23.829C8.87114 24.175 10.4627 25.3682 10.9948 25.5169C11.827 26.063 12.6715 26.5951 13.5271 27.1038C13.7328 27.2263 14.4557 27.7331 14.5735 27.7789C14.5697 27.8565 14.5791 27.9379 14.5735 28.0155C14.552 28.3185 14.235 28.8356 13.9825 28.9946C13.0305 29.5968 11.9785 28.5822 11.0621 28.4204C9.83898 27.8612 8.56535 27.1477 7.39926 26.4623C6.15088 25.7282 4.93429 24.9277 3.7364 24.1161C3.72986 24.0721 4.14786 23.4446 4.20864 23.3736C4.71734 22.776 5.23633 22.5666 5.84603 22.8836L6.47069 22.9846Z" fill="#1B4059"/>
<path d="M11.1977 25.4496C11.1332 25.5356 11.0995 25.5468 10.9948 25.5169C10.4636 25.3682 8.87204 24.175 8.24271 23.829C7.70501 23.5335 7.04482 23.1912 6.47066 22.9846C5.93203 22.7919 5.43081 22.6517 4.8501 22.647C6.64646 22.1897 9.6697 24.5144 11.1977 25.4496Z" fill="#2F6082"/>
<path d="M14.8105 28.4877C14.7058 28.873 14.5861 29.2321 14.4393 29.6015C14.429 29.5987 14.4159 29.6043 14.4056 29.6015C13.1834 29.2199 12.2464 28.9609 11.0635 28.4195C11.9799 28.5813 13.0319 29.5959 13.9839 28.9936C14.2354 28.8337 14.5533 28.3176 14.5748 28.0146C14.8984 28.2007 14.8432 28.0342 14.8788 27.8117C14.8788 27.8079 14.9199 27.8257 14.9124 27.7443H14.9461C14.8881 27.9538 14.8769 28.2455 14.8114 28.4868L14.8105 28.4877Z" fill="#106B84"/>
<path d="M6.50509 22.0728C7.06523 22.2449 7.91245 22.7134 8.46323 22.9846C8.3931 23.0715 8.2547 22.8508 8.26031 23.0182C7.21485 22.5067 6.08429 21.9812 4.90137 21.9382C5.42784 21.8568 5.99826 21.9176 6.50509 22.0728Z" fill="#2F6082"/>
<path d="M8.46246 22.9846C8.56065 23.0332 8.671 23.0716 8.76638 23.1192C9.42751 23.4559 10.0755 23.8178 10.6909 24.233C10.717 24.2891 10.818 24.2666 10.6909 24.334C10.2542 24.0955 9.81277 23.858 9.3742 23.6251C9.00109 23.4269 8.64107 23.2043 8.26048 23.0173C8.25393 22.8499 8.39233 23.0706 8.4634 22.9837L8.46246 22.9846Z" fill="#2F6082"/>
<path d="M6.03247 21.3977C5.91651 21.378 5.75474 21.3369 5.64439 21.3303C5.32178 21.3107 4.95334 21.4744 4.71582 21.2967C4.74574 21.2855 4.83739 21.2798 4.88508 21.263C5.07397 21.1948 5.13756 21.2481 5.32365 21.1284C5.54808 21.2088 5.86415 21.1976 6.03247 21.3986V21.3977Z" fill="#1B4059"/>
<path d="M13.6621 26.9682L13.5274 27.1028C12.6718 26.5941 11.8274 26.062 10.9951 25.5159C11.0999 25.5449 11.1335 25.5346 11.198 25.4486C12.0191 25.9508 12.8289 26.4866 13.663 26.9682H13.6621Z" fill="#2F6082"/>
<path d="M14.9113 27.7453C14.9188 27.8266 14.8786 27.8089 14.8777 27.8126C14.8431 27.7331 14.5878 27.7845 14.5737 27.7789C14.4559 27.7331 13.7331 27.2263 13.5273 27.1038L13.662 26.9691C13.9126 27.1141 14.6673 27.4011 14.8272 27.5433C14.9253 27.6312 14.9001 27.6284 14.9113 27.7462V27.7453Z" fill="#2F6082"/>
<path d="M9.34059 23.7953C10.7227 24.5303 12.0216 25.4393 13.3747 26.2266L13.4589 26.1761L12.6995 24.8763C12.8248 24.7996 14.5529 25.8357 14.8269 25.9564C15.9444 26.4501 16.2156 26.3529 17.3256 25.8554C18.0297 25.5393 18.6908 25.0287 19.4184 24.7417L18.4393 26.3622C19.38 25.6786 20.3348 24.9895 21.3428 24.4041C21.8805 24.0917 22.8474 23.5223 23.402 23.324C23.4281 23.3147 23.7087 23.238 23.689 23.3577C22.2967 24.1553 19.208 26.0433 18.1017 27.071C18.0587 27.1112 17.968 27.1786 17.9671 27.2403C18.1634 27.3114 18.4318 27.2655 18.6085 27.3076C18.6366 27.3142 18.6142 27.3684 18.6422 27.3749C18.7806 27.4086 19.0368 27.3862 19.064 27.5779C18.8685 27.4844 18.6703 27.4142 18.4561 27.3749C17.853 27.2665 17.2105 27.274 16.7177 27.6789C16.541 27.8247 16.4419 28.0866 16.2277 28.1857C15.8256 28.0071 15.3889 27.8902 15.0289 27.6115C14.9616 27.6059 14.956 27.7041 14.9448 27.7462H14.9111C14.8999 27.6284 14.9251 27.6312 14.8269 27.5433C14.668 27.4011 13.9133 27.1141 13.6618 26.9691C12.8276 26.4885 12.0188 25.9526 11.1968 25.4495C9.66976 24.5144 6.64558 22.1907 4.84922 22.647C4.82491 22.5881 4.93338 22.5563 4.96705 22.546C6.00035 22.214 8.38397 23.2875 9.33966 23.7953H9.34059Z" fill="#071D33"/>
<path d="M17.0554 25.9891C17.0815 25.9863 17.133 25.9807 17.1395 26.006C16.4017 26.4361 15.6639 26.6203 14.9111 26.0733C15.2899 26.1593 15.6387 26.4296 16.0426 26.394C16.3185 26.3697 16.8824 26.005 17.0554 25.9891Z" fill="#2F6082"/>
<path d="M10.6903 24.3349C10.8175 24.2676 10.7165 24.29 10.6903 24.2339C10.6407 24.1254 10.1442 23.7532 10.0151 23.6597C10.7969 24.0431 11.5254 24.4939 12.2099 25.0269L12.2267 25.111C12.0369 25.2148 10.911 24.4555 10.6903 24.3349Z" fill="#405F75"/>
<path d="M10.0152 23.6597C10.0049 23.6522 9.78894 23.698 9.81231 23.5419C9.8918 23.5157 9.98905 23.6476 10.0152 23.6597Z" fill="#405F75"/>
<path d="M14.8776 27.8126C14.842 28.0352 14.8982 28.2016 14.5737 28.0155C14.5793 27.9379 14.5699 27.8575 14.5737 27.7789C14.5877 27.7845 14.843 27.7331 14.8776 27.8126Z" fill="#2F6082"/>
</svg>
